<svg xmlns="http://www.w3.org/2000/svg" width="355.798" height="204" viewBox="0 0 355.798 204">
  <g id="Grupo_986599" data-name="Grupo 986599" transform="translate(-360 -5723)">
    <path id="Trazado_141544" data-name="Trazado 141544" d="M-39.842-1932.36a100.283,100.283,0,0,0-75.9-34.617,100.516,100.516,0,0,0-100.516,100.516,100.516,100.516,0,0,0,100.516,100.516,100.282,100.282,0,0,0,75.9-34.616,100.122,100.122,0,0,1-24.617-65.9A100.122,100.122,0,0,1-39.842-1932.36Z" transform="translate(577.742 7691.461)" fill="#ffd34d"/>
    <path id="Trazado_659749" data-name="Trazado 659749" d="M8.292-5.4H3.329v3.719h5.8V0h-7.9V-12.086H9.073v1.693H3.329v3.337H8.292Zm4.25-3.586.058.938a3.232,3.232,0,0,1,2.59-1.1A2.483,2.483,0,0,1,17.656-7.77a3.186,3.186,0,0,1,2.756-1.378,2.8,2.8,0,0,1,2.212.822A3.618,3.618,0,0,1,23.367-5.9V0H21.35V-5.844A1.786,1.786,0,0,0,20.976-7.1a1.635,1.635,0,0,0-1.237-.4,1.679,1.679,0,0,0-1.125.369,1.948,1.948,0,0,0-.61.967L18.013,0H16V-5.91A1.439,1.439,0,0,0,14.377-7.5a1.776,1.776,0,0,0-1.718.988V0H10.642V-8.981ZM33.3-4.4a5.348,5.348,0,0,1-.946,3.324A3.031,3.031,0,0,1,29.816.166a3.051,3.051,0,0,1-2.366-.971V3.453H25.434V-8.981h1.859l.083.913a2.963,2.963,0,0,1,2.416-1.079,3.062,3.062,0,0,1,2.577,1.224,5.49,5.49,0,0,1,.934,3.4Zm-2.009-.174a3.746,3.746,0,0,0-.535-2.133A1.741,1.741,0,0,0,29.227-7.5a1.856,1.856,0,0,0-1.776,1.021V-2.49a1.873,1.873,0,0,0,1.793,1.046A1.739,1.739,0,0,0,30.75-2.22,4.124,4.124,0,0,0,31.294-4.574ZM37.154,0H35.137V-12.75h2.017Zm6.151.166A4.173,4.173,0,0,1,40.2-1.042a4.381,4.381,0,0,1-1.191-3.217v-.249a5.389,5.389,0,0,1,.519-2.4,3.949,3.949,0,0,1,1.457-1.648,3.851,3.851,0,0,1,2.092-.589,3.525,3.525,0,0,1,2.835,1.17,4.949,4.949,0,0,1,1,3.312v.813H41.039a2.7,2.7,0,0,0,.743,1.76,2.23,2.23,0,0,0,1.639.647,2.731,2.731,0,0,0,2.258-1.121l1.087,1.038a3.631,3.631,0,0,1-1.44,1.249A4.509,4.509,0,0,1,43.305.166Zm-.241-7.695a1.7,1.7,0,0,0-1.341.581,3.012,3.012,0,0,0-.652,1.619h3.843v-.149a2.452,2.452,0,0,0-.54-1.531A1.686,1.686,0,0,0,43.064-7.529ZM53.839,0a3.113,3.113,0,0,1-.232-.838,3.14,3.14,0,0,1-2.357,1,3.169,3.169,0,0,1-2.208-.772,2.47,2.47,0,0,1-.855-1.909,2.55,2.55,0,0,1,1.067-2.2A5.169,5.169,0,0,1,52.3-5.487H53.54v-.589a1.573,1.573,0,0,0-.39-1.116,1.547,1.547,0,0,0-1.187-.419,1.777,1.777,0,0,0-1.129.344,1.066,1.066,0,0,0-.44.876H48.377a2.239,2.239,0,0,1,.49-1.382A3.263,3.263,0,0,1,50.2-8.782a4.68,4.68,0,0,1,1.88-.365,3.769,3.769,0,0,1,2.515.793,2.827,2.827,0,0,1,.963,2.229v4.051A4.591,4.591,0,0,0,55.9-.141V0ZM51.623-1.453a2.294,2.294,0,0,0,1.125-.291,1.941,1.941,0,0,0,.793-.78V-4.217H52.453a2.973,2.973,0,0,0-1.685.39,1.264,1.264,0,0,0-.564,1.1,1.179,1.179,0,0,0,.386.926A1.5,1.5,0,0,0,51.623-1.453Zm5.669-3.1a5.34,5.34,0,0,1,.963-3.333,3.085,3.085,0,0,1,2.582-1.258,2.931,2.931,0,0,1,2.308,1v-4.6h2.017V0H63.335l-.1-.93A2.973,2.973,0,0,1,60.82.166,3.068,3.068,0,0,1,58.267-1.1,5.535,5.535,0,0,1,57.292-4.557Zm2.017.174a3.739,3.739,0,0,0,.527,2.137,1.71,1.71,0,0,0,1.5.768,1.9,1.9,0,0,0,1.81-1.1V-6.417A1.876,1.876,0,0,0,61.351-7.5a1.723,1.723,0,0,0-1.511.776A4.163,4.163,0,0,0,59.309-4.383Zm7.579-.191a5.3,5.3,0,0,1,.523-2.378A3.819,3.819,0,0,1,68.88-8.579a4.14,4.14,0,0,1,2.175-.569,3.923,3.923,0,0,1,2.951,1.17,4.6,4.6,0,0,1,1.224,3.1l.008.473a5.343,5.343,0,0,1-.51,2.374A3.773,3.773,0,0,1,73.267-.407a4.17,4.17,0,0,1-2.2.573A3.9,3.9,0,0,1,68.029-1.1a4.848,4.848,0,0,1-1.141-3.374ZM68.9-4.4a3.619,3.619,0,0,0,.573,2.171,1.862,1.862,0,0,0,1.594.784,1.842,1.842,0,0,0,1.59-.8,4,4,0,0,0,.569-2.333,3.572,3.572,0,0,0-.585-2.158,1.869,1.869,0,0,0-1.59-.8,1.852,1.852,0,0,0-1.569.784A3.922,3.922,0,0,0,68.9-4.4ZM81.979-2.44a.914.914,0,0,0-.444-.822,4.723,4.723,0,0,0-1.473-.5,7.574,7.574,0,0,1-1.718-.548,2.293,2.293,0,0,1-1.511-2.117,2.391,2.391,0,0,1,.979-1.942,3.872,3.872,0,0,1,2.49-.78,4.029,4.029,0,0,1,2.6.8A2.529,2.529,0,0,1,83.9-6.284H81.879a1.243,1.243,0,0,0-.432-.967A1.654,1.654,0,0,0,80.3-7.637a1.787,1.787,0,0,0-1.083.307.968.968,0,0,0-.419.822.818.818,0,0,0,.39.722,5.365,5.365,0,0,0,1.577.519,7.466,7.466,0,0,1,1.864.623,2.639,2.639,0,0,1,1,.867,2.212,2.212,0,0,1,.328,1.229,2.34,2.34,0,0,1-1,1.963,4.283,4.283,0,0,1-2.631.751,4.644,4.644,0,0,1-1.967-.4,3.238,3.238,0,0,1-1.345-1.1,2.594,2.594,0,0,1-.481-1.5h1.959a1.421,1.421,0,0,0,.54,1.1,2.1,2.1,0,0,0,1.32.386,2.04,2.04,0,0,0,1.212-.3A.938.938,0,0,0,81.979-2.44Z" transform="translate(393.032 5829.387)" fill="#12263f"/>
    <path id="Trazado_141547" data-name="Trazado 141547" d="M24.617,0c4.455,0,24.617,29.5,24.617,65.9s-20.495,65.9-24.617,65.9S0,102.295,0,65.9,20.162,0,24.617,0Z" transform="translate(513.282 5759.101)" fill="#ffa726"/>
    <path id="Trazado_659750" data-name="Trazado 659750" d="M7.994-2.814H3.312L2.333,0H.149L4.715-12.086H6.6L11.173,0H8.981ZM3.9-4.507H7.4L5.653-9.521ZM6.284-15.323h2.3l-2.3,2.515-1.619,0ZM17.05-7.139a4.991,4.991,0,0,0-.822-.066A1.85,1.85,0,0,0,14.36-6.143V0H12.343V-8.981h1.926l.05,1a2.273,2.273,0,0,1,2.025-1.17,1.888,1.888,0,0,1,.714.116Zm5.229,7.3a4.173,4.173,0,0,1-3.109-1.208,4.381,4.381,0,0,1-1.191-3.217v-.249a5.389,5.389,0,0,1,.519-2.4,3.949,3.949,0,0,1,1.457-1.648,3.851,3.851,0,0,1,2.092-.589,3.525,3.525,0,0,1,2.835,1.17,4.949,4.949,0,0,1,1,3.312v.813H20.013a2.7,2.7,0,0,0,.743,1.76,2.23,2.23,0,0,0,1.639.647,2.731,2.731,0,0,0,2.258-1.121l1.087,1.038A3.631,3.631,0,0,1,24.3-.278,4.509,4.509,0,0,1,22.279.166Zm-.241-7.695a1.7,1.7,0,0,0-1.341.581,3.012,3.012,0,0,0-.652,1.619H23.89v-.149a2.452,2.452,0,0,0-.54-1.531A1.686,1.686,0,0,0,22.039-7.529ZM32.813,0a3.113,3.113,0,0,1-.232-.838,3.14,3.14,0,0,1-2.357,1,3.169,3.169,0,0,1-2.208-.772,2.47,2.47,0,0,1-.855-1.909,2.55,2.55,0,0,1,1.067-2.2,5.169,5.169,0,0,1,3.051-.768h1.237v-.589a1.573,1.573,0,0,0-.39-1.116,1.547,1.547,0,0,0-1.187-.419,1.777,1.777,0,0,0-1.129.344,1.066,1.066,0,0,0-.44.876H27.351a2.239,2.239,0,0,1,.49-1.382,3.263,3.263,0,0,1,1.332-1.009,4.68,4.68,0,0,1,1.88-.365,3.769,3.769,0,0,1,2.515.793,2.827,2.827,0,0,1,.963,2.229v4.051a4.591,4.591,0,0,0,.34,1.934V0ZM30.6-1.453a2.294,2.294,0,0,0,1.125-.291,1.941,1.941,0,0,0,.793-.78V-4.217H31.427a2.973,2.973,0,0,0-1.685.39,1.264,1.264,0,0,0-.564,1.1,1.179,1.179,0,0,0,.386.926A1.5,1.5,0,0,0,30.6-1.453ZM41.678-2.44a.914.914,0,0,0-.444-.822,4.723,4.723,0,0,0-1.473-.5,7.574,7.574,0,0,1-1.718-.548,2.293,2.293,0,0,1-1.511-2.117,2.391,2.391,0,0,1,.979-1.942A3.872,3.872,0,0,1,40-9.147a4.029,4.029,0,0,1,2.6.8A2.529,2.529,0,0,1,43.6-6.284H41.579a1.243,1.243,0,0,0-.432-.967A1.654,1.654,0,0,0,40-7.637a1.787,1.787,0,0,0-1.083.307.968.968,0,0,0-.419.822.818.818,0,0,0,.39.722,5.365,5.365,0,0,0,1.577.519,7.466,7.466,0,0,1,1.864.623,2.639,2.639,0,0,1,1,.867,2.212,2.212,0,0,1,.328,1.229,2.34,2.34,0,0,1-1,1.963,4.283,4.283,0,0,1-2.631.751,4.644,4.644,0,0,1-1.967-.4,3.238,3.238,0,0,1-1.345-1.1,2.594,2.594,0,0,1-.481-1.5h1.959a1.421,1.421,0,0,0,.54,1.1,2.1,2.1,0,0,0,1.32.386,2.04,2.04,0,0,0,1.212-.3A.938.938,0,0,0,41.678-2.44Z" transform="translate(615.216 5829.387)" fill="#12263f"/>
    <g id="Grupo_96208" data-name="Grupo 96208" transform="translate(536.415 5723)">
      <path id="Trazado_141545" data-name="Trazado 141545" d="M37.959-1764.477a102.008,102.008,0,0,1-77.02-35.127,1.485,1.485,0,0,1,0-1.947,98.977,98.977,0,0,0,24.253-64.926A98.975,98.975,0,0,0-39.061-1931.4a1.485,1.485,0,0,1,0-1.947,102,102,0,0,1,77.02-35.127,102.116,102.116,0,0,1,102,102A102.116,102.116,0,0,1,37.959-1764.477Zm-73.933-36.113a99.04,99.04,0,0,0,73.933,33.146,99.145,99.145,0,0,0,99.032-99.032,99.145,99.145,0,0,0-99.032-99.032,99.039,99.039,0,0,0-73.933,33.145,101.95,101.95,0,0,1,24.135,65.888A101.945,101.945,0,0,1-35.975-1800.59Z" transform="translate(39.424 1968.477)" fill="#12263f"/>
    </g>
    <g id="Grupo_96209" data-name="Grupo 96209" transform="translate(360 5723)">
      <path id="Trazado_141546" data-name="Trazado 141546" d="M-115.758-1764.477a102.116,102.116,0,0,1-102-102,102.116,102.116,0,0,1,102-102,102,102,0,0,1,77.02,35.127,1.485,1.485,0,0,1,0,1.947,98.975,98.975,0,0,0-24.253,64.926,98.977,98.977,0,0,0,24.253,64.926,1.485,1.485,0,0,1,0,1.947A102.006,102.006,0,0,1-115.758-1764.477Zm0-201.032a99.145,99.145,0,0,0-99.032,99.032,99.145,99.145,0,0,0,99.032,99.032,99.04,99.04,0,0,0,73.933-33.146,101.945,101.945,0,0,1-24.135-65.887,101.95,101.95,0,0,1,24.135-65.888A99.039,99.039,0,0,0-115.758-1965.509Z" transform="translate(217.758 1968.477)" fill="#12263f"/>
    </g>
  </g>
</svg>
