<svg xmlns="http://www.w3.org/2000/svg" width="359.667" height="206.218" viewBox="0 0 359.667 206.218">
  <g id="Grupo_986600" data-name="Grupo 986600" transform="translate(-358 -6467)">
    <path id="Trazado_141548" data-name="Trazado 141548" d="M-37.924-1931.984A101.369,101.369,0,0,1,38.8-1966.977a101.609,101.609,0,0,1,101.609,101.609A101.609,101.609,0,0,1,38.8-1763.759a101.369,101.369,0,0,1-76.724-34.993,101.215,101.215,0,0,0,24.884-66.616A101.215,101.215,0,0,0-37.924-1931.984Z" transform="translate(575.758 8435.477)" fill="#039be5"/>
    <path id="Trazado_141551" data-name="Trazado 141551" d="M24.885,0c4.529,0,24.885,29.825,24.885,66.616s-19.877,66.616-24.885,66.616S0,103.407,0,66.616,20.356,0,24.885,0Z" transform="translate(512.949 6503.492)" fill="#ffa726"/>
    <g id="Grupo_96211" data-name="Grupo 96211" transform="translate(575.758 8435.477)">
      <path id="Trazado_141549" data-name="Trazado 141549" d="M38.8-1762.259a103.117,103.117,0,0,1-77.857-35.509,1.5,1.5,0,0,1,0-1.968,100.053,100.053,0,0,0,24.517-65.632A100.051,100.051,0,0,0-39.057-1931a1.5,1.5,0,0,1,0-1.968A103.114,103.114,0,0,1,38.8-1968.477a103.226,103.226,0,0,1,103.109,103.109A103.226,103.226,0,0,1,38.8-1762.259Zm-74.737-36.506A100.117,100.117,0,0,0,38.8-1765.259a100.223,100.223,0,0,0,100.109-100.109A100.223,100.223,0,0,0,38.8-1965.477a100.116,100.116,0,0,0-74.737,33.505,103.058,103.058,0,0,1,24.4,66.6A103.053,103.053,0,0,1-35.937-1798.765Z" fill="#12263f"/>
    </g>
    <g id="Grupo_96212" data-name="Grupo 96212" transform="translate(575.758 8435.477)">
      <path id="Trazado_141550" data-name="Trazado 141550" d="M-114.649-1762.259a103.226,103.226,0,0,1-103.109-103.109,103.226,103.226,0,0,1,103.109-103.109,103.112,103.112,0,0,1,77.857,35.509,1.5,1.5,0,0,1,0,1.968,100.051,100.051,0,0,0-24.517,65.632,100.053,100.053,0,0,0,24.517,65.632,1.5,1.5,0,0,1,0,1.968A103.116,103.116,0,0,1-114.649-1762.259Zm0-203.218a100.223,100.223,0,0,0-100.109,100.109,100.223,100.223,0,0,0,100.109,100.109,100.117,100.117,0,0,0,74.737-33.506,103.053,103.053,0,0,1-24.4-66.6,103.058,103.058,0,0,1,24.4-66.6A100.116,100.116,0,0,0-114.649-1965.477Z" fill="#12263f"/>
    </g>
    <path id="Trazado_659751" data-name="Trazado 659751" d="M8.78-5.713H3.524v3.938H9.668V0H1.3V-12.8H9.606V-11H3.524v3.533H8.78Zm4.5-3.8.062.993a3.422,3.422,0,0,1,2.742-1.169,2.629,2.629,0,0,1,2.61,1.459,3.373,3.373,0,0,1,2.918-1.459,2.965,2.965,0,0,1,2.342.87,3.831,3.831,0,0,1,.787,2.566V0H22.605V-6.187a1.891,1.891,0,0,0-.4-1.327,1.731,1.731,0,0,0-1.31-.422,1.778,1.778,0,0,0-1.191.391,2.063,2.063,0,0,0-.646,1.024L19.072,0H16.937V-6.258a1.523,1.523,0,0,0-1.714-1.679A1.88,1.88,0,0,0,13.4-6.891V0H11.268V-9.51ZM35.262-4.658a5.662,5.662,0,0,1-1,3.52A3.209,3.209,0,0,1,31.57.176a3.23,3.23,0,0,1-2.5-1.028V3.656H26.93V-9.51H28.9l.088.967a3.137,3.137,0,0,1,2.558-1.143,3.242,3.242,0,0,1,2.729,1.3,5.813,5.813,0,0,1,.989,3.6Zm-2.127-.185A3.966,3.966,0,0,0,32.568-7.1a1.843,1.843,0,0,0-1.622-.835,1.965,1.965,0,0,0-1.881,1.081v4.219a1.983,1.983,0,0,0,1.9,1.107,1.841,1.841,0,0,0,1.6-.822A4.366,4.366,0,0,0,33.135-4.843ZM39.34,0H37.2V-13.5H39.34Zm6.513.176A4.419,4.419,0,0,1,42.561-1.1,4.639,4.639,0,0,1,41.3-4.509v-.264a5.706,5.706,0,0,1,.549-2.544,4.181,4.181,0,0,1,1.542-1.745,4.078,4.078,0,0,1,2.215-.624,3.733,3.733,0,0,1,3,1.239,5.24,5.24,0,0,1,1.059,3.507v.861H43.453a2.856,2.856,0,0,0,.787,1.863,2.362,2.362,0,0,0,1.736.686,2.892,2.892,0,0,0,2.391-1.187l1.151,1.1A3.845,3.845,0,0,1,47.993-.294,4.774,4.774,0,0,1,45.853.176ZM45.6-7.972a1.8,1.8,0,0,0-1.419.615,3.189,3.189,0,0,0-.69,1.714h4.069V-5.8a2.6,2.6,0,0,0-.571-1.622A1.785,1.785,0,0,0,45.6-7.972ZM57.006,0a3.3,3.3,0,0,1-.246-.888,3.325,3.325,0,0,1-2.5,1.063,3.355,3.355,0,0,1-2.338-.817,2.615,2.615,0,0,1-.905-2.021A2.7,2.7,0,0,1,52.15-5a5.473,5.473,0,0,1,3.23-.813h1.31v-.624a1.666,1.666,0,0,0-.413-1.182A1.638,1.638,0,0,0,55.02-8.06a1.881,1.881,0,0,0-1.2.365,1.129,1.129,0,0,0-.466.927H51.223a2.37,2.37,0,0,1,.519-1.463A3.455,3.455,0,0,1,53.152-9.3a4.955,4.955,0,0,1,1.991-.387,3.99,3.99,0,0,1,2.663.839,2.993,2.993,0,0,1,1.02,2.36V-2.2a4.861,4.861,0,0,0,.36,2.048V0ZM54.659-1.538a2.429,2.429,0,0,0,1.191-.308,2.055,2.055,0,0,0,.839-.826V-4.465H55.538a3.148,3.148,0,0,0-1.784.413,1.338,1.338,0,0,0-.6,1.169,1.248,1.248,0,0,0,.409.98A1.583,1.583,0,0,0,54.659-1.538Zm6-3.287a5.654,5.654,0,0,1,1.02-3.529,3.267,3.267,0,0,1,2.733-1.332,3.1,3.1,0,0,1,2.443,1.055V-13.5h2.136V0H67.061l-.105-.984A3.148,3.148,0,0,1,64.4.176a3.248,3.248,0,0,1-2.7-1.345A5.861,5.861,0,0,1,60.662-4.825Zm2.136.185a3.958,3.958,0,0,0,.558,2.263,1.811,1.811,0,0,0,1.586.813,2.017,2.017,0,0,0,1.916-1.169V-6.794a1.986,1.986,0,0,0-1.9-1.143,1.824,1.824,0,0,0-1.6.822A4.408,4.408,0,0,0,62.8-4.641Zm8.024-.2a5.607,5.607,0,0,1,.554-2.518,4.044,4.044,0,0,1,1.556-1.723,4.383,4.383,0,0,1,2.3-.6,4.154,4.154,0,0,1,3.125,1.239,4.874,4.874,0,0,1,1.3,3.287l.009.5a5.658,5.658,0,0,1-.541,2.514A4,4,0,0,1,77.577-.431a4.415,4.415,0,0,1-2.325.606,4.125,4.125,0,0,1-3.221-1.34,5.133,5.133,0,0,1-1.208-3.573Zm2.136.185a3.832,3.832,0,0,0,.606,2.3,1.971,1.971,0,0,0,1.688.831,1.95,1.95,0,0,0,1.683-.844,4.232,4.232,0,0,0,.6-2.47,3.782,3.782,0,0,0-.62-2.285,1.979,1.979,0,0,0-1.683-.844,1.96,1.96,0,0,0-1.661.831A4.152,4.152,0,0,0,72.958-4.658ZM86.8-2.584a.968.968,0,0,0-.47-.87,5,5,0,0,0-1.56-.527,8.02,8.02,0,0,1-1.819-.58,2.428,2.428,0,0,1-1.6-2.241,2.531,2.531,0,0,1,1.037-2.057,4.1,4.1,0,0,1,2.637-.826,4.266,4.266,0,0,1,2.755.844,2.677,2.677,0,0,1,1.05,2.188H86.7a1.316,1.316,0,0,0-.457-1.024,1.752,1.752,0,0,0-1.213-.409,1.893,1.893,0,0,0-1.147.325,1.025,1.025,0,0,0-.444.87.866.866,0,0,0,.413.765,5.68,5.68,0,0,0,1.67.549,7.9,7.9,0,0,1,1.973.659A2.794,2.794,0,0,1,88.554-4,2.342,2.342,0,0,1,88.9-2.7,2.478,2.478,0,0,1,87.838-.62a4.535,4.535,0,0,1-2.786.8,4.917,4.917,0,0,1-2.083-.422,3.428,3.428,0,0,1-1.424-1.16A2.746,2.746,0,0,1,81.035-3h2.074a1.5,1.5,0,0,0,.571,1.165,2.22,2.22,0,0,0,1.4.409,2.16,2.16,0,0,0,1.283-.321A.993.993,0,0,0,86.8-2.584Z" transform="translate(391.391 6575.369)" fill="#12263f"/>
    <path id="Trazado_659752" data-name="Trazado 659752" d="M8.464-2.979H3.507L2.47,0H.158L4.992-12.8h2L11.83,0H9.51ZM4.131-4.772H7.84L5.985-10.081ZM6.653-16.225H9.088L6.653-13.562l-1.714,0Zm11.4,8.666a5.285,5.285,0,0,0-.87-.07A1.959,1.959,0,0,0,15.205-6.5V0H13.069V-9.51h2.039l.053,1.063a2.406,2.406,0,0,1,2.145-1.239,2,2,0,0,1,.756.123ZM23.59.176A4.419,4.419,0,0,1,20.3-1.1a4.639,4.639,0,0,1-1.261-3.406v-.264a5.706,5.706,0,0,1,.549-2.544,4.181,4.181,0,0,1,1.542-1.745,4.078,4.078,0,0,1,2.215-.624,3.733,3.733,0,0,1,3,1.239A5.24,5.24,0,0,1,27.4-4.939v.861H21.19a2.856,2.856,0,0,0,.787,1.863,2.362,2.362,0,0,0,1.736.686A2.892,2.892,0,0,0,26.1-2.716l1.151,1.1A3.845,3.845,0,0,1,25.73-.294,4.774,4.774,0,0,1,23.59.176Zm-.255-8.147a1.8,1.8,0,0,0-1.419.615,3.189,3.189,0,0,0-.69,1.714h4.069V-5.8a2.6,2.6,0,0,0-.571-1.622A1.785,1.785,0,0,0,23.335-7.972ZM34.743,0A3.3,3.3,0,0,1,34.5-.888,3.325,3.325,0,0,1,32,.176a3.355,3.355,0,0,1-2.338-.817,2.615,2.615,0,0,1-.905-2.021A2.7,2.7,0,0,1,29.887-5a5.473,5.473,0,0,1,3.23-.813h1.31v-.624a1.666,1.666,0,0,0-.413-1.182,1.638,1.638,0,0,0-1.257-.444,1.881,1.881,0,0,0-1.2.365,1.129,1.129,0,0,0-.466.927H28.96a2.37,2.37,0,0,1,.519-1.463A3.455,3.455,0,0,1,30.889-9.3a4.955,4.955,0,0,1,1.991-.387,3.99,3.99,0,0,1,2.663.839,2.993,2.993,0,0,1,1.02,2.36V-2.2a4.861,4.861,0,0,0,.36,2.048V0ZM32.4-1.538a2.429,2.429,0,0,0,1.191-.308,2.055,2.055,0,0,0,.839-.826V-4.465H33.275a3.148,3.148,0,0,0-1.784.413,1.338,1.338,0,0,0-.6,1.169,1.248,1.248,0,0,0,.409.98A1.583,1.583,0,0,0,32.4-1.538ZM44.13-2.584a.968.968,0,0,0-.47-.87,5,5,0,0,0-1.56-.527,8.02,8.02,0,0,1-1.819-.58,2.428,2.428,0,0,1-1.6-2.241,2.531,2.531,0,0,1,1.037-2.057,4.1,4.1,0,0,1,2.637-.826,4.266,4.266,0,0,1,2.755.844,2.677,2.677,0,0,1,1.05,2.188H44.024a1.316,1.316,0,0,0-.457-1.024,1.752,1.752,0,0,0-1.213-.409,1.893,1.893,0,0,0-1.147.325,1.025,1.025,0,0,0-.444.87.866.866,0,0,0,.413.765,5.68,5.68,0,0,0,1.67.549,7.9,7.9,0,0,1,1.973.659A2.794,2.794,0,0,1,45.883-4a2.342,2.342,0,0,1,.347,1.3A2.478,2.478,0,0,1,45.167-.62a4.535,4.535,0,0,1-2.786.8A4.917,4.917,0,0,1,40.3-.246a3.428,3.428,0,0,1-1.424-1.16A2.746,2.746,0,0,1,38.364-3h2.074a1.5,1.5,0,0,0,.571,1.165,2.22,2.22,0,0,0,1.4.409,2.16,2.16,0,0,0,1.283-.321A.993.993,0,0,0,44.13-2.584Z" transform="translate(615.991 6575.369)" fill="#12263f"/>
  </g>
</svg>
