<svg xmlns="http://www.w3.org/2000/svg" xmlns:xlink="http://www.w3.org/1999/xlink" width="186" height="170.602" viewBox="0 0 186 170.602">
  <defs>
    <linearGradient id="linear-gradient" x1="0.5" x2="0.5" y2="1" gradientUnits="objectBoundingBox">
      <stop offset="0" stop-color="#f5f5f5"/>
      <stop offset="0.25" stop-color="#f5f5f5"/>
      <stop offset="1" stop-color="#a7b3cf"/>
    </linearGradient>
  </defs>
  <g id="Grupo_985985" data-name="Grupo 985985" transform="translate(-915 -5504.045)">
    <g id="Programming-amico" transform="translate(947.101 5508.109)">
      <g id="freepik--Desk--inject-8" transform="translate(0 0)">
        <g id="freepik--desk--inject-8-2" data-name="freepik--desk--inject-8" transform="translate(0 0)">
          <g id="freepik--Table--inject-8" transform="translate(2.967 36.449)">
            <path id="Trazado_184010" data-name="Trazado 184010" d="M320.18,285.885v44.688a1,1,0,0,0,.451.781l.958.552a.99.99,0,0,0,.9,0l.958-.552a1,1,0,0,0,.451-.781V285.885c0-.286-.2-.4-.451-.258l-.958.552a.99.99,0,0,1-.9,0l-.958-.552C320.381,285.483,320.18,285.6,320.18,285.885Z" transform="translate(-270.428 -221.934)" fill="#37474f"/>
            <path id="Trazado_184011" data-name="Trazado 184011" d="M320.631,331.885l.958-.552a1,1,0,0,0,.451-.781V285.885c0-.286-.2-.4-.451-.258l-.958.552a1,1,0,0,0-.451.769v44.688C320.18,331.913,320.381,332.038,320.631,331.885Z" transform="translate(-268.568 -221.934)" fill="#455a64"/>
            <path id="Trazado_184012" data-name="Trazado 184012" d="M421.69,227.242v44.663a.986.986,0,0,0,.451.781l.958.564a1.015,1.015,0,0,0,.9,0l.958-.556a1,1,0,0,0,.451-.781V227.242c0-.286-.205-.4-.451-.262l-.958.556a.99.99,0,0,1-.9,0l-.958-.556C421.891,226.839,421.69,226.952,421.69,227.242Z" transform="translate(-412.805 -186.899)" fill="#37474f"/>
            <path id="Trazado_184013" data-name="Trazado 184013" d="M422.141,273.251l.958-.556a1,1,0,0,0,.451-.781V227.243c0-.286-.205-.4-.451-.262l-.958.556a1,1,0,0,0-.451.781v44.664A.283.283,0,0,0,422.141,273.251Z" transform="translate(-410.945 -186.9)" fill="#455a64"/>
            <path id="Trazado_184014" data-name="Trazado 184014" d="M183.47,207v44.688a1,1,0,0,0,.451.781l.958.552a.99.99,0,0,0,.9,0l.958-.552a1,1,0,0,0,.451-.781V207c0-.286-.2-.4-.451-.258l-.97.552a.99.99,0,0,1-.9,0l-.958-.552C183.671,206.593,183.47,206.709,183.47,207Z" transform="translate(-78.679 -174.805)" fill="#37474f"/>
            <path id="Trazado_184015" data-name="Trazado 184015" d="M183.951,252.965l.958-.552a1,1,0,0,0,.451-.781V206.945c0-.286-.2-.4-.451-.258l-.958.572a1,1,0,0,0-.451.781V252.7C183.512,252.994,183.713,253.11,183.951,252.965Z" transform="translate(-76.862 -174.775)" fill="#455a64"/>
            <path id="Trazado_184016" data-name="Trazado 184016" d="M155.8,171.031v-.326a1.808,1.808,0,0,1,.805-1.421l72.064-41.576a1.816,1.816,0,0,1,1.643,0l44.333,25.6a1.808,1.808,0,0,1,.805,1.421v.35a1.808,1.808,0,0,1-.805,1.421l-72.064,41.572a1.844,1.844,0,0,1-1.643,0l-44.333-25.625A1.808,1.808,0,0,1,155.8,171.031Z" transform="translate(-155.8 -127.512)" fill="#373f51"/>
            <path id="Trazado_184018" data-name="Trazado 184018" d="M384.788,258.183v2.222a1.707,1.707,0,0,1-.805-.2l-44.358-25.6a1.816,1.816,0,0,1-.805-1.421v-.33a1.824,1.824,0,0,1,.668-1.312c-.294.254-.246.6.153.841l44.333,25.6A1.662,1.662,0,0,0,384.788,258.183Z" transform="translate(-338.82 -189.659)" fill="#373f51"/>
            <path id="Trazado_184020" data-name="Trazado 184020" d="M157.266,170.23l44.341,25.609a1.816,1.816,0,0,0,1.643,0l72.068-41.56a.5.5,0,0,0,0-.946l-44.333-25.625a1.816,1.816,0,0,0-1.643,0l-72.076,41.576a.5.5,0,0,0,0,.946Z" transform="translate(-156.461 -127.512)" fill="url(#linear-gradient)"/>
          </g>
          <g id="freepik--Keyboard--inject-8" transform="translate(54.136 58.863)">
            <path id="freepik--shadow--inject-8" d="M218.825,204.469l10.5,6.079a1.308,1.308,0,0,0,1.18,0l31.032-17.891a.358.358,0,0,0,0-.68l-10.5-6.083a1.312,1.312,0,0,0-1.176,0l-31.036,17.9a.358.358,0,0,0,0,.68Z" transform="translate(-218.579 -184.721)" opacity="0.15"/>
            <g id="freepik--keyboard--inject-8-2" data-name="freepik--keyboard--inject-8" transform="translate(0.676)">
              <path id="Trazado_184022" data-name="Trazado 184022" d="M262.414,189.364a.4.4,0,0,0-.246-.338l-9.868-5.7a1.288,1.288,0,0,0-1.176,0l-30.114,17.412a.4.4,0,0,0-.242.342v1.035a.4.4,0,0,0,.242.338l9.863,5.7a1.3,1.3,0,0,0,1.18,0l30.114-17.392a.4.4,0,0,0,.246-.338Z" transform="translate(-220.766 -183.188)" fill="#263238"/>
              <path id="Trazado_184023" data-name="Trazado 184023" d="M230.879,207.094l-9.863-5.672a.358.358,0,0,1,0-.68l30.114-17.412a1.288,1.288,0,0,1,1.176,0l9.867,5.7a.358.358,0,0,1,0,.68L232.058,207.09A1.308,1.308,0,0,1,230.879,207.094Z" transform="translate(-220.769 -183.188)" fill="#37474f"/>
              <path id="Trazado_184024" data-name="Trazado 184024" d="M308.4,233.782v1.059a1.176,1.176,0,0,1-.552-.137l-9.859-5.693a.4.4,0,0,1-.246-.342V227.63a.4.4,0,0,0,.246.342l9.859,5.673A1.208,1.208,0,0,0,308.4,233.782Z" transform="translate(-297.736 -209.738)" fill="#263238"/>
              <path id="Trazado_184025" data-name="Trazado 184025" d="M263.146,191.085h0l-.974-.564-1.325.765.982.584,1.325-.765Zm-1.53-.882-.978-.564-1.043.6.982.556,1.039-.6Zm-.322,1.953-.978-.564-1.039.6.982.584,1.039-.6Zm-1.208-2.818h0l-.978-.564-1.679.974.982.58,1.679-.97Zm-.036,1.788h0l-.974-.568-.829.479.978.564.825-.487Zm-.322,1.949h0l-.974-.564-1.043.6.986.584,1.039-.6Zm-1.031-1.168-.974-.564-.805.479.982.584.805-.479Zm-.137-3.454h0l-.978-.564-1.324.765.974.556,1.325-.765Zm-.4,5.528h0l-.974-.564-7.52,4.34.982.584,7.52-4.34Zm-.282-3.37h0l-.974-.564-.805.479.982.58.825-.475Zm-.535,2.077-.974-.564-.825.479.982.584.825-.479Zm-.31-5.113h0l-.974-.564-.829.479.982.58.817-.5Zm-.322,1.953h0l-.974-.564-.829.475.974.552.829-.475Zm-.181,1.868h0l-.974-.564-.825.479.982.58.825-.475Zm-.535,2.077-.974-.564-.805.479.982.584.805-.479Zm-.314-5.117h0l-.974-.564-.829.479.982.58.805-.475Zm-.322,1.953h0l-.974-.564-.829.475.982.584.825-.475Zm-.181,1.868h0l-.974-.564-.805.479.982.58.805-.475Zm0-5.673h0l-.974-.564-1.043.6.986.584,1.039-.6Zm-.535,7.75-.974-.564-.825.479.982.584.825-.479Zm-.314-5.117h0l-.974-.564-.829.479.974.535.825-.475ZM254,191.089h0l-.974-.564L252.2,191l.982.584.829-.507Zm-.181,1.868h0l-.974-.564-.825.479.982.58.825-.475Zm-.535,2.077-.974-.564-.805.479.982.584.805-.479Zm-.266-7.287h0l-.978-.564-.825.475.982.584.825-.475Zm-.048,2.17h0l-.974-.564-.829.479.978.56.805-.475Zm-.322,1.953h0l-.974-.564-.829.475.982.584.825-.475Zm-.181,1.868h0l-.974-.564-.805.479.982.58.805-.475Zm-.535,2.077h0l-.982-.592-.805.479.982.584.825-.479Zm-.266-7.287h0l-.974-.564-.829.475.982.584.805-.475Zm-.048,2.17h0l-.974-.564-.829.479.974.548.805-.475Zm-.322,1.953h0l-.974-.564-.829.475.982.584.825-.475Zm-.181,1.868h0l-.978-.564-.825.479.982.58.825-.475Zm-.535,2.077h0l-.974-.568-.825.479.982.584.825-.479Zm-.266-7.287h0l-.978-.564-.825.475.982.584.825-.475Zm-.048,2.17h0l-.978-.564-.825.479.986.58.805-.475Zm-.149,7.15-.978-.564-1.039.6.982.584,1.039-.6Zm-.173-5.2h0l-.974-.564-.829.475.982.584.825-.475Zm-.181,1.868h0l-.978-.564-.813.447.982.58.825-.475Zm-.535,2.077-.974-.564-.829.479.986.584.825-.479Zm-.266-7.287h0l-.978-.564-.817.463.982.584.825-.475Zm-.048,2.17h0l-.978-.564-.825.479.982.58.825-.475Zm-.322,1.953h0l-.978-.564-.805.475.982.584.805-.475Zm-.04,5.318h0l-.978-.564-1.039.6.982.584,1.039-.6Zm-.141-3.45h0l-.974-.564-.805.479.938.548.805-.475Zm-.535,2.077-.974-.564-.829.479.986.584.825-.479Zm-.314-5.117h0l-.978-.564-.805.479.982.58.809-.507Zm-.322,1.953h0l-.978-.564-.825.475.982.584.825-.475Zm-.181,1.868h0l-.974-.564-.825.479.982.58.817-.523Zm-.04-5.636h0l-.978-.564-.825.479.982.584.821-.527Zm-.032,9.223-.978-.564-1.039.6.99.539,1.039-.6Zm-.463-1.5h0l-.974-.568-.829.479.986.584.805-.479Zm-.314-5.117-.974-.564-.829.479.982.58.825-.475Zm-.322,1.953h0l-.978-.564-.825.475.982.584.825-.475Zm-.181,1.868h0l-.974-.564-.829.479.986.58.817-.511Zm-.04-5.636h0l-.978-.564-.825.479.982.584.805-.479Zm-.25,9.348-.978-.568-1.325.765.982.584,1.325-.765Zm-.246-1.61h0l-.974-.568-2.609,1.506.982.584,2.585-1.574Zm-.314-5.117h0l-.978-.564-.825.479.982.58.825-.475Zm-.322,1.953h0l-.978-.564-.817.4.982.584.825-.475Zm-.181,1.868h0l-.974-.564-.829.479.994.511.805-.475Zm-.04-5.636h0l-.978-.564-.825.479.982.584.825-.479Zm-.805,2.609h0l-.978-.564-.825.479.982.58.825-.475Zm-.221,7.19h0l-.974-.564-.829.475.986.584.805-.475Zm-.1-5.234h0l-.978-.564-.805.475.934.5.805-.475ZM243,199.258h0l-.974-.564-.757.435a.483.483,0,0,1-.238.052.536.536,0,0,1-.25-.052l-1.284-.741-.966.56,2.508,1.465,1.969-1.135Zm-.04-5.636h0l-.978-.564-.825.479.974.479.825-.479Zm-.805,2.609h0l-.974-.564-.829.479.982.58.805-.475Zm-.221,7.19h0l-.974-.564-.829.475.986.584.805-.475Zm-.1-5.234h0l-.978-.564-.825.475.982.584.825-.475Zm-.805-3.442h0l-.974-.564-.829.475.986.584.825-.475Zm-.221,2.271h0l-.974-.564-.829.479.982.58.825-.475Zm-.221,7.19h0l-.978-.564-.825.475.986.584.805-.475Zm-.177-1.663-.974-.564-.829.479.986.584.805-.572Zm-.733-7.017h0l-.974-.564-.825.475.982.584.825-.475Zm-.221,2.271h0l-.978-.564-1.465.845.982.584,1.465-.845Zm-.507,7.355h0l-.974-.564-2.182,1.256.986.584,2.178-1.256Zm-.242-5.157h0l-.978-.564-.825.479.982.58.825-.475Zm-.382-3.688h0l-.974-.564-.825.475.978.483.805-.475Zm-.906,7.963h0l-.978-.564-.825.479.982.584.825-.479Zm-.064-3.495h0l-.978-.564-.805.479.982.58.805-.475Zm-.177-1.663h0l-.978-.564-.805.475.982.584.805-.475Zm-.205-2.013h0l-.974-.564-.805.475.982.584.805-.475Zm-.729,9.626h0l-.974-.564-.829.475.986.584.805-.475Zm-.177-1.663h0l-.978-.564-.805.479.982.584.805-.479ZM236,201.569h0l-.978-.564-.825.479.982.58.825-.475Zm-.113,1.828-.978-.564-.805.479.982.58.805-.475Zm-.064-3.49h0l-.978-.564-.825.475.982.584.825-.475Zm-.5-1.852h0l-.974-.564-.829.475.962.479.825-.475Zm-.431,9.453h0l-2.5-1.449-.825.479L234.07,208l.829-.475Zm-.177-1.663h0l-.978-.564-.825.479.97.467.805-.479Zm-.177-1.667-.978-.564-.825.479.982.58.809-.592Zm-.064-3.49h0l-.978-.564-.825.475.982.584.825-.475Zm-.109,1.828h0l-.978-.564-.825.475.982.584.825-.475Zm-.4-3.68h0l-.974-.564-.829.475.982.584.825-.475Zm-.785,6.123-.978-.564-.825.479.982.584.817-.572ZM233,203.3h0l-.978-.564-.825.475.97.471L233,203.2Zm-.177-1.663h0l-.974-.564-.829.475.986.584.805-.475Zm-.217-2.013h0l-.974-.564-.829.475.982.584.825-.475Zm-.785,6.123h0l-2.508-1.445-.825.475L231,206.243l.825-.479Zm-.173-1.663h0l-.978-.564-.825.475.982.584.825-.475Zm-.177-1.663h0l-.974-.564-.829.475.99.467.805-.475Zm-.9-2.081h0l-.4-.246-.829.479.427.262.805-.475Zm-.455,2.862h0l-.974-.564-.829.475.986.584.805-.475Zm-.9-2.081h0l-.4-.246-.829.479.427.262.805-.475Zm-.455,2.862h0l-.974-.564-.829.475.986.584.805-.475Zm-.9-2.081h0l-.4-.246-.829.479.427.262.805-.475Zm-1.349.781h0l-.4-.246-.829.479.427.262.805-.475Z" transform="translate(-223.325 -184.832)" fill="#636363"/>
            </g>
          </g>
          <g id="freepik--Device--inject-8" transform="translate(20.87 7.481)">
            <path id="freepik--shadow--inject-8-2" data-name="freepik--shadow--inject-8" d="M280.06,187.67l-9.24-5.334,46.2-26.676,9.239,5.334Z" transform="translate(-270.82 -115.36)" opacity="0.15"/>
            <g id="freepik--Monitor--inject-8" transform="translate(6.158)">
              <path id="Trazado_184026" data-name="Trazado 184026" d="M312.439,185.48l6.594-3.817a1.744,1.744,0,0,0,1.023-1.421v-.918l-6.208-3.523a1.457,1.457,0,0,1-.656-1.139V166.53l-11.522,6.659v8.132a1.457,1.457,0,0,0,.656,1.139l5.185,3.019A5.451,5.451,0,0,0,312.439,185.48Z" transform="translate(-283.194 -121.854)" fill="#e6e6e6"/>
              <path id="Trazado_184027" data-name="Trazado 184027" d="M343.236,190.774v.914l-2.11-1.208a1.449,1.449,0,0,1-.656-1.139v-8.132l2.194-1.268c.044.56.1,1.135.141,1.695l-1.538.894v6.353a1.437,1.437,0,0,0,.656,1.139Z" transform="translate(-321.994 -129.865)" fill="#e0e0e0"/>
              <path id="Trazado_184028" data-name="Trazado 184028" d="M301.665,182.822a1.449,1.449,0,0,0,.656,1.139l4.388,2.56a5.451,5.451,0,0,0,4.928,0l6.6-3.817c1.361-.781,1.361-2.057,0-2.842l-4.392-2.561a1.449,1.449,0,0,1-.656-1.135V169.81l-11.522,6.659Z" transform="translate(-282.392 -123.814)" fill="#f5f5f5"/>
              <path id="Trazado_184029" data-name="Trazado 184029" d="M325.3,178.075h0l-1.337-.773a1.449,1.449,0,0,1-.656-1.135V169.81l-11.522,6.659v6.353a1.449,1.449,0,0,0,.656,1.139l1.312.761Z" transform="translate(-292.517 -123.814)" fill="#ebebeb"/>
              <path id="Trazado_184030" data-name="Trazado 184030" d="M311.638,198.31v.918a1.737,1.737,0,0,1-1.019,1.421l-6.6,3.813a4.96,4.96,0,0,1-2.351.584v-.914a4.96,4.96,0,0,0,2.351-.584l6.6-3.817A1.732,1.732,0,0,0,311.638,198.31Z" transform="translate(-274.776 -140.84)" fill="#ebebeb"/>
              <path id="Trazado_184031" data-name="Trazado 184031" d="M275.446,123.344a1.759,1.759,0,0,0,1.59-.028L321.6,97.606a1.808,1.808,0,0,0,.805-1.421V57.162a1.542,1.542,0,0,0-2.363-1.365l-44.559,25.73a1.808,1.808,0,0,0-.805,1.421v39A1.755,1.755,0,0,0,275.446,123.344Z" transform="translate(-274.676 -55.56)" fill="#455a64"/>
              <path id="Trazado_184032" data-name="Trazado 184032" d="M275.486,124.818l44.563-25.705a1.807,1.807,0,0,0,.805-1.421V58.664c0-.523-.366-.733-.805-.471L275.486,83.918a1.82,1.82,0,0,0-.805,1.421v39.007C274.664,124.878,275.035,125.079,275.486,124.818Z" transform="translate(-273.125 -57.065)" fill="#37474f"/>
              <path id="Trazado_184033" data-name="Trazado 184033" d="M389.91,215.633a1.534,1.534,0,0,1-2.238-1.425V209.82l1.538.878v4.388C389.209,215.577,389.511,215.79,389.91,215.633Z" transform="translate(-387.67 -147.716)" fill="#e0e0e0"/>
              <path id="Trazado_184034" data-name="Trazado 184034" d="M274.68,172.434v4.388c0,.523.37.737.805.475l44.579-25.718a1.808,1.808,0,0,0,.805-1.421V145.77Z" transform="translate(-273.141 -109.452)" fill="#fff"/>
              <path id="Trazado_184035" data-name="Trazado 184035" d="M278.47,120.468V89.6a1.1,1.1,0,0,1,.491-.854L321.1,64.419c.27-.157.491-.032.491.282V95.572a1.083,1.083,0,0,1-.491.853l-42.139,24.329C278.7,120.911,278.47,120.782,278.47,120.468Z" transform="translate(-275.389 -60.812)" fill="#407bff"/>
              <path id="Trazado_184036" data-name="Trazado 184036" d="M278.47,120.468V89.6a1.1,1.1,0,0,1,.491-.854L321.1,64.419c.27-.157.491-.032.491.282V95.572a1.083,1.083,0,0,1-.491.853l-42.139,24.329C278.7,120.911,278.47,120.782,278.47,120.468Z" transform="translate(-275.389 -60.812)" fill="#fff" opacity="0.5"/>
              <path id="Trazado_184037" data-name="Trazado 184037" d="M330.849,182.919a1.707,1.707,0,0,0-.769,1.333c0,.491.346.692.769.447a1.707,1.707,0,0,0,.773-1.337C331.61,182.89,331.252,182.673,330.849,182.919Z" transform="translate(-306.197 -131.584)" fill="#455a64"/>
              <path id="Trazado_184038" data-name="Trazado 184038" d="M390.589,122.472a1.771,1.771,0,0,0-.242.805v34.711l-1.538-.89V122.4a1.691,1.691,0,0,1,.242-.805Z" transform="translate(-388.809 -95.007)" fill="#263238"/>
            </g>
          </g>
          <g id="freepik--Window--inject-8" transform="translate(12.903)">
            <g id="freepik--window--inject-8-2" data-name="freepik--window--inject-8">
              <path id="Trazado_184039" data-name="Trazado 184039" d="M346.273,38.88a.471.471,0,0,0,0-.072h0a.342.342,0,0,0,0-.068.324.324,0,0,0-.044-.1.135.135,0,0,0-.024-.04l-.024-.028a.321.321,0,0,0-.052-.052h0a.4.4,0,0,0-.068-.04.576.576,0,0,0-.527.068L293.525,68.556a1.751,1.751,0,0,0-.785,1.365v37.638h0v.173a.535.535,0,0,0,.282.471l.036.024.04.024h.068a.4.4,0,0,0,.1,0,.519.519,0,0,0,.258-.076h.02l.692-.423,51.254-29.582a1.739,1.739,0,0,0,.785-1.361V38.965C346.277,38.945,346.273,38.913,346.273,38.88Z" transform="translate(-291.693 -37.853)" fill="#455a64"/>
              <path id="Trazado_184040" data-name="Trazado 184040" d="M347.7,37.582a.576.576,0,0,0-.527.068L295.168,67.66a1.751,1.751,0,0,0-.785,1.365v2.585l-1-.588V68.473a1.739,1.739,0,0,1,.785-1.361l52.007-30.029a.547.547,0,0,1,.568-.048C346.88,37.123,347.533,37.494,347.7,37.582Z" transform="translate(-293.376 -36.977)" fill="#afafaf"/>
              <path id="Trazado_184041" data-name="Trazado 184041" d="M346.317,38.938c0-.5-.354-.7-.785-.447L293.525,68.5a1.727,1.727,0,0,0-.785,1.361v2.585l53.577-30.931Z" transform="translate(-291.733 -37.817)" fill="#f4a338"/>
              <path id="Trazado_184043" data-name="Trazado 184043" d="M425.24,116.518v-2.552a1.611,1.611,0,0,1,.237-.805l1,.576a1.546,1.546,0,0,0-.238.781v2.6Z" transform="translate(-425.24 -82.489)" opacity="0.15"/>
              <path id="Trazado_184044" data-name="Trazado 184044" d="M420.762,114.472a1.172,1.172,0,0,0-.443.942c0,.374.2.568.443.427a1.171,1.171,0,0,0,.443-.942C421.205,114.524,421.008,114.331,420.762,114.472Z" transform="translate(-417.984 -83.245)" fill="#455a64"/>
              <path id="Trazado_184045" data-name="Trazado 184045" d="M416.793,112.181a1.164,1.164,0,0,0-.443.938c0,.378.2.568.443.427a1.164,1.164,0,0,0,.443-.938C417.235,112.229,417.038,112.04,416.793,112.181Z" transform="translate(-412.416 -81.877)" fill="#455a64"/>
              <path id="Trazado_184046" data-name="Trazado 184046" d="M412.823,109.915a1.172,1.172,0,0,0-.443.942c0,.374.2.568.443.427a1.176,1.176,0,0,0,.443-.942C413.265,109.943,413.068,109.754,412.823,109.915Z" transform="translate(-406.848 -80.517)" fill="#455a64"/>
              <path id="Trazado_184047" data-name="Trazado 184047" d="M426.384,157.8l-.04-.024-.829-.479a.829.829,0,0,1-.4-.608,1.052,1.052,0,0,1,0-.113V121.49l1.006.592v35.247a.52.52,0,0,0,.246.447h.024Z" transform="translate(-425.095 -87.466)" fill="#263238" opacity="0.9"/>
            </g>
            <g id="freepik--Code--inject-8" transform="translate(4.376 6.663)">
              <path id="Trazado_184048" data-name="Trazado 184048" d="M342.864,79.38,331.9,85.7a.6.6,0,0,0-.282.463c0,.169.125.234.282.141l10.963-6.317a.6.6,0,0,0,.278-.463C343.142,79.352,343.017,79.291,342.864,79.38Z" transform="translate(-308.588 -68.947)" fill="#fff"/>
              <path id="Trazado_184049" data-name="Trazado 184049" d="M346.435,109.421l-4.139,2.391a.6.6,0,0,0-.278.463c0,.165.125.229.278.141l4.139-2.383a.588.588,0,0,0,.282-.463C346.725,109.4,346.593,109.333,346.435,109.421Z" transform="translate(-316.35 -86.895)" fill="#e6e6e6"/>
              <path id="Trazado_184050" data-name="Trazado 184050" d="M346.435,115.43l-4.139,2.387a.608.608,0,0,0-.278.467c0,.165.125.229.278.141l4.139-2.387a.6.6,0,0,0,.282-.463C346.725,115.4,346.592,115.341,346.435,115.43Z" transform="translate(-316.35 -90.484)" fill="#e6e6e6"/>
              <path id="Trazado_184051" data-name="Trazado 184051" d="M383.771,96.621l-21.953,12.641a.608.608,0,0,0-.278.467c0,.165.125.229.278.141l21.953-12.641a.608.608,0,0,0,.278-.467C384.049,96.6,383.924,96.532,383.771,96.621Z" transform="translate(-361.54 -79.248)" fill="#fff"/>
              <path id="Trazado_184052" data-name="Trazado 184052" d="M349.215,151.551l-6.683,3.869a.588.588,0,0,0-.282.463c0,.165.125.229.282.141l6.683-3.869a.6.6,0,0,0,.278-.463C349.493,151.527,349.368,151.462,349.215,151.551Z" transform="translate(-319.218 -112.063)" fill="#fff"/>
              <path id="Trazado_184053" data-name="Trazado 184053" d="M383.771,162.71l-21.953,12.657a.6.6,0,0,0-.278.463c0,.169.125.229.278.141l21.953-12.657a.6.6,0,0,0,.278-.463C384.049,162.682,383.924,162.621,383.771,162.71Z" transform="translate(-361.54 -118.729)" fill="#fff"/>
              <path id="Trazado_184054" data-name="Trazado 184054" d="M337.409,85.4,331.9,88.574a.6.6,0,0,0-.278.463c0,.169.125.233.278.141l5.511-3.156a.6.6,0,0,0,.278-.463C337.687,85.377,337.562,85.313,337.409,85.4Z" transform="translate(-303.133 -72.545)" fill="#407bff"/>
              <path id="Trazado_184055" data-name="Trazado 184055" d="M337.409,85.4,331.9,88.574a.6.6,0,0,0-.278.463c0,.169.125.233.278.141l5.511-3.156a.6.6,0,0,0,.278-.463C337.687,85.377,337.562,85.313,337.409,85.4Z" transform="translate(-303.133 -72.545)" fill="#fff" opacity="0.6"/>
              <path id="Trazado_184056" data-name="Trazado 184056" d="M334.482,91.4,331.9,92.89a.6.6,0,0,0-.278.463c0,.165.125.229.278.141l2.585-1.473a.6.6,0,0,0,.278-.463C334.76,91.372,334.635,91.312,334.482,91.4Z" transform="translate(-300.206 -76.129)" fill="#407bff"/>
              <path id="Trazado_184057" data-name="Trazado 184057" d="M334.482,91.4,331.9,92.89a.6.6,0,0,0-.278.463c0,.165.125.229.278.141l2.585-1.473a.6.6,0,0,0,.278-.463C334.76,91.372,334.635,91.312,334.482,91.4Z" transform="translate(-300.206 -76.129)" fill="#fff" opacity="0.6"/>
              <path id="Trazado_184058" data-name="Trazado 184058" d="M334.482,103.411,331.9,104.9a.608.608,0,0,0-.278.467c0,.165.125.229.278.141l2.585-1.49a.608.608,0,0,0,.278-.467C334.76,103.387,334.635,103.322,334.482,103.411Z" transform="translate(-300.206 -83.304)" fill="#407bff"/>
              <path id="Trazado_184059" data-name="Trazado 184059" d="M334.482,103.411,331.9,104.9a.608.608,0,0,0-.278.467c0,.165.125.229.278.141l2.585-1.49a.608.608,0,0,0,.278-.467C334.76,103.387,334.635,103.322,334.482,103.411Z" transform="translate(-300.206 -83.304)" fill="#fff" opacity="0.6"/>
              <path id="Trazado_184060" data-name="Trazado 184060" d="M334.482,109.421l-2.585,1.49a.6.6,0,0,0-.278.463c0,.169.125.234.278.141l2.585-1.49a.6.6,0,0,0,.278-.463C334.76,109.4,334.635,109.332,334.482,109.421Z" transform="translate(-300.206 -86.895)" fill="#407bff"/>
              <path id="Trazado_184061" data-name="Trazado 184061" d="M334.482,109.421l-2.585,1.49a.6.6,0,0,0-.278.463c0,.169.125.234.278.141l2.585-1.49a.6.6,0,0,0,.278-.463C334.76,109.4,334.635,109.332,334.482,109.421Z" transform="translate(-300.206 -86.895)" fill="#fff" opacity="0.6"/>
              <path id="Trazado_184062" data-name="Trazado 184062" d="M351.61,94.831l-3.309,1.92a.6.6,0,0,0-.282.463c0,.169.125.229.282.141l3.309-1.916a.6.6,0,0,0,.282-.467C351.9,94.807,351.767,94.742,351.61,94.831Z" transform="translate(-323.94 -78.178)" fill="#407bff"/>
              <path id="Trazado_184063" data-name="Trazado 184063" d="M351.61,94.831l-3.309,1.92a.6.6,0,0,0-.282.463c0,.169.125.229.282.141l3.309-1.916a.6.6,0,0,0,.282-.467C351.9,94.807,351.767,94.742,351.61,94.831Z" transform="translate(-323.94 -78.178)" fill="#fff" opacity="0.6"/>
              <path id="Trazado_184064" data-name="Trazado 184064" d="M383.289,138.27l-22.271,12.823a.6.6,0,0,0-.278.463c0,.165.125.229.278.141l22.271-12.823a.6.6,0,0,0,.282-.463C383.571,138.242,383.446,138.181,383.289,138.27Z" transform="translate(-360.74 -104.129)" fill="#fff"/>
              <path id="Trazado_184065" data-name="Trazado 184065" d="M411.431,159.337l-3.313,1.916a.6.6,0,0,0-.278.463c0,.169.125.23.278.141l3.313-1.916a.6.6,0,0,0,.278-.463C411.709,159.309,411.584,159.244,411.431,159.337Z" transform="translate(-407.84 -116.713)" fill="#fff"/>
              <path id="Trazado_184066" data-name="Trazado 184066" d="M372.379,125.937l-22.271,12.823a.608.608,0,0,0-.278.467c0,.165.125.229.278.141l22.271-12.827a.6.6,0,0,0,.278-.467C372.657,125.909,372.532,125.844,372.379,125.937Z" transform="translate(-345.434 -96.76)" fill="#fff"/>
              <path id="Trazado_184067" data-name="Trazado 184067" d="M347.82,97.408l-5.52,3.172a.588.588,0,0,0-.282.463c0,.165.125.229.282.141l5.52-3.16a.6.6,0,0,0,.282-.463C348.11,97.379,347.977,97.315,347.82,97.408Z" transform="translate(-317.735 -79.716)" fill="#407bff"/>
              <path id="Trazado_184068" data-name="Trazado 184068" d="M347.82,97.408l-5.52,3.172a.588.588,0,0,0-.282.463c0,.165.125.229.282.141l5.52-3.16a.6.6,0,0,0,.282-.463C348.11,97.379,347.977,97.315,347.82,97.408Z" transform="translate(-317.735 -79.716)" fill="#fff" opacity="0.6"/>
              <path id="Trazado_184069" data-name="Trazado 184069" d="M381.748,106.84l-23.04,13.326a.608.608,0,0,0-.278.467c0,.165.125.229.278.141l23.04-13.33a.6.6,0,0,0,.278-.463C382.026,106.812,381.9,106.751,381.748,106.84Z" transform="translate(-358.265 -85.352)" fill="#407bff"/>
              <path id="Trazado_184070" data-name="Trazado 184070" d="M381.748,106.84l-23.04,13.326a.608.608,0,0,0-.278.467c0,.165.125.229.278.141l23.04-13.33a.6.6,0,0,0,.278-.463C382.026,106.812,381.9,106.751,381.748,106.84Z" transform="translate(-358.265 -85.352)" fill="#fff" opacity="0.6"/>
              <path id="Trazado_184071" data-name="Trazado 184071" d="M372.07,133.58l-29.792,17.187a.6.6,0,0,0-.278.463c0,.169.125.233.278.145l29.792-17.191a.6.6,0,0,0,.29-.459C372.359,133.552,372.227,133.491,372.07,133.58Z" transform="translate(-341.984 -101.327)" fill="#e6e6e6"/>
              <path id="Trazado_184072" data-name="Trazado 184072" d="M334.482,127.571l-2.585,1.49a.6.6,0,0,0-.278.463c0,.169.125.229.278.141l2.585-1.49a.6.6,0,0,0,.278-.463C334.76,127.547,334.635,127.482,334.482,127.571Z" transform="translate(-300.206 -97.737)" fill="#407bff"/>
              <path id="Trazado_184073" data-name="Trazado 184073" d="M334.482,127.571l-2.585,1.49a.6.6,0,0,0-.278.463c0,.169.125.229.278.141l2.585-1.49a.6.6,0,0,0,.278-.463C334.76,127.547,334.635,127.482,334.482,127.571Z" transform="translate(-300.206 -97.737)" fill="#fff" opacity="0.6"/>
              <path id="Trazado_184074" data-name="Trazado 184074" d="M372.07,139.581l-29.792,17.191a.6.6,0,0,0-.278.463c0,.169.125.229.278.141l29.792-17.191a.588.588,0,0,0,.29-.459C372.359,139.557,372.227,139.492,372.07,139.581Z" transform="translate(-341.984 -104.913)" fill="#e6e6e6"/>
              <path id="Trazado_184075" data-name="Trazado 184075" d="M334.482,133.58l-2.585,1.49a.6.6,0,0,0-.278.463c0,.165.125.23.278.141l2.585-1.49a.6.6,0,0,0,.278-.463C334.76,133.551,334.635,133.491,334.482,133.58Z" transform="translate(-300.206 -101.327)" fill="#407bff"/>
              <path id="Trazado_184076" data-name="Trazado 184076" d="M334.482,133.58l-2.585,1.49a.6.6,0,0,0-.278.463c0,.165.125.23.278.141l2.585-1.49a.6.6,0,0,0,.278-.463C334.76,133.551,334.635,133.491,334.482,133.58Z" transform="translate(-300.206 -101.327)" fill="#fff" opacity="0.6"/>
              <path id="Trazado_184077" data-name="Trazado 184077" d="M372.07,145.59,342.278,162.78a.6.6,0,0,0-.278.463c0,.165.125.229.278.141l29.792-17.191a.6.6,0,0,0,.29-.463C372.359,145.562,372.227,145.5,372.07,145.59Z" transform="translate(-341.984 -108.502)" fill="#e6e6e6"/>
              <path id="Trazado_184078" data-name="Trazado 184078" d="M334.482,139.581l-2.585,1.49a.6.6,0,0,0-.278.463c0,.169.125.233.278.145l2.585-1.494a.6.6,0,0,0,.278-.463C334.76,139.557,334.635,139.492,334.482,139.581Z" transform="translate(-300.206 -104.912)" fill="#407bff"/>
              <path id="Trazado_184079" data-name="Trazado 184079" d="M334.482,139.581l-2.585,1.49a.6.6,0,0,0-.278.463c0,.169.125.233.278.145l2.585-1.494a.6.6,0,0,0,.278-.463C334.76,139.557,334.635,139.492,334.482,139.581Z" transform="translate(-300.206 -104.912)" fill="#fff" opacity="0.6"/>
              <g id="Grupo_142423" data-name="Grupo 142423" transform="translate(36.511 7.969)" opacity="0.6">
                <path id="Trazado_184080" data-name="Trazado 184080" d="M323.411,73.357l-1.518.878a.608.608,0,0,0-.274.479v.56c0,.173.121.246.274.157l1.518-.878a.6.6,0,0,0,.278-.475v-.56C323.689,73.34,323.564,73.272,323.411,73.357Z" transform="translate(-321.62 -73.32)" fill="#fff"/>
                <path id="Trazado_184081" data-name="Trazado 184081" d="M323.411,79.424l-1.518.878a.608.608,0,0,0-.274.475v.56c0,.177.121.246.274.161l1.518-.878a.612.612,0,0,0,.278-.479v-.56C323.689,79.408,323.564,79.335,323.411,79.424Z" transform="translate(-321.62 -76.944)" fill="#fff"/>
                <path id="Trazado_184082" data-name="Trazado 184082" d="M323.411,85.487l-1.518.878a.608.608,0,0,0-.274.479v.56c0,.173.121.246.274.157l1.518-.878a.612.612,0,0,0,.278-.475v-.56C323.689,85.47,323.564,85.4,323.411,85.487Z" transform="translate(-321.62 -80.567)" fill="#fff"/>
                <path id="Trazado_184083" data-name="Trazado 184083" d="M323.411,91.554l-1.518.878a.608.608,0,0,0-.274.475v.56c0,.177.121.246.274.161l1.518-.878a.612.612,0,0,0,.278-.479v-.56C323.689,91.538,323.564,91.465,323.411,91.554Z" transform="translate(-321.62 -84.191)" fill="#fff"/>
                <path id="Trazado_184084" data-name="Trazado 184084" d="M323.411,97.614l-1.518.878a.608.608,0,0,0-.274.479v.556c0,.177.121.25.274.161l1.518-.878a.612.612,0,0,0,.278-.475v-.56C323.689,97.6,323.564,97.525,323.411,97.614Z" transform="translate(-321.62 -87.811)" fill="#fff"/>
                <path id="Trazado_184085" data-name="Trazado 184085" d="M323.411,103.684l-1.518.878a.6.6,0,0,0-.274.475v.56c0,.177.121.246.274.161l1.518-.878a.612.612,0,0,0,.278-.479v-.56C323.689,103.668,323.564,103.6,323.411,103.684Z" transform="translate(-321.62 -91.437)" fill="#fff"/>
                <path id="Trazado_184086" data-name="Trazado 184086" d="M323.411,109.744l-1.518.878a.608.608,0,0,0-.274.479v.556c0,.177.121.25.274.161l1.518-.878a.612.612,0,0,0,.278-.475v-.56C323.689,109.728,323.564,109.655,323.411,109.744Z" transform="translate(-321.62 -95.058)" fill="#fff"/>
                <path id="Trazado_184087" data-name="Trazado 184087" d="M323.411,115.814l-1.518.878a.6.6,0,0,0-.274.475v.56c0,.177.121.246.274.157l1.518-.874a.612.612,0,0,0,.278-.479v-.56C323.689,115.8,323.564,115.725,323.411,115.814Z" transform="translate(-321.62 -98.684)" fill="#fff"/>
                <path id="Trazado_184088" data-name="Trazado 184088" d="M323.411,121.874l-1.518.878a.608.608,0,0,0-.274.479v.556c0,.177.121.25.274.161l1.518-.878a.612.612,0,0,0,.278-.479v-.556C323.689,121.858,323.564,121.785,323.411,121.874Z" transform="translate(-321.62 -102.304)" fill="#fff"/>
                <path id="Trazado_184089" data-name="Trazado 184089" d="M323.411,127.948l-1.518.878a.6.6,0,0,0-.274.475v.56c0,.177.121.246.274.157l1.518-.862a.612.612,0,0,0,.278-.479v-.56C323.689,127.948,323.564,127.86,323.411,127.948Z" transform="translate(-321.62 -105.935)" fill="#fff"/>
                <path id="Trazado_184090" data-name="Trazado 184090" d="M323.411,134l-1.518.878a.608.608,0,0,0-.274.479v.556c0,.177.121.25.274.161l1.518-.89a.612.612,0,0,0,.278-.479v-.556C323.689,133.977,323.564,133.913,323.411,134Z" transform="translate(-321.62 -109.548)" fill="#fff"/>
                <path id="Trazado_184091" data-name="Trazado 184091" d="M323.411,140.074l-1.518.874a.608.608,0,0,0-.274.479v.56c0,.177.121.246.274.157l1.518-.874a.612.612,0,0,0,.278-.479v-.56C323.689,140.058,323.564,139.985,323.411,140.074Z" transform="translate(-321.62 -113.177)" fill="#fff"/>
              </g>
              <path id="Trazado_184092" data-name="Trazado 184092" d="M304.674,53.6l-8.213,4.743a1.207,1.207,0,0,0-.552.954v9.485c0,.35.246.5.552.318l8.213-4.743a1.208,1.208,0,0,0,.552-.954V53.923C305.226,53.568,304.98,53.427,304.674,53.6Z" transform="translate(-256.295 -53.527)" fill="#37474f"/>
              <path id="Trazado_184093" data-name="Trazado 184093" d="M299.519,77l-.757.439a.608.608,0,0,0-.282.463c0,.169.129.229.282.141l.757-.439a.6.6,0,0,0,.278-.463C299.8,76.977,299.672,76.912,299.519,77Z" transform="translate(-251.9 -67.527)" fill="#407bff"/>
              <path id="Trazado_184094" data-name="Trazado 184094" d="M299.519,77l-.757.439a.608.608,0,0,0-.282.463c0,.169.129.229.282.141l.757-.439a.6.6,0,0,0,.278-.463C299.8,76.977,299.672,76.912,299.519,77Z" transform="translate(-251.9 -67.527)" fill="#fff" opacity="0.6"/>
              <path id="Trazado_184095" data-name="Trazado 184095" d="M299.519,57.711l-.757.439a.608.608,0,0,0-.282.463c0,.169.129.229.282.141l.757-.435a.608.608,0,0,0,.278-.467C299.8,57.687,299.672,57.622,299.519,57.711Z" transform="translate(-251.9 -56.003)" fill="#407bff"/>
              <path id="Trazado_184096" data-name="Trazado 184096" d="M299.519,57.711l-.757.439a.608.608,0,0,0-.282.463c0,.169.129.229.282.141l.757-.435a.608.608,0,0,0,.278-.467C299.8,57.687,299.672,57.622,299.519,57.711Z" transform="translate(-251.9 -56.003)" fill="#fff" opacity="0.6"/>
              <path id="Trazado_184097" data-name="Trazado 184097" d="M302.155,63.09l-.757.435a.6.6,0,0,0-.278.463c0,.169.125.234.278.141l.757-.435a.6.6,0,0,0,.278-.463C302.432,63.062,302.308,63,302.155,63.09Z" transform="translate(-255.599 -59.215)" fill="#407bff"/>
              <path id="Trazado_184098" data-name="Trazado 184098" d="M302.155,63.09l-.757.435a.6.6,0,0,0-.278.463c0,.169.125.234.278.141l.757-.435a.6.6,0,0,0,.278-.463C302.432,63.062,302.308,63,302.155,63.09Z" transform="translate(-255.599 -59.215)" fill="#fff" opacity="0.6"/>
              <path id="Trazado_184099" data-name="Trazado 184099" d="M302.155,66.937l-.757.439a.6.6,0,0,0-.278.463c0,.169.125.229.278.141l.757-.435a.6.6,0,0,0,.278-.463C302.432,66.909,302.308,66.845,302.155,66.937Z" transform="translate(-255.599 -61.513)" fill="#407bff"/>
              <path id="Trazado_184100" data-name="Trazado 184100" d="M302.155,66.937l-.757.439a.6.6,0,0,0-.278.463c0,.169.125.229.278.141l.757-.435a.6.6,0,0,0,.278-.463C302.432,66.909,302.308,66.845,302.155,66.937Z" transform="translate(-255.599 -61.513)" fill="#fff" opacity="0.6"/>
              <path id="Trazado_184101" data-name="Trazado 184101" d="M299.519,69.281l-.757.439a.608.608,0,0,0-.282.463c0,.169.129.229.282.141l.757-.435a.6.6,0,0,0,.278-.467C299.8,69.257,299.672,69.192,299.519,69.281Z" transform="translate(-251.9 -62.915)" fill="#407bff"/>
              <path id="Trazado_184102" data-name="Trazado 184102" d="M299.519,69.281l-.757.439a.608.608,0,0,0-.282.463c0,.169.129.229.282.141l.757-.435a.6.6,0,0,0,.278-.467C299.8,69.257,299.672,69.192,299.519,69.281Z" transform="translate(-251.9 -62.915)" fill="#fff" opacity="0.6"/>
              <path id="Trazado_184103" data-name="Trazado 184103" d="M302.155,74.661l-.757.439a.6.6,0,0,0-.278.463c0,.165.125.229.278.141l.757-.439a.6.6,0,0,0,.278-.463C302.432,74.637,302.308,74.572,302.155,74.661Z" transform="translate(-255.599 -66.129)" fill="#407bff"/>
              <path id="Trazado_184104" data-name="Trazado 184104" d="M302.155,74.661l-.757.439a.6.6,0,0,0-.278.463c0,.165.125.229.278.141l.757-.439a.6.6,0,0,0,.278-.463C302.432,74.637,302.308,74.572,302.155,74.661Z" transform="translate(-255.599 -66.129)" fill="#fff" opacity="0.6"/>
              <path id="Trazado_184105" data-name="Trazado 184105" d="M308.516,60.681,303.9,63.35a.588.588,0,0,0-.282.463c0,.165.125.229.282.141l4.614-2.665a.6.6,0,0,0,.282-.467C308.8,60.657,308.672,60.592,308.516,60.681Z" transform="translate(-262.97 -57.777)" fill="#407bff"/>
              <path id="Trazado_184106" data-name="Trazado 184106" d="M308.516,60.681,303.9,63.35a.588.588,0,0,0-.282.463c0,.165.125.229.282.141l4.614-2.665a.6.6,0,0,0,.282-.467C308.8,60.657,308.672,60.592,308.516,60.681Z" transform="translate(-262.97 -57.777)" fill="#fff" opacity="0.8"/>
              <path id="Trazado_184107" data-name="Trazado 184107" d="M308.516,79.955,303.9,82.624a.588.588,0,0,0-.282.463c0,.165.125.229.282.141l4.614-2.665a.6.6,0,0,0,.282-.467C308.8,79.955,308.672,79.879,308.516,79.955Z" transform="translate(-262.97 -69.297)" fill="#407bff"/>
              <path id="Trazado_184108" data-name="Trazado 184108" d="M308.516,79.955,303.9,82.624a.588.588,0,0,0-.282.463c0,.165.125.229.282.141l4.614-2.665a.6.6,0,0,0,.282-.467C308.8,79.955,308.672,79.879,308.516,79.955Z" transform="translate(-262.97 -69.297)" fill="#fff" opacity="0.8"/>
              <path id="Trazado_184109" data-name="Trazado 184109" d="M310.129,66.06l-3.551,2.053a.6.6,0,0,0-.282.467c0,.165.125.229.282.141l3.551-2.057a.6.6,0,0,0,.282-.463C310.427,66.032,310.3,65.971,310.129,66.06Z" transform="translate(-265.663 -60.99)" fill="#407bff"/>
              <path id="Trazado_184110" data-name="Trazado 184110" d="M310.129,66.06l-3.551,2.053a.6.6,0,0,0-.282.467c0,.165.125.229.282.141l3.551-2.057a.6.6,0,0,0,.282-.463C310.427,66.032,310.3,65.971,310.129,66.06Z" transform="translate(-265.663 -60.99)" fill="#fff" opacity="0.8"/>
              <path id="Trazado_184111" data-name="Trazado 184111" d="M310.129,69.929l-3.551,2.057a.6.6,0,0,0-.282.463c0,.169.125.229.282.141l3.551-2.065a.6.6,0,0,0,.282-.463C310.427,69.893,310.3,69.828,310.129,69.929Z" transform="translate(-265.663 -63.297)" fill="#407bff"/>
              <path id="Trazado_184112" data-name="Trazado 184112" d="M310.129,69.929l-3.551,2.057a.6.6,0,0,0-.282.463c0,.169.125.229.282.141l3.551-2.065a.6.6,0,0,0,.282-.463C310.427,69.893,310.3,69.828,310.129,69.929Z" transform="translate(-265.663 -63.297)" fill="#fff" opacity="0.8"/>
              <path id="Trazado_184113" data-name="Trazado 184113" d="M308.516,72.26,303.9,74.925a.6.6,0,0,0-.282.463c0,.169.125.229.282.141l4.614-2.665a.6.6,0,0,0,.282-.463C308.8,72.232,308.672,72.171,308.516,72.26Z" transform="translate(-262.97 -64.694)" fill="#407bff"/>
              <path id="Trazado_184114" data-name="Trazado 184114" d="M308.516,72.26,303.9,74.925a.6.6,0,0,0-.282.463c0,.169.125.229.282.141l4.614-2.665a.6.6,0,0,0,.282-.463C308.8,72.232,308.672,72.171,308.516,72.26Z" transform="translate(-262.97 -64.694)" fill="#fff" opacity="0.8"/>
              <path id="Trazado_184115" data-name="Trazado 184115" d="M310.129,77.631l-3.551,2.057a.588.588,0,0,0-.282.463c0,.165.125.229.282.141l3.551-2.057a.588.588,0,0,0,.282-.463C310.427,77.607,310.3,77.542,310.129,77.631Z" transform="translate(-265.663 -67.903)" fill="#407bff"/>
              <path id="Trazado_184116" data-name="Trazado 184116" d="M310.129,77.631l-3.551,2.057a.588.588,0,0,0-.282.463c0,.165.125.229.282.141l3.551-2.057a.588.588,0,0,0,.282-.463C310.427,77.607,310.3,77.542,310.129,77.631Z" transform="translate(-265.663 -67.903)" fill="#fff" opacity="0.8"/>
              <path id="Trazado_184117" data-name="Trazado 184117" d="M304.674,84.757,296.462,89.5a1.208,1.208,0,0,0-.552.95v18.737c0,.354.246.5.552.318l8.213-4.743a1.208,1.208,0,0,0,.552-.954V85.075C305.226,84.72,304.98,84.579,304.674,84.757Z" transform="translate(-256.295 -72.138)" fill="#37474f"/>
              <path id="Trazado_184118" data-name="Trazado 184118" d="M299.519,88.861l-.757.435a.608.608,0,0,0-.282.463c0,.169.129.229.282.141l.757-.435A.6.6,0,0,0,299.8,89C299.8,88.837,299.672,88.772,299.519,88.861Z" transform="translate(-251.9 -74.612)" fill="#407bff"/>
              <path id="Trazado_184119" data-name="Trazado 184119" d="M299.519,88.861l-.757.435a.608.608,0,0,0-.282.463c0,.169.129.229.282.141l.757-.435A.6.6,0,0,0,299.8,89C299.8,88.837,299.672,88.772,299.519,88.861Z" transform="translate(-251.9 -74.612)" fill="#fff" opacity="0.6"/>
              <path id="Trazado_184120" data-name="Trazado 184120" d="M302.155,94.24l-.757.435a.6.6,0,0,0-.278.467c0,.165.125.229.278.141l.757-.439a.6.6,0,0,0,.278-.463C302.432,94.212,302.308,94.151,302.155,94.24Z" transform="translate(-255.599 -77.825)" fill="#407bff"/>
              <path id="Trazado_184121" data-name="Trazado 184121" d="M302.155,94.24l-.757.435a.6.6,0,0,0-.278.467c0,.165.125.229.278.141l.757-.439a.6.6,0,0,0,.278-.463C302.432,94.212,302.308,94.151,302.155,94.24Z" transform="translate(-255.599 -77.825)" fill="#fff" opacity="0.6"/>
              <path id="Trazado_184122" data-name="Trazado 184122" d="M302.155,98.087l-.757.435a.6.6,0,0,0-.278.463c0,.169.125.229.278.141l.757-.435a.6.6,0,0,0,.278-.463C302.432,98.059,302.308,97.994,302.155,98.087Z" transform="translate(-255.599 -80.122)" fill="#407bff"/>
              <path id="Trazado_184123" data-name="Trazado 184123" d="M302.155,98.087l-.757.435a.6.6,0,0,0-.278.463c0,.169.125.229.278.141l.757-.435a.6.6,0,0,0,.278-.463C302.432,98.059,302.308,97.994,302.155,98.087Z" transform="translate(-255.599 -80.122)" fill="#fff" opacity="0.6"/>
              <path id="Trazado_184124" data-name="Trazado 184124" d="M299.519,100.437l-.757.435a.608.608,0,0,0-.282.463c0,.169.129.229.282.141l.757-.435a.6.6,0,0,0,.278-.463C299.8,100.409,299.672,100.344,299.519,100.437Z" transform="translate(-251.9 -81.526)" fill="#407bff"/>
              <path id="Trazado_184125" data-name="Trazado 184125" d="M299.519,100.437l-.757.435a.608.608,0,0,0-.282.463c0,.169.129.229.282.141l.757-.435a.6.6,0,0,0,.278-.463C299.8,100.409,299.672,100.344,299.519,100.437Z" transform="translate(-251.9 -81.526)" fill="#fff" opacity="0.6"/>
              <path id="Trazado_184126" data-name="Trazado 184126" d="M308.516,91.837,303.9,94.5a.588.588,0,0,0-.282.463c0,.165.125.229.282.141l4.614-2.665a.6.6,0,0,0,.282-.463C308.8,91.809,308.672,91.744,308.516,91.837Z" transform="translate(-262.97 -76.388)" fill="#407bff"/>
              <path id="Trazado_184127" data-name="Trazado 184127" d="M308.516,91.837,303.9,94.5a.588.588,0,0,0-.282.463c0,.165.125.229.282.141l4.614-2.665a.6.6,0,0,0,.282-.463C308.8,91.809,308.672,91.744,308.516,91.837Z" transform="translate(-262.97 -76.388)" fill="#fff" opacity="0.8"/>
              <path id="Trazado_184128" data-name="Trazado 184128" d="M310.129,97.21l-3.551,2.057a.588.588,0,0,0-.282.463c0,.165.125.229.282.141l3.551-2.057a.6.6,0,0,0,.282-.463C310.427,97.182,310.3,97.121,310.129,97.21Z" transform="translate(-265.663 -79.599)" fill="#407bff"/>
              <path id="Trazado_184129" data-name="Trazado 184129" d="M310.129,97.21l-3.551,2.057a.588.588,0,0,0-.282.463c0,.165.125.229.282.141l3.551-2.057a.6.6,0,0,0,.282-.463C310.427,97.182,310.3,97.121,310.129,97.21Z" transform="translate(-265.663 -79.599)" fill="#fff" opacity="0.8"/>
              <path id="Trazado_184130" data-name="Trazado 184130" d="M310.129,101.067l-3.551,2.053a.6.6,0,0,0-.282.463c0,.169.125.234.282.145l3.551-2.057a.6.6,0,0,0,.282-.463C310.427,101.039,310.3,100.974,310.129,101.067Z" transform="translate(-265.663 -81.902)" fill="#407bff"/>
              <path id="Trazado_184131" data-name="Trazado 184131" d="M310.129,101.067l-3.551,2.053a.6.6,0,0,0-.282.463c0,.169.125.234.282.145l3.551-2.057a.6.6,0,0,0,.282-.463C310.427,101.039,310.3,100.974,310.129,101.067Z" transform="translate(-265.663 -81.902)" fill="#fff" opacity="0.8"/>
              <path id="Trazado_184132" data-name="Trazado 184132" d="M308.516,103.41l-4.614,2.665a.6.6,0,0,0-.282.463c0,.169.125.229.282.141l4.614-2.653a.6.6,0,0,0,.282-.463C308.8,103.382,308.672,103.322,308.516,103.41Z" transform="translate(-262.97 -83.303)" fill="#407bff"/>
              <path id="Trazado_184133" data-name="Trazado 184133" d="M308.516,103.41l-4.614,2.665a.6.6,0,0,0-.282.463c0,.169.125.229.282.141l4.614-2.653a.6.6,0,0,0,.282-.463C308.8,103.382,308.672,103.322,308.516,103.41Z" transform="translate(-262.97 -83.303)" fill="#fff" opacity="0.8"/>
              <path id="Trazado_184134" data-name="Trazado 184134" d="M302.155,105.831l-.757.439a.6.6,0,0,0-.278.463c0,.169.125.23.278.141l.757-.435a.6.6,0,0,0,.278-.463C302.432,105.807,302.308,105.742,302.155,105.831Z" transform="translate(-255.599 -84.75)" fill="#407bff"/>
              <path id="Trazado_184135" data-name="Trazado 184135" d="M302.155,105.831l-.757.439a.6.6,0,0,0-.278.463c0,.169.125.23.278.141l.757-.435a.6.6,0,0,0,.278-.463C302.432,105.807,302.308,105.742,302.155,105.831Z" transform="translate(-255.599 -84.75)" fill="#fff" opacity="0.6"/>
              <path id="Trazado_184136" data-name="Trazado 184136" d="M302.155,109.681l-.757.439a.6.6,0,0,0-.278.463c0,.165.125.229.278.141l.757-.439a.6.6,0,0,0,.278-.463C302.432,109.657,302.308,109.592,302.155,109.681Z" transform="translate(-255.599 -87.05)" fill="#407bff"/>
              <path id="Trazado_184137" data-name="Trazado 184137" d="M302.155,109.681l-.757.439a.6.6,0,0,0-.278.463c0,.165.125.229.278.141l.757-.439a.6.6,0,0,0,.278-.463C302.432,109.657,302.308,109.592,302.155,109.681Z" transform="translate(-255.599 -87.05)" fill="#fff" opacity="0.6"/>
              <path id="Trazado_184138" data-name="Trazado 184138" d="M310.129,108.8l-3.551,2.057a.6.6,0,0,0-.282.463c0,.169.125.234.282.141l3.551-2.053a.6.6,0,0,0,.282-.463C310.427,108.777,310.3,108.712,310.129,108.8Z" transform="translate(-265.663 -86.524)" fill="#407bff"/>
              <path id="Trazado_184139" data-name="Trazado 184139" d="M310.129,108.8l-3.551,2.057a.6.6,0,0,0-.282.463c0,.169.125.234.282.141l3.551-2.053a.6.6,0,0,0,.282-.463C310.427,108.777,310.3,108.712,310.129,108.8Z" transform="translate(-265.663 -86.524)" fill="#fff" opacity="0.8"/>
              <path id="Trazado_184140" data-name="Trazado 184140" d="M310.129,112.661l-3.551,2.057a.6.6,0,0,0-.282.463c0,.169.125.229.282.141l3.551-2.057a.588.588,0,0,0,.282-.463C310.427,112.637,310.3,112.572,310.129,112.661Z" transform="translate(-265.663 -88.83)" fill="#407bff"/>
              <path id="Trazado_184141" data-name="Trazado 184141" d="M310.129,112.661l-3.551,2.057a.6.6,0,0,0-.282.463c0,.169.125.229.282.141l3.551-2.057a.588.588,0,0,0,.282-.463C310.427,112.637,310.3,112.572,310.129,112.661Z" transform="translate(-265.663 -88.83)" fill="#fff" opacity="0.8"/>
              <path id="Trazado_184142" data-name="Trazado 184142" d="M299.519,119.771l-.757.439a.6.6,0,0,0-.282.463c0,.165.129.229.282.141l.757-.439a.6.6,0,0,0,.278-.463C299.8,119.747,299.672,119.682,299.519,119.771Z" transform="translate(-251.9 -93.078)" fill="#407bff"/>
              <path id="Trazado_184143" data-name="Trazado 184143" d="M299.519,119.771l-.757.439a.6.6,0,0,0-.282.463c0,.165.129.229.282.141l.757-.439a.6.6,0,0,0,.278-.463C299.8,119.747,299.672,119.682,299.519,119.771Z" transform="translate(-251.9 -93.078)" fill="#fff" opacity="0.6"/>
              <path id="Trazado_184144" data-name="Trazado 184144" d="M308.516,122.741,303.9,125.41a.588.588,0,0,0-.282.463c0,.165.125.229.282.141l4.614-2.665a.6.6,0,0,0,.282-.463C308.8,122.717,308.672,122.653,308.516,122.741Z" transform="translate(-262.97 -94.852)" fill="#407bff"/>
              <path id="Trazado_184145" data-name="Trazado 184145" d="M308.516,122.741,303.9,125.41a.588.588,0,0,0-.282.463c0,.165.125.229.282.141l4.614-2.665a.6.6,0,0,0,.282-.463C308.8,122.717,308.672,122.653,308.516,122.741Z" transform="translate(-262.97 -94.852)" fill="#fff" opacity="0.8"/>
              <path id="Trazado_184146" data-name="Trazado 184146" d="M302.155,125.168l-.757.439a.6.6,0,0,0-.278.463c0,.165.125.229.278.141l.757-.439a.6.6,0,0,0,.278-.463C302.432,125.144,302.308,125.076,302.155,125.168Z" transform="translate(-255.599 -96.301)" fill="#407bff"/>
              <path id="Trazado_184147" data-name="Trazado 184147" d="M302.155,125.168l-.757.439a.6.6,0,0,0-.278.463c0,.165.125.229.278.141l.757-.439a.6.6,0,0,0,.278-.463C302.432,125.144,302.308,125.076,302.155,125.168Z" transform="translate(-255.599 -96.301)" fill="#fff" opacity="0.6"/>
              <path id="Trazado_184148" data-name="Trazado 184148" d="M302.155,129.018l-.757.435a.608.608,0,0,0-.278.467c0,.165.125.229.278.141l.757-.439a.6.6,0,0,0,.278-.463C302.432,128.986,302.308,128.93,302.155,129.018Z" transform="translate(-255.599 -98.601)" fill="#407bff"/>
              <path id="Trazado_184149" data-name="Trazado 184149" d="M302.155,129.018l-.757.435a.608.608,0,0,0-.278.467c0,.165.125.229.278.141l.757-.439a.6.6,0,0,0,.278-.463C302.432,128.986,302.308,128.93,302.155,129.018Z" transform="translate(-255.599 -98.601)" fill="#fff" opacity="0.6"/>
              <path id="Trazado_184150" data-name="Trazado 184150" d="M310.129,128.146l-3.551,2.057a.588.588,0,0,0-.282.463c0,.165.125.229.282.141l3.551-2.057a.588.588,0,0,0,.282-.463C310.427,128.122,310.3,128.066,310.129,128.146Z" transform="translate(-265.663 -98.083)" fill="#407bff"/>
              <path id="Trazado_184151" data-name="Trazado 184151" d="M310.129,128.146l-3.551,2.057a.588.588,0,0,0-.282.463c0,.165.125.229.282.141l3.551-2.057a.588.588,0,0,0,.282-.463C310.427,128.122,310.3,128.066,310.129,128.146Z" transform="translate(-265.663 -98.083)" fill="#fff" opacity="0.8"/>
              <path id="Trazado_184152" data-name="Trazado 184152" d="M310.129,132l-3.551,2.057a.588.588,0,0,0-.282.463c0,.165.125.229.282.141l3.551-2.057a.6.6,0,0,0,.282-.463C310.427,131.977,310.3,131.912,310.129,132Z" transform="translate(-265.663 -100.384)" fill="#407bff"/>
              <path id="Trazado_184153" data-name="Trazado 184153" d="M310.129,132l-3.551,2.057a.588.588,0,0,0-.282.463c0,.165.125.229.282.141l3.551-2.057a.6.6,0,0,0,.282-.463C310.427,131.977,310.3,131.912,310.129,132Z" transform="translate(-265.663 -100.384)" fill="#fff" opacity="0.8"/>
              <path id="Trazado_184154" data-name="Trazado 184154" d="M302.155,113.511l-.757.439a.6.6,0,0,0-.278.463c0,.165.125.229.278.141l.757-.439a.6.6,0,0,0,.278-.463C302.432,113.487,302.308,113.422,302.155,113.511Z" transform="translate(-255.599 -89.338)" fill="#407bff"/>
              <path id="Trazado_184155" data-name="Trazado 184155" d="M302.155,113.511l-.757.439a.6.6,0,0,0-.278.463c0,.165.125.229.278.141l.757-.439a.6.6,0,0,0,.278-.463C302.432,113.487,302.308,113.422,302.155,113.511Z" transform="translate(-255.599 -89.338)" fill="#fff" opacity="0.6"/>
              <path id="Trazado_184156" data-name="Trazado 184156" d="M299.519,115.861l-.757.439a.6.6,0,0,0-.282.463c0,.165.129.229.282.141l.757-.439A.6.6,0,0,0,299.8,116C299.8,115.837,299.672,115.772,299.519,115.861Z" transform="translate(-251.9 -90.742)" fill="#407bff"/>
              <path id="Trazado_184157" data-name="Trazado 184157" d="M299.519,115.861l-.757.439a.6.6,0,0,0-.282.463c0,.165.129.229.282.141l.757-.439A.6.6,0,0,0,299.8,116C299.8,115.837,299.672,115.772,299.519,115.861Z" transform="translate(-251.9 -90.742)" fill="#fff" opacity="0.6"/>
              <path id="Trazado_184158" data-name="Trazado 184158" d="M310.129,116.491l-3.551,2.057a.588.588,0,0,0-.282.463c0,.165.125.229.282.141l3.551-2.057a.588.588,0,0,0,.282-.463C310.427,116.467,310.3,116.4,310.129,116.491Z" transform="translate(-265.663 -91.118)" fill="#407bff"/>
              <path id="Trazado_184159" data-name="Trazado 184159" d="M310.129,116.491l-3.551,2.057a.588.588,0,0,0-.282.463c0,.165.125.229.282.141l3.551-2.057a.588.588,0,0,0,.282-.463C310.427,116.467,310.3,116.4,310.129,116.491Z" transform="translate(-265.663 -91.118)" fill="#fff" opacity="0.8"/>
              <path id="Trazado_184160" data-name="Trazado 184160" d="M308.516,118.831,303.9,121.5a.588.588,0,0,0-.282.463c0,.165.125.229.282.141l4.614-2.665a.6.6,0,0,0,.282-.467C308.8,118.807,308.672,118.742,308.516,118.831Z" transform="translate(-262.97 -92.516)" fill="#407bff"/>
              <path id="Trazado_184161" data-name="Trazado 184161" d="M308.516,118.831,303.9,121.5a.588.588,0,0,0-.282.463c0,.165.125.229.282.141l4.614-2.665a.6.6,0,0,0,.282-.467C308.8,118.807,308.672,118.742,308.516,118.831Z" transform="translate(-262.97 -92.516)" fill="#fff" opacity="0.8"/>
              <path id="Trazado_184162" data-name="Trazado 184162" d="M299.519,131.421l-.757.439a.6.6,0,0,0-.282.463c0,.165.129.23.282.141l.757-.431a.6.6,0,0,0,.278-.463C299.8,131.4,299.672,131.333,299.519,131.421Z" transform="translate(-251.9 -100.038)" fill="#407bff"/>
              <path id="Trazado_184163" data-name="Trazado 184163" d="M299.519,131.421l-.757.439a.6.6,0,0,0-.282.463c0,.165.129.23.282.141l.757-.431a.6.6,0,0,0,.278-.463C299.8,131.4,299.672,131.333,299.519,131.421Z" transform="translate(-251.9 -100.038)" fill="#fff" opacity="0.6"/>
              <path id="Trazado_184164" data-name="Trazado 184164" d="M308.516,134.4l-4.614,2.665a.588.588,0,0,0-.282.463c0,.165.125.229.282.141l4.614-2.649a.6.6,0,0,0,.282-.463C308.8,134.37,308.672,134.305,308.516,134.4Z" transform="translate(-262.97 -101.815)" fill="#407bff"/>
              <path id="Trazado_184165" data-name="Trazado 184165" d="M308.516,134.4l-4.614,2.665a.588.588,0,0,0-.282.463c0,.165.125.229.282.141l4.614-2.649a.6.6,0,0,0,.282-.463C308.8,134.37,308.672,134.305,308.516,134.4Z" transform="translate(-262.97 -101.815)" fill="#fff" opacity="0.8"/>
            </g>
          </g>
          <g id="freepik--window--inject-8-3" data-name="freepik--window--inject-8" transform="translate(0 44.61)">
            <g id="Grupo_142424" data-name="Grupo 142424" transform="translate(1.019 0.601)" opacity="0.8">
              <path id="Trazado_184166" data-name="Trazado 184166" d="M429.726,149.686v30.75a1.413,1.413,0,0,1-.64,1.107L411.42,191.736a.442.442,0,0,1-.213.06h-.169l-.036-.024-.036-.032a.49.49,0,0,1-.117-.169.758.758,0,0,1-.069-.322v-30.6a1.409,1.409,0,0,1,.64-1.107l17.666-10.182a.467.467,0,0,1,.431-.056l.052.032h0l.044.04a.084.084,0,0,1,0,.024.1.1,0,0,1,.02.036.217.217,0,0,1,.04.081.235.235,0,0,1,0,.056h0v.06C429.722,149.633,429.726,149.661,429.726,149.686Z" transform="translate(-410.78 -149.278)" fill="#455a64"/>
            </g>
            <path id="Trazado_184167" data-name="Trazado 184167" d="M431.055,148.37a.467.467,0,0,0-.431.056l-17.666,10.182a1.409,1.409,0,0,0-.64,1.107V161.8l-1.019-.588v-2.069a1.4,1.4,0,0,1,.64-1.1l17.666-10.169a.447.447,0,0,1,.463-.04C430.186,147.871,430.918,148.3,431.055,148.37Z" transform="translate(-411.3 -147.785)" fill="#afafaf"/>
            <path id="Trazado_184168" data-name="Trazado 184168" d="M429.732,149.614c0-.4-.286-.564-.636-.362L411.43,159.433a1.413,1.413,0,0,0-.64,1.107v2.085l18.922-10.914Z" transform="translate(-409.771 -148.609)" fill="#4adbd1"/>
            <path id="Trazado_184170" data-name="Trazado 184170" d="M457.36,177.123V175.05a1.354,1.354,0,0,1,.193-.64l1.018.58a1.272,1.272,0,0,0-.193.636v2.085Z" transform="translate(-457.36 -163.691)" opacity="0.15"/>
            <path id="Trazado_184171" data-name="Trazado 184171" d="M454.992,176.745a.954.954,0,0,0-.362.765c0,.306.161.463.362.346a.95.95,0,0,0,.362-.761C455.354,176.785,455.206,176.632,454.992,176.745Z" transform="translate(-453.044 -165.064)" fill="#455a64"/>
            <path id="Trazado_184172" data-name="Trazado 184172" d="M451.772,174.88a.938.938,0,0,0-.362.761c0,.31.161.463.362.35a.962.962,0,0,0,.358-.765C452.131,174.9,451.969,174.763,451.772,174.88Z" transform="translate(-448.523 -163.947)" fill="#455a64"/>
            <path id="Trazado_184173" data-name="Trazado 184173" d="M448.579,173.015a.963.963,0,0,0-.37.777c0,.306.161.463.358.346a.946.946,0,0,0,.362-.765C448.941,173.056,448.78,172.9,448.579,173.015Z" transform="translate(-444.034 -162.836)" fill="#455a64"/>
            <g id="Grupo_142426" data-name="Grupo 142426" transform="translate(0.012 13.429)" opacity="0.9">
              <path id="Trazado_184174" data-name="Trazado 184174" d="M458.5,210.771l-.077-.044-.2-.113h0a.708.708,0,0,0-.1-.06h0l-.169-.1-.342-.193-.081-.044a.362.362,0,0,1-.109-.085.442.442,0,0,1-.084-.133.759.759,0,0,1-.077-.338V181.14l1.018.588v28.508a.931.931,0,0,0,.068.322.492.492,0,0,0,.117.169.1.1,0,0,0,.036.032Z" transform="translate(-457.26 -181.14)" fill="#37474f"/>
            </g>
            <path id="Trazado_184175" data-name="Trazado 184175" d="M414.982,163.533a.1.1,0,0,0-.032-.081l-.459-.4h-.02a.069.069,0,0,0-.036.044.117.117,0,0,0,0,.064v.318a.429.429,0,0,0,0,.089.344.344,0,0,0,.032.048l.246.221-.246.5c0,.032-.024.06-.032.089a.581.581,0,0,0,0,.1v.366a.028.028,0,0,0,.036,0h0l.02-.028.459-.954a.271.271,0,0,0,.032-.117Z" transform="translate(-396.486 -156.904)" fill="#407bff"/>
            <path id="Trazado_184176" data-name="Trazado 184176" d="M416.924,163.072a.122.122,0,0,0-.036-.052h-.068l-.169.1a.068.068,0,0,0-.036.044.117.117,0,0,0,0,.064.081.081,0,0,0,0,.028l.805,2.448a.1.1,0,0,0,.032.052h.068l.165-.1a.081.081,0,0,0,.036-.044.129.129,0,0,0,0-.064v-.028Z" transform="translate(-400.108 -156.886)" fill="#407bff"/>
            <path id="Trazado_184177" data-name="Trazado 184177" d="M420.247,166.993a.1.1,0,0,0,.032.085l.459.4a.028.028,0,0,0,.024,0h0a.08.08,0,0,0,.036-.044.129.129,0,0,0,0-.064v-.318a.4.4,0,0,0,0-.089.14.14,0,0,0-.032-.052l-.242-.221.242-.5a.833.833,0,0,0,.032-.089.581.581,0,0,0,0-.1v-.322a.048.048,0,0,0,0-.044h-.036a.09.09,0,0,0-.024.028l-.459.95a.268.268,0,0,0-.032.121Z" transform="translate(-404.651 -158.452)" fill="#407bff"/>
            <path id="Trazado_184178" data-name="Trazado 184178" d="M424.186,171.942a.117.117,0,0,0-.044.052.2.2,0,0,0,0,.081v.35a.073.073,0,0,0,0,.056.032.032,0,0,0,.044,0l.217-.125a.117.117,0,0,0,.044-.052.2.2,0,0,0,0-.081V171.9a.085.085,0,0,0,0-.06.032.032,0,0,0-.044,0Z" transform="translate(-409.866 -162.148)" fill="#407bff"/>
            <path id="Trazado_184179" data-name="Trazado 184179" d="M425.95,172.958a.117.117,0,0,0-.044.052.193.193,0,0,0,0,.081v.35a.072.072,0,0,0,0,.056.036.036,0,0,0,.044,0l.217-.125a.145.145,0,0,0,.044-.052.212.212,0,0,0,.02-.081V172.9a.084.084,0,0,0-.02-.06.032.032,0,0,0-.044,0Z" transform="translate(-412.354 -162.746)" fill="#407bff"/>
            <path id="Trazado_184180" data-name="Trazado 184180" d="M427.749,173.982a.1.1,0,0,0-.044.052.193.193,0,0,0,0,.081v.35a.081.081,0,0,0,0,.056.036.036,0,0,0,.044,0l.217-.125a.133.133,0,0,0,.044-.056.182.182,0,0,0,.02-.076v-.358a.081.081,0,0,0-.02-.056.036.036,0,0,0-.044,0Z" transform="translate(-414.878 -163.351)" fill="#407bff"/>
            <path id="Trazado_184181" data-name="Trazado 184181" d="M425.192,171.124l-10.612,6.127a.483.483,0,0,0-.229.378c0,.137.1.185.229.113l10.612-6.127a.487.487,0,0,0,.225-.374C425.417,171.1,425.316,171.056,425.192,171.124Z" transform="translate(-406.89 -161.709)" fill="#f6f6f6"/>
            <path id="Trazado_184182" data-name="Trazado 184182" d="M433.652,190.66l-10.612,6.127a.479.479,0,0,0-.229.374c0,.137.1.189.229.117l10.612-6.127a.487.487,0,0,0,.225-.378C433.877,190.636,433.776,190.588,433.652,190.66Z" transform="translate(-418.756 -173.379)" fill="#e6e6e6"/>
            <path id="Trazado_184183" data-name="Trazado 184183" d="M428.13,200.422l-5.085,2.935a.487.487,0,0,0-.225.378c0,.137.1.185.225.113l5.081-2.935a.479.479,0,0,0,.225-.374C428.355,200.4,428.255,200.349,428.13,200.422Z" transform="translate(-413.234 -179.211)" fill="#e6e6e6"/>
            <path id="Trazado_184184" data-name="Trazado 184184" d="M447.357,187.6l-4.227,2.416a.479.479,0,0,0-.229.374c0,.137.1.189.229.117l4.227-2.416a.479.479,0,0,0,.225-.374C447.582,187.581,447.481,187.529,447.357,187.6Z" transform="translate(-440.549 -171.552)" fill="#f6f6f6"/>
            <path id="Trazado_184185" data-name="Trazado 184185" d="M425.192,224.84l-10.612,6.127a.479.479,0,0,0-.229.374c0,.137.1.189.229.117l10.612-6.127a.487.487,0,0,0,.225-.378C425.417,224.816,425.317,224.768,425.192,224.84Z" transform="translate(-406.89 -193.798)" fill="#f4a338"/>
            <path id="Trazado_184186" data-name="Trazado 184186" d="M447.357,241.321l-4.227,2.416a.491.491,0,0,0-.229.378c0,.133.1.185.229.113l4.227-2.416a.487.487,0,0,0,.225-.378C447.582,241.3,447.481,241.249,447.357,241.321Z" transform="translate(-440.549 -203.645)" fill="#f4a338"/>
            <path id="Trazado_184187" data-name="Trazado 184187" d="M447.357,226.691l-4.227,2.416a.483.483,0,0,0-.229.374c0,.137.1.189.229.117l4.227-2.416a.487.487,0,0,0,.226-.378C447.582,226.671,447.481,226.619,447.357,226.691Z" transform="translate(-440.549 -194.905)" fill="#f4a338"/>
            <path id="Trazado_184188" data-name="Trazado 184188" d="M447.357,231.58,443.129,234a.491.491,0,0,0-.229.374c0,.137.1.189.229.117l4.227-2.416a.487.487,0,0,0,.226-.378C447.582,231.556,447.481,231.508,447.357,231.58Z" transform="translate(-440.549 -197.825)" fill="#f4a338"/>
            <path id="Trazado_184189" data-name="Trazado 184189" d="M436.545,221.511l-2.375,1.373a.475.475,0,0,0-.229.374c0,.137.1.189.229.117L436.545,222a.487.487,0,0,0,.225-.378C436.77,221.491,436.669,221.439,436.545,221.511Z" transform="translate(-426.13 -191.81)" fill="#f4a338"/>
            <path id="Trazado_184190" data-name="Trazado 184190" d="M420.767,176.019l-6.192,3.571a.487.487,0,0,0-.226.374c0,.137.1.189.226.117l6.192-3.571a.487.487,0,0,0,.225-.378C420.993,175.991,420.892,175.947,420.767,176.019Z" transform="translate(-402.465 -164.632)" fill="#407bff"/>
            <path id="Trazado_184191" data-name="Trazado 184191" d="M420.767,176.019l-6.192,3.571a.487.487,0,0,0-.226.374c0,.137.1.189.226.117l6.192-3.571a.487.487,0,0,0,.225-.378C420.993,175.991,420.892,175.947,420.767,176.019Z" transform="translate(-402.465 -164.632)" fill="#fff" opacity="0.6"/>
            <path id="Trazado_184192" data-name="Trazado 184192" d="M416.677,180.892l-2.1,1.208a.487.487,0,0,0-.225.374c0,.137.1.189.225.117l2.1-1.208a.487.487,0,0,0,.225-.374C416.9,180.871,416.8,180.819,416.677,180.892Z" transform="translate(-398.375 -167.543)" fill="#407bff"/>
            <path id="Trazado_184193" data-name="Trazado 184193" d="M416.677,180.892l-2.1,1.208a.487.487,0,0,0-.225.374c0,.137.1.189.225.117l2.1-1.208a.487.487,0,0,0,.225-.374C416.9,180.871,416.8,180.819,416.677,180.892Z" transform="translate(-398.375 -167.543)" fill="#fff" opacity="0.6"/>
            <path id="Trazado_184194" data-name="Trazado 184194" d="M416.677,185.772l-2.1,1.208a.487.487,0,0,0-.225.378c0,.133.1.185.225.113l2.1-1.208a.475.475,0,0,0,.226-.374C416.9,185.751,416.8,185.7,416.677,185.772Z" transform="translate(-398.375 -170.459)" fill="#407bff"/>
            <path id="Trazado_184195" data-name="Trazado 184195" d="M416.677,185.772l-2.1,1.208a.487.487,0,0,0-.225.378c0,.133.1.185.225.113l2.1-1.208a.475.475,0,0,0,.226-.374C416.9,185.751,416.8,185.7,416.677,185.772Z" transform="translate(-398.375 -170.459)" fill="#fff" opacity="0.6"/>
            <path id="Trazado_184196" data-name="Trazado 184196" d="M416.677,190.66l-2.1,1.208a.479.479,0,0,0-.225.374c0,.137.1.189.225.117l2.1-1.208a.487.487,0,0,0,.225-.378C416.9,190.636,416.8,190.588,416.677,190.66Z" transform="translate(-398.375 -173.379)" fill="#407bff"/>
            <path id="Trazado_184197" data-name="Trazado 184197" d="M416.677,190.66l-2.1,1.208a.487.487,0,0,0-.225.378c0,.137.1.185.225.113l2.1-1.208a.487.487,0,0,0,.225-.378C416.9,190.636,416.8,190.588,416.677,190.66Z" transform="translate(-398.375 -173.379)" fill="#fff" opacity="0.6"/>
            <path id="Trazado_184198" data-name="Trazado 184198" d="M429.227,195.541l-6.192,3.571a.487.487,0,0,0-.225.378c0,.133.1.185.225.113l6.192-3.571a.487.487,0,0,0,.225-.378C429.453,195.521,429.352,195.469,429.227,195.541Z" transform="translate(-414.331 -176.295)" fill="#407bff" opacity="0.6"/>
            <path id="Trazado_184199" data-name="Trazado 184199" d="M443.289,205.672l-2.693,1.562a.475.475,0,0,0-.225.374c0,.137.1.189.225.117l2.693-1.562a.487.487,0,0,0,.225-.374C443.514,205.651,443.414,205.6,443.289,205.672Z" transform="translate(-435.462 -182.347)" fill="#407bff" opacity="0.6"/>
            <path id="Trazado_184200" data-name="Trazado 184200" d="M429.227,195.541l-6.192,3.571a.487.487,0,0,0-.225.378c0,.133.1.185.225.113l6.192-3.571a.487.487,0,0,0,.225-.378C429.453,195.521,429.352,195.469,429.227,195.541Z" transform="translate(-414.331 -176.295)" fill="#fff" opacity="0.6"/>
            <path id="Trazado_184201" data-name="Trazado 184201" d="M443.289,205.672l-2.693,1.562a.475.475,0,0,0-.225.374c0,.137.1.189.225.117l2.693-1.562a.487.487,0,0,0,.225-.374C443.514,205.651,443.414,205.6,443.289,205.672Z" transform="translate(-435.462 -182.347)" fill="#fff" opacity="0.6"/>
            <path id="Trazado_184202" data-name="Trazado 184202" d="M416.677,195.542l-2.1,1.208a.487.487,0,0,0-.225.374c0,.137.1.189.225.117l2.1-1.208a.487.487,0,0,0,.225-.374C416.9,195.521,416.8,195.469,416.677,195.542Z" transform="translate(-398.375 -176.296)" fill="#407bff"/>
            <path id="Trazado_184203" data-name="Trazado 184203" d="M416.677,195.542l-2.1,1.208a.487.487,0,0,0-.225.374c0,.137.1.189.225.117l2.1-1.208a.487.487,0,0,0,.225-.374C416.9,195.521,416.8,195.469,416.677,195.542Z" transform="translate(-398.375 -176.296)" fill="#fff" opacity="0.6"/>
            <path id="Trazado_184204" data-name="Trazado 184204" d="M434.829,186.146l-2.693,1.558a.487.487,0,0,0-.225.378c0,.133.1.185.225.113l2.693-1.558a.487.487,0,0,0,.225-.378C435.054,186.126,434.953,186.066,434.829,186.146Z" transform="translate(-423.596 -170.68)" fill="#407bff"/>
            <path id="Trazado_184205" data-name="Trazado 184205" d="M434.829,186.146l-2.693,1.558a.487.487,0,0,0-.225.378c0,.133.1.185.225.113l2.693-1.558a.487.487,0,0,0,.225-.378C435.054,186.126,434.953,186.066,434.829,186.146Z" transform="translate(-423.596 -170.68)" fill="#fff" opacity="0.6"/>
            <path id="Trazado_184206" data-name="Trazado 184206" d="M435.571,208.96l-6.192,3.571a.491.491,0,0,0-.23.378c0,.137.1.185.23.117l6.192-3.575a.487.487,0,0,0,.226-.374C435.8,208.96,435.7,208.891,435.571,208.96Z" transform="translate(-423.228 -184.315)" fill="#fff"/>
            <path id="Trazado_184207" data-name="Trazado 184207" d="M444.485,218.968l-6.2,3.587a.491.491,0,0,0-.229.378c0,.133.1.185.229.113l6.188-3.571a.483.483,0,0,0,.229-.378C444.722,218.968,444.614,218.911,444.485,218.968Z" transform="translate(-435.716 -190.297)" fill="#fff"/>
            <path id="Trazado_184208" data-name="Trazado 184208" d="M449.681,219.108l-2.705,1.55a.492.492,0,0,0-.229.374c0,.137.1.189.229.117l2.689-1.558a.483.483,0,0,0,.229-.378C449.911,219.084,449.794,219.047,449.681,219.108Z" transform="translate(-444.411 -190.377)" fill="#fff"/>
            <path id="Trazado_184209" data-name="Trazado 184209" d="M449.629,238.441,446.939,240a.491.491,0,0,0-.229.378c0,.133.1.185.229.113l2.689-1.558a.483.483,0,0,0,.229-.378C449.858,238.421,449.742,238.369,449.629,238.441Z" transform="translate(-444.359 -201.924)" fill="#e6e6e6"/>
            <path id="Trazado_184210" data-name="Trazado 184210" d="M429.227,185.771l-6.192,3.575a.479.479,0,0,0-.225.374c0,.137.1.189.225.117l6.192-3.591a.475.475,0,0,0,.225-.374C429.453,185.751,429.352,185.7,429.227,185.771Z" transform="translate(-414.331 -170.458)" fill="#407bff"/>
            <path id="Trazado_184211" data-name="Trazado 184211" d="M429.227,185.771l-6.192,3.575a.479.479,0,0,0-.225.374c0,.137.1.189.225.117l6.192-3.591a.475.475,0,0,0,.225-.374C429.453,185.751,429.352,185.7,429.227,185.771Z" transform="translate(-414.331 -170.458)" fill="#fff" opacity="0.6"/>
            <path id="Trazado_184212" data-name="Trazado 184212" d="M443.289,195.934l-2.693,1.558a.487.487,0,0,0-.225.378c0,.133.1.185.225.113l2.693-1.558a.487.487,0,0,0,.225-.378C443.514,195.894,443.414,195.846,443.289,195.934Z" transform="translate(-435.462 -176.523)" fill="#407bff"/>
            <path id="Trazado_184213" data-name="Trazado 184213" d="M443.289,195.934l-2.693,1.558a.487.487,0,0,0-.225.378c0,.133.1.185.225.113l2.693-1.558a.487.487,0,0,0,.225-.378C443.514,195.894,443.414,195.846,443.289,195.934Z" transform="translate(-435.462 -176.523)" fill="#fff" opacity="0.6"/>
          </g>
          <g id="freepik--Mouse--inject-8" transform="translate(34.987 79.429)">
            <path id="Trazado_184214" data-name="Trazado 184214" d="M348.971,241.537l-3.792,2.19a4.179,4.179,0,0,1-4.187-.221l-6.26-4.569a1.507,1.507,0,0,1,.145-2.726l1.9-1.1a5.165,5.165,0,0,1,4.4-.133l7.726,4.183C350.138,239.782,350.171,240.844,348.971,241.537Z" transform="translate(-333.935 -234.436)" opacity="0.15"/>
            <path id="Trazado_184215" data-name="Trazado 184215" d="M335.477,236.784l4.324,3.386,3.2,2.5a2.818,2.818,0,0,0,1.019.246,2.77,2.77,0,0,0,1.518-.318l3.394-1.961h.02a2.416,2.416,0,0,0,.688-3.434l-.1-.141a4.525,4.525,0,0,0-2.734-1.731l-1.719-.342c-2.786-.568-5.069-.841-5.334-.66l-4.255,2.464Z" transform="translate(-334.782 -234.272)" fill="#37474f"/>
            <path id="Trazado_184216" data-name="Trazado 184216" d="M349.526,239.425l-.246-.193,3.821-2.2L349.759,236l.338-.2,3.342,1.035,2.279-1.312.431.081Z" transform="translate(-346.411 -235.018)" fill="#afafaf"/>
            <path id="Trazado_184217" data-name="Trazado 184217" d="M357.626,246.171h0l-3.044-2.2-4.1-2.963v-.483a.04.04,0,0,1,.02-.036h.024a15.137,15.137,0,0,1,4.235,1.284l1.425.568a4.513,4.513,0,0,1,2.858,4.215v.072a2.817,2.817,0,0,1-1.019-.246Z" transform="translate(-349.789 -237.979)" fill="#263238"/>
          </g>
        </g>
      </g>
      <g id="freepik--Character--inject-8" transform="translate(67.212 32.135)">
        <g id="freepik--character--inject-8-2" data-name="freepik--character--inject-8" transform="translate(0 0)">
          <path id="Trazado_184233" data-name="Trazado 184233" d="M224.869,339.7c0-.081,1.292-4.751,1.292-4.751s-.423.431-3.12-.282a15.3,15.3,0,0,1-2.935-1.232l-.769,3.414c-.721,1.313-3.1.709-5.713.4-.439-.052-.89-.125-1.341-.2h-.028c-1.409-.076-2.818.769-1.361,1.973s3.885,1.655,6.111,2.057C219.688,341.588,224.39,342.373,224.869,339.7Z" transform="translate(-190.782 -246.221)" fill="#ffa8a7"/>
          <path id="Trazado_184234" data-name="Trazado 184234" d="M212.88,348a2.733,2.733,0,0,0-.193,1.433c.048.519,1.337,2.283,3.623,3.366s5.081,1.151,6.393,1.53,2.52,1.131,4.07,1.51a5.435,5.435,0,0,0,4.638-.447,3.488,3.488,0,0,0,.511-1.558C231.641,353.568,212.88,348,212.88,348Z" transform="translate(-197.517 -254.92)" fill="#263238"/>
          <path id="Trazado_184235" data-name="Trazado 184235" d="M224.626,342.046c-1,.688-3.068.209-5.3-.044-2.11-.242-4.481-.982-5.914-.483s-2.629,2.182-.692,4.344a8.4,8.4,0,0,0,2.693,2.065,45.028,45.028,0,0,0,6.111,1.312c2.013.5,3.116,1.389,4.976,1.61,2.416.282,3.937-.338,4.356-.982s.805-5.834-.229-5.725c0,0-.435,1.679-4.376.048C224.529,343.471,224.557,342.417,224.626,342.046Z" transform="translate(-196.481 -250.947)" fill="#4adbd1"/>
          <path id="Trazado_184237" data-name="Trazado 184237" d="M238.051,345.775s.225-2.19,1.844-2.77a.849.849,0,0,1,.894.117s-1.5.217-2.013,2.79c0,0-.077.169-.4.109C238.276,346,238.035,345.953,238.051,345.775Z" transform="translate(-216.589 -251.89)" fill="#fafafa"/>
          <path id="Trazado_184238" data-name="Trazado 184238" d="M236.878,343.584s0-.072-.378-.141a.676.676,0,0,0-.447.048s-1.208.523-1.433,2.818c0,0,0,.274.374.35a.33.33,0,0,0,.431-.225S235.675,344.023,236.878,343.584Z" transform="translate(-211.298 -252.187)" fill="#fafafa"/>
          <path id="Trazado_184239" data-name="Trazado 184239" d="M233.063,343.737s-.068-.137-.35-.137c-.358,0-.443.141-.443.141a4.141,4.141,0,0,0-.87,2.8s-.036.322.4.354.4-.33.4-.33S232.359,344.123,233.063,343.737Z" transform="translate(-206.186 -252.291)" fill="#fafafa"/>
          <path id="Trazado_184240" data-name="Trazado 184240" d="M194.946,270.2c-1.973,5.93-7.206,26.35-7.206,26.35s3.406,3.06,7.1,1.667l8.8-25.428Z" transform="translate(-159.192 -208.441)" fill="#37474f"/>
          <path id="Trazado_184241" data-name="Trazado 184241" d="M257.442,356.021c.4-.6,1.916-4.751,1.916-4.751a6.23,6.23,0,0,1-4.3.258,6.36,6.36,0,0,1-2.673-1.828l-1.159,3.99c-.684,1.333-2.9.894-5.52.66-.439-.04-.89-.1-1.345-.169h-.028c-1.409-.04-2.818.837-1.308,2.013s3.921,1.562,6.16,1.908C251.862,358.509,255.933,358.275,257.442,356.021Z" transform="translate(-236.902 -255.935)" fill="#ffa8a7"/>
          <path id="Trazado_184242" data-name="Trazado 184242" d="M246.608,365.09a2.943,2.943,0,0,0-.173,1.546c.068.556,1.5,2.416,3.962,3.515s5.487,1.1,6.908,1.474,2.734,1.151,4.408,1.518,3.325.535,4.964-.6a3.655,3.655,0,0,0,.507-1.691C266.914,370.573,246.608,365.09,246.608,365.09Z" transform="translate(-246.366 -265.129)" fill="#263238"/>
          <path id="Trazado_184243" data-name="Trazado 184243" d="M259.173,358.212a4.207,4.207,0,0,1-.5.306,1.479,1.479,0,0,1-.548.113,7.61,7.61,0,0,1-1.32.032c-1.1-.052-2.2-.221-3.305-.318-2.267-.2-4.831-.934-6.357-.362s-2.919,2.415-.781,4.674a10.468,10.468,0,0,0,2.858,2.17c2.532,1.059,5.161.862,6.844,1.232,2.174.479,3.382,1.409,5.387,1.59,2.6.237,4.215-.467,4.646-1.172.242-.4-.024-2.416.3-4.006.282-1.361.209-2.287-.282-2.226a2.415,2.415,0,0,1-.378.483,1.816,1.816,0,0,1-.576.455,4.543,4.543,0,0,1-.974.326,5.753,5.753,0,0,1-1.808.249.876.876,0,0,1-.491-.157,1.035,1.035,0,0,1-.286-.612c-.04-.2-.085-.4-.125-.6a.847.847,0,0,0-.113-.31.8.8,0,0,0-.306-.246,2.64,2.64,0,0,1-.99-.753,2.326,2.326,0,0,1-.29-.934.229.229,0,0,0-.064-.153c-.072-.056-.181,0-.262.044Z" transform="translate(-245.272 -260.756)" fill="#4adbd1"/>
          <path id="Trazado_184245" data-name="Trazado 184245" d="M274.07,362.207s.185-2.359,1.908-3.023a.918.918,0,0,1,.962.1s-1.61.274-2.069,3.048c0,0-.08.185-.435.129C274.32,362.445,274.058,362.4,274.07,362.207Z" transform="translate(-267.242 -261.546)" fill="#fafafa"/>
          <path id="Trazado_184246" data-name="Trazado 184246" d="M272.723,359.7s0-.081-.4-.145a.716.716,0,0,0-.475.064s-1.284.592-1.465,3.06c0,0,0,.294.4.366a.358.358,0,0,0,.459-.254S271.439,360.2,272.723,359.7Z" transform="translate(-261.539 -261.815)" fill="#fafafa"/>
          <path id="Trazado_184247" data-name="Trazado 184247" d="M268.632,359.8s-.077-.145-.382-.137c-.382,0-.467.161-.467.161a4.45,4.45,0,0,0-.862,3.023s-.032.35.455.374.4-.366.4-.366S267.884,360.219,268.632,359.8Z" transform="translate(-256.055 -261.885)" fill="#fafafa"/>
          <path id="Trazado_184248" data-name="Trazado 184248" d="M225.805,286.634c-1.554,4.779-5.524,18.382-7.335,25.363a11.308,11.308,0,0,0,7.448,2.673l10.1-26.193-4.026-2.488Z" transform="translate(-203.936 -217.874)" fill="#455a64"/>
          <path id="Trazado_184249" data-name="Trazado 184249" d="M160.256,385.587a.656.656,0,0,1-.656-.656V342.836a.656.656,0,1,1,1.312,0v42.107A.656.656,0,0,1,160.256,385.587Z" transform="translate(-105.129 -251.443)" fill="#455a64"/>
          <path id="Trazado_184250" data-name="Trazado 184250" d="M108.475,361.5a.652.652,0,0,1-.608-.4L94.956,328.417a.652.652,0,1,1,1.208-.479l12.923,32.65a.656.656,0,0,1-.366.849.648.648,0,0,1-.246.064Z" transform="translate(-27.296 -242.656)" fill="#455a64"/>
          <path id="Trazado_184251" data-name="Trazado 184251" d="M148.332,361.789a.648.648,0,0,1-.475-.205L123.83,336.16,99.848,361.475a.656.656,0,0,1-.95-.9l24.457-25.818a.661.661,0,0,1,.475-.205h0a.656.656,0,0,1,.475.205l24.5,25.927a.656.656,0,0,1-.475,1.107Z" transform="translate(-68.703 -246.885)" fill="#455a64"/>
          <path id="Trazado_184252" data-name="Trazado 184252" d="M192.819,361.43a.648.648,0,0,1-.242-.048.656.656,0,0,1-.366-.849l12.911-32.678a.656.656,0,1,1,1.208.479l-12.915,32.682A.652.652,0,0,1,192.819,361.43Z" transform="translate(-163.744 -242.584)" fill="#455a64"/>
          <path id="Trazado_184253" data-name="Trazado 184253" d="M95.634,285.593c-.471-2.641,1.679-4.7,5.729-7.436a96.008,96.008,0,0,1,11.727-6.59c3.39-1.554,6.844-1.409,11.188.805,6.039,3.1,24.155,14.091,24.155,14.091s-27.1,15.3-32.316,14.614-18.245-9.163-19.28-12.146S95.634,285.593,95.634,285.593Z" transform="translate(-66.873 -208.641)" fill="#636363"/>
          <path id="Trazado_184255" data-name="Trazado 184255" d="M192.447,320.215c-3.889,3.523-7.955.491-14.389-3.684-7.283-4.722-8.708-8.591-8.708-8.591a15.76,15.76,0,0,0,.544,4.255c.544,1.357,1.719,2.9,6.969,6.518s9.054,5.431,12.585,6.1l2.786-.382" transform="translate(-140.589 -230.987)" fill="#373f51"/>
          <path id="Trazado_184257" data-name="Trazado 184257" d="M95.3,399.22l2.013,4.6a.64.64,0,0,1,.024.121.54.54,0,0,1,0,.085.568.568,0,0,1-.254.306,1.208,1.208,0,0,1-1.079.052.475.475,0,0,1-.221-.213h0v-.06L93.936,399.8Z" transform="translate(-15.125 -285.519)" fill="#f4a338"/>
          <path id="Trazado_184258" data-name="Trazado 184258" d="M222.062,399.7l-1.719,4.505a.55.55,0,0,0,0,.117v.08a.528.528,0,0,0,.258.282,1.128,1.128,0,0,0,1.039,0,.463.463,0,0,0,.205-.209h0v-.064l1.582-4.223Z" transform="translate(-192.097 -285.806)" fill="#f4a338"/>
          <path id="Trazado_184259" data-name="Trazado 184259" d="M160.86,440.021v3.728a.4.4,0,0,1-.221.306,1.167,1.167,0,0,1-1.071,0,.374.374,0,0,1-.217-.306v-3.728A1.61,1.61,0,0,1,160.86,440.021Z" transform="translate(-104.976 -309.782)" fill="#f4a338"/>
          <path id="Trazado_184260" data-name="Trazado 184260" d="M159.429,263.1c-1.542,1.8-15.588-2.242-19.324-2.75-6-.805-10.87-1.413-12.923-.773s-2.9,1.679-3.527,4.118c-.737,2.875-1.115,4.344-1.115,4.344s9.968,3.825,17.835,4.747S159.429,263.1,159.429,263.1Z" transform="translate(-88.726 -201.933)" fill="#37474f"/>
          <path id="Trazado_184261" data-name="Trazado 184261" d="M163.439,272.248c1.558,5.934,2.955,12.835-.648,16.611-2.416,2.544-14.618,9.155-22.485,6.55-7.746-2.565-23.793-14.493-25.4-15.673s-3.072-2.013-2.919-2.528c2.162-7.182,5.326-7.746,11.188-6.441,7.174,1.578,22.916,8,22.916,8Z" transform="translate(-90.103 -208.448)" fill="#455a64"/>
          <path id="Trazado_184262" data-name="Trazado 184262" d="M169.38,170.9l5.411,6.115,8.736-4.147-6.107-8.45Z" transform="translate(-131.681 -145.247)" fill="#ffa8a7"/>
          <path id="Trazado_184263" data-name="Trazado 184263" d="M223.185,151.66s-2.214,3.2-1.977,3.523,1.8.648,1.8.648Z" transform="translate(-192.197 -137.625)" fill="#f28f8f"/>
          <path id="Trazado_184264" data-name="Trazado 184264" d="M217.219,149.048a2.649,2.649,0,1,0-2.649-2.649,2.649,2.649,0,0,0,2.649,2.649Zm0-4.811a2.154,2.154,0,1,0,0,.016Z" transform="translate(-186.216 -132.899)" fill="#263238"/>
          <path id="Trazado_184265" data-name="Trazado 184265" d="M179.585,129.176c-4.352.805-5.636,2.689-6.212,9.562-.588,7.178.093,9.457,1.015,10.443.624.668,4.163.87,5.962.4,2.25-.568,7.347-2.242,9.8-5.805,2.883-4.191,3.748-9.94.805-12.372C186.844,128,181.356,128.846,179.585,129.176Z" transform="translate(-142.45 -123.989)" fill="#ffa8a7"/>
          <path id="Trazado_184266" data-name="Trazado 184266" d="M208.918,177.987a10.99,10.99,0,0,1-5.568-.318,6.442,6.442,0,0,0,3.152-.117,10.311,10.311,0,0,0,2.887-1.272Z" transform="translate(-171.219 -152.333)" fill="#f28f8f"/>
          <path id="Trazado_184267" data-name="Trazado 184267" d="M165.99,124.8h0a9.909,9.909,0,0,0,4.155,1.413,8.592,8.592,0,0,0,.616,3.43c.25.769,1.155,3.189,2.142,1.86.713-.958,1.357-1.832,2.722-1.61,2.246.4,2.484,3.265,1.023,4.98s-2.77,1.015-2.77,1.015a8.97,8.97,0,0,0,1.429,5.286,7.359,7.359,0,0,0,5.858.37,14.225,14.225,0,0,0,6.421-5.56c3.16-5.846,3.176-11.45-.656-13.173-.354-2.818-2.524-4.106-5.016-4.739-3.458-.878-7.049,1.292-10.391-.141-.7-.3-1.353-.729-2.073-.99a1.433,1.433,0,0,0-1.244,0,1.514,1.514,0,0,0-.531.95,2.665,2.665,0,0,0,.133,2.013,6.038,6.038,0,0,0-1.574-.58,1.973,1.973,0,0,0-1.586.358,2.041,2.041,0,0,0-.636,1.385A4.309,4.309,0,0,0,165.99,124.8Z" transform="translate(-135.872 -116.797)" fill="#263238"/>
          <path id="Trazado_184268" data-name="Trazado 184268" d="M164.9,130.706l2.625-1.469a1.506,1.506,0,1,0-2.625,1.469Z" transform="translate(-113.78 -123.732)" fill="#263238"/>
          <rect id="Rectngulo_37289" data-name="Rectngulo 37289" width="8.559" height="0.415" transform="translate(37.006 14.921) rotate(-169.43)" fill="#263238"/>
          <path id="Trazado_184269" data-name="Trazado 184269" d="M208.912,186.241c.225-.378.729-.455,1.147-.6.773-.27,1.377-.886,2.122-1.208a4.187,4.187,0,0,1,2.681-.181,6.793,6.793,0,0,1,.894.286,11.25,11.25,0,0,1,1.61.805c2.134,1.26,3.736,4.114,5.834,5.423.781.487,1.51.93,2.23,1.373l-5.02,4.449a29.976,29.976,0,0,0-2.472-1.88,9.64,9.64,0,0,0-3.861-.95,19.154,19.154,0,0,1-2.818-.7,1.244,1.244,0,0,1-.833-.544.837.837,0,0,1,.539-1.031,7.24,7.24,0,0,1,1.461-.2c.362-.056,1.329.157,1.542-.205.113-.193-.028-.427-.165-.6a6.67,6.67,0,0,0-3.358-2.569,2.915,2.915,0,0,1-1.208-.487A.962.962,0,0,1,208.912,186.241Z" transform="translate(-189.467 -157.012)" fill="#ffa8a7"/>
          <path id="Trazado_184270" data-name="Trazado 184270" d="M133.73,174.89c5.318-2.9,10.161-1.039,11.9,2.693,1.582,3.378,4.9,16.446,4.9,16.446C148.94,197.033,133.73,174.89,133.73,174.89Z" transform="translate(-84.336 -150.653)" fill="#4adbd1"/>
          <path id="Trazado_184271" data-name="Trazado 184271" d="M133.424,176.621l-.805-1.051c6.007-2.85,11.381.894,16.1,8.261,5.1,7.939,7.782,19.324,7.806,31.366,0,0-1.019,5.407-7.846,8.108-7.247,2.87-17.356,1.655-20.508-5.858,0,0-.064-7.5-2.343-11.2-1.477-2.391-4.92-7.7-7.48-11.514-2.23-3.317-3.966-10.87.692-13.628a39.554,39.554,0,0,1,3.788-1.932C127.092,180.579,133.972,178.3,133.424,176.621Z" transform="translate(-83.233 -151.338)" fill="#407bff"/>
          <path id="Trazado_184272" data-name="Trazado 184272" d="M133.38,176.65l-.781-1.079c6.007-2.85,11.381.894,16.1,8.261,5.1,7.939,7.782,19.324,7.806,31.366,0,0-1.019,5.407-7.847,8.108-7.247,2.87-17.356,1.655-20.508-5.858,0,0-.064-7.5-2.343-11.2-1.478-2.391-4.92-7.7-7.48-11.514-2.23-3.317-3.966-10.87.692-13.628a39.547,39.547,0,0,1,3.788-1.932C127.064,180.579,133.928,178.332,133.38,176.65Z" transform="translate(-83.205 -151.338)" fill="#fff" opacity="0.75"/>
          <path id="Trazado_184273" data-name="Trazado 184273" d="M116.432,206.162a12.159,12.159,0,0,1-.185-4.372h0a23.35,23.35,0,0,0,4.533,6.929c2.444,2.573,5.459,4.577,7.726,7.307,2.416,2.891,4.127,6.389,6.14,9.545.805,1.268,1.908,3.712,3.406,3.813,1.828.117,3.575-2.11,4.569-3.647,1.61-2.448,2.955-5.512,4.932-7.649,1.727-1.88,4.4-4.288,6.751-3.2h0c.177.624.342,1.256.5,1.892s.3,1.3.439,1.945v.077c.133.652.258,1.308.374,1.965a.8.8,0,0,0,0,.1q.169.978.3,1.957a63.459,63.459,0,0,1,.6,8.619s-1.019,5.407-7.846,8.108c-7.247,2.87-17.356,1.655-20.508-5.858,0,0-.064-7.5-2.343-11.2-.229-.37-.511-.805-.805-1.316h0l-.052-.085c-.262-.4-.544-.858-.849-1.333,0-.028-.036-.056-.056-.085a.163.163,0,0,0,0-.036c-.652-1.019-1.385-2.146-2.142-3.309l-.342-.527c-.733-1.119-1.478-2.25-2.186-3.317h0c-.238-.358-.471-.709-.7-1.051-.1-.149-.2-.294-.29-.439h0c-.081-.117-.161-.246-.238-.374l-.072-.121-.169-.3-.072-.137-.181-.354a.975.975,0,0,0-.044-.093c-.076-.157-.149-.318-.221-.483V209.1c-.064-.153-.129-.306-.189-.459a.377.377,0,0,0-.04-.113c-.056-.149-.113-.3-.165-.447v-.089c-.1-.278-.185-.568-.266-.858h0c-.081-.294-.153-.592-.217-.89v-.036Z" transform="translate(-83.234 -167.573)" fill="#407bff" opacity="0.1"/>
          <path id="Trazado_184274" data-name="Trazado 184274" d="M200.669,207.728a11.1,11.1,0,0,0,1.248,1.288c1.836,1.663,3.982,2.464,6.478,4.082,2.013,1.308,5.125,3.221,7.746,4.851a39.158,39.158,0,0,0,8.454,3.9c2.416.717,3.8.745,5.234-3.152.7-1.912,1.264-3.877,1.876-5.821q1.357-4.344,2.673-8.7s3.221-7.983-4.026-11.993c-3.152,1.8-4.352,2.532-5.342,6.309-1.184,4.521-3.1,13.443-3.1,13.443a63.105,63.105,0,0,1-7.484-3.189,7.46,7.46,0,0,1-2.705-1.59,12.145,12.145,0,0,1-1.151-1.8c-.31-.556-.531-1.159-.874-1.691a14.982,14.982,0,0,0-2.379-2.621.978.978,0,0,0-.576-.342.668.668,0,0,0-.584.354c-.266.467-.02.922.117,1.4.157.544.314,1.087.467,1.61a14.192,14.192,0,0,1-4.618-4.308,2.364,2.364,0,0,0-.362-.459.7.7,0,0,0-.54-.2c-.483.06-.962.841-.986,1.288a7.34,7.34,0,0,1-.036,1.365c-.109.4-.4.765-.527,1.176a6.838,6.838,0,0,0-.274,1.3,4.468,4.468,0,0,0,.733,2.734A6.428,6.428,0,0,0,200.669,207.728Z" transform="translate(-195.326 -161.832)" fill="#ffa8a7"/>
          <path id="Trazado_184275" data-name="Trazado 184275" d="M206.446,191.35c-2.758,1.115-4.747,2.375-6,6.586s-2.625,10.987-2.625,10.987-.024,1.413,3.325,3.39a8.245,8.245,0,0,0,6.486.874l2.528-8.132S214.643,194.16,206.446,191.35Z" transform="translate(-170.986 -161.336)" fill="#4adbd1"/>
          <path id="Trazado_184276" data-name="Trazado 184276" d="M87.22,279.359c2.214-.113,3.949-1.739,9.215-3.933,9.727-4.054,17.022-7.3,19.8-12.392s4.747-19.8,4.05-26.168a8.193,8.193,0,0,0-.475-2.11l.684-.1-1.771-1.51h0c-1.82-1.482-4.775-.161-7.005,1.055-6.369,3.462-11.349,6.844-15.3,18.99-2.959,9.143-4.912,17.485-9,21.945" transform="translate(-35.576 -185.912)" fill="#636363"/>
          <path id="Trazado_184278" data-name="Trazado 184278" d="M111.986,238.094c-6.365,3.462-11.345,6.844-15.3,18.99s-6.091,22.9-13.849,24.981c0,0,3.507,1.4,14.256-3.152a112.453,112.453,0,0,0,10.3-5.612c5.342-3,8.583-5.455,9.095-6.377,2.818-5.069,4.747-19.8,4.054-26.168S115.179,236.355,111.986,238.094Z" transform="translate(-33.996 -188.236)" fill="#373f51"/>
        </g>
      </g>
    </g>
    <g id="freepik--speech-bubble--inject-8" transform="translate(1032.047 5504.045)">
      <g id="freepik--speech-bubble--inject-8-2" data-name="freepik--speech-bubble--inject-8">
        <path id="Trazado_184279" data-name="Trazado 184279" d="M186.422,92.012l-1.747-3.305,1.413-4.086v-2.5l-4.328,2.5v2.5l1.86,3.221a.249.249,0,0,0,.129.113h0Z" transform="translate(-174.3 -59.075)" fill="#407bff"/>
        <path id="Trazado_184280" data-name="Trazado 184280" d="M186.422,92.012l-1.747-3.305,1.413-4.086v-2.5l-4.328,2.5v2.5l1.86,3.221a.249.249,0,0,0,.129.113h0Z" transform="translate(-174.3 -59.075)" opacity="0.2"/>
        <path id="Trazado_184281" data-name="Trazado 184281" d="M185.683,28.047a2.875,2.875,0,0,0-1.3-2.25l-1.055-.608a2.866,2.866,0,0,0-2.6,0l-16.2,9.376a2.87,2.87,0,0,0-1.3,2.25V54.654a2.87,2.87,0,0,0,1.3,2.246l1.059.612a2.866,2.866,0,0,0,2.6,0L173.4,54.5l1.86,3.221a.274.274,0,0,0,.5-.048l1.965-5.668,6.675-3.865a2.875,2.875,0,0,0,1.288-2.255Z" transform="translate(-163.23 -24.878)" fill="#f4a338"/>
        <path id="Trazado_184282" data-name="Trazado 184282" d="M163.23,70.469a2.871,2.871,0,0,0,1.3,2.246l1.059.612a2.9,2.9,0,0,0,2.375.1c-.612.229-1.079-.113-1.079-.853V54.74a2.673,2.673,0,0,1,.382-1.28l-3.656-2.11a2.665,2.665,0,0,0-.378,1.28Z" transform="translate(-163.23 -40.692)" opacity="0.2"/>
        <path id="Trazado_184283" data-name="Trazado 184283" d="M186.218,27.677c-.149-.552-.652-.725-1.252-.382l-16.216,9.38a2.565,2.565,0,0,0-.914.97l-3.656-2.11a2.649,2.649,0,0,1,.914-.966l16.212-9.38a2.866,2.866,0,0,1,2.6,0l1.063.612A2.85,2.85,0,0,1,186.218,27.677Z" transform="translate(-163.798 -24.878)" fill="#fff" opacity="0.5"/>
        <g id="freepik----inject-8" transform="translate(6.036 10.894)">
          <path id="Trazado_184284" data-name="Trazado 184284" d="M178.226,67.463a.95.95,0,0,1,.064-.37,2.821,2.821,0,0,1,.189-.346l3.527-5.7a.266.266,0,0,1,.056-.068l.04-.028a.1.1,0,0,1,.129,0,.233.233,0,0,1,.056.173v2.2a.942.942,0,0,1-.1.459,2.886,2.886,0,0,1-.177.3l-1.82,2.77,1.82.837a.774.774,0,0,1,.177.085c.068.044.1.157.1.334v1.562a.524.524,0,0,1-.056.234.334.334,0,0,1-.129.161h-.04a.093.093,0,0,1-.056,0l-3.527-1.61a.359.359,0,0,1-.254-.423Z" transform="translate(-178.223 -57.309)" fill="#fff"/>
          <path id="Trazado_184285" data-name="Trazado 184285" d="M192.925,53.291a2.253,2.253,0,0,1,.133-.354.64.64,0,0,1,.258-.278l1.18-.7a.1.1,0,0,1,.137,0,.246.246,0,0,1,.056.177.59.59,0,0,1,0,.133l-2.979,12.7a1.712,1.712,0,0,1-.125.342.64.64,0,0,1-.262.286l-1.155.668a.1.1,0,0,1-.137,0,.225.225,0,0,1-.056-.177.535.535,0,0,1,0-.129Z" transform="translate(-185.241 -51.937)" fill="#fff"/>
          <path id="Trazado_184286" data-name="Trazado 184286" d="M207.363,56.535a.927.927,0,0,1-.064.37,2.811,2.811,0,0,1-.189.346l-3.531,5.7a.53.53,0,0,1-.056.064l-.04.032a.1.1,0,0,1-.133,0,.221.221,0,0,1-.052-.173V60.669a.9.9,0,0,1,.1-.451c.068-.121.129-.217.181-.294l1.542-2.383-1.542-.588a.644.644,0,0,1-.181-.093c-.068-.048-.1-.161-.1-.342v-2.2a.535.535,0,0,1,.052-.234.374.374,0,0,1,.133-.157h.1l3.527,1.61a.35.35,0,0,1,.254.4Z" transform="translate(-193.202 -53.128)" fill="#fff"/>
        </g>
      </g>
    </g>
    <g id="freepik--text-boxes--inject-8" transform="translate(915 5520.538)">
      <g id="freepik--text-box--inject-8">
        <g id="freepik----inject-8-2" data-name="freepik----inject-8">
          <g id="freepik--speech-bubble--inject-8-3" data-name="freepik--speech-bubble--inject-8">
            <g id="freepik--speach-bubble--inject-8">
              <path id="Trazado_184287" data-name="Trazado 184287" d="M63.505,27.017l-21.7,12.5a1.184,1.184,0,0,0-.539.93V52.562a1.176,1.176,0,0,0,.539.946l2.142,1.208a1.208,1.208,0,0,0,1.079,0l21.7-12.48a1.208,1.208,0,0,0,.539-.934V29.159a1.168,1.168,0,0,0-.539-.926l-2.142-1.208A1.208,1.208,0,0,0,63.505,27.017Z" transform="translate(-41.27 -26.89)" fill="#263238"/>
              <path id="Trazado_184288" data-name="Trazado 184288" d="M67.5,29.056c-.04-.274-.262-.37-.531-.217L45.273,41.34a1.115,1.115,0,0,0-.382.4L41.67,39.894a1.059,1.059,0,0,1,.37-.4l21.7-12.48a1.208,1.208,0,0,1,1.079,0l2.142,1.208a1.208,1.208,0,0,1,.539.837Z" transform="translate(-41.509 -26.884)" fill="#455a64"/>
              <path id="Trazado_184289" data-name="Trazado 184289" d="M71.511,31.64l-21.7,12.48a1.208,1.208,0,0,0-.535.934V57.18c0,.342.242.483.535.31l21.7-12.48a1.208,1.208,0,0,0,.539-.934V31.95C72.051,31.608,71.809,31.467,71.511,31.64Z" transform="translate(-46.055 -29.681)" fill="#37474f"/>
            </g>
          </g>
        </g>
        <path id="Trazado_184290" data-name="Trazado 184290" d="M60.694,64.963v1.824a2.36,2.36,0,0,0,.06.391.685.685,0,0,0,.153.306.4.4,0,0,0,.262.121.749.749,0,0,0,.4-.129,1.526,1.526,0,0,0,.4-.31,1.82,1.82,0,0,0,.4-.709c.032-.121.06-.225.076-.322a1.389,1.389,0,0,1,.076-.286.362.362,0,0,1,.161-.161l.882-.523a.085.085,0,0,1,.109,0,.2.2,0,0,1,.044.141,4.167,4.167,0,0,1-.173,1.123,5.113,5.113,0,0,1-.455,1.1,5.411,5.411,0,0,1-.684.954,3.51,3.51,0,0,1-.849.713,1.8,1.8,0,0,1-.89.286,1.019,1.019,0,0,1-.668-.238,1.5,1.5,0,0,1-.427-.676,3.816,3.816,0,0,1-.169-1.019v-1.9a5.547,5.547,0,0,1,.165-1.208A5.935,5.935,0,0,1,60,63.272a4.944,4.944,0,0,1,.668-1.01,3.47,3.47,0,0,1,.894-.745,1.888,1.888,0,0,1,.849-.282,1.143,1.143,0,0,1,.684.165,1.208,1.208,0,0,1,.455.568,2.355,2.355,0,0,1,.173.922.483.483,0,0,1-.044.193.286.286,0,0,1-.109.133l-.906.523c-.081.044-.133.052-.161.02a.455.455,0,0,1-.076-.193,1.435,1.435,0,0,0-.076-.234.393.393,0,0,0-.4-.25.87.87,0,0,0-.4.141,1.425,1.425,0,0,0-.4.326,1.929,1.929,0,0,0-.262.427,2.178,2.178,0,0,0-.153.483A3.507,3.507,0,0,0,60.694,64.963Z" transform="translate(-52.107 -47.404)" fill="#f0f0f0"/>
        <path id="Trazado_184291" data-name="Trazado 184291" d="M74.11,54.324a1.84,1.84,0,0,1,.805-.27,1.139,1.139,0,0,1,.64.137,1.034,1.034,0,0,1,.423.439,1.417,1.417,0,0,1,.169.608.483.483,0,0,1-.044.193.278.278,0,0,1-.1.125l-.91.527a.246.246,0,0,1-.157.044.27.27,0,0,1-.121-.056L74.75,56a.31.31,0,0,0-.129-.081.483.483,0,0,0-.209,0,.829.829,0,0,0-.3.117,2.171,2.171,0,0,0-.254.173,1.506,1.506,0,0,0-.213.209,1.014,1.014,0,0,0-.153.254.749.749,0,0,0-.06.3.334.334,0,0,0,.068.229.3.3,0,0,0,.221.068,1.743,1.743,0,0,0,.4-.064l.636-.165a2.081,2.081,0,0,1,.664-.085.781.781,0,0,1,.475.181.97.97,0,0,1,.286.475,2.991,2.991,0,0,1,.093.805,3.624,3.624,0,0,1-.157,1.063,4.557,4.557,0,0,1-.439.986,4.373,4.373,0,0,1-.68.853,4.184,4.184,0,0,1-.858.656,2.077,2.077,0,0,1-.858.3,1.123,1.123,0,0,1-.668-.121,1.022,1.022,0,0,1-.439-.455,1.55,1.55,0,0,1-.177-.7.431.431,0,0,1,.048-.193.262.262,0,0,1,.1-.129l.906-.523a.282.282,0,0,1,.153-.048.217.217,0,0,1,.109.048.964.964,0,0,1,.085.089.483.483,0,0,0,.149.113.459.459,0,0,0,.234.04.805.805,0,0,0,.35-.129,2.6,2.6,0,0,0,.616-.475A.862.862,0,0,0,75,59.216.23.23,0,0,0,74.9,59a.471.471,0,0,0-.27-.04,2.637,2.637,0,0,0-.459.089c-.189.052-.4.109-.66.169a1,1,0,0,1-1.043-.181,1.892,1.892,0,0,1-.33-1.276,3.68,3.68,0,0,1,.133-.954,4.485,4.485,0,0,1,.4-.962,4.174,4.174,0,0,1,.62-.862,3.442,3.442,0,0,1,.813-.66Z" transform="translate(-59.628 -43.114)" fill="#f0f0f0"/>
        <path id="Trazado_184292" data-name="Trazado 184292" d="M86.587,47.13a1.836,1.836,0,0,1,.805-.274,1.208,1.208,0,0,1,.64.137,1.083,1.083,0,0,1,.4.439,1.433,1.433,0,0,1,.161.624.431.431,0,0,1-.048.193.25.25,0,0,1-.1.125l-.906.523a.254.254,0,0,1-.157.048.25.25,0,0,1-.121-.056l-.064-.068a.338.338,0,0,0-.129-.081.426.426,0,0,0-.209,0,.805.805,0,0,0-.3.117,2.169,2.169,0,0,0-.254.173,1.53,1.53,0,0,0-.217.209,1,1,0,0,0-.149.254.749.749,0,0,0-.06.3.314.314,0,0,0,.064.225.294.294,0,0,0,.221.072,1.738,1.738,0,0,0,.4-.064l.636-.165a2.081,2.081,0,0,1,.713-.1.805.805,0,0,1,.475.177.986.986,0,0,1,.286.479,2.992,2.992,0,0,1,.093.805,3.527,3.527,0,0,1-.161,1.063,4.2,4.2,0,0,1-.447.99,4.429,4.429,0,0,1-.676.853,4.332,4.332,0,0,1-.857.656,2.077,2.077,0,0,1-.858.3,1.208,1.208,0,0,1-.672-.121,1.043,1.043,0,0,1-.439-.455,1.506,1.506,0,0,1-.169-.7.4.4,0,0,1,.048-.189.262.262,0,0,1,.1-.129l.91-.523a.342.342,0,0,1,.153-.052.218.218,0,0,1,.109.048,1.164,1.164,0,0,1,.085.093.435.435,0,0,0,.149.109.4.4,0,0,0,.234.04.805.805,0,0,0,.35-.125,2.613,2.613,0,0,0,.616-.479.845.845,0,0,0,.246-.584.229.229,0,0,0-.093-.213.439.439,0,0,0-.27-.04,2.3,2.3,0,0,0-.459.089q-.282.076-.664.169a1.011,1.011,0,0,1-1.043-.181,1.925,1.925,0,0,1-.326-1.276,3.681,3.681,0,0,1,.133-.954,4.486,4.486,0,0,1,.4-.962,4.312,4.312,0,0,1,.62-.866A3.426,3.426,0,0,1,86.587,47.13Z" transform="translate(-67.09 -38.814)" fill="#f0f0f0"/>
      </g>
      <g id="freepik--text-box--inject-8-2" data-name="freepik--text-box--inject-8" transform="translate(0 25.166)">
        <g id="freepik----inject-8-3" data-name="freepik----inject-8">
          <g id="freepik--speech-bubble--inject-8-4" data-name="freepik--speech-bubble--inject-8">
            <g id="freepik--speach-bubble--inject-8-2" data-name="freepik--speach-bubble--inject-8">
              <path id="Trazado_184293" data-name="Trazado 184293" d="M63.505,89.525l-21.7,12.48a1.208,1.208,0,0,0-.539.934v12.11a1.176,1.176,0,0,0,.539.926l2.142,1.208a1.208,1.208,0,0,0,1.079,0l21.7-12.48a1.208,1.208,0,0,0,.539-.934V91.651a1.176,1.176,0,0,0-.539-.926l-2.142-1.208A1.208,1.208,0,0,0,63.505,89.525Z" transform="translate(-41.27 -89.394)" fill="#263238"/>
              <path id="Trazado_184294" data-name="Trazado 184294" d="M67.5,91.572c-.04-.27-.262-.366-.531-.213l-21.692,12.48a1.115,1.115,0,0,0-.382.4l-3.221-1.848a1.059,1.059,0,0,1,.37-.382l21.7-12.48a1.208,1.208,0,0,1,1.079,0l2.142,1.208a1.176,1.176,0,0,1,.539.833Z" transform="translate(-41.509 -89.4)" fill="#455a64"/>
              <path id="Trazado_184295" data-name="Trazado 184295" d="M71.511,94.15l-21.7,12.48a1.208,1.208,0,0,0-.535.934V119.69c0,.342.242.483.535.31l21.7-12.48a1.208,1.208,0,0,0,.539-.934V94.447C72.051,94.117,71.809,93.976,71.511,94.15Z" transform="translate(-46.055 -92.191)" fill="#37474f"/>
            </g>
          </g>
        </g>
        <path id="Trazado_184296" data-name="Trazado 184296" d="M57.041,125.783a.1.1,0,0,1,.133,0,.234.234,0,0,1,.056.173v6.888a.552.552,0,0,1-.056.234.322.322,0,0,1-.133.161l-.906.523a.1.1,0,0,1-.133,0,.229.229,0,0,1-.056-.169V130.98l-1.538.886v2.613a.564.564,0,0,1-.052.238.4.4,0,0,1-.133.161l-.906.523a.109.109,0,0,1-.133,0,.234.234,0,0,1-.056-.177v-6.892a.572.572,0,0,1,.056-.238.362.362,0,0,1,.133-.161l.906-.523a.1.1,0,0,1,.133,0,.226.226,0,0,1,.052.169v2.569l1.538-.886V126.7a.568.568,0,0,1,.056-.234.342.342,0,0,1,.133-.161Z" transform="translate(-48.353 -111.118)" fill="#f0f0f0"/>
        <path id="Trazado_184297" data-name="Trazado 184297" d="M69.669,118.521a.1.1,0,0,1,.133,0,.229.229,0,0,1,.056.169v1.131a.539.539,0,0,1-.056.234.354.354,0,0,1-.133.165l-1.208.7v5.471a.564.564,0,0,1-.052.238.422.422,0,0,1-.133.161l-.906.523a.109.109,0,0,1-.133,0,.233.233,0,0,1-.056-.173v-5.471l-1.208.7a.1.1,0,0,1-.133,0,.233.233,0,0,1-.052-.173v-1.127a.564.564,0,0,1,.052-.238.366.366,0,0,1,.133-.161Z" transform="translate(-55.917 -106.779)" fill="#f0f0f0"/>
        <path id="Trazado_184298" data-name="Trazado 184298" d="M80.328,117.311a.455.455,0,0,1-.1-.121l-.648-1.385v3.531a.552.552,0,0,1-.056.234.322.322,0,0,1-.133.161l-.906.523a.1.1,0,0,1-.133,0,.229.229,0,0,1-.056-.169v-6.9a.551.551,0,0,1,.056-.234.342.342,0,0,1,.133-.161l.805-.463c.089-.056.161-.056.205,0a.689.689,0,0,1,.093.121l1.119,2.3,1.123-3.6a2.367,2.367,0,0,1,.089-.225.523.523,0,0,1,.209-.238l.805-.463a.1.1,0,0,1,.129,0,.234.234,0,0,1,.056.173v6.888a.572.572,0,0,1-.056.238.4.4,0,0,1-.129.161l-.91.523a.1.1,0,0,1-.133,0,.217.217,0,0,1-.052-.169v-3.531l-.652,2.138a2.281,2.281,0,0,1-.093.229.4.4,0,0,1-.165.185l-.443.254C80.421,117.367,80.368,117.367,80.328,117.311Z" transform="translate(-63.391 -101.825)" fill="#f0f0f0"/>
        <path id="Trazado_184299" data-name="Trazado 184299" d="M96.939,110.919a.1.1,0,0,1,.133,0,.225.225,0,0,1,.056.169v1.131a.552.552,0,0,1-.056.233.322.322,0,0,1-.133.161l-3.221,1.852a.1.1,0,0,1-.133,0,.229.229,0,0,1-.056-.169v-6.888a.551.551,0,0,1,.056-.234.322.322,0,0,1,.133-.161l.906-.523a.1.1,0,0,1,.133,0,.229.229,0,0,1,.052.169v5.471Z" transform="translate(-72.49 -99.592)" fill="#f0f0f0"/>
      </g>
      <g id="freepik--text-box--inject-8-3" data-name="freepik--text-box--inject-8" transform="translate(0 50.316)">
        <g id="freepik----inject-8-4" data-name="freepik----inject-8">
          <g id="freepik--speech-bubble--inject-8-5" data-name="freepik--speech-bubble--inject-8">
            <g id="freepik--speach-bubble--inject-8-3" data-name="freepik--speach-bubble--inject-8">
              <path id="Trazado_184300" data-name="Trazado 184300" d="M63.505,152.044l-21.7,12.5a1.184,1.184,0,0,0-.539.93v12.11a1.164,1.164,0,0,0,.539.926l2.142,1.208a1.208,1.208,0,0,0,1.079,0l21.7-12.5a1.184,1.184,0,0,0,.539-.93v-12.1a1.176,1.176,0,0,0-.539-.93l-2.142-1.208A1.208,1.208,0,0,0,63.505,152.044Z" transform="translate(-41.27 -151.897)" fill="#263238"/>
              <path id="Trazado_184301" data-name="Trazado 184301" d="M67.5,154.053c-.04-.27-.262-.366-.531-.213L45.273,166.32a1.086,1.086,0,0,0-.382.4l-3.221-1.848a1.071,1.071,0,0,1,.37-.4l21.7-12.48a1.208,1.208,0,0,1,1.079,0l2.142,1.208A1.184,1.184,0,0,1,67.5,154.053Z" transform="translate(-41.509 -151.864)" fill="#455a64"/>
              <path id="Trazado_184302" data-name="Trazado 184302" d="M71.511,156.663l-21.7,12.48a1.208,1.208,0,0,0-.535.93v12.11c0,.346.242.483.535.314l21.7-12.5a1.184,1.184,0,0,0,.539-.93v-12.09C72.051,156.631,71.809,156.494,71.511,156.663Z" transform="translate(-46.055 -154.688)" fill="#37474f"/>
            </g>
          </g>
        </g>
        <path id="Trazado_184303" data-name="Trazado 184303" d="M61.77,189.425v1.824a2.614,2.614,0,0,0,.064.435.684.684,0,0,0,.153.306.4.4,0,0,0,.262.121.749.749,0,0,0,.4-.129,1.611,1.611,0,0,0,.4-.306,2.191,2.191,0,0,0,.25-.354,1.823,1.823,0,0,0,.149-.358,3.308,3.308,0,0,0,.076-.322,1.388,1.388,0,0,1,.076-.286.4.4,0,0,1,.161-.161l.906-.523a.085.085,0,0,1,.109,0,.2.2,0,0,1,.044.141,4.166,4.166,0,0,1-.173,1.123,4.927,4.927,0,0,1-.459,1.1,5.194,5.194,0,0,1-.68.954,3.417,3.417,0,0,1-.849.7,1.759,1.759,0,0,1-.89.286,1.019,1.019,0,0,1-.668-.238,1.5,1.5,0,0,1-.427-.676,3.789,3.789,0,0,1-.169-1.019v-1.9a5.548,5.548,0,0,1,.165-1.208,5.934,5.934,0,0,1,.427-1.168,4.942,4.942,0,0,1,.668-1.01,3.551,3.551,0,0,1,.894-.745,1.888,1.888,0,0,1,.849-.282,1.151,1.151,0,0,1,.68.165,1.208,1.208,0,0,1,.459.568,2.359,2.359,0,0,1,.173.926.479.479,0,0,1-.044.189.286.286,0,0,1-.109.133l-.906.523c-.081.044-.133.052-.161.024a.5.5,0,0,1-.076-.2,1.434,1.434,0,0,0-.076-.234.455.455,0,0,0-.149-.185.443.443,0,0,0-.25-.064.87.87,0,0,0-.4.141,1.424,1.424,0,0,0-.4.326,2.014,2.014,0,0,0-.262.427,2.179,2.179,0,0,0-.153.483A4.2,4.2,0,0,0,61.77,189.425Z" transform="translate(-52.764 -172.092)" fill="#f0f0f0"/>
        <path id="Trazado_184304" data-name="Trazado 184304" d="M75.717,186.025v1.759a.572.572,0,0,1-.056.238.4.4,0,0,1-.129.161l-.874.5a.109.109,0,0,1-.133,0,.234.234,0,0,1-.056-.173v-1.759l-1.071.62a.1.1,0,0,1-.133,0,.233.233,0,0,1-.056-.173v-1.091a.539.539,0,0,1,.056-.234.354.354,0,0,1,.133-.165l1.071-.62v-1.759a.552.552,0,0,1,.056-.234.342.342,0,0,1,.133-.161l.882-.5a.1.1,0,0,1,.129,0,.23.23,0,0,1,.056.169v1.763l1.067-.616a.1.1,0,0,1,.133,0,.229.229,0,0,1,.056.169V185a.552.552,0,0,1-.056.234.322.322,0,0,1-.133.161Z" transform="translate(-60.35 -170.112)" fill="#f0f0f0"/>
        <path id="Trazado_184305" data-name="Trazado 184305" d="M87.127,179.436v1.759a.568.568,0,0,1-.056.234.342.342,0,0,1-.133.161l-.87.5a.1.1,0,0,1-.133,0,.23.23,0,0,1-.056-.169V180.16l-1.075.62a.093.093,0,0,1-.129,0,.229.229,0,0,1-.056-.169v-1.1a.551.551,0,0,1,.056-.233.338.338,0,0,1,.129-.161l1.075-.62v-1.759a.572.572,0,0,1,.056-.238.362.362,0,0,1,.133-.161l.87-.5a.109.109,0,0,1,.133,0,.234.234,0,0,1,.056.173v1.759l1.067-.616a.1.1,0,0,1,.133,0,.233.233,0,0,1,.052.173V178.4a.536.536,0,0,1-.052.234.346.346,0,0,1-.133.161Z" transform="translate(-67.167 -166.172)" fill="#f0f0f0"/>
      </g>
    </g>
  </g>
</svg>
