<svg xmlns="http://www.w3.org/2000/svg" width="271.391" height="199.539" viewBox="0 0 271.391 199.539">
  <g id="Grupo_986594" data-name="Grupo 986594" transform="translate(-325.656 -5263.984)">
    <path id="Trazado_659725" data-name="Trazado 659725" d="M8.141,11.336H5.07v3.188H3.727V11.336H.656V10.148h3.07V6.984H5.07v3.164h3.07Zm7.391.047H10.859V10.1h4.672Zm8.8,0H19.656V10.1h4.672Zm8.8,0H28.453V10.1h4.672Zm8.8,0H37.25V10.1h4.672Zm8.8,0H46.047V10.1h4.672Zm8.8,0H54.844V10.1h4.672Zm8.8,0H63.641V10.1h4.672Zm8.8,0H72.438V10.1h4.672Zm8.8,0H81.234V10.1h4.672Zm10.2-.047h-3.07v3.188H91.7V11.336h-3.07V10.148H91.7V6.984h1.344v3.164h3.07Zm7.391.047H98.828V10.1H103.5Zm8.8,0h-4.672V10.1H112.3Zm8.8,0h-4.672V10.1h4.672Zm8.8,0h-4.672V10.1h4.672Zm8.8,0h-4.672V10.1h4.672Zm8.8,0h-4.672V10.1h4.672Zm8.8,0h-4.672V10.1h4.672Zm8.8,0h-4.672V10.1h4.672Zm8.8,0H169.2V10.1h4.672Zm8.8,0H178V10.1h4.672Zm8.8,0H186.8V10.1h4.672Zm8.8,0h-4.672V10.1h4.672Zm10.2-.047H207.4v3.188h-1.344V11.336h-3.07V10.148h3.07V6.984H207.4v3.164h3.07Zm7.391.047h-4.672V10.1h4.672Zm8.8,0h-4.672V10.1h4.672Zm8.8,0h-4.672V10.1h4.672Zm8.8,0h-4.672V10.1h4.672Zm8.8,0h-4.672V10.1h4.672Zm8.8,0h-4.672V10.1h4.672Zm10.2-.047h-3.07v3.188h-1.344V11.336h-3.07V10.148h3.07V6.984h1.344v3.164h3.07ZM5.039,42.2H3.758v-16H5.039Zm13.8-11.047h1.211l.055,1.266a5.663,5.663,0,0,1,.664-.676,3.641,3.641,0,0,1,.629-.434,2.355,2.355,0,0,1,.629-.23,3.263,3.263,0,0,1,.664-.066,2.3,2.3,0,0,1,1.832.715,3.207,3.207,0,0,1,.621,2.152V39H23.789V33.992a2.21,2.21,0,0,0-.344-1.363,1.217,1.217,0,0,0-1.023-.441,1.633,1.633,0,0,0-.488.074,1.78,1.78,0,0,0-.5.258,4.1,4.1,0,0,0-.559.5q-.3.312-.676.781V39H18.844Zm15.625,3.859a5.2,5.2,0,0,1-.258,1.676,3.728,3.728,0,0,1-.742,1.3,3.329,3.329,0,0,1-1.18.844,3.939,3.939,0,0,1-1.578.3,4.117,4.117,0,0,1-1.512-.262,2.991,2.991,0,0,1-1.133-.77,3.406,3.406,0,0,1-.711-1.258,5.536,5.536,0,0,1-.246-1.727,5.129,5.129,0,0,1,.258-1.668,3.739,3.739,0,0,1,.742-1.3,3.33,3.33,0,0,1,1.18-.844,3.939,3.939,0,0,1,1.578-.3,4.117,4.117,0,0,1,1.512.262,3.012,3.012,0,0,1,1.133.766,3.368,3.368,0,0,1,.711,1.254A5.508,5.508,0,0,1,34.469,35.016Zm-1.391.063a4.506,4.506,0,0,0-.16-1.27,2.557,2.557,0,0,0-.457-.906,1.885,1.885,0,0,0-.723-.547,2.374,2.374,0,0,0-.949-.184,2.136,2.136,0,0,0-1.043.238,2.065,2.065,0,0,0-.711.637,2.744,2.744,0,0,0-.406.926,4.64,4.64,0,0,0-.129,1.105,4.548,4.548,0,0,0,.16,1.273,2.555,2.555,0,0,0,.457.91,1.892,1.892,0,0,0,.719.547,2.366,2.366,0,0,0,.953.184,2.136,2.136,0,0,0,1.043-.238,2.065,2.065,0,0,0,.711-.637,2.744,2.744,0,0,0,.406-.926A4.674,4.674,0,0,0,33.078,35.078ZM42.031,39V33.367a5.376,5.376,0,0,0-.027-.6,1.371,1.371,0,0,0-.086-.371.4.4,0,0,0-.148-.191.421.421,0,0,0-.223-.055.491.491,0,0,0-.289.094,1.313,1.313,0,0,0-.285.3,4.818,4.818,0,0,0-.336.559q-.184.348-.434.855V39H38.961V33.516q0-.43-.027-.7a1.623,1.623,0,0,0-.086-.414.389.389,0,0,0-.152-.2.442.442,0,0,0-.227-.055.493.493,0,0,0-.266.078,1.13,1.13,0,0,0-.277.281,4.4,4.4,0,0,0-.34.555q-.187.352-.445.9V39h-1.25V31.156H36.93l.063,1.492a7.134,7.134,0,0,1,.395-.758,2.44,2.44,0,0,1,.395-.5,1.346,1.346,0,0,1,.434-.281,1.4,1.4,0,0,1,.512-.09,1.153,1.153,0,0,1,.961.414,2.051,2.051,0,0,1,.328,1.281q.188-.406.367-.723a2.64,2.64,0,0,1,.387-.531,1.484,1.484,0,0,1,.457-.328,1.388,1.388,0,0,1,.578-.113q1.477,0,1.477,2.273V39Zm9.906-4.062a5.264,5.264,0,0,1-.27,1.746,3.68,3.68,0,0,1-.766,1.3,3.292,3.292,0,0,1-1.207.82,4.27,4.27,0,0,1-1.6.285,7.9,7.9,0,0,1-1.422-.133,7.29,7.29,0,0,1-1.437-.422V27.961h1.359V31l-.062,1.453a3.528,3.528,0,0,1,1.254-1.113,3.24,3.24,0,0,1,1.434-.324,2.4,2.4,0,0,1,1.18.281,2.448,2.448,0,0,1,.852.793,3.751,3.751,0,0,1,.516,1.234A6.984,6.984,0,0,1,51.938,34.938ZM50.547,35a6.617,6.617,0,0,0-.09-1.133,2.956,2.956,0,0,0-.285-.883,1.567,1.567,0,0,0-.5-.574,1.262,1.262,0,0,0-.727-.207,1.767,1.767,0,0,0-.523.082,2.123,2.123,0,0,0-.551.273,4.1,4.1,0,0,0-.6.508,8,8,0,0,0-.676.785v3.8a5.3,5.3,0,0,0,.813.246,3.724,3.724,0,0,0,.789.09,2.7,2.7,0,0,0,.895-.148,1.847,1.847,0,0,0,.75-.5,2.482,2.482,0,0,0,.516-.922A4.561,4.561,0,0,0,50.547,35Zm3.8-3.844h1.242l.039,1.445A5.035,5.035,0,0,1,57,31.391a2.784,2.784,0,0,1,1.363-.375,2.222,2.222,0,0,1,1.848.789,3.528,3.528,0,0,1,.582,2.344H59.422a2.567,2.567,0,0,0-.3-1.5,1.084,1.084,0,0,0-.949-.465,1.65,1.65,0,0,0-.551.1,2.225,2.225,0,0,0-.57.313,5.109,5.109,0,0,0-.621.551,10.169,10.169,0,0,0-.7.813V39H54.352Zm15.1,3.508q0,.289-.008.484t-.023.367H63.914a2.441,2.441,0,0,0,.672,1.848,2.69,2.69,0,0,0,1.938.645q.344,0,.688-.027t.664-.074q.32-.047.613-.105t.543-.129v1.117a9.49,9.49,0,0,1-1.254.254,10.47,10.47,0,0,1-1.449.1,4.928,4.928,0,0,1-1.734-.273,2.969,2.969,0,0,1-1.191-.793,3.265,3.265,0,0,1-.687-1.273,6.026,6.026,0,0,1-.223-1.707,5.069,5.069,0,0,1,.238-1.566,3.932,3.932,0,0,1,.7-1.3,3.3,3.3,0,0,1,2.629-1.215,3.827,3.827,0,0,1,1.453.258,2.918,2.918,0,0,1,1.066.73,3.114,3.114,0,0,1,.656,1.148A4.814,4.814,0,0,1,69.453,34.664Zm-1.414-.2a2.963,2.963,0,0,0-.1-.957,2.015,2.015,0,0,0-.387-.746,1.8,1.8,0,0,0-.652-.488,2.189,2.189,0,0,0-.906-.176,1.893,1.893,0,0,0-.812.172,1.853,1.853,0,0,0-.633.484,2.5,2.5,0,0,0-.43.75,3.458,3.458,0,0,0-.2.961ZM93.008,42.2H91.727v-16h1.281Zm20.766-12.977A9.1,9.1,0,0,0,111.93,29q-1.836,0-1.836,1.922V32.3h3.438V33.43h-3.437V39h-1.383V33.43h-2.523V32.3h2.523V31q0-3.133,3.266-3.133a9.671,9.671,0,0,1,1.8.188Zm8.461,5.438q0,.289-.008.484t-.023.367H116.7a2.441,2.441,0,0,0,.672,1.848,2.69,2.69,0,0,0,1.938.645q.344,0,.688-.027t.664-.074q.32-.047.613-.105t.543-.129v1.117a9.49,9.49,0,0,1-1.254.254,10.47,10.47,0,0,1-1.449.1,4.928,4.928,0,0,1-1.734-.273,2.969,2.969,0,0,1-1.191-.793A3.265,3.265,0,0,1,115.5,36.8a6.026,6.026,0,0,1-.223-1.707,5.069,5.069,0,0,1,.238-1.566,3.932,3.932,0,0,1,.7-1.3,3.3,3.3,0,0,1,2.629-1.215,3.827,3.827,0,0,1,1.453.258,2.918,2.918,0,0,1,1.066.73,3.114,3.114,0,0,1,.656,1.148A4.814,4.814,0,0,1,122.234,34.664Zm-1.414-.2a2.963,2.963,0,0,0-.1-.957,2.015,2.015,0,0,0-.387-.746,1.8,1.8,0,0,0-.652-.488,2.189,2.189,0,0,0-.906-.176,1.893,1.893,0,0,0-.812.172,1.853,1.853,0,0,0-.633.484,2.5,2.5,0,0,0-.43.75,3.458,3.458,0,0,0-.2.961Zm9.68,4.242a5.88,5.88,0,0,1-1.09.3,6.68,6.68,0,0,1-1.152.1,3.865,3.865,0,0,1-2.863-1.008,4,4,0,0,1-1-2.945,4.7,4.7,0,0,1,.289-1.687,3.758,3.758,0,0,1,.813-1.3,3.591,3.591,0,0,1,1.25-.832,4.245,4.245,0,0,1,1.6-.293,7.149,7.149,0,0,1,1.141.086,4.724,4.724,0,0,1,1.016.281v1.3a4.31,4.31,0,0,0-1.035-.387,4.854,4.854,0,0,0-1.09-.121,2.482,2.482,0,0,0-.988.2,2.41,2.41,0,0,0-.816.574,2.72,2.72,0,0,0-.555.914,3.437,3.437,0,0,0-.2,1.219,2.933,2.933,0,0,0,.691,2.129,2.559,2.559,0,0,0,1.918.707,4.576,4.576,0,0,0,1.074-.125,4.454,4.454,0,0,0,1-.375Zm9.008.289h-1.359V33.992a2.235,2.235,0,0,0-.34-1.355,1.147,1.147,0,0,0-.973-.449,1.712,1.712,0,0,0-.512.074,1.78,1.78,0,0,0-.5.258,4.263,4.263,0,0,0-.562.5q-.3.312-.7.781V39H133.2V27.961h1.359v3.2l-.047,1.234a5.317,5.317,0,0,1,.629-.645,3.5,3.5,0,0,1,.617-.426,2.461,2.461,0,0,1,.629-.234,3.089,3.089,0,0,1,.664-.07,2.308,2.308,0,0,1,1.813.715,3.14,3.14,0,0,1,.641,2.152Zm7.531,0-.031-1.055a4.251,4.251,0,0,1-1.3.914,3.5,3.5,0,0,1-1.387.281,3.4,3.4,0,0,1-1.148-.172,2.152,2.152,0,0,1-.785-.473,1.832,1.832,0,0,1-.453-.707,2.616,2.616,0,0,1-.145-.883,2.191,2.191,0,0,1,.879-1.848,4.251,4.251,0,0,1,2.6-.668h1.625V33.7a1.455,1.455,0,0,0-.445-1.113,1.927,1.927,0,0,0-1.359-.418,5.812,5.812,0,0,0-1.309.148,9.2,9.2,0,0,0-1.332.422V31.516q.258-.094.574-.184t.668-.16q.352-.07.734-.113a6.928,6.928,0,0,1,.773-.043,4.851,4.851,0,0,1,1.281.156,2.6,2.6,0,0,1,.965.477,2.1,2.1,0,0,1,.605.8,2.84,2.84,0,0,1,.211,1.141V39Zm-.148-3.57h-1.727a3.311,3.311,0,0,0-.875.1,1.661,1.661,0,0,0-.6.289,1.16,1.16,0,0,0-.348.449,1.471,1.471,0,0,0-.113.59,1.339,1.339,0,0,0,.07.434.964.964,0,0,0,.227.367,1.094,1.094,0,0,0,.406.254,1.743,1.743,0,0,0,.609.094,2.576,2.576,0,0,0,1.074-.285,5.249,5.249,0,0,0,1.277-.9ZM207.367,42.2h-1.281v-16h1.281Zm20.43-7.539q0,.289-.008.484t-.023.367h-5.508a2.441,2.441,0,0,0,.672,1.848,2.69,2.69,0,0,0,1.938.645q.344,0,.688-.027t.664-.074q.32-.047.613-.105t.543-.129v1.117a9.49,9.49,0,0,1-1.254.254,10.47,10.47,0,0,1-1.449.1,4.928,4.928,0,0,1-1.734-.273,2.968,2.968,0,0,1-1.191-.793,3.265,3.265,0,0,1-.687-1.273,6.026,6.026,0,0,1-.223-1.707,5.069,5.069,0,0,1,.238-1.566,3.932,3.932,0,0,1,.7-1.3,3.3,3.3,0,0,1,2.629-1.215,3.827,3.827,0,0,1,1.453.258,2.918,2.918,0,0,1,1.066.73,3.114,3.114,0,0,1,.656,1.148A4.814,4.814,0,0,1,227.8,34.664Zm-1.414-.2a2.964,2.964,0,0,0-.1-.957,2.014,2.014,0,0,0-.387-.746,1.8,1.8,0,0,0-.652-.488,2.189,2.189,0,0,0-.906-.176,1.893,1.893,0,0,0-.812.172,1.853,1.853,0,0,0-.633.484,2.5,2.5,0,0,0-.43.75,3.458,3.458,0,0,0-.2.961Zm3.188.773a5.342,5.342,0,0,1,.273-1.777,3.654,3.654,0,0,1,.777-1.312,3.29,3.29,0,0,1,1.211-.812,4.278,4.278,0,0,1,1.574-.277,5.764,5.764,0,0,1,.738.047,4.772,4.772,0,0,1,.715.148v-3.3h1.367V39h-1.219l-.047-1.484a4.11,4.11,0,0,1-1.234,1.227,2.744,2.744,0,0,1-1.437.4,2.33,2.33,0,0,1-2.035-1.074,3.806,3.806,0,0,1-.512-1.23A6.859,6.859,0,0,1,229.57,35.242Zm1.391-.086a4.232,4.232,0,0,0,.418,2.121,1.31,1.31,0,0,0,1.184.7,1.777,1.777,0,0,0,1.09-.461,6.594,6.594,0,0,0,1.207-1.367V32.508a3.305,3.305,0,0,0-.742-.238,4.057,4.057,0,0,0-.8-.082,2.165,2.165,0,0,0-1.73.719A3.39,3.39,0,0,0,230.961,35.156ZM243.8,39l-.031-1.055a4.251,4.251,0,0,1-1.3.914,3.5,3.5,0,0,1-1.387.281,3.4,3.4,0,0,1-1.148-.172,2.152,2.152,0,0,1-.785-.473,1.832,1.832,0,0,1-.453-.707,2.616,2.616,0,0,1-.145-.883,2.191,2.191,0,0,1,.879-1.848,4.251,4.251,0,0,1,2.6-.668h1.625V33.7a1.455,1.455,0,0,0-.445-1.113,1.927,1.927,0,0,0-1.359-.418,5.812,5.812,0,0,0-1.309.148,9.2,9.2,0,0,0-1.332.422V31.516q.258-.094.574-.184t.668-.16q.352-.07.734-.113a6.928,6.928,0,0,1,.773-.043,4.851,4.851,0,0,1,1.281.156,2.6,2.6,0,0,1,.965.477,2.1,2.1,0,0,1,.605.8,2.84,2.84,0,0,1,.211,1.141V39Zm-.148-3.57H241.93a3.311,3.311,0,0,0-.875.1,1.661,1.661,0,0,0-.6.289,1.16,1.16,0,0,0-.348.449,1.471,1.471,0,0,0-.113.59,1.339,1.339,0,0,0,.07.434.964.964,0,0,0,.227.367,1.094,1.094,0,0,0,.406.254,1.743,1.743,0,0,0,.609.094,2.576,2.576,0,0,0,1.074-.285,5.249,5.249,0,0,0,1.277-.9Zm3.508-.187a5.342,5.342,0,0,1,.273-1.777,3.654,3.654,0,0,1,.777-1.312,3.29,3.29,0,0,1,1.211-.812A4.278,4.278,0,0,1,251,31.063a5.764,5.764,0,0,1,.738.047,4.772,4.772,0,0,1,.715.148v-3.3h1.367V39H252.6l-.047-1.484a4.11,4.11,0,0,1-1.234,1.227,2.744,2.744,0,0,1-1.437.4,2.33,2.33,0,0,1-2.035-1.074,3.806,3.806,0,0,1-.512-1.23A6.859,6.859,0,0,1,247.164,35.242Zm1.391-.086a4.232,4.232,0,0,0,.418,2.121,1.31,1.31,0,0,0,1.184.7,1.777,1.777,0,0,0,1.09-.461,6.594,6.594,0,0,0,1.207-1.367V32.508a3.305,3.305,0,0,0-.742-.238,4.057,4.057,0,0,0-.8-.082,2.165,2.165,0,0,0-1.73.719A3.39,3.39,0,0,0,248.555,35.156ZM268.945,42.2h-1.281v-16h1.281ZM8.141,59.336H5.07v3.188H3.727V59.336H.656V58.148h3.07V54.984H5.07v3.164h3.07Zm7.391.047H10.859V58.1h4.672Zm8.8,0H19.656V58.1h4.672Zm8.8,0H28.453V58.1h4.672Zm8.8,0H37.25V58.1h4.672Zm8.8,0H46.047V58.1h4.672Zm8.8,0H54.844V58.1h4.672Zm8.8,0H63.641V58.1h4.672Zm8.8,0H72.438V58.1h4.672Zm8.8,0H81.234V58.1h4.672Zm10.2-.047h-3.07v3.188H91.7V59.336h-3.07V58.148H91.7V54.984h1.344v3.164h3.07Zm7.391.047H98.828V58.1H103.5Zm8.8,0h-4.672V58.1H112.3Zm8.8,0h-4.672V58.1h4.672Zm8.8,0h-4.672V58.1h4.672Zm8.8,0h-4.672V58.1h4.672Zm8.8,0h-4.672V58.1h4.672Zm8.8,0h-4.672V58.1h4.672Zm8.8,0h-4.672V58.1h4.672Zm8.8,0H169.2V58.1h4.672Zm8.8,0H178V58.1h4.672Zm8.8,0H186.8V58.1h4.672Zm8.8,0h-4.672V58.1h4.672Zm10.2-.047H207.4v3.188h-1.344V59.336h-3.07V58.148h3.07V54.984H207.4v3.164h3.07Zm7.391.047h-4.672V58.1h4.672Zm8.8,0h-4.672V58.1h4.672Zm8.8,0h-4.672V58.1h4.672Zm8.8,0h-4.672V58.1h4.672Zm8.8,0h-4.672V58.1h4.672Zm8.8,0h-4.672V58.1h4.672Zm10.2-.047h-3.07v3.188h-1.344V59.336h-3.07V58.148h3.07V54.984h1.344v3.164h3.07ZM5.039,90.2H3.758v-16H5.039ZM24.953,77.977H20.617v3.313h4.109v1.164H20.617V87H19.2V76.789h5.758ZM33.945,87H32.727l-.047-1.266a6.331,6.331,0,0,1-.668.676,3.453,3.453,0,0,1-.629.434,2.422,2.422,0,0,1-.629.23,3.246,3.246,0,0,1-.668.066,2.29,2.29,0,0,1-1.828-.711,3.205,3.205,0,0,1-.617-2.148V79.156H29v5.016q0,1.8,1.359,1.8a1.633,1.633,0,0,0,.488-.074,1.833,1.833,0,0,0,.5-.258,3.956,3.956,0,0,0,.563-.5q.3-.313.676-.789v-5.2h1.359Zm5.164-9.922h-2.32V75.961h3.7v9.906H42.82V87H36.531V85.867h2.578ZM50.273,87l-.031-1.055a4.252,4.252,0,0,1-1.3.914,3.5,3.5,0,0,1-1.387.281,3.4,3.4,0,0,1-1.148-.172,2.152,2.152,0,0,1-.785-.473,1.832,1.832,0,0,1-.453-.707,2.616,2.616,0,0,1-.145-.883,2.191,2.191,0,0,1,.879-1.848,4.251,4.251,0,0,1,2.6-.668h1.625V81.7a1.455,1.455,0,0,0-.445-1.113,1.927,1.927,0,0,0-1.359-.418,5.812,5.812,0,0,0-1.309.148,9.2,9.2,0,0,0-1.332.422V79.516q.258-.094.574-.184t.668-.16q.352-.07.734-.113a6.928,6.928,0,0,1,.773-.043,4.851,4.851,0,0,1,1.281.156,2.6,2.6,0,0,1,.965.477,2.1,2.1,0,0,1,.605.8,2.84,2.84,0,0,1,.211,1.141V87Zm-.148-3.57H48.4a3.31,3.31,0,0,0-.875.1,1.661,1.661,0,0,0-.6.289,1.16,1.16,0,0,0-.348.449,1.471,1.471,0,0,0-.113.59,1.339,1.339,0,0,0,.07.434.964.964,0,0,0,.227.367,1.094,1.094,0,0,0,.406.254,1.743,1.743,0,0,0,.609.094,2.576,2.576,0,0,0,1.074-.285,5.248,5.248,0,0,0,1.277-.9Zm3.906-4.273h1.211l.055,1.266a5.663,5.663,0,0,1,.664-.676,3.641,3.641,0,0,1,.629-.434,2.355,2.355,0,0,1,.629-.23,3.263,3.263,0,0,1,.664-.066,2.3,2.3,0,0,1,1.832.715,3.207,3.207,0,0,1,.621,2.152V87H58.977V81.992a2.21,2.21,0,0,0-.344-1.363,1.217,1.217,0,0,0-1.023-.441,1.633,1.633,0,0,0-.488.074,1.78,1.78,0,0,0-.5.258,4.1,4.1,0,0,0-.559.5q-.3.313-.676.781V87H54.031Zm15.625,3.859a5.2,5.2,0,0,1-.258,1.676,3.728,3.728,0,0,1-.742,1.3,3.33,3.33,0,0,1-1.18.844,3.939,3.939,0,0,1-1.578.3,4.117,4.117,0,0,1-1.512-.262,2.991,2.991,0,0,1-1.133-.77,3.406,3.406,0,0,1-.711-1.258,5.536,5.536,0,0,1-.246-1.727,5.129,5.129,0,0,1,.258-1.668,3.739,3.739,0,0,1,.742-1.3,3.33,3.33,0,0,1,1.18-.844,3.939,3.939,0,0,1,1.578-.3,4.117,4.117,0,0,1,1.512.262,3.012,3.012,0,0,1,1.133.766A3.368,3.368,0,0,1,69.41,81.3,5.508,5.508,0,0,1,69.656,83.016Zm-1.391.063a4.506,4.506,0,0,0-.16-1.27,2.557,2.557,0,0,0-.457-.906,1.885,1.885,0,0,0-.723-.547,2.373,2.373,0,0,0-.949-.184,2.136,2.136,0,0,0-1.043.238,2.065,2.065,0,0,0-.711.637,2.744,2.744,0,0,0-.406.926,4.64,4.64,0,0,0-.129,1.105,4.548,4.548,0,0,0,.16,1.273,2.555,2.555,0,0,0,.457.91,1.892,1.892,0,0,0,.719.547,2.366,2.366,0,0,0,.953.184,2.136,2.136,0,0,0,1.043-.238,2.065,2.065,0,0,0,.711-.637,2.744,2.744,0,0,0,.406-.926A4.674,4.674,0,0,0,68.266,83.078ZM93.008,90.2H91.727v-16h1.281ZM113.352,87h-6.414V85.734h2.625V78.281l-2.445,1.328-.5-1.156,3.25-1.711h1.2v8.992h2.281Zm8.828-5.68a8.125,8.125,0,0,1-.359,2.566,4.372,4.372,0,0,1-1.062,1.766,4.274,4.274,0,0,1-1.742,1.02,7.972,7.972,0,0,1-2.4.328h-.852V85.813h.945a6.587,6.587,0,0,0,1.742-.2,3.334,3.334,0,0,0,1.223-.6,2.61,2.61,0,0,0,.746-.961,3.912,3.912,0,0,0,.32-1.293l.031-.32a4.665,4.665,0,0,1-1.133.465,5.241,5.241,0,0,1-1.391.176,3.755,3.755,0,0,1-1.359-.227,2.556,2.556,0,0,1-1.555-1.6,3.657,3.657,0,0,1-.2-1.215,3.411,3.411,0,0,1,.258-1.328,3.241,3.241,0,0,1,.723-1.074,3.413,3.413,0,0,1,1.113-.723,3.737,3.737,0,0,1,1.43-.266,3.845,3.845,0,0,1,1.4.25,2.725,2.725,0,0,1,1.113.809,4.01,4.01,0,0,1,.734,1.449A7.651,7.651,0,0,1,122.18,81.32ZM118.6,77.766a2.209,2.209,0,0,0-.809.145,1.785,1.785,0,0,0-.641.422,1.992,1.992,0,0,0-.426.684,2.577,2.577,0,0,0-.156.93,2.944,2.944,0,0,0,.113.852,1.63,1.63,0,0,0,.352.637,1.547,1.547,0,0,0,.613.4,2.537,2.537,0,0,0,.891.141,3.423,3.423,0,0,0,.6-.055,4.646,4.646,0,0,0,1.16-.367,3.7,3.7,0,0,0,.477-.266,8.019,8.019,0,0,0-.148-1.684,3.088,3.088,0,0,0-.43-1.086,1.581,1.581,0,0,0-.684-.582A2.3,2.3,0,0,0,118.6,77.766Zm12.375.289L126.7,87h-1.555l4.445-8.945H124.07V76.789h6.906Zm9.359,6.688h-1.742V87H137.2V84.742h-4.914v-1.2l4.352-6.758h1.953v6.758h1.742ZM137.2,78.1l-3.555,5.445H137.2Zm10.281,5.281h-4.672V82.1h4.672ZM157.656,81.9a9.056,9.056,0,0,1-.234,2.137,4.948,4.948,0,0,1-.711,1.656,3.343,3.343,0,0,1-1.184,1.07,3.464,3.464,0,0,1-1.66.379,3.533,3.533,0,0,1-1.492-.309,2.964,2.964,0,0,1-1.148-.949,4.687,4.687,0,0,1-.734-1.633,9.433,9.433,0,0,1-.258-2.352,8.963,8.963,0,0,1,.238-2.141,5.054,5.054,0,0,1,.711-1.66,3.3,3.3,0,0,1,1.184-1.07,3.47,3.47,0,0,1,1.656-.379,3.533,3.533,0,0,1,1.492.309,2.952,2.952,0,0,1,1.148.953,4.73,4.73,0,0,1,.734,1.637A9.433,9.433,0,0,1,157.656,81.9Zm-1.375.047q0-.266-.02-.527t-.043-.512l-4.32,3.211a4.018,4.018,0,0,0,.3.75,2.292,2.292,0,0,0,.434.59,1.865,1.865,0,0,0,.578.383,1.885,1.885,0,0,0,.738.137,1.852,1.852,0,0,0,.965-.258,2.153,2.153,0,0,0,.738-.766,4.173,4.173,0,0,0,.469-1.262A8.275,8.275,0,0,0,156.281,81.945Zm-4.672-.094q0,.242,0,.484t.027.469l4.32-3.2a3.655,3.655,0,0,0-.3-.727,2.3,2.3,0,0,0-.43-.566,1.914,1.914,0,0,0-2.254-.246,2.145,2.145,0,0,0-.738.77,4.226,4.226,0,0,0-.469,1.266A8.275,8.275,0,0,0,151.609,81.852Zm15.117,2.891h-1.742V87h-1.391V84.742H158.68v-1.2l4.352-6.758h1.953v6.758h1.742ZM163.594,78.1l-3.555,5.445h3.555Zm10.281,5.281H169.2V82.1h4.672ZM183.727,87h-6.414V85.734h2.625V78.281l-2.445,1.328-.5-1.156,3.25-1.711h1.2v8.992h2.281Zm8.883,0h-6.727V85.781l2.641-2.625q.648-.641,1.055-1.109a5.891,5.891,0,0,0,.633-.855,2.605,2.605,0,0,0,.3-.73,3.346,3.346,0,0,0,.078-.742,2.484,2.484,0,0,0-.1-.715,1.7,1.7,0,0,0-.312-.6,1.449,1.449,0,0,0-.547-.406,1.982,1.982,0,0,0-.8-.148,2.428,2.428,0,0,0-1.18.289,4.041,4.041,0,0,0-.977.75l-.75-.9a4.6,4.6,0,0,1,1.332-.977,3.961,3.961,0,0,1,1.754-.367,3.6,3.6,0,0,1,1.238.2,2.767,2.767,0,0,1,.965.586,2.6,2.6,0,0,1,.629.938,3.331,3.331,0,0,1,.223,1.25,3.624,3.624,0,0,1-.156,1.086,4.167,4.167,0,0,1-.473,1,7.814,7.814,0,0,1-.8,1.027q-.48.531-1.137,1.164l-1.852,1.8h4.961Zm14.758,3.2h-1.281v-16h1.281ZM245.391,87h-6.727V85.781l2.641-2.625q.648-.641,1.055-1.109a5.891,5.891,0,0,0,.633-.855,2.605,2.605,0,0,0,.3-.73,3.346,3.346,0,0,0,.078-.742,2.484,2.484,0,0,0-.1-.715,1.7,1.7,0,0,0-.312-.6,1.449,1.449,0,0,0-.547-.406,1.982,1.982,0,0,0-.8-.148,2.428,2.428,0,0,0-1.18.289,4.041,4.041,0,0,0-.977.75l-.75-.9a4.6,4.6,0,0,1,1.332-.977,3.961,3.961,0,0,1,1.754-.367,3.6,3.6,0,0,1,1.238.2,2.767,2.767,0,0,1,.965.586,2.6,2.6,0,0,1,.629.938,3.331,3.331,0,0,1,.223,1.25,3.624,3.624,0,0,1-.156,1.086,4.167,4.167,0,0,1-.473,1,7.814,7.814,0,0,1-.8,1.027q-.48.531-1.137,1.164l-1.852,1.8h4.961Zm8.8-2.562a2.368,2.368,0,0,1-1.008,2,3.5,3.5,0,0,1-1.125.523,5.735,5.735,0,0,1-2.879-.008,3.163,3.163,0,0,1-1.066-.523,2.206,2.206,0,0,1-.648-.8,2.339,2.339,0,0,1-.219-1.016A2.573,2.573,0,0,1,247.766,83a4.663,4.663,0,0,1,1.617-1.234,4.081,4.081,0,0,1-1.461-1.129,2.361,2.361,0,0,1,.355-3.2,3.071,3.071,0,0,1,1.027-.574,4.425,4.425,0,0,1,1.453-.215,5.146,5.146,0,0,1,1.387.168,2.927,2.927,0,0,1,1,.48,1.988,1.988,0,0,1,.609.758,2.548,2.548,0,0,1-.293,2.508,4.224,4.224,0,0,1-1.41,1.094,6.671,6.671,0,0,1,.844.5,3.657,3.657,0,0,1,.68.609,2.476,2.476,0,0,1,.609,1.672Zm-1.617-5.281a1.176,1.176,0,0,0-.488-1.035,2.935,2.935,0,0,0-2.734,0,1.142,1.142,0,0,0-.488,1.008,1.343,1.343,0,0,0,.117.563,1.516,1.516,0,0,0,.363.484,3.7,3.7,0,0,0,.613.445,8.452,8.452,0,0,0,.875.445,4.41,4.41,0,0,0,1.313-.863A1.463,1.463,0,0,0,252.57,79.156Zm.141,5.383a1.723,1.723,0,0,0-.094-.562,1.562,1.562,0,0,0-.336-.539,3.373,3.373,0,0,0-.648-.531,7.636,7.636,0,0,0-1.031-.547,6.612,6.612,0,0,0-.895.512,3.084,3.084,0,0,0-.586.516,1.642,1.642,0,0,0-.316.543,1.865,1.865,0,0,0-.094.594,1.24,1.24,0,0,0,.152.621,1.4,1.4,0,0,0,.418.457,1.9,1.9,0,0,0,.633.281,3.215,3.215,0,0,0,.8.094,3.421,3.421,0,0,0,.781-.086,1.983,1.983,0,0,0,.637-.262,1.312,1.312,0,0,0,.426-.445A1.264,1.264,0,0,0,252.711,84.539ZM268.945,90.2h-1.281v-16h1.281ZM5.039,114.2H3.758v-16H5.039ZM26.008,111H24.648l-.2-6.367-.086-2.445-.477,1.422-1.508,4.063h-.961l-1.437-3.906-.477-1.578-.031,2.555L19.289,111H17.977l.5-10.211h1.648l1.375,3.844.445,1.3.43-1.3,1.445-3.844h1.7Zm8.258-4.336q0,.289-.008.484t-.023.367H28.727a2.441,2.441,0,0,0,.672,1.848,2.69,2.69,0,0,0,1.938.645q.344,0,.688-.027t.664-.074q.32-.047.613-.105t.543-.129v1.117a9.49,9.49,0,0,1-1.254.254,10.471,10.471,0,0,1-1.449.1,4.928,4.928,0,0,1-1.734-.273,2.969,2.969,0,0,1-1.191-.793,3.265,3.265,0,0,1-.687-1.273,6.026,6.026,0,0,1-.223-1.707,5.069,5.069,0,0,1,.238-1.566,3.932,3.932,0,0,1,.7-1.3,3.3,3.3,0,0,1,2.629-1.215,3.827,3.827,0,0,1,1.453.258,2.918,2.918,0,0,1,1.066.73,3.114,3.114,0,0,1,.656,1.148A4.815,4.815,0,0,1,34.266,106.664Zm-1.414-.2a2.963,2.963,0,0,0-.1-.957,2.014,2.014,0,0,0-.387-.746,1.8,1.8,0,0,0-.652-.488,2.189,2.189,0,0,0-.906-.176,1.893,1.893,0,0,0-.812.172,1.853,1.853,0,0,0-.633.484,2.5,2.5,0,0,0-.43.75,3.458,3.458,0,0,0-.2.961Zm3.586-3.312h1.211l.055,1.266a5.663,5.663,0,0,1,.664-.676,3.641,3.641,0,0,1,.629-.434,2.355,2.355,0,0,1,.629-.23,3.263,3.263,0,0,1,.664-.066,2.3,2.3,0,0,1,1.832.715,3.207,3.207,0,0,1,.621,2.152V111H41.383v-5.008a2.21,2.21,0,0,0-.344-1.363,1.217,1.217,0,0,0-1.023-.441,1.633,1.633,0,0,0-.488.074,1.78,1.78,0,0,0-.5.258,4.1,4.1,0,0,0-.559.5q-.3.313-.676.781V111H36.438Zm14.445,1.109a2.043,2.043,0,0,1,.34.637,2.468,2.468,0,0,1,.121.785,2.724,2.724,0,0,1-.223,1.113,2.472,2.472,0,0,1-.629.863,2.9,2.9,0,0,1-.973.559,3.733,3.733,0,0,1-1.246.2,3.859,3.859,0,0,1-.922-.105,2.359,2.359,0,0,1-.68-.262,4.17,4.17,0,0,0-.25.414.934.934,0,0,0-.1.438.58.58,0,0,0,.285.492,1.4,1.4,0,0,0,.754.211l2.063.078a4.659,4.659,0,0,1,1.082.148,2.665,2.665,0,0,1,.852.383,1.794,1.794,0,0,1,.555.617,1.758,1.758,0,0,1,.2.852,2.212,2.212,0,0,1-.926,1.816,3.693,3.693,0,0,1-1.2.566,6.237,6.237,0,0,1-1.727.211,7.4,7.4,0,0,1-1.621-.152,3.552,3.552,0,0,1-1.1-.422,1.7,1.7,0,0,1-.625-.641,1.726,1.726,0,0,1-.2-.816,1.863,1.863,0,0,1,.266-1,3,3,0,0,1,.82-.828,1.289,1.289,0,0,1-.594-.543,1.445,1.445,0,0,1-.141-.355,1.511,1.511,0,0,1-.047-.367,1.858,1.858,0,0,1,.238-.93,4.773,4.773,0,0,1,.566-.8,4.079,4.079,0,0,1-.262-.352,2.156,2.156,0,0,1-.32-.8,2.9,2.9,0,0,1-.043-.527,2.724,2.724,0,0,1,.223-1.113,2.5,2.5,0,0,1,.625-.863,2.858,2.858,0,0,1,.969-.559,3.758,3.758,0,0,1,1.254-.2,3.811,3.811,0,0,1,.555.039,3.176,3.176,0,0,1,.469.1h2.844v1.109Zm-4.719,7.867a.845.845,0,0,0,.578.809,4.106,4.106,0,0,0,1.609.254,4.317,4.317,0,0,0,1.09-.117,2.2,2.2,0,0,0,.711-.309,1.123,1.123,0,0,0,.5-.941.757.757,0,0,0-.391-.7,2.723,2.723,0,0,0-1.2-.266l-2.047-.07a2.962,2.962,0,0,0-.426.336,1.476,1.476,0,0,0-.262.332,1.288,1.288,0,0,0-.133.336A1.5,1.5,0,0,0,46.164,112.133Zm.414-6.414a1.835,1.835,0,0,0,.125.688,1.5,1.5,0,0,0,.352.531,1.605,1.605,0,0,0,.535.34,1.857,1.857,0,0,0,.684.121,1.806,1.806,0,0,0,.723-.137,1.536,1.536,0,0,0,.531-.371,1.63,1.63,0,0,0,.328-.539,1.8,1.8,0,0,0,.113-.633,1.835,1.835,0,0,0-.125-.687,1.5,1.5,0,0,0-.352-.531,1.605,1.605,0,0,0-.535-.34,1.857,1.857,0,0,0-.684-.121,1.763,1.763,0,0,0-.723.141,1.608,1.608,0,0,0-.531.371,1.587,1.587,0,0,0-.328.535A1.8,1.8,0,0,0,46.578,105.719ZM59.07,111l-.031-1.055a4.252,4.252,0,0,1-1.3.914,3.5,3.5,0,0,1-1.387.281,3.4,3.4,0,0,1-1.148-.172,2.152,2.152,0,0,1-.785-.473,1.832,1.832,0,0,1-.453-.707,2.616,2.616,0,0,1-.145-.883,2.191,2.191,0,0,1,.879-1.848,4.251,4.251,0,0,1,2.6-.668h1.625V105.7a1.455,1.455,0,0,0-.445-1.113,1.927,1.927,0,0,0-1.359-.418,5.812,5.812,0,0,0-1.309.148,9.2,9.2,0,0,0-1.332.422v-1.227q.258-.094.574-.184t.668-.16q.352-.07.734-.113a6.928,6.928,0,0,1,.773-.043,4.851,4.851,0,0,1,1.281.156,2.6,2.6,0,0,1,.965.477,2.1,2.1,0,0,1,.605.8,2.84,2.84,0,0,1,.211,1.141V111Zm-.148-3.57H57.2a3.31,3.31,0,0,0-.875.1,1.661,1.661,0,0,0-.6.289,1.16,1.16,0,0,0-.348.449,1.471,1.471,0,0,0-.113.59,1.339,1.339,0,0,0,.07.434.964.964,0,0,0,.227.367,1.094,1.094,0,0,0,.406.254,1.743,1.743,0,0,0,.609.094,2.576,2.576,0,0,0,1.074-.285,5.248,5.248,0,0,0,1.277-.9Zm3.906-4.273h1.211l.055,1.266a5.663,5.663,0,0,1,.664-.676,3.641,3.641,0,0,1,.629-.434,2.355,2.355,0,0,1,.629-.23,3.263,3.263,0,0,1,.664-.066,2.3,2.3,0,0,1,1.832.715,3.207,3.207,0,0,1,.621,2.152V111H67.773v-5.008a2.21,2.21,0,0,0-.344-1.363,1.217,1.217,0,0,0-1.023-.441,1.633,1.633,0,0,0-.488.074,1.78,1.78,0,0,0-.5.258,4.1,4.1,0,0,0-.559.5q-.3.313-.676.781V111H62.828Zm15.625,3.859a5.2,5.2,0,0,1-.258,1.676,3.728,3.728,0,0,1-.742,1.3,3.33,3.33,0,0,1-1.18.844,3.939,3.939,0,0,1-1.578.3,4.117,4.117,0,0,1-1.512-.262,2.991,2.991,0,0,1-1.133-.77,3.406,3.406,0,0,1-.711-1.258,5.536,5.536,0,0,1-.246-1.727,5.129,5.129,0,0,1,.258-1.668,3.739,3.739,0,0,1,.742-1.3,3.33,3.33,0,0,1,1.18-.844,3.939,3.939,0,0,1,1.578-.3,4.117,4.117,0,0,1,1.512.262,3.012,3.012,0,0,1,1.133.766,3.368,3.368,0,0,1,.711,1.254A5.508,5.508,0,0,1,78.453,107.016Zm-1.391.063a4.506,4.506,0,0,0-.16-1.27,2.557,2.557,0,0,0-.457-.906,1.885,1.885,0,0,0-.723-.547,2.373,2.373,0,0,0-.949-.184,2.136,2.136,0,0,0-1.043.238,2.065,2.065,0,0,0-.711.637,2.744,2.744,0,0,0-.406.926,4.64,4.64,0,0,0-.129,1.105,4.548,4.548,0,0,0,.16,1.273,2.555,2.555,0,0,0,.457.91,1.892,1.892,0,0,0,.719.547,2.366,2.366,0,0,0,.953.184,2.136,2.136,0,0,0,1.043-.238,2.065,2.065,0,0,0,.711-.637,2.744,2.744,0,0,0,.406-.926A4.674,4.674,0,0,0,77.063,107.078ZM93.008,114.2H91.727v-16h1.281Zm20.344-3.2h-6.414v-1.266h2.625v-7.453l-2.445,1.328-.5-1.156,3.25-1.711h1.2v8.992h2.281Zm8.828-5.68a8.125,8.125,0,0,1-.359,2.566,4.372,4.372,0,0,1-1.062,1.766,4.274,4.274,0,0,1-1.742,1.02,7.972,7.972,0,0,1-2.4.328h-.852v-1.187h.945a6.587,6.587,0,0,0,1.742-.2,3.334,3.334,0,0,0,1.223-.6,2.61,2.61,0,0,0,.746-.961,3.912,3.912,0,0,0,.32-1.293l.031-.32a4.665,4.665,0,0,1-1.133.465,5.241,5.241,0,0,1-1.391.176,3.755,3.755,0,0,1-1.359-.227,2.556,2.556,0,0,1-1.555-1.6,3.657,3.657,0,0,1-.2-1.215,3.411,3.411,0,0,1,.258-1.328,3.241,3.241,0,0,1,.723-1.074,3.413,3.413,0,0,1,1.113-.723,3.737,3.737,0,0,1,1.43-.266,3.845,3.845,0,0,1,1.4.25,2.725,2.725,0,0,1,1.113.809,4.01,4.01,0,0,1,.734,1.449A7.651,7.651,0,0,1,122.18,105.32Zm-3.578-3.555a2.209,2.209,0,0,0-.809.145,1.785,1.785,0,0,0-.641.422,1.992,1.992,0,0,0-.426.684,2.577,2.577,0,0,0-.156.93,2.944,2.944,0,0,0,.113.852,1.63,1.63,0,0,0,.352.637,1.547,1.547,0,0,0,.613.4,2.537,2.537,0,0,0,.891.141,3.423,3.423,0,0,0,.6-.055,4.646,4.646,0,0,0,1.16-.367,3.7,3.7,0,0,0,.477-.266,8.019,8.019,0,0,0-.148-1.684,3.088,3.088,0,0,0-.43-1.086,1.581,1.581,0,0,0-.684-.582A2.3,2.3,0,0,0,118.6,101.766Zm12.375.289L126.7,111h-1.555l4.445-8.945H124.07v-1.266h6.906Zm8.852,6.383a2.368,2.368,0,0,1-1.008,2,3.5,3.5,0,0,1-1.125.523,5.735,5.735,0,0,1-2.879-.008,3.163,3.163,0,0,1-1.066-.523,2.206,2.206,0,0,1-.648-.8,2.339,2.339,0,0,1-.219-1.016,2.573,2.573,0,0,1,.523-1.617,4.663,4.663,0,0,1,1.617-1.234,4.081,4.081,0,0,1-1.461-1.129,2.361,2.361,0,0,1,.355-3.2,3.071,3.071,0,0,1,1.027-.574,4.425,4.425,0,0,1,1.453-.215,5.146,5.146,0,0,1,1.387.168,2.927,2.927,0,0,1,1,.48,1.988,1.988,0,0,1,.609.758,2.548,2.548,0,0,1-.293,2.508,4.224,4.224,0,0,1-1.41,1.094,6.671,6.671,0,0,1,.844.5,3.657,3.657,0,0,1,.68.609,2.476,2.476,0,0,1,.609,1.672Zm-1.617-5.281a1.176,1.176,0,0,0-.488-1.035,2.935,2.935,0,0,0-2.734,0,1.142,1.142,0,0,0-.488,1.008,1.343,1.343,0,0,0,.117.563,1.516,1.516,0,0,0,.363.484,3.7,3.7,0,0,0,.613.445,8.452,8.452,0,0,0,.875.445,4.41,4.41,0,0,0,1.313-.863A1.463,1.463,0,0,0,138.211,103.156Zm.141,5.383a1.723,1.723,0,0,0-.094-.562,1.562,1.562,0,0,0-.336-.539,3.373,3.373,0,0,0-.648-.531,7.636,7.636,0,0,0-1.031-.547,6.612,6.612,0,0,0-.895.512,3.084,3.084,0,0,0-.586.516,1.642,1.642,0,0,0-.316.543,1.865,1.865,0,0,0-.094.594,1.24,1.24,0,0,0,.152.621,1.4,1.4,0,0,0,.418.457,1.9,1.9,0,0,0,.633.281,3.215,3.215,0,0,0,.8.094,3.421,3.421,0,0,0,.781-.086,1.983,1.983,0,0,0,.637-.262,1.312,1.312,0,0,0,.426-.445A1.264,1.264,0,0,0,138.352,108.539Zm9.133-1.156h-4.672V106.1h4.672Zm10.172-1.484a9.056,9.056,0,0,1-.234,2.137,4.948,4.948,0,0,1-.711,1.656,3.343,3.343,0,0,1-1.184,1.07,3.464,3.464,0,0,1-1.66.379,3.533,3.533,0,0,1-1.492-.309,2.964,2.964,0,0,1-1.148-.949,4.687,4.687,0,0,1-.734-1.633,9.433,9.433,0,0,1-.258-2.352,8.963,8.963,0,0,1,.238-2.141,5.054,5.054,0,0,1,.711-1.66,3.3,3.3,0,0,1,1.184-1.07,3.47,3.47,0,0,1,1.656-.379,3.533,3.533,0,0,1,1.492.309,2.952,2.952,0,0,1,1.148.953,4.73,4.73,0,0,1,.734,1.637A9.433,9.433,0,0,1,157.656,105.9Zm-1.375.047q0-.266-.02-.527t-.043-.512l-4.32,3.211a4.018,4.018,0,0,0,.3.75,2.292,2.292,0,0,0,.434.59,1.865,1.865,0,0,0,.578.383,1.885,1.885,0,0,0,.738.137,1.852,1.852,0,0,0,.965-.258,2.153,2.153,0,0,0,.738-.766,4.173,4.173,0,0,0,.469-1.262A8.275,8.275,0,0,0,156.281,105.945Zm-4.672-.094q0,.242,0,.484t.027.469l4.32-3.2a3.655,3.655,0,0,0-.3-.727,2.3,2.3,0,0,0-.43-.566,1.914,1.914,0,0,0-2.254-.246,2.145,2.145,0,0,0-.738.77,4.226,4.226,0,0,0-.469,1.266A8.275,8.275,0,0,0,151.609,105.852Zm14.734,1.914a3.436,3.436,0,0,1-.254,1.32,3.164,3.164,0,0,1-.723,1.074,3.379,3.379,0,0,1-1.129.719,3.943,3.943,0,0,1-1.465.262,3.862,3.862,0,0,1-1.492-.27,2.651,2.651,0,0,1-1.086-.828,3.876,3.876,0,0,1-.664-1.41,7.9,7.9,0,0,1-.227-2.016,11.056,11.056,0,0,1,.1-1.516,6.8,6.8,0,0,1,.336-1.383,4.782,4.782,0,0,1,.625-1.187,3.751,3.751,0,0,1,.973-.926,4.682,4.682,0,0,1,1.371-.6,6.989,6.989,0,0,1,1.828-.215h1.008v1.188h-1.094a5.14,5.14,0,0,0-1.586.219,3.161,3.161,0,0,0-1.125.617,2.667,2.667,0,0,0-.7.961,4.089,4.089,0,0,0-.3,1.258l-.031.32a4.653,4.653,0,0,1,1.137-.465,5.285,5.285,0,0,1,1.395-.176,3.724,3.724,0,0,1,1.355.227,2.658,2.658,0,0,1,.969.629,2.6,2.6,0,0,1,.582.965A3.741,3.741,0,0,1,166.344,107.766Zm-1.422.086a2.955,2.955,0,0,0-.113-.848,1.6,1.6,0,0,0-.355-.641,1.622,1.622,0,0,0-.613-.406,2.443,2.443,0,0,0-.887-.145,3.4,3.4,0,0,0-.6.055,4.277,4.277,0,0,0-.6.152,5.092,5.092,0,0,0-.559.223,4.212,4.212,0,0,0-.484.266,8.452,8.452,0,0,0,.141,1.684,3,3,0,0,0,.418,1.082,1.56,1.56,0,0,0,.684.578,2.389,2.389,0,0,0,.938.172,2.231,2.231,0,0,0,.816-.145,1.761,1.761,0,0,0,.641-.426,2,2,0,0,0,.422-.684A2.58,2.58,0,0,0,164.922,107.852Zm8.953-.469H169.2V106.1h4.672ZM183.727,111h-6.414v-1.266h2.625v-7.453l-2.445,1.328-.5-1.156,3.25-1.711h1.2v8.992h2.281Zm8.625-3.266a2.929,2.929,0,0,1-.328,1.383,3.3,3.3,0,0,1-.9,1.074,4.307,4.307,0,0,1-1.355.7,5.508,5.508,0,0,1-1.687.25q-.227,0-.488-.012t-.52-.031q-.258-.02-.5-.043t-.441-.055v-1.234a6.563,6.563,0,0,0,.965.148q.543.047,1.1.047a3.95,3.95,0,0,0,1.125-.148,2.514,2.514,0,0,0,.852-.426,1.868,1.868,0,0,0,.539-.672,2.04,2.04,0,0,0,.188-.887,1.52,1.52,0,0,0-.684-1.387,3.683,3.683,0,0,0-1.965-.434H186.3v-5.219h5.5v1.188h-4.219v2.867h.891a7.6,7.6,0,0,1,1.43.133,3.671,3.671,0,0,1,1.238.465,2.559,2.559,0,0,1,.875.891A2.707,2.707,0,0,1,192.352,107.734Zm15.016,6.469h-1.281v-16h1.281Zm37.828-6.3a2.963,2.963,0,0,1-.273,1.262,2.871,2.871,0,0,1-.82,1.031,4.059,4.059,0,0,1-1.375.7,6.6,6.6,0,0,1-1.93.254q-.609,0-1.094-.039t-.906-.1v-1.219q.484.086,1.023.133t1.1.047a5.426,5.426,0,0,0,1.309-.137,2.47,2.47,0,0,0,.887-.395,1.518,1.518,0,0,0,.5-.625,2.1,2.1,0,0,0,.156-.828,1.4,1.4,0,0,0-.187-.734,1.56,1.56,0,0,0-.527-.523,2.607,2.607,0,0,0-.812-.316,4.755,4.755,0,0,0-1.035-.105h-1.164V105.18h1.18a2.749,2.749,0,0,0,.84-.121,1.888,1.888,0,0,0,.648-.348,1.5,1.5,0,0,0,.414-.559,1.872,1.872,0,0,0,.145-.754,1.4,1.4,0,0,0-.5-1.2,2.425,2.425,0,0,0-1.469-.375,5.815,5.815,0,0,0-1.062.1,9.317,9.317,0,0,0-1.172.3v-1.187q.266-.094.566-.168t.6-.125q.3-.051.6-.078t.57-.027a5.238,5.238,0,0,1,1.43.176,2.935,2.935,0,0,1,1.031.5,2.11,2.11,0,0,1,.625.8,2.543,2.543,0,0,1,.211,1.055,2.364,2.364,0,0,1-.449,1.469,3.1,3.1,0,0,1-1.23.945,2.782,2.782,0,0,1,.785.25,2.739,2.739,0,0,1,.7.48,2.341,2.341,0,0,1,.5.691A2.012,2.012,0,0,1,245.2,107.9Zm9.227-2a9.056,9.056,0,0,1-.234,2.137,4.948,4.948,0,0,1-.711,1.656,3.343,3.343,0,0,1-1.184,1.07,3.464,3.464,0,0,1-1.66.379,3.533,3.533,0,0,1-1.492-.309,2.964,2.964,0,0,1-1.148-.949,4.687,4.687,0,0,1-.734-1.633A9.433,9.433,0,0,1,247,105.9a8.963,8.963,0,0,1,.238-2.141,5.054,5.054,0,0,1,.711-1.66,3.3,3.3,0,0,1,1.184-1.07,3.47,3.47,0,0,1,1.656-.379,3.533,3.533,0,0,1,1.492.309,2.952,2.952,0,0,1,1.148.953,4.73,4.73,0,0,1,.734,1.637A9.433,9.433,0,0,1,254.422,105.9Zm-1.375.047q0-.266-.02-.527t-.043-.512l-4.32,3.211a4.018,4.018,0,0,0,.3.75,2.292,2.292,0,0,0,.434.59,1.865,1.865,0,0,0,.578.383,1.885,1.885,0,0,0,.738.137,1.852,1.852,0,0,0,.965-.258,2.153,2.153,0,0,0,.738-.766,4.173,4.173,0,0,0,.469-1.262A8.275,8.275,0,0,0,253.047,105.945Zm-4.672-.094q0,.242,0,.484t.027.469l4.32-3.2a3.655,3.655,0,0,0-.3-.727,2.3,2.3,0,0,0-.43-.566,1.914,1.914,0,0,0-2.254-.246,2.145,2.145,0,0,0-.738.77,4.226,4.226,0,0,0-.469,1.266A8.275,8.275,0,0,0,248.375,105.852Zm20.57,8.352h-1.281v-16h1.281ZM5.039,138.2H3.758v-16H5.039Zm20.492-10.289a3.445,3.445,0,0,1-.234,1.238,3.063,3.063,0,0,1-.727,1.1,3.688,3.688,0,0,1-1.258.785,5,5,0,0,1-1.828.3H20.219V135H18.828V124.789H21.7a6.168,6.168,0,0,1,1.453.168,3.507,3.507,0,0,1,1.223.543,2.727,2.727,0,0,1,.84.969A3.071,3.071,0,0,1,25.531,127.914Zm-1.445.063a1.83,1.83,0,0,0-.645-1.508,2.783,2.783,0,0,0-1.8-.523H20.219v4.2h1.3a2.961,2.961,0,0,0,1.9-.539A1.973,1.973,0,0,0,24.086,127.977Zm10.18,2.688q0,.289-.008.484t-.023.367H28.727a2.441,2.441,0,0,0,.672,1.848,2.69,2.69,0,0,0,1.938.645q.344,0,.688-.027t.664-.074q.32-.047.613-.105t.543-.129v1.117a9.49,9.49,0,0,1-1.254.254,10.469,10.469,0,0,1-1.449.1,4.928,4.928,0,0,1-1.734-.273,2.969,2.969,0,0,1-1.191-.793,3.265,3.265,0,0,1-.687-1.273,6.026,6.026,0,0,1-.223-1.707,5.069,5.069,0,0,1,.238-1.566,3.932,3.932,0,0,1,.7-1.3,3.3,3.3,0,0,1,2.629-1.215,3.827,3.827,0,0,1,1.453.258,2.918,2.918,0,0,1,1.066.73,3.114,3.114,0,0,1,.656,1.148A4.814,4.814,0,0,1,34.266,130.664Zm-1.414-.2a2.963,2.963,0,0,0-.1-.957,2.014,2.014,0,0,0-.387-.746,1.8,1.8,0,0,0-.652-.488,2.189,2.189,0,0,0-.906-.176,1.893,1.893,0,0,0-.812.172,1.853,1.853,0,0,0-.633.484,2.5,2.5,0,0,0-.43.75,3.458,3.458,0,0,0-.2.961Zm9.234-2.2a2.043,2.043,0,0,1,.34.637,2.468,2.468,0,0,1,.121.785,2.724,2.724,0,0,1-.223,1.113,2.472,2.472,0,0,1-.629.863,2.9,2.9,0,0,1-.973.559,3.733,3.733,0,0,1-1.246.2,3.859,3.859,0,0,1-.922-.105,2.358,2.358,0,0,1-.68-.262,4.17,4.17,0,0,0-.25.414.934.934,0,0,0-.1.438.58.58,0,0,0,.285.492,1.4,1.4,0,0,0,.754.211l2.063.078a4.659,4.659,0,0,1,1.082.148,2.665,2.665,0,0,1,.852.383,1.794,1.794,0,0,1,.555.617,1.758,1.758,0,0,1,.2.852,2.212,2.212,0,0,1-.926,1.816,3.693,3.693,0,0,1-1.2.566,6.237,6.237,0,0,1-1.727.211,7.4,7.4,0,0,1-1.621-.152,3.552,3.552,0,0,1-1.1-.422,1.7,1.7,0,0,1-.625-.641,1.726,1.726,0,0,1-.2-.816,1.863,1.863,0,0,1,.266-1,3,3,0,0,1,.82-.828,1.289,1.289,0,0,1-.594-.543,1.446,1.446,0,0,1-.141-.355,1.511,1.511,0,0,1-.047-.367,1.858,1.858,0,0,1,.238-.93,4.773,4.773,0,0,1,.566-.8,4.082,4.082,0,0,1-.262-.352,2.156,2.156,0,0,1-.32-.8,2.9,2.9,0,0,1-.043-.527,2.724,2.724,0,0,1,.223-1.113,2.5,2.5,0,0,1,.625-.863,2.858,2.858,0,0,1,.969-.559,3.758,3.758,0,0,1,1.254-.2,3.811,3.811,0,0,1,.555.039,3.176,3.176,0,0,1,.469.1h2.844v1.109Zm-4.719,7.867a.845.845,0,0,0,.578.809,4.106,4.106,0,0,0,1.609.254,4.317,4.317,0,0,0,1.09-.117,2.2,2.2,0,0,0,.711-.309,1.123,1.123,0,0,0,.5-.941.757.757,0,0,0-.391-.7,2.723,2.723,0,0,0-1.2-.266l-2.047-.07a2.962,2.962,0,0,0-.426.336,1.476,1.476,0,0,0-.262.332,1.288,1.288,0,0,0-.133.336A1.5,1.5,0,0,0,37.367,136.133Zm.414-6.414a1.835,1.835,0,0,0,.125.688,1.5,1.5,0,0,0,.352.531,1.605,1.605,0,0,0,.535.34,1.856,1.856,0,0,0,.684.121,1.806,1.806,0,0,0,.723-.137,1.536,1.536,0,0,0,.531-.371,1.63,1.63,0,0,0,.328-.539,1.8,1.8,0,0,0,.113-.633,1.835,1.835,0,0,0-.125-.687,1.5,1.5,0,0,0-.352-.531,1.605,1.605,0,0,0-.535-.34,1.856,1.856,0,0,0-.684-.121,1.763,1.763,0,0,0-.723.141,1.609,1.609,0,0,0-.531.371,1.587,1.587,0,0,0-.328.535A1.8,1.8,0,0,0,37.781,129.719ZM50.273,135l-.031-1.055a4.252,4.252,0,0,1-1.3.914,3.5,3.5,0,0,1-1.387.281,3.4,3.4,0,0,1-1.148-.172,2.152,2.152,0,0,1-.785-.473,1.832,1.832,0,0,1-.453-.707,2.616,2.616,0,0,1-.145-.883,2.191,2.191,0,0,1,.879-1.848,4.251,4.251,0,0,1,2.6-.668h1.625V129.7a1.455,1.455,0,0,0-.445-1.113,1.927,1.927,0,0,0-1.359-.418,5.812,5.812,0,0,0-1.309.148,9.2,9.2,0,0,0-1.332.422v-1.227q.258-.094.574-.184t.668-.16q.352-.07.734-.113a6.928,6.928,0,0,1,.773-.043,4.851,4.851,0,0,1,1.281.156,2.6,2.6,0,0,1,.965.477,2.1,2.1,0,0,1,.605.8,2.84,2.84,0,0,1,.211,1.141V135Zm-.148-3.57H48.4a3.311,3.311,0,0,0-.875.1,1.661,1.661,0,0,0-.6.289,1.16,1.16,0,0,0-.348.449,1.471,1.471,0,0,0-.113.59,1.339,1.339,0,0,0,.07.434.964.964,0,0,0,.227.367,1.094,1.094,0,0,0,.406.254,1.743,1.743,0,0,0,.609.094,2.576,2.576,0,0,0,1.074-.285,5.249,5.249,0,0,0,1.277-.9Zm3.906-4.273h1.211l.055,1.266a5.663,5.663,0,0,1,.664-.676,3.641,3.641,0,0,1,.629-.434,2.355,2.355,0,0,1,.629-.23,3.263,3.263,0,0,1,.664-.066,2.3,2.3,0,0,1,1.832.715,3.207,3.207,0,0,1,.621,2.152V135H58.977v-5.008a2.21,2.21,0,0,0-.344-1.363,1.217,1.217,0,0,0-1.023-.441,1.632,1.632,0,0,0-.488.074,1.78,1.78,0,0,0-.5.258,4.1,4.1,0,0,0-.559.5q-.3.312-.676.781V135H54.031Zm15.625,3.859a5.2,5.2,0,0,1-.258,1.676,3.728,3.728,0,0,1-.742,1.3,3.329,3.329,0,0,1-1.18.844,3.939,3.939,0,0,1-1.578.3,4.117,4.117,0,0,1-1.512-.262,2.991,2.991,0,0,1-1.133-.77,3.406,3.406,0,0,1-.711-1.258,5.536,5.536,0,0,1-.246-1.727,5.129,5.129,0,0,1,.258-1.668,3.739,3.739,0,0,1,.742-1.3,3.33,3.33,0,0,1,1.18-.844,3.939,3.939,0,0,1,1.578-.3,4.117,4.117,0,0,1,1.512.262,3.012,3.012,0,0,1,1.133.766,3.368,3.368,0,0,1,.711,1.254A5.508,5.508,0,0,1,69.656,131.016Zm-1.391.063a4.506,4.506,0,0,0-.16-1.27,2.557,2.557,0,0,0-.457-.906,1.885,1.885,0,0,0-.723-.547,2.374,2.374,0,0,0-.949-.184,2.136,2.136,0,0,0-1.043.238,2.065,2.065,0,0,0-.711.637,2.744,2.744,0,0,0-.406.926,4.64,4.64,0,0,0-.129,1.105,4.548,4.548,0,0,0,.16,1.273,2.555,2.555,0,0,0,.457.91,1.892,1.892,0,0,0,.719.547,2.366,2.366,0,0,0,.953.184,2.136,2.136,0,0,0,1.043-.238,2.065,2.065,0,0,0,.711-.637,2.744,2.744,0,0,0,.406-.926A4.674,4.674,0,0,0,68.266,131.078ZM93.008,138.2H91.727v-16h1.281Zm20.43-3.2h-6.727v-1.219l2.641-2.625q.648-.641,1.055-1.109a5.89,5.89,0,0,0,.633-.855,2.606,2.606,0,0,0,.3-.73,3.345,3.345,0,0,0,.078-.742,2.483,2.483,0,0,0-.1-.715,1.7,1.7,0,0,0-.312-.6,1.449,1.449,0,0,0-.547-.406,1.982,1.982,0,0,0-.8-.148,2.428,2.428,0,0,0-1.18.289,4.041,4.041,0,0,0-.977.75l-.75-.9a4.6,4.6,0,0,1,1.332-.977,3.961,3.961,0,0,1,1.754-.367,3.6,3.6,0,0,1,1.238.2,2.767,2.767,0,0,1,.965.586,2.6,2.6,0,0,1,.629.938,3.331,3.331,0,0,1,.223,1.25,3.624,3.624,0,0,1-.156,1.086,4.167,4.167,0,0,1-.473,1,7.814,7.814,0,0,1-.8,1.027q-.48.531-1.137,1.164l-1.852,1.8h4.961Zm9.031-5.1a9.056,9.056,0,0,1-.234,2.137,4.948,4.948,0,0,1-.711,1.656,3.343,3.343,0,0,1-1.184,1.07,3.464,3.464,0,0,1-1.66.379,3.533,3.533,0,0,1-1.492-.309,2.965,2.965,0,0,1-1.148-.949,4.687,4.687,0,0,1-.734-1.633,9.433,9.433,0,0,1-.258-2.352,8.963,8.963,0,0,1,.238-2.141A5.054,5.054,0,0,1,116,126.1a3.3,3.3,0,0,1,1.184-1.07,3.47,3.47,0,0,1,1.656-.379,3.533,3.533,0,0,1,1.492.309,2.953,2.953,0,0,1,1.148.953,4.73,4.73,0,0,1,.734,1.637A9.433,9.433,0,0,1,122.469,129.9Zm-1.375.047q0-.266-.02-.527t-.043-.512l-4.32,3.211a4.019,4.019,0,0,0,.3.75,2.291,2.291,0,0,0,.434.59,1.865,1.865,0,0,0,.578.383,1.885,1.885,0,0,0,.738.137,1.852,1.852,0,0,0,.965-.258,2.153,2.153,0,0,0,.738-.766,4.173,4.173,0,0,0,.469-1.262A8.275,8.275,0,0,0,121.094,129.945Zm-4.672-.094q0,.242,0,.484t.027.469l4.32-3.2a3.655,3.655,0,0,0-.3-.727,2.3,2.3,0,0,0-.43-.566,1.914,1.914,0,0,0-2.254-.246,2.145,2.145,0,0,0-.738.77,4.226,4.226,0,0,0-.469,1.266A8.275,8.275,0,0,0,116.422,129.852ZM130.945,135h-6.414v-1.266h2.625v-7.453l-2.445,1.328-.5-1.156,3.25-1.711h1.2v8.992h2.281Zm8.883,0H133.1v-1.219l2.641-2.625q.648-.641,1.055-1.109a5.891,5.891,0,0,0,.633-.855,2.605,2.605,0,0,0,.3-.73,3.346,3.346,0,0,0,.078-.742,2.484,2.484,0,0,0-.1-.715,1.7,1.7,0,0,0-.312-.6,1.449,1.449,0,0,0-.547-.406,1.982,1.982,0,0,0-.8-.148,2.428,2.428,0,0,0-1.18.289,4.041,4.041,0,0,0-.977.75l-.75-.9a4.6,4.6,0,0,1,1.332-.977,3.961,3.961,0,0,1,1.754-.367,3.6,3.6,0,0,1,1.238.2,2.767,2.767,0,0,1,.965.586,2.6,2.6,0,0,1,.629.938,3.331,3.331,0,0,1,.223,1.25,3.624,3.624,0,0,1-.156,1.086,4.168,4.168,0,0,1-.473,1,7.814,7.814,0,0,1-.8,1.027q-.48.531-1.137,1.164l-1.852,1.8h4.961Zm7.656-3.617h-4.672V130.1h4.672ZM157.336,135h-6.414v-1.266h2.625v-7.453l-2.445,1.328-.5-1.156,3.25-1.711h1.2v8.992h2.281Zm8.883,0h-6.727v-1.219l2.641-2.625q.648-.641,1.055-1.109a5.891,5.891,0,0,0,.633-.855,2.605,2.605,0,0,0,.3-.73,3.346,3.346,0,0,0,.078-.742,2.484,2.484,0,0,0-.1-.715,1.7,1.7,0,0,0-.312-.6,1.449,1.449,0,0,0-.547-.406,1.982,1.982,0,0,0-.8-.148,2.428,2.428,0,0,0-1.18.289,4.041,4.041,0,0,0-.977.75l-.75-.9a4.6,4.6,0,0,1,1.332-.977,3.961,3.961,0,0,1,1.754-.367,3.6,3.6,0,0,1,1.238.2,2.767,2.767,0,0,1,.965.586,2.6,2.6,0,0,1,.629.938,3.331,3.331,0,0,1,.223,1.25,3.624,3.624,0,0,1-.156,1.086,4.168,4.168,0,0,1-.473,1,7.814,7.814,0,0,1-.8,1.027q-.48.531-1.137,1.164l-1.852,1.8h4.961Zm7.656-3.617H169.2V130.1h4.672ZM183.727,135h-6.414v-1.266h2.625v-7.453l-2.445,1.328-.5-1.156,3.25-1.711h1.2v8.992h2.281Zm8.883,0h-6.727v-1.219l2.641-2.625q.648-.641,1.055-1.109a5.891,5.891,0,0,0,.633-.855,2.605,2.605,0,0,0,.3-.73,3.346,3.346,0,0,0,.078-.742,2.484,2.484,0,0,0-.1-.715,1.7,1.7,0,0,0-.312-.6,1.449,1.449,0,0,0-.547-.406,1.982,1.982,0,0,0-.8-.148,2.428,2.428,0,0,0-1.18.289,4.041,4.041,0,0,0-.977.75l-.75-.9a4.6,4.6,0,0,1,1.332-.977,3.961,3.961,0,0,1,1.754-.367,3.6,3.6,0,0,1,1.238.2,2.767,2.767,0,0,1,.965.586,2.6,2.6,0,0,1,.629.938,3.331,3.331,0,0,1,.223,1.25,3.624,3.624,0,0,1-.156,1.086,4.168,4.168,0,0,1-.473,1,7.814,7.814,0,0,1-.8,1.027q-.48.531-1.137,1.164l-1.852,1.8h4.961Zm14.758,3.2h-1.281v-16h1.281Zm38.531-5.461h-1.742V135h-1.391v-2.258h-4.914v-1.2l4.352-6.758h1.953v6.758H245.9Zm-3.133-6.641-3.555,5.445h3.555Zm11.227,5.8a2.963,2.963,0,0,1-.273,1.262,2.871,2.871,0,0,1-.82,1.031,4.059,4.059,0,0,1-1.375.7,6.6,6.6,0,0,1-1.93.254q-.609,0-1.094-.039t-.906-.1v-1.219q.484.086,1.023.133t1.1.047a5.426,5.426,0,0,0,1.309-.137,2.47,2.47,0,0,0,.887-.395,1.518,1.518,0,0,0,.5-.625,2.1,2.1,0,0,0,.156-.828,1.4,1.4,0,0,0-.187-.734,1.56,1.56,0,0,0-.527-.523,2.607,2.607,0,0,0-.812-.316,4.755,4.755,0,0,0-1.035-.105h-1.164V129.18h1.18a2.749,2.749,0,0,0,.84-.121,1.888,1.888,0,0,0,.648-.348,1.5,1.5,0,0,0,.414-.559,1.872,1.872,0,0,0,.145-.754,1.4,1.4,0,0,0-.5-1.2,2.425,2.425,0,0,0-1.469-.375,5.815,5.815,0,0,0-1.062.1,9.317,9.317,0,0,0-1.172.3v-1.187q.266-.094.566-.168t.6-.125q.3-.051.6-.078t.57-.027a5.238,5.238,0,0,1,1.43.176,2.935,2.935,0,0,1,1.031.5,2.11,2.11,0,0,1,.625.8,2.543,2.543,0,0,1,.211,1.055,2.364,2.364,0,0,1-.449,1.469,3.1,3.1,0,0,1-1.23.945,2.782,2.782,0,0,1,.785.25,2.739,2.739,0,0,1,.7.48,2.341,2.341,0,0,1,.5.691A2.012,2.012,0,0,1,253.992,131.9Zm14.953,6.3h-1.281v-16h1.281ZM5.039,162.2H3.758v-16H5.039Zm20.492-10.289a3.445,3.445,0,0,1-.234,1.238,3.063,3.063,0,0,1-.727,1.1,3.688,3.688,0,0,1-1.258.785,5,5,0,0,1-1.828.3H20.219V159H18.828V148.789H21.7a6.168,6.168,0,0,1,1.453.168,3.507,3.507,0,0,1,1.223.543,2.727,2.727,0,0,1,.84.969A3.071,3.071,0,0,1,25.531,151.914Zm-1.445.063a1.83,1.83,0,0,0-.645-1.508,2.783,2.783,0,0,0-1.8-.523H20.219v4.2h1.3a2.961,2.961,0,0,0,1.9-.539A1.973,1.973,0,0,0,24.086,151.977Zm10.18,2.688q0,.289-.008.484t-.023.367H28.727a2.441,2.441,0,0,0,.672,1.848,2.69,2.69,0,0,0,1.938.645q.344,0,.688-.027t.664-.074q.32-.047.613-.105t.543-.129v1.117a9.49,9.49,0,0,1-1.254.254,10.469,10.469,0,0,1-1.449.1,4.928,4.928,0,0,1-1.734-.273,2.969,2.969,0,0,1-1.191-.793,3.265,3.265,0,0,1-.687-1.273,6.026,6.026,0,0,1-.223-1.707,5.069,5.069,0,0,1,.238-1.566,3.932,3.932,0,0,1,.7-1.3,3.3,3.3,0,0,1,2.629-1.215,3.827,3.827,0,0,1,1.453.258,2.918,2.918,0,0,1,1.066.73,3.114,3.114,0,0,1,.656,1.148A4.814,4.814,0,0,1,34.266,154.664Zm-1.414-.2a2.963,2.963,0,0,0-.1-.957,2.014,2.014,0,0,0-.387-.746,1.8,1.8,0,0,0-.652-.488,2.189,2.189,0,0,0-.906-.176,1.893,1.893,0,0,0-.812.172,1.853,1.853,0,0,0-.633.484,2.5,2.5,0,0,0-.43.75,3.458,3.458,0,0,0-.2.961Zm3.906-3.312H38l.039,1.445a5.035,5.035,0,0,1,1.371-1.211,2.784,2.784,0,0,1,1.363-.375,2.222,2.222,0,0,1,1.848.789,3.528,3.528,0,0,1,.582,2.344H41.828a2.567,2.567,0,0,0-.3-1.5,1.084,1.084,0,0,0-.949-.465,1.65,1.65,0,0,0-.551.1,2.225,2.225,0,0,0-.57.313,5.11,5.11,0,0,0-.621.551,10.169,10.169,0,0,0-.7.813V159H36.758Zm11.148,1.125h-2.32v-1.125h3.7v6.711h2.336V159H45.328v-1.133h2.578Zm.477-4.414a1.078,1.078,0,0,1,.422.082,1.021,1.021,0,0,1,.34.23,1.109,1.109,0,0,1,.227.34,1.1,1.1,0,0,1,0,.832,1.1,1.1,0,0,1-.227.344,1.021,1.021,0,0,1-.34.23,1.126,1.126,0,0,1-.844,0,1.021,1.021,0,0,1-.34-.23,1.1,1.1,0,0,1-.227-.344,1.1,1.1,0,0,1,0-.832,1.109,1.109,0,0,1,.227-.34,1.021,1.021,0,0,1,.34-.23A1.078,1.078,0,0,1,48.383,147.867Zm8.32,1.211h-2.32v-1.117h3.7v9.906h2.336V159H54.125v-1.133H56.7Zm8.8,0H63.18v-1.117h3.7v9.906h2.336V159H62.922v-1.133H65.5Zm12.953,5.938a5.2,5.2,0,0,1-.258,1.676,3.728,3.728,0,0,1-.742,1.3,3.329,3.329,0,0,1-1.18.844,3.939,3.939,0,0,1-1.578.3,4.117,4.117,0,0,1-1.512-.262,2.991,2.991,0,0,1-1.133-.77,3.406,3.406,0,0,1-.711-1.258,5.536,5.536,0,0,1-.246-1.727,5.129,5.129,0,0,1,.258-1.668,3.739,3.739,0,0,1,.742-1.3,3.329,3.329,0,0,1,1.18-.844,3.939,3.939,0,0,1,1.578-.3,4.117,4.117,0,0,1,1.512.262,3.012,3.012,0,0,1,1.133.766,3.368,3.368,0,0,1,.711,1.254A5.508,5.508,0,0,1,78.453,155.016Zm-1.391.063a4.506,4.506,0,0,0-.16-1.27,2.557,2.557,0,0,0-.457-.906,1.885,1.885,0,0,0-.723-.547,2.374,2.374,0,0,0-.949-.184,2.136,2.136,0,0,0-1.043.238,2.065,2.065,0,0,0-.711.637,2.744,2.744,0,0,0-.406.926,4.64,4.64,0,0,0-.129,1.105,4.548,4.548,0,0,0,.16,1.273,2.555,2.555,0,0,0,.457.91,1.892,1.892,0,0,0,.719.547,2.366,2.366,0,0,0,.953.184,2.136,2.136,0,0,0,1.043-.238,2.065,2.065,0,0,0,.711-.637,2.744,2.744,0,0,0,.406-.926A4.674,4.674,0,0,0,77.063,155.078ZM93.008,162.2H91.727v-16h1.281Zm20.43-3.2h-6.727v-1.219l2.641-2.625q.648-.641,1.055-1.109a5.89,5.89,0,0,0,.633-.855,2.606,2.606,0,0,0,.3-.73,3.345,3.345,0,0,0,.078-.742,2.483,2.483,0,0,0-.1-.715,1.7,1.7,0,0,0-.312-.6,1.449,1.449,0,0,0-.547-.406,1.982,1.982,0,0,0-.8-.148,2.428,2.428,0,0,0-1.18.289,4.041,4.041,0,0,0-.977.75l-.75-.9a4.6,4.6,0,0,1,1.332-.977,3.961,3.961,0,0,1,1.754-.367,3.6,3.6,0,0,1,1.238.2,2.767,2.767,0,0,1,.965.586,2.6,2.6,0,0,1,.629.938,3.331,3.331,0,0,1,.223,1.25,3.624,3.624,0,0,1-.156,1.086,4.167,4.167,0,0,1-.473,1,7.814,7.814,0,0,1-.8,1.027q-.48.531-1.137,1.164l-1.852,1.8h4.961Zm9.031-5.1a9.056,9.056,0,0,1-.234,2.137,4.948,4.948,0,0,1-.711,1.656,3.343,3.343,0,0,1-1.184,1.07,3.464,3.464,0,0,1-1.66.379,3.533,3.533,0,0,1-1.492-.309,2.965,2.965,0,0,1-1.148-.949,4.687,4.687,0,0,1-.734-1.633,9.433,9.433,0,0,1-.258-2.352,8.963,8.963,0,0,1,.238-2.141A5.054,5.054,0,0,1,116,150.1a3.3,3.3,0,0,1,1.184-1.07,3.47,3.47,0,0,1,1.656-.379,3.533,3.533,0,0,1,1.492.309,2.953,2.953,0,0,1,1.148.953,4.73,4.73,0,0,1,.734,1.637A9.433,9.433,0,0,1,122.469,153.9Zm-1.375.047q0-.266-.02-.527t-.043-.512l-4.32,3.211a4.019,4.019,0,0,0,.3.75,2.291,2.291,0,0,0,.434.59,1.865,1.865,0,0,0,.578.383,1.885,1.885,0,0,0,.738.137,1.852,1.852,0,0,0,.965-.258,2.153,2.153,0,0,0,.738-.766,4.173,4.173,0,0,0,.469-1.262A8.275,8.275,0,0,0,121.094,153.945Zm-4.672-.094q0,.242,0,.484t.027.469l4.32-3.2a3.655,3.655,0,0,0-.3-.727,2.3,2.3,0,0,0-.43-.566,1.914,1.914,0,0,0-2.254-.246,2.145,2.145,0,0,0-.738.77,4.226,4.226,0,0,0-.469,1.266A8.275,8.275,0,0,0,116.422,153.852ZM131.031,159H124.3v-1.219l2.641-2.625q.648-.641,1.055-1.109a5.891,5.891,0,0,0,.633-.855,2.605,2.605,0,0,0,.3-.73,3.346,3.346,0,0,0,.078-.742,2.484,2.484,0,0,0-.1-.715,1.7,1.7,0,0,0-.312-.6,1.449,1.449,0,0,0-.547-.406,1.982,1.982,0,0,0-.8-.148,2.428,2.428,0,0,0-1.18.289,4.041,4.041,0,0,0-.977.75l-.75-.9a4.6,4.6,0,0,1,1.332-.977,3.961,3.961,0,0,1,1.754-.367,3.6,3.6,0,0,1,1.238.2,2.767,2.767,0,0,1,.965.586,2.6,2.6,0,0,1,.629.938,3.331,3.331,0,0,1,.223,1.25,3.624,3.624,0,0,1-.156,1.086,4.168,4.168,0,0,1-.473,1,7.814,7.814,0,0,1-.8,1.027q-.48.531-1.137,1.164l-1.852,1.8h4.961Zm9.031-5.1a9.056,9.056,0,0,1-.234,2.137,4.948,4.948,0,0,1-.711,1.656,3.343,3.343,0,0,1-1.184,1.07,3.464,3.464,0,0,1-1.66.379,3.533,3.533,0,0,1-1.492-.309,2.965,2.965,0,0,1-1.148-.949,4.687,4.687,0,0,1-.734-1.633,9.433,9.433,0,0,1-.258-2.352,8.963,8.963,0,0,1,.238-2.141,5.054,5.054,0,0,1,.711-1.66,3.3,3.3,0,0,1,1.184-1.07,3.47,3.47,0,0,1,1.656-.379,3.533,3.533,0,0,1,1.492.309,2.953,2.953,0,0,1,1.148.953,4.731,4.731,0,0,1,.734,1.637A9.433,9.433,0,0,1,140.063,153.9Zm-1.375.047q0-.266-.02-.527t-.043-.512l-4.32,3.211a4.019,4.019,0,0,0,.3.75,2.291,2.291,0,0,0,.434.59,1.865,1.865,0,0,0,.578.383,1.885,1.885,0,0,0,.738.137,1.852,1.852,0,0,0,.965-.258,2.153,2.153,0,0,0,.738-.766,4.173,4.173,0,0,0,.469-1.262A8.275,8.275,0,0,0,138.688,153.945Zm-4.672-.094q0,.242,0,.484t.027.469l4.32-3.2a3.655,3.655,0,0,0-.3-.727,2.3,2.3,0,0,0-.43-.566,1.914,1.914,0,0,0-2.254-.246,2.145,2.145,0,0,0-.738.77,4.226,4.226,0,0,0-.469,1.266A8.275,8.275,0,0,0,134.016,153.852Zm13.469,1.531h-4.672V154.1h4.672Zm10.172-1.484a9.056,9.056,0,0,1-.234,2.137,4.948,4.948,0,0,1-.711,1.656,3.343,3.343,0,0,1-1.184,1.07,3.464,3.464,0,0,1-1.66.379,3.533,3.533,0,0,1-1.492-.309,2.965,2.965,0,0,1-1.148-.949,4.687,4.687,0,0,1-.734-1.633,9.433,9.433,0,0,1-.258-2.352,8.963,8.963,0,0,1,.238-2.141,5.054,5.054,0,0,1,.711-1.66,3.3,3.3,0,0,1,1.184-1.07,3.47,3.47,0,0,1,1.656-.379,3.533,3.533,0,0,1,1.492.309,2.953,2.953,0,0,1,1.148.953,4.731,4.731,0,0,1,.734,1.637A9.433,9.433,0,0,1,157.656,153.9Zm-1.375.047q0-.266-.02-.527t-.043-.512l-4.32,3.211a4.019,4.019,0,0,0,.3.75,2.291,2.291,0,0,0,.434.59,1.865,1.865,0,0,0,.578.383,1.885,1.885,0,0,0,.738.137,1.852,1.852,0,0,0,.965-.258,2.153,2.153,0,0,0,.738-.766,4.173,4.173,0,0,0,.469-1.262A8.275,8.275,0,0,0,156.281,153.945Zm-4.672-.094q0,.242,0,.484t.027.469l4.32-3.2a3.655,3.655,0,0,0-.3-.727,2.3,2.3,0,0,0-.43-.566,1.914,1.914,0,0,0-2.254-.246,2.145,2.145,0,0,0-.738.77,4.226,4.226,0,0,0-.469,1.266A8.275,8.275,0,0,0,151.609,153.852ZM166.219,159h-6.727v-1.219l2.641-2.625q.648-.641,1.055-1.109a5.891,5.891,0,0,0,.633-.855,2.605,2.605,0,0,0,.3-.73,3.346,3.346,0,0,0,.078-.742,2.484,2.484,0,0,0-.1-.715,1.7,1.7,0,0,0-.312-.6,1.449,1.449,0,0,0-.547-.406,1.982,1.982,0,0,0-.8-.148,2.428,2.428,0,0,0-1.18.289,4.041,4.041,0,0,0-.977.75l-.75-.9a4.6,4.6,0,0,1,1.332-.977,3.961,3.961,0,0,1,1.754-.367,3.6,3.6,0,0,1,1.238.2,2.767,2.767,0,0,1,.965.586,2.6,2.6,0,0,1,.629.938,3.331,3.331,0,0,1,.223,1.25,3.624,3.624,0,0,1-.156,1.086,4.168,4.168,0,0,1-.473,1,7.814,7.814,0,0,1-.8,1.027q-.48.531-1.137,1.164l-1.852,1.8h4.961Zm7.656-3.617H169.2V154.1h4.672Zm10.172-1.484a9.056,9.056,0,0,1-.234,2.137,4.948,4.948,0,0,1-.711,1.656,3.343,3.343,0,0,1-1.184,1.07,3.464,3.464,0,0,1-1.66.379,3.533,3.533,0,0,1-1.492-.309,2.965,2.965,0,0,1-1.148-.949,4.687,4.687,0,0,1-.734-1.633,9.433,9.433,0,0,1-.258-2.352,8.963,8.963,0,0,1,.238-2.141,5.054,5.054,0,0,1,.711-1.66,3.3,3.3,0,0,1,1.184-1.07,3.47,3.47,0,0,1,1.656-.379,3.533,3.533,0,0,1,1.492.309,2.953,2.953,0,0,1,1.148.953,4.731,4.731,0,0,1,.734,1.637A9.433,9.433,0,0,1,184.047,153.9Zm-1.375.047q0-.266-.02-.527t-.043-.512l-4.32,3.211a4.019,4.019,0,0,0,.3.75,2.291,2.291,0,0,0,.434.59,1.865,1.865,0,0,0,.578.383,1.885,1.885,0,0,0,.738.137,1.852,1.852,0,0,0,.965-.258,2.153,2.153,0,0,0,.738-.766,4.173,4.173,0,0,0,.469-1.262A8.275,8.275,0,0,0,182.672,153.945ZM178,153.852q0,.242,0,.484t.027.469l4.32-3.2a3.655,3.655,0,0,0-.3-.727,2.3,2.3,0,0,0-.43-.566,1.914,1.914,0,0,0-2.254-.246,2.145,2.145,0,0,0-.738.77,4.226,4.226,0,0,0-.469,1.266A8.275,8.275,0,0,0,178,153.852ZM192.609,159h-6.727v-1.219l2.641-2.625q.648-.641,1.055-1.109a5.891,5.891,0,0,0,.633-.855,2.605,2.605,0,0,0,.3-.73,3.346,3.346,0,0,0,.078-.742,2.484,2.484,0,0,0-.1-.715,1.7,1.7,0,0,0-.312-.6,1.449,1.449,0,0,0-.547-.406,1.982,1.982,0,0,0-.8-.148,2.428,2.428,0,0,0-1.18.289,4.041,4.041,0,0,0-.977.75l-.75-.9a4.6,4.6,0,0,1,1.332-.977,3.961,3.961,0,0,1,1.754-.367,3.6,3.6,0,0,1,1.238.2,2.767,2.767,0,0,1,.965.586,2.6,2.6,0,0,1,.629.938,3.331,3.331,0,0,1,.223,1.25,3.624,3.624,0,0,1-.156,1.086,4.168,4.168,0,0,1-.473,1,7.814,7.814,0,0,1-.8,1.027q-.48.531-1.137,1.164l-1.852,1.8h4.961Zm14.758,3.2h-1.281v-16h1.281ZM245.3,159h-6.414v-1.266h2.625v-7.453l-2.445,1.328-.5-1.156,3.25-1.711h1.2v8.992H245.3Zm9.117-5.1a9.056,9.056,0,0,1-.234,2.137,4.948,4.948,0,0,1-.711,1.656,3.343,3.343,0,0,1-1.184,1.07,3.464,3.464,0,0,1-1.66.379,3.533,3.533,0,0,1-1.492-.309,2.965,2.965,0,0,1-1.148-.949,4.687,4.687,0,0,1-.734-1.633A9.433,9.433,0,0,1,247,153.9a8.963,8.963,0,0,1,.238-2.141,5.054,5.054,0,0,1,.711-1.66,3.3,3.3,0,0,1,1.184-1.07,3.47,3.47,0,0,1,1.656-.379,3.533,3.533,0,0,1,1.492.309,2.953,2.953,0,0,1,1.148.953,4.731,4.731,0,0,1,.734,1.637A9.433,9.433,0,0,1,254.422,153.9Zm-1.375.047q0-.266-.02-.527t-.043-.512l-4.32,3.211a4.019,4.019,0,0,0,.3.75,2.291,2.291,0,0,0,.434.59,1.865,1.865,0,0,0,.578.383,1.885,1.885,0,0,0,.738.137,1.852,1.852,0,0,0,.965-.258,2.153,2.153,0,0,0,.738-.766,4.173,4.173,0,0,0,.469-1.262A8.275,8.275,0,0,0,253.047,153.945Zm-4.672-.094q0,.242,0,.484t.027.469l4.32-3.2a3.655,3.655,0,0,0-.3-.727,2.3,2.3,0,0,0-.43-.566,1.914,1.914,0,0,0-2.254-.246,2.145,2.145,0,0,0-.738.77,4.226,4.226,0,0,0-.469,1.266A8.275,8.275,0,0,0,248.375,153.852Zm20.57,8.352h-1.281v-16h1.281ZM5.039,186.2H3.758v-16H5.039Zm20.68-12.227H22.7V183H21.289v-9.023H18.266v-1.187h7.453ZM33.945,183H32.727l-.047-1.266a6.332,6.332,0,0,1-.668.676,3.453,3.453,0,0,1-.629.434,2.421,2.421,0,0,1-.629.23,3.247,3.247,0,0,1-.668.066,2.29,2.29,0,0,1-1.828-.711,3.205,3.205,0,0,1-.617-2.148v-5.125H29v5.016q0,1.8,1.359,1.8a1.632,1.632,0,0,0,.488-.074,1.834,1.834,0,0,0,.5-.258,3.956,3.956,0,0,0,.563-.5q.3-.312.676-.789v-5.2h1.359Zm5.164-9.922h-2.32v-1.117h3.7v9.906H42.82V183H36.531v-1.133h2.578ZM50.273,183l-.031-1.055a4.252,4.252,0,0,1-1.3.914,3.5,3.5,0,0,1-1.387.281,3.4,3.4,0,0,1-1.148-.172,2.152,2.152,0,0,1-.785-.473,1.832,1.832,0,0,1-.453-.707,2.616,2.616,0,0,1-.145-.883,2.191,2.191,0,0,1,.879-1.848,4.251,4.251,0,0,1,2.6-.668h1.625V177.7a1.455,1.455,0,0,0-.445-1.113,1.927,1.927,0,0,0-1.359-.418,5.812,5.812,0,0,0-1.309.148,9.2,9.2,0,0,0-1.332.422v-1.227q.258-.094.574-.184t.668-.16q.352-.07.734-.113a6.93,6.93,0,0,1,.773-.043,4.85,4.85,0,0,1,1.281.156,2.6,2.6,0,0,1,.965.477,2.1,2.1,0,0,1,.605.8,2.84,2.84,0,0,1,.211,1.141V183Zm-.148-3.57H48.4a3.311,3.311,0,0,0-.875.1,1.661,1.661,0,0,0-.6.289,1.16,1.16,0,0,0-.348.449,1.471,1.471,0,0,0-.113.59,1.339,1.339,0,0,0,.07.434.964.964,0,0,0,.227.367,1.094,1.094,0,0,0,.406.254,1.743,1.743,0,0,0,.609.094,2.576,2.576,0,0,0,1.074-.285,5.249,5.249,0,0,0,1.277-.9Zm3.906-4.273h1.211l.055,1.266a5.663,5.663,0,0,1,.664-.676,3.641,3.641,0,0,1,.629-.434,2.354,2.354,0,0,1,.629-.23,3.264,3.264,0,0,1,.664-.066,2.3,2.3,0,0,1,1.832.715,3.207,3.207,0,0,1,.621,2.152V183H58.977v-5.008a2.21,2.21,0,0,0-.344-1.363,1.217,1.217,0,0,0-1.023-.441,1.632,1.632,0,0,0-.488.074,1.78,1.78,0,0,0-.5.258,4.1,4.1,0,0,0-.559.5q-.3.312-.676.781V183H54.031Zm15.625,3.859a5.2,5.2,0,0,1-.258,1.676,3.728,3.728,0,0,1-.742,1.3,3.329,3.329,0,0,1-1.18.844,3.939,3.939,0,0,1-1.578.3,4.117,4.117,0,0,1-1.512-.262,2.991,2.991,0,0,1-1.133-.77,3.406,3.406,0,0,1-.711-1.258,5.536,5.536,0,0,1-.246-1.727,5.129,5.129,0,0,1,.258-1.668,3.739,3.739,0,0,1,.742-1.3,3.329,3.329,0,0,1,1.18-.844,3.939,3.939,0,0,1,1.578-.3,4.117,4.117,0,0,1,1.512.262,3.012,3.012,0,0,1,1.133.766,3.368,3.368,0,0,1,.711,1.254A5.508,5.508,0,0,1,69.656,179.016Zm-1.391.063a4.506,4.506,0,0,0-.16-1.27,2.557,2.557,0,0,0-.457-.906,1.885,1.885,0,0,0-.723-.547,2.374,2.374,0,0,0-.949-.184,2.136,2.136,0,0,0-1.043.238,2.065,2.065,0,0,0-.711.637,2.744,2.744,0,0,0-.406.926,4.64,4.64,0,0,0-.129,1.105,4.548,4.548,0,0,0,.16,1.273,2.555,2.555,0,0,0,.457.91,1.892,1.892,0,0,0,.719.547,2.366,2.366,0,0,0,.953.184,2.136,2.136,0,0,0,1.043-.238,2.065,2.065,0,0,0,.711-.637,2.744,2.744,0,0,0,.406-.926A4.674,4.674,0,0,0,68.266,179.078ZM93.008,186.2H91.727v-16h1.281Zm20.43-3.2h-6.727v-1.219l2.641-2.625q.648-.641,1.055-1.109a5.89,5.89,0,0,0,.633-.855,2.606,2.606,0,0,0,.3-.73,3.345,3.345,0,0,0,.078-.742,2.483,2.483,0,0,0-.1-.715,1.7,1.7,0,0,0-.312-.6,1.449,1.449,0,0,0-.547-.406,1.982,1.982,0,0,0-.8-.148,2.428,2.428,0,0,0-1.18.289,4.041,4.041,0,0,0-.977.75l-.75-.9a4.6,4.6,0,0,1,1.332-.977,3.961,3.961,0,0,1,1.754-.367,3.6,3.6,0,0,1,1.238.2,2.767,2.767,0,0,1,.965.586,2.6,2.6,0,0,1,.629.938,3.331,3.331,0,0,1,.223,1.25,3.624,3.624,0,0,1-.156,1.086,4.167,4.167,0,0,1-.473,1,7.814,7.814,0,0,1-.8,1.027q-.48.531-1.137,1.164l-1.852,1.8h4.961Zm9.031-5.1a9.056,9.056,0,0,1-.234,2.137,4.948,4.948,0,0,1-.711,1.656,3.343,3.343,0,0,1-1.184,1.07,3.464,3.464,0,0,1-1.66.379,3.533,3.533,0,0,1-1.492-.309,2.965,2.965,0,0,1-1.148-.949,4.687,4.687,0,0,1-.734-1.633,9.433,9.433,0,0,1-.258-2.352,8.963,8.963,0,0,1,.238-2.141A5.054,5.054,0,0,1,116,174.1a3.3,3.3,0,0,1,1.184-1.07,3.47,3.47,0,0,1,1.656-.379,3.533,3.533,0,0,1,1.492.309,2.953,2.953,0,0,1,1.148.953,4.73,4.73,0,0,1,.734,1.637A9.433,9.433,0,0,1,122.469,177.9Zm-1.375.047q0-.266-.02-.527t-.043-.512l-4.32,3.211a4.019,4.019,0,0,0,.3.75,2.291,2.291,0,0,0,.434.59,1.865,1.865,0,0,0,.578.383,1.885,1.885,0,0,0,.738.137,1.852,1.852,0,0,0,.965-.258,2.153,2.153,0,0,0,.738-.766,4.173,4.173,0,0,0,.469-1.262A8.275,8.275,0,0,0,121.094,177.945Zm-4.672-.094q0,.242,0,.484t.027.469l4.32-3.2a3.655,3.655,0,0,0-.3-.727,2.3,2.3,0,0,0-.43-.566,1.914,1.914,0,0,0-2.254-.246,2.145,2.145,0,0,0-.738.77,4.226,4.226,0,0,0-.469,1.266A8.275,8.275,0,0,0,116.422,177.852ZM130.945,183h-6.414v-1.266h2.625v-7.453l-2.445,1.328-.5-1.156,3.25-1.711h1.2v8.992h2.281Zm8.883,0H133.1v-1.219l2.641-2.625q.648-.641,1.055-1.109a5.891,5.891,0,0,0,.633-.855,2.605,2.605,0,0,0,.3-.73,3.346,3.346,0,0,0,.078-.742,2.484,2.484,0,0,0-.1-.715,1.7,1.7,0,0,0-.312-.6,1.449,1.449,0,0,0-.547-.406,1.982,1.982,0,0,0-.8-.148,2.428,2.428,0,0,0-1.18.289,4.041,4.041,0,0,0-.977.75l-.75-.9a4.6,4.6,0,0,1,1.332-.977,3.961,3.961,0,0,1,1.754-.367,3.6,3.6,0,0,1,1.238.2,2.767,2.767,0,0,1,.965.586,2.6,2.6,0,0,1,.629.938,3.331,3.331,0,0,1,.223,1.25,3.624,3.624,0,0,1-.156,1.086,4.168,4.168,0,0,1-.473,1,7.814,7.814,0,0,1-.8,1.027q-.48.531-1.137,1.164l-1.852,1.8h4.961Zm7.656-3.617h-4.672V178.1h4.672ZM157.336,183h-6.414v-1.266h2.625v-7.453l-2.445,1.328-.5-1.156,3.25-1.711h1.2v8.992h2.281Zm8.883,0h-6.727v-1.219l2.641-2.625q.648-.641,1.055-1.109a5.891,5.891,0,0,0,.633-.855,2.605,2.605,0,0,0,.3-.73,3.346,3.346,0,0,0,.078-.742,2.484,2.484,0,0,0-.1-.715,1.7,1.7,0,0,0-.312-.6,1.449,1.449,0,0,0-.547-.406,1.982,1.982,0,0,0-.8-.148,2.428,2.428,0,0,0-1.18.289,4.041,4.041,0,0,0-.977.75l-.75-.9a4.6,4.6,0,0,1,1.332-.977,3.961,3.961,0,0,1,1.754-.367,3.6,3.6,0,0,1,1.238.2,2.767,2.767,0,0,1,.965.586,2.6,2.6,0,0,1,.629.938,3.331,3.331,0,0,1,.223,1.25,3.624,3.624,0,0,1-.156,1.086,4.168,4.168,0,0,1-.473,1,7.814,7.814,0,0,1-.8,1.027q-.48.531-1.137,1.164l-1.852,1.8h4.961Zm7.656-3.617H169.2V178.1h4.672ZM183.727,183h-6.414v-1.266h2.625v-7.453l-2.445,1.328-.5-1.156,3.25-1.711h1.2v8.992h2.281Zm8.883,0h-6.727v-1.219l2.641-2.625q.648-.641,1.055-1.109a5.891,5.891,0,0,0,.633-.855,2.605,2.605,0,0,0,.3-.73,3.346,3.346,0,0,0,.078-.742,2.484,2.484,0,0,0-.1-.715,1.7,1.7,0,0,0-.312-.6,1.449,1.449,0,0,0-.547-.406,1.982,1.982,0,0,0-.8-.148,2.428,2.428,0,0,0-1.18.289,4.041,4.041,0,0,0-.977.75l-.75-.9a4.6,4.6,0,0,1,1.332-.977,3.961,3.961,0,0,1,1.754-.367,3.6,3.6,0,0,1,1.238.2,2.767,2.767,0,0,1,.965.586,2.6,2.6,0,0,1,.629.938,3.331,3.331,0,0,1,.223,1.25,3.624,3.624,0,0,1-.156,1.086,4.168,4.168,0,0,1-.473,1,7.814,7.814,0,0,1-.8,1.027q-.48.531-1.137,1.164l-1.852,1.8h4.961Zm14.758,3.2h-1.281v-16h1.281Zm37.766-6.469a2.929,2.929,0,0,1-.328,1.383,3.3,3.3,0,0,1-.9,1.074,4.307,4.307,0,0,1-1.355.7,5.508,5.508,0,0,1-1.687.25q-.227,0-.488-.012t-.52-.031q-.258-.02-.5-.043t-.441-.055v-1.234a6.564,6.564,0,0,0,.965.148q.543.047,1.1.047a3.95,3.95,0,0,0,1.125-.148,2.514,2.514,0,0,0,.852-.426,1.868,1.868,0,0,0,.539-.672,2.04,2.04,0,0,0,.188-.887,1.52,1.52,0,0,0-.684-1.387,3.683,3.683,0,0,0-1.965-.434h-1.937v-5.219h5.5v1.188h-4.219v2.867h.891a7.6,7.6,0,0,1,1.43.133,3.671,3.671,0,0,1,1.238.465,2.559,2.559,0,0,1,.875.891A2.707,2.707,0,0,1,245.133,179.734Zm8.8,0a2.929,2.929,0,0,1-.328,1.383,3.3,3.3,0,0,1-.9,1.074,4.307,4.307,0,0,1-1.355.7,5.508,5.508,0,0,1-1.687.25q-.227,0-.488-.012t-.52-.031q-.258-.02-.5-.043T247.7,183v-1.234a6.564,6.564,0,0,0,.965.148q.543.047,1.1.047a3.95,3.95,0,0,0,1.125-.148,2.514,2.514,0,0,0,.852-.426,1.868,1.868,0,0,0,.539-.672,2.04,2.04,0,0,0,.188-.887,1.52,1.52,0,0,0-.684-1.387,3.683,3.683,0,0,0-1.965-.434h-1.937v-5.219h5.5v1.188h-4.219v2.867h.891a7.6,7.6,0,0,1,1.43.133,3.671,3.671,0,0,1,1.238.465,2.559,2.559,0,0,1,.875.891A2.707,2.707,0,0,1,253.93,179.734Zm15.016,6.469h-1.281v-16h1.281ZM8.141,203.336H5.07v3.188H3.727v-3.187H.656v-1.187h3.07v-3.164H5.07v3.164h3.07Zm7.391.047H10.859V202.1h4.672Zm8.8,0H19.656V202.1h4.672Zm8.8,0H28.453V202.1h4.672Zm8.8,0H37.25V202.1h4.672Zm8.8,0H46.047V202.1h4.672Zm8.8,0H54.844V202.1h4.672Zm8.8,0H63.641V202.1h4.672Zm8.8,0H72.438V202.1h4.672Zm8.8,0H81.234V202.1h4.672Zm10.2-.047h-3.07v3.188H91.7v-3.187h-3.07v-1.187H91.7v-3.164h1.344v3.164h3.07Zm7.391.047H98.828V202.1H103.5Zm8.8,0h-4.672V202.1H112.3Zm8.8,0h-4.672V202.1h4.672Zm8.8,0h-4.672V202.1h4.672Zm8.8,0h-4.672V202.1h4.672Zm8.8,0h-4.672V202.1h4.672Zm8.8,0h-4.672V202.1h4.672Zm8.8,0h-4.672V202.1h4.672Zm8.8,0H169.2V202.1h4.672Zm8.8,0H178V202.1h4.672Zm8.8,0H186.8V202.1h4.672Zm8.8,0h-4.672V202.1h4.672Zm10.2-.047H207.4v3.188h-1.344v-3.187h-3.07v-1.187h3.07v-3.164H207.4v3.164h3.07Zm7.391.047h-4.672V202.1h4.672Zm8.8,0h-4.672V202.1h4.672Zm8.8,0h-4.672V202.1h4.672Zm8.8,0h-4.672V202.1h4.672Zm8.8,0h-4.672V202.1h4.672Zm8.8,0h-4.672V202.1h4.672Zm10.2-.047h-3.07v3.188h-1.344v-3.187h-3.07v-1.187h3.07v-3.164h1.344v3.164h3.07Z" transform="translate(325 5257)" fill="#f4a338"/>
  </g>
</svg>
