<svg xmlns="http://www.w3.org/2000/svg" width="262.594" height="127.539" viewBox="0 0 262.594 127.539">
  <g id="Grupo_986596" data-name="Grupo 986596" transform="translate(-325.656 -6774.984)">
    <path id="Trazado_659727" data-name="Trazado 659727" d="M8.141,11.336H5.07v3.188H3.727V11.336H.656V10.148h3.07V6.984H5.07v3.164h3.07Zm7.391.047H10.859V10.1h4.672Zm8.8,0H19.656V10.1h4.672Zm8.8,0H28.453V10.1h4.672Zm8.8,0H37.25V10.1h4.672Zm8.8,0H46.047V10.1h4.672Zm8.8,0H54.844V10.1h4.672Zm8.8,0H63.641V10.1h4.672Zm8.8,0H72.438V10.1h4.672Zm10.2-.047h-3.07v3.188H82.9V11.336h-3.07V10.148H82.9V6.984h1.344v3.164h3.07Zm7.391.047H90.031V10.1H94.7Zm8.8,0H98.828V10.1H103.5Zm8.8,0h-4.672V10.1H112.3Zm8.8,0h-4.672V10.1h4.672Zm8.8,0h-4.672V10.1h4.672Zm8.8,0h-4.672V10.1h4.672Zm8.8,0h-4.672V10.1h4.672Zm8.8,0h-4.672V10.1h4.672Zm8.8,0h-4.672V10.1h4.672Zm8.8,0H169.2V10.1h4.672Zm8.8,0H178V10.1h4.672Zm8.8,0H186.8V10.1h4.672Zm10.2-.047H198.6v3.188h-1.344V11.336h-3.07V10.148h3.07V6.984H198.6v3.164h3.07Zm7.391.047h-4.672V10.1h4.672Zm8.8,0h-4.672V10.1h4.672Zm8.8,0h-4.672V10.1h4.672Zm8.8,0h-4.672V10.1h4.672Zm8.8,0h-4.672V10.1h4.672Zm8.8,0h-4.672V10.1h4.672Zm10.2-.047h-3.07v3.188h-1.344V11.336h-3.07V10.148h3.07V6.984h1.344v3.164h3.07ZM5.039,42.2H3.758v-16H5.039Zm13.8-11.047h1.211l.055,1.266a5.663,5.663,0,0,1,.664-.676,3.641,3.641,0,0,1,.629-.434,2.355,2.355,0,0,1,.629-.23,3.263,3.263,0,0,1,.664-.066,2.3,2.3,0,0,1,1.832.715,3.207,3.207,0,0,1,.621,2.152V39H23.789V33.992a2.21,2.21,0,0,0-.344-1.363,1.217,1.217,0,0,0-1.023-.441,1.633,1.633,0,0,0-.488.074,1.78,1.78,0,0,0-.5.258,4.1,4.1,0,0,0-.559.5q-.3.312-.676.781V39H18.844Zm15.625,3.859a5.2,5.2,0,0,1-.258,1.676,3.728,3.728,0,0,1-.742,1.3,3.329,3.329,0,0,1-1.18.844,3.939,3.939,0,0,1-1.578.3,4.117,4.117,0,0,1-1.512-.262,2.991,2.991,0,0,1-1.133-.77,3.406,3.406,0,0,1-.711-1.258,5.536,5.536,0,0,1-.246-1.727,5.129,5.129,0,0,1,.258-1.668,3.739,3.739,0,0,1,.742-1.3,3.33,3.33,0,0,1,1.18-.844,3.939,3.939,0,0,1,1.578-.3,4.117,4.117,0,0,1,1.512.262,3.012,3.012,0,0,1,1.133.766,3.368,3.368,0,0,1,.711,1.254A5.508,5.508,0,0,1,34.469,35.016Zm-1.391.063a4.506,4.506,0,0,0-.16-1.27,2.557,2.557,0,0,0-.457-.906,1.885,1.885,0,0,0-.723-.547,2.374,2.374,0,0,0-.949-.184,2.136,2.136,0,0,0-1.043.238,2.065,2.065,0,0,0-.711.637,2.744,2.744,0,0,0-.406.926,4.64,4.64,0,0,0-.129,1.105,4.548,4.548,0,0,0,.16,1.273,2.555,2.555,0,0,0,.457.91,1.892,1.892,0,0,0,.719.547,2.366,2.366,0,0,0,.953.184,2.136,2.136,0,0,0,1.043-.238,2.065,2.065,0,0,0,.711-.637,2.744,2.744,0,0,0,.406-.926A4.674,4.674,0,0,0,33.078,35.078ZM42.031,39V33.367a5.376,5.376,0,0,0-.027-.6,1.371,1.371,0,0,0-.086-.371.4.4,0,0,0-.148-.191.421.421,0,0,0-.223-.055.491.491,0,0,0-.289.094,1.313,1.313,0,0,0-.285.3,4.818,4.818,0,0,0-.336.559q-.184.348-.434.855V39H38.961V33.516q0-.43-.027-.7a1.623,1.623,0,0,0-.086-.414.389.389,0,0,0-.152-.2.442.442,0,0,0-.227-.055.493.493,0,0,0-.266.078,1.13,1.13,0,0,0-.277.281,4.4,4.4,0,0,0-.34.555q-.187.352-.445.9V39h-1.25V31.156H36.93l.063,1.492a7.134,7.134,0,0,1,.395-.758,2.44,2.44,0,0,1,.395-.5,1.346,1.346,0,0,1,.434-.281,1.4,1.4,0,0,1,.512-.09,1.153,1.153,0,0,1,.961.414,2.051,2.051,0,0,1,.328,1.281q.188-.406.367-.723a2.64,2.64,0,0,1,.387-.531,1.484,1.484,0,0,1,.457-.328,1.388,1.388,0,0,1,.578-.113q1.477,0,1.477,2.273V39Zm9.906-4.062a5.264,5.264,0,0,1-.27,1.746,3.68,3.68,0,0,1-.766,1.3,3.292,3.292,0,0,1-1.207.82,4.27,4.27,0,0,1-1.6.285,7.9,7.9,0,0,1-1.422-.133,7.29,7.29,0,0,1-1.437-.422V27.961h1.359V31l-.062,1.453a3.528,3.528,0,0,1,1.254-1.113,3.24,3.24,0,0,1,1.434-.324,2.4,2.4,0,0,1,1.18.281,2.448,2.448,0,0,1,.852.793,3.751,3.751,0,0,1,.516,1.234A6.984,6.984,0,0,1,51.938,34.938ZM50.547,35a6.617,6.617,0,0,0-.09-1.133,2.956,2.956,0,0,0-.285-.883,1.567,1.567,0,0,0-.5-.574,1.262,1.262,0,0,0-.727-.207,1.767,1.767,0,0,0-.523.082,2.123,2.123,0,0,0-.551.273,4.1,4.1,0,0,0-.6.508,8,8,0,0,0-.676.785v3.8a5.3,5.3,0,0,0,.813.246,3.724,3.724,0,0,0,.789.09,2.7,2.7,0,0,0,.895-.148,1.847,1.847,0,0,0,.75-.5,2.482,2.482,0,0,0,.516-.922A4.561,4.561,0,0,0,50.547,35Zm3.8-3.844h1.242l.039,1.445A5.035,5.035,0,0,1,57,31.391a2.784,2.784,0,0,1,1.363-.375,2.222,2.222,0,0,1,1.848.789,3.528,3.528,0,0,1,.582,2.344H59.422a2.567,2.567,0,0,0-.3-1.5,1.084,1.084,0,0,0-.949-.465,1.65,1.65,0,0,0-.551.1,2.225,2.225,0,0,0-.57.313,5.109,5.109,0,0,0-.621.551,10.169,10.169,0,0,0-.7.813V39H54.352Zm15.1,3.508q0,.289-.008.484t-.023.367H63.914a2.441,2.441,0,0,0,.672,1.848,2.69,2.69,0,0,0,1.938.645q.344,0,.688-.027t.664-.074q.32-.047.613-.105t.543-.129v1.117a9.49,9.49,0,0,1-1.254.254,10.47,10.47,0,0,1-1.449.1,4.928,4.928,0,0,1-1.734-.273,2.969,2.969,0,0,1-1.191-.793,3.265,3.265,0,0,1-.687-1.273,6.026,6.026,0,0,1-.223-1.707,5.069,5.069,0,0,1,.238-1.566,3.932,3.932,0,0,1,.7-1.3,3.3,3.3,0,0,1,2.629-1.215,3.827,3.827,0,0,1,1.453.258,2.918,2.918,0,0,1,1.066.73,3.114,3.114,0,0,1,.656,1.148A4.814,4.814,0,0,1,69.453,34.664Zm-1.414-.2a2.963,2.963,0,0,0-.1-.957,2.015,2.015,0,0,0-.387-.746,1.8,1.8,0,0,0-.652-.488,2.189,2.189,0,0,0-.906-.176,1.893,1.893,0,0,0-.812.172,1.853,1.853,0,0,0-.633.484,2.5,2.5,0,0,0-.43.75,3.458,3.458,0,0,0-.2.961ZM84.211,42.2H82.93v-16h1.281Zm20.766-12.977A9.1,9.1,0,0,0,103.133,29q-1.836,0-1.836,1.922V32.3h3.438V33.43H101.3V39H99.914V33.43H97.391V32.3h2.523V31q0-3.133,3.266-3.133a9.671,9.671,0,0,1,1.8.188Zm8.461,5.438q0,.289-.008.484t-.023.367H107.9a2.441,2.441,0,0,0,.672,1.848,2.69,2.69,0,0,0,1.938.645q.344,0,.688-.027t.664-.074q.32-.047.613-.105t.543-.129v1.117a9.49,9.49,0,0,1-1.254.254,10.47,10.47,0,0,1-1.449.1,4.928,4.928,0,0,1-1.734-.273,2.969,2.969,0,0,1-1.191-.793A3.265,3.265,0,0,1,106.7,36.8a6.026,6.026,0,0,1-.223-1.707,5.069,5.069,0,0,1,.238-1.566,3.932,3.932,0,0,1,.7-1.3,3.3,3.3,0,0,1,2.629-1.215,3.827,3.827,0,0,1,1.453.258,2.918,2.918,0,0,1,1.066.73,3.114,3.114,0,0,1,.656,1.148A4.814,4.814,0,0,1,113.438,34.664Zm-1.414-.2a2.963,2.963,0,0,0-.1-.957,2.015,2.015,0,0,0-.387-.746,1.8,1.8,0,0,0-.652-.488,2.189,2.189,0,0,0-.906-.176,1.893,1.893,0,0,0-.812.172,1.853,1.853,0,0,0-.633.484,2.5,2.5,0,0,0-.43.75,3.458,3.458,0,0,0-.2.961Zm9.68,4.242a5.88,5.88,0,0,1-1.09.3,6.68,6.68,0,0,1-1.152.1A3.865,3.865,0,0,1,116.6,38.1a4,4,0,0,1-1-2.945,4.7,4.7,0,0,1,.289-1.687,3.758,3.758,0,0,1,.813-1.3,3.591,3.591,0,0,1,1.25-.832,4.245,4.245,0,0,1,1.6-.293,7.149,7.149,0,0,1,1.141.086,4.724,4.724,0,0,1,1.016.281v1.3a4.31,4.31,0,0,0-1.035-.387,4.854,4.854,0,0,0-1.09-.121,2.482,2.482,0,0,0-.988.2,2.41,2.41,0,0,0-.816.574,2.72,2.72,0,0,0-.555.914,3.437,3.437,0,0,0-.2,1.219,2.933,2.933,0,0,0,.691,2.129,2.559,2.559,0,0,0,1.918.707,4.576,4.576,0,0,0,1.074-.125,4.454,4.454,0,0,0,1-.375Zm9.008.289h-1.359V33.992a2.235,2.235,0,0,0-.34-1.355,1.147,1.147,0,0,0-.973-.449,1.712,1.712,0,0,0-.512.074,1.78,1.78,0,0,0-.5.258,4.263,4.263,0,0,0-.562.5q-.3.312-.7.781V39h-1.359V27.961h1.359v3.2l-.047,1.234a5.317,5.317,0,0,1,.629-.645,3.5,3.5,0,0,1,.617-.426,2.461,2.461,0,0,1,.629-.234,3.089,3.089,0,0,1,.664-.07,2.308,2.308,0,0,1,1.813.715,3.14,3.14,0,0,1,.641,2.152Zm7.531,0-.031-1.055a4.251,4.251,0,0,1-1.3.914,3.5,3.5,0,0,1-1.387.281,3.4,3.4,0,0,1-1.148-.172,2.152,2.152,0,0,1-.785-.473,1.832,1.832,0,0,1-.453-.707,2.616,2.616,0,0,1-.145-.883,2.191,2.191,0,0,1,.879-1.848,4.251,4.251,0,0,1,2.6-.668h1.625V33.7a1.455,1.455,0,0,0-.445-1.113,1.927,1.927,0,0,0-1.359-.418,5.812,5.812,0,0,0-1.309.148,9.2,9.2,0,0,0-1.332.422V31.516q.258-.094.574-.184t.668-.16q.352-.07.734-.113a6.928,6.928,0,0,1,.773-.043,4.851,4.851,0,0,1,1.281.156,2.6,2.6,0,0,1,.965.477,2.1,2.1,0,0,1,.605.8,2.84,2.84,0,0,1,.211,1.141V39Zm-.148-3.57h-1.727a3.311,3.311,0,0,0-.875.1,1.661,1.661,0,0,0-.6.289,1.16,1.16,0,0,0-.348.449,1.471,1.471,0,0,0-.113.59,1.339,1.339,0,0,0,.07.434.964.964,0,0,0,.227.367,1.094,1.094,0,0,0,.406.254,1.743,1.743,0,0,0,.609.094,2.576,2.576,0,0,0,1.074-.285,5.249,5.249,0,0,0,1.277-.9ZM198.57,42.2h-1.281v-16h1.281ZM219,34.664q0,.289-.008.484t-.023.367h-5.508a2.441,2.441,0,0,0,.672,1.848,2.69,2.69,0,0,0,1.938.645q.344,0,.688-.027t.664-.074q.32-.047.613-.105t.543-.129v1.117a9.49,9.49,0,0,1-1.254.254,10.47,10.47,0,0,1-1.449.1,4.928,4.928,0,0,1-1.734-.273,2.968,2.968,0,0,1-1.191-.793,3.265,3.265,0,0,1-.687-1.273,6.026,6.026,0,0,1-.223-1.707,5.069,5.069,0,0,1,.238-1.566,3.932,3.932,0,0,1,.7-1.3,3.3,3.3,0,0,1,2.629-1.215,3.827,3.827,0,0,1,1.453.258,2.918,2.918,0,0,1,1.066.73,3.114,3.114,0,0,1,.656,1.148A4.814,4.814,0,0,1,219,34.664Zm-1.414-.2a2.964,2.964,0,0,0-.1-.957,2.014,2.014,0,0,0-.387-.746,1.8,1.8,0,0,0-.652-.488,2.189,2.189,0,0,0-.906-.176,1.893,1.893,0,0,0-.812.172,1.853,1.853,0,0,0-.633.484,2.5,2.5,0,0,0-.43.75,3.458,3.458,0,0,0-.2.961Zm3.188.773a5.342,5.342,0,0,1,.273-1.777,3.654,3.654,0,0,1,.777-1.312,3.29,3.29,0,0,1,1.211-.812,4.278,4.278,0,0,1,1.574-.277,5.764,5.764,0,0,1,.738.047,4.772,4.772,0,0,1,.715.148v-3.3h1.367V39h-1.219l-.047-1.484a4.11,4.11,0,0,1-1.234,1.227,2.744,2.744,0,0,1-1.437.4,2.33,2.33,0,0,1-2.035-1.074,3.806,3.806,0,0,1-.512-1.23A6.859,6.859,0,0,1,220.773,35.242Zm1.391-.086a4.232,4.232,0,0,0,.418,2.121,1.31,1.31,0,0,0,1.184.7,1.777,1.777,0,0,0,1.09-.461,6.594,6.594,0,0,0,1.207-1.367V32.508a3.305,3.305,0,0,0-.742-.238,4.057,4.057,0,0,0-.8-.082,2.165,2.165,0,0,0-1.73.719A3.39,3.39,0,0,0,222.164,35.156ZM235.008,39l-.031-1.055a4.251,4.251,0,0,1-1.3.914,3.5,3.5,0,0,1-1.387.281,3.4,3.4,0,0,1-1.148-.172,2.152,2.152,0,0,1-.785-.473,1.832,1.832,0,0,1-.453-.707,2.616,2.616,0,0,1-.145-.883,2.191,2.191,0,0,1,.879-1.848,4.251,4.251,0,0,1,2.6-.668h1.625V33.7a1.455,1.455,0,0,0-.445-1.113,1.927,1.927,0,0,0-1.359-.418,5.812,5.812,0,0,0-1.309.148,9.2,9.2,0,0,0-1.332.422V31.516q.258-.094.574-.184t.668-.16q.352-.07.734-.113a6.928,6.928,0,0,1,.773-.043,4.851,4.851,0,0,1,1.281.156,2.6,2.6,0,0,1,.965.477,2.1,2.1,0,0,1,.605.8,2.84,2.84,0,0,1,.211,1.141V39Zm-.148-3.57h-1.727a3.311,3.311,0,0,0-.875.1,1.661,1.661,0,0,0-.6.289,1.16,1.16,0,0,0-.348.449,1.471,1.471,0,0,0-.113.59,1.339,1.339,0,0,0,.07.434.964.964,0,0,0,.227.367,1.094,1.094,0,0,0,.406.254,1.743,1.743,0,0,0,.609.094,2.576,2.576,0,0,0,1.074-.285,5.249,5.249,0,0,0,1.277-.9Zm3.508-.187a5.342,5.342,0,0,1,.273-1.777,3.654,3.654,0,0,1,.777-1.312,3.29,3.29,0,0,1,1.211-.812,4.278,4.278,0,0,1,1.574-.277,5.764,5.764,0,0,1,.738.047,4.772,4.772,0,0,1,.715.148v-3.3h1.367V39H243.8l-.047-1.484a4.11,4.11,0,0,1-1.234,1.227,2.744,2.744,0,0,1-1.437.4,2.33,2.33,0,0,1-2.035-1.074,3.806,3.806,0,0,1-.512-1.23A6.859,6.859,0,0,1,238.367,35.242Zm1.391-.086a4.232,4.232,0,0,0,.418,2.121,1.31,1.31,0,0,0,1.184.7,1.777,1.777,0,0,0,1.09-.461,6.594,6.594,0,0,0,1.207-1.367V32.508a3.305,3.305,0,0,0-.742-.238,4.057,4.057,0,0,0-.8-.082,2.165,2.165,0,0,0-1.73.719A3.39,3.39,0,0,0,239.758,35.156ZM260.148,42.2h-1.281v-16h1.281ZM8.141,59.336H5.07v3.188H3.727V59.336H.656V58.148h3.07V54.984H5.07v3.164h3.07Zm7.391.047H10.859V58.1h4.672Zm8.8,0H19.656V58.1h4.672Zm8.8,0H28.453V58.1h4.672Zm8.8,0H37.25V58.1h4.672Zm8.8,0H46.047V58.1h4.672Zm8.8,0H54.844V58.1h4.672Zm8.8,0H63.641V58.1h4.672Zm8.8,0H72.438V58.1h4.672Zm10.2-.047h-3.07v3.188H82.9V59.336h-3.07V58.148H82.9V54.984h1.344v3.164h3.07Zm7.391.047H90.031V58.1H94.7Zm8.8,0H98.828V58.1H103.5Zm8.8,0h-4.672V58.1H112.3Zm8.8,0h-4.672V58.1h4.672Zm8.8,0h-4.672V58.1h4.672Zm8.8,0h-4.672V58.1h4.672Zm8.8,0h-4.672V58.1h4.672Zm8.8,0h-4.672V58.1h4.672Zm8.8,0h-4.672V58.1h4.672Zm8.8,0H169.2V58.1h4.672Zm8.8,0H178V58.1h4.672Zm8.8,0H186.8V58.1h4.672Zm10.2-.047H198.6v3.188h-1.344V59.336h-3.07V58.148h3.07V54.984H198.6v3.164h3.07Zm7.391.047h-4.672V58.1h4.672Zm8.8,0h-4.672V58.1h4.672Zm8.8,0h-4.672V58.1h4.672Zm8.8,0h-4.672V58.1h4.672Zm8.8,0h-4.672V58.1h4.672Zm8.8,0h-4.672V58.1h4.672Zm10.2-.047h-3.07v3.188h-1.344V59.336h-3.07V58.148h3.07V54.984h1.344v3.164h3.07ZM5.039,90.2H3.758v-16H5.039ZM24.953,77.977H20.617v3.313h4.109v1.164H20.617V87H19.2V76.789h5.758ZM33.945,87H32.727l-.047-1.266a6.331,6.331,0,0,1-.668.676,3.453,3.453,0,0,1-.629.434,2.422,2.422,0,0,1-.629.23,3.246,3.246,0,0,1-.668.066,2.29,2.29,0,0,1-1.828-.711,3.205,3.205,0,0,1-.617-2.148V79.156H29v5.016q0,1.8,1.359,1.8a1.633,1.633,0,0,0,.488-.074,1.833,1.833,0,0,0,.5-.258,3.956,3.956,0,0,0,.563-.5q.3-.313.676-.789v-5.2h1.359Zm5.164-9.922h-2.32V75.961h3.7v9.906H42.82V87H36.531V85.867h2.578ZM50.273,87l-.031-1.055a4.252,4.252,0,0,1-1.3.914,3.5,3.5,0,0,1-1.387.281,3.4,3.4,0,0,1-1.148-.172,2.152,2.152,0,0,1-.785-.473,1.832,1.832,0,0,1-.453-.707,2.616,2.616,0,0,1-.145-.883,2.191,2.191,0,0,1,.879-1.848,4.251,4.251,0,0,1,2.6-.668h1.625V81.7a1.455,1.455,0,0,0-.445-1.113,1.927,1.927,0,0,0-1.359-.418,5.812,5.812,0,0,0-1.309.148,9.2,9.2,0,0,0-1.332.422V79.516q.258-.094.574-.184t.668-.16q.352-.07.734-.113a6.928,6.928,0,0,1,.773-.043,4.851,4.851,0,0,1,1.281.156,2.6,2.6,0,0,1,.965.477,2.1,2.1,0,0,1,.605.8,2.84,2.84,0,0,1,.211,1.141V87Zm-.148-3.57H48.4a3.31,3.31,0,0,0-.875.1,1.661,1.661,0,0,0-.6.289,1.16,1.16,0,0,0-.348.449,1.471,1.471,0,0,0-.113.59,1.339,1.339,0,0,0,.07.434.964.964,0,0,0,.227.367,1.094,1.094,0,0,0,.406.254,1.743,1.743,0,0,0,.609.094,2.576,2.576,0,0,0,1.074-.285,5.248,5.248,0,0,0,1.277-.9Zm3.906-4.273h1.211l.055,1.266a5.663,5.663,0,0,1,.664-.676,3.641,3.641,0,0,1,.629-.434,2.355,2.355,0,0,1,.629-.23,3.263,3.263,0,0,1,.664-.066,2.3,2.3,0,0,1,1.832.715,3.207,3.207,0,0,1,.621,2.152V87H58.977V81.992a2.21,2.21,0,0,0-.344-1.363,1.217,1.217,0,0,0-1.023-.441,1.633,1.633,0,0,0-.488.074,1.78,1.78,0,0,0-.5.258,4.1,4.1,0,0,0-.559.5q-.3.313-.676.781V87H54.031Zm15.625,3.859a5.2,5.2,0,0,1-.258,1.676,3.728,3.728,0,0,1-.742,1.3,3.33,3.33,0,0,1-1.18.844,3.939,3.939,0,0,1-1.578.3,4.117,4.117,0,0,1-1.512-.262,2.991,2.991,0,0,1-1.133-.77,3.406,3.406,0,0,1-.711-1.258,5.536,5.536,0,0,1-.246-1.727,5.129,5.129,0,0,1,.258-1.668,3.739,3.739,0,0,1,.742-1.3,3.33,3.33,0,0,1,1.18-.844,3.939,3.939,0,0,1,1.578-.3,4.117,4.117,0,0,1,1.512.262,3.012,3.012,0,0,1,1.133.766A3.368,3.368,0,0,1,69.41,81.3,5.508,5.508,0,0,1,69.656,83.016Zm-1.391.063a4.506,4.506,0,0,0-.16-1.27,2.557,2.557,0,0,0-.457-.906,1.885,1.885,0,0,0-.723-.547,2.373,2.373,0,0,0-.949-.184,2.136,2.136,0,0,0-1.043.238,2.065,2.065,0,0,0-.711.637,2.744,2.744,0,0,0-.406.926,4.64,4.64,0,0,0-.129,1.105,4.548,4.548,0,0,0,.16,1.273,2.555,2.555,0,0,0,.457.91,1.892,1.892,0,0,0,.719.547,2.366,2.366,0,0,0,.953.184,2.136,2.136,0,0,0,1.043-.238,2.065,2.065,0,0,0,.711-.637,2.744,2.744,0,0,0,.406-.926A4.674,4.674,0,0,0,68.266,83.078ZM84.211,90.2H82.93v-16h1.281ZM104.555,87H98.141V85.734h2.625V78.281L98.32,79.609l-.5-1.156,3.25-1.711h1.2v8.992h2.281Zm8.828-5.68a8.125,8.125,0,0,1-.359,2.566,4.372,4.372,0,0,1-1.062,1.766,4.274,4.274,0,0,1-1.742,1.02,7.972,7.972,0,0,1-2.4.328h-.852V85.813h.945a6.587,6.587,0,0,0,1.742-.2,3.334,3.334,0,0,0,1.223-.6,2.61,2.61,0,0,0,.746-.961,3.912,3.912,0,0,0,.32-1.293l.031-.32a4.665,4.665,0,0,1-1.133.465,5.241,5.241,0,0,1-1.391.176,3.755,3.755,0,0,1-1.359-.227,2.556,2.556,0,0,1-1.555-1.6,3.657,3.657,0,0,1-.2-1.215,3.411,3.411,0,0,1,.258-1.328,3.241,3.241,0,0,1,.723-1.074,3.413,3.413,0,0,1,1.113-.723,3.737,3.737,0,0,1,1.43-.266,3.845,3.845,0,0,1,1.4.25,2.725,2.725,0,0,1,1.113.809,4.01,4.01,0,0,1,.734,1.449A7.651,7.651,0,0,1,113.383,81.32ZM109.8,77.766a2.209,2.209,0,0,0-.809.145,1.785,1.785,0,0,0-.641.422,1.992,1.992,0,0,0-.426.684,2.577,2.577,0,0,0-.156.93,2.944,2.944,0,0,0,.113.852,1.63,1.63,0,0,0,.352.637,1.547,1.547,0,0,0,.613.4,2.537,2.537,0,0,0,.891.141,3.423,3.423,0,0,0,.6-.055,4.646,4.646,0,0,0,1.16-.367,3.7,3.7,0,0,0,.477-.266,8.019,8.019,0,0,0-.148-1.684,3.088,3.088,0,0,0-.43-1.086,1.581,1.581,0,0,0-.684-.582A2.3,2.3,0,0,0,109.8,77.766Zm12.375.289L117.9,87h-1.555l4.445-8.945h-5.516V76.789h6.906Zm9.359,6.688H129.8V87h-1.391V84.742h-4.914v-1.2l4.352-6.758H129.8v6.758h1.742ZM128.406,78.1l-3.555,5.445h3.555Zm10.281,5.281h-4.672V82.1h4.672ZM148.859,81.9a9.056,9.056,0,0,1-.234,2.137,4.948,4.948,0,0,1-.711,1.656,3.343,3.343,0,0,1-1.184,1.07,3.464,3.464,0,0,1-1.66.379,3.533,3.533,0,0,1-1.492-.309,2.964,2.964,0,0,1-1.148-.949,4.687,4.687,0,0,1-.734-1.633,9.433,9.433,0,0,1-.258-2.352,8.963,8.963,0,0,1,.238-2.141,5.054,5.054,0,0,1,.711-1.66,3.3,3.3,0,0,1,1.184-1.07,3.47,3.47,0,0,1,1.656-.379,3.533,3.533,0,0,1,1.492.309,2.952,2.952,0,0,1,1.148.953,4.73,4.73,0,0,1,.734,1.637A9.433,9.433,0,0,1,148.859,81.9Zm-1.375.047q0-.266-.02-.527t-.043-.512l-4.32,3.211a4.018,4.018,0,0,0,.3.75,2.292,2.292,0,0,0,.434.59,1.865,1.865,0,0,0,.578.383,1.885,1.885,0,0,0,.738.137,1.852,1.852,0,0,0,.965-.258,2.153,2.153,0,0,0,.738-.766,4.173,4.173,0,0,0,.469-1.262A8.275,8.275,0,0,0,147.484,81.945Zm-4.672-.094q0,.242,0,.484t.027.469l4.32-3.2a3.655,3.655,0,0,0-.3-.727,2.3,2.3,0,0,0-.43-.566,1.914,1.914,0,0,0-2.254-.246,2.145,2.145,0,0,0-.738.77,4.226,4.226,0,0,0-.469,1.266A8.275,8.275,0,0,0,142.813,81.852Zm15.117,2.891h-1.742V87H154.8V84.742h-4.914v-1.2l4.352-6.758h1.953v6.758h1.742ZM154.8,78.1l-3.555,5.445H154.8Zm10.281,5.281h-4.672V82.1h4.672ZM174.93,87h-6.414V85.734h2.625V78.281L168.7,79.609l-.5-1.156,3.25-1.711h1.2v8.992h2.281Zm8.883,0h-6.727V85.781l2.641-2.625q.648-.641,1.055-1.109a5.891,5.891,0,0,0,.633-.855,2.605,2.605,0,0,0,.3-.73,3.346,3.346,0,0,0,.078-.742,2.484,2.484,0,0,0-.1-.715,1.7,1.7,0,0,0-.312-.6,1.449,1.449,0,0,0-.547-.406,1.982,1.982,0,0,0-.8-.148,2.428,2.428,0,0,0-1.18.289,4.041,4.041,0,0,0-.977.75l-.75-.9a4.6,4.6,0,0,1,1.332-.977,3.961,3.961,0,0,1,1.754-.367,3.6,3.6,0,0,1,1.238.2,2.767,2.767,0,0,1,.965.586,2.6,2.6,0,0,1,.629.938,3.331,3.331,0,0,1,.223,1.25,3.624,3.624,0,0,1-.156,1.086,4.167,4.167,0,0,1-.473,1,7.814,7.814,0,0,1-.8,1.027q-.48.531-1.137,1.164l-1.852,1.8h4.961Zm14.758,3.2h-1.281v-16h1.281ZM236.594,87h-6.727V85.781l2.641-2.625q.648-.641,1.055-1.109a5.891,5.891,0,0,0,.633-.855,2.605,2.605,0,0,0,.3-.73,3.346,3.346,0,0,0,.078-.742,2.484,2.484,0,0,0-.1-.715,1.7,1.7,0,0,0-.312-.6,1.449,1.449,0,0,0-.547-.406,1.982,1.982,0,0,0-.8-.148,2.428,2.428,0,0,0-1.18.289,4.041,4.041,0,0,0-.977.75l-.75-.9a4.6,4.6,0,0,1,1.332-.977,3.961,3.961,0,0,1,1.754-.367,3.6,3.6,0,0,1,1.238.2,2.767,2.767,0,0,1,.965.586,2.6,2.6,0,0,1,.629.938,3.331,3.331,0,0,1,.223,1.25,3.624,3.624,0,0,1-.156,1.086,4.167,4.167,0,0,1-.473,1,7.814,7.814,0,0,1-.8,1.027q-.48.531-1.137,1.164l-1.852,1.8h4.961Zm8.8-2.562a2.368,2.368,0,0,1-1.008,2,3.5,3.5,0,0,1-1.125.523,5.735,5.735,0,0,1-2.879-.008,3.163,3.163,0,0,1-1.066-.523,2.206,2.206,0,0,1-.648-.8,2.339,2.339,0,0,1-.219-1.016A2.573,2.573,0,0,1,238.969,83a4.663,4.663,0,0,1,1.617-1.234,4.081,4.081,0,0,1-1.461-1.129,2.361,2.361,0,0,1,.355-3.2,3.071,3.071,0,0,1,1.027-.574,4.425,4.425,0,0,1,1.453-.215,5.146,5.146,0,0,1,1.387.168,2.927,2.927,0,0,1,1,.48,1.988,1.988,0,0,1,.609.758,2.548,2.548,0,0,1-.293,2.508,4.224,4.224,0,0,1-1.41,1.094,6.671,6.671,0,0,1,.844.5,3.657,3.657,0,0,1,.68.609,2.476,2.476,0,0,1,.609,1.672Zm-1.617-5.281a1.176,1.176,0,0,0-.488-1.035,2.935,2.935,0,0,0-2.734,0,1.142,1.142,0,0,0-.488,1.008,1.343,1.343,0,0,0,.117.563,1.516,1.516,0,0,0,.363.484,3.7,3.7,0,0,0,.613.445,8.452,8.452,0,0,0,.875.445,4.41,4.41,0,0,0,1.313-.863A1.463,1.463,0,0,0,243.773,79.156Zm.141,5.383a1.723,1.723,0,0,0-.094-.562,1.562,1.562,0,0,0-.336-.539,3.373,3.373,0,0,0-.648-.531,7.636,7.636,0,0,0-1.031-.547,6.612,6.612,0,0,0-.895.512,3.084,3.084,0,0,0-.586.516,1.642,1.642,0,0,0-.316.543,1.865,1.865,0,0,0-.094.594,1.24,1.24,0,0,0,.152.621,1.4,1.4,0,0,0,.418.457,1.9,1.9,0,0,0,.633.281,3.215,3.215,0,0,0,.8.094,3.421,3.421,0,0,0,.781-.086,1.983,1.983,0,0,0,.637-.262,1.312,1.312,0,0,0,.426-.445A1.264,1.264,0,0,0,243.914,84.539ZM260.148,90.2h-1.281v-16h1.281ZM5.039,114.2H3.758v-16H5.039Zm20.68-12.227H22.7V111H21.289v-9.023H18.266v-1.187h7.453ZM33.945,111H32.727l-.047-1.266a6.331,6.331,0,0,1-.668.676,3.453,3.453,0,0,1-.629.434,2.422,2.422,0,0,1-.629.23,3.246,3.246,0,0,1-.668.066,2.29,2.29,0,0,1-1.828-.711,3.205,3.205,0,0,1-.617-2.148v-5.125H29v5.016q0,1.8,1.359,1.8a1.633,1.633,0,0,0,.488-.074,1.833,1.833,0,0,0,.5-.258,3.956,3.956,0,0,0,.563-.5q.3-.313.676-.789v-5.2h1.359Zm5.164-9.922h-2.32V99.961h3.7v9.906H42.82V111H36.531v-1.133h2.578ZM50.273,111l-.031-1.055a4.252,4.252,0,0,1-1.3.914,3.5,3.5,0,0,1-1.387.281,3.4,3.4,0,0,1-1.148-.172,2.152,2.152,0,0,1-.785-.473,1.832,1.832,0,0,1-.453-.707,2.616,2.616,0,0,1-.145-.883,2.191,2.191,0,0,1,.879-1.848,4.251,4.251,0,0,1,2.6-.668h1.625V105.7a1.455,1.455,0,0,0-.445-1.113,1.927,1.927,0,0,0-1.359-.418,5.812,5.812,0,0,0-1.309.148,9.2,9.2,0,0,0-1.332.422v-1.227q.258-.094.574-.184t.668-.16q.352-.07.734-.113a6.928,6.928,0,0,1,.773-.043,4.851,4.851,0,0,1,1.281.156,2.6,2.6,0,0,1,.965.477,2.1,2.1,0,0,1,.605.8,2.84,2.84,0,0,1,.211,1.141V111Zm-.148-3.57H48.4a3.31,3.31,0,0,0-.875.1,1.661,1.661,0,0,0-.6.289,1.16,1.16,0,0,0-.348.449,1.471,1.471,0,0,0-.113.59,1.339,1.339,0,0,0,.07.434.964.964,0,0,0,.227.367,1.094,1.094,0,0,0,.406.254,1.743,1.743,0,0,0,.609.094,2.576,2.576,0,0,0,1.074-.285,5.248,5.248,0,0,0,1.277-.9Zm3.906-4.273h1.211l.055,1.266a5.663,5.663,0,0,1,.664-.676,3.641,3.641,0,0,1,.629-.434,2.355,2.355,0,0,1,.629-.23,3.263,3.263,0,0,1,.664-.066,2.3,2.3,0,0,1,1.832.715,3.207,3.207,0,0,1,.621,2.152V111H58.977v-5.008a2.21,2.21,0,0,0-.344-1.363,1.217,1.217,0,0,0-1.023-.441,1.633,1.633,0,0,0-.488.074,1.78,1.78,0,0,0-.5.258,4.1,4.1,0,0,0-.559.5q-.3.313-.676.781V111H54.031Zm15.625,3.859a5.2,5.2,0,0,1-.258,1.676,3.728,3.728,0,0,1-.742,1.3,3.33,3.33,0,0,1-1.18.844,3.939,3.939,0,0,1-1.578.3,4.117,4.117,0,0,1-1.512-.262,2.991,2.991,0,0,1-1.133-.77,3.406,3.406,0,0,1-.711-1.258,5.536,5.536,0,0,1-.246-1.727,5.129,5.129,0,0,1,.258-1.668,3.739,3.739,0,0,1,.742-1.3,3.33,3.33,0,0,1,1.18-.844,3.939,3.939,0,0,1,1.578-.3,4.117,4.117,0,0,1,1.512.262,3.012,3.012,0,0,1,1.133.766,3.368,3.368,0,0,1,.711,1.254A5.508,5.508,0,0,1,69.656,107.016Zm-1.391.063a4.506,4.506,0,0,0-.16-1.27,2.557,2.557,0,0,0-.457-.906,1.885,1.885,0,0,0-.723-.547,2.373,2.373,0,0,0-.949-.184,2.136,2.136,0,0,0-1.043.238,2.065,2.065,0,0,0-.711.637,2.744,2.744,0,0,0-.406.926,4.64,4.64,0,0,0-.129,1.105,4.548,4.548,0,0,0,.16,1.273,2.555,2.555,0,0,0,.457.91,1.892,1.892,0,0,0,.719.547,2.366,2.366,0,0,0,.953.184,2.136,2.136,0,0,0,1.043-.238,2.065,2.065,0,0,0,.711-.637,2.744,2.744,0,0,0,.406-.926A4.674,4.674,0,0,0,68.266,107.078ZM84.211,114.2H82.93v-16h1.281Zm20.43-3.2H97.914v-1.219l2.641-2.625q.648-.641,1.055-1.109a5.89,5.89,0,0,0,.633-.855,2.606,2.606,0,0,0,.3-.73,3.345,3.345,0,0,0,.078-.742,2.483,2.483,0,0,0-.1-.715,1.7,1.7,0,0,0-.312-.6,1.449,1.449,0,0,0-.547-.406,1.982,1.982,0,0,0-.8-.148,2.428,2.428,0,0,0-1.18.289,4.041,4.041,0,0,0-.977.75l-.75-.9a4.6,4.6,0,0,1,1.332-.977,3.961,3.961,0,0,1,1.754-.367,3.6,3.6,0,0,1,1.238.2,2.767,2.767,0,0,1,.965.586,2.6,2.6,0,0,1,.629.938,3.331,3.331,0,0,1,.223,1.25,3.624,3.624,0,0,1-.156,1.086,4.167,4.167,0,0,1-.473,1,7.814,7.814,0,0,1-.8,1.027q-.48.531-1.137,1.164l-1.852,1.8h4.961Zm9.031-5.1a9.056,9.056,0,0,1-.234,2.137,4.948,4.948,0,0,1-.711,1.656,3.343,3.343,0,0,1-1.184,1.07,3.464,3.464,0,0,1-1.66.379,3.533,3.533,0,0,1-1.492-.309,2.965,2.965,0,0,1-1.148-.949,4.687,4.687,0,0,1-.734-1.633,9.433,9.433,0,0,1-.258-2.352,8.963,8.963,0,0,1,.238-2.141,5.054,5.054,0,0,1,.711-1.66,3.3,3.3,0,0,1,1.184-1.07,3.47,3.47,0,0,1,1.656-.379,3.533,3.533,0,0,1,1.492.309,2.953,2.953,0,0,1,1.148.953,4.73,4.73,0,0,1,.734,1.637A9.433,9.433,0,0,1,113.672,105.9Zm-1.375.047q0-.266-.02-.527t-.043-.512l-4.32,3.211a4.019,4.019,0,0,0,.3.75,2.291,2.291,0,0,0,.434.59,1.865,1.865,0,0,0,.578.383,1.885,1.885,0,0,0,.738.137,1.852,1.852,0,0,0,.965-.258,2.153,2.153,0,0,0,.738-.766,4.173,4.173,0,0,0,.469-1.262A8.275,8.275,0,0,0,112.3,105.945Zm-4.672-.094q0,.242,0,.484t.027.469l4.32-3.2a3.655,3.655,0,0,0-.3-.727,2.3,2.3,0,0,0-.43-.566A1.914,1.914,0,0,0,109,102.07a2.145,2.145,0,0,0-.738.77,4.226,4.226,0,0,0-.469,1.266A8.275,8.275,0,0,0,107.625,105.852ZM122.148,111h-6.414v-1.266h2.625v-7.453l-2.445,1.328-.5-1.156,3.25-1.711h1.2v8.992h2.281Zm8.883,0H124.3v-1.219l2.641-2.625q.648-.641,1.055-1.109a5.891,5.891,0,0,0,.633-.855,2.605,2.605,0,0,0,.3-.73,3.346,3.346,0,0,0,.078-.742,2.484,2.484,0,0,0-.1-.715,1.7,1.7,0,0,0-.312-.6,1.449,1.449,0,0,0-.547-.406,1.982,1.982,0,0,0-.8-.148,2.428,2.428,0,0,0-1.18.289,4.041,4.041,0,0,0-.977.75l-.75-.9a4.6,4.6,0,0,1,1.332-.977,3.961,3.961,0,0,1,1.754-.367,3.6,3.6,0,0,1,1.238.2,2.767,2.767,0,0,1,.965.586,2.6,2.6,0,0,1,.629.938,3.331,3.331,0,0,1,.223,1.25,3.624,3.624,0,0,1-.156,1.086,4.167,4.167,0,0,1-.473,1,7.814,7.814,0,0,1-.8,1.027q-.48.531-1.137,1.164l-1.852,1.8h4.961Zm7.656-3.617h-4.672V106.1h4.672ZM148.539,111h-6.414v-1.266h2.625v-7.453l-2.445,1.328-.5-1.156,3.25-1.711h1.2v8.992h2.281Zm8.883,0H150.7v-1.219l2.641-2.625q.648-.641,1.055-1.109a5.891,5.891,0,0,0,.633-.855,2.605,2.605,0,0,0,.3-.73,3.346,3.346,0,0,0,.078-.742,2.484,2.484,0,0,0-.1-.715,1.7,1.7,0,0,0-.312-.6,1.449,1.449,0,0,0-.547-.406,1.982,1.982,0,0,0-.8-.148,2.428,2.428,0,0,0-1.18.289,4.041,4.041,0,0,0-.977.75l-.75-.9a4.6,4.6,0,0,1,1.332-.977,3.961,3.961,0,0,1,1.754-.367,3.6,3.6,0,0,1,1.238.2,2.767,2.767,0,0,1,.965.586,2.6,2.6,0,0,1,.629.938,3.331,3.331,0,0,1,.223,1.25,3.624,3.624,0,0,1-.156,1.086,4.167,4.167,0,0,1-.473,1,7.814,7.814,0,0,1-.8,1.027q-.48.531-1.137,1.164l-1.852,1.8h4.961Zm7.656-3.617h-4.672V106.1h4.672ZM174.93,111h-6.414v-1.266h2.625v-7.453l-2.445,1.328-.5-1.156,3.25-1.711h1.2v8.992h2.281Zm8.883,0h-6.727v-1.219l2.641-2.625q.648-.641,1.055-1.109a5.891,5.891,0,0,0,.633-.855,2.605,2.605,0,0,0,.3-.73,3.346,3.346,0,0,0,.078-.742,2.484,2.484,0,0,0-.1-.715,1.7,1.7,0,0,0-.312-.6,1.449,1.449,0,0,0-.547-.406,1.982,1.982,0,0,0-.8-.148,2.428,2.428,0,0,0-1.18.289,4.041,4.041,0,0,0-.977.75l-.75-.9a4.6,4.6,0,0,1,1.332-.977,3.961,3.961,0,0,1,1.754-.367,3.6,3.6,0,0,1,1.238.2,2.767,2.767,0,0,1,.965.586,2.6,2.6,0,0,1,.629.938,3.331,3.331,0,0,1,.223,1.25,3.624,3.624,0,0,1-.156,1.086,4.167,4.167,0,0,1-.473,1,7.814,7.814,0,0,1-.8,1.027q-.48.531-1.137,1.164l-1.852,1.8h4.961Zm14.758,3.2h-1.281v-16h1.281Zm37.766-6.469a2.929,2.929,0,0,1-.328,1.383,3.3,3.3,0,0,1-.9,1.074,4.307,4.307,0,0,1-1.355.7,5.508,5.508,0,0,1-1.687.25q-.227,0-.488-.012t-.52-.031q-.258-.02-.5-.043t-.441-.055v-1.234a6.563,6.563,0,0,0,.965.148q.543.047,1.1.047a3.95,3.95,0,0,0,1.125-.148,2.514,2.514,0,0,0,.852-.426,1.868,1.868,0,0,0,.539-.672,2.04,2.04,0,0,0,.188-.887,1.52,1.52,0,0,0-.684-1.387,3.683,3.683,0,0,0-1.965-.434h-1.937v-5.219h5.5v1.188H231.57v2.867h.891a7.6,7.6,0,0,1,1.43.133,3.671,3.671,0,0,1,1.238.465,2.559,2.559,0,0,1,.875.891A2.707,2.707,0,0,1,236.336,107.734Zm8.8,0a2.929,2.929,0,0,1-.328,1.383,3.3,3.3,0,0,1-.9,1.074,4.307,4.307,0,0,1-1.355.7,5.508,5.508,0,0,1-1.687.25q-.227,0-.488-.012t-.52-.031q-.258-.02-.5-.043t-.441-.055v-1.234a6.563,6.563,0,0,0,.965.148q.543.047,1.1.047a3.95,3.95,0,0,0,1.125-.148,2.514,2.514,0,0,0,.852-.426,1.868,1.868,0,0,0,.539-.672,2.04,2.04,0,0,0,.188-.887,1.52,1.52,0,0,0-.684-1.387,3.683,3.683,0,0,0-1.965-.434h-1.937v-5.219h5.5v1.188h-4.219v2.867h.891a7.6,7.6,0,0,1,1.43.133,3.671,3.671,0,0,1,1.238.465,2.559,2.559,0,0,1,.875.891A2.707,2.707,0,0,1,245.133,107.734Zm15.016,6.469h-1.281v-16h1.281ZM8.141,131.336H5.07v3.188H3.727v-3.187H.656v-1.187h3.07v-3.164H5.07v3.164h3.07Zm7.391.047H10.859V130.1h4.672Zm8.8,0H19.656V130.1h4.672Zm8.8,0H28.453V130.1h4.672Zm8.8,0H37.25V130.1h4.672Zm8.8,0H46.047V130.1h4.672Zm8.8,0H54.844V130.1h4.672Zm8.8,0H63.641V130.1h4.672Zm8.8,0H72.438V130.1h4.672Zm10.2-.047h-3.07v3.188H82.9v-3.187h-3.07v-1.187H82.9v-3.164h1.344v3.164h3.07Zm7.391.047H90.031V130.1H94.7Zm8.8,0H98.828V130.1H103.5Zm8.8,0h-4.672V130.1H112.3Zm8.8,0h-4.672V130.1h4.672Zm8.8,0h-4.672V130.1h4.672Zm8.8,0h-4.672V130.1h4.672Zm8.8,0h-4.672V130.1h4.672Zm8.8,0h-4.672V130.1h4.672Zm8.8,0h-4.672V130.1h4.672Zm8.8,0H169.2V130.1h4.672Zm8.8,0H178V130.1h4.672Zm8.8,0H186.8V130.1h4.672Zm10.2-.047H198.6v3.188h-1.344v-3.187h-3.07v-1.187h3.07v-3.164H198.6v3.164h3.07Zm7.391.047h-4.672V130.1h4.672Zm8.8,0h-4.672V130.1h4.672Zm8.8,0h-4.672V130.1h4.672Zm8.8,0h-4.672V130.1h4.672Zm8.8,0h-4.672V130.1h4.672Zm8.8,0h-4.672V130.1h4.672Zm10.2-.047h-3.07v3.188h-1.344v-3.187h-3.07v-1.187h3.07v-3.164h1.344v3.164h3.07Z" transform="translate(325 6768)" fill="#f4a338"/>
  </g>
</svg>
