<svg id="Grupo_986546" data-name="Grupo 986546" xmlns="http://www.w3.org/2000/svg" xmlns:xlink="http://www.w3.org/1999/xlink" width="109.261" height="140.684" viewBox="0 0 109.261 140.684">
  <defs>
    <clipPath id="clip-path">
      <rect id="Rectángulo_344957" data-name="Rectángulo 344957" width="109.261" height="140.684" fill="#fff"/>
    </clipPath>
  </defs>
  <g id="Grupo_986546-2" data-name="Grupo 986546" clip-path="url(#clip-path)">
    <path id="Trazado_659673" data-name="Trazado 659673" d="M4.631,0H77.68a23.469,23.469,0,0,1,2.557,1.947q12.956,12.9,25.87,25.84c1.359,1.355,2.685,2.693,3.154,4.636V136.286c-1.22,3.126-3.6,4.4-6.851,4.4q-47.769-.016-95.538-.007c-.458,0-.917.013-1.372-.021a5.791,5.791,0,0,1-5.49-5.867Q.008,71.4,0,8.021C0,4.417,1,1.467,4.631,0m70.55,4.906H7.386c-2.08,0-2.329.23-2.468,2.3-.021.319-.01.641-.01.961q0,42.445,0,84.89V94.47h99.311V34.087H75.881a8.635,8.635,0,0,1,1.8,6.014c-.06,2.609-.02,5.22-.013,7.829.009,3.225,1.562,4.974,4.778,5.4a2.453,2.453,0,0,1-.021,4.906c-3.11.384-4.744,2.19-4.756,5.29-.012,3.068.031,6.136-.016,9.2a7.224,7.224,0,0,1-7.341,7.261,2.25,2.25,0,0,1-2.3-2.085,2.3,2.3,0,0,1,1.861-2.62c2.656-.7,2.889-1.007,2.89-3.776,0-1.877.055-3.757-.012-5.631-.133-3.759.23-7.337,3.3-9.982-3.068-4.237-3.284-4.842-3.284-9.1q0-3.571,0-7.143c0-2.235-.43-2.77-2.613-3.31-1.625-.4-2.35-1.367-2.111-2.806a2.225,2.225,0,0,1,2.811-1.912,33.411,33.411,0,0,1,4.336,1.279ZM4.908,99.514v1.373q0,16.348,0,32.7c0,2.007.188,2.193,2.2,2.193h95.011c2.011,0,2.2-.185,2.2-2.189q0-16.348,0-32.7c0-.443-.04-.885-.064-1.377Zm94.857-70.4L80.209,9.551V29.063c.308.021.529.05.75.05,6.356,0,12.711,0,18.805,0" transform="translate(0)" fill="#fff"/>
    <path id="Trazado_659674" data-name="Trazado 659674" d="M88.344,138.876c2.776,2.514,3.517,5.557,3.39,8.959-.091,2.421-.026,4.848-.015,7.273.009,2.018.559,2.71,2.466,3.169,1.641.395,2.523,1.388,2.367,2.663-.181,1.47-1.313,2.242-3.11,2.122a7.263,7.263,0,0,1-6.615-7.436c-.057-3.018,0-6.038-.016-9.058-.015-3.057-1.642-4.881-4.639-5.235-1.662-.2-2.557-1.072-2.542-2.487.014-1.356.9-2.223,2.469-2.426,3.13-.4,4.7-2.156,4.713-5.294.012-2.973-.034-5.947.013-8.92.069-4.294,3.137-7.528,7.091-7.548a2.418,2.418,0,0,1,2.616,2.089,2.387,2.387,0,0,1-2.007,2.648c-2.408.621-2.8,1.125-2.806,3.591,0,2.058-.072,4.12.015,6.175.155,3.643-.333,7.041-3.388,9.715" transform="translate(-57.706 -83.092)" fill="#fff"/>
    <path id="Trazado_659675" data-name="Trazado 659675" d="M185.226,226.363c0-1.232-.061-2.468.016-3.7a2.263,2.263,0,0,1,2.269-2.266,2.153,2.153,0,0,1,2.426,2.064c.125,2.635.118,5.285,0,7.921a2.27,2.27,0,0,1-2.419,2.108,2.37,2.37,0,0,1-2.275-2.3c-.074-1.273-.016-2.555-.017-3.832" transform="translate(-134.215 -159.721)" fill="#fff"/>
    <path id="Trazado_659676" data-name="Trazado 659676" d="M184.357,158.676a3.7,3.7,0,0,1,3.591,3.712,3.665,3.665,0,1,1-3.591-3.712" transform="translate(-130.893 -114.991)" fill="#fff"/>
    <path id="Trazado_659677" data-name="Trazado 659677" d="M281.367,386.9a24.338,24.338,0,0,1,3.344.048,2.117,2.117,0,0,1,1.235,1.025c2.677,4.628,5.3,9.283,7.949,13.929a2.837,2.837,0,0,0,.922,1.052V387.018h4.021v24.364a32.928,32.928,0,0,1-3.493-.046c-.366-.039-.766-.565-.993-.959-2.687-4.674-5.343-9.367-8.01-14.053-.22-.386-.457-.763-.893-1.487v16.434h-4.084Z" transform="translate(-203.905 -280.36)" fill="#fff"/>
    <path id="Trazado_659678" data-name="Trazado 659678" d="M195.772,410.218a8.73,8.73,0,0,1-8.051-5.961c-1.938-4.96-2.031-10.014.863-14.6a9.45,9.45,0,0,1,16.347.394,15.433,15.433,0,0,1-.454,16.163c-1.69,2.759-4.59,4.066-8.706,4.007m.762-3.291a5.291,5.291,0,0,0,5.22-3.684,15.481,15.481,0,0,0,.264-10.206c-.907-2.987-2.82-4.493-5.351-4.466-2.625.027-4.48,1.451-5.4,4.415a15.38,15.38,0,0,0,.281,10.336,5.205,5.205,0,0,0,4.989,3.606" transform="translate(-135.031 -279.108)" fill="#fff"/>
    <path id="Trazado_659679" data-name="Trazado 659679" d="M122.881,406.214c2.388.281,4.571.641,6.766.757a2.7,2.7,0,0,0,2.762-2.071c.4-1.319.39-2.7-.835-3.63-1.009-.768-2.15-1.363-3.23-2.038a31.1,31.1,0,0,1-3.684-2.349,6.332,6.332,0,0,1,1.073-10.494c3.142-1.7,6.327-1.2,9.715.084l-1.4,2.728c-1.588-.149-2.926-.376-4.263-.373a3.553,3.553,0,0,0-3.448,2.626,3.085,3.085,0,0,0,1.64,3.578c1.431.885,2.977,1.584,4.473,2.365,5.359,2.8,4.682,8.556,1.565,11.128-2.315,1.91-5.022,1.966-7.8,1.648a7.141,7.141,0,0,1-1.589-.391c-2.811-1.011-2.685-1.013-1.739-3.57" transform="translate(-88.611 -279.225)" fill="#fff"/>
    <path id="Trazado_659680" data-name="Trazado 659680" d="M47.318,408.329l1.567-2.492c1.622.4,3.14.855,4.69,1.129A6.489,6.489,0,0,0,56,406.858c1.55-.332,2.177-1.236,2.182-3.01.014-5.579.006-11.159.006-16.738,0-.494,0-.989,0-1.569H62.2c.027.373.08.765.08,1.158q.008,8.575,0,17.15c-.01,4.23-2.065,6.347-6.305,6.632a14.805,14.805,0,0,1-8.656-2.151" transform="translate(-34.291 -279.398)" fill="#fff"/>
  </g>
</svg>
