<svg xmlns="http://www.w3.org/2000/svg" width="201.016" height="103.539" viewBox="0 0 201.016 103.539">
  <g id="Grupo_986596" data-name="Grupo 986596" transform="translate(-430.656 -7224.284)">
    <path id="Trazado_659728" data-name="Trazado 659728" d="M8.141,11.336H5.07v3.188H3.727V11.336H.656V10.148h3.07V6.984H5.07v3.164h3.07Zm7.391.047H10.859V10.1h4.672Zm8.8,0H19.656V10.1h4.672Zm8.8,0H28.453V10.1h4.672Zm8.8,0H37.25V10.1h4.672Zm8.8,0H46.047V10.1h4.672Zm8.8,0H54.844V10.1h4.672Zm10.2-.047h-3.07v3.188H65.3V11.336h-3.07V10.148H65.3V6.984h1.344v3.164h3.07Zm7.391.047H72.438V10.1h4.672Zm8.8,0H81.234V10.1h4.672Zm8.8,0H90.031V10.1H94.7Zm8.8,0H98.828V10.1H103.5Zm8.8,0h-4.672V10.1H112.3Zm8.8,0h-4.672V10.1h4.672Zm8.8,0h-4.672V10.1h4.672Zm10.2-.047h-3.07v3.188H135.68V11.336h-3.07V10.148h3.07V6.984h1.344v3.164h3.07Zm7.391.047h-4.672V10.1h4.672Zm8.8,0h-4.672V10.1h4.672Zm8.8,0h-4.672V10.1h4.672Zm8.8,0H169.2V10.1h4.672Zm8.8,0H178V10.1h4.672Zm8.8,0H186.8V10.1h4.672Zm10.2-.047H198.6v3.188h-1.344V11.336h-3.07V10.148h3.07V6.984H198.6v3.164h3.07ZM5.039,42.2H3.758v-16H5.039Zm20.68-12.227H22.7V39H21.289V29.977H18.266V28.789h7.453ZM34.6,39h-1.57l-1.523-3.266a3.611,3.611,0,0,0-.352-.621,1.67,1.67,0,0,0-.387-.391,1.377,1.377,0,0,0-.453-.207,2.24,2.24,0,0,0-.551-.062h-.656V39H27.719V28.789h2.734a5.287,5.287,0,0,1,1.531.2,2.886,2.886,0,0,1,1.051.547,2.094,2.094,0,0,1,.6.848,3.026,3.026,0,0,1,.191,1.1,2.859,2.859,0,0,1-.141.9,2.475,2.475,0,0,1-.418.773,2.659,2.659,0,0,1-.687.6,3.142,3.142,0,0,1-.941.379,1.6,1.6,0,0,1,.73.52,5.613,5.613,0,0,1,.613.988Zm-2.227-7.406a1.471,1.471,0,0,0-.512-1.227,2.266,2.266,0,0,0-1.441-.406H29.109v3.375h1.125a3.212,3.212,0,0,0,.887-.113,1.894,1.894,0,0,0,.672-.336,1.522,1.522,0,0,0,.43-.547A1.736,1.736,0,0,0,32.375,31.594Zm10.766,3.852a4.619,4.619,0,0,1-.238,1.527,3.156,3.156,0,0,1-.7,1.164,3.114,3.114,0,0,1-1.129.742,4.187,4.187,0,0,1-1.535.262,4.608,4.608,0,0,1-1.617-.25,2.748,2.748,0,0,1-1.082-.707,2.779,2.779,0,0,1-.609-1.1,4.985,4.985,0,0,1-.191-1.43V28.789H37.43v6.758a4.377,4.377,0,0,0,.113,1.055,1.846,1.846,0,0,0,.371.758,1.6,1.6,0,0,0,.668.461,2.832,2.832,0,0,0,1,.156,2,2,0,0,0,1.637-.641,2.766,2.766,0,0,0,.527-1.8V28.789h1.391ZM51.359,39h-5.8V28.789h5.8v1.172H46.945v3.164h4.242V34.3H46.945v3.516h4.414Zm15.258,3.2H65.336v-16h1.281ZM86.531,29.977H82.2v3.313H86.3v1.164H82.2V39H80.773V28.789h5.758ZM96.688,39H95.172l-.711-2.227h-4.25L89.492,39H88.047l3.391-10.211h1.906Zm-2.625-3.469L92.336,30.07l-1.727,5.461ZM104.461,39H98.586V28.789H100v9.023h4.461Zm8.891-2.766a2.628,2.628,0,0,1-.3,1.273,2.587,2.587,0,0,1-.828.91,3.831,3.831,0,0,1-1.277.543,7.024,7.024,0,0,1-1.645.18q-.406,0-.809-.031t-.773-.078q-.371-.047-.7-.109t-.594-.133V37.445a7.278,7.278,0,0,0,1.316.344,9.913,9.913,0,0,0,1.66.125,5.336,5.336,0,0,0,1.145-.105,2.2,2.2,0,0,0,.773-.312,1.24,1.24,0,0,0,.438-.5,1.608,1.608,0,0,0,.137-.68,1.109,1.109,0,0,0-.23-.707,2.272,2.272,0,0,0-.605-.523,5.571,5.571,0,0,0-.855-.422q-.48-.191-.98-.395t-.98-.441a4.054,4.054,0,0,1-.855-.562,2.6,2.6,0,0,1-.605-.762,2.2,2.2,0,0,1-.23-1.039,2.585,2.585,0,0,1,.219-1.031,2.471,2.471,0,0,1,.68-.9,3.519,3.519,0,0,1,1.184-.637,5.443,5.443,0,0,1,1.723-.242q.258,0,.559.023t.609.066q.309.043.609.1t.559.117V30.2a9.466,9.466,0,0,0-1.2-.262,7.88,7.88,0,0,0-1.164-.09,3.076,3.076,0,0,0-1.758.4,1.247,1.247,0,0,0-.562,1.07,1.125,1.125,0,0,0,.23.711,2.294,2.294,0,0,0,.605.531,5.345,5.345,0,0,0,.855.426q.48.191.98.395t.98.445a4,4,0,0,1,.855.574,2.666,2.666,0,0,1,.605.777A2.266,2.266,0,0,1,113.352,36.234ZM121.734,39h-5.8V28.789h5.8v1.172H117.32v3.164h4.242V34.3H117.32v3.516h4.414Zm15.258,3.2h-1.281v-16h1.281Zm20.43-3.2h-1.812l-2.977-6.367-.859-2.047V39h-1.3V28.789h1.789L155.1,34.82l1.023,2.336V28.789h1.3Zm8.875-3.555a4.619,4.619,0,0,1-.238,1.527,3.156,3.156,0,0,1-.7,1.164,3.114,3.114,0,0,1-1.129.742,4.187,4.187,0,0,1-1.535.262,4.608,4.608,0,0,1-1.617-.25A2.748,2.748,0,0,1,160,38.184a2.779,2.779,0,0,1-.609-1.1,4.985,4.985,0,0,1-.191-1.43V28.789h1.391v6.758A4.377,4.377,0,0,0,160.7,36.6a1.846,1.846,0,0,0,.371.758,1.6,1.6,0,0,0,.668.461,2.832,2.832,0,0,0,1,.156,2,2,0,0,0,1.637-.641,2.766,2.766,0,0,0,.527-1.8V28.789H166.3ZM174.836,39h-5.875V28.789h1.414v9.023h4.461Zm8.8,0h-5.875V28.789h1.414v9.023h4.461Zm14.938,3.2h-1.281v-16h1.281ZM8.141,59.336H5.07v3.188H3.727V59.336H.656V58.148h3.07V54.984H5.07v3.164h3.07Zm7.391.047H10.859V58.1h4.672Zm8.8,0H19.656V58.1h4.672Zm8.8,0H28.453V58.1h4.672Zm8.8,0H37.25V58.1h4.672Zm8.8,0H46.047V58.1h4.672Zm8.8,0H54.844V58.1h4.672Zm10.2-.047h-3.07v3.188H65.3V59.336h-3.07V58.148H65.3V54.984h1.344v3.164h3.07Zm7.391.047H72.438V58.1h4.672Zm8.8,0H81.234V58.1h4.672Zm8.8,0H90.031V58.1H94.7Zm8.8,0H98.828V58.1H103.5Zm8.8,0h-4.672V58.1H112.3Zm8.8,0h-4.672V58.1h4.672Zm8.8,0h-4.672V58.1h4.672Zm10.2-.047h-3.07v3.188H135.68V59.336h-3.07V58.148h3.07V54.984h1.344v3.164h3.07Zm7.391.047h-4.672V58.1h4.672Zm8.8,0h-4.672V58.1h4.672Zm8.8,0h-4.672V58.1h4.672Zm8.8,0H169.2V58.1h4.672Zm8.8,0H178V58.1h4.672Zm8.8,0H186.8V58.1h4.672Zm10.2-.047H198.6v3.188h-1.344V59.336h-3.07V58.148h3.07V54.984H198.6v3.164h3.07ZM5.039,90.2H3.758v-16H5.039ZM51.773,87H45.359V85.734h2.625V78.281l-2.445,1.328-.5-1.156,3.25-1.711h1.2v8.992h2.281Zm14.844,3.2H65.336v-16h1.281Zm55.852-8.3a9.056,9.056,0,0,1-.234,2.137,4.948,4.948,0,0,1-.711,1.656,3.343,3.343,0,0,1-1.184,1.07,3.464,3.464,0,0,1-1.66.379,3.533,3.533,0,0,1-1.492-.309,2.965,2.965,0,0,1-1.148-.949,4.687,4.687,0,0,1-.734-1.633,9.433,9.433,0,0,1-.258-2.352,8.963,8.963,0,0,1,.238-2.141A5.054,5.054,0,0,1,116,78.1a3.3,3.3,0,0,1,1.184-1.07,3.47,3.47,0,0,1,1.656-.379,3.533,3.533,0,0,1,1.492.309,2.953,2.953,0,0,1,1.148.953,4.73,4.73,0,0,1,.734,1.637A9.433,9.433,0,0,1,122.469,81.9Zm-1.375.047q0-.266-.02-.527t-.043-.512l-4.32,3.211a4.019,4.019,0,0,0,.3.75,2.291,2.291,0,0,0,.434.59,1.865,1.865,0,0,0,.578.383,1.885,1.885,0,0,0,.738.137,1.852,1.852,0,0,0,.965-.258,2.153,2.153,0,0,0,.738-.766,4.173,4.173,0,0,0,.469-1.262A8.275,8.275,0,0,0,121.094,81.945Zm-4.672-.094q0,.242,0,.484t.027.469l4.32-3.2a3.655,3.655,0,0,0-.3-.727,2.3,2.3,0,0,0-.43-.566,1.914,1.914,0,0,0-2.254-.246,2.145,2.145,0,0,0-.738.77,4.226,4.226,0,0,0-.469,1.266A8.275,8.275,0,0,0,116.422,81.852Zm20.57,8.352h-1.281v-16h1.281Zm20.43-3.2h-1.812l-2.977-6.367-.859-2.047V87h-1.3V76.789h1.789L155.1,82.82l1.023,2.336V76.789h1.3Zm8.875-3.555a4.619,4.619,0,0,1-.238,1.527,3.156,3.156,0,0,1-.7,1.164,3.114,3.114,0,0,1-1.129.742,4.187,4.187,0,0,1-1.535.262,4.608,4.608,0,0,1-1.617-.25A2.748,2.748,0,0,1,160,86.184a2.779,2.779,0,0,1-.609-1.1,4.985,4.985,0,0,1-.191-1.43V76.789h1.391v6.758A4.377,4.377,0,0,0,160.7,84.6a1.846,1.846,0,0,0,.371.758,1.6,1.6,0,0,0,.668.461,2.832,2.832,0,0,0,1,.156,2,2,0,0,0,1.637-.641,2.766,2.766,0,0,0,.527-1.8V76.789H166.3ZM174.836,87h-5.875V76.789h1.414v9.023h4.461Zm8.8,0h-5.875V76.789h1.414v9.023h4.461Zm14.938,3.2h-1.281v-16h1.281ZM8.141,107.336H5.07v3.188H3.727v-3.187H.656v-1.187h3.07v-3.164H5.07v3.164h3.07Zm7.391.047H10.859V106.1h4.672Zm8.8,0H19.656V106.1h4.672Zm8.8,0H28.453V106.1h4.672Zm8.8,0H37.25V106.1h4.672Zm8.8,0H46.047V106.1h4.672Zm8.8,0H54.844V106.1h4.672Zm10.2-.047h-3.07v3.188H65.3v-3.187h-3.07v-1.187H65.3v-3.164h1.344v3.164h3.07Zm7.391.047H72.438V106.1h4.672Zm8.8,0H81.234V106.1h4.672Zm8.8,0H90.031V106.1H94.7Zm8.8,0H98.828V106.1H103.5Zm8.8,0h-4.672V106.1H112.3Zm8.8,0h-4.672V106.1h4.672Zm8.8,0h-4.672V106.1h4.672Zm10.2-.047h-3.07v3.188H135.68v-3.187h-3.07v-1.187h3.07v-3.164h1.344v3.164h3.07Zm7.391.047h-4.672V106.1h4.672Zm8.8,0h-4.672V106.1h4.672Zm8.8,0h-4.672V106.1h4.672Zm8.8,0H169.2V106.1h4.672Zm8.8,0H178V106.1h4.672Zm8.8,0H186.8V106.1h4.672Zm10.2-.047H198.6v3.188h-1.344v-3.187h-3.07v-1.187h3.07v-3.164H198.6v3.164h3.07Z" transform="translate(430 7217.3)" fill="#f4a338"/>
  </g>
</svg>
