<svg xmlns="http://www.w3.org/2000/svg" width="420.938" height="103.539" viewBox="0 0 420.938 103.539">
  <g id="Grupo_986598" data-name="Grupo 986598" transform="translate(-3008.656 3466.016)">
    <path id="Trazado_659731" data-name="Trazado 659731" d="M8.141,11.336H5.07v3.188H3.727V11.336H.656V10.148h3.07V6.984H5.07v3.164h3.07Zm7.391.047H10.859V10.1h4.672Zm8.8,0H19.656V10.1h4.672Zm8.8,0H28.453V10.1h4.672Zm8.8,0H37.25V10.1h4.672Zm8.8,0H46.047V10.1h4.672Zm8.8,0H54.844V10.1h4.672Zm8.8,0H63.641V10.1h4.672Zm8.8,0H72.438V10.1h4.672Zm10.2-.047h-3.07v3.188H82.9V11.336h-3.07V10.148H82.9V6.984h1.344v3.164h3.07Zm7.391.047H90.031V10.1H94.7Zm8.8,0H98.828V10.1H103.5Zm8.8,0h-4.672V10.1H112.3Zm8.8,0h-4.672V10.1h4.672Zm8.8,0h-4.672V10.1h4.672Zm8.8,0h-4.672V10.1h4.672Zm8.8,0h-4.672V10.1h4.672Zm8.8,0h-4.672V10.1h4.672Zm8.8,0h-4.672V10.1h4.672Zm8.8,0H169.2V10.1h4.672Zm8.8,0H178V10.1h4.672Zm10.2-.047H189.8v3.188h-1.344V11.336h-3.07V10.148h3.07V6.984H189.8v3.164h3.07Zm7.391.047h-4.672V10.1h4.672Zm8.8,0h-4.672V10.1h4.672Zm8.8,0h-4.672V10.1h4.672Zm8.8,0h-4.672V10.1h4.672Zm8.8,0h-4.672V10.1h4.672Zm8.8,0h-4.672V10.1h4.672Zm8.8,0h-4.672V10.1h4.672Zm8.8,0h-4.672V10.1h4.672Zm8.8,0h-4.672V10.1h4.672Zm8.8,0h-4.672V10.1h4.672Zm8.8,0h-4.672V10.1h4.672Zm10.2-.047h-3.07v3.188h-1.344V11.336h-3.07V10.148h3.07V6.984h1.344v3.164h3.07Zm7.391.047h-4.672V10.1h4.672Zm8.8,0h-4.672V10.1h4.672Zm8.8,0H318.75V10.1h4.672Zm8.8,0h-4.672V10.1h4.672Zm8.8,0h-4.672V10.1h4.672Zm8.8,0h-4.672V10.1h4.672Zm8.8,0h-4.672V10.1h4.672Zm8.8,0h-4.672V10.1h4.672Zm8.8,0h-4.672V10.1H376.2Zm8.8,0h-4.672V10.1H385Zm8.8,0h-4.672V10.1H393.8Zm8.8,0h-4.672V10.1h4.672Zm8.8,0h-4.672V10.1h4.672Zm10.2-.047h-3.07v3.188H417.18V11.336h-3.07V10.148h3.07V6.984h1.344v3.164h3.07ZM5.039,42.2H3.758v-16H5.039ZM25.383,39H18.969V37.734h2.625V30.281l-2.445,1.328-.5-1.156,3.25-1.711h1.2v8.992h2.281Zm18.172-5.172A7.734,7.734,0,0,1,43.23,36.2a4.848,4.848,0,0,1-.875,1.652,3.457,3.457,0,0,1-1.289.969,4.157,4.157,0,0,1-3.273-.039,3.179,3.179,0,0,1-1.211-1.027,4.685,4.685,0,0,1-.715-1.637,9.241,9.241,0,0,1-.234-2.176,7.763,7.763,0,0,1,.32-2.359,4.8,4.8,0,0,1,.871-1.652,3.465,3.465,0,0,1,1.285-.969,3.887,3.887,0,0,1,1.555-.316,3.842,3.842,0,0,1,1.715.359,3.257,3.257,0,0,1,1.215,1.027,4.652,4.652,0,0,1,.723,1.629A9.01,9.01,0,0,1,43.555,33.828Zm-1.445.1a9.148,9.148,0,0,0-.137-1.645A4.1,4.1,0,0,0,41.531,31a2.273,2.273,0,0,0-.785-.836,2.165,2.165,0,0,0-1.16-.3,1.982,1.982,0,0,0-1.129.316,2.461,2.461,0,0,0-.777.859,4.366,4.366,0,0,0-.453,1.273,7.778,7.778,0,0,0-.148,1.551,8.948,8.948,0,0,0,.141,1.652A4.187,4.187,0,0,0,37.66,36.8a2.262,2.262,0,0,0,.777.832,2.129,2.129,0,0,0,1.148.3,2,2,0,0,0,1.133-.316,2.481,2.481,0,0,0,.785-.859,4.3,4.3,0,0,0,.457-1.27A7.761,7.761,0,0,0,42.109,33.93ZM52.2,39h-1.57L49.1,35.734a3.611,3.611,0,0,0-.352-.621,1.67,1.67,0,0,0-.387-.391,1.377,1.377,0,0,0-.453-.207,2.24,2.24,0,0,0-.551-.062H46.7V39H45.313V28.789h2.734a5.287,5.287,0,0,1,1.531.2,2.886,2.886,0,0,1,1.051.547,2.094,2.094,0,0,1,.6.848,3.026,3.026,0,0,1,.191,1.1,2.859,2.859,0,0,1-.141.9,2.475,2.475,0,0,1-.418.773,2.659,2.659,0,0,1-.687.6,3.142,3.142,0,0,1-.941.379,1.6,1.6,0,0,1,.73.52,5.613,5.613,0,0,1,.613.988Zm-2.227-7.406a1.471,1.471,0,0,0-.512-1.227,2.266,2.266,0,0,0-1.441-.406H46.7v3.375h1.125a3.212,3.212,0,0,0,.887-.113,1.894,1.894,0,0,0,.672-.336,1.522,1.522,0,0,0,.43-.547A1.736,1.736,0,0,0,49.969,31.594Zm19.719,2.3a9.056,9.056,0,0,1-.234,2.137,4.948,4.948,0,0,1-.711,1.656,3.343,3.343,0,0,1-1.184,1.07,3.464,3.464,0,0,1-1.66.379,3.533,3.533,0,0,1-1.492-.309,2.965,2.965,0,0,1-1.148-.949,4.687,4.687,0,0,1-.734-1.633,9.433,9.433,0,0,1-.258-2.352,8.963,8.963,0,0,1,.238-2.141,5.054,5.054,0,0,1,.711-1.66,3.3,3.3,0,0,1,1.184-1.07,3.47,3.47,0,0,1,1.656-.379,3.533,3.533,0,0,1,1.492.309,2.953,2.953,0,0,1,1.148.953,4.73,4.73,0,0,1,.734,1.637A9.433,9.433,0,0,1,69.688,33.9Zm-1.375.047q0-.266-.02-.527t-.043-.512l-4.32,3.211a4.019,4.019,0,0,0,.3.75,2.291,2.291,0,0,0,.434.59,1.865,1.865,0,0,0,.578.383,1.885,1.885,0,0,0,.738.137,1.852,1.852,0,0,0,.965-.258,2.153,2.153,0,0,0,.738-.766,4.173,4.173,0,0,0,.469-1.262A8.275,8.275,0,0,0,68.313,33.945Zm-4.672-.094q0,.242,0,.484t.027.469l4.32-3.2a3.655,3.655,0,0,0-.3-.727,2.3,2.3,0,0,0-.43-.566,1.914,1.914,0,0,0-2.254-.246,2.145,2.145,0,0,0-.738.77,4.226,4.226,0,0,0-.469,1.266A8.275,8.275,0,0,0,63.641,33.852ZM84.211,42.2H82.93v-16h1.281ZM104.555,39H98.141V37.734h2.625V30.281L98.32,31.609l-.5-1.156,3.25-1.711h1.2v8.992h2.281Zm18.172-5.172A7.734,7.734,0,0,1,122.4,36.2a4.848,4.848,0,0,1-.875,1.652,3.457,3.457,0,0,1-1.289.969,4.157,4.157,0,0,1-3.273-.039,3.179,3.179,0,0,1-1.211-1.027,4.685,4.685,0,0,1-.715-1.637,9.241,9.241,0,0,1-.234-2.176,7.763,7.763,0,0,1,.32-2.359A4.8,4.8,0,0,1,116,29.934a3.465,3.465,0,0,1,1.285-.969,3.887,3.887,0,0,1,1.555-.316,3.842,3.842,0,0,1,1.715.359,3.257,3.257,0,0,1,1.215,1.027,4.652,4.652,0,0,1,.723,1.629A9.01,9.01,0,0,1,122.727,33.828Zm-1.445.1a9.148,9.148,0,0,0-.137-1.645A4.1,4.1,0,0,0,120.7,31a2.273,2.273,0,0,0-.785-.836,2.165,2.165,0,0,0-1.16-.3,1.982,1.982,0,0,0-1.129.316,2.461,2.461,0,0,0-.777.859,4.366,4.366,0,0,0-.453,1.273,7.778,7.778,0,0,0-.148,1.551,8.948,8.948,0,0,0,.141,1.652,4.187,4.187,0,0,0,.441,1.281,2.262,2.262,0,0,0,.777.832,2.129,2.129,0,0,0,1.148.3,2,2,0,0,0,1.133-.316,2.481,2.481,0,0,0,.785-.859,4.3,4.3,0,0,0,.457-1.27A7.761,7.761,0,0,0,121.281,33.93ZM131.367,39H129.8l-1.523-3.266a3.61,3.61,0,0,0-.352-.621,1.67,1.67,0,0,0-.387-.391,1.377,1.377,0,0,0-.453-.207,2.24,2.24,0,0,0-.551-.062h-.656V39h-1.391V28.789h2.734a5.287,5.287,0,0,1,1.531.2,2.886,2.886,0,0,1,1.051.547,2.094,2.094,0,0,1,.6.848,3.026,3.026,0,0,1,.191,1.1,2.859,2.859,0,0,1-.141.9,2.475,2.475,0,0,1-.418.773,2.659,2.659,0,0,1-.687.6,3.142,3.142,0,0,1-.941.379,1.6,1.6,0,0,1,.73.52,5.613,5.613,0,0,1,.613.988Zm-2.227-7.406a1.471,1.471,0,0,0-.512-1.227,2.266,2.266,0,0,0-1.441-.406h-1.312v3.375H127a3.212,3.212,0,0,0,.887-.113,1.894,1.894,0,0,0,.672-.336,1.522,1.522,0,0,0,.43-.547A1.736,1.736,0,0,0,129.141,31.594ZM148.625,39h-1.812l-2.977-6.367-.859-2.047V39h-1.3V28.789h1.789L146.3,34.82l1.023,2.336V28.789h1.3Zm8.875-3.555a4.619,4.619,0,0,1-.238,1.527,3.156,3.156,0,0,1-.7,1.164,3.114,3.114,0,0,1-1.129.742,4.187,4.187,0,0,1-1.535.262,4.608,4.608,0,0,1-1.617-.25,2.748,2.748,0,0,1-1.082-.707,2.779,2.779,0,0,1-.609-1.1,4.985,4.985,0,0,1-.191-1.43V28.789h1.391v6.758A4.377,4.377,0,0,0,151.9,36.6a1.846,1.846,0,0,0,.371.758,1.6,1.6,0,0,0,.668.461,2.832,2.832,0,0,0,1,.156,2,2,0,0,0,1.637-.641,2.766,2.766,0,0,0,.527-1.8V28.789H157.5ZM166.039,39h-5.875V28.789h1.414v9.023h4.461Zm8.8,0h-5.875V28.789h1.414v9.023h4.461Zm14.938,3.2h-1.281v-16h1.281Zm20.664-8.3a9.056,9.056,0,0,1-.234,2.137,4.948,4.948,0,0,1-.711,1.656,3.343,3.343,0,0,1-1.184,1.07,3.464,3.464,0,0,1-1.66.379,3.533,3.533,0,0,1-1.492-.309,2.965,2.965,0,0,1-1.148-.949,4.687,4.687,0,0,1-.734-1.633,9.433,9.433,0,0,1-.258-2.352,8.963,8.963,0,0,1,.238-2.141,5.054,5.054,0,0,1,.711-1.66,3.3,3.3,0,0,1,1.184-1.07,3.47,3.47,0,0,1,1.656-.379,3.533,3.533,0,0,1,1.492.309,2.952,2.952,0,0,1,1.148.953,4.73,4.73,0,0,1,.734,1.637A9.433,9.433,0,0,1,210.438,33.9Zm-1.375.047q0-.266-.02-.527T209,32.906l-4.32,3.211a4.018,4.018,0,0,0,.3.75,2.291,2.291,0,0,0,.434.59,1.865,1.865,0,0,0,.578.383,1.885,1.885,0,0,0,.738.137,1.852,1.852,0,0,0,.965-.258,2.153,2.153,0,0,0,.738-.766,4.173,4.173,0,0,0,.469-1.262A8.275,8.275,0,0,0,209.063,33.945Zm-4.672-.094q0,.242,0,.484t.027.469l4.32-3.2a3.655,3.655,0,0,0-.3-.727,2.3,2.3,0,0,0-.43-.566,1.914,1.914,0,0,0-2.254-.246,2.145,2.145,0,0,0-.738.77,4.226,4.226,0,0,0-.469,1.266A8.275,8.275,0,0,0,204.391,33.852Zm23.9-.023a7.735,7.735,0,0,1-.324,2.375,4.848,4.848,0,0,1-.875,1.652,3.457,3.457,0,0,1-1.289.969,4.157,4.157,0,0,1-3.273-.039,3.179,3.179,0,0,1-1.211-1.027,4.685,4.685,0,0,1-.715-1.637,9.241,9.241,0,0,1-.234-2.176,7.763,7.763,0,0,1,.32-2.359,4.8,4.8,0,0,1,.871-1.652,3.465,3.465,0,0,1,1.285-.969,3.887,3.887,0,0,1,1.555-.316,3.842,3.842,0,0,1,1.715.359,3.257,3.257,0,0,1,1.215,1.027,4.652,4.652,0,0,1,.723,1.629A9.01,9.01,0,0,1,228.289,33.828Zm-1.445.1a9.149,9.149,0,0,0-.137-1.645A4.1,4.1,0,0,0,226.266,31a2.273,2.273,0,0,0-.785-.836,2.165,2.165,0,0,0-1.16-.3,1.982,1.982,0,0,0-1.129.316,2.461,2.461,0,0,0-.777.859,4.366,4.366,0,0,0-.453,1.273,7.778,7.778,0,0,0-.148,1.551,8.948,8.948,0,0,0,.141,1.652,4.187,4.187,0,0,0,.441,1.281,2.262,2.262,0,0,0,.777.832,2.129,2.129,0,0,0,1.148.3,2,2,0,0,0,1.133-.316,2.481,2.481,0,0,0,.785-.859,4.294,4.294,0,0,0,.457-1.27A7.761,7.761,0,0,0,226.844,33.93ZM236.93,39h-1.57l-1.523-3.266a3.61,3.61,0,0,0-.352-.621,1.67,1.67,0,0,0-.387-.391,1.377,1.377,0,0,0-.453-.207,2.24,2.24,0,0,0-.551-.062h-.656V39h-1.391V28.789h2.734a5.287,5.287,0,0,1,1.531.2,2.886,2.886,0,0,1,1.051.547,2.094,2.094,0,0,1,.6.848,3.026,3.026,0,0,1,.191,1.1,2.859,2.859,0,0,1-.141.9,2.475,2.475,0,0,1-.418.773,2.659,2.659,0,0,1-.687.6,3.142,3.142,0,0,1-.941.379,1.6,1.6,0,0,1,.73.52,5.613,5.613,0,0,1,.613.988ZM234.7,31.594a1.471,1.471,0,0,0-.512-1.227,2.266,2.266,0,0,0-1.441-.406h-1.312v3.375h1.125a3.212,3.212,0,0,0,.887-.113,1.894,1.894,0,0,0,.672-.336,1.522,1.522,0,0,0,.43-.547A1.736,1.736,0,0,0,234.7,31.594ZM254.188,39h-1.812L249.4,32.633l-.859-2.047V39h-1.3V28.789h1.789l2.836,6.031,1.023,2.336V28.789h1.3Zm8.875-3.555a4.619,4.619,0,0,1-.238,1.527,3.156,3.156,0,0,1-.7,1.164,3.114,3.114,0,0,1-1.129.742,4.187,4.187,0,0,1-1.535.262,4.608,4.608,0,0,1-1.617-.25,2.748,2.748,0,0,1-1.082-.707,2.779,2.779,0,0,1-.609-1.1,4.986,4.986,0,0,1-.191-1.43V28.789h1.391v6.758a4.377,4.377,0,0,0,.113,1.055,1.846,1.846,0,0,0,.371.758,1.6,1.6,0,0,0,.668.461,2.832,2.832,0,0,0,1,.156,2,2,0,0,0,1.637-.641,2.766,2.766,0,0,0,.527-1.8V28.789h1.391ZM271.6,39h-5.875V28.789h1.414v9.023H271.6Zm8.8,0h-5.875V28.789h1.414v9.023H280.4Zm14.938,3.2h-1.281v-16h1.281ZM315.68,39h-6.414V37.734h2.625V30.281l-2.445,1.328-.5-1.156,3.25-1.711h1.2v8.992h2.281Zm18.172-5.172a7.734,7.734,0,0,1-.324,2.375,4.848,4.848,0,0,1-.875,1.652,3.457,3.457,0,0,1-1.289.969,4.157,4.157,0,0,1-3.273-.039,3.179,3.179,0,0,1-1.211-1.027,4.685,4.685,0,0,1-.715-1.637,9.241,9.241,0,0,1-.234-2.176,7.763,7.763,0,0,1,.32-2.359,4.8,4.8,0,0,1,.871-1.652,3.465,3.465,0,0,1,1.285-.969,3.887,3.887,0,0,1,1.555-.316,3.842,3.842,0,0,1,1.715.359,3.257,3.257,0,0,1,1.215,1.027,4.652,4.652,0,0,1,.723,1.629A9.011,9.011,0,0,1,333.852,33.828Zm-1.445.1a9.147,9.147,0,0,0-.137-1.645A4.1,4.1,0,0,0,331.828,31a2.273,2.273,0,0,0-.785-.836,2.165,2.165,0,0,0-1.16-.3,1.982,1.982,0,0,0-1.129.316,2.461,2.461,0,0,0-.777.859,4.366,4.366,0,0,0-.453,1.273,7.777,7.777,0,0,0-.148,1.551,8.948,8.948,0,0,0,.141,1.652,4.186,4.186,0,0,0,.441,1.281,2.262,2.262,0,0,0,.777.832,2.129,2.129,0,0,0,1.148.3,2,2,0,0,0,1.133-.316,2.481,2.481,0,0,0,.785-.859,4.3,4.3,0,0,0,.457-1.27A7.76,7.76,0,0,0,332.406,33.93ZM342.492,39h-1.57L339.4,35.734a3.612,3.612,0,0,0-.352-.621,1.669,1.669,0,0,0-.387-.391,1.377,1.377,0,0,0-.453-.207,2.24,2.24,0,0,0-.551-.062H337V39h-1.391V28.789h2.734a5.287,5.287,0,0,1,1.531.2,2.885,2.885,0,0,1,1.051.547,2.094,2.094,0,0,1,.6.848,3.026,3.026,0,0,1,.191,1.1,2.859,2.859,0,0,1-.141.9,2.474,2.474,0,0,1-.418.773,2.66,2.66,0,0,1-.687.6,3.142,3.142,0,0,1-.941.379,1.6,1.6,0,0,1,.73.52,5.613,5.613,0,0,1,.613.988Zm-2.227-7.406a1.471,1.471,0,0,0-.512-1.227,2.266,2.266,0,0,0-1.441-.406H337v3.375h1.125a3.212,3.212,0,0,0,.887-.113,1.894,1.894,0,0,0,.672-.336,1.522,1.522,0,0,0,.43-.547A1.736,1.736,0,0,0,340.266,31.594Zm19.719,2.3a9.056,9.056,0,0,1-.234,2.137,4.948,4.948,0,0,1-.711,1.656,3.343,3.343,0,0,1-1.184,1.07,3.464,3.464,0,0,1-1.66.379,3.533,3.533,0,0,1-1.492-.309,2.965,2.965,0,0,1-1.148-.949,4.687,4.687,0,0,1-.734-1.633,9.433,9.433,0,0,1-.258-2.352,8.964,8.964,0,0,1,.238-2.141,5.054,5.054,0,0,1,.711-1.66,3.3,3.3,0,0,1,1.184-1.07,3.47,3.47,0,0,1,1.656-.379,3.533,3.533,0,0,1,1.492.309,2.953,2.953,0,0,1,1.148.953,4.73,4.73,0,0,1,.734,1.637A9.433,9.433,0,0,1,359.984,33.9Zm-1.375.047q0-.266-.02-.527t-.043-.512l-4.32,3.211a4.02,4.02,0,0,0,.3.75,2.291,2.291,0,0,0,.434.59,1.865,1.865,0,0,0,.578.383,1.885,1.885,0,0,0,.738.137,1.852,1.852,0,0,0,.965-.258,2.153,2.153,0,0,0,.738-.766,4.173,4.173,0,0,0,.469-1.262A8.275,8.275,0,0,0,358.609,33.945Zm-4.672-.094q0,.242,0,.484t.027.469l4.32-3.2a3.656,3.656,0,0,0-.3-.727,2.3,2.3,0,0,0-.43-.566,1.914,1.914,0,0,0-2.254-.246,2.145,2.145,0,0,0-.738.77,4.226,4.226,0,0,0-.469,1.266A8.275,8.275,0,0,0,353.938,33.852Zm23.9-.023a7.734,7.734,0,0,1-.324,2.375,4.848,4.848,0,0,1-.875,1.652,3.457,3.457,0,0,1-1.289.969,4.157,4.157,0,0,1-3.273-.039,3.179,3.179,0,0,1-1.211-1.027,4.685,4.685,0,0,1-.715-1.637,9.241,9.241,0,0,1-.234-2.176,7.763,7.763,0,0,1,.32-2.359,4.8,4.8,0,0,1,.871-1.652,3.465,3.465,0,0,1,1.285-.969,3.887,3.887,0,0,1,1.555-.316,3.842,3.842,0,0,1,1.715.359,3.257,3.257,0,0,1,1.215,1.027,4.652,4.652,0,0,1,.723,1.629A9.011,9.011,0,0,1,377.836,33.828Zm-1.445.1a9.147,9.147,0,0,0-.137-1.645A4.1,4.1,0,0,0,375.813,31a2.273,2.273,0,0,0-.785-.836,2.165,2.165,0,0,0-1.16-.3,1.982,1.982,0,0,0-1.129.316,2.461,2.461,0,0,0-.777.859,4.366,4.366,0,0,0-.453,1.273,7.777,7.777,0,0,0-.148,1.551,8.948,8.948,0,0,0,.141,1.652,4.186,4.186,0,0,0,.441,1.281,2.262,2.262,0,0,0,.777.832,2.129,2.129,0,0,0,1.148.3A2,2,0,0,0,375,37.613a2.481,2.481,0,0,0,.785-.859,4.3,4.3,0,0,0,.457-1.27A7.76,7.76,0,0,0,376.391,33.93ZM386.477,39h-1.57l-1.523-3.266a3.612,3.612,0,0,0-.352-.621,1.669,1.669,0,0,0-.387-.391,1.377,1.377,0,0,0-.453-.207,2.24,2.24,0,0,0-.551-.062h-.656V39h-1.391V28.789h2.734a5.287,5.287,0,0,1,1.531.2,2.885,2.885,0,0,1,1.051.547,2.094,2.094,0,0,1,.6.848,3.026,3.026,0,0,1,.191,1.1,2.859,2.859,0,0,1-.141.9,2.474,2.474,0,0,1-.418.773,2.66,2.66,0,0,1-.687.6,3.142,3.142,0,0,1-.941.379,1.6,1.6,0,0,1,.73.52,5.613,5.613,0,0,1,.613.988Zm-2.227-7.406a1.471,1.471,0,0,0-.512-1.227,2.266,2.266,0,0,0-1.441-.406h-1.312v3.375h1.125a3.212,3.212,0,0,0,.887-.113,1.894,1.894,0,0,0,.672-.336,1.522,1.522,0,0,0,.43-.547A1.736,1.736,0,0,0,384.25,31.594ZM403.648,39h-6.414V37.734h2.625V30.281l-2.445,1.328-.5-1.156,3.25-1.711h1.2v8.992h2.281Zm14.844,3.2h-1.281v-16h1.281ZM8.141,59.336H5.07v3.188H3.727V59.336H.656V58.148h3.07V54.984H5.07v3.164h3.07Zm7.391.047H10.859V58.1h4.672Zm8.8,0H19.656V58.1h4.672Zm8.8,0H28.453V58.1h4.672Zm8.8,0H37.25V58.1h4.672Zm8.8,0H46.047V58.1h4.672Zm8.8,0H54.844V58.1h4.672Zm8.8,0H63.641V58.1h4.672Zm8.8,0H72.438V58.1h4.672Zm10.2-.047h-3.07v3.188H82.9V59.336h-3.07V58.148H82.9V54.984h1.344v3.164h3.07Zm7.391.047H90.031V58.1H94.7Zm8.8,0H98.828V58.1H103.5Zm8.8,0h-4.672V58.1H112.3Zm8.8,0h-4.672V58.1h4.672Zm8.8,0h-4.672V58.1h4.672Zm8.8,0h-4.672V58.1h4.672Zm8.8,0h-4.672V58.1h4.672Zm8.8,0h-4.672V58.1h4.672Zm8.8,0h-4.672V58.1h4.672Zm8.8,0H169.2V58.1h4.672Zm8.8,0H178V58.1h4.672Zm10.2-.047H189.8v3.188h-1.344V59.336h-3.07V58.148h3.07V54.984H189.8v3.164h3.07Zm7.391.047h-4.672V58.1h4.672Zm8.8,0h-4.672V58.1h4.672Zm8.8,0h-4.672V58.1h4.672Zm8.8,0h-4.672V58.1h4.672Zm8.8,0h-4.672V58.1h4.672Zm8.8,0h-4.672V58.1h4.672Zm8.8,0h-4.672V58.1h4.672Zm8.8,0h-4.672V58.1h4.672Zm8.8,0h-4.672V58.1h4.672Zm8.8,0h-4.672V58.1h4.672Zm8.8,0h-4.672V58.1h4.672Zm10.2-.047h-3.07v3.188h-1.344V59.336h-3.07V58.148h3.07V54.984h1.344v3.164h3.07Zm7.391.047h-4.672V58.1h4.672Zm8.8,0h-4.672V58.1h4.672Zm8.8,0H318.75V58.1h4.672Zm8.8,0h-4.672V58.1h4.672Zm8.8,0h-4.672V58.1h4.672Zm8.8,0h-4.672V58.1h4.672Zm8.8,0h-4.672V58.1h4.672Zm8.8,0h-4.672V58.1h4.672Zm8.8,0h-4.672V58.1H376.2Zm8.8,0h-4.672V58.1H385Zm8.8,0h-4.672V58.1H393.8Zm8.8,0h-4.672V58.1h4.672Zm8.8,0h-4.672V58.1h4.672Zm10.2-.047h-3.07v3.188H417.18V59.336h-3.07V58.148h3.07V54.984h1.344v3.164h3.07ZM5.039,90.2H3.758v-16H5.039ZM69.367,87H62.953V85.734h2.625V78.281l-2.445,1.328-.5-1.156,3.25-1.711h1.2v8.992h2.281Zm14.844,3.2H82.93v-16h1.281ZM174.93,87h-6.414V85.734h2.625V78.281L168.7,79.609l-.5-1.156,3.25-1.711h1.2v8.992h2.281Zm14.844,3.2h-1.281v-16h1.281ZM254.188,87h-1.812L249.4,80.633l-.859-2.047V87h-1.3V76.789h1.789l2.836,6.031,1.023,2.336V76.789h1.3Zm8.875-3.555a4.619,4.619,0,0,1-.238,1.527,3.156,3.156,0,0,1-.7,1.164,3.114,3.114,0,0,1-1.129.742,4.187,4.187,0,0,1-1.535.262,4.608,4.608,0,0,1-1.617-.25,2.748,2.748,0,0,1-1.082-.707,2.779,2.779,0,0,1-.609-1.1,4.986,4.986,0,0,1-.191-1.43V76.789h1.391v6.758a4.377,4.377,0,0,0,.113,1.055,1.846,1.846,0,0,0,.371.758,1.6,1.6,0,0,0,.668.461,2.832,2.832,0,0,0,1,.156,2,2,0,0,0,1.637-.641,2.766,2.766,0,0,0,.527-1.8V76.789h1.391ZM271.6,87h-5.875V76.789h1.414v9.023H271.6Zm8.8,0h-5.875V76.789h1.414v9.023H280.4Zm14.938,3.2h-1.281v-16h1.281ZM403.648,87h-6.414V85.734h2.625V78.281l-2.445,1.328-.5-1.156,3.25-1.711h1.2v8.992h2.281Zm14.844,3.2h-1.281v-16h1.281ZM8.141,107.336H5.07v3.188H3.727v-3.187H.656v-1.187h3.07v-3.164H5.07v3.164h3.07Zm7.391.047H10.859V106.1h4.672Zm8.8,0H19.656V106.1h4.672Zm8.8,0H28.453V106.1h4.672Zm8.8,0H37.25V106.1h4.672Zm8.8,0H46.047V106.1h4.672Zm8.8,0H54.844V106.1h4.672Zm8.8,0H63.641V106.1h4.672Zm8.8,0H72.438V106.1h4.672Zm10.2-.047h-3.07v3.188H82.9v-3.187h-3.07v-1.187H82.9v-3.164h1.344v3.164h3.07Zm7.391.047H90.031V106.1H94.7Zm8.8,0H98.828V106.1H103.5Zm8.8,0h-4.672V106.1H112.3Zm8.8,0h-4.672V106.1h4.672Zm8.8,0h-4.672V106.1h4.672Zm8.8,0h-4.672V106.1h4.672Zm8.8,0h-4.672V106.1h4.672Zm8.8,0h-4.672V106.1h4.672Zm8.8,0h-4.672V106.1h4.672Zm8.8,0H169.2V106.1h4.672Zm8.8,0H178V106.1h4.672Zm10.2-.047H189.8v3.188h-1.344v-3.187h-3.07v-1.187h3.07v-3.164H189.8v3.164h3.07Zm7.391.047h-4.672V106.1h4.672Zm8.8,0h-4.672V106.1h4.672Zm8.8,0h-4.672V106.1h4.672Zm8.8,0h-4.672V106.1h4.672Zm8.8,0h-4.672V106.1h4.672Zm8.8,0h-4.672V106.1h4.672Zm8.8,0h-4.672V106.1h4.672Zm8.8,0h-4.672V106.1h4.672Zm8.8,0h-4.672V106.1h4.672Zm8.8,0h-4.672V106.1h4.672Zm8.8,0h-4.672V106.1h4.672Zm10.2-.047h-3.07v3.188h-1.344v-3.187h-3.07v-1.187h3.07v-3.164h1.344v3.164h3.07Zm7.391.047h-4.672V106.1h4.672Zm8.8,0h-4.672V106.1h4.672Zm8.8,0H318.75V106.1h4.672Zm8.8,0h-4.672V106.1h4.672Zm8.8,0h-4.672V106.1h4.672Zm8.8,0h-4.672V106.1h4.672Zm8.8,0h-4.672V106.1h4.672Zm8.8,0h-4.672V106.1h4.672Zm8.8,0h-4.672V106.1H376.2Zm8.8,0h-4.672V106.1H385Zm8.8,0h-4.672V106.1H393.8Zm8.8,0h-4.672V106.1h4.672Zm8.8,0h-4.672V106.1h4.672Zm10.2-.047h-3.07v3.188H417.18v-3.187h-3.07v-1.187h3.07v-3.164h1.344v3.164h3.07Z" transform="translate(3008 -3473)" fill="#f4a338"/>
  </g>
</svg>
