<svg xmlns="http://www.w3.org/2000/svg" xmlns:xlink="http://www.w3.org/1999/xlink" width="88.71" height="93.103" viewBox="0 0 88.71 93.103">
  <defs>
    <clipPath id="clip-path">
      <rect id="Rectángulo_59008" data-name="Rectángulo 59008" width="10.449" height="22.52" fill="none"/>
    </clipPath>
    <clipPath id="clip-path-2">
      <rect id="Rectángulo_59009" data-name="Rectángulo 59009" width="16.584" height="25.214" fill="none"/>
    </clipPath>
    <clipPath id="clip-path-3">
      <rect id="Rectángulo_59010" data-name="Rectángulo 59010" width="9.935" height="15.363" fill="none"/>
    </clipPath>
    <clipPath id="clip-path-4">
      <rect id="Rectángulo_59011" data-name="Rectángulo 59011" width="16.07" height="16.605" fill="none"/>
    </clipPath>
  </defs>
  <g id="Grupo_985894" data-name="Grupo 985894" transform="translate(-1234.271 -134.015)">
    <path id="Trazado_658701" data-name="Trazado 658701" d="M194.783,90.378,180.89,82.357l-2.853,6.588a1.162,1.162,0,0,1-1.14.7,1.148,1.148,0,0,1-1.044-.832l-3.317-11.278L161.61,71.226a5.853,5.853,0,0,1-2.683-4.648V28.594a1.972,1.972,0,0,1,3.185-1.839l33.173,19.152a5.852,5.852,0,0,1,2.683,4.648V88.539a2.183,2.183,0,0,1-.963,2.01,1.756,1.756,0,0,1-.884.231,2.709,2.709,0,0,1-1.338-.4M161.61,27.623a1,1,0,0,0-1.68.971V66.578a4.906,4.906,0,0,0,2.182,3.779l11.273,6.508,3.429,11.662a.15.15,0,0,0,.144.115.144.144,0,0,0,.159-.1l3.3-7.62,14.869,8.583a1,1,0,0,0,1.68-.971V50.554a4.9,4.9,0,0,0-2.182-3.779Z" transform="translate(1125.013 136.338)" fill="#27debf"/>
    <path id="Trazado_658702" data-name="Trazado 658702" d="M177.363,43.254c-2.3-1.325-4.411-1.548-6.136-.871l6.136,14.8Z" transform="translate(1126.097 137.719)" fill="#455a64"/>
    <path id="Trazado_658703" data-name="Trazado 658703" d="M183,49.368a19.042,19.042,0,0,0-6.135-6.215V57.085Z" transform="translate(1126.594 137.819)" fill="#27debf"/>
    <path id="Trazado_658704" data-name="Trazado 658704" d="M186.8,58.013a27.878,27.878,0,0,0-3.8-9.149l-6.135,7.717Z" transform="translate(1126.594 138.323)" fill="#27debf"/>
    <path id="Trazado_658705" data-name="Trazado 658705" d="M171.535,42.353a6.76,6.76,0,0,0-3.8,4.762l9.936,10.041Z" transform="translate(1125.789 137.749)" fill="#455a64"/>
    <path id="Trazado_658706" data-name="Trazado 658706" d="M186.8,66a14.689,14.689,0,0,0,.514-4.008,22.119,22.119,0,0,0-.514-4.6l-9.935-1.431Z" transform="translate(1126.594 138.948)" fill="#27debf"/>
    <path id="Trazado_658707" data-name="Trazado 658707" d="M167.736,54.64a27.877,27.877,0,0,0,3.8,9.149l6.135-7.717Z" transform="translate(1125.789 138.832)" fill="#27debf"/>
    <path id="Trazado_658708" data-name="Trazado 658708" d="M176.866,69.888c2.295,1.325,4.411,1.548,6.135.871l-6.135-14.8Z" transform="translate(1126.594 138.948)" fill="#27debf"/>
    <path id="Trazado_658709" data-name="Trazado 658709" d="M186.8,66l-9.935-10.039L183,70.758A6.757,6.757,0,0,0,186.8,66" transform="translate(1126.594 138.948)" fill="#27debf"/>
    <g id="Grupo_985588" data-name="Grupo 985588" transform="translate(1303.46 187.187)" opacity="0.5">
      <g id="Grupo_182716" data-name="Grupo 182716">
        <g id="Grupo_182715" data-name="Grupo 182715" clip-path="url(#clip-path)">
          <path id="Trazado_235891" data-name="Trazado 235891" d="M183,48.864a27.924,27.924,0,0,1,3.8,9.149,22.193,22.193,0,0,1,.514,4.6,14.744,14.744,0,0,1-.514,4.008,6.76,6.76,0,0,1-3.8,4.762l-6.135-14.8Z" transform="translate(-176.866 -48.864)" fill="#fff"/>
        </g>
      </g>
    </g>
    <path id="Trazado_658710" data-name="Trazado 658710" d="M167.778,46.73a14.689,14.689,0,0,0-.514,4.008,22.119,22.119,0,0,0,.514,4.6l9.935,1.431Z" transform="translate(1125.748 138.135)" fill="#27debf"/>
    <path id="Trazado_658711" data-name="Trazado 658711" d="M171.227,63.673a19.034,19.034,0,0,0,6.136,6.215V55.956Z" transform="translate(1126.097 138.948)" fill="#27debf"/>
    <g id="Grupo_985589" data-name="Grupo 985589" transform="translate(1293.012 184.865)" opacity="0.2">
      <g id="Grupo_182719" data-name="Grupo 182719">
        <g id="Grupo_182718" data-name="Grupo 182718" clip-path="url(#clip-path-2)">
          <path id="Trazado_235894" data-name="Trazado 235894" d="M167.778,46.73l9.935,10.039,6.135,14.8c-1.724.678-3.84.455-6.135-.871a19.021,19.021,0,0,1-6.135-6.215,27.872,27.872,0,0,1-3.8-9.148,22.119,22.119,0,0,1-.514-4.6,14.689,14.689,0,0,1,.514-4.008" transform="translate(-167.264 -46.73)"/>
        </g>
      </g>
    </g>
    <path id="Trazado_658712" data-name="Trazado 658712" d="M149.139,64.025,135.246,56l-2.853,6.589a1.162,1.162,0,0,1-1.14.7,1.148,1.148,0,0,1-1.044-.834L126.892,51.18l-10.925-6.307a5.853,5.853,0,0,1-2.683-4.648V2.241a2.183,2.183,0,0,1,.963-2.01A2.183,2.183,0,0,1,116.468.4l33.173,19.152a5.852,5.852,0,0,1,2.683,4.648V62.186a2.185,2.185,0,0,1-.963,2.01,1.759,1.759,0,0,1-.884.231,2.709,2.709,0,0,1-1.338-.4M115.966,1.27a1.268,1.268,0,0,0-1.219-.171,1.266,1.266,0,0,0-.462,1.141V40.225A4.9,4.9,0,0,0,116.468,44l11.273,6.508,3.429,11.662a.15.15,0,0,0,.144.115.144.144,0,0,0,.159-.1l3.3-7.622,14.869,8.585a1,1,0,0,0,1.68-.971V24.2a4.9,4.9,0,0,0-2.182-3.779Z" transform="translate(1120.988 134.015)" fill="#27debf"/>
    <path id="Trazado_658713" data-name="Trazado 658713" d="M131.719,16.9c-2.3-1.325-4.411-1.548-6.135-.871l6.135,14.8Z" transform="translate(1122.072 135.396)" fill="#455a64"/>
    <path id="Trazado_658714" data-name="Trazado 658714" d="M137.357,23.015a19.042,19.042,0,0,0-6.135-6.215V30.732Z" transform="translate(1122.569 135.496)" fill="#27debf"/>
    <path id="Trazado_658715" data-name="Trazado 658715" d="M141.157,31.66a27.878,27.878,0,0,0-3.8-9.149l-6.135,7.717Z" transform="translate(1122.569 135.999)" fill="#27debf"/>
    <g id="Grupo_985590" data-name="Grupo 985590" transform="translate(1253.792 152.297)" opacity="0.5">
      <g id="Grupo_182722" data-name="Grupo 182722">
        <g id="Grupo_182721" data-name="Grupo 182721" clip-path="url(#clip-path-3)">
          <path id="Trazado_235899" data-name="Trazado 235899" d="M137.357,23.015a27.9,27.9,0,0,1,3.8,9.149l-9.934-1.432V16.8a19.042,19.042,0,0,1,6.135,6.215" transform="translate(-131.222 -16.801)" fill="#fff"/>
        </g>
      </g>
    </g>
    <path id="Trazado_658716" data-name="Trazado 658716" d="M125.891,16a6.756,6.756,0,0,0-3.8,4.762L132.026,30.8Z" transform="translate(1121.765 135.426)" fill="#455a64"/>
    <path id="Trazado_658717" data-name="Trazado 658717" d="M141.157,39.643a14.686,14.686,0,0,0,.514-4.007,22.1,22.1,0,0,0-.514-4.6L131.222,29.6Z" transform="translate(1122.569 136.625)" fill="#27debf"/>
    <path id="Trazado_658718" data-name="Trazado 658718" d="M122.092,28.288a27.9,27.9,0,0,0,3.8,9.149l6.136-7.717Z" transform="translate(1121.765 136.509)" fill="#27debf"/>
    <path id="Trazado_658719" data-name="Trazado 658719" d="M131.222,43.535c2.3,1.325,4.411,1.548,6.135.871l-6.135-14.8Z" transform="translate(1122.569 136.625)" fill="#27debf"/>
    <path id="Trazado_658720" data-name="Trazado 658720" d="M141.157,39.643,131.222,29.6l6.135,14.8a6.755,6.755,0,0,0,3.8-4.763" transform="translate(1122.569 136.625)" fill="#27debf"/>
    <path id="Trazado_658721" data-name="Trazado 658721" d="M122.134,20.377a14.689,14.689,0,0,0-.514,4.008,22.118,22.118,0,0,0,.514,4.6l9.935,1.431Z" transform="translate(1121.724 135.812)" fill="#455a64"/>
    <path id="Trazado_658722" data-name="Trazado 658722" d="M125.583,37.32a19.042,19.042,0,0,0,6.135,6.215V29.6Z" transform="translate(1122.072 136.625)" fill="#27debf"/>
    <g id="Grupo_985591" data-name="Grupo 985591" transform="translate(1243.856 164.797)" opacity="0.2">
      <g id="Grupo_182725" data-name="Grupo 182725">
        <g id="Grupo_182724" data-name="Grupo 182724" clip-path="url(#clip-path-4)">
          <path id="Trazado_235907" data-name="Trazado 235907" d="M132.027,29.719l6.135,14.8c-1.724.678-3.839.455-6.135-.871a19.032,19.032,0,0,1-6.135-6.215,27.878,27.878,0,0,1-3.8-9.149Z" transform="translate(-122.092 -28.288)"/>
        </g>
      </g>
    </g>
  </g>
</svg>
