<svg id="Grupo_985890" data-name="Grupo 985890" xmlns="http://www.w3.org/2000/svg" xmlns:xlink="http://www.w3.org/1999/xlink" width="109.113" height="142.361" viewBox="0 0 109.113 142.361">
  <defs>
    <clipPath id="clip-path">
      <rect id="Rectángulo_59224" data-name="Rectángulo 59224" width="109.113" height="142.361" fill="none"/>
    </clipPath>
    <clipPath id="clip-path-3">
      <rect id="Rectángulo_59219" data-name="Rectángulo 59219" width="107.068" height="141.205" fill="none"/>
    </clipPath>
    <clipPath id="clip-path-5">
      <rect id="Rectángulo_59220" data-name="Rectángulo 59220" width="108.094" height="62.613" fill="none"/>
    </clipPath>
    <clipPath id="clip-path-6">
      <rect id="Rectángulo_59221" data-name="Rectángulo 59221" width="2.526" height="7.996" fill="none"/>
    </clipPath>
    <clipPath id="clip-path-7">
      <rect id="Rectángulo_59222" data-name="Rectángulo 59222" width="2.632" height="73.982" fill="none"/>
    </clipPath>
  </defs>
  <g id="Grupo_182863" data-name="Grupo 182863" clip-path="url(#clip-path)">
    <g id="Grupo_182862" data-name="Grupo 182862">
      <g id="Grupo_182861" data-name="Grupo 182861" clip-path="url(#clip-path)">
        <g id="Grupo_182851" data-name="Grupo 182851" transform="translate(0 1.156)" opacity="0.8">
          <g id="Grupo_182850" data-name="Grupo 182850">
            <g id="Grupo_182849" data-name="Grupo 182849" clip-path="url(#clip-path-3)">
              <path id="Trazado_236059" data-name="Trazado 236059" d="M0,2.723v77.06a3.54,3.54,0,0,0,1.6,2.774l103.864,60.078a1.018,1.018,0,0,0,.53.152.887.887,0,0,0,.2-.026.6.6,0,0,0,.137-.047c.031-.016.058-.031.084-.047l.095-.063a.655.655,0,0,0,.089-.079,1.26,1.26,0,0,0,.294-.42,2.017,2.017,0,0,0,.168-.809V64.625a3.545,3.545,0,0,0-1.6-2.773L1.6,1.8A1.16,1.16,0,0,0,.525,1.663a.687.687,0,0,0-.137.078l-.01.011a.479.479,0,0,0-.105.105.244.244,0,0,0-.047.058A.306.306,0,0,0,.173,2a.744.744,0,0,0-.094.2.544.544,0,0,0-.037.142c-.006.011-.011.021-.006.031a.733.733,0,0,0-.026.148c-.005.063-.01.131-.01.2" transform="translate(0 -1.583)" fill="#455a64"/>
              <path id="Trazado_236060" data-name="Trazado 236060" d="M.892,2.313a.736.736,0,0,1,.345.118L105.1,62.483a2.823,2.823,0,0,1,1.237,2.141V141.3a1.277,1.277,0,0,1-.1.508.547.547,0,0,1-.122.182l-.037.034h0l-.029.02-.009.009a.3.3,0,0,1-.062.008.4.4,0,0,1-.142-.055L1.968,81.924A2.824,2.824,0,0,1,.73,79.783V2.723c0-.042,0-.084.009-.137l.016-.033,0-.033.055-.165.01-.015.013-.018h0a.119.119,0,0,1,.054-.009m0-.73a.858.858,0,0,0-.367.079.723.723,0,0,0-.136.079l-.011.011a.528.528,0,0,0-.105.1.261.261,0,0,0-.047.058A.267.267,0,0,0,.174,2a.716.716,0,0,0-.095.2.575.575,0,0,0-.037.142c-.005.011-.01.021-.005.031a.643.643,0,0,0-.026.148c-.005.063-.011.131-.011.2v77.06a3.541,3.541,0,0,0,1.6,2.774l103.863,60.078a1.047,1.047,0,0,0,.508.153H106a.9.9,0,0,0,.205-.026.629.629,0,0,0,.137-.047c.031-.016.058-.032.084-.047l.094-.063a.615.615,0,0,0,.089-.079,1.263,1.263,0,0,0,.294-.421,2,2,0,0,0,.168-.809V64.624a3.548,3.548,0,0,0-1.6-2.774L1.6,1.8a1.464,1.464,0,0,0-.711-.215" transform="translate(0 -1.583)" fill="#455a64"/>
              <g id="Grupo_182848" data-name="Grupo 182848" opacity="0.7">
                <g id="Grupo_182847" data-name="Grupo 182847">
                  <g id="Grupo_182846" data-name="Grupo 182846" clip-path="url(#clip-path-3)">
                    <path id="Trazado_236061" data-name="Trazado 236061" d="M0,2.723v77.06a3.54,3.54,0,0,0,1.6,2.774l103.864,60.078a1.018,1.018,0,0,0,.53.152.887.887,0,0,0,.2-.026.6.6,0,0,0,.137-.047c.031-.016.058-.031.084-.047l.095-.063a.655.655,0,0,0,.089-.079,1.26,1.26,0,0,0,.294-.42,2.017,2.017,0,0,0,.168-.809V64.625a3.545,3.545,0,0,0-1.6-2.773L1.6,1.8A1.16,1.16,0,0,0,.525,1.663a.687.687,0,0,0-.137.078l-.01.011a.479.479,0,0,0-.105.105.244.244,0,0,0-.047.058A.306.306,0,0,0,.173,2a.744.744,0,0,0-.094.2.544.544,0,0,0-.037.142c-.006.011-.011.021-.006.031a.733.733,0,0,0-.026.148c-.005.063-.01.131-.01.2" transform="translate(0 -1.583)" fill="#455a64"/>
                  </g>
                </g>
              </g>
            </g>
          </g>
        </g>
        <path id="Trazado_236062" data-name="Trazado 236062" d="M.719,1.236A1.16,1.16,0,0,1,1.8,1.373L105.66,61.425a3.547,3.547,0,0,1,1.6,2.773V69.43l2.043-1.2v-5.2a3.532,3.532,0,0,0-1.6-2.768L3.839.217A1.112,1.112,0,0,0,2.678.123C2.39.3,1.06,1.057.719,1.236" transform="translate(-0.194 0)" fill="#27debf"/>
        <path id="Trazado_236063" data-name="Trazado 236063" d="M0,2.713C.012,1.7.724,1.294,1.6,1.8L105.468,61.853a3.535,3.535,0,0,1,1.6,2.772v5.234L0,7.964Z" transform="translate(-0.001 -0.427)" fill="#27debf"/>
        <g id="Grupo_182854" data-name="Grupo 182854" transform="translate(0.531)" opacity="0.4">
          <g id="Grupo_182853" data-name="Grupo 182853">
            <g id="Grupo_182852" data-name="Grupo 182852" clip-path="url(#clip-path-5)">
              <path id="Trazado_236064" data-name="Trazado 236064" d="M1.8,1.374,105.661,61.426a3.289,3.289,0,0,1,1.127,1.187l2.033-1.178a3.191,3.191,0,0,0-1.113-1.168L3.843.216A1.124,1.124,0,0,0,2.681.121C2.394.3,1.065,1.052.728,1.233A1.157,1.157,0,0,1,1.8,1.374" transform="translate(-0.727 0)" fill="#fff"/>
            </g>
          </g>
        </g>
        <g id="Grupo_182857" data-name="Grupo 182857" transform="translate(106.587 61.436)" opacity="0.15">
          <g id="Grupo_182856" data-name="Grupo 182856">
            <g id="Grupo_182855" data-name="Grupo 182855" clip-path="url(#clip-path-6)">
              <path id="Trazado_236065" data-name="Trazado 236065" d="M148.436,90.9V85.7a3.305,3.305,0,0,0-.487-1.6l-2.038,1.173a3.237,3.237,0,0,1,.478,1.59V92.1Z" transform="translate(-145.91 -84.101)"/>
            </g>
          </g>
        </g>
        <path id="Trazado_236066" data-name="Trazado 236066" d="M12.865,11.251a2.385,2.385,0,0,1,.9,1.914c0,.768-.4,1.159-.9.87a2.385,2.385,0,0,1-.9-1.914c0-.769.4-1.159.9-.87" transform="translate(-3.223 -3.006)" fill="#455a64"/>
        <path id="Trazado_236067" data-name="Trazado 236067" d="M8.409,8.673a2.385,2.385,0,0,1,.9,1.914c0,.768-.4,1.159-.9.87a2.385,2.385,0,0,1-.9-1.914c0-.768.4-1.159.9-.87" transform="translate(-2.023 -2.312)" fill="#455a64"/>
        <path id="Trazado_236068" data-name="Trazado 236068" d="M3.954,6.1a2.385,2.385,0,0,1,.9,1.914c0,.768-.4,1.159-.9.87a2.385,2.385,0,0,1-.9-1.914c0-.768.4-1.159.9-.87" transform="translate(-0.822 -1.617)" fill="#455a64"/>
        <g id="Grupo_182860" data-name="Grupo 182860" transform="translate(106.479 68.232)" opacity="0.9">
          <g id="Grupo_182859" data-name="Grupo 182859">
            <g id="Grupo_182858" data-name="Grupo 182858" clip-path="url(#clip-path-7)">
              <path id="Trazado_236069" data-name="Trazado 236069" d="M145.762,167.386c.058-.037.127-.074.2-.115.148-.089.316-.184.495-.278l0-.006c.09-.052.18-.1.268-.152a.04.04,0,0,1,.022-.01c.146-.084.288-.168.419-.242s.258-.147.352-.2a2.285,2.285,0,0,1,.2-.11.914.914,0,0,0,.272-.221,1.193,1.193,0,0,0,.215-.326,1.985,1.985,0,0,0,.184-.846V93.4l-2.044,1.2v71.439a2.379,2.379,0,0,1-.168.809,1.264,1.264,0,0,1-.293.42.278.278,0,0,1-.09.079.118.118,0,0,1-.037.037" transform="translate(-145.762 -93.404)" fill="#37474f"/>
            </g>
          </g>
        </g>
        <path id="Trazado_236070" data-name="Trazado 236070" d="M99.035,130.524a34.979,34.979,0,0,1,4.27-2.46l10.741-.337L109.776,130v.188Z" transform="translate(-26.69 -34.422)" fill="#263238"/>
        <path id="Trazado_236071" data-name="Trazado 236071" d="M99.035,132.273v-8.928l10.741-.337v-.188l-10.741-12.8v-8.928l18.42,22.895v6.728Z" transform="translate(-26.69 -27.243)" fill="#fafafa"/>
        <path id="Trazado_236072" data-name="Trazado 236072" d="M99.035,100.18l4.27-2.46,18.42,22.895-4.27,2.46Z" transform="translate(-26.69 -26.335)" fill="#455a64"/>
        <path id="Trazado_236073" data-name="Trazado 236073" d="M128.519,129.06v6.728l-4.27,2.46v-6.728Z" transform="translate(-33.485 -34.782)" fill="#37474f"/>
        <path id="Trazado_236074" data-name="Trazado 236074" d="M64.54,66.368l5.514,3.184,14.254,52.242-5.718-3.3Z" transform="translate(-17.394 -17.886)" fill="#fafafa"/>
        <path id="Trazado_236075" data-name="Trazado 236075" d="M64.54,65.46,68.81,63l5.514,3.184-4.27,2.46Z" transform="translate(-17.394 -16.978)" fill="#455a64"/>
        <path id="Trazado_236076" data-name="Trazado 236076" d="M76.358,67.357l-4.27,2.46,14.254,52.242,4.27-2.46Z" transform="translate(-19.428 -18.153)" fill="#37474f"/>
        <path id="Trazado_236077" data-name="Trazado 236077" d="M57.412,99.211l-4.27,2.46L42.4,88.743l4.27-2.46Z" transform="translate(-11.427 -23.253)" fill="#263238"/>
        <path id="Trazado_236078" data-name="Trazado 236078" d="M39.569,86.4,50.31,99.137v8.929L31.891,85.233V78.506L50.31,76.879v8.929l-10.741.4Z" transform="translate(-8.595 -20.719)" fill="#fafafa"/>
        <path id="Trazado_236079" data-name="Trazado 236079" d="M54.579,73.512l-4.27,2.46L31.891,77.6l4.27-2.46Z" transform="translate(-8.595 -19.811)" fill="#455a64"/>
        <path id="Trazado_236080" data-name="Trazado 236080" d="M57.1,75.972V84.9l4.27-2.46V73.511" transform="translate(-15.39 -19.811)" fill="#37474f"/>
        <path id="Trazado_236081" data-name="Trazado 236081" d="M61.375,103.981l-4.27,2.46v8.928l4.27-2.46Z" transform="translate(-15.39 -28.023)" fill="#37474f"/>
      </g>
    </g>
  </g>
</svg>
