<svg id="Grupo_985893" data-name="Grupo 985893" xmlns="http://www.w3.org/2000/svg" xmlns:xlink="http://www.w3.org/1999/xlink" width="238.251" height="325.142" viewBox="0 0 238.251 325.142">
  <defs>
    <clipPath id="clip-path">
      <rect id="Rectángulo_342919" data-name="Rectángulo 342919" width="238.251" height="325.142" fill="none"/>
    </clipPath>
    <clipPath id="clip-path-3">
      <rect id="Rectángulo_342907" data-name="Rectángulo 342907" width="238.245" height="137.384" transform="translate(0 13.266)" fill="none"/>
    </clipPath>
    <clipPath id="clip-path-4">
      <rect id="Rectángulo_342908" data-name="Rectángulo 342908" width="238.245" height="150.723" transform="translate(0)" fill="none"/>
    </clipPath>
    <clipPath id="clip-path-5">
      <rect id="Rectángulo_342909" data-name="Rectángulo 342909" width="232.711" height="147.312" transform="translate(0 3.411)" fill="none"/>
    </clipPath>
    <clipPath id="clip-path-6">
      <rect id="Rectángulo_342910" data-name="Rectángulo 342910" width="6.16" height="16.9" transform="translate(232.08 133.824)" fill="none"/>
    </clipPath>
    <clipPath id="clip-path-7">
      <rect id="Rectángulo_342911" data-name="Rectángulo 342911" width="40.468" height="29.145" transform="translate(185.597 136.39)" fill="none"/>
    </clipPath>
    <clipPath id="clip-path-8">
      <rect id="Rectángulo_342912" data-name="Rectángulo 342912" width="140.196" height="87.124" transform="translate(17.857 117.991)" fill="none"/>
    </clipPath>
    <clipPath id="clip-path-9">
      <rect id="Rectángulo_342913" data-name="Rectángulo 342913" width="2.088" height="2.696" transform="translate(155.966 169.586)" fill="none"/>
    </clipPath>
    <clipPath id="clip-path-10">
      <rect id="Rectángulo_342914" data-name="Rectángulo 342914" width="37.058" height="27.341" transform="translate(120.201 237.695)" fill="none"/>
    </clipPath>
    <clipPath id="clip-path-11">
      <rect id="Rectángulo_342915" data-name="Rectángulo 342915" width="37.058" height="23.938" transform="translate(71.457 212.898)" fill="none"/>
    </clipPath>
    <clipPath id="clip-path-12">
      <rect id="Rectángulo_342916" data-name="Rectángulo 342916" width="7.497" height="12.717" transform="translate(55.459 163.072)" fill="none"/>
    </clipPath>
    <clipPath id="clip-path-13">
      <rect id="Rectángulo_342917" data-name="Rectángulo 342917" width="7.885" height="24.624" transform="translate(27.024 146.594)" fill="none"/>
    </clipPath>
  </defs>
  <g id="Grupo_981207" data-name="Grupo 981207" clip-path="url(#clip-path)">
    <g id="Grupo_981206" data-name="Grupo 981206">
      <g id="Grupo_981205" data-name="Grupo 981205" clip-path="url(#clip-path)">
        <path id="Trazado_655372" data-name="Trazado 655372" d="M0,16.453l232.71,134.2V322.163a2.97,2.97,0,0,1-4.448,2.579l-4.148-2.4L4.339,195.627A9.585,9.585,0,0,1,0,188.115Z" fill="#f0f0f0"/>
        <path id="Trazado_655373" data-name="Trazado 655373" d="M1,18.184,231.71,151.228V322.163a1.942,1.942,0,0,1-.6,1.418,2.011,2.011,0,0,1-1.377.561,1.931,1.931,0,0,1-.973-.266l-4.148-2.4L4.838,194.76A8.624,8.624,0,0,1,1,188.115ZM0,16.453V188.115a9.585,9.585,0,0,0,4.339,7.512l219.774,126.72,4.148,2.4a2.939,2.939,0,0,0,1.473.4,2.978,2.978,0,0,0,2.975-2.979V150.65Z" fill="#e0e0e0"/>
        <g id="Grupo_981174" data-name="Grupo 981174" opacity="0.8">
          <g id="Grupo_981173" data-name="Grupo 981173">
            <g id="Grupo_981172" data-name="Grupo 981172" clip-path="url(#clip-path-3)">
              <path id="Trazado_655374" data-name="Trazado 655374" d="M5.52,13.267,238.245,147.456l-5.534,3.2L0,16.454Z" fill="#455a64"/>
            </g>
          </g>
        </g>
        <path id="Trazado_655375" data-name="Trazado 655375" d="M231.151,324.783a3,3,0,0,0,1.558-2.619V150.65l5.535-3.194.006,170.565a4.8,4.8,0,0,1-.042.632,4.594,4.594,0,0,1-2.264,3.36l-4.569,2.644Z" fill="#ebebeb"/>
        <path id="Trazado_655376" data-name="Trazado 655376" d="M238.245,147.53V135.958a4.82,4.82,0,0,0-2.158-3.761L7.679.525A4.757,4.757,0,0,0,3.355.514L2.166,1.2A4.784,4.784,0,0,0,0,4.951V16.542l232.71,134.181Z" fill="#27debf"/>
        <g id="Grupo_981177" data-name="Grupo 981177" opacity="0.3">
          <g id="Grupo_981176" data-name="Grupo 981176">
            <g id="Grupo_981175" data-name="Grupo 981175" clip-path="url(#clip-path-4)">
              <path id="Trazado_655377" data-name="Trazado 655377" d="M238.245,147.53V135.958a4.82,4.82,0,0,0-2.158-3.761L7.679.525A4.757,4.757,0,0,0,3.355.514L2.166,1.2A4.784,4.784,0,0,0,0,4.951V16.542l232.71,134.181Z"/>
            </g>
          </g>
        </g>
        <path id="Trazado_655378" data-name="Trazado 655378" d="M232.711,139.154a4.816,4.816,0,0,0-2.158-3.761L2.159,3.713C.967,3.016,0,3.571,0,4.951V16.542l232.71,134.182Z" fill="#27debf"/>
        <g id="Grupo_981180" data-name="Grupo 981180" opacity="0.4">
          <g id="Grupo_981179" data-name="Grupo 981179">
            <g id="Grupo_981178" data-name="Grupo 981178" clip-path="url(#clip-path-5)">
              <path id="Trazado_655379" data-name="Trazado 655379" d="M232.711,139.154a4.816,4.816,0,0,0-2.158-3.761L2.159,3.713C.967,3.016,0,3.571,0,4.951V16.542l232.71,134.182Z"/>
            </g>
          </g>
        </g>
        <path id="Trazado_655380" data-name="Trazado 655380" d="M232.08,137.014a4.466,4.466,0,0,1,.63,2.14v11.57l5.53-3.19v-11.58a4.43,4.43,0,0,0-.63-2.13Z" fill="#27debf"/>
        <g id="Grupo_981183" data-name="Grupo 981183" opacity="0.5">
          <g id="Grupo_981182" data-name="Grupo 981182">
            <g id="Grupo_981181" data-name="Grupo 981181" clip-path="url(#clip-path-6)">
              <path id="Trazado_655381" data-name="Trazado 655381" d="M232.08,137.014a4.466,4.466,0,0,1,.63,2.14v11.57l5.53-3.19v-11.58a4.43,4.43,0,0,0-.63-2.13Z"/>
            </g>
          </g>
        </g>
        <path id="Trazado_655382" data-name="Trazado 655382" d="M10.155,16.017c0,1.3-.909,1.82-2.031,1.173a4.49,4.49,0,0,1-2.031-3.518c0-1.3.909-1.82,2.031-1.173a4.49,4.49,0,0,1,2.031,3.518" fill="#fafafa"/>
        <path id="Trazado_655383" data-name="Trazado 655383" d="M18.279,20.708c0,1.3-.909,1.82-2.031,1.173a4.49,4.49,0,0,1-2.031-3.518c0-1.3.909-1.82,2.031-1.173a4.49,4.49,0,0,1,2.031,3.518" fill="#fafafa"/>
        <path id="Trazado_655384" data-name="Trazado 655384" d="M26.4,25.4c0,1.3-.909,1.82-2.031,1.173a4.49,4.49,0,0,1-2.031-3.518c0-1.3.909-1.82,2.031-1.173A4.49,4.49,0,0,1,26.4,25.4" fill="#fafafa"/>
        <path id="Trazado_655385" data-name="Trazado 655385" d="M232.71,150.727V322.164a2.97,2.97,0,0,1-4.448,2.578l-4.148-2.4-50.855-29.322V116.444l59.452,34.28Z" fill="#fafafa"/>
        <path id="Trazado_655386" data-name="Trazado 655386" d="M169.2,119.339V285.85L4.878,190.981V24.471Z" fill="#fafafa"/>
        <path id="Trazado_655387" data-name="Trazado 655387" d="M186.868,136.563l37.926,21.915a2.809,2.809,0,0,1,1.271,2.2v3.948c0,.81-.568,1.139-1.27.734l-37.926-21.915a2.811,2.811,0,0,1-1.271-2.2V137.3c0-.811.569-1.139,1.271-.734" fill="#27debf"/>
        <g id="Grupo_981186" data-name="Grupo 981186" opacity="0.8">
          <g id="Grupo_981185" data-name="Grupo 981185">
            <g id="Grupo_981184" data-name="Grupo 981184" clip-path="url(#clip-path-7)">
              <path id="Trazado_655388" data-name="Trazado 655388" d="M186.868,136.563l37.926,21.915a2.809,2.809,0,0,1,1.271,2.2v3.948c0,.81-.568,1.139-1.27.734l-37.926-21.915a2.811,2.811,0,0,1-1.271-2.2V137.3c0-.811.569-1.139,1.271-.734" fill="#fafafa"/>
            </g>
          </g>
        </g>
        <path id="Trazado_655389" data-name="Trazado 655389" d="M178.411,138.752a.44.44,0,0,0,.622.012l.917-.882a3.018,3.018,0,0,0,.992,1.018,1.524,1.524,0,0,0,.761.221,1.182,1.182,0,0,0,.6-.161,2.114,2.114,0,0,0,.835-1.919,4.465,4.465,0,0,0-1.756-3.632,1.323,1.323,0,0,0-1.361-.06,2.113,2.113,0,0,0-.835,1.919,4.977,4.977,0,0,0,.355,1.786l-1.118,1.076a.439.439,0,0,0-.012.622m1.655-3.484c0-.686.213-1.051.4-1.157a.318.318,0,0,1,.162-.042.652.652,0,0,1,.318.1,3.641,3.641,0,0,1,1.316,2.87c0,.685-.213,1.051-.4,1.157a.476.476,0,0,1-.48-.061,3.639,3.639,0,0,1-1.316-2.869" fill="#455a64"/>
        <path id="Trazado_655390" data-name="Trazado 655390" d="M225.141,176.948l.851.491c.05.029.09,0,.09-.068v-2.3a.218.218,0,0,0-.09-.174l-.851-.491c-.05-.029-.091,0-.091.069v2.3a.218.218,0,0,0,.091.173" fill="#455a64"/>
        <path id="Trazado_655391" data-name="Trazado 655391" d="M223.866,176.212l.851.491c.05.029.091,0,.091-.068v-2.3a.218.218,0,0,0-.091-.173l-.851-.491c-.05-.029-.091,0-.091.069v2.3a.218.218,0,0,0,.091.173" fill="#455a64"/>
        <path id="Trazado_655392" data-name="Trazado 655392" d="M222.592,175.476l.851.491c.05.029.09,0,.09-.068v-2.3a.218.218,0,0,0-.09-.173l-.851-.491c-.05-.029-.091,0-.091.069v2.3a.218.218,0,0,0,.091.173" fill="#455a64"/>
        <path id="Trazado_655393" data-name="Trazado 655393" d="M225.141,179.918l.851.491c.05.029.09,0,.09-.068v-2.3a.218.218,0,0,0-.09-.174l-.851-.491c-.05-.029-.091,0-.091.069v2.3a.218.218,0,0,0,.091.173" fill="#455a64"/>
        <path id="Trazado_655394" data-name="Trazado 655394" d="M223.866,179.182l.851.491c.05.029.091,0,.091-.068v-2.3a.218.218,0,0,0-.091-.173l-.851-.491c-.05-.029-.091,0-.091.069v2.3a.218.218,0,0,0,.091.173" fill="#455a64"/>
        <path id="Trazado_655395" data-name="Trazado 655395" d="M222.592,178.446l.851.491c.05.029.09,0,.09-.068v-2.3a.218.218,0,0,0-.09-.173l-.851-.491c-.05-.029-.091,0-.091.069v2.3a.218.218,0,0,0,.091.173" fill="#455a64"/>
        <path id="Trazado_655396" data-name="Trazado 655396" d="M225.006,187.765l1.047-.638c.04-.025.04-.117,0-.188l-1.047-1.847c-.051-.089-.124-.076-.124.022V187.6c0,.1.073.2.124.165" fill="#455a64"/>
        <path id="Trazado_655397" data-name="Trazado 655397" d="M225.446,186.355l-1.379-.8v.655l1.379.8c.117.068.213-.024.213-.2a.564.564,0,0,0-.213-.451" fill="#455a64"/>
        <path id="Trazado_655398" data-name="Trazado 655398" d="M223.81,185.41l-.47-.271v.655l.47.271Z" fill="#455a64"/>
        <path id="Trazado_655399" data-name="Trazado 655399" d="M222.072,184.734v2.411a.558.558,0,0,0,.213.45c.117.068.213-.021.213-.2v-2.084l.583.337v-.655l-.8-.46c-.117-.067-.213.025-.213.2" fill="#455a64"/>
        <path id="Trazado_655400" data-name="Trazado 655400" d="M222.874,194.652c.007,1.869.958,2.8,1.056,3.564a.239.239,0,0,0,.1.171l.932.529c.045.026.086,0,.1-.06.081-.582.826-.534,1-1.79a4.563,4.563,0,0,0-1.452-3.9c-.945-.65-1.73.051-1.725,1.485" fill="#455a64"/>
        <path id="Trazado_655401" data-name="Trazado 655401" d="M224.042,199.89l.9.52c.063.035.112,0,.112-.085V199.5a.263.263,0,0,0-.112-.213l-.9-.52c-.062-.036-.112,0-.112.084v.829a.266.266,0,0,0,.112.213" fill="#455a64"/>
        <path id="Trazado_655402" data-name="Trazado 655402" d="M222.1,175.912a5.464,5.464,0,0,0,1.634,3.457,1.406,1.406,0,0,0,1.319.387l.906.989c.075.081.146.013.121-.117l-.3-1.573a3.624,3.624,0,0,0,.238-1.887,5.463,5.463,0,0,0-1.631-3.451c-1.35-1.11-2.5-.006-2.284,2.2m.445-.243c0-1.284.679-1.937,1.513-1.456a4,4,0,0,1,1.513,3.2c0,1.284-.679,1.938-1.513,1.456a4,4,0,0,1-1.513-3.2" fill="#455a64"/>
        <path id="Trazado_655403" data-name="Trazado 655403" d="M222.1,206.259a5.464,5.464,0,0,0,1.634,3.457,1.406,1.406,0,0,0,1.319.387l.906.989c.075.081.146.013.121-.117l-.3-1.573a3.624,3.624,0,0,0,.238-1.887,5.463,5.463,0,0,0-1.631-3.451c-1.35-1.11-2.5-.006-2.284,2.2m.445-.243c0-1.285.679-1.938,1.513-1.456a4,4,0,0,1,1.513,3.2c0,1.285-.679,1.938-1.513,1.456a4,4,0,0,1-1.513-3.2" fill="#455a64"/>
        <path id="Trazado_655404" data-name="Trazado 655404" d="M223.1,215.184a2.1,2.1,0,0,0,.8,1.69c.441.255.8-.089.8-.768a2.1,2.1,0,0,0-.8-1.69c-.441-.255-.8.089-.8.768" fill="#455a64"/>
        <path id="Trazado_655405" data-name="Trazado 655405" d="M221.731,215.426a1.4,1.4,0,0,0,.532,1.126c.293.169.532-.06.532-.512a1.406,1.406,0,0,0-.532-1.126c-.294-.169-.532.06-.532.512" fill="#455a64"/>
        <path id="Trazado_655406" data-name="Trazado 655406" d="M222.958,220.027l1.885,1.089v-2.387a1.635,1.635,0,0,0-.682-1.3l-.52-.3c-.377-.218-.683.013-.683.516Z" fill="#455a64"/>
        <path id="Trazado_655407" data-name="Trazado 655407" d="M222.179,216.827l.519.3v2.751l-.979-.565v-2.137c0-.339.206-.5.46-.348" fill="#455a64"/>
        <path id="Trazado_655408" data-name="Trazado 655408" d="M226.07,217.931c0,.452-.238.681-.532.512a1.406,1.406,0,0,1-.531-1.126c0-.452.238-.681.531-.512a1.4,1.4,0,0,1,.532,1.126" fill="#455a64"/>
        <path id="Trazado_655409" data-name="Trazado 655409" d="M225.622,218.815l-.518-.3v2.75l.979.565V219.7a1.1,1.1,0,0,0-.461-.88" fill="#455a64"/>
        <path id="Trazado_655410" data-name="Trazado 655410" d="M216.858,171.552l-22.207-12.821c-.6-.346-1.083-.1-1.083.547a2.321,2.321,0,0,0,1.083,1.8L216.858,173.9c.6.346,1.083.1,1.083-.547a2.321,2.321,0,0,0-1.083-1.8" fill="#e0e0e0"/>
        <path id="Trazado_655411" data-name="Trazado 655411" d="M216.858,182.005l-22.207-12.821c-.6-.346-1.083-.1-1.083.547a2.321,2.321,0,0,0,1.083,1.8l22.207,12.821c.6.346,1.083.1,1.083-.547a2.321,2.321,0,0,0-1.083-1.8" fill="#e0e0e0"/>
        <path id="Trazado_655412" data-name="Trazado 655412" d="M216.858,192.458l-22.207-12.821c-.6-.345-1.083-.1-1.083.547a2.321,2.321,0,0,0,1.083,1.8L216.858,194.8c.6.346,1.083.1,1.083-.547a2.321,2.321,0,0,0-1.083-1.8" fill="#e0e0e0"/>
        <path id="Trazado_655413" data-name="Trazado 655413" d="M216.858,202.911,194.651,190.09c-.6-.345-1.083-.1-1.083.547a2.321,2.321,0,0,0,1.083,1.8l22.207,12.821c.6.346,1.083.1,1.083-.547a2.321,2.321,0,0,0-1.083-1.8" fill="#e0e0e0"/>
        <path id="Trazado_655414" data-name="Trazado 655414" d="M216.858,213.364l-22.207-12.821c-.6-.346-1.083-.1-1.083.547a2.321,2.321,0,0,0,1.083,1.8l22.207,12.821c.6.346,1.083.1,1.083-.547a2.321,2.321,0,0,0-1.083-1.8" fill="#e0e0e0"/>
        <path id="Trazado_655415" data-name="Trazado 655415" d="M212.8,221.9l-22.207-12.821c-.6-.346-1.083-.1-1.083.547a2.321,2.321,0,0,0,1.083,1.8L212.8,224.244c.6.346,1.083.1,1.083-.547a2.321,2.321,0,0,0-1.083-1.8" fill="#455a64"/>
        <path id="Trazado_655416" data-name="Trazado 655416" d="M212.8,228.96l-22.207-12.821c-.6-.346-1.083-.1-1.083.547a2.321,2.321,0,0,0,1.083,1.8L212.8,231.3c.6.346,1.083.1,1.083-.547a2.321,2.321,0,0,0-1.083-1.8" fill="#e0e0e0"/>
        <path id="Trazado_655417" data-name="Trazado 655417" d="M212.8,236.021,190.589,223.2c-.6-.345-1.083-.1-1.083.547a2.321,2.321,0,0,0,1.083,1.8L212.8,238.366c.6.346,1.083.1,1.083-.547a2.321,2.321,0,0,0-1.083-1.8" fill="#e0e0e0"/>
        <path id="Trazado_655418" data-name="Trazado 655418" d="M208.474,240.509l-22.207-12.821c-.6-.346-1.083-.1-1.083.547a2.321,2.321,0,0,0,1.083,1.8l22.207,12.821c.6.346,1.083.1,1.083-.547a2.321,2.321,0,0,0-1.083-1.8" fill="#e0e0e0"/>
        <path id="Trazado_655419" data-name="Trazado 655419" d="M213.665,246.585l-1.8-3.182c-.068-.121-.068-.281,0-.323l1.8-1.1c.087-.053.214.116.214.285v4.282c0,.169-.127.192-.214.038" fill="#455a64"/>
        <path id="Trazado_655420" data-name="Trazado 655420" d="M208.474,247.546l-22.207-12.821c-.6-.346-1.083-.1-1.083.547a2.321,2.321,0,0,0,1.083,1.8l22.207,12.821c.6.346,1.083.1,1.083-.547a2.321,2.321,0,0,0-1.083-1.8" fill="#e0e0e0"/>
        <path id="Trazado_655421" data-name="Trazado 655421" d="M213.665,253.621l-1.8-3.182c-.068-.121-.068-.281,0-.323l1.8-1.1c.087-.053.214.116.214.285v4.282c0,.169-.127.192-.214.038" fill="#455a64"/>
        <path id="Trazado_655422" data-name="Trazado 655422" d="M208.474,254.582l-22.207-12.821c-.6-.346-1.083-.1-1.083.547a2.321,2.321,0,0,0,1.083,1.8l22.207,12.821c.6.346,1.083.1,1.083-.547a2.321,2.321,0,0,0-1.083-1.8" fill="#e0e0e0"/>
        <path id="Trazado_655423" data-name="Trazado 655423" d="M213.665,260.658l-1.8-3.182c-.068-.122-.068-.281,0-.323l1.8-1.1c.087-.052.214.117.214.286v4.281c0,.169-.127.193-.214.039" fill="#455a64"/>
        <path id="Trazado_655424" data-name="Trazado 655424" d="M208.474,261.619,186.267,248.8c-.6-.346-1.083-.1-1.083.547a2.321,2.321,0,0,0,1.083,1.8l22.207,12.821c.6.345,1.083.1,1.083-.547a2.321,2.321,0,0,0-1.083-1.8" fill="#e0e0e0"/>
        <path id="Trazado_655425" data-name="Trazado 655425" d="M213.665,267.694l-1.8-3.182c-.068-.121-.068-.281,0-.323l1.8-1.1c.087-.053.214.116.214.285v4.282c0,.169-.127.192-.214.038" fill="#455a64"/>
        <path id="Trazado_655426" data-name="Trazado 655426" d="M208.474,268.655l-22.207-12.821c-.6-.346-1.083-.1-1.083.547a2.321,2.321,0,0,0,1.083,1.8L208.474,271c.6.346,1.083.1,1.083-.547a2.321,2.321,0,0,0-1.083-1.8" fill="#e0e0e0"/>
        <path id="Trazado_655427" data-name="Trazado 655427" d="M213.665,274.73l-1.8-3.181c-.068-.122-.068-.282,0-.324l1.8-1.1c.087-.053.214.117.214.285v4.283c0,.168-.127.191-.214.037" fill="#455a64"/>
        <path id="Trazado_655428" data-name="Trazado 655428" d="M208.474,275.692l-22.207-12.821c-.6-.345-1.083-.1-1.083.547a2.321,2.321,0,0,0,1.083,1.8l22.207,12.821c.6.346,1.083.1,1.083-.547a2.321,2.321,0,0,0-1.083-1.8" fill="#e0e0e0"/>
        <path id="Trazado_655429" data-name="Trazado 655429" d="M213.665,281.767l-1.8-3.182c-.068-.121-.068-.281,0-.323l1.8-1.1c.087-.053.214.116.214.285v4.282c0,.169-.127.192-.214.038" fill="#455a64"/>
        <path id="Trazado_655430" data-name="Trazado 655430" d="M208.474,282.728l-22.207-12.821c-.6-.345-1.083-.1-1.083.547a2.321,2.321,0,0,0,1.083,1.8l22.207,12.821c.6.346,1.083.1,1.083-.547a2.321,2.321,0,0,0-1.083-1.8" fill="#e0e0e0"/>
        <path id="Trazado_655431" data-name="Trazado 655431" d="M213.665,288.8l-1.8-3.182c-.068-.121-.068-.281,0-.323l1.8-1.1c.087-.053.214.116.214.285v4.282c0,.169-.127.192-.214.038" fill="#455a64"/>
        <path id="Trazado_655432" data-name="Trazado 655432" d="M208.474,289.765l-22.207-12.821c-.6-.346-1.083-.1-1.083.547a2.321,2.321,0,0,0,1.083,1.8l22.207,12.821c.6.346,1.083.1,1.083-.547a2.321,2.321,0,0,0-1.083-1.8" fill="#e0e0e0"/>
        <path id="Trazado_655433" data-name="Trazado 655433" d="M213.665,295.84l-1.8-3.182c-.068-.121-.068-.281,0-.323l1.8-1.1c.087-.053.214.116.214.285V295.8c0,.169-.127.192-.214.038" fill="#455a64"/>
        <path id="Trazado_655434" data-name="Trazado 655434" d="M164.052,142.175l-72.99-42.141a2.391,2.391,0,0,1-1.082-1.875V79.552c0-.69.484-.97,1.082-.625l72.99,42.133a2.391,2.391,0,0,1,1.082,1.875V141.55c0,.69-.484.97-1.082.625" fill="#f0f0f0"/>
        <path id="Trazado_655435" data-name="Trazado 655435" d="M157.7,123.31l.733-1.13a14.727,14.727,0,0,1,1.732,4.667l-1.185-.091a10.845,10.845,0,0,0-1.28-3.446" fill="#455a64"/>
        <path id="Trazado_655436" data-name="Trazado 655436" d="M155.631,121.076v-1.915a8.315,8.315,0,0,1,2.8,3.019l-.733,1.129a6.15,6.15,0,0,0-2.068-2.233" fill="#455a64"/>
        <path id="Trazado_655437" data-name="Trazado 655437" d="M159.152,128.53a9.677,9.677,0,0,0-.173-1.775l1.184.091a13.036,13.036,0,0,1,.233,2.4,9.141,9.141,0,0,1-.233,2.133l-1.184-1.276a6.779,6.779,0,0,0,.173-1.575" fill="#455a64"/>
        <path id="Trazado_655438" data-name="Trazado 655438" d="M151.1,121.613a3.934,3.934,0,0,1,1.732-2.667,2.776,2.776,0,0,1,2.8.214v1.916a2.044,2.044,0,0,0-2.067-.153,2.894,2.894,0,0,0-1.281,1.966,6.791,6.791,0,0,0-.173,1.575,9.694,9.694,0,0,0,.173,1.776,10.864,10.864,0,0,0,1.281,3.446,6.153,6.153,0,0,0,2.067,2.232,2.047,2.047,0,0,0,2.068.154,2.9,2.9,0,0,0,1.28-1.967l1.184,1.277a3.932,3.932,0,0,1-1.731,2.667,2.778,2.778,0,0,1-2.8-.215,8.312,8.312,0,0,1-2.8-3.019,14.735,14.735,0,0,1-1.732-4.667,13.036,13.036,0,0,1-.233-2.4,9.141,9.141,0,0,1,.233-2.133" fill="#27debf"/>
        <path id="Trazado_655439" data-name="Trazado 655439" d="M143.741,116.369l-22.207-12.821c-.6-.346-1.083-.1-1.083.547a2.321,2.321,0,0,0,1.083,1.8l22.208,12.821c.6.346,1.082.1,1.082-.547a2.321,2.321,0,0,0-1.083-1.8" fill="#455a64"/>
        <path id="Trazado_655440" data-name="Trazado 655440" d="M143.741,121.1,105.286,98.9c-.6-.345-1.083-.1-1.083.548a2.321,2.321,0,0,0,1.083,1.8l38.456,22.2c.6.345,1.082.1,1.082-.548a2.321,2.321,0,0,0-1.083-1.8" fill="#e0e0e0"/>
        <path id="Trazado_655441" data-name="Trazado 655441" d="M84.85,96.439,11.86,54.3a2.391,2.391,0,0,1-1.082-1.875V33.816c0-.69.484-.97,1.082-.625L84.85,75.324A2.392,2.392,0,0,1,85.932,77.2V95.814c0,.69-.484.97-1.082.625" fill="#f0f0f0"/>
        <path id="Trazado_655442" data-name="Trazado 655442" d="M75.77,74.954V73.04a8.3,8.3,0,0,1,2.8,3.019l-.733,1.129a6.154,6.154,0,0,0-2.068-2.234" fill="#455a64"/>
        <path id="Trazado_655443" data-name="Trazado 655443" d="M71.238,75.492a3.929,3.929,0,0,1,1.732-2.667,2.776,2.776,0,0,1,2.8.214v1.916A2.045,2.045,0,0,0,73.7,74.8a2.9,2.9,0,0,0-1.281,1.967,6.779,6.779,0,0,0-.173,1.575,9.676,9.676,0,0,0,.173,1.775A10.876,10.876,0,0,0,73.7,83.56,6.194,6.194,0,0,0,75.77,85.8a2.047,2.047,0,0,0,2.068.154,2.9,2.9,0,0,0,1.28-1.967,6.725,6.725,0,0,0,.173-1.575,9.589,9.589,0,0,0-.173-1.775,10.868,10.868,0,0,0-1.28-3.446l.733-1.13A14.71,14.71,0,0,1,80.3,80.725a13.038,13.038,0,0,1,.234,2.4A9.138,9.138,0,0,1,80.3,85.26a3.93,3.93,0,0,1-1.731,2.667,2.777,2.777,0,0,1-2.8-.214,8.312,8.312,0,0,1-2.8-3.019v0a14.712,14.712,0,0,1-1.732-4.667,13.036,13.036,0,0,1-.233-2.4,9.141,9.141,0,0,1,.233-2.133" fill="#27debf"/>
        <path id="Trazado_655444" data-name="Trazado 655444" d="M63.9,70.247,41.692,57.426c-.6-.346-1.083-.1-1.083.547a2.321,2.321,0,0,0,1.083,1.8L63.9,72.593c.6.345,1.082.1,1.082-.548a2.321,2.321,0,0,0-1.083-1.8" fill="#455a64"/>
        <path id="Trazado_655445" data-name="Trazado 655445" d="M63.9,74.975l-38.455-22.2c-.6-.345-1.083-.1-1.083.548a2.321,2.321,0,0,0,1.083,1.8L63.9,77.321c.6.345,1.082.1,1.082-.548a2.321,2.321,0,0,0-1.083-1.8" fill="#e0e0e0"/>
        <path id="Trazado_655446" data-name="Trazado 655446" d="M156.616,147.277l-15.576-9.02c-.6-.345-1.083-.1-1.083.548a2.328,2.328,0,0,0,1.083,1.8l15.577,9.019c.6.345,1.082.1,1.082-.547a2.321,2.321,0,0,0-1.083-1.8" fill="#455a64"/>
        <path id="Trazado_655447" data-name="Trazado 655447" d="M11.318,69.216h0Zm.459.265,123.341,71.207a1.956,1.956,0,0,0,.983.282,1.634,1.634,0,0,0,1.6-1.773v-6.4l21.79,12.577a1.423,1.423,0,0,1,.582,1.009v6.881a3.4,3.4,0,0,0,1.583,2.741l1.9,1.1a1.423,1.423,0,0,1,.582,1.009V277.079L12.359,189.456a1.421,1.421,0,0,1-.583-1.009V69.481m125.464,63.055h0M11.376,68.222c-.355,0-.6.283-.6.773V188.447a2.4,2.4,0,0,0,1.083,1.875L164.051,278.19a.986.986,0,0,0,.484.148c.355,0,.6-.284.6-.773V158.113a2.392,2.392,0,0,0-1.082-1.875l-1.9-1.1a2.393,2.393,0,0,1-1.083-1.875v-6.881a2.392,2.392,0,0,0-1.082-1.875l-22.207-12.821a.976.976,0,0,0-.484-.148c-.355,0-.6.283-.6.773V139.2c0,.489-.244.773-.6.773a.983.983,0,0,1-.483-.148L11.86,68.37a.986.986,0,0,0-.484-.148" fill="#e0e0e0"/>
        <path id="Trazado_655448" data-name="Trazado 655448" d="M154.613,163.092l-12.069-6.959a2.9,2.9,0,0,1-1.333-2.308v-4.536a1.15,1.15,0,0,1,1.832-1.058l12.07,6.959a2.906,2.906,0,0,1,1.332,2.308v4.536a1.249,1.249,0,0,1-.566,1.133,1.05,1.05,0,0,1-.531.139,1.482,1.482,0,0,1-.735-.214M142.544,149.1c-.149-.085-.247-.088-.266-.075s-.067.1-.067.267v4.536a1.9,1.9,0,0,0,.832,1.441l12.07,6.96a.384.384,0,0,0,.265.076c.021-.013.067-.1.067-.268V157.5a1.9,1.9,0,0,0-.832-1.442Z" fill="#e0e0e0"/>
        <path id="Trazado_655449" data-name="Trazado 655449" d="M153.9,157.924l-7.866-4.565c-.4-.23-.721-.066-.721.365a1.547,1.547,0,0,0,.721,1.2l7.866,4.565c.4.23.722.067.721-.365a1.547,1.547,0,0,0-.721-1.2" fill="#e0e0e0"/>
        <path id="Trazado_655450" data-name="Trazado 655450" d="M144.2,152.612l-.652.926c-.025.035-.074.007-.1-.057L142.8,151.8c-.031-.081,0-.155.05-.126l1.3.753a.159.159,0,0,1,.049.183" fill="#455a64"/>
        <path id="Trazado_655451" data-name="Trazado 655451" d="M157.01,207.252c-.576-.333-1.044-.063-1.044.6a2.31,2.31,0,0,0,1.044,1.808c.577.332,1.044.063,1.044-.6a2.306,2.306,0,0,0-1.044-1.808" fill="#27debf"/>
        <path id="Trazado_655452" data-name="Trazado 655452" d="M148.886,197.871c-.577-.333-1.044-.063-1.044.6a2.307,2.307,0,0,0,1.044,1.808c.576.332,1.044.063,1.044-.6a2.308,2.308,0,0,0-1.044-1.808" fill="#27debf"/>
        <path id="Trazado_655453" data-name="Trazado 655453" d="M140.762,193.181c-.576-.333-1.044-.063-1.044.6a2.31,2.31,0,0,0,1.044,1.808c.577.332,1.044.063,1.044-.6a2.306,2.306,0,0,0-1.044-1.808" fill="#27debf"/>
        <path id="Trazado_655454" data-name="Trazado 655454" d="M132.637,190.551c-.576-.333-1.044-.063-1.044.6a2.31,2.31,0,0,0,1.044,1.808c.577.332,1.045.063,1.045-.6a2.307,2.307,0,0,0-1.045-1.808" fill="#27debf"/>
        <path id="Trazado_655455" data-name="Trazado 655455" d="M124.5,182.1c-.577-.333-1.044-.063-1.044.6a2.307,2.307,0,0,0,1.044,1.808c.576.332,1.044.063,1.044-.6A2.308,2.308,0,0,0,124.5,182.1" fill="#27debf"/>
        <path id="Trazado_655456" data-name="Trazado 655456" d="M116.389,179.109c-.577-.332-1.044-.063-1.044.6a2.3,2.3,0,0,0,1.044,1.808c.576.332,1.044.063,1.044-.6a2.309,2.309,0,0,0-1.044-1.808" fill="#27debf"/>
        <path id="Trazado_655457" data-name="Trazado 655457" d="M108.267,169.728c-.578-.333-1.044-.063-1.044.6a2.3,2.3,0,0,0,1.044,1.808c.575.332,1.044.063,1.044-.6a2.311,2.311,0,0,0-1.044-1.808" fill="#27debf"/>
        <path id="Trazado_655458" data-name="Trazado 655458" d="M100.141,167.383c-.576-.332-1.044-.063-1.044.6a2.307,2.307,0,0,0,1.044,1.808c.577.332,1.044.063,1.044-.6a2.306,2.306,0,0,0-1.044-1.808" fill="#27debf"/>
        <path id="Trazado_655459" data-name="Trazado 655459" d="M92.017,141.586c-.576-.333-1.044-.063-1.044.6A2.31,2.31,0,0,0,92.017,144c.577.332,1.044.063,1.044-.6a2.306,2.306,0,0,0-1.044-1.808" fill="#27debf"/>
        <path id="Trazado_655460" data-name="Trazado 655460" d="M83.893,155.657c-.576-.333-1.044-.063-1.044.6a2.31,2.31,0,0,0,1.044,1.808c.577.332,1.044.063,1.044-.6a2.306,2.306,0,0,0-1.044-1.808" fill="#27debf"/>
        <path id="Trazado_655461" data-name="Trazado 655461" d="M75.769,155.657c-.577-.333-1.044-.063-1.044.6a2.307,2.307,0,0,0,1.044,1.808c.576.332,1.044.063,1.044-.6a2.309,2.309,0,0,0-1.044-1.808" fill="#27debf"/>
        <path id="Trazado_655462" data-name="Trazado 655462" d="M67.645,155.658c-.577-.333-1.044-.063-1.044.6a2.307,2.307,0,0,0,1.044,1.808c.576.332,1.044.063,1.044-.6a2.309,2.309,0,0,0-1.044-1.808" fill="#27debf"/>
        <path id="Trazado_655463" data-name="Trazado 655463" d="M59.521,141.586c-.576-.333-1.044-.063-1.044.6A2.31,2.31,0,0,0,59.521,144c.577.332,1.044.063,1.044-.6a2.306,2.306,0,0,0-1.044-1.808" fill="#27debf"/>
        <path id="Trazado_655464" data-name="Trazado 655464" d="M51.4,138.891c-.576-.333-1.044-.063-1.044.6A2.31,2.31,0,0,0,51.4,141.3c.577.332,1.044.063,1.044-.6a2.306,2.306,0,0,0-1.044-1.808" fill="#27debf"/>
        <path id="Trazado_655465" data-name="Trazado 655465" d="M43.245,127.515c-.577-.333-1.044-.063-1.044.6a2.307,2.307,0,0,0,1.044,1.808c.576.332,1.044.063,1.044-.6a2.309,2.309,0,0,0-1.044-1.808" fill="#27debf"/>
        <path id="Trazado_655466" data-name="Trazado 655466" d="M35.149,127.515c-.576-.333-1.044-.063-1.044.6a2.31,2.31,0,0,0,1.044,1.808c.577.332,1.044.063,1.044-.6a2.306,2.306,0,0,0-1.044-1.808" fill="#27debf"/>
        <path id="Trazado_655467" data-name="Trazado 655467" d="M27.025,127.515c-.577-.333-1.044-.063-1.044.6a2.307,2.307,0,0,0,1.044,1.808c.576.332,1.044.063,1.044-.6a2.309,2.309,0,0,0-1.044-1.808" fill="#27debf"/>
        <path id="Trazado_655468" data-name="Trazado 655468" d="M18.9,122.825c-.577-.333-1.044-.063-1.044.6a2.307,2.307,0,0,0,1.044,1.808c.576.332,1.044.063,1.044-.6a2.309,2.309,0,0,0-1.044-1.808" fill="#27debf"/>
        <path id="Trazado_655469" data-name="Trazado 655469" d="M157.031,208.72a.248.248,0,0,0,.164-.061.251.251,0,0,0,.025-.353l-8.2-9.427a.25.25,0,0,0-.063-.053l-8.066-4.655-8.112-2.633-8.08-8.4a.255.255,0,0,0-.094-.061l-8.064-2.972-8.083-9.333a.252.252,0,0,0-.12-.077l-7.994-2.307-8.084-25.669a.251.251,0,0,0-.211-.173.256.256,0,0,0-.244.123L83.75,156.613l-8-.011-7.96.011-8.052-13.946a.251.251,0,0,0-.138-.112l-8.047-2.67-8.077-11.31a.25.25,0,0,0-.2-.1H27.093l-8.068-4.657a.25.25,0,1,0-.25.432l8.125,4.691a.25.25,0,0,0,.125.034H43.144l8.05,11.271a.247.247,0,0,0,.124.091L59.352,143l8.076,13.989a.252.252,0,0,0,.217.125l8.105-.011,8.144.011a.252.252,0,0,0,.217-.125l7.839-13.579L99.9,168.664a.25.25,0,0,0,.169.165l8.052,2.324,8.077,9.326a.24.24,0,0,0,.1.071l8.071,2.974,8.084,8.406a.263.263,0,0,0,.1.064l8.124,2.631,7.982,4.614,8.176,9.4a.248.248,0,0,0,.188.086" fill="#27debf"/>
        <path id="Trazado_655470" data-name="Trazado 655470" d="M157.01,213.648a.5.5,0,0,0,.25-.933L19.151,132.978a.5.5,0,1,0-.5.866L156.76,213.581a.491.491,0,0,0,.25.067" fill="#e0e0e0"/>
        <path id="Trazado_655471" data-name="Trazado 655471" d="M157.01,202.562c-.576-.333-1.044-.063-1.044.6a2.31,2.31,0,0,0,1.044,1.808c.577.332,1.044.063,1.044-.6a2.306,2.306,0,0,0-1.044-1.808" fill="#27debf"/>
        <path id="Trazado_655472" data-name="Trazado 655472" d="M148.886,188.49c-.577-.333-1.044-.063-1.044.6a2.307,2.307,0,0,0,1.044,1.808c.576.332,1.044.063,1.044-.6a2.308,2.308,0,0,0-1.044-1.808" fill="#27debf"/>
        <path id="Trazado_655473" data-name="Trazado 655473" d="M140.762,186.734c-.576-.332-1.044-.063-1.044.6a2.307,2.307,0,0,0,1.044,1.808c.577.334,1.044.063,1.044-.6a2.306,2.306,0,0,0-1.044-1.808" fill="#27debf"/>
        <path id="Trazado_655474" data-name="Trazado 655474" d="M132.638,169.728c-.576-.333-1.044-.063-1.044.6a2.307,2.307,0,0,0,1.044,1.808c.576.333,1.044.063,1.044-.6a2.306,2.306,0,0,0-1.044-1.808" fill="#27debf"/>
        <path id="Trazado_655475" data-name="Trazado 655475" d="M124.5,174.419c-.577-.333-1.044-.063-1.044.6a2.307,2.307,0,0,0,1.044,1.808c.576.332,1.044.063,1.044-.6a2.308,2.308,0,0,0-1.044-1.808" fill="#27debf"/>
        <path id="Trazado_655476" data-name="Trazado 655476" d="M116.388,172.074c-.577-.333-1.044-.063-1.044.6a2.307,2.307,0,0,0,1.044,1.808c.576.333,1.044.063,1.044-.6a2.309,2.309,0,0,0-1.044-1.808" fill="#27debf"/>
        <path id="Trazado_655477" data-name="Trazado 655477" d="M108.267,165.038c-.578-.333-1.044-.063-1.044.6a2.3,2.3,0,0,0,1.044,1.808c.575.332,1.044.063,1.044-.6a2.311,2.311,0,0,0-1.044-1.808" fill="#27debf"/>
        <path id="Trazado_655478" data-name="Trazado 655478" d="M100.142,155.657c-.577-.333-1.044-.063-1.044.6a2.307,2.307,0,0,0,1.044,1.808c.576.332,1.044.063,1.044-.6a2.309,2.309,0,0,0-1.044-1.808" fill="#27debf"/>
        <path id="Trazado_655479" data-name="Trazado 655479" d="M92.017,153.312c-.576-.333-1.044-.063-1.044.6a2.31,2.31,0,0,0,1.044,1.808c.577.332,1.044.063,1.044-.6a2.306,2.306,0,0,0-1.044-1.808" fill="#27debf"/>
        <path id="Trazado_655480" data-name="Trazado 655480" d="M83.894,146.277c-.578-.333-1.044-.063-1.044.6a2.3,2.3,0,0,0,1.044,1.808c.575.332,1.044.063,1.044-.6a2.311,2.311,0,0,0-1.044-1.808" fill="#27debf"/>
        <path id="Trazado_655481" data-name="Trazado 655481" d="M75.77,146.277c-.576-.333-1.044-.063-1.044.6a2.3,2.3,0,0,0,1.044,1.808c.575.332,1.043.063,1.043-.6a2.3,2.3,0,0,0-1.043-1.808" fill="#27debf"/>
        <path id="Trazado_655482" data-name="Trazado 655482" d="M67.645,127.515c-.577-.333-1.044-.063-1.044.6a2.307,2.307,0,0,0,1.044,1.808c.576.332,1.044.063,1.044-.6a2.309,2.309,0,0,0-1.044-1.808" fill="#27debf"/>
        <path id="Trazado_655483" data-name="Trazado 655483" d="M59.521,136.829c-.577-.333-1.044-.063-1.044.6a2.307,2.307,0,0,0,1.044,1.808c.576.332,1.044.063,1.044-.6a2.309,2.309,0,0,0-1.044-1.808" fill="#27debf"/>
        <path id="Trazado_655484" data-name="Trazado 655484" d="M51.4,127.515c-.576-.333-1.044-.063-1.044.6a2.307,2.307,0,0,0,1.044,1.808c.576.332,1.044.063,1.044-.6a2.306,2.306,0,0,0-1.044-1.808" fill="#27debf"/>
        <path id="Trazado_655485" data-name="Trazado 655485" d="M43.273,122.825c-.577-.333-1.044-.063-1.044.6a2.307,2.307,0,0,0,1.044,1.808c.576.332,1.044.063,1.044-.6a2.309,2.309,0,0,0-1.044-1.808" fill="#27debf"/>
        <path id="Trazado_655486" data-name="Trazado 655486" d="M35.149,122.824c-.576-.333-1.044-.063-1.044.6a2.307,2.307,0,0,0,1.044,1.808c.576.332,1.044.063,1.044-.6a2.306,2.306,0,0,0-1.044-1.808" fill="#27debf"/>
        <path id="Trazado_655487" data-name="Trazado 655487" d="M27.025,118.134c-.577-.333-1.044-.063-1.044.6a2.307,2.307,0,0,0,1.044,1.808c.576.332,1.044.063,1.044-.6a2.309,2.309,0,0,0-1.044-1.808" fill="#27debf"/>
        <path id="Trazado_655488" data-name="Trazado 655488" d="M18.9,118.134c-.576-.333-1.044-.063-1.044.6a2.31,2.31,0,0,0,1.044,1.808c.577.332,1.044.063,1.044-.6a2.306,2.306,0,0,0-1.044-1.808" fill="#27debf"/>
        <path id="Trazado_655489" data-name="Trazado 655489" d="M157.009,204.018a.245.245,0,0,0,.125-.034.249.249,0,0,0,.091-.341l-8.182-14.105a.246.246,0,0,0-.164-.121l-7.945-1.7-8.07-16.894a.251.251,0,0,0-.152-.132.255.255,0,0,0-.2.022l-8.042,4.644-7.96-2.306-8.071-6.994-8.11-9.362a.259.259,0,0,0-.119-.077l-8.072-2.329-8.082-7a.254.254,0,0,0-.164-.061h-7.96l-8.059-18.611a.25.25,0,0,0-.191-.147.247.247,0,0,0-.228.083l-7.934,9.163-7.935-9.163a.232.232,0,0,0-.064-.053L43.369,123.8a.249.249,0,0,0-.125-.033H35.188l-8.038-4.642a.248.248,0,0,0-.125-.032H18.9a.25.25,0,0,0,0,.5h8.057l8.038,4.639a.251.251,0,0,0,.125.035h8.057l8.059,4.651,8.1,9.349a.257.257,0,0,0,.379,0l7.863-9.079,7.966,18.4a.25.25,0,0,0,.23.151H83.8l8.053,6.974a.252.252,0,0,0,.1.052L100,157.083l8.086,9.33,8.138,7.056a.25.25,0,0,0,.1.051l8.115,2.35a.257.257,0,0,0,.194-.024l7.9-4.56,8.006,16.762a.252.252,0,0,0,.174.137l7.958,1.7,8.126,14.01a.249.249,0,0,0,.216.125" fill="#27debf"/>
        <g id="Grupo_981189" data-name="Grupo 981189" opacity="0.3">
          <g id="Grupo_981188" data-name="Grupo 981188">
            <g id="Grupo_981187" data-name="Grupo 981187" clip-path="url(#clip-path-8)">
              <path id="Trazado_655490" data-name="Trazado 655490" d="M157.01,202.562c-.576-.333-1.044-.063-1.044.6a2.31,2.31,0,0,0,1.044,1.808c.577.332,1.044.063,1.044-.6a2.306,2.306,0,0,0-1.044-1.808"/>
              <path id="Trazado_655491" data-name="Trazado 655491" d="M148.886,188.49c-.577-.333-1.044-.063-1.044.6a2.307,2.307,0,0,0,1.044,1.808c.576.332,1.044.063,1.044-.6a2.308,2.308,0,0,0-1.044-1.808"/>
              <path id="Trazado_655492" data-name="Trazado 655492" d="M140.762,186.734c-.576-.332-1.044-.063-1.044.6a2.307,2.307,0,0,0,1.044,1.808c.577.334,1.044.063,1.044-.6a2.306,2.306,0,0,0-1.044-1.808"/>
              <path id="Trazado_655493" data-name="Trazado 655493" d="M132.638,169.728c-.576-.333-1.044-.063-1.044.6a2.307,2.307,0,0,0,1.044,1.808c.576.333,1.044.063,1.044-.6a2.306,2.306,0,0,0-1.044-1.808"/>
              <path id="Trazado_655494" data-name="Trazado 655494" d="M124.5,174.419c-.577-.333-1.044-.063-1.044.6a2.307,2.307,0,0,0,1.044,1.808c.576.332,1.044.063,1.044-.6a2.308,2.308,0,0,0-1.044-1.808"/>
              <path id="Trazado_655495" data-name="Trazado 655495" d="M116.388,172.074c-.577-.333-1.044-.063-1.044.6a2.307,2.307,0,0,0,1.044,1.808c.576.333,1.044.063,1.044-.6a2.309,2.309,0,0,0-1.044-1.808"/>
              <path id="Trazado_655496" data-name="Trazado 655496" d="M108.267,165.038c-.578-.333-1.044-.063-1.044.6a2.3,2.3,0,0,0,1.044,1.808c.575.332,1.044.063,1.044-.6a2.311,2.311,0,0,0-1.044-1.808"/>
              <path id="Trazado_655497" data-name="Trazado 655497" d="M100.142,155.657c-.577-.333-1.044-.063-1.044.6a2.307,2.307,0,0,0,1.044,1.808c.576.332,1.044.063,1.044-.6a2.309,2.309,0,0,0-1.044-1.808"/>
              <path id="Trazado_655498" data-name="Trazado 655498" d="M92.017,153.312c-.576-.333-1.044-.063-1.044.6a2.31,2.31,0,0,0,1.044,1.808c.577.332,1.044.063,1.044-.6a2.306,2.306,0,0,0-1.044-1.808"/>
              <path id="Trazado_655499" data-name="Trazado 655499" d="M83.894,146.277c-.578-.333-1.044-.063-1.044.6a2.3,2.3,0,0,0,1.044,1.808c.575.332,1.044.063,1.044-.6a2.311,2.311,0,0,0-1.044-1.808"/>
              <path id="Trazado_655500" data-name="Trazado 655500" d="M75.77,146.277c-.576-.333-1.044-.063-1.044.6a2.3,2.3,0,0,0,1.044,1.808c.575.332,1.043.063,1.043-.6a2.3,2.3,0,0,0-1.043-1.808"/>
              <path id="Trazado_655501" data-name="Trazado 655501" d="M67.645,127.515c-.577-.333-1.044-.063-1.044.6a2.307,2.307,0,0,0,1.044,1.808c.576.332,1.044.063,1.044-.6a2.309,2.309,0,0,0-1.044-1.808"/>
              <path id="Trazado_655502" data-name="Trazado 655502" d="M59.521,136.829c-.577-.333-1.044-.063-1.044.6a2.307,2.307,0,0,0,1.044,1.808c.576.332,1.044.063,1.044-.6a2.309,2.309,0,0,0-1.044-1.808"/>
              <path id="Trazado_655503" data-name="Trazado 655503" d="M51.4,127.515c-.576-.333-1.044-.063-1.044.6a2.307,2.307,0,0,0,1.044,1.808c.576.332,1.044.063,1.044-.6a2.306,2.306,0,0,0-1.044-1.808"/>
              <path id="Trazado_655504" data-name="Trazado 655504" d="M43.273,122.825c-.577-.333-1.044-.063-1.044.6a2.307,2.307,0,0,0,1.044,1.808c.576.332,1.044.063,1.044-.6a2.309,2.309,0,0,0-1.044-1.808"/>
              <path id="Trazado_655505" data-name="Trazado 655505" d="M35.149,122.824c-.576-.333-1.044-.063-1.044.6a2.307,2.307,0,0,0,1.044,1.808c.576.332,1.044.063,1.044-.6a2.306,2.306,0,0,0-1.044-1.808"/>
              <path id="Trazado_655506" data-name="Trazado 655506" d="M27.025,118.134c-.577-.333-1.044-.063-1.044.6a2.307,2.307,0,0,0,1.044,1.808c.576.332,1.044.063,1.044-.6a2.309,2.309,0,0,0-1.044-1.808"/>
              <path id="Trazado_655507" data-name="Trazado 655507" d="M18.9,118.134c-.576-.333-1.044-.063-1.044.6a2.31,2.31,0,0,0,1.044,1.808c.577.332,1.044.063,1.044-.6a2.306,2.306,0,0,0-1.044-1.808"/>
              <path id="Trazado_655508" data-name="Trazado 655508" d="M157.009,204.018a.245.245,0,0,0,.125-.034.249.249,0,0,0,.091-.341l-8.182-14.105a.246.246,0,0,0-.164-.121l-7.945-1.7-8.07-16.894a.251.251,0,0,0-.152-.132.255.255,0,0,0-.2.022l-8.042,4.644-7.96-2.306-8.071-6.994-8.11-9.362a.259.259,0,0,0-.119-.077l-8.072-2.329-8.082-7a.254.254,0,0,0-.164-.061h-7.96l-8.059-18.611a.25.25,0,0,0-.191-.147.247.247,0,0,0-.228.083l-7.934,9.163-7.935-9.163a.232.232,0,0,0-.064-.053L43.369,123.8a.249.249,0,0,0-.125-.033H35.188l-8.038-4.642a.248.248,0,0,0-.125-.032H18.9a.25.25,0,0,0,0,.5h8.057l8.038,4.639a.251.251,0,0,0,.125.035h8.057l8.059,4.651,8.1,9.349a.257.257,0,0,0,.379,0l7.863-9.079,7.966,18.4a.25.25,0,0,0,.23.151H83.8l8.053,6.974a.252.252,0,0,0,.1.052L100,157.083l8.086,9.33,8.138,7.056a.25.25,0,0,0,.1.051l8.115,2.35a.257.257,0,0,0,.194-.024l7.9-4.56,8.006,16.762a.252.252,0,0,0,.174.137l7.958,1.7,8.126,14.01a.249.249,0,0,0,.216.125"/>
            </g>
          </g>
        </g>
        <path id="Trazado_655509" data-name="Trazado 655509" d="M152.754,167.757l-7.866-4.565c-.4-.23-.721-.066-.721.365a1.547,1.547,0,0,0,.721,1.2l7.866,4.565c.4.23.721.067.721-.365a1.547,1.547,0,0,0-.721-1.2" fill="#e0e0e0"/>
        <path id="Trazado_655510" data-name="Trazado 655510" d="M157.01,169.729c-.576-.333-1.044-.063-1.044.6a2.31,2.31,0,0,0,1.044,1.808c.577.332,1.044.063,1.044-.6a2.306,2.306,0,0,0-1.044-1.808" fill="#27debf"/>
        <g id="Grupo_981192" data-name="Grupo 981192" opacity="0.3">
          <g id="Grupo_981191" data-name="Grupo 981191">
            <g id="Grupo_981190" data-name="Grupo 981190" clip-path="url(#clip-path-9)">
              <path id="Trazado_655511" data-name="Trazado 655511" d="M157.01,169.729c-.576-.333-1.044-.063-1.044.6a2.31,2.31,0,0,0,1.044,1.808c.577.332,1.044.063,1.044-.6a2.306,2.306,0,0,0-1.044-1.808"/>
            </g>
          </g>
        </g>
        <path id="Trazado_655512" data-name="Trazado 655512" d="M152.754,172.435l-7.866-4.565c-.4-.23-.721-.066-.721.365a1.547,1.547,0,0,0,.721,1.2L152.754,174c.4.23.721.066.721-.365a1.547,1.547,0,0,0-.721-1.2" fill="#e0e0e0"/>
        <path id="Trazado_655513" data-name="Trazado 655513" d="M157.01,174.419c-.576-.333-1.044-.063-1.044.6a2.31,2.31,0,0,0,1.044,1.808c.577.332,1.044.063,1.044-.6a2.306,2.306,0,0,0-1.044-1.808" fill="#27debf"/>
        <path id="Trazado_655514" data-name="Trazado 655514" d="M157.009,236.918a.249.249,0,0,0,.174-.07.252.252,0,0,0,.006-.354l-4.123-4.239-4.047-.513-4.086-5.28-4.091.561-3.975-3.588L132.81,221l-4.137-5.733-4.108,1.288-3.948-3.528a.25.25,0,0,0-.334.373l4.161,3.717,4.034-1.264,4.031,5.55,4.063,2.43,4.108,3.716,4.034-.554,4.037,5.216,4.078.517,4,4.112a.251.251,0,0,0,.18.076" fill="#27debf"/>
        <path id="Trazado_655515" data-name="Trazado 655515" d="M156.275,240.147l-35.1-20.342c-.4-.23-.721-.067-.721.365a1.547,1.547,0,0,0,.721,1.2l35.1,20.342c.4.23.721.067.721-.365a1.547,1.547,0,0,0-.721-1.2" fill="#e0e0e0"/>
        <path id="Trazado_655516" data-name="Trazado 655516" d="M156.275,216.682l-7.866-4.565c-.4-.23-.721-.066-.721.365a1.547,1.547,0,0,0,.721,1.2l7.866,4.565c.4.23.721.067.721-.365a1.547,1.547,0,0,0-.721-1.2" fill="#e0e0e0"/>
        <path id="Trazado_655517" data-name="Trazado 655517" d="M157.009,265.036a.25.25,0,0,0,.18-.424l-4.123-4.239-4.074-.516-4.1-3.586-3.954-1.078-4.123-8.208-4.135,2.025L128.69,245.5l-.068-.014-3.959-.751-4-6.911a.25.25,0,1,0-.433.25l4.111,7.11,4.116.781L132.6,249.6l3.99-1.954,4,7.966,4.114,1.121,4.077,3.6,4.051.513,4,4.113a.251.251,0,0,0,.18.076" fill="#27debf"/>
        <g id="Grupo_981195" data-name="Grupo 981195" opacity="0.3">
          <g id="Grupo_981194" data-name="Grupo 981194">
            <g id="Grupo_981193" data-name="Grupo 981193" clip-path="url(#clip-path-10)">
              <path id="Trazado_655518" data-name="Trazado 655518" d="M157.009,265.036a.25.25,0,0,0,.18-.424l-4.123-4.239-4.074-.516-4.1-3.586-3.954-1.078-4.123-8.208-4.135,2.025L128.69,245.5l-.068-.014-3.959-.751-4-6.911a.25.25,0,1,0-.433.25l4.111,7.11,4.116.781L132.6,249.6l3.99-1.954,4,7.966,4.114,1.121,4.077,3.6,4.051.513,4,4.113a.251.251,0,0,0,.18.076"/>
            </g>
          </g>
        </g>
        <path id="Trazado_655519" data-name="Trazado 655519" d="M156.275,268.265l-35.1-20.342c-.4-.23-.721-.066-.721.365a1.547,1.547,0,0,0,.721,1.2l35.1,20.342c.4.23.721.067.721-.365a1.547,1.547,0,0,0-.721-1.2" fill="#e0e0e0"/>
        <path id="Trazado_655520" data-name="Trazado 655520" d="M156.275,244.8l-7.866-4.565c-.4-.23-.721-.066-.721.365a1.547,1.547,0,0,0,.721,1.2l7.866,4.565c.4.23.721.067.721-.365a1.547,1.547,0,0,0-.721-1.2" fill="#e0e0e0"/>
        <path id="Trazado_655521" data-name="Trazado 655521" d="M108.265,208.718a.25.25,0,0,0,.156-.445l-4.062-3.242-4.091-4.673-4.153-.6-3.961-.894-4.1-4.844-4.037.714-4.048-6.412-4.114.066-3.98-3.557a.25.25,0,0,0-.334.373l4.126,3.688,4.029-.066,4.077,6.458,4.086-.721,4.023,4.752,4.145.934,3.989.579,4,4.566,4.1,3.271a.248.248,0,0,0,.156.055" fill="#27debf"/>
        <path id="Trazado_655522" data-name="Trazado 655522" d="M107.53,211.946,72.428,191.6c-.4-.23-.721-.066-.721.365a1.544,1.544,0,0,0,.721,1.2l35.1,20.342c.4.23.722.067.721-.365a1.547,1.547,0,0,0-.721-1.2" fill="#e0e0e0"/>
        <path id="Trazado_655523" data-name="Trazado 655523" d="M107.53,188.482l-7.866-4.565c-.4-.23-.721-.066-.721.365a1.547,1.547,0,0,0,.721,1.2l7.866,4.565c.4.23.722.067.721-.365a1.547,1.547,0,0,0-.721-1.2" fill="#e0e0e0"/>
        <path id="Trazado_655524" data-name="Trazado 655524" d="M108.265,236.836a.25.25,0,0,0,.214-.38l-4.153-6.809-4.174.772-3.93-1.074-4.064-4.958-4.039-1.019-4.105-7.315-4.2,1.219-3.945-.748-4-3.562a.247.247,0,0,0-.352.02.25.25,0,0,0,.02.353l4.1,3.653.067.014,4.131.783,3.929-1.14,4.017,7.155,4.087,1.032,4.061,4.952.076.022,4.117,1.125.057-.01,3.891-.72,3.973,6.515a.253.253,0,0,0,.214.12" fill="#27debf"/>
        <g id="Grupo_981198" data-name="Grupo 981198" opacity="0.3">
          <g id="Grupo_981197" data-name="Grupo 981197">
            <g id="Grupo_981196" data-name="Grupo 981196" clip-path="url(#clip-path-11)">
              <path id="Trazado_655525" data-name="Trazado 655525" d="M108.265,236.836a.25.25,0,0,0,.214-.38l-4.153-6.809-4.174.772-3.93-1.074-4.064-4.958-4.039-1.019-4.105-7.315-4.2,1.219-3.945-.748-4-3.562a.247.247,0,0,0-.352.02.25.25,0,0,0,.02.353l4.1,3.653.067.014,4.131.783,3.929-1.14,4.017,7.155,4.087,1.032,4.061,4.952.076.022,4.117,1.125.057-.01,3.891-.72,3.973,6.515a.253.253,0,0,0,.214.12"/>
            </g>
          </g>
        </g>
        <path id="Trazado_655526" data-name="Trazado 655526" d="M107.53,240.064l-35.1-20.342c-.4-.23-.721-.066-.721.365a1.544,1.544,0,0,0,.721,1.2l35.1,20.342c.4.23.722.067.721-.365a1.547,1.547,0,0,0-.721-1.2" fill="#e0e0e0"/>
        <path id="Trazado_655527" data-name="Trazado 655527" d="M107.53,216.6l-7.866-4.565c-.4-.23-.721-.066-.721.365a1.547,1.547,0,0,0,.721,1.2l7.866,4.565c.4.23.722.067.721-.365a1.547,1.547,0,0,0-.721-1.2" fill="#e0e0e0"/>
        <path id="Trazado_655528" data-name="Trazado 655528" d="M55.459,163.072a4.585,4.585,0,0,0-4.63-.345l4.63,12.485Z" fill="#27debf"/>
        <path id="Trazado_655529" data-name="Trazado 655529" d="M60.089,168.073a13.766,13.766,0,0,0-4.63-5v12.139Z" fill="#27debf"/>
        <path id="Trazado_655530" data-name="Trazado 655530" d="M62.956,175.789a24.3,24.3,0,0,0-2.867-7.716l-4.63,7.138Z" fill="#27debf"/>
        <g id="Grupo_981201" data-name="Grupo 981201" opacity="0.3">
          <g id="Grupo_981200" data-name="Grupo 981200">
            <g id="Grupo_981199" data-name="Grupo 981199" clip-path="url(#clip-path-12)">
              <path id="Trazado_655531" data-name="Trazado 655531" d="M60.089,168.073a24.331,24.331,0,0,1,2.867,7.716l-7.5-.578V163.072a13.766,13.766,0,0,1,4.63,5"/>
            </g>
          </g>
        </g>
        <path id="Trazado_655532" data-name="Trazado 655532" d="M50.829,162.727a6.492,6.492,0,0,0-2.867,4.406l7.5,8.079Z" fill="#27debf"/>
        <path id="Trazado_655533" data-name="Trazado 655533" d="M62.956,183.29a15.149,15.149,0,0,0,.388-3.527,21.633,21.633,0,0,0-.388-3.974l-7.5-.578Z" fill="#27debf"/>
        <path id="Trazado_655534" data-name="Trazado 655534" d="M47.962,174.633a24.3,24.3,0,0,0,2.867,7.716l4.63-7.138Z" fill="#27debf"/>
        <path id="Trazado_655535" data-name="Trazado 655535" d="M55.459,187.351a4.585,4.585,0,0,0,4.63.345l-4.63-12.485Z" fill="#27debf"/>
        <path id="Trazado_655536" data-name="Trazado 655536" d="M62.956,183.29l-7.5-8.079,4.63,12.485a6.494,6.494,0,0,0,2.867-4.406" fill="#27debf"/>
        <path id="Trazado_655537" data-name="Trazado 655537" d="M47.962,167.132a15.147,15.147,0,0,0-.388,3.526,21.635,21.635,0,0,0,.388,3.975l7.5.578Z" fill="#27debf"/>
        <path id="Trazado_655538" data-name="Trazado 655538" d="M50.829,182.35a13.766,13.766,0,0,0,4.63,5V175.212Z" fill="#27debf"/>
        <path id="Trazado_655539" data-name="Trazado 655539" d="M59.391,193.542l-7.866-4.565c-.4-.23-.721-.066-.721.365a1.547,1.547,0,0,0,.721,1.2l7.866,4.565c.4.23.722.067.722-.365a1.551,1.551,0,0,0-.722-1.2" fill="#455a64"/>
        <path id="Trazado_655540" data-name="Trazado 655540" d="M61.126,199.249l-11.335-6.577c-.4-.23-.722-.066-.722.365a1.545,1.545,0,0,0,.722,1.2l11.335,6.577c.4.23.721.067.721-.365a1.547,1.547,0,0,0-.721-1.2" fill="#e0e0e0"/>
        <path id="Trazado_655541" data-name="Trazado 655541" d="M61.126,203.95l-11.335-6.577c-.4-.23-.722-.066-.722.365a1.545,1.545,0,0,0,.722,1.2l11.335,6.577c.4.23.721.067.721-.365a1.547,1.547,0,0,0-.721-1.2" fill="#e0e0e0"/>
        <path id="Trazado_655542" data-name="Trazado 655542" d="M61.126,208.651l-11.335-6.577c-.4-.23-.722-.066-.722.365a1.545,1.545,0,0,0,.722,1.2l11.335,6.577c.4.23.721.067.721-.365a1.547,1.547,0,0,0-.721-1.2" fill="#e0e0e0"/>
        <path id="Trazado_655543" data-name="Trazado 655543" d="M27.024,146.594a4.585,4.585,0,0,0-4.63-.345l4.63,12.485Z" fill="#27debf"/>
        <path id="Trazado_655544" data-name="Trazado 655544" d="M31.654,151.6a13.766,13.766,0,0,0-4.63-5v12.139Z" fill="#27debf"/>
        <path id="Trazado_655545" data-name="Trazado 655545" d="M34.521,159.312a24.3,24.3,0,0,0-2.867-7.716l-4.63,7.138Z" fill="#27debf"/>
        <path id="Trazado_655546" data-name="Trazado 655546" d="M22.394,146.249a6.492,6.492,0,0,0-2.867,4.406l7.5,8.079Z" fill="#27debf"/>
        <path id="Trazado_655547" data-name="Trazado 655547" d="M34.521,166.812a15.14,15.14,0,0,0,.388-3.526,21.635,21.635,0,0,0-.388-3.975l-7.5-.578Z" fill="#27debf"/>
        <path id="Trazado_655548" data-name="Trazado 655548" d="M19.527,158.156a24.322,24.322,0,0,0,2.867,7.716l4.63-7.138Z" fill="#27debf"/>
        <path id="Trazado_655549" data-name="Trazado 655549" d="M27.024,170.873a4.585,4.585,0,0,0,4.63.345l-4.63-12.485Z" fill="#27debf"/>
        <path id="Trazado_655550" data-name="Trazado 655550" d="M34.521,166.812l-7.5-8.079,4.63,12.485a6.494,6.494,0,0,0,2.867-4.406" fill="#27debf"/>
        <g id="Grupo_981204" data-name="Grupo 981204" opacity="0.3">
          <g id="Grupo_981203" data-name="Grupo 981203">
            <g id="Grupo_981202" data-name="Grupo 981202" clip-path="url(#clip-path-13)">
              <path id="Trazado_655551" data-name="Trazado 655551" d="M31.654,151.6a24.307,24.307,0,0,1,2.867,7.716,21.635,21.635,0,0,1,.388,3.975,15.14,15.14,0,0,1-.388,3.526,6.492,6.492,0,0,1-2.867,4.406l-4.63-12.485V146.594a13.766,13.766,0,0,1,4.63,5"/>
            </g>
          </g>
        </g>
        <path id="Trazado_655552" data-name="Trazado 655552" d="M19.527,150.655a15.147,15.147,0,0,0-.388,3.526,21.636,21.636,0,0,0,.388,3.975l7.5.578Z" fill="#27debf"/>
        <path id="Trazado_655553" data-name="Trazado 655553" d="M22.394,165.872a13.766,13.766,0,0,0,4.63,5V158.734Z" fill="#27debf"/>
        <path id="Trazado_655554" data-name="Trazado 655554" d="M30.957,177.126l-7.866-4.565c-.4-.23-.721-.066-.721.365a1.547,1.547,0,0,0,.721,1.2l7.866,4.565c.4.23.722.067.721-.365a1.547,1.547,0,0,0-.721-1.2" fill="#455a64"/>
        <path id="Trazado_655555" data-name="Trazado 655555" d="M32.692,182.832l-11.335-6.577c-.4-.23-.722-.066-.722.365a1.545,1.545,0,0,0,.722,1.2L32.692,184.4c.4.23.721.067.721-.365a1.547,1.547,0,0,0-.721-1.2" fill="#e0e0e0"/>
        <path id="Trazado_655556" data-name="Trazado 655556" d="M32.692,187.533l-11.335-6.577c-.4-.23-.722-.066-.722.365a1.545,1.545,0,0,0,.722,1.2L32.692,189.1c.4.23.721.067.721-.365a1.547,1.547,0,0,0-.721-1.2" fill="#e0e0e0"/>
        <path id="Trazado_655557" data-name="Trazado 655557" d="M32.692,192.234l-11.335-6.576c-.4-.231-.722-.067-.722.364a1.545,1.545,0,0,0,.722,1.2L32.692,193.8c.4.229.721.067.721-.366a1.549,1.549,0,0,0-.721-1.2" fill="#e0e0e0"/>
      </g>
    </g>
  </g>
</svg>
