<svg xmlns="http://www.w3.org/2000/svg" width="1030" height="101.155" viewBox="0 0 1030 101.155">
  <g id="Grupo_986592" data-name="Grupo 986592" transform="translate(-285 -2774.5)">
    <rect id="Rectángulo_7766" data-name="Rectángulo 7766" width="1030" height="79" transform="translate(285 2785.508)" fill="#12263f"/>
    <text id="INSERT_INTO_gente_nombre_fecha_edad_VALUES_Fulano_1974-04-12_18_" data-name="INSERT INTO gente (nombre, fecha, edad)  VALUES (‘Fulano’, ‘1974-04-12’,’18’);" transform="translate(325 2815.508)" fill="#4adbd1" font-size="16" font-family="Consolas" letter-spacing="0.1em"><tspan x="0" y="15">INSERT INTO</tspan><tspan y="15" xml:space="preserve" fill="#f6f6f6"> gente </tspan><tspan y="15" fill="#f4a338">(</tspan><tspan y="15" fill="#f6f6f6">nombre</tspan><tspan y="15">,</tspan><tspan y="15" xml:space="preserve" fill="#f6f6f6"> fecha</tspan><tspan y="15">,</tspan><tspan y="15" xml:space="preserve" fill="#f6f6f6"> edad</tspan><tspan y="15" fill="#f4a338">)</tspan><tspan y="15" xml:space="preserve" fill="#f6f6f6">  </tspan><tspan y="15">VALUES </tspan><tspan y="15" fill="#f4a338">(</tspan><tspan y="15" fill="#f6f6f6">‘</tspan><tspan y="15" fill="#d15b98">Fulano</tspan><tspan y="15" fill="#f6f6f6">’, ‘</tspan><tspan y="15" fill="#d15b98">1974-04-12</tspan><tspan y="15" fill="#f6f6f6">’,’</tspan><tspan y="15" fill="#d15b98">18</tspan><tspan y="15" fill="#f6f6f6">’</tspan><tspan y="15" fill="#f4a338">)</tspan><tspan y="15">;</tspan></text>
    <path id="Trazado_134310" data-name="Trazado 134310" d="M-47.25-379.793s7.861,32.508,174.384,32.508c154.175,0,175.7-23.875,175.7-23.875h7.914l-6.014-8.633-17.729,8.633h8.785s-34.743,22.141-168.341,22.141S-33.689-372.256-37.173-379.793Z" transform="translate(689.25 3222.439)" fill="#4adbd1" stroke="#4dd0e1" stroke-linecap="round" stroke-linejoin="round" stroke-width="1"/>
    <path id="Trazado_134309" data-name="Trazado 134309" d="M-47.25-379.793s6.7,32.508,148.567,32.508c131.35,0,149.69-23.875,149.69-23.875h6.743l-5.124-8.633-15.1,8.633h7.484s-29.6,22.141-143.419,22.141S-35.7-372.256-38.665-379.793Z" transform="translate(614.917 3222.301)" fill="#f4a338" stroke="#ffca28" stroke-linecap="round" stroke-linejoin="round" stroke-width="1"/>
    <path id="Trazado_134309-2" data-name="Trazado 134309" d="M-46.331-311.582c3.7-7.537,32.893-30.774,174.582-30.774s178.53,22.141,178.53,22.141h-9.312l18.8,8.633,6.378-8.633h-8.393S291.426-344.09,127.92-344.09c-176.6,0-184.938,32.508-184.938,32.508Z" transform="translate(762.018 3119.09)" fill="#f4a338" stroke="#ffa726" stroke-linecap="round" stroke-linejoin="round" stroke-width="1"/>
  </g>
</svg>
