<svg xmlns="http://www.w3.org/2000/svg" width="375.756" height="520.152" viewBox="0 0 375.756 520.152">
  <g id="Grupo_985393" data-name="Grupo 985393" transform="translate(-247.226 -1014.515)">
    <g id="_ÎÓÈ_28_3_" data-name="—ÎÓÈ_28_3_" transform="translate(366.434 1014.515)">
      <g id="Grupo_33182" data-name="Grupo 33182" transform="translate(65.14 26.291)">
        <g id="Grupo_33181" data-name="Grupo 33181">
          <path id="Trazado_81696" data-name="Trazado 81696" d="M1654.2,634.459a53.412,53.412,0,0,0-6.609,4.258l3.559,8.772a44.54,44.54,0,0,0-4.94,4.862l-8.935-3.413a53.029,53.029,0,0,0-4.233,6.459l6.82,6.564a43.985,43.985,0,0,0-2.606,6.712l-9.524.514a53.605,53.605,0,0,0-1.194,7.516l8.9,3.224a44.317,44.317,0,0,0,.383,7.392l-8.483,4.341a52.917,52.917,0,0,0,1.975,7.258l9.46-.676a43.941,43.941,0,0,0,3.465,6.677l-5.963,7.389c.723,1.008,1.483,2,2.287,2.974s1.637,1.9,2.493,2.8l8.376-4.471a43.974,43.974,0,0,0,5.908,4.656l-2.44,9.165a53.041,53.041,0,0,0,6.76,3.3l5.855-7.519a44.232,44.232,0,0,0,7.19,1.764l1.5,9.349a53.4,53.4,0,0,0,7.606.237l2.293-9.258a43.953,43.953,0,0,0,7.083-1.3l5.168,7.931a52.929,52.929,0,0,0,7.139-2.946l-1.676-9.416a44.521,44.521,0,0,0,5.7-3.94l7.947,5.142a53.4,53.4,0,0,0,5.423-5.692l-5.358-7.917a43.961,43.961,0,0,0,3.479-5.685l9.358,1.467a53.364,53.364,0,0,0,2.681-7.526l-8.118-5.054a44.344,44.344,0,0,0,.855-6.36l9.164-2.471a53.189,53.189,0,0,0-.57-8.07l-9.458-1.313a43.823,43.823,0,0,0-1.724-6.023l7.383-6a53.054,53.054,0,0,0-3.8-7.2l-9.163,2.643c-.6-.834-1.227-1.655-1.892-2.458s-1.353-1.574-2.059-2.32l4.315-8.5a52.982,52.982,0,0,0-6.36-5.083l-7.277,6.125a43.871,43.871,0,0,0-5.592-2.823l.484-9.538a53.487,53.487,0,0,0-7.819-2.074l-4.147,8.537a44.435,44.435,0,0,0-6.408-.354l-3.441-8.922a53.269,53.269,0,0,0-7.894,1.223l-.317,9.467a43.962,43.962,0,0,0-6.236,2.349Zm44.723,30.9A25.244,25.244,0,1,1,1663.378,662,25.244,25.244,0,0,1,1698.921,665.362Z" transform="translate(-1626.536 -628.169)" fill="#4adbd1"/>
          <g id="Grupo_33180" data-name="Grupo 33180" transform="translate(36.567 36.917)">
            <path id="Trazado_81697" data-name="Trazado 81697" d="M1722.71,748.266a16.364,16.364,0,1,0,2.181-23.039A16.363,16.363,0,0,0,1722.71,748.266Z" transform="translate(-1718.956 -721.473)" fill="#4adbd1"/>
          </g>
        </g>
      </g>
      <g id="Grupo_33184" data-name="Grupo 33184" transform="translate(0 51.854)">
        <g id="Grupo_33183" data-name="Grupo 33183">
          <path id="Trazado_81698" data-name="Trazado 81698" d="M1470.574,714.739l-6.474-.682-2.2,8.468,6.072,2.587a27.052,27.052,0,0,0,.894,8.3l-5.39,3.632,3.76,7.9,6.374-1.937a27.155,27.155,0,0,0,5.98,5.716l-1.817,6.33,7.958,3.636,3.71-5.694a27.068,27.068,0,0,0,8.121.506l2.737,6.157,8.436-2.331-.837-6.9a27.341,27.341,0,0,0,6.436-4.745l6.186,3.019,4.961-7.2-5.151-4.82a26.971,26.971,0,0,0,1.9-7.684l6.739-1.678-.83-8.71-7.045-.379a27.365,27.365,0,0,0-3.464-7.136l4.062-5.588-6.234-6.138-5.558,4.176a27.171,27.171,0,0,0-7.331-3.307l-.47-6.763-8.722-.694-1.539,6.623a27.156,27.156,0,0,0-7.887,2.212l-4.6-4.762-7.128,5.074,3.011,5.935A26.977,26.977,0,0,0,1470.574,714.739Zm28.21-2.337a14.461,14.461,0,1,1-17.632,10.363A14.461,14.461,0,0,1,1498.785,712.4Z" transform="translate(-1461.902 -692.777)" fill="#f59d36"/>
          <path id="Trazado_81699" data-name="Trazado 81699" d="M1528.34,772.217a9.888,9.888,0,1,0-7.086-12.055A9.888,9.888,0,0,0,1528.34,772.217Z" transform="translate(-1497.577 -729.024)" fill="#4adbd1"/>
        </g>
      </g>
      <path id="Trazado_81700" data-name="Trazado 81700" d="M1597.781,566.809l-7.8,5.521a16.909,16.909,0,0,0-4.406-1.525l-2.12-9.081-4.85.144-1.613,9.409a16.9,16.9,0,0,0-4.2,2.037l-7.915-4.919-3.327,3.531,5.518,7.8a16.885,16.885,0,0,0-1.528,4.4l-9.08,2.119.144,4.85,9.41,1.613a16.959,16.959,0,0,0,2.04,4.2l-4.917,7.913,3.531,3.327,7.8-5.516a16.867,16.867,0,0,0,4.4,1.532l2.12,9.081,4.85-.144,1.612-9.409a16.914,16.914,0,0,0,4.2-2.037l7.915,4.919,3.327-3.531-5.518-7.8a16.848,16.848,0,0,0,1.529-4.4l9.081-2.12-.144-4.85-9.408-1.613a16.95,16.95,0,0,0-2.036-4.2l4.922-7.918ZM1587.544,592.5a7.316,7.316,0,1,1-.308-10.342A7.316,7.316,0,0,1,1587.544,592.5Z" transform="translate(-1519.047 -561.723)" fill="#12263f"/>
      <path id="Trazado_81701" data-name="Trazado 81701" d="M1615.219,624.044a4.952,4.952,0,1,0-6.016-3.585A4.952,4.952,0,0,0,1615.219,624.044Z" transform="translate(-1550.829 -593.491)" fill="#1565c0"/>
    </g>
    <g id="Grupo_41974" data-name="Grupo 41974" transform="translate(247.226 1088.607)">
      <ellipse id="Elipse_3405" data-name="Elipse 3405" cx="186.804" cy="10.829" rx="186.804" ry="10.829" transform="translate(0 424.401)" fill="#fff"/>
      <g id="Grupo_33123" data-name="Grupo 33123" transform="translate(10.148 52.386)">
        <g id="Grupo_33119" data-name="Grupo 33119" transform="translate(60.662 331.204)">
          <path id="Trazado_81544" data-name="Trazado 81544" d="M1808.262,912.052l-2.279-35.956,12.992-.684-1.826,37.7Z" transform="translate(-1804.273 -875.412)" fill="#fac5c2"/>
          <g id="Grupo_33118" data-name="Grupo 33118" transform="translate(0 31.481)">
            <path id="Trazado_81545" data-name="Trazado 81545" d="M1807.062,931.357s-5.014,9.024-3.542,16.038l39.2.779s2.566-7.47-6.257-9.526-21-8.377-21-8.377S1810.418,934.649,1807.062,931.357Z" transform="translate(-1803.141 -929.609)" fill="#5573c6"/>
            <path id="Trazado_81546" data-name="Trazado 81546" d="M1803.433,956.707l39.2.779a8.254,8.254,0,0,0,.189-3.936l-39.758-.79A19.088,19.088,0,0,0,1803.433,956.707Z" transform="translate(-1803.065 -938.922)" fill="#f7ead5"/>
            <path id="Trazado_81547" data-name="Trazado 81547" d="M1822.758,932.016a5.439,5.439,0,0,1,1.313-1.755,5.626,5.626,0,0,1,2.961-.978,23.9,23.9,0,0,1,2.749-.139,5.92,5.92,0,0,1,3.434.824.955.955,0,0,1,.5.9.887.887,0,0,1-.557.552,4.466,4.466,0,0,1-2.554.068q-3.088-.543-6.117-1.37a12.6,12.6,0,0,1,.322,3.365,6.806,6.806,0,0,1-.745,3.066,2.526,2.526,0,0,1-.912,1,1.338,1.338,0,0,1-1.305.048,1.412,1.412,0,0,1-.629-1.143,3.631,3.631,0,0,1,.233-1.329A18.986,18.986,0,0,1,1822.758,932.016Z" transform="translate(-1810.58 -929.142)" fill="none" stroke="#fff" stroke-linecap="round" stroke-linejoin="round" stroke-width="0.917"/>
          </g>
        </g>
        <g id="Grupo_33121" data-name="Grupo 33121" transform="translate(14.252 330.431)">
          <path id="Trazado_81548" data-name="Trazado 81548" d="M1729.05,910.731l-2.279-35.956,12.992-.684-1.826,37.7Z" transform="translate(-1725.061 -874.092)" fill="#fac5c2"/>
          <g id="Grupo_33120" data-name="Grupo 33120" transform="translate(0 31.481)">
            <path id="Trazado_81549" data-name="Trazado 81549" d="M1727.851,930.036s-5.014,9.024-3.542,16.037l39.2.779s2.566-7.47-6.257-9.526-21-8.378-21-8.378S1731.206,933.329,1727.851,930.036Z" transform="translate(-1723.93 -928.289)" fill="#5573c6"/>
            <path id="Trazado_81550" data-name="Trazado 81550" d="M1724.221,955.387l39.2.779a8.251,8.251,0,0,0,.189-3.936l-39.758-.79A19.048,19.048,0,0,0,1724.221,955.387Z" transform="translate(-1723.853 -937.602)" fill="#f7ead5"/>
            <path id="Trazado_81551" data-name="Trazado 81551" d="M1743.546,930.7a5.43,5.43,0,0,1,1.313-1.755,5.622,5.622,0,0,1,2.961-.979,23.973,23.973,0,0,1,2.749-.139,5.917,5.917,0,0,1,3.433.824.956.956,0,0,1,.5.9.89.89,0,0,1-.558.552,4.467,4.467,0,0,1-2.555.069q-3.087-.544-6.116-1.37a12.61,12.61,0,0,1,.321,3.365,6.786,6.786,0,0,1-.745,3.066,2.528,2.528,0,0,1-.912,1,1.338,1.338,0,0,1-1.3.048,1.412,1.412,0,0,1-.629-1.143,3.634,3.634,0,0,1,.233-1.33A18.949,18.949,0,0,1,1743.546,930.7Z" transform="translate(-1731.369 -927.822)" fill="none" stroke="#fff" stroke-linecap="round" stroke-linejoin="round" stroke-width="0.917"/>
          </g>
        </g>
        <path id="Trazado_81552" data-name="Trazado 81552" d="M1834.624,464.074l5.673,38.676,25.429,40-6.865,3.835-30.425-30.167-8.251-35.066Z" transform="translate(-1749.492 -373.875)" fill="#fac5c2"/>
        <path id="Trazado_81553" data-name="Trazado 81553" d="M1787.118,609.205l1.247,15.24-.226,165.04-21,.677-6.322-149.236-3.387-.226-15.578,149.236H1719.73l3.387-84.665-.9-90.987,14-9.708Z" transform="translate(-1707.894 -432.057)" fill="#00223d"/>
        <path id="Trazado_81554" data-name="Trazado 81554" d="M1726.281,631.5l17.159-18.062,18.739.226" transform="translate(-1710.607 -435.727)" fill="none" stroke="#356493" stroke-linecap="round" stroke-linejoin="round" stroke-width="1.156"/>
        <path id="Trazado_81555" data-name="Trazado 81555" d="M1789.862,644.756l1.355-2.709.226-28.222,16.933.452,9.031,14" transform="translate(-1736.935 -435.887)" fill="none" stroke="#356493" stroke-linecap="round" stroke-linejoin="round" stroke-width="1.156"/>
        <path id="Trazado_81556" data-name="Trazado 81556" d="M1790.953,543.614a1.749,1.749,0,1,0-1.749,1.749A1.749,1.749,0,0,0,1790.953,543.614Z" transform="translate(-1735.938 -406.088)" fill="none" stroke="#356493" stroke-linecap="round" stroke-linejoin="round" stroke-width="1.156"/>
        <path id="Trazado_81557" data-name="Trazado 81557" d="M1736.574,405.105s-16.706,6.368-19,7.477c-16.5,7.993-18.049,46.669-18.049,46.669h13.924l-1.837,74.9s39.72,8.251,69.887-.516l-3.835-68.392s11.467-.193,20.014-4.834c0,0-13.665-39.191-19.7-43.832s-29.161-8.766-29.161-8.766Z" transform="translate(-1699.529 -349.457)" fill="#5573c6"/>
        <path id="Trazado_81558" data-name="Trazado 81558" d="M1769.047,373.729l-6.052,20.667s-1.046,10.965,11.215,13.279c11.889,2.243,11.592-8.96,11.592-8.96L1785.02,395l1.138-12.36Z" transform="translate(-1725.801 -336.464)" fill="#fac5c2"/>
        <path id="Trazado_81559" data-name="Trazado 81559" d="M1771.553,377.743l.866-2.958,5.335,2.065,5.041,2.625,6.615,6.884-.62,6.737C1785.3,392.592,1773.216,389.971,1771.553,377.743Z" transform="translate(-1729.354 -336.902)" fill="#d88080"/>
        <g id="Grupo_33122" data-name="Grupo 33122" transform="translate(38.08 0)">
          <path id="Trazado_81560" data-name="Trazado 81560" d="M1800.294,339.207c-1.188,9.466-5.906,28.071-15.427,27.48-10.019-.621-14.743-6.342-15.8-15.757,0,0-5.1,1.633-4.5-5.167.265-3,3.557-1.281,3.557-1.281s-4.832-24.885,10.834-26.342S1801.92,326.249,1800.294,339.207Z" transform="translate(-1764.522 -313.385)" fill="#fac5c2"/>
          <path id="Trazado_81561" data-name="Trazado 81561" d="M1791.882,352.251a2.838,2.838,0,0,0,.846.434.773.773,0,0,0,.84-.32,1.513,1.513,0,0,0-.16-1.532,3.649,3.649,0,0,0-2.373-1.359,7.785,7.785,0,0,0-2.707-.306,3.465,3.465,0,0,0-2.445,1.377.655.655,0,0,0-.151.354.417.417,0,0,0,.28.4.885.885,0,0,0,.456-.027A7.144,7.144,0,0,1,1791.882,352.251Z" transform="translate(-1773.305 -326.282)" fill="#242638"/>
          <path id="Trazado_81562" data-name="Trazado 81562" d="M1811.1,355.224a2.427,2.427,0,0,1-.841.2.653.653,0,0,1-.626-.519,1.677,1.677,0,0,1,.564-1.431,3.157,3.157,0,0,1,2.4-.708,6.141,6.141,0,0,1,2.387.386,3.023,3.023,0,0,1,1.694,1.936.7.7,0,0,1,.03.379.415.415,0,0,1-.35.315.7.7,0,0,1-.38-.141A5.728,5.728,0,0,0,1811.1,355.224Z" transform="translate(-1783.192 -327.784)" fill="#242638"/>
          <path id="Trazado_81563" data-name="Trazado 81563" d="M1802.485,365.251c-.473,2.162.151,4.395.749,6.526a.848.848,0,0,1,.005.644.731.731,0,0,1-.2.2,2.654,2.654,0,0,1-1.4.527c-.722.051-1.563-.162-2.091.335" transform="translate(-1779.025 -332.954)" fill="none" stroke="#242638" stroke-miterlimit="10" stroke-width="0.679"/>
          <path id="Trazado_81564" data-name="Trazado 81564" d="M1813.717,364.272c.219-1.6-.27-2.985-1.09-3.1s-1.663,1.093-1.882,2.692.27,2.985,1.091,3.1S1813.5,365.871,1813.717,364.272Z" transform="translate(-1783.641 -331.262)" fill="#242638"/>
          <path id="Trazado_81565" data-name="Trazado 81565" d="M1792.209,361.017c.218-1.6-.271-2.985-1.092-3.1s-1.663,1.093-1.882,2.692.27,2.986,1.091,3.1S1791.99,362.616,1792.209,361.017Z" transform="translate(-1774.734 -329.914)" fill="#242638"/>
          <path id="Trazado_81566" data-name="Trazado 81566" d="M1801.2,383.319a26.679,26.679,0,0,1-12.093-1.334s1.838,4.894,5.781,5.121S1801.2,383.319,1801.2,383.319Z" transform="translate(-1774.704 -339.883)" fill="#fff"/>
          <path id="Trazado_81567" data-name="Trazado 81567" d="M1804.637,328.43c.865-.495,1.946-.991,2.085-1.977.134-.952-.732-1.745-1.592-2.176a5.935,5.935,0,0,1-2.406-1.526c2-.141,3.05-2.722,2.417-4.629a6.582,6.582,0,0,0-3.553-3.692,16.108,16.108,0,0,0-5.1-1.223,61.116,61.116,0,0,0-9.888-.3c-2.768.139-5.836.381-8.009-1.339a6.2,6.2,0,0,0-1.917-1.36,2.688,2.688,0,0,0-2.986,1.743,7.83,7.83,0,0,0-.27,3.738,4.638,4.638,0,0,0-4-.106c-1.195.7-1.545,2.731-.339,3.411.392.221.923.313,1.1.728.195.464-.212.942-.566,1.3a15.3,15.3,0,0,0,.047,21.628c1.322-3.351,3.172-6.468,4.618-9.768s2.5-6.9,2.079-10.475c6.007,4.663,14.03,6.045,21.614,5.491a2.323,2.323,0,0,1,1.66.288,2.276,2.276,0,0,1,.592,1.686l.442,6.787A8.3,8.3,0,0,1,1804.637,328.43Z" transform="translate(-1764.782 -310.127)" fill="#242638"/>
          <path id="Trazado_81568" data-name="Trazado 81568" d="M1771.9,347.793a73.924,73.924,0,0,0,6.241-21.222c-.089.751,2.787,1.924,3.3,2.185a28.443,28.443,0,0,0,5.95,2.249c5.464,1.377,10.948,1.029,16.511,1.177a3.775,3.775,0,0,1,2.2.527,1.348,1.348,0,0,1,.281,1.982" transform="translate(-1767.575 -316.936)" fill="none" stroke="#fff" stroke-linecap="round" stroke-linejoin="round" stroke-width="0.69"/>
          <path id="Trazado_81569" data-name="Trazado 81569" d="M1811.689,328.449c-2.8-1.667-6.287-1.418-9.539-1.236-4.782.267-9.76.234-14.107-1.774" transform="translate(-1774.261 -316.468)" fill="none" stroke="#fff" stroke-linecap="round" stroke-linejoin="round" stroke-width="0.69"/>
        </g>
        <rect id="Rectángulo_26606" data-name="Rectángulo 26606" width="9.33" height="8.267" rx="1.976" transform="translate(58.239 35.735) rotate(-169.629)" fill="none" stroke="#242638" stroke-miterlimit="10" stroke-width="0.855"/>
        <rect id="Rectángulo_26607" data-name="Rectángulo 26607" width="8.654" height="8.267" rx="1.903" transform="translate(70.65 38.006) rotate(-169.629)" fill="none" stroke="#242638" stroke-miterlimit="10" stroke-width="0.823"/>
        <line id="Línea_268" data-name="Línea 268" x2="6.168" y2="0.67" transform="translate(43.327 30.204)" fill="none" stroke="#242638" stroke-miterlimit="10" stroke-width="0.66"/>
        <path id="Trazado_81570" data-name="Trazado 81570" d="M1799.912,365.329s3.1-.98,3.964.9" transform="translate(-1741.097 -332.88)" fill="none" stroke="#242638" stroke-miterlimit="10" stroke-width="0.66"/>
        <line id="Línea_269" data-name="Línea 269" x2="0.807" y2="0.246" transform="translate(71.342 34.676)" fill="none" stroke="#242638" stroke-miterlimit="10" stroke-width="0.66"/>
        <line id="Línea_270" data-name="Línea 270" x1="1.515" y1="21.207" transform="translate(76.623 94.582)" fill="none" stroke="#242638" stroke-linecap="round" stroke-linejoin="round" stroke-width="1.32"/>
        <path id="Trazado_81571" data-name="Trazado 81571" d="M1728.851,497.079l3.867,22.174,36.613,28.363,17.533,1.031,8.509,3.352-3.867,4.125h-28.362L1714.957,532.9a3.39,3.39,0,0,1-1.87-2.484l-5.636-33.083Z" transform="translate(-1702.809 -387.543)" fill="#fac5c2"/>
        <path id="Trazado_81572" data-name="Trazado 81572" d="M1743.976,483.229l2.836.516.516-20.111" transform="translate(-1717.934 -373.693)" fill="none" stroke="#242638" stroke-linecap="round" stroke-linejoin="round" stroke-width="1.32"/>
      </g>
      <g id="Grupo_33139" data-name="Grupo 33139" transform="translate(174.907)">
        <rect id="Rectángulo_26608" data-name="Rectángulo 26608" width="170.173" height="433.168" fill="#d4dee8"/>
        <rect id="Rectángulo_26609" data-name="Rectángulo 26609" width="152.719" height="353.238" transform="translate(8.727 10.829)" fill="none" stroke="#242638" stroke-miterlimit="10" stroke-width="2.25"/>
        <g id="Grupo_33124" data-name="Grupo 33124" transform="translate(12.654 16.759)">
          <rect id="Rectángulo_26610" data-name="Rectángulo 26610" width="143.556" height="14.697" fill="#242638"/>
          <rect id="Rectángulo_26611" data-name="Rectángulo 26611" width="3.877" height="10.958" transform="translate(136.624 1.547)" fill="#2ec49f"/>
          <rect id="Rectángulo_26612" data-name="Rectángulo 26612" width="3.877" height="10.958" transform="translate(131.778 1.547)" fill="#2ec49f"/>
          <rect id="Rectángulo_26613" data-name="Rectángulo 26613" width="3.877" height="10.958" transform="translate(126.866 1.547)" fill="#2ec49f"/>
          <rect id="Rectángulo_26614" data-name="Rectángulo 26614" width="3.877" height="10.958" transform="translate(121.957 1.547)" fill="#2ec49f"/>
          <rect id="Rectángulo_26615" data-name="Rectángulo 26615" width="3.877" height="10.958" transform="translate(116.942 1.547)" fill="#2ec49f"/>
          <rect id="Rectángulo_26616" data-name="Rectángulo 26616" width="3.877" height="10.958" transform="translate(112.031 1.547)" fill="#2ec49f"/>
          <rect id="Rectángulo_26617" data-name="Rectángulo 26617" width="3.877" height="10.958" transform="translate(107.122 1.547)" fill="#2ec49f"/>
          <rect id="Rectángulo_26618" data-name="Rectángulo 26618" width="30.598" height="4.061" rx="2.03" transform="translate(55.197 3.094)" fill="#fff"/>
          <path id="Trazado_81573" data-name="Trazado 81573" d="M2052.817,259.753a3.1,3.1,0,1,0-3.055,3.61A3.367,3.367,0,0,0,2052.817,259.753Z" transform="translate(-2020.706 -252.146)" fill="#f59d36"/>
          <path id="Trazado_81574" data-name="Trazado 81574" d="M2037.8,259.753a3.1,3.1,0,1,0-3.054,3.61A3.367,3.367,0,0,0,2037.8,259.753Z" transform="translate(-2014.485 -252.146)" fill="#5793ce"/>
          <path id="Trazado_81575" data-name="Trazado 81575" d="M2022.773,259.753a3.1,3.1,0,1,0-3.054,3.61A3.367,3.367,0,0,0,2022.773,259.753Z" transform="translate(-2008.264 -252.146)" fill="#2ec49f"/>
        </g>
        <g id="Grupo_33125" data-name="Grupo 33125" transform="translate(12.654 35.711)">
          <rect id="Rectángulo_26619" data-name="Rectángulo 26619" width="143.556" height="14.697" fill="#242638"/>
          <rect id="Rectángulo_26620" data-name="Rectángulo 26620" width="3.877" height="10.958" transform="translate(136.624 1.547)" fill="#2ec49f"/>
          <rect id="Rectángulo_26621" data-name="Rectángulo 26621" width="3.877" height="10.958" transform="translate(131.778 1.547)" fill="#2ec49f"/>
          <rect id="Rectángulo_26622" data-name="Rectángulo 26622" width="3.877" height="10.958" transform="translate(126.866 1.547)" fill="#2ec49f"/>
          <rect id="Rectángulo_26623" data-name="Rectángulo 26623" width="3.877" height="10.958" transform="translate(121.957 1.547)" fill="#2ec49f"/>
          <rect id="Rectángulo_26624" data-name="Rectángulo 26624" width="3.877" height="10.958" transform="translate(116.942 1.547)" fill="#2ec49f"/>
          <rect id="Rectángulo_26625" data-name="Rectángulo 26625" width="30.598" height="4.061" rx="2.03" transform="translate(55.197 3.094)" fill="#fff"/>
          <ellipse id="Elipse_3406" data-name="Elipse 3406" cx="3.054" cy="3.61" rx="3.054" ry="3.61" transform="translate(26.002 3.996)" fill="#f59d36"/>
          <ellipse id="Elipse_3407" data-name="Elipse 3407" cx="3.054" cy="3.61" rx="3.054" ry="3.61" transform="translate(17.201 3.996)" fill="#5793ce"/>
          <ellipse id="Elipse_3408" data-name="Elipse 3408" cx="3.054" cy="3.61" rx="3.054" ry="3.61" transform="translate(8.4 3.996)" fill="#2ec49f"/>
        </g>
        <g id="Grupo_33126" data-name="Grupo 33126" transform="translate(12.654 54.082)">
          <rect id="Rectángulo_26626" data-name="Rectángulo 26626" width="143.556" height="14.697" fill="#242638"/>
          <rect id="Rectángulo_26627" data-name="Rectángulo 26627" width="3.877" height="10.958" transform="translate(136.624 1.547)" fill="#2ec49f"/>
          <rect id="Rectángulo_26628" data-name="Rectángulo 26628" width="3.877" height="10.958" transform="translate(131.778 1.547)" fill="#2ec49f"/>
          <rect id="Rectángulo_26629" data-name="Rectángulo 26629" width="3.877" height="10.958" transform="translate(126.866 1.547)" fill="#2ec49f"/>
          <rect id="Rectángulo_26630" data-name="Rectángulo 26630" width="30.598" height="4.061" rx="2.03" transform="translate(55.197 3.094)" fill="#fff"/>
          <ellipse id="Elipse_3409" data-name="Elipse 3409" cx="3.054" cy="3.61" rx="3.054" ry="3.61" transform="translate(26.002 3.996)" fill="#f59d36"/>
          <ellipse id="Elipse_3410" data-name="Elipse 3410" cx="3.054" cy="3.61" rx="3.054" ry="3.61" transform="translate(17.201 3.996)" fill="#5793ce"/>
          <ellipse id="Elipse_3411" data-name="Elipse 3411" cx="3.054" cy="3.61" rx="3.054" ry="3.61" transform="translate(8.4 3.996)" fill="#2ec49f"/>
        </g>
        <g id="Grupo_33127" data-name="Grupo 33127" transform="translate(12.654 138.459)">
          <rect id="Rectángulo_26631" data-name="Rectángulo 26631" width="143.556" height="14.697" fill="#242638"/>
          <rect id="Rectángulo_26632" data-name="Rectángulo 26632" width="3.877" height="10.958" transform="translate(136.624 1.547)" fill="#2ec49f"/>
          <rect id="Rectángulo_26633" data-name="Rectángulo 26633" width="3.877" height="10.958" transform="translate(131.778 1.547)" fill="#2ec49f"/>
          <rect id="Rectángulo_26634" data-name="Rectángulo 26634" width="3.877" height="10.958" transform="translate(126.866 1.547)" fill="#2ec49f"/>
          <rect id="Rectángulo_26635" data-name="Rectángulo 26635" width="3.877" height="10.958" transform="translate(121.957 1.547)" fill="#2ec49f"/>
          <rect id="Rectángulo_26636" data-name="Rectángulo 26636" width="3.877" height="10.958" transform="translate(116.942 1.547)" fill="#2ec49f"/>
          <rect id="Rectángulo_26637" data-name="Rectángulo 26637" width="3.877" height="10.958" transform="translate(112.031 1.547)" fill="#2ec49f"/>
          <rect id="Rectángulo_26638" data-name="Rectángulo 26638" width="3.877" height="10.958" transform="translate(107.122 1.547)" fill="#2ec49f"/>
          <rect id="Rectángulo_26639" data-name="Rectángulo 26639" width="30.598" height="4.061" rx="2.03" transform="translate(55.197 3.094)" fill="#fff"/>
          <ellipse id="Elipse_3412" data-name="Elipse 3412" cx="3.054" cy="3.61" rx="3.054" ry="3.61" transform="translate(26.002 3.996)" fill="#f59d36"/>
          <ellipse id="Elipse_3413" data-name="Elipse 3413" cx="3.054" cy="3.61" rx="3.054" ry="3.61" transform="translate(17.201 3.996)" fill="#5793ce"/>
          <ellipse id="Elipse_3414" data-name="Elipse 3414" cx="3.054" cy="3.61" rx="3.054" ry="3.61" transform="translate(8.4 3.996)" fill="#2ec49f"/>
        </g>
        <g id="Grupo_33128" data-name="Grupo 33128" transform="translate(12.654 157.41)">
          <rect id="Rectángulo_26640" data-name="Rectángulo 26640" width="143.556" height="14.697" fill="#242638"/>
          <rect id="Rectángulo_26641" data-name="Rectángulo 26641" width="3.877" height="10.958" transform="translate(136.624 1.547)" fill="#2ec49f"/>
          <rect id="Rectángulo_26642" data-name="Rectángulo 26642" width="3.877" height="10.958" transform="translate(131.778 1.547)" fill="#2ec49f"/>
          <rect id="Rectángulo_26643" data-name="Rectángulo 26643" width="3.877" height="10.958" transform="translate(126.866 1.547)" fill="#2ec49f"/>
          <rect id="Rectángulo_26644" data-name="Rectángulo 26644" width="3.877" height="10.958" transform="translate(121.957 1.547)" fill="#2ec49f"/>
          <rect id="Rectángulo_26645" data-name="Rectángulo 26645" width="3.877" height="10.958" transform="translate(116.942 1.547)" fill="#2ec49f"/>
          <rect id="Rectángulo_26646" data-name="Rectángulo 26646" width="30.598" height="4.061" rx="2.03" transform="translate(55.197 3.094)" fill="#fff"/>
          <ellipse id="Elipse_3415" data-name="Elipse 3415" cx="3.054" cy="3.61" rx="3.054" ry="3.61" transform="translate(26.002 3.996)" fill="#f59d36"/>
          <ellipse id="Elipse_3416" data-name="Elipse 3416" cx="3.054" cy="3.61" rx="3.054" ry="3.61" transform="translate(17.201 3.996)" fill="#5793ce"/>
          <ellipse id="Elipse_3417" data-name="Elipse 3417" cx="3.054" cy="3.61" rx="3.054" ry="3.61" transform="translate(8.4 3.996)" fill="#2ec49f"/>
        </g>
        <g id="Grupo_33129" data-name="Grupo 33129" transform="translate(12.654 175.781)">
          <rect id="Rectángulo_26647" data-name="Rectángulo 26647" width="143.556" height="14.697" fill="#242638"/>
          <rect id="Rectángulo_26648" data-name="Rectángulo 26648" width="3.877" height="10.958" transform="translate(136.624 1.547)" fill="#2ec49f"/>
          <rect id="Rectángulo_26649" data-name="Rectángulo 26649" width="3.877" height="10.958" transform="translate(131.778 1.547)" fill="#2ec49f"/>
          <rect id="Rectángulo_26650" data-name="Rectángulo 26650" width="3.877" height="10.958" transform="translate(126.866 1.547)" fill="#2ec49f"/>
          <rect id="Rectángulo_26651" data-name="Rectángulo 26651" width="30.598" height="4.061" rx="2.03" transform="translate(55.197 3.094)" fill="#fff"/>
          <path id="Trazado_81576" data-name="Trazado 81576" d="M2052.817,531.163a3.1,3.1,0,1,0-3.055,3.61A3.367,3.367,0,0,0,2052.817,531.163Z" transform="translate(-2020.706 -523.557)" fill="#f59d36"/>
          <path id="Trazado_81577" data-name="Trazado 81577" d="M2037.8,531.163a3.1,3.1,0,1,0-3.054,3.61A3.367,3.367,0,0,0,2037.8,531.163Z" transform="translate(-2014.485 -523.557)" fill="#5793ce"/>
          <path id="Trazado_81578" data-name="Trazado 81578" d="M2022.773,531.163a3.1,3.1,0,1,0-3.054,3.61A3.367,3.367,0,0,0,2022.773,531.163Z" transform="translate(-2008.264 -523.557)" fill="#2ec49f"/>
        </g>
        <g id="Grupo_33130" data-name="Grupo 33130" transform="translate(12.654 242.625)">
          <rect id="Rectángulo_26652" data-name="Rectángulo 26652" width="143.556" height="14.697" fill="#242638"/>
          <rect id="Rectángulo_26653" data-name="Rectángulo 26653" width="3.877" height="10.958" transform="translate(136.624 1.547)" fill="#2ec49f"/>
          <rect id="Rectángulo_26654" data-name="Rectángulo 26654" width="3.877" height="10.958" transform="translate(131.778 1.547)" fill="#2ec49f"/>
          <rect id="Rectángulo_26655" data-name="Rectángulo 26655" width="3.877" height="10.958" transform="translate(126.866 1.547)" fill="#2ec49f"/>
          <rect id="Rectángulo_26656" data-name="Rectángulo 26656" width="3.877" height="10.958" transform="translate(121.957 1.547)" fill="#2ec49f"/>
          <rect id="Rectángulo_26657" data-name="Rectángulo 26657" width="3.877" height="10.958" transform="translate(116.942 1.547)" fill="#2ec49f"/>
          <rect id="Rectángulo_26658" data-name="Rectángulo 26658" width="3.877" height="10.958" transform="translate(112.031 1.547)" fill="#2ec49f"/>
          <rect id="Rectángulo_26659" data-name="Rectángulo 26659" width="3.877" height="10.958" transform="translate(107.122 1.547)" fill="#2ec49f"/>
          <rect id="Rectángulo_26660" data-name="Rectángulo 26660" width="30.598" height="4.061" rx="2.03" transform="translate(55.197 3.094)" fill="#fff"/>
          <ellipse id="Elipse_3418" data-name="Elipse 3418" cx="3.054" cy="3.61" rx="3.054" ry="3.61" transform="translate(26.002 3.997)" fill="#f59d36"/>
          <ellipse id="Elipse_3419" data-name="Elipse 3419" cx="3.054" cy="3.61" rx="3.054" ry="3.61" transform="translate(17.201 3.997)" fill="#5793ce"/>
          <ellipse id="Elipse_3420" data-name="Elipse 3420" cx="3.054" cy="3.61" rx="3.054" ry="3.61" transform="translate(8.4 3.997)" fill="#2ec49f"/>
        </g>
        <g id="Grupo_33131" data-name="Grupo 33131" transform="translate(12.654 261.577)">
          <rect id="Rectángulo_26661" data-name="Rectángulo 26661" width="143.556" height="14.697" fill="#242638"/>
          <rect id="Rectángulo_26662" data-name="Rectángulo 26662" width="3.877" height="10.958" transform="translate(136.624 1.547)" fill="#2ec49f"/>
          <rect id="Rectángulo_26663" data-name="Rectángulo 26663" width="3.877" height="10.958" transform="translate(131.778 1.547)" fill="#2ec49f"/>
          <rect id="Rectángulo_26664" data-name="Rectángulo 26664" width="3.877" height="10.958" transform="translate(126.866 1.547)" fill="#2ec49f"/>
          <rect id="Rectángulo_26665" data-name="Rectángulo 26665" width="3.877" height="10.958" transform="translate(121.957 1.547)" fill="#2ec49f"/>
          <rect id="Rectángulo_26666" data-name="Rectángulo 26666" width="3.877" height="10.958" transform="translate(116.942 1.547)" fill="#2ec49f"/>
          <rect id="Rectángulo_26667" data-name="Rectángulo 26667" width="30.598" height="4.061" rx="2.03" transform="translate(55.197 3.094)" fill="#fff"/>
          <path id="Trazado_81579" data-name="Trazado 81579" d="M2052.817,677.595a3.1,3.1,0,1,0-3.055,3.61A3.367,3.367,0,0,0,2052.817,677.595Z" transform="translate(-2020.706 -669.989)" fill="#f59d36"/>
          <path id="Trazado_81580" data-name="Trazado 81580" d="M2037.8,677.595a3.1,3.1,0,1,0-3.054,3.61A3.367,3.367,0,0,0,2037.8,677.595Z" transform="translate(-2014.485 -669.989)" fill="#5793ce"/>
          <path id="Trazado_81581" data-name="Trazado 81581" d="M2022.773,677.595a3.1,3.1,0,1,0-3.054,3.61A3.367,3.367,0,0,0,2022.773,677.595Z" transform="translate(-2008.264 -669.989)" fill="#2ec49f"/>
        </g>
        <g id="Grupo_33132" data-name="Grupo 33132" transform="translate(12.654 279.947)">
          <rect id="Rectángulo_26668" data-name="Rectángulo 26668" width="143.556" height="14.697" fill="#242638"/>
          <rect id="Rectángulo_26669" data-name="Rectángulo 26669" width="3.877" height="10.958" transform="translate(136.624 1.547)" fill="#2ec49f"/>
          <rect id="Rectángulo_26670" data-name="Rectángulo 26670" width="3.877" height="10.958" transform="translate(131.778 1.547)" fill="#2ec49f"/>
          <rect id="Rectángulo_26671" data-name="Rectángulo 26671" width="3.877" height="10.958" transform="translate(126.866 1.547)" fill="#2ec49f"/>
          <rect id="Rectángulo_26672" data-name="Rectángulo 26672" width="30.598" height="4.061" rx="2.03" transform="translate(55.197 3.094)" fill="#fff"/>
          <path id="Trazado_81582" data-name="Trazado 81582" d="M2052.817,708.95a3.1,3.1,0,1,0-3.055,3.61A3.367,3.367,0,0,0,2052.817,708.95Z" transform="translate(-2020.706 -701.344)" fill="#f59d36"/>
          <path id="Trazado_81583" data-name="Trazado 81583" d="M2037.8,708.95a3.1,3.1,0,1,0-3.054,3.61A3.367,3.367,0,0,0,2037.8,708.95Z" transform="translate(-2014.485 -701.344)" fill="#5793ce"/>
          <path id="Trazado_81584" data-name="Trazado 81584" d="M2022.773,708.95a3.1,3.1,0,1,0-3.054,3.61A3.367,3.367,0,0,0,2022.773,708.95Z" transform="translate(-2008.264 -701.344)" fill="#2ec49f"/>
        </g>
        <g id="Grupo_33133" data-name="Grupo 33133" transform="translate(12.654 83.797)">
          <rect id="Rectángulo_26673" data-name="Rectángulo 26673" width="143.556" height="31.972" fill="#242638"/>
        </g>
        <g id="Grupo_33134" data-name="Grupo 33134" transform="translate(12.654 200.34)">
          <rect id="Rectángulo_26674" data-name="Rectángulo 26674" width="143.556" height="31.972" fill="#242638"/>
        </g>
        <g id="Grupo_33135" data-name="Grupo 33135" transform="translate(12.654 308.116)">
          <rect id="Rectángulo_26675" data-name="Rectángulo 26675" width="143.556" height="31.972" fill="#242638"/>
        </g>
        <g id="Grupo_33136" data-name="Grupo 33136" transform="translate(129.702 377.99)">
          <rect id="Rectángulo_26676" data-name="Rectángulo 26676" width="28.144" height="3.481" rx="1.74" fill="#242638"/>
          <rect id="Rectángulo_26677" data-name="Rectángulo 26677" width="28.144" height="3.481" rx="1.74" transform="translate(0 7.155)" fill="#242638"/>
          <rect id="Rectángulo_26678" data-name="Rectángulo 26678" width="28.144" height="3.481" rx="1.74" transform="translate(0 17.984)" fill="#242638"/>
          <rect id="Rectángulo_26679" data-name="Rectángulo 26679" width="28.144" height="3.481" rx="1.74" transform="translate(0 25.139)" fill="#242638"/>
          <rect id="Rectángulo_26680" data-name="Rectángulo 26680" width="28.144" height="3.481" rx="1.74" transform="translate(0 36.549)" fill="#242638"/>
          <rect id="Rectángulo_26681" data-name="Rectángulo 26681" width="28.144" height="3.481" rx="1.74" transform="translate(0 43.704)" fill="#242638"/>
        </g>
        <g id="Grupo_33137" data-name="Grupo 33137" transform="translate(71.287 377.99)">
          <path id="Rectángulo_26682" data-name="Rectángulo 26682" d="M1.74,0H26.4a1.74,1.74,0,0,1,1.74,1.74v0a1.74,1.74,0,0,1-1.74,1.74H1.74A1.74,1.74,0,0,1,0,1.74v0A1.74,1.74,0,0,1,1.74,0Z" fill="#242638"/>
          <path id="Rectángulo_26683" data-name="Rectángulo 26683" d="M1.74,0H26.4a1.74,1.74,0,0,1,1.74,1.74v0a1.74,1.74,0,0,1-1.74,1.74H1.74A1.74,1.74,0,0,1,0,1.74v0A1.74,1.74,0,0,1,1.74,0Z" transform="translate(0 7.155)" fill="#242638"/>
          <path id="Rectángulo_26684" data-name="Rectángulo 26684" d="M1.74,0H26.4a1.74,1.74,0,0,1,1.74,1.74v0a1.74,1.74,0,0,1-1.74,1.74H1.74A1.74,1.74,0,0,1,0,1.74v0A1.74,1.74,0,0,1,1.74,0Z" transform="translate(0 17.984)" fill="#242638"/>
          <path id="Rectángulo_26685" data-name="Rectángulo 26685" d="M1.74,0H26.4a1.74,1.74,0,0,1,1.74,1.74v0a1.74,1.74,0,0,1-1.74,1.74H1.74A1.74,1.74,0,0,1,0,1.74v0A1.74,1.74,0,0,1,1.74,0Z" transform="translate(0 25.139)" fill="#242638"/>
          <path id="Rectángulo_26686" data-name="Rectángulo 26686" d="M1.74,0H26.4a1.74,1.74,0,0,1,1.74,1.74v0a1.74,1.74,0,0,1-1.74,1.74H1.74A1.74,1.74,0,0,1,0,1.74v0A1.74,1.74,0,0,1,1.74,0Z" transform="translate(0 36.549)" fill="#242638"/>
          <path id="Rectángulo_26687" data-name="Rectángulo 26687" d="M1.74,0H26.4a1.74,1.74,0,0,1,1.74,1.74v0a1.74,1.74,0,0,1-1.74,1.74H1.74A1.74,1.74,0,0,1,0,1.74v0A1.74,1.74,0,0,1,1.74,0Z" transform="translate(0 43.704)" fill="#242638"/>
        </g>
        <g id="Grupo_33138" data-name="Grupo 33138" transform="translate(13.199 377.99)">
          <path id="Rectángulo_26688" data-name="Rectángulo 26688" d="M1.74,0H26.4a1.74,1.74,0,0,1,1.74,1.74v0a1.74,1.74,0,0,1-1.74,1.74H1.74A1.74,1.74,0,0,1,0,1.74v0A1.74,1.74,0,0,1,1.74,0Z" fill="#242638"/>
          <path id="Rectángulo_26689" data-name="Rectángulo 26689" d="M1.74,0H26.4a1.74,1.74,0,0,1,1.74,1.74v0a1.74,1.74,0,0,1-1.74,1.74H1.74A1.74,1.74,0,0,1,0,1.74v0A1.74,1.74,0,0,1,1.74,0Z" transform="translate(0 7.155)" fill="#242638"/>
          <path id="Rectángulo_26690" data-name="Rectángulo 26690" d="M1.74,0H26.4a1.74,1.74,0,0,1,1.74,1.74v0a1.74,1.74,0,0,1-1.74,1.74H1.74A1.74,1.74,0,0,1,0,1.74v0A1.74,1.74,0,0,1,1.74,0Z" transform="translate(0 17.984)" fill="#242638"/>
          <path id="Rectángulo_26691" data-name="Rectángulo 26691" d="M1.74,0H26.4a1.74,1.74,0,0,1,1.74,1.74v0a1.74,1.74,0,0,1-1.74,1.74H1.74A1.74,1.74,0,0,1,0,1.74v0A1.74,1.74,0,0,1,1.74,0Z" transform="translate(0 25.139)" fill="#242638"/>
          <path id="Rectángulo_26692" data-name="Rectángulo 26692" d="M1.74,0H26.4a1.74,1.74,0,0,1,1.74,1.74v0a1.74,1.74,0,0,1-1.74,1.74H1.74A1.74,1.74,0,0,1,0,1.74v0A1.74,1.74,0,0,1,1.74,0Z" transform="translate(0 36.549)" fill="#242638"/>
          <path id="Rectángulo_26693" data-name="Rectángulo 26693" d="M1.74,0H26.4a1.74,1.74,0,0,1,1.74,1.74v0a1.74,1.74,0,0,1-1.74,1.74H1.74A1.74,1.74,0,0,1,0,1.74v0A1.74,1.74,0,0,1,1.74,0Z" transform="translate(0 43.704)" fill="#242638"/>
        </g>
      </g>
      <path id="Trazado_81585" data-name="Trazado 81585" d="M1936.725,721.518c7.477,0,21.658-1.032,21.658,18.306s-2.321,52.084,10.056,52.084,11.86-17.791,11.86-50.021,1.031-30.941,5.157-30.941" transform="translate(-1787.602 -423.715)" fill="none" stroke="#2ec49f" stroke-miterlimit="10" stroke-width="2.64"/>
      <rect id="Rectángulo_26694" data-name="Rectángulo 26694" width="9.282" height="209.364" transform="translate(157.374 223.545)" fill="#d4dee8"/>
      <path id="Trazado_81586" data-name="Trazado 81586" d="M1936.725,727.71c5.93,0,15.986.258,15.986,11.345s-8.766,100.815,14.439,100.815,23.463-27.846,23.463-61.366-2.578-67.553,3.868-67.553" transform="translate(-1787.602 -423.719)" fill="none" stroke="#5793ce" stroke-miterlimit="10" stroke-width="2.64"/>
      <rect id="Rectángulo_26695" data-name="Rectángulo 26695" width="9.282" height="209.364" transform="translate(63.263 223.545)" fill="#d4dee8"/>
      <rect id="Rectángulo_26696" data-name="Rectángulo 26696" width="18.049" height="110.355" transform="translate(169.234 220.967) rotate(90)" fill="#d4dee8"/>
      <path id="Trazado_81587" data-name="Trazado 81587" d="M1950.419,591.913c11.216,0,9.282,9.669,9.282,34.035s-5.543,33.454-25.4,33.454" transform="translate(-1786.599 -374.427)" fill="none" stroke="#f59d36" stroke-miterlimit="10" stroke-width="2.64"/>
      <rect id="Rectángulo_26697" data-name="Rectángulo 26697" width="9.54" height="99.01" transform="translate(163.82 313.015) rotate(90)" fill="#d4dee8"/>
      <g id="Grupo_33141" data-name="Grupo 33141" transform="translate(58.907 163.137)">
        <g id="Grupo_33140" data-name="Grupo 33140" transform="translate(0)">
          <path id="Trazado_81588" data-name="Trazado 81588" d="M1923.981,499.152l-78.418,1.076-10.081,57.31,77.9-.305Z" transform="translate(-1804.585 -499.152)" fill="#242638"/>
          <rect id="Rectángulo_26698" data-name="Rectángulo 26698" width="49.961" height="4.961" transform="translate(0 53.494) rotate(-0.786)" fill="#242638"/>
        </g>
        <path id="Trazado_81589" data-name="Trazado 81589" d="M1918.932,537.19a6.732,6.732,0,1,0-6.639,6.824A6.733,6.733,0,0,0,1918.932,537.19Z" transform="translate(-1833.566 -512.154)" fill="#fff"/>
      </g>
      <g id="Grupo_33142" data-name="Grupo 33142" transform="translate(79.894 294.064)">
        <rect id="Rectángulo_26699" data-name="Rectángulo 26699" width="72.324" height="18.951" fill="#a9bdd2"/>
        <path id="Trazado_81590" data-name="Trazado 81590" d="M1885.256,740.742H1828.4a3.685,3.685,0,0,1-3.675-3.674h0a3.685,3.685,0,0,1,3.675-3.674h56.853a3.685,3.685,0,0,1,3.674,3.674h0A3.685,3.685,0,0,1,1885.256,740.742Z" transform="translate(-1821.118 -727.077)" fill="#242638"/>
        <circle id="Elipse_3421" data-name="Elipse 3421" cx="2.449" cy="2.449" r="2.449" transform="translate(60.302 7.606)" fill="#5793ce"/>
        <circle id="Elipse_3422" data-name="Elipse 3422" cx="2.449" cy="2.449" r="2.449" transform="translate(54.017 7.606)" fill="#5793ce"/>
        <path id="Trazado_81591" data-name="Trazado 81591" d="M1904.6,738.044a2.45,2.45,0,1,0-2.45,2.45A2.449,2.449,0,0,0,1904.6,738.044Z" transform="translate(-1852.165 -727.988)" fill="#5793ce"/>
        <path id="Trazado_81592" data-name="Trazado 81592" d="M1893.877,738.044a2.449,2.449,0,1,0-2.45,2.45A2.449,2.449,0,0,0,1893.877,738.044Z" transform="translate(-1847.724 -727.988)" fill="#5793ce"/>
        <circle id="Elipse_3423" data-name="Elipse 3423" cx="2.449" cy="2.449" r="2.449" transform="translate(34.873 7.606)" fill="#5793ce"/>
        <circle id="Elipse_3424" data-name="Elipse 3424" cx="2.449" cy="2.449" r="2.449" transform="translate(28.588 7.606)" fill="#5793ce"/>
      </g>
      <g id="Grupo_33143" data-name="Grupo 33143" transform="translate(79.994 274.211)">
        <rect id="Rectángulo_26700" data-name="Rectángulo 26700" width="72.324" height="18.951" fill="#a9bdd2"/>
        <path id="Trazado_81593" data-name="Trazado 81593" d="M1885.427,706.857h-56.853a3.685,3.685,0,0,1-3.674-3.674h0a3.685,3.685,0,0,1,3.674-3.674h56.853a3.685,3.685,0,0,1,3.674,3.674h0A3.685,3.685,0,0,1,1885.427,706.857Z" transform="translate(-1821.29 -693.192)" fill="#242638"/>
        <path id="Trazado_81594" data-name="Trazado 81594" d="M1926.558,704.159a2.45,2.45,0,1,0-2.45,2.45A2.45,2.45,0,0,0,1926.558,704.159Z" transform="translate(-1861.357 -694.103)" fill="#f59d36"/>
        <circle id="Elipse_3425" data-name="Elipse 3425" cx="2.449" cy="2.449" r="2.449" transform="translate(54.017 7.606)" fill="#f59d36"/>
        <path id="Trazado_81595" data-name="Trazado 81595" d="M1904.775,704.159a2.449,2.449,0,1,0-2.449,2.45A2.449,2.449,0,0,0,1904.775,704.159Z" transform="translate(-1852.337 -694.103)" fill="#f59d36"/>
        <path id="Trazado_81596" data-name="Trazado 81596" d="M1894.048,704.159a2.45,2.45,0,1,0-2.45,2.45A2.45,2.45,0,0,0,1894.048,704.159Z" transform="translate(-1847.895 -694.103)" fill="#f59d36"/>
        <circle id="Elipse_3426" data-name="Elipse 3426" cx="2.449" cy="2.449" r="2.449" transform="translate(34.873 7.606)" fill="#f59d36"/>
        <circle id="Elipse_3427" data-name="Elipse 3427" cx="2.449" cy="2.449" r="2.449" transform="translate(28.588 7.606)" fill="#f59d36"/>
      </g>
      <line id="Línea_271" data-name="Línea 271" x2="72.324" transform="translate(79.894 293.935)" fill="none" stroke="#242638" stroke-miterlimit="10" stroke-width="2.64"/>
    </g>
    <g id="Grupo_156383" data-name="Grupo 156383" transform="translate(380.042 1129.245)">
      <g id="Grupo_156205" data-name="Grupo 156205">
        <g id="Grupo_156176" data-name="Grupo 156176" transform="translate(0 10.462)">
          <path id="Trazado_196533" data-name="Trazado 196533" d="M807.893,183.046c0-16.317.191-30.527,0-45.846-22.862,0-45.841.665-68.874.422-.221,15.613,0,30.3,0,45.478Q773.551,183.1,807.893,183.046Z" transform="translate(-738.477 -136.756)" fill="#fff"/>
          <path id="Trazado_196534" data-name="Trazado 196534" d="M738.943,183.468a.445.445,0,0,1-.444-.445c0-5.061-.025-10.151-.049-15.073-.049-9.833-.1-20,.049-30.411a.444.444,0,0,1,.444-.438h0c13.3.14,26.8-.026,39.846-.186,9.522-.117,19.367-.237,29.023-.237a.444.444,0,0,1,.444.439c.125,10.106.086,19.668.044,29.79-.021,5.165-.044,10.506-.044,16.061a.444.444,0,0,1-.444.444c-11.438,0-23.085.014-34.349.027C762.16,183.455,750.468,183.468,738.943,183.468Zm.438-45.474c-.139,10.248-.09,20.262-.043,29.952.023,4.779.048,9.716.049,14.632,11.382,0,22.918-.014,34.079-.026,11.119-.014,22.611-.027,33.908-.027,0-5.4.022-10.594.043-15.622.042-9.972.08-19.4-.038-29.336-9.511,0-19.2.123-28.574.238C765.9,137.963,752.55,138.128,739.38,137.995Z" transform="translate(-738.401 -136.679)"/>
        </g>
        <g id="Grupo_156177" data-name="Grupo 156177" transform="translate(0.097 5.848)">
          <path id="Trazado_196535" data-name="Trazado 196535" d="M739.181,132.095c-.076,1.9-.058,3.71-.145,5.892,23.053.049,45.893.02,68.874-.054,0-1.969-.058-4.541-.058-6.141Z" transform="translate(-738.591 -131.348)" fill="#f59d36"/>
          <path id="Trazado_196536" data-name="Trazado 196536" d="M762.262,138.379c-8,0-15.748-.009-23.3-.025a.444.444,0,0,1-.444-.462c.045-1.122.062-2.146.078-3.135.015-.942.03-1.831.068-2.757a.445.445,0,0,1,.442-.427l68.67-.3h0a.444.444,0,0,1,.444.445c0,.757.014,1.732.027,2.757.015,1.153.032,2.345.032,3.383a.444.444,0,0,1-.443.444C791.613,138.353,776.533,138.379,762.262,138.379Zm-22.842-.912c20.771.044,43.014.026,67.969-.053,0-.922-.018-1.94-.031-2.93-.012-.838-.022-1.642-.026-2.322l-67.8.3c-.026.767-.039,1.52-.051,2.311C739.468,135.63,739.453,136.514,739.42,137.467Z" transform="translate(-738.515 -131.271)"/>
        </g>
        <g id="Grupo_156178" data-name="Grupo 156178" transform="translate(48.385 8.987)">
          <path id="Trazado_196537" data-name="Trazado 196537" d="M795.558,135.9a.445.445,0,0,1-.008-.889l3.171-.056h.008a.445.445,0,0,1,.008.889l-3.17.056Z" transform="translate(-795.114 -134.95)"/>
        </g>
        <g id="Grupo_156179" data-name="Grupo 156179" transform="translate(55.399 9.043)">
          <path id="Trazado_196538" data-name="Trazado 196538" d="M803.78,135.96a.444.444,0,0,1-.008-.888l3.17-.056h.009a.445.445,0,0,1,.008.889l-3.171.055Z" transform="translate(-803.335 -135.016)"/>
        </g>
        <g id="Grupo_156180" data-name="Grupo 156180" transform="translate(62.187 8.93)">
          <path id="Trazado_196539" data-name="Trazado 196539" d="M811.736,135.827a.444.444,0,0,1-.008-.888l3.171-.056h.008a.445.445,0,0,1,.008.889l-3.17.055Z" transform="translate(-811.292 -134.883)"/>
        </g>
        <g id="Grupo_156181" data-name="Grupo 156181" transform="translate(8.439 21.708)">
          <path id="Trazado_196540" data-name="Trazado 196540" d="M748.736,151.011a.444.444,0,0,1-.015-.888l7.7-.262a.45.45,0,0,1,.459.428.444.444,0,0,1-.429.459l-7.7.262Z" transform="translate(-748.292 -149.861)"/>
        </g>
        <g id="Grupo_156182" data-name="Grupo 156182" transform="translate(8.863 30.665)">
          <path id="Trazado_196541" data-name="Trazado 196541" d="M749.233,161.51a.445.445,0,0,1-.011-.889l10.309-.262h.011a.444.444,0,0,1,.011.888l-10.308.263Z" transform="translate(-748.789 -160.359)"/>
        </g>
        <g id="Grupo_156183" data-name="Grupo 156183" transform="translate(8.738 39.622)">
          <path id="Trazado_196542" data-name="Trazado 196542" d="M749.088,172.009a.445.445,0,0,1-.006-.889l20.865-.262h.006a.444.444,0,0,1,.005.888l-20.865.263Z" transform="translate(-748.643 -170.858)"/>
        </g>
        <g id="Grupo_156184" data-name="Grupo 156184" transform="translate(8.863 47.634)">
          <path id="Trazado_196543" data-name="Trazado 196543" d="M749.234,181.4a.444.444,0,0,1,0-.888l36.6-.262h0a.444.444,0,0,1,0,.888l-36.6.262Z" transform="translate(-748.789 -180.249)"/>
        </g>
        <g id="Grupo_156200" data-name="Grupo 156200" transform="translate(23.65)">
          <g id="Grupo_156185" data-name="Grupo 156185" transform="translate(31.445 29.326)">
            <path id="Trazado_196544" data-name="Trazado 196544" d="M803.5,163.725l9.3,9.153a61.219,61.219,0,0,0,5.065,4.625,5.507,5.507,0,0,0,3.205,1.467,2.426,2.426,0,0,0,2.407-2.311,3.983,3.983,0,0,0-1.388-2.566q-7.407-7.813-15.46-14.792C805.652,160.74,804.669,162.18,803.5,163.725Z" transform="translate(-803.056 -158.865)" fill="#fff"/>
            <path id="Trazado_196545" data-name="Trazado 196545" d="M821,179.339h0a5.858,5.858,0,0,1-3.478-1.561,61.644,61.644,0,0,1-5.1-4.658l-9.3-9.153a.443.443,0,0,1-.043-.584c1.158-1.53,2.149-2.983,3.109-4.388a.468.468,0,0,1,.316-.2.455.455,0,0,1,.355.1c5.35,4.637,10.562,9.624,15.491,14.822a4.368,4.368,0,0,1,1.509,2.87,2.624,2.624,0,0,1-.791,1.874A2.978,2.978,0,0,1,821,179.339Zm-16.987-15.733,9.027,8.88a61.192,61.192,0,0,0,5.028,4.592A5.124,5.124,0,0,0,821,178.451h0a2.075,2.075,0,0,0,1.429-.622,1.746,1.746,0,0,0,.532-1.241,3.6,3.6,0,0,0-1.266-2.264c-4.793-5.056-9.855-9.91-15.051-14.434C805.82,161.093,804.973,162.32,804.012,163.606Z" transform="translate(-802.979 -158.79)"/>
          </g>
          <g id="Grupo_156187" data-name="Grupo 156187">
            <g id="Grupo_156186" data-name="Grupo 156186">
              <path id="Trazado_196546" data-name="Trazado 196546" d="M785.985,124.937a19.342,19.342,0,1,0,19.342,19.342A19.342,19.342,0,0,0,785.985,124.937Zm0,34.032a14.69,14.69,0,1,1,14.69-14.69A14.69,14.69,0,0,1,785.985,158.969Zm0,0a14.69,14.69,0,1,1,14.69-14.69A14.69,14.69,0,0,1,785.985,158.969Z" transform="translate(-766.198 -124.493)" fill="#fff"/>
              <path id="Trazado_196547" data-name="Trazado 196547" d="M785.908,163.989A19.786,19.786,0,1,1,805.695,144.2,19.809,19.809,0,0,1,785.908,163.989Zm0-38.684a18.9,18.9,0,1,0,18.9,18.9A18.92,18.92,0,0,0,785.908,125.3Zm0,34.033A15.135,15.135,0,1,1,801.042,144.2,15.152,15.152,0,0,1,785.908,159.337ZM771.662,144.2a14.246,14.246,0,1,0,14.247-14.246A14.262,14.262,0,0,0,771.662,144.2Z" transform="translate(-766.122 -124.416)"/>
            </g>
          </g>
          <g id="Grupo_156188" data-name="Grupo 156188" transform="translate(10.278 17.624)">
            <path id="Trazado_196548" data-name="Trazado 196548" d="M778.689,147.113a1.518,1.518,0,1,1,1.518,1.518A1.518,1.518,0,0,1,778.689,147.113Z" transform="translate(-778.246 -145.151)" fill="#fff"/>
            <path id="Trazado_196549" data-name="Trazado 196549" d="M780.13,149a1.962,1.962,0,1,1,1.962-1.961A1.963,1.963,0,0,1,780.13,149Zm0-3.036a1.074,1.074,0,1,0,1.074,1.074A1.075,1.075,0,0,0,780.13,145.962Z" transform="translate(-778.169 -145.074)"/>
          </g>
          <g id="Grupo_156189" data-name="Grupo 156189" transform="translate(17.627 17.624)">
            <circle id="Elipse_6032" data-name="Elipse 6032" cx="1.518" cy="1.518" r="1.518" transform="translate(0.444 0.444)" fill="#fff"/>
            <path id="Trazado_196550" data-name="Trazado 196550" d="M788.745,149a1.962,1.962,0,1,1,1.962-1.961A1.963,1.963,0,0,1,788.745,149Zm0-3.036a1.074,1.074,0,1,0,1.074,1.074A1.075,1.075,0,0,0,788.745,145.962Z" transform="translate(-786.783 -145.074)"/>
          </g>
          <g id="Grupo_156190" data-name="Grupo 156190" transform="translate(24.976 17.624)">
            <circle id="Elipse_6033" data-name="Elipse 6033" cx="1.518" cy="1.518" r="1.518" transform="translate(0.444 0.444)" fill="#fff"/>
            <path id="Trazado_196551" data-name="Trazado 196551" d="M797.359,149a1.962,1.962,0,1,1,1.961-1.961A1.964,1.964,0,0,1,797.359,149Zm0-3.036a1.074,1.074,0,1,0,1.073,1.074A1.075,1.075,0,0,0,797.359,145.962Z" transform="translate(-795.397 -145.074)"/>
          </g>
          <g id="Grupo_156191" data-name="Grupo 156191" transform="translate(34.235 33.253)">
            <path id="Trazado_196552" data-name="Trazado 196552" d="M806.4,164.88a.14.14,0,0,1-.041-.006.149.149,0,0,1-.1-.183l.341-1.19a.148.148,0,0,1,.284.081l-.34,1.191A.149.149,0,0,1,806.4,164.88Z" transform="translate(-806.249 -163.393)"/>
          </g>
          <g id="Grupo_156192" data-name="Grupo 156192" transform="translate(35.862 32.358)">
            <path id="Trazado_196553" data-name="Trazado 196553" d="M808.305,166.811h-.02a.149.149,0,0,1-.128-.166c.183-1.392.4-2.8.653-4.179a.148.148,0,1,1,.292.054c-.251,1.376-.469,2.777-.65,4.163A.149.149,0,0,1,808.305,166.811Z" transform="translate(-808.157 -162.343)"/>
          </g>
          <g id="Grupo_156193" data-name="Grupo 156193" transform="translate(37.975 34.153)">
            <path id="Trazado_196554" data-name="Trazado 196554" d="M810.782,169.145a.148.148,0,0,1-.148-.148c0-.7.107-1.862.2-2.891.058-.63.107-1.174.125-1.516a.148.148,0,1,1,.3.015c-.017.348-.067.895-.125,1.528-.094,1.024-.2,2.183-.2,2.865A.149.149,0,0,1,810.782,169.145Z" transform="translate(-810.634 -164.447)"/>
          </g>
          <g id="Grupo_156194" data-name="Grupo 156194" transform="translate(40.026 35.608)">
            <path id="Trazado_196555" data-name="Trazado 196555" d="M813.3,171.39a.148.148,0,0,1-.148-.145l-.112-4.94a.149.149,0,0,1,.3-.007l.111,4.94a.149.149,0,0,1-.144.152Z" transform="translate(-813.038 -166.153)"/>
          </g>
          <g id="Grupo_156195" data-name="Grupo 156195" transform="translate(42.003 37.56)">
            <path id="Trazado_196556" data-name="Trazado 196556" d="M815.7,173.91a.149.149,0,0,1-.148-.142l-.194-5.173a.149.149,0,0,1,.142-.154.155.155,0,0,1,.154.142l.195,5.174a.149.149,0,0,1-.143.153Z" transform="translate(-815.355 -168.441)"/>
          </g>
          <g id="Grupo_156196" data-name="Grupo 156196" transform="translate(44.03 39.742)">
            <path id="Trazado_196557" data-name="Trazado 196557" d="M818.14,176.127a.148.148,0,0,1-.147-.14l-.262-4.832a.149.149,0,0,1,.14-.156.144.144,0,0,1,.156.14l.262,4.832a.148.148,0,0,1-.14.156Z" transform="translate(-817.731 -170.999)"/>
          </g>
          <g id="Grupo_156197" data-name="Grupo 156197" transform="translate(46.004 41.572)">
            <path id="Trazado_196558" data-name="Trazado 196558" d="M820.555,178.145a.148.148,0,0,1-.148-.137l-.362-4.705a.148.148,0,0,1,.294-.023l.363,4.705a.147.147,0,0,1-.136.159Z" transform="translate(-820.044 -173.143)"/>
          </g>
          <g id="Grupo_156198" data-name="Grupo 156198" transform="translate(47.906 43.681)">
            <path id="Trazado_196559" data-name="Trazado 196559" d="M822.846,180.038a.148.148,0,0,1-.147-.133l-.424-4.127a.148.148,0,0,1,.132-.162.154.154,0,0,1,.162.132l.424,4.127a.148.148,0,0,1-.132.162Z" transform="translate(-822.274 -175.615)"/>
          </g>
          <g id="Grupo_156199" data-name="Grupo 156199" transform="translate(49.955 45.744)">
            <path id="Trazado_196560" data-name="Trazado 196560" d="M825.121,180.174a.149.149,0,0,1-.146-.125l-.3-1.844a.147.147,0,0,1,.122-.17.146.146,0,0,1,.17.122l.3,1.844a.148.148,0,0,1-.123.17Z" transform="translate(-824.676 -178.033)"/>
          </g>
        </g>
        <g id="Grupo_156201" data-name="Grupo 156201" transform="translate(0.638 12.203)" opacity="0.129">
          <path id="Trazado_196561" data-name="Trazado 196561" d="M763.292,138.987c-.5-.294-1.094-.078-1.639-.09-2.274-.027-4.549-.213-6.827-.171-2.581.031-5.158.264-7.74.165-1.473-.061-2.948-.011-4.422-.046-.566-.014-1.133-.016-1.7-.013a2.772,2.772,0,0,0-1.108.1,1.167,1.167,0,0,0,.451,2.239c3.737.017,7.469.3,11.206.221,3.722-.16,7.455.012,11.17-.258l.028,0a1.277,1.277,0,0,0,.813-.337A1.163,1.163,0,0,0,763.292,138.987Z" transform="translate(-739.149 -138.72)"/>
        </g>
        <g id="Grupo_156202" data-name="Grupo 156202" transform="translate(61.311 12.054)" opacity="0.129">
          <path id="Trazado_196562" data-name="Trazado 196562" d="M818.107,138.69a1.148,1.148,0,0,0-.921-.088c.023-.01.032-.015.01-.007-.241.039-.484.073-.723.125l-.061.007c-1.465.005-2.936-.136-4.407-.087-.49,0-1.05-.07-1.416.328a1.138,1.138,0,0,0,.8,1.927c1.262-.09,2.524-.1,3.789-.079,1.036-.08.82-.092,1.57-.132.233,0,.465-.027.7-.04.008,0,.008,0,0,0a1.056,1.056,0,0,0,.765-.231A1.044,1.044,0,0,0,818.107,138.69Z" transform="translate(-810.265 -138.545)"/>
        </g>
        <g id="Grupo_156203" data-name="Grupo 156203" transform="translate(28.768 18.078)" opacity="0.129">
          <path id="Trazado_196563" data-name="Trazado 196563" d="M791.282,161.069c.487-.165.979-.326,1.464-.5,1.044-.59,2.065-1.219,3.042-1.9a17.88,17.88,0,0,0,2.466-2.238,13.422,13.422,0,0,0,.891-1.009.979.979,0,0,0-.861.074,19.564,19.564,0,0,1-4.069,2.46,11.494,11.494,0,0,1-3.94,1.122,19.88,19.88,0,0,1-10.287-2.025,14.761,14.761,0,0,1-2.376-1.482q-.649-.525-1.242-1.113c-.168-.137-.64-.689-.819-.895a29.123,29.123,0,0,1-2.66-5.487,17.122,17.122,0,0,1-.51-1.65,5.074,5.074,0,0,0-.237-.82,16.454,16.454,0,0,0,.22,3.764,24.839,24.839,0,0,0,1.083,3.837c.131.224.263.447.393.665a22.11,22.11,0,0,0,3.553,4.6,17.508,17.508,0,0,0,3.11,1.558,22.76,22.76,0,0,0,6.651,1.558,14.13,14.13,0,0,0,2.5.012Q790.47,161.341,791.282,161.069Z" transform="translate(-772.12 -145.606)"/>
        </g>
        <g id="Grupo_156204" data-name="Grupo 156204" transform="translate(54.895 30.707)" opacity="0.129">
          <path id="Trazado_196564" data-name="Trazado 196564" d="M817.771,177.277a1.046,1.046,0,0,0-.4-.392l-.009-.009.012.005a.168.168,0,0,0-.02-.013c-.1-.1-.358-.329-.449-.427-1.488-1.5-3.172-2.779-4.739-4.189-1.141-1.06-2.1-2.3-3.29-3.307-1.239-1.065-2.247-2.362-3.46-3.449a1.166,1.166,0,0,0,.253-.113,8.552,8.552,0,0,0,2.011-1.827c.219-.256.459-.492.672-.753a1.442,1.442,0,0,0,.578-.975,1.235,1.235,0,0,0-.9-1.373,1.33,1.33,0,0,0-1.578.905,17.164,17.164,0,0,1-1.878,1.833l-.133.092a1.222,1.222,0,0,0-.558.726,1.13,1.13,0,0,0-.046.327.77.77,0,0,0-.156-.016.948.948,0,0,0-.664,1.6,26.425,26.425,0,0,1,3.569,3.5c1.285,1.31,2.5,2.687,3.793,3.989,1.028.987,2.174,1.838,3.243,2.779.786.665,1.518,1.391,2.273,2.092a.874.874,0,0,0,.311.362A1.064,1.064,0,0,0,817.771,177.277Z" transform="translate(-802.745 -160.408)"/>
        </g>
      </g>
    </g>
    <g id="Grupo_156386" data-name="Grupo 156386" transform="translate(360.905 1169.04)">
      <g id="Grupo_156148" data-name="Grupo 156148">
        <path id="Trazado_196507" data-name="Trazado 196507" d="M106.14,333.3c0-12.176.142-22.779,0-34.211-17.06,0-34.207.5-51.394.315-.164,11.65,0,22.609,0,33.936Q80.513,333.339,106.14,333.3Z" transform="translate(-54.341 -298.756)" fill="#fff"/>
        <path id="Trazado_196508" data-name="Trazado 196508" d="M54.556,333.481a.332.332,0,0,1-.332-.331c0-3.776-.018-7.575-.036-11.247-.036-7.338-.073-14.925.036-22.693a.333.333,0,0,1,.336-.327c9.926.1,20-.018,29.733-.138,7.105-.087,14.452-.177,21.657-.177a.332.332,0,0,1,.332.327c.094,7.542.064,14.678.033,22.233-.016,3.853-.033,7.838-.033,11.982a.331.331,0,0,1-.331.332c-8.535,0-17.227.01-25.633.02C71.881,333.471,63.157,333.481,54.556,333.481Zm.327-33.932c-.1,7.647-.067,15.12-.032,22.351.018,3.566.036,7.25.037,10.919,8.493,0,17.1-.01,25.43-.02,8.3-.01,16.873-.02,25.3-.02,0-4.027.017-7.9.032-11.654.031-7.442.06-14.478-.029-21.894-7.1,0-14.326.092-21.322.178C74.668,299.525,64.71,299.647,54.883,299.549Z" transform="translate(-54.152 -298.567)"/>
      </g>
      <g id="Grupo_156149" data-name="Grupo 156149">
        <path id="Trazado_196509" data-name="Trazado 196509" d="M106.14,333.3c0-12.176.142-22.779,0-34.211-17.06,0-34.207.5-51.394.315-.164,11.65,0,22.609,0,33.936Q80.513,333.339,106.14,333.3Z" transform="translate(-54.341 -298.756)" fill="#fff"/>
        <path id="Trazado_196510" data-name="Trazado 196510" d="M54.556,333.481a.332.332,0,0,1-.332-.331c0-3.776-.018-7.575-.036-11.247-.036-7.338-.073-14.925.036-22.693a.333.333,0,0,1,.336-.327c9.926.1,20-.018,29.733-.138,7.105-.087,14.452-.177,21.657-.177a.332.332,0,0,1,.332.327c.094,7.542.064,14.678.033,22.233-.016,3.853-.033,7.838-.033,11.982a.331.331,0,0,1-.331.332c-8.535,0-17.227.01-25.633.02C71.881,333.471,63.157,333.481,54.556,333.481Zm.327-33.932c-.1,7.647-.067,15.12-.032,22.351.018,3.566.036,7.25.037,10.919,8.493,0,17.1-.01,25.43-.02,8.3-.01,16.873-.02,25.3-.02,0-4.027.017-7.9.032-11.654.031-7.442.06-14.478-.029-21.894-7.1,0-14.326.092-21.322.178C74.668,299.525,64.71,299.647,54.883,299.549Z" transform="translate(-54.152 -298.567)"/>
      </g>
      <g id="Grupo_156150" data-name="Grupo 156150" transform="translate(25.765 13.137)">
        <path id="Trazado_196511" data-name="Trazado 196511" d="M94.955,319.872a.332.332,0,1,1,0-.663l7.225-.006h0a.331.331,0,1,1,0,.663l-7.225.006Z" transform="translate(-94.623 -319.203)"/>
      </g>
      <g id="Grupo_156151" data-name="Grupo 156151" transform="translate(25.765 19.623)">
        <path id="Trazado_196512" data-name="Trazado 196512" d="M94.955,330.06a.331.331,0,1,1,0-.663l7.64-.006h0a.331.331,0,0,1,0,.663l-7.64.006Z" transform="translate(-94.623 -329.391)"/>
      </g>
      <g id="Grupo_156152" data-name="Grupo 156152" transform="translate(7.051 25.995)">
        <path id="Trazado_196513" data-name="Trazado 196513" d="M65.559,340.069a.332.332,0,1,1,0-.663l23.619-.006a.332.332,0,0,1,0,.663Z" transform="translate(-65.227 -339.399)"/>
      </g>
      <g id="Grupo_156153" data-name="Grupo 156153" transform="translate(35.277 2.102)">
        <circle id="Elipse_6030" data-name="Elipse 6030" cx="10.622" cy="10.622" r="10.622" transform="translate(0 15.021) rotate(-45)" fill="#fff"/>
        <path id="Trazado_196514" data-name="Trazado 196514" d="M126.907,330.164a10.953,10.953,0,1,1,10.953-10.953A10.965,10.965,0,0,1,126.907,330.164Zm0-21.243a10.29,10.29,0,1,0,10.29,10.29A10.3,10.3,0,0,0,126.907,308.921Z" transform="translate(-111.886 -304.19)"/>
      </g>
      <g id="Grupo_156154" data-name="Grupo 156154" transform="translate(44.389 10.8)">
        <path id="Trazado_196515" data-name="Trazado 196515" d="M124.4,320.395l1.726-1.726,2.656,3.709,3.8-6.325,2.119,1.605-5.681,8.862Z" transform="translate(-124.066 -315.721)" fill="#2ec49f"/>
        <path id="Trazado_196516" data-name="Trazado 196516" d="M128.829,326.662a.332.332,0,0,1-.264-.132l-4.621-6.125a.331.331,0,0,1,.03-.434l1.726-1.726a.331.331,0,0,1,.5.041l2.362,3.3,3.542-5.893a.331.331,0,0,1,.484-.093l2.119,1.6a.332.332,0,0,1,.079.443l-5.681,8.862a.331.331,0,0,1-.267.152Zm-4.183-6.426,4.161,5.515,5.259-8.2-1.581-1.2-3.612,6.009a.331.331,0,0,1-.553.022l-2.428-3.391Z" transform="translate(-123.876 -315.532)"/>
      </g>
      <g id="Grupo_156165" data-name="Grupo 156165" transform="translate(7.382 6.606)">
        <g id="Grupo_156155" data-name="Grupo 156155">
          <path id="Trazado_196517" data-name="Trazado 196517" d="M79.29,324.1c0-5.208.036-9.742,0-14.631-4.316,0-8.655.212-13,.135-.042,4.982,0,9.669,0,14.513C70.634,324.112,74.966,324.1,79.29,324.1Z" transform="translate(-65.937 -309.132)" fill="#fff"/>
          <path id="Trazado_196518" data-name="Trazado 196518" d="M66.1,324.255a.331.331,0,0,1-.332-.332c0-1.615,0-3.213-.01-4.81-.009-3.139-.018-6.383.01-9.706a.332.332,0,0,1,.337-.329c2.506.045,5.05-.008,7.512-.059,1.8-.037,3.659-.076,5.486-.076a.331.331,0,0,1,.331.329c.024,3.227.017,6.279.009,9.511,0,1.657-.009,3.351-.009,5.123a.332.332,0,0,1-.331.332q-3.239,0-6.485.008T66.1,324.255Zm.329-14.508c-.024,3.2-.015,6.334-.006,9.365,0,1.488.008,2.977.009,4.48q3.1,0,6.186-.008t6.154-.009c0-1.653,0-3.239.008-4.793.008-3.119.015-6.072-.006-9.174-1.714,0-3.456.041-5.143.076C71.271,309.731,68.836,309.781,66.427,309.746Z" transform="translate(-65.748 -308.943)"/>
        </g>
        <g id="Grupo_156156" data-name="Grupo 156156" transform="translate(1.506 12.504)">
          <path id="Trazado_196519" data-name="Trazado 196519" d="M69.334,329.778a.111.111,0,0,1-.066-.022,8.927,8.927,0,0,1-1.123-.985.111.111,0,1,1,.159-.153,8.626,8.626,0,0,0,1.1.96.111.111,0,0,1-.066.2Z" transform="translate(-68.114 -328.584)"/>
        </g>
        <g id="Grupo_156157" data-name="Grupo 156157" transform="translate(1.304 10.336)">
          <path id="Trazado_196520" data-name="Trazado 196520" d="M71.839,328.917a.112.112,0,0,1-.076-.03c-1.279-1.192-2.6-2.373-3.929-3.514a.11.11,0,1,1,.144-.167c1.33,1.141,2.654,2.326,3.936,3.519a.111.111,0,0,1-.075.192Z" transform="translate(-67.796 -325.179)"/>
        </g>
        <g id="Grupo_156158" data-name="Grupo 156158" transform="translate(1.467 8.423)">
          <path id="Trazado_196521" data-name="Trazado 196521" d="M74.568,327.814a.111.111,0,0,1-.071-.026l-6.406-5.42a.11.11,0,0,1-.013-.155.112.112,0,0,1,.156-.013l6.406,5.42a.11.11,0,0,1,.013.155A.109.109,0,0,1,74.568,327.814Z" transform="translate(-68.052 -322.174)"/>
        </g>
        <g id="Grupo_156159" data-name="Grupo 156159" transform="translate(1.559 6.291)">
          <path id="Trazado_196522" data-name="Trazado 196522" d="M77.059,326.477a.111.111,0,0,1-.074-.028c-2.836-2.54-5.779-5.039-8.747-7.428a.11.11,0,1,1,.139-.172c2.971,2.391,5.916,4.893,8.755,7.435a.11.11,0,0,1-.073.193Z" transform="translate(-68.197 -318.825)"/>
        </g>
        <g id="Grupo_156160" data-name="Grupo 156160" transform="translate(1.516 3.986)">
          <path id="Trazado_196523" data-name="Trazado 196523" d="M78.928,324.371a.112.112,0,0,1-.069-.024c-3.607-2.9-7.2-5.907-10.691-8.949a.111.111,0,0,1,.145-.167c3.485,3.041,7.079,6.05,10.684,8.943a.11.11,0,0,1-.069.2Z" transform="translate(-68.13 -315.204)"/>
        </g>
        <g id="Grupo_156161" data-name="Grupo 156161" transform="translate(1.54 1.865)">
          <path id="Trazado_196524" data-name="Trazado 196524" d="M78.863,320.743a.111.111,0,0,1-.07-.025l-10.585-8.65a.11.11,0,1,1,.139-.171l10.586,8.65a.11.11,0,0,1-.07.2Z" transform="translate(-68.167 -311.872)"/>
        </g>
        <g id="Grupo_156162" data-name="Grupo 156162" transform="translate(4.313 1.528)">
          <path id="Trazado_196525" data-name="Trazado 196525" d="M80.464,318.074a.111.111,0,0,1-.073-.027c-2.558-2.2-5.191-4.394-7.827-6.507a.111.111,0,0,1,.139-.172c2.638,2.115,5.273,4.306,7.833,6.512a.111.111,0,0,1-.072.194Z" transform="translate(-72.523 -311.343)"/>
        </g>
        <g id="Grupo_156163" data-name="Grupo 156163" transform="translate(7.541 1.733)">
          <path id="Trazado_196526" data-name="Trazado 196526" d="M82.282,315.435a.107.107,0,0,1-.065-.021c-1.56-1.127-3.1-2.322-4.582-3.553a.11.11,0,1,1,.141-.17c1.477,1.227,3.015,2.42,4.571,3.544a.11.11,0,0,1,.025.154A.108.108,0,0,1,82.282,315.435Z" transform="translate(-77.594 -311.665)"/>
        </g>
        <g id="Grupo_156164" data-name="Grupo 156164" transform="translate(10.496 1.773)">
          <path id="Trazado_196527" data-name="Trazado 196527" d="M84.055,313.282a.111.111,0,0,1-.072-.027c-.544-.464-1.117-.911-1.7-1.328a.11.11,0,1,1,.128-.18c.59.421,1.168.872,1.717,1.341a.11.11,0,0,1-.072.194Z" transform="translate(-82.235 -311.727)"/>
        </g>
      </g>
      <g id="Grupo_156166" data-name="Grupo 156166" transform="translate(7.627 20.084)" opacity="0.129">
        <path id="Trazado_196528" data-name="Trazado 196528" d="M78.916,330.472a1.515,1.515,0,0,0-.766-.1q-.9-.018-1.79-.055-4.5-.092-9-.2c-.346.009-.747-.054-1.007.226a.763.763,0,0,0,.535,1.292c2.981.015,5.961.163,8.943.179.686.026,1.371.059,2.058.071a2.869,2.869,0,0,0,.942-.081A.749.749,0,0,0,78.916,330.472Z" transform="translate(-66.132 -330.115)"/>
      </g>
      <g id="Grupo_156169" data-name="Grupo 156169" transform="translate(40.931 20.009)">
        <g id="Grupo_156167" data-name="Grupo 156167" opacity="0.129">
          <path id="Trazado_196529" data-name="Trazado 196529" d="M137.792,330.019c-.419-.12-.616.261-.807.554-.3.409-.572.831-.879,1.231l-.02.025a5.918,5.918,0,0,1-.514.6,7.357,7.357,0,0,0-.866.836c-.161.179-.332.347-.51.509l-.051.03a.96.96,0,0,0-.1.062l-.069.046c-.544.358-1.086.724-1.656,1.04a12.215,12.215,0,0,1-2.937.844,8.863,8.863,0,0,1-3.406-.33,12.34,12.34,0,0,1-2.239-.753c-.095-.041-.156-.066-.168-.07a14.351,14.351,0,0,1-1.924-.943,12.068,12.068,0,0,1-1.64-1.338l-.048-.038-.009-.007.007.006c-.257-.214-.5-.49-.842-.5a.68.68,0,0,0-.477,1.15,23.983,23.983,0,0,0,2.166,1.968,24.291,24.291,0,0,0,3.225,1.774,13.837,13.837,0,0,0,3.721.8,9.047,9.047,0,0,0,2.7-.363,10.467,10.467,0,0,0,3.17-1.352,5.411,5.411,0,0,0,1.365-1.085,13.762,13.762,0,0,0,1.1-1.227,16.3,16.3,0,0,0,1.679-2.175,2.166,2.166,0,0,0,.4-.714A.525.525,0,0,0,137.792,330.019Z" transform="translate(-118.445 -329.997)"/>
        </g>
        <g id="Grupo_156168" data-name="Grupo 156168" transform="translate(1.513 2.327)" opacity="0.129">
          <path id="Trazado_196530" data-name="Trazado 196530" d="M120.872,333.69c.027.022.054.043.081.062l-.132-.1h0Z" transform="translate(-120.822 -333.651)"/>
        </g>
      </g>
    </g>
    <g id="Grupo_161675" data-name="Grupo 161675" transform="translate(267.943 1050.758)">
      <g id="Grupo_155411" data-name="Grupo 155411" transform="translate(0 3.342)">
        <path id="Trazado_195826" data-name="Trazado 195826" d="M243.833,80.946h-.006a.618.618,0,0,1-.611-.624l.184-16.937a.618.618,0,0,1,.617-.611h.007a.617.617,0,0,1,.611.624l-.184,16.937A.618.618,0,0,1,243.833,80.946Z" transform="translate(-243.216 -62.774)"/>
      </g>
      <g id="Grupo_155412" data-name="Grupo 155412" transform="translate(7.926 6.919)">
        <path id="Trazado_195827" data-name="Trazado 195827" d="M250.18,80.233h-.009a.619.619,0,0,1-.61-.626l.185-13.361a.616.616,0,0,1,.617-.608h.009a.617.617,0,0,1,.608.626l-.184,13.36A.618.618,0,0,1,250.18,80.233Z" transform="translate(-249.562 -65.638)"/>
      </g>
      <g id="Grupo_155413" data-name="Grupo 155413" transform="translate(23.034 6.919)">
        <path id="Trazado_195828" data-name="Trazado 195828" d="M262.277,80.233h-.009a.619.619,0,0,1-.609-.626l.185-13.361a.616.616,0,0,1,.617-.608h.009a.617.617,0,0,1,.608.626l-.184,13.36A.618.618,0,0,1,262.277,80.233Z" transform="translate(-261.659 -65.638)"/>
      </g>
      <g id="Grupo_155414" data-name="Grupo 155414" transform="translate(15.855)">
        <path id="Trazado_195829" data-name="Trazado 195829" d="M256.528,81.612h-.006a.617.617,0,0,1-.611-.623l.184-20.279a.617.617,0,1,1,1.234.011L257.145,81A.617.617,0,0,1,256.528,81.612Z" transform="translate(-255.911 -60.098)"/>
      </g>
    </g>
    <g id="Grupo_161676" data-name="Grupo 161676" transform="translate(362.118 1375.425)">
      <g id="Grupo_155411-2" data-name="Grupo 155411" transform="translate(0 3.342)">
        <path id="Trazado_195826-2" data-name="Trazado 195826" d="M243.833,80.946h-.006a.618.618,0,0,1-.611-.624l.184-16.937a.618.618,0,0,1,.617-.611h.007a.617.617,0,0,1,.611.624l-.184,16.937A.618.618,0,0,1,243.833,80.946Z" transform="translate(-243.216 -62.774)"/>
      </g>
      <g id="Grupo_155412-2" data-name="Grupo 155412" transform="translate(7.926 6.919)">
        <path id="Trazado_195827-2" data-name="Trazado 195827" d="M250.18,80.233h-.009a.619.619,0,0,1-.61-.626l.185-13.361a.616.616,0,0,1,.617-.608h.009a.617.617,0,0,1,.608.626l-.184,13.36A.618.618,0,0,1,250.18,80.233Z" transform="translate(-249.562 -65.638)"/>
      </g>
      <g id="Grupo_155413-2" data-name="Grupo 155413" transform="translate(23.034 6.919)">
        <path id="Trazado_195828-2" data-name="Trazado 195828" d="M262.277,80.233h-.009a.619.619,0,0,1-.609-.626l.185-13.361a.616.616,0,0,1,.617-.608h.009a.617.617,0,0,1,.608.626l-.184,13.36A.618.618,0,0,1,262.277,80.233Z" transform="translate(-261.659 -65.638)"/>
      </g>
      <g id="Grupo_155414-2" data-name="Grupo 155414" transform="translate(15.855)">
        <path id="Trazado_195829-2" data-name="Trazado 195829" d="M256.528,81.612h-.006a.617.617,0,0,1-.611-.623l.184-20.279a.617.617,0,1,1,1.234.011L257.145,81A.617.617,0,0,1,256.528,81.612Z" transform="translate(-255.911 -60.098)"/>
      </g>
    </g>
    <g id="Grupo_161677" data-name="Grupo 161677" transform="translate(562.492 1050.759)">
      <g id="Grupo_155416" data-name="Grupo 155416" transform="translate(9.975 3.342)">
        <path id="Trazado_195830" data-name="Trazado 195830" d="M506.234,63.476h-.009a.619.619,0,0,1-.609-.626l.224-16.937a.619.619,0,0,1,.618-.609h.008a.618.618,0,0,1,.609.626l-.224,16.937A.618.618,0,0,1,506.234,63.476Z" transform="translate(-505.616 -45.304)"/>
      </g>
      <g id="Grupo_155417" data-name="Grupo 155417" transform="translate(19.63 6.919)">
        <path id="Trazado_195831" data-name="Trazado 195831" d="M513.963,62.763h-.01a.618.618,0,0,1-.607-.628l.224-13.36a.606.606,0,0,1,.628-.607.618.618,0,0,1,.607.628l-.225,13.36A.617.617,0,0,1,513.963,62.763Z" transform="translate(-513.346 -48.168)"/>
      </g>
      <g id="Grupo_155418" data-name="Grupo 155418" transform="translate(38.031 6.919)">
        <path id="Trazado_195832" data-name="Trazado 195832" d="M528.7,62.763h-.011a.619.619,0,0,1-.607-.628l.225-13.36a.6.6,0,0,1,.627-.607.617.617,0,0,1,.607.628l-.224,13.36A.618.618,0,0,1,528.7,62.763Z" transform="translate(-528.079 -48.168)"/>
      </g>
      <g id="Grupo_155419" data-name="Grupo 155419" transform="translate(29.285)">
        <path id="Trazado_195833" data-name="Trazado 195833" d="M521.7,64.142h-.008a.618.618,0,0,1-.611-.624l.225-20.279a.618.618,0,0,1,.617-.611h.008a.617.617,0,0,1,.609.624l-.224,20.279A.618.618,0,0,1,521.7,64.142Z" transform="translate(-521.077 -42.628)"/>
      </g>
      <g id="Grupo_155420" data-name="Grupo 155420" transform="translate(0 9.066)">
        <path id="Trazado_195834" data-name="Trazado 195834" d="M498.246,62.335h-.013a.617.617,0,0,1-.6-.629l.224-11.213a.638.638,0,0,1,.63-.606.62.62,0,0,1,.606.631l-.225,11.213A.617.617,0,0,1,498.246,62.335Z" transform="translate(-497.629 -49.887)"/>
      </g>
    </g>
    <g id="Grupo_161678" data-name="Grupo 161678" transform="translate(280.17 1101.059)">
      <g id="Grupo_155451" data-name="Grupo 155451">
        <path id="Trazado_195861" data-name="Trazado 195861" d="M391.731,60.458l32.685-.435c3.47-.047,7.1-.132,10.144-1.787a10.081,10.081,0,0,0,5.289-8.843,8.709,8.709,0,0,0-6.125-8.048,7.679,7.679,0,0,0-8.915,4.308c.174-6.24-5.336-12.186-11.578-12.145s-11.755,6.436-10.554,12.562c-1.065-2.846-4.482-4.35-7.48-3.849a11.306,11.306,0,0,0-7.207,5.164,10.741,10.741,0,0,0-2.016,7.186C386.307,57.092,388.015,60.507,391.731,60.458Z" transform="translate(-385.291 -32.89)" fill="#fff"/>
        <path id="Trazado_195862" data-name="Trazado 195862" d="M391.775,61.2c-3.761,0-5.866-3.214-6.287-6.423a11.39,11.39,0,0,1,2.114-7.609,11.913,11.913,0,0,1,7.617-5.43,7.871,7.871,0,0,1,6.817,2.156,11.387,11.387,0,0,1,2.637-6.488,11.573,11.573,0,0,1,8.679-4.39h.066a11.953,11.953,0,0,1,8.413,3.737,12.952,12.952,0,0,1,3.586,6.985,8.5,8.5,0,0,1,8.593-2.864,9.268,9.268,0,0,1,6.581,8.63,10.717,10.717,0,0,1-5.612,9.4c-3.252,1.766-7.065,1.817-10.43,1.862l-32.685.435h-.089Zm.08-.617h0Zm4.617-17.713a6.441,6.441,0,0,0-1.049.085,10.679,10.679,0,0,0-6.793,4.9,10.189,10.189,0,0,0-1.918,6.764c.262,1.995,1.624,5.349,5.064,5.349h.071l32.685-.435c3.221-.042,6.873-.091,9.857-1.712a9.456,9.456,0,0,0,4.967-8.283,8.115,8.115,0,0,0-5.67-7.47A7.059,7.059,0,0,0,425.508,46a.617.617,0,0,1-1.191-.244,11.361,11.361,0,0,0-3.367-8.146,10.768,10.768,0,0,0-7.59-3.365,10.329,10.329,0,0,0-7.731,3.937,9.635,9.635,0,0,0-2.221,7.89.617.617,0,0,1-1.184.335A6.038,6.038,0,0,0,396.472,42.868Z" transform="translate(-385.414 -33.013)"/>
      </g>
      <g id="Grupo_155452" data-name="Grupo 155452" transform="translate(1.57 20.37)" opacity="0.129">
        <path id="Trazado_195863" data-name="Trazado 195863" d="M436.975,49.364a1.789,1.789,0,0,0-.721.483c-.266.2-.551.361-.831.535a19.756,19.756,0,0,1-1.965,1.19c-.069.03-.109.05-.13.061a38.785,38.785,0,0,1-4.271,1.218c-1.009.124-4.5.021-6.538.089-4.344.086-8.689.1-13.032.232a64.956,64.956,0,0,0-10.27.661c-4.375.336-5.831.525-9.059-.827l.145.061a15.455,15.455,0,0,0-2.111-.957,1.351,1.351,0,0,0-.863,2.5,20.663,20.663,0,0,0,5.479,2.106c4.423.716,8.828-.592,13.261-.461,1.555-.03,3.109.085,4.665.049,2.1-.076,4.192-.227,6.291-.261,3.126-.065,6.391-.271,8.705-.556a1.142,1.142,0,0,0,1.354,1.189,19.37,19.37,0,0,0,7.191-2.234c.512-.264,1.012-.548,1.509-.836.285-.182.644-.291.834-.586a1.051,1.051,0,0,0,.251-.767,9.147,9.147,0,0,0,.987-.736,1.345,1.345,0,0,0,.576-1.042A1.164,1.164,0,0,0,436.975,49.364Z" transform="translate(-386.671 -49.323)"/>
      </g>
    </g>
    <g id="Grupo_985394" data-name="Grupo 985394" transform="translate(560.746 1080.882)">
      <g id="Grupo_892909" data-name="Grupo 892909">
        <g id="Grupo_892906" data-name="Grupo 892906" transform="translate(0.24 0.239)">
          <rect id="Rectángulo_303249" data-name="Rectángulo 303249" width="61.796" height="53.095" rx="3.922" fill="#fff"/>
        </g>
        <g id="Grupo_892908" data-name="Grupo 892908">
          <g id="Grupo_892907" data-name="Grupo 892907">
            <path id="Trazado_612426" data-name="Trazado 612426" d="M129.995,97.57c0-.017.2-.006.57-.074a3.574,3.574,0,0,0,1.523-.662,3.506,3.506,0,0,0,1.374-2.257,12.718,12.718,0,0,0,.044-1.742q-.006-.941-.011-2c-.018-5.674-.044-13.857-.076-23.961-.008-5.06-.018-10.6-.029-16.546-.072-1.474.286-3.092-.668-4.263a3.392,3.392,0,0,0-1.759-1.239,8.762,8.762,0,0,0-2.285-.139l-9.772.01-43.514.019a3.341,3.341,0,0,0-2.415,1.023,3.392,3.392,0,0,0-.946,2.437q0,2.859,0,5.678,0,5.639,0,11.1c0,7.278-.009,14.3-.014,20.988l0,4.952,0,2.428a4.163,4.163,0,0,0,.389,2.227,3.4,3.4,0,0,0,1.584,1.5,3.557,3.557,0,0,0,1.055.292c.355.028.754.016,1.135.02l4.536.005L97.25,97.4l23.96.076,6.514.045,1.694.024c.381.008.577.024.577.024s-.2.016-.577.025l-1.694.024-6.514.045-23.96.075L80.7,97.768l-4.536.006c-.388,0-.76.012-1.178-.019a3.91,3.91,0,0,1-1.184-.325,3.817,3.817,0,0,1-1.783-1.68,4.6,4.6,0,0,1-.443-2.424l0-2.428-.006-4.952c0-6.689-.009-13.71-.014-20.988q0-5.461,0-11.1,0-2.819,0-5.678a3.872,3.872,0,0,1,1.079-2.769,3.819,3.819,0,0,1,2.758-1.169l43.514.018,9.772.01,1.184,0a4.134,4.134,0,0,1,1.22.16,3.812,3.812,0,0,1,2.708,3.65q0,1.134,0,2.249c-.01,5.947-.02,11.486-.029,16.546-.032,10.1-.058,18.286-.075,23.961q-.007,1.06-.011,2A12.634,12.634,0,0,1,133.6,94.6a3.589,3.589,0,0,1-1.457,2.309,3.5,3.5,0,0,1-1.571.633A2.278,2.278,0,0,1,129.995,97.57Z" transform="translate(-71.553 -44.237)" fill="#263238"/>
          </g>
        </g>
      </g>
      <g id="Grupo_892910" data-name="Grupo 892910" transform="translate(10.02 10.956)">
        <path id="Trazado_612427" data-name="Trazado 612427" d="M110.953,62.079H85.444a2.931,2.931,0,0,1-2.931-2.93h0a2.931,2.931,0,0,1,2.931-2.931h25.509a2.931,2.931,0,0,1,2.931,2.931h0A2.931,2.931,0,0,1,110.953,62.079Z" transform="translate(-82.49 -56.196)" fill="#26aab7"/>
        <path id="Trazado_612428" data-name="Trazado 612428" d="M110.951,62.1H85.442a2.954,2.954,0,1,1,0-5.907h25.509a2.954,2.954,0,0,1,0,5.907ZM85.442,56.24a2.908,2.908,0,1,0,0,5.816h25.509a2.908,2.908,0,1,0,0-5.816Z" transform="translate(-82.488 -56.194)" fill="#fff"/>
      </g>
      <g id="Grupo_892911" data-name="Grupo 892911" transform="translate(10.02 24.738)">
        <path id="Trazado_612429" data-name="Trazado 612429" d="M125.253,77.121H85.444a2.931,2.931,0,0,1-2.931-2.93h0a2.931,2.931,0,0,1,2.931-2.931h39.809a2.931,2.931,0,0,1,2.93,2.931h0A2.931,2.931,0,0,1,125.253,77.121Z" transform="translate(-82.49 -71.237)" fill="#263238"/>
        <path id="Trazado_612430" data-name="Trazado 612430" d="M125.251,77.142H85.442a2.954,2.954,0,1,1,0-5.907h39.809a2.954,2.954,0,0,1,0,5.907ZM85.442,71.281a2.908,2.908,0,1,0,0,5.816h39.809a2.908,2.908,0,0,0,0-5.816Z" transform="translate(-82.488 -71.235)" fill="#fff"/>
      </g>
      <g id="Grupo_892915" data-name="Grupo 892915" transform="translate(52.832 6.988)">
        <g id="Grupo_892912" data-name="Grupo 892912">
          <path id="Trazado_612431" data-name="Trazado 612431" d="M132.246,53.393a1.5,1.5,0,1,1-1.5-1.5A1.5,1.5,0,0,1,132.246,53.393Z" transform="translate(-129.214 -51.865)" fill="#263238"/>
          <path id="Trazado_612432" data-name="Trazado 612432" d="M130.739,54.917a1.527,1.527,0,1,1,1.527-1.527A1.528,1.528,0,0,1,130.739,54.917Zm0-3.008a1.481,1.481,0,1,0,1.482,1.482A1.483,1.483,0,0,0,130.739,51.909Z" transform="translate(-129.212 -51.863)" fill="#fff"/>
        </g>
        <g id="Grupo_892913" data-name="Grupo 892913" transform="translate(0 3.835)">
          <circle id="Elipse_8178" data-name="Elipse 8178" cx="1.504" cy="1.504" r="1.504" transform="translate(0.023 0.023)" fill="#263238"/>
          <path id="Trazado_612433" data-name="Trazado 612433" d="M130.739,59.1a1.527,1.527,0,1,1,1.527-1.527A1.529,1.529,0,0,1,130.739,59.1Zm0-3.009a1.482,1.482,0,1,0,1.482,1.482A1.483,1.483,0,0,0,130.739,56.094Z" transform="translate(-129.212 -56.048)" fill="#fff"/>
        </g>
        <g id="Grupo_892914" data-name="Grupo 892914" transform="translate(0 7.67)">
          <path id="Trazado_612434" data-name="Trazado 612434" d="M132.246,61.763a1.5,1.5,0,1,1-1.5-1.505A1.5,1.5,0,0,1,132.246,61.763Z" transform="translate(-129.214 -60.236)" fill="#263238"/>
          <path id="Trazado_612435" data-name="Trazado 612435" d="M130.739,63.288a1.527,1.527,0,1,1,1.527-1.527A1.528,1.528,0,0,1,130.739,63.288Zm0-3.008a1.481,1.481,0,1,0,1.482,1.481A1.483,1.483,0,0,0,130.739,60.28Z" transform="translate(-129.212 -60.234)" fill="#fff"/>
        </g>
      </g>
      <g id="Grupo_892916" data-name="Grupo 892916" transform="translate(10.02 37.117)">
        <circle id="Elipse_8179" data-name="Elipse 8179" cx="4.297" cy="4.297" r="4.297" transform="translate(0.023 0.022)" fill="#1565c0"/>
        <path id="Trazado_612436" data-name="Trazado 612436" d="M86.809,93.386a4.32,4.32,0,1,1,4.319-4.32A4.326,4.326,0,0,1,86.809,93.386Zm0-8.6a4.275,4.275,0,1,0,4.274,4.275A4.28,4.28,0,0,0,86.809,84.791Z" transform="translate(-82.488 -84.746)" fill="#fff"/>
      </g>
      <g id="Grupo_892917" data-name="Grupo 892917" transform="translate(21.005 37.117)">
        <circle id="Elipse_8180" data-name="Elipse 8180" cx="4.298" cy="4.298" r="4.298" transform="translate(0.023 0.022)" fill="#455a64"/>
        <path id="Trazado_612437" data-name="Trazado 612437" d="M98.8,93.386a4.32,4.32,0,1,1,4.32-4.32A4.326,4.326,0,0,1,98.8,93.386Zm0-8.6a4.275,4.275,0,1,0,4.275,4.275A4.28,4.28,0,0,0,98.8,84.791Z" transform="translate(-94.477 -84.746)" fill="#fff"/>
      </g>
    </g>
  </g>
</svg>
