<svg xmlns="http://www.w3.org/2000/svg" width="192.219" height="223.539" viewBox="0 0 192.219 223.539">
  <g id="Grupo_986584" data-name="Grupo 986584" transform="translate(3424.344 10551.016)">
    <path id="Trazado_659718" data-name="Trazado 659718" d="M8.141,11.336H5.07v3.188H3.727V11.336H.656V10.148h3.07V6.984H5.07v3.164h3.07Zm7.391.047H10.859V10.1h4.672Zm8.8,0H19.656V10.1h4.672Zm8.8,0H28.453V10.1h4.672Zm8.8,0H37.25V10.1h4.672Zm8.8,0H46.047V10.1h4.672Zm8.8,0H54.844V10.1h4.672Zm8.8,0H63.641V10.1h4.672Zm8.8,0H72.438V10.1h4.672Zm8.8,0H81.234V10.1h4.672Zm8.8,0H90.031V10.1H94.7Zm8.8,0H98.828V10.1H103.5Zm8.8,0h-4.672V10.1H112.3Zm8.8,0h-4.672V10.1h4.672Zm8.8,0h-4.672V10.1h4.672Zm8.8,0h-4.672V10.1h4.672Zm8.8,0h-4.672V10.1h4.672Zm8.8,0h-4.672V10.1h4.672Zm8.8,0h-4.672V10.1h4.672Zm8.8,0H169.2V10.1h4.672Zm8.8,0H178V10.1h4.672Zm10.2-.047H189.8v3.188h-1.344V11.336h-3.07V10.148h3.07V6.984H189.8v3.164h3.07ZM5.039,42.2H3.758v-16H5.039ZM25.82,33.781a8.45,8.45,0,0,1-.113,1.406,5.4,5.4,0,0,1-.363,1.25,4.218,4.218,0,0,1-.648,1.051,3.681,3.681,0,0,1-.977.809,4.966,4.966,0,0,1-1.344.52A7.5,7.5,0,0,1,20.633,39H18.445V28.789h2.633a4.718,4.718,0,0,1,3.566,1.23A5.27,5.27,0,0,1,25.82,33.781Zm-1.461.1a7.122,7.122,0,0,0-.2-1.836,2.924,2.924,0,0,0-.617-1.211,2.369,2.369,0,0,0-1.039-.668,4.681,4.681,0,0,0-1.469-.207h-1.2V37.8h1.039Q24.359,37.8,24.359,33.883ZM32.68,39l-.031-1.055a4.252,4.252,0,0,1-1.3.914,3.5,3.5,0,0,1-1.387.281,3.4,3.4,0,0,1-1.148-.172,2.152,2.152,0,0,1-.785-.473,1.832,1.832,0,0,1-.453-.707,2.616,2.616,0,0,1-.145-.883,2.191,2.191,0,0,1,.879-1.848,4.251,4.251,0,0,1,2.6-.668h1.625V33.7a1.455,1.455,0,0,0-.445-1.113,1.927,1.927,0,0,0-1.359-.418,5.812,5.812,0,0,0-1.309.148,9.2,9.2,0,0,0-1.332.422V31.516q.258-.094.574-.184t.668-.16q.352-.07.734-.113a6.928,6.928,0,0,1,.773-.043,4.851,4.851,0,0,1,1.281.156,2.6,2.6,0,0,1,.965.477,2.1,2.1,0,0,1,.605.8,2.84,2.84,0,0,1,.211,1.141V39Zm-.148-3.57H30.8a3.311,3.311,0,0,0-.875.1,1.661,1.661,0,0,0-.6.289,1.16,1.16,0,0,0-.348.449,1.471,1.471,0,0,0-.113.59,1.339,1.339,0,0,0,.07.434.964.964,0,0,0,.227.367,1.094,1.094,0,0,0,.406.254,1.743,1.743,0,0,0,.609.094,2.576,2.576,0,0,0,1.074-.285,5.249,5.249,0,0,0,1.277-.9Zm10.227,3.461a6.621,6.621,0,0,1-.953.168,9.738,9.738,0,0,1-1,.051,3.162,3.162,0,0,1-2.2-.668,2.655,2.655,0,0,1-.727-2.051V32.3h-2.2V31.156h2.2V29l1.359-.352v2.508h3.523V32.3H39.234v3.984a1.643,1.643,0,0,0,.449,1.262,1.879,1.879,0,0,0,1.324.418,6.322,6.322,0,0,0,.82-.059,7.8,7.8,0,0,0,.93-.184ZM50.273,39l-.031-1.055a4.252,4.252,0,0,1-1.3.914,3.5,3.5,0,0,1-1.387.281,3.4,3.4,0,0,1-1.148-.172,2.152,2.152,0,0,1-.785-.473,1.832,1.832,0,0,1-.453-.707,2.616,2.616,0,0,1-.145-.883,2.191,2.191,0,0,1,.879-1.848,4.251,4.251,0,0,1,2.6-.668h1.625V33.7a1.455,1.455,0,0,0-.445-1.113,1.927,1.927,0,0,0-1.359-.418,5.812,5.812,0,0,0-1.309.148,9.2,9.2,0,0,0-1.332.422V31.516q.258-.094.574-.184t.668-.16q.352-.07.734-.113a6.928,6.928,0,0,1,.773-.043,4.851,4.851,0,0,1,1.281.156,2.6,2.6,0,0,1,.965.477,2.1,2.1,0,0,1,.605.8,2.84,2.84,0,0,1,.211,1.141V39Zm-.148-3.57H48.4a3.311,3.311,0,0,0-.875.1,1.661,1.661,0,0,0-.6.289,1.16,1.16,0,0,0-.348.449,1.471,1.471,0,0,0-.113.59,1.339,1.339,0,0,0,.07.434.964.964,0,0,0,.227.367,1.094,1.094,0,0,0,.406.254,1.743,1.743,0,0,0,.609.094,2.576,2.576,0,0,0,1.074-.285,5.249,5.249,0,0,0,1.277-.9Zm10.609-.492a5.264,5.264,0,0,1-.27,1.746,3.68,3.68,0,0,1-.766,1.3,3.292,3.292,0,0,1-1.207.82,4.27,4.27,0,0,1-1.6.285,7.9,7.9,0,0,1-1.422-.133,7.29,7.29,0,0,1-1.437-.422V27.961h1.359V31l-.062,1.453a3.528,3.528,0,0,1,1.254-1.113,3.24,3.24,0,0,1,1.434-.324,2.4,2.4,0,0,1,1.18.281,2.448,2.448,0,0,1,.852.793,3.751,3.751,0,0,1,.516,1.234A6.984,6.984,0,0,1,60.734,34.938ZM59.344,35a6.617,6.617,0,0,0-.09-1.133,2.956,2.956,0,0,0-.285-.883,1.567,1.567,0,0,0-.5-.574,1.262,1.262,0,0,0-.727-.207,1.767,1.767,0,0,0-.523.082,2.123,2.123,0,0,0-.551.273,4.1,4.1,0,0,0-.6.508,8,8,0,0,0-.676.785v3.8a5.3,5.3,0,0,0,.813.246,3.724,3.724,0,0,0,.789.09,2.7,2.7,0,0,0,.895-.148,1.847,1.847,0,0,0,.75-.5,2.482,2.482,0,0,0,.516-.922A4.561,4.561,0,0,0,59.344,35Zm8.523,4-.031-1.055a4.252,4.252,0,0,1-1.3.914,3.5,3.5,0,0,1-1.387.281A3.4,3.4,0,0,1,64,38.969a2.152,2.152,0,0,1-.785-.473,1.832,1.832,0,0,1-.453-.707,2.616,2.616,0,0,1-.145-.883,2.191,2.191,0,0,1,.879-1.848,4.251,4.251,0,0,1,2.6-.668h1.625V33.7a1.455,1.455,0,0,0-.445-1.113,1.927,1.927,0,0,0-1.359-.418,5.812,5.812,0,0,0-1.309.148,9.2,9.2,0,0,0-1.332.422V31.516q.258-.094.574-.184t.668-.16q.352-.07.734-.113a6.929,6.929,0,0,1,.773-.043,4.851,4.851,0,0,1,1.281.156,2.6,2.6,0,0,1,.965.477,2.1,2.1,0,0,1,.605.8,2.84,2.84,0,0,1,.211,1.141V39Zm-.148-3.57H65.992a3.311,3.311,0,0,0-.875.1,1.661,1.661,0,0,0-.6.289,1.16,1.16,0,0,0-.348.449,1.471,1.471,0,0,0-.113.59,1.339,1.339,0,0,0,.07.434.964.964,0,0,0,.227.367,1.094,1.094,0,0,0,.406.254,1.743,1.743,0,0,0,.609.094,2.576,2.576,0,0,0,1.074-.285,5.248,5.248,0,0,0,1.277-.9Zm10.117,1.43a1.867,1.867,0,0,1-.141.742,1.947,1.947,0,0,1-.383.582,2.382,2.382,0,0,1-.562.434,3.739,3.739,0,0,1-.684.3,4.5,4.5,0,0,1-.746.172,5.3,5.3,0,0,1-.75.055,14.057,14.057,0,0,1-1.465-.07,9.882,9.882,0,0,1-1.309-.227v-1.25a10.89,10.89,0,0,0,1.367.3,9.135,9.135,0,0,0,1.352.1,3.033,3.033,0,0,0,1.445-.266.831.831,0,0,0,.469-.758.928.928,0,0,0-.074-.379.861.861,0,0,0-.27-.32,2.576,2.576,0,0,0-.605-.316q-.41-.164-1.121-.375a7.958,7.958,0,0,1-.98-.355,3.288,3.288,0,0,1-.777-.473,2.03,2.03,0,0,1-.516-.641,1.884,1.884,0,0,1-.187-.867,1.993,1.993,0,0,1,.152-.719,1.953,1.953,0,0,1,.52-.727,2.891,2.891,0,0,1,.992-.559,4.706,4.706,0,0,1,1.563-.223q.461,0,1.023.051a10.569,10.569,0,0,1,1.172.176v1.211a11.2,11.2,0,0,0-1.215-.23,7.915,7.915,0,0,0-1-.074,3.975,3.975,0,0,0-.855.078,1.775,1.775,0,0,0-.562.215.839.839,0,0,0-.309.32.855.855,0,0,0-.094.395.877.877,0,0,0,.082.383.916.916,0,0,0,.3.332,3,3,0,0,0,.621.32q.4.16,1.039.348a8.312,8.312,0,0,1,1.172.426,3.024,3.024,0,0,1,.773.5,1.6,1.6,0,0,1,.426.617A2.214,2.214,0,0,1,77.836,36.859Zm9.211-2.2q0,.289-.008.484t-.023.367H81.508a2.441,2.441,0,0,0,.672,1.848,2.69,2.69,0,0,0,1.938.645q.344,0,.688-.027t.664-.074q.32-.047.613-.105t.543-.129v1.117a9.49,9.49,0,0,1-1.254.254,10.47,10.47,0,0,1-1.449.1,4.928,4.928,0,0,1-1.734-.273A2.969,2.969,0,0,1,81,38.074a3.265,3.265,0,0,1-.687-1.273,6.026,6.026,0,0,1-.223-1.707,5.069,5.069,0,0,1,.238-1.566,3.932,3.932,0,0,1,.7-1.3,3.3,3.3,0,0,1,2.629-1.215,3.827,3.827,0,0,1,1.453.258,2.918,2.918,0,0,1,1.066.73,3.114,3.114,0,0,1,.656,1.148A4.814,4.814,0,0,1,87.047,34.664Zm-1.414-.2a2.963,2.963,0,0,0-.1-.957,2.015,2.015,0,0,0-.387-.746,1.8,1.8,0,0,0-.652-.488,2.189,2.189,0,0,0-.906-.176,1.893,1.893,0,0,0-.812.172,1.853,1.853,0,0,0-.633.484,2.5,2.5,0,0,0-.43.75,3.458,3.458,0,0,0-.2.961ZM189.773,42.2h-1.281v-16h1.281ZM8.141,59.336H5.07v3.188H3.727V59.336H.656V58.148h3.07V54.984H5.07v3.164h3.07Zm7.391.047H10.859V58.1h4.672Zm8.8,0H19.656V58.1h4.672Zm8.8,0H28.453V58.1h4.672Zm8.8,0H37.25V58.1h4.672Zm8.8,0H46.047V58.1h4.672Zm8.8,0H54.844V58.1h4.672Zm8.8,0H63.641V58.1h4.672Zm8.8,0H72.438V58.1h4.672Zm8.8,0H81.234V58.1h4.672Zm8.8,0H90.031V58.1H94.7Zm8.8,0H98.828V58.1H103.5Zm8.8,0h-4.672V58.1H112.3Zm8.8,0h-4.672V58.1h4.672Zm8.8,0h-4.672V58.1h4.672Zm8.8,0h-4.672V58.1h4.672Zm8.8,0h-4.672V58.1h4.672Zm8.8,0h-4.672V58.1h4.672Zm8.8,0h-4.672V58.1h4.672Zm8.8,0H169.2V58.1h4.672Zm8.8,0H178V58.1h4.672Zm10.2-.047H189.8v3.188h-1.344V59.336h-3.07V58.148h3.07V54.984H189.8v3.164h3.07ZM5.039,90.2H3.758v-16H5.039ZM25.8,77.227A9.1,9.1,0,0,0,23.961,77q-1.836,0-1.836,1.922V80.3h3.438V81.43H22.125V87H20.742V81.43H18.219V80.3h2.523V79q0-3.133,3.266-3.133a9.671,9.671,0,0,1,1.8.188ZM32.68,87l-.031-1.055a4.252,4.252,0,0,1-1.3.914,3.5,3.5,0,0,1-1.387.281,3.4,3.4,0,0,1-1.148-.172,2.152,2.152,0,0,1-.785-.473,1.832,1.832,0,0,1-.453-.707,2.616,2.616,0,0,1-.145-.883,2.191,2.191,0,0,1,.879-1.848,4.251,4.251,0,0,1,2.6-.668h1.625V81.7a1.455,1.455,0,0,0-.445-1.113,1.927,1.927,0,0,0-1.359-.418,5.812,5.812,0,0,0-1.309.148,9.2,9.2,0,0,0-1.332.422V79.516q.258-.094.574-.184t.668-.16q.352-.07.734-.113a6.928,6.928,0,0,1,.773-.043,4.851,4.851,0,0,1,1.281.156,2.6,2.6,0,0,1,.965.477,2.1,2.1,0,0,1,.605.8,2.84,2.84,0,0,1,.211,1.141V87Zm-.148-3.57H30.8a3.31,3.31,0,0,0-.875.1,1.661,1.661,0,0,0-.6.289,1.16,1.16,0,0,0-.348.449,1.471,1.471,0,0,0-.113.59,1.339,1.339,0,0,0,.07.434.964.964,0,0,0,.227.367,1.094,1.094,0,0,0,.406.254,1.743,1.743,0,0,0,.609.094,2.576,2.576,0,0,0,1.074-.285,5.248,5.248,0,0,0,1.277-.9Zm4.227-4.273H38l.039,1.445a5.035,5.035,0,0,1,1.371-1.211,2.784,2.784,0,0,1,1.363-.375,2.222,2.222,0,0,1,1.848.789,3.528,3.528,0,0,1,.582,2.344H41.828a2.567,2.567,0,0,0-.3-1.5,1.084,1.084,0,0,0-.949-.465,1.65,1.65,0,0,0-.551.1,2.225,2.225,0,0,0-.57.313,5.109,5.109,0,0,0-.621.551,10.169,10.169,0,0,0-.7.813V87H36.758ZM50.828,87V81.367a5.377,5.377,0,0,0-.027-.6,1.371,1.371,0,0,0-.086-.371.4.4,0,0,0-.148-.191.421.421,0,0,0-.223-.055.491.491,0,0,0-.289.094,1.313,1.313,0,0,0-.285.3,4.818,4.818,0,0,0-.336.559q-.184.348-.434.855V87H47.758V81.516q0-.43-.027-.7a1.623,1.623,0,0,0-.086-.414.389.389,0,0,0-.152-.2.442.442,0,0,0-.227-.055.493.493,0,0,0-.266.078,1.13,1.13,0,0,0-.277.281,4.4,4.4,0,0,0-.34.555q-.187.352-.445.9V87h-1.25V79.156h1.039l.063,1.492a7.135,7.135,0,0,1,.395-.758,2.44,2.44,0,0,1,.395-.5,1.346,1.346,0,0,1,.434-.281,1.4,1.4,0,0,1,.512-.09,1.153,1.153,0,0,1,.961.414,2.051,2.051,0,0,1,.328,1.281q.188-.406.367-.723a2.64,2.64,0,0,1,.387-.531,1.484,1.484,0,0,1,.457-.328,1.388,1.388,0,0,1,.578-.113q1.477,0,1.477,2.273V87Zm8.242,0-.031-1.055a4.252,4.252,0,0,1-1.3.914,3.5,3.5,0,0,1-1.387.281,3.4,3.4,0,0,1-1.148-.172,2.152,2.152,0,0,1-.785-.473,1.832,1.832,0,0,1-.453-.707,2.616,2.616,0,0,1-.145-.883,2.191,2.191,0,0,1,.879-1.848,4.251,4.251,0,0,1,2.6-.668h1.625V81.7a1.455,1.455,0,0,0-.445-1.113,1.927,1.927,0,0,0-1.359-.418,5.812,5.812,0,0,0-1.309.148,9.2,9.2,0,0,0-1.332.422V79.516q.258-.094.574-.184t.668-.16q.352-.07.734-.113a6.928,6.928,0,0,1,.773-.043,4.851,4.851,0,0,1,1.281.156,2.6,2.6,0,0,1,.965.477,2.1,2.1,0,0,1,.605.8,2.84,2.84,0,0,1,.211,1.141V87Zm-.148-3.57H57.2a3.31,3.31,0,0,0-.875.1,1.661,1.661,0,0,0-.6.289,1.16,1.16,0,0,0-.348.449,1.471,1.471,0,0,0-.113.59,1.339,1.339,0,0,0,.07.434.964.964,0,0,0,.227.367,1.094,1.094,0,0,0,.406.254,1.743,1.743,0,0,0,.609.094,2.576,2.576,0,0,0,1.074-.285,5.248,5.248,0,0,0,1.277-.9Zm10,3.281a5.88,5.88,0,0,1-1.09.3,6.681,6.681,0,0,1-1.152.1A3.865,3.865,0,0,1,63.816,86.1a4,4,0,0,1-1-2.945,4.7,4.7,0,0,1,.289-1.687,3.758,3.758,0,0,1,.813-1.3,3.591,3.591,0,0,1,1.25-.832,4.245,4.245,0,0,1,1.6-.293,7.15,7.15,0,0,1,1.141.086,4.723,4.723,0,0,1,1.016.281v1.3a4.309,4.309,0,0,0-1.035-.387A4.855,4.855,0,0,0,66.8,80.2a2.482,2.482,0,0,0-.988.2,2.41,2.41,0,0,0-.816.574,2.72,2.72,0,0,0-.555.914,3.437,3.437,0,0,0-.2,1.219,2.933,2.933,0,0,0,.691,2.129,2.559,2.559,0,0,0,1.918.707,4.576,4.576,0,0,0,1.074-.125,4.454,4.454,0,0,0,1-.375Zm5.375-6.43h-2.32V79.156h3.7v6.711h2.336V87H71.719V85.867H74.3Zm.477-4.414a1.078,1.078,0,0,1,.422.082,1.02,1.02,0,0,1,.34.23,1.109,1.109,0,0,1,.227.34,1.1,1.1,0,0,1,0,.832,1.1,1.1,0,0,1-.227.344,1.02,1.02,0,0,1-.34.23,1.126,1.126,0,0,1-.844,0,1.02,1.02,0,0,1-.34-.23,1.1,1.1,0,0,1-.227-.344,1.1,1.1,0,0,1,0-.832,1.109,1.109,0,0,1,.227-.34,1.02,1.02,0,0,1,.34-.23A1.078,1.078,0,0,1,74.773,75.867ZM85.461,87l-.031-1.055a4.252,4.252,0,0,1-1.3.914,3.5,3.5,0,0,1-1.387.281,3.4,3.4,0,0,1-1.148-.172,2.152,2.152,0,0,1-.785-.473,1.832,1.832,0,0,1-.453-.707,2.616,2.616,0,0,1-.145-.883,2.191,2.191,0,0,1,.879-1.848,4.251,4.251,0,0,1,2.6-.668h1.625V81.7a1.455,1.455,0,0,0-.445-1.113,1.927,1.927,0,0,0-1.359-.418,5.812,5.812,0,0,0-1.309.148,9.2,9.2,0,0,0-1.332.422V79.516q.258-.094.574-.184t.668-.16q.352-.07.734-.113a6.928,6.928,0,0,1,.773-.043,4.851,4.851,0,0,1,1.281.156,2.6,2.6,0,0,1,.965.477,2.1,2.1,0,0,1,.605.8,2.84,2.84,0,0,1,.211,1.141V87Zm-.148-3.57H83.586a3.31,3.31,0,0,0-.875.1,1.661,1.661,0,0,0-.6.289,1.16,1.16,0,0,0-.348.449,1.471,1.471,0,0,0-.113.59,1.339,1.339,0,0,0,.07.434.964.964,0,0,0,.227.367,1.094,1.094,0,0,0,.406.254,1.743,1.743,0,0,0,.609.094,2.576,2.576,0,0,0,1.074-.285,5.248,5.248,0,0,0,1.277-.9ZM189.773,90.2h-1.281v-16h1.281ZM5.039,114.2H3.758v-16H5.039Zm16.477-9.922H19.2v-1.125h3.7v6.711h2.336V111H18.938v-1.133h2.578Zm.477-4.414a1.078,1.078,0,0,1,.422.082,1.02,1.02,0,0,1,.34.23,1.109,1.109,0,0,1,.227.34,1.1,1.1,0,0,1,0,.832,1.1,1.1,0,0,1-.227.344,1.02,1.02,0,0,1-.34.23,1.126,1.126,0,0,1-.844,0,1.02,1.02,0,0,1-.34-.23,1.1,1.1,0,0,1-.227-.344,1.1,1.1,0,0,1,0-.832,1.109,1.109,0,0,1,.227-.34,1.02,1.02,0,0,1,.34-.23A1.078,1.078,0,0,1,21.992,99.867Zm5.648,3.289h1.211l.055,1.266a5.663,5.663,0,0,1,.664-.676,3.641,3.641,0,0,1,.629-.434,2.355,2.355,0,0,1,.629-.23,3.263,3.263,0,0,1,.664-.066,2.3,2.3,0,0,1,1.832.715,3.207,3.207,0,0,1,.621,2.152V111H32.586v-5.008a2.21,2.21,0,0,0-.344-1.363,1.217,1.217,0,0,0-1.023-.441,1.633,1.633,0,0,0-.488.074,1.78,1.78,0,0,0-.5.258,4.1,4.1,0,0,0-.559.5q-.3.313-.676.781V111H27.641Zm15.758-1.93A9.1,9.1,0,0,0,41.555,101q-1.836,0-1.836,1.922V104.3h3.438v1.133H39.719V111H38.336v-5.57H35.813V104.3h2.523V103q0-3.133,3.266-3.133a9.671,9.671,0,0,1,1.8.188Zm8.664,5.789a5.2,5.2,0,0,1-.258,1.676,3.728,3.728,0,0,1-.742,1.3,3.33,3.33,0,0,1-1.18.844,3.939,3.939,0,0,1-1.578.3,4.117,4.117,0,0,1-1.512-.262,2.991,2.991,0,0,1-1.133-.77,3.406,3.406,0,0,1-.711-1.258,5.536,5.536,0,0,1-.246-1.727,5.129,5.129,0,0,1,.258-1.668,3.739,3.739,0,0,1,.742-1.3,3.33,3.33,0,0,1,1.18-.844,3.939,3.939,0,0,1,1.578-.3,4.117,4.117,0,0,1,1.512.262,3.012,3.012,0,0,1,1.133.766,3.368,3.368,0,0,1,.711,1.254A5.508,5.508,0,0,1,52.063,107.016Zm-1.391.063a4.506,4.506,0,0,0-.16-1.27,2.557,2.557,0,0,0-.457-.906,1.885,1.885,0,0,0-.723-.547,2.373,2.373,0,0,0-.949-.184,2.136,2.136,0,0,0-1.043.238,2.065,2.065,0,0,0-.711.637,2.744,2.744,0,0,0-.406.926,4.64,4.64,0,0,0-.129,1.105,4.548,4.548,0,0,0,.16,1.273,2.554,2.554,0,0,0,.457.91,1.892,1.892,0,0,0,.719.547,2.366,2.366,0,0,0,.953.184,2.136,2.136,0,0,0,1.043-.238,2.065,2.065,0,0,0,.711-.637,2.744,2.744,0,0,0,.406-.926A4.674,4.674,0,0,0,50.672,107.078Zm3.68-3.922h1.242l.039,1.445A5.035,5.035,0,0,1,57,103.391a2.784,2.784,0,0,1,1.363-.375,2.222,2.222,0,0,1,1.848.789,3.528,3.528,0,0,1,.582,2.344H59.422a2.567,2.567,0,0,0-.3-1.5,1.084,1.084,0,0,0-.949-.465,1.65,1.65,0,0,0-.551.1,2.225,2.225,0,0,0-.57.313,5.109,5.109,0,0,0-.621.551,10.169,10.169,0,0,0-.7.813V111H54.352ZM68.422,111v-5.633a5.377,5.377,0,0,0-.027-.6,1.371,1.371,0,0,0-.086-.371.4.4,0,0,0-.148-.191.421.421,0,0,0-.223-.055.491.491,0,0,0-.289.094,1.313,1.313,0,0,0-.285.3,4.818,4.818,0,0,0-.336.559q-.184.348-.434.855V111H65.352v-5.484q0-.43-.027-.7a1.623,1.623,0,0,0-.086-.414.389.389,0,0,0-.152-.2.442.442,0,0,0-.227-.055.493.493,0,0,0-.266.078,1.13,1.13,0,0,0-.277.281,4.4,4.4,0,0,0-.34.555q-.187.352-.445.9V111h-1.25v-7.844H63.32l.063,1.492a7.135,7.135,0,0,1,.395-.758,2.441,2.441,0,0,1,.395-.5,1.346,1.346,0,0,1,.434-.281,1.4,1.4,0,0,1,.512-.09,1.153,1.153,0,0,1,.961.414,2.051,2.051,0,0,1,.328,1.281q.188-.406.367-.723a2.64,2.64,0,0,1,.387-.531,1.484,1.484,0,0,1,.457-.328,1.388,1.388,0,0,1,.578-.113q1.477,0,1.477,2.273V111Zm8.242,0-.031-1.055a4.252,4.252,0,0,1-1.3.914,3.5,3.5,0,0,1-1.387.281,3.4,3.4,0,0,1-1.148-.172,2.152,2.152,0,0,1-.785-.473,1.832,1.832,0,0,1-.453-.707,2.616,2.616,0,0,1-.145-.883,2.191,2.191,0,0,1,.879-1.848,4.251,4.251,0,0,1,2.6-.668h1.625V105.7a1.455,1.455,0,0,0-.445-1.113,1.927,1.927,0,0,0-1.359-.418,5.812,5.812,0,0,0-1.309.148,9.2,9.2,0,0,0-1.332.422v-1.227q.258-.094.574-.184t.668-.16q.352-.07.734-.113a6.928,6.928,0,0,1,.773-.043,4.851,4.851,0,0,1,1.281.156,2.6,2.6,0,0,1,.965.477,2.1,2.1,0,0,1,.605.8,2.84,2.84,0,0,1,.211,1.141V111Zm-.148-3.57H74.789a3.31,3.31,0,0,0-.875.1,1.661,1.661,0,0,0-.6.289,1.16,1.16,0,0,0-.348.449,1.471,1.471,0,0,0-.113.59,1.339,1.339,0,0,0,.07.434.964.964,0,0,0,.227.367,1.094,1.094,0,0,0,.406.254,1.743,1.743,0,0,0,.609.094,2.576,2.576,0,0,0,1.074-.285,5.248,5.248,0,0,0,1.277-.9Zm10.227,3.461a6.621,6.621,0,0,1-.953.168,9.739,9.739,0,0,1-1,.051,3.162,3.162,0,0,1-2.2-.668,2.655,2.655,0,0,1-.727-2.051V104.3h-2.2v-1.141h2.2V101l1.359-.352v2.508h3.523V104.3H83.219v3.984a1.643,1.643,0,0,0,.449,1.262,1.879,1.879,0,0,0,1.324.418,6.322,6.322,0,0,0,.82-.059,7.8,7.8,0,0,0,.93-.184Zm5.148-6.609H89.57v-1.125h3.7v6.711H95.6V111H89.313v-1.133h2.578Zm.477-4.414a1.078,1.078,0,0,1,.422.082,1.02,1.02,0,0,1,.34.23,1.109,1.109,0,0,1,.227.34,1.1,1.1,0,0,1,0,.832,1.1,1.1,0,0,1-.227.344,1.02,1.02,0,0,1-.34.23,1.126,1.126,0,0,1-.844,0,1.02,1.02,0,0,1-.34-.23,1.1,1.1,0,0,1-.227-.344,1.1,1.1,0,0,1,0-.832,1.109,1.109,0,0,1,.227-.34,1.02,1.02,0,0,1,.34-.23A1.078,1.078,0,0,1,92.367,99.867Zm12.477,7.148a5.2,5.2,0,0,1-.258,1.676,3.728,3.728,0,0,1-.742,1.3,3.33,3.33,0,0,1-1.18.844,3.939,3.939,0,0,1-1.578.3,4.117,4.117,0,0,1-1.512-.262,2.991,2.991,0,0,1-1.133-.77,3.406,3.406,0,0,1-.711-1.258,5.536,5.536,0,0,1-.246-1.727,5.129,5.129,0,0,1,.258-1.668,3.739,3.739,0,0,1,.742-1.3,3.33,3.33,0,0,1,1.18-.844,3.939,3.939,0,0,1,1.578-.3,4.117,4.117,0,0,1,1.512.262,3.012,3.012,0,0,1,1.133.766,3.368,3.368,0,0,1,.711,1.254A5.508,5.508,0,0,1,104.844,107.016Zm-1.391.063a4.506,4.506,0,0,0-.16-1.27,2.557,2.557,0,0,0-.457-.906,1.885,1.885,0,0,0-.723-.547,2.373,2.373,0,0,0-.949-.184,2.136,2.136,0,0,0-1.043.238,2.065,2.065,0,0,0-.711.637,2.744,2.744,0,0,0-.406.926,4.64,4.64,0,0,0-.129,1.105,4.548,4.548,0,0,0,.16,1.273,2.555,2.555,0,0,0,.457.91,1.892,1.892,0,0,0,.719.547,2.366,2.366,0,0,0,.953.184,2.136,2.136,0,0,0,1.043-.238,2.065,2.065,0,0,0,.711-.637,2.744,2.744,0,0,0,.406-.926A4.674,4.674,0,0,0,103.453,107.078Zm3.359-3.922h1.211l.055,1.266a5.663,5.663,0,0,1,.664-.676,3.641,3.641,0,0,1,.629-.434,2.355,2.355,0,0,1,.629-.23,3.263,3.263,0,0,1,.664-.066,2.3,2.3,0,0,1,1.832.715,3.207,3.207,0,0,1,.621,2.152V111h-1.359v-5.008a2.21,2.21,0,0,0-.344-1.363,1.217,1.217,0,0,0-1.023-.441,1.633,1.633,0,0,0-.488.074,1.78,1.78,0,0,0-.5.258,4.1,4.1,0,0,0-.559.5q-.3.313-.676.781V111h-1.359ZM123.156,114.2h-8.8v-1.125h8.8Zm7.461-5.344a1.867,1.867,0,0,1-.141.742,1.947,1.947,0,0,1-.383.582,2.381,2.381,0,0,1-.562.434,3.74,3.74,0,0,1-.684.3,4.5,4.5,0,0,1-.746.172,5.3,5.3,0,0,1-.75.055,14.057,14.057,0,0,1-1.465-.07,9.882,9.882,0,0,1-1.309-.227v-1.25a10.89,10.89,0,0,0,1.367.3,9.134,9.134,0,0,0,1.352.1,3.032,3.032,0,0,0,1.445-.266.831.831,0,0,0,.469-.758.928.928,0,0,0-.074-.379.861.861,0,0,0-.27-.32,2.576,2.576,0,0,0-.605-.316q-.41-.164-1.121-.375a7.957,7.957,0,0,1-.98-.355,3.288,3.288,0,0,1-.777-.473,2.03,2.03,0,0,1-.516-.641,1.884,1.884,0,0,1-.187-.867,1.993,1.993,0,0,1,.152-.719,1.953,1.953,0,0,1,.52-.727,2.891,2.891,0,0,1,.992-.559,4.706,4.706,0,0,1,1.563-.223q.461,0,1.023.051a10.568,10.568,0,0,1,1.172.176v1.211a11.2,11.2,0,0,0-1.215-.23,7.916,7.916,0,0,0-1-.074,3.975,3.975,0,0,0-.855.078,1.775,1.775,0,0,0-.562.215.839.839,0,0,0-.309.32.855.855,0,0,0-.094.395.877.877,0,0,0,.082.383.916.916,0,0,0,.3.332,3,3,0,0,0,.621.32q.4.16,1.039.348a8.311,8.311,0,0,1,1.172.426,3.025,3.025,0,0,1,.773.5,1.6,1.6,0,0,1,.426.617A2.214,2.214,0,0,1,130.617,108.859Zm8.68,1.852a5.88,5.88,0,0,1-1.09.3,6.681,6.681,0,0,1-1.152.1,3.865,3.865,0,0,1-2.863-1.008,4,4,0,0,1-1-2.945,4.7,4.7,0,0,1,.289-1.687,3.758,3.758,0,0,1,.813-1.3,3.591,3.591,0,0,1,1.25-.832,4.245,4.245,0,0,1,1.6-.293,7.15,7.15,0,0,1,1.141.086,4.723,4.723,0,0,1,1.016.281v1.3a4.31,4.31,0,0,0-1.035-.387,4.855,4.855,0,0,0-1.09-.121,2.482,2.482,0,0,0-.988.2,2.41,2.41,0,0,0-.816.574,2.72,2.72,0,0,0-.555.914,3.437,3.437,0,0,0-.2,1.219,2.933,2.933,0,0,0,.691,2.129,2.559,2.559,0,0,0,1.918.707,4.576,4.576,0,0,0,1.074-.125,4.454,4.454,0,0,0,1-.375ZM148.3,111h-1.359v-5.008a2.235,2.235,0,0,0-.34-1.355,1.147,1.147,0,0,0-.973-.449,1.712,1.712,0,0,0-.512.074,1.779,1.779,0,0,0-.5.258,4.263,4.263,0,0,0-.562.5q-.3.313-.7.781V111H142V99.961h1.359v3.2l-.047,1.234a5.317,5.317,0,0,1,.629-.645,3.5,3.5,0,0,1,.617-.426,2.461,2.461,0,0,1,.629-.234,3.089,3.089,0,0,1,.664-.07,2.308,2.308,0,0,1,1.813.715,3.14,3.14,0,0,1,.641,2.152Zm9.117-4.336q0,.289-.008.484t-.023.367h-5.508a2.441,2.441,0,0,0,.672,1.848,2.69,2.69,0,0,0,1.938.645q.344,0,.688-.027t.664-.074q.32-.047.613-.105t.543-.129v1.117a9.49,9.49,0,0,1-1.254.254,10.471,10.471,0,0,1-1.449.1,4.928,4.928,0,0,1-1.734-.273,2.968,2.968,0,0,1-1.191-.793,3.265,3.265,0,0,1-.687-1.273,6.026,6.026,0,0,1-.223-1.707,5.069,5.069,0,0,1,.238-1.566,3.932,3.932,0,0,1,.7-1.3,3.3,3.3,0,0,1,2.629-1.215,3.827,3.827,0,0,1,1.453.258,2.918,2.918,0,0,1,1.066.73,3.114,3.114,0,0,1,.656,1.148A4.815,4.815,0,0,1,157.422,106.664Zm-1.414-.2a2.964,2.964,0,0,0-.1-.957,2.014,2.014,0,0,0-.387-.746,1.8,1.8,0,0,0-.652-.488,2.189,2.189,0,0,0-.906-.176,1.893,1.893,0,0,0-.812.172,1.853,1.853,0,0,0-.633.484,2.5,2.5,0,0,0-.43.75,3.458,3.458,0,0,0-.2.961Zm9.18,4.531v-5.633a5.376,5.376,0,0,0-.027-.6,1.371,1.371,0,0,0-.086-.371.4.4,0,0,0-.148-.191.421.421,0,0,0-.223-.055.491.491,0,0,0-.289.094,1.313,1.313,0,0,0-.285.3,4.817,4.817,0,0,0-.336.559q-.184.348-.434.855V111h-1.242v-5.484q0-.43-.027-.7a1.624,1.624,0,0,0-.086-.414.389.389,0,0,0-.152-.2.442.442,0,0,0-.227-.055.493.493,0,0,0-.266.078,1.13,1.13,0,0,0-.277.281,4.4,4.4,0,0,0-.34.555q-.187.352-.445.9V111h-1.25v-7.844h1.039l.063,1.492a7.135,7.135,0,0,1,.395-.758,2.44,2.44,0,0,1,.395-.5,1.346,1.346,0,0,1,.434-.281,1.4,1.4,0,0,1,.512-.09,1.153,1.153,0,0,1,.961.414,2.051,2.051,0,0,1,.328,1.281q.188-.406.367-.723a2.641,2.641,0,0,1,.387-.531,1.484,1.484,0,0,1,.457-.328,1.388,1.388,0,0,1,.578-.113q1.477,0,1.477,2.273V111Zm8.242,0-.031-1.055a4.251,4.251,0,0,1-1.3.914,3.5,3.5,0,0,1-1.387.281,3.4,3.4,0,0,1-1.148-.172,2.152,2.152,0,0,1-.785-.473,1.832,1.832,0,0,1-.453-.707,2.616,2.616,0,0,1-.145-.883,2.191,2.191,0,0,1,.879-1.848,4.251,4.251,0,0,1,2.6-.668h1.625V105.7a1.455,1.455,0,0,0-.445-1.113,1.927,1.927,0,0,0-1.359-.418,5.812,5.812,0,0,0-1.309.148,9.2,9.2,0,0,0-1.332.422v-1.227q.258-.094.574-.184t.668-.16q.352-.07.734-.113a6.928,6.928,0,0,1,.773-.043,4.851,4.851,0,0,1,1.281.156,2.6,2.6,0,0,1,.965.477,2.1,2.1,0,0,1,.605.8,2.84,2.84,0,0,1,.211,1.141V111Zm-.148-3.57h-1.727a3.31,3.31,0,0,0-.875.1,1.661,1.661,0,0,0-.6.289,1.16,1.16,0,0,0-.348.449,1.471,1.471,0,0,0-.113.59,1.339,1.339,0,0,0,.07.434.964.964,0,0,0,.227.367,1.094,1.094,0,0,0,.406.254,1.743,1.743,0,0,0,.609.094,2.576,2.576,0,0,0,1.074-.285,5.248,5.248,0,0,0,1.277-.9Zm16.492,6.773h-1.281v-16h1.281ZM5.039,138.2H3.758v-16H5.039Zm19.4-3.2v-5.633a5.377,5.377,0,0,0-.027-.6,1.371,1.371,0,0,0-.086-.371.4.4,0,0,0-.148-.191.421.421,0,0,0-.223-.055.491.491,0,0,0-.289.094,1.313,1.313,0,0,0-.285.3,4.819,4.819,0,0,0-.336.559q-.184.348-.434.855V135H21.367v-5.484q0-.43-.027-.7a1.623,1.623,0,0,0-.086-.414.389.389,0,0,0-.152-.2.442.442,0,0,0-.227-.055.493.493,0,0,0-.266.078,1.129,1.129,0,0,0-.277.281,4.4,4.4,0,0,0-.34.555q-.187.352-.445.9V135H18.3v-7.844h1.039l.063,1.492a7.134,7.134,0,0,1,.395-.758,2.44,2.44,0,0,1,.395-.5,1.346,1.346,0,0,1,.434-.281,1.4,1.4,0,0,1,.512-.09,1.153,1.153,0,0,1,.961.414,2.051,2.051,0,0,1,.328,1.281q.188-.406.367-.723a2.64,2.64,0,0,1,.387-.531,1.484,1.484,0,0,1,.457-.328,1.388,1.388,0,0,1,.578-.113q1.477,0,1.477,2.273V135Zm10.18-7.844-2.672,7.016a13.756,13.756,0,0,1-.855,1.844,5.467,5.467,0,0,1-.965,1.27,3.4,3.4,0,0,1-1.148.73,3.958,3.958,0,0,1-1.4.234q-.2,0-.367-.008t-.359-.023v-1.234q.172.023.375.043t.43.02a2.174,2.174,0,0,0,.7-.109,1.864,1.864,0,0,0,.613-.355,3.17,3.17,0,0,0,.555-.637,6.269,6.269,0,0,0,.516-.945l-3.133-7.844h1.547l1.984,5.188.4,1.219.453-1.25,1.836-5.156Zm8.031,5.7a1.867,1.867,0,0,1-.141.742,1.947,1.947,0,0,1-.383.582,2.382,2.382,0,0,1-.562.434,3.739,3.739,0,0,1-.684.3,4.5,4.5,0,0,1-.746.172,5.3,5.3,0,0,1-.75.055,14.057,14.057,0,0,1-1.465-.07,9.881,9.881,0,0,1-1.309-.227v-1.25a10.889,10.889,0,0,0,1.367.3,9.135,9.135,0,0,0,1.352.1,3.033,3.033,0,0,0,1.445-.266.831.831,0,0,0,.469-.758.928.928,0,0,0-.074-.379.861.861,0,0,0-.27-.32,2.576,2.576,0,0,0-.605-.316q-.41-.164-1.121-.375a7.958,7.958,0,0,1-.98-.355,3.287,3.287,0,0,1-.777-.473,2.03,2.03,0,0,1-.516-.641,1.884,1.884,0,0,1-.187-.867,1.993,1.993,0,0,1,.152-.719,1.953,1.953,0,0,1,.52-.727,2.891,2.891,0,0,1,.992-.559,4.706,4.706,0,0,1,1.563-.223q.461,0,1.023.051a10.568,10.568,0,0,1,1.172.176v1.211a11.2,11.2,0,0,0-1.215-.23,7.915,7.915,0,0,0-1-.074,3.975,3.975,0,0,0-.855.078,1.775,1.775,0,0,0-.562.215.839.839,0,0,0-.309.32.855.855,0,0,0-.094.395.877.877,0,0,0,.082.383.916.916,0,0,0,.3.332,3,3,0,0,0,.621.32q.4.16,1.039.348a8.312,8.312,0,0,1,1.172.426,3.024,3.024,0,0,1,.773.5,1.6,1.6,0,0,1,.426.617A2.214,2.214,0,0,1,42.648,132.859Zm2.188-1.617a5.653,5.653,0,0,1,.223-1.6,3.789,3.789,0,0,1,.688-1.332,3.27,3.27,0,0,1,1.191-.91,4.1,4.1,0,0,1,1.734-.336,4.987,4.987,0,0,1,.789.063,6.275,6.275,0,0,1,.828.2l1.2-.3V138.2H50.125v-2.961l.07-1.68a3.194,3.194,0,0,1-2.641,1.578,2.429,2.429,0,0,1-1.2-.281,2.4,2.4,0,0,1-.848-.8A3.793,3.793,0,0,1,45,132.828,6.973,6.973,0,0,1,44.836,131.242Zm1.391-.086a6.466,6.466,0,0,0,.1,1.18,2.978,2.978,0,0,0,.3.887,1.518,1.518,0,0,0,.5.559,1.269,1.269,0,0,0,.707.2,1.777,1.777,0,0,0,1.09-.461,6.594,6.594,0,0,0,1.207-1.367v-3.641a3.57,3.57,0,0,0-.707-.242,3.624,3.624,0,0,0-.84-.094,2.1,2.1,0,0,0-1.75.758A3.524,3.524,0,0,0,46.227,131.156ZM56.7,125.078h-2.32v-1.117h3.7v9.906h2.336V135H54.125v-1.133H56.7ZM189.773,138.2h-1.281v-16h1.281ZM5.039,162.2H3.758v-16H5.039Zm20.508-7.266a5.2,5.2,0,0,1-.293,1.828,3.582,3.582,0,0,1-.809,1.3,3.314,3.314,0,0,1-1.219.773,4.392,4.392,0,0,1-1.523.258,7.121,7.121,0,0,1-.746-.039,5.66,5.66,0,0,1-.754-.133V162.2H18.844V151.156h1.211l.086,1.313a3.5,3.5,0,0,1,1.25-1.129,3.232,3.232,0,0,1,1.438-.324,2.4,2.4,0,0,1,1.18.281,2.448,2.448,0,0,1,.852.793,3.751,3.751,0,0,1,.516,1.234A6.983,6.983,0,0,1,25.547,154.938ZM24.156,155a6.617,6.617,0,0,0-.09-1.133,2.956,2.956,0,0,0-.285-.883,1.566,1.566,0,0,0-.5-.574,1.262,1.262,0,0,0-.727-.207,1.767,1.767,0,0,0-.523.082,2.123,2.123,0,0,0-.551.273,4.1,4.1,0,0,0-.6.508,8,8,0,0,0-.676.785v3.8a4.561,4.561,0,0,0,.789.246,3.825,3.825,0,0,0,.813.09,2.131,2.131,0,0,0,1.727-.746A3.434,3.434,0,0,0,24.156,155Zm10.109-.336q0,.289-.008.484t-.023.367H28.727a2.441,2.441,0,0,0,.672,1.848,2.69,2.69,0,0,0,1.938.645q.344,0,.688-.027t.664-.074q.32-.047.613-.105t.543-.129v1.117a9.49,9.49,0,0,1-1.254.254,10.469,10.469,0,0,1-1.449.1,4.928,4.928,0,0,1-1.734-.273,2.969,2.969,0,0,1-1.191-.793,3.265,3.265,0,0,1-.687-1.273,6.026,6.026,0,0,1-.223-1.707,5.069,5.069,0,0,1,.238-1.566,3.932,3.932,0,0,1,.7-1.3,3.3,3.3,0,0,1,2.629-1.215,3.827,3.827,0,0,1,1.453.258,2.918,2.918,0,0,1,1.066.73,3.114,3.114,0,0,1,.656,1.148A4.814,4.814,0,0,1,34.266,154.664Zm-1.414-.2a2.963,2.963,0,0,0-.1-.957,2.014,2.014,0,0,0-.387-.746,1.8,1.8,0,0,0-.652-.488,2.189,2.189,0,0,0-.906-.176,1.893,1.893,0,0,0-.812.172,1.853,1.853,0,0,0-.633.484,2.5,2.5,0,0,0-.43.75,3.458,3.458,0,0,0-.2.961Zm3.906-3.312H38l.039,1.445a5.035,5.035,0,0,1,1.371-1.211,2.784,2.784,0,0,1,1.363-.375,2.222,2.222,0,0,1,1.848.789,3.528,3.528,0,0,1,.582,2.344H41.828a2.567,2.567,0,0,0-.3-1.5,1.084,1.084,0,0,0-.949-.465,1.65,1.65,0,0,0-.551.1,2.225,2.225,0,0,0-.57.313,5.11,5.11,0,0,0-.621.551,10.169,10.169,0,0,0-.7.813V159H36.758Zm15.438-1.93A9.1,9.1,0,0,0,50.352,149q-1.836,0-1.836,1.922V152.3h3.438v1.133H48.516V159H47.133v-5.57H44.609V152.3h2.523V151q0-3.133,3.266-3.133a9.671,9.671,0,0,1,1.8.188Zm8.664,5.789a5.2,5.2,0,0,1-.258,1.676,3.728,3.728,0,0,1-.742,1.3,3.329,3.329,0,0,1-1.18.844,3.939,3.939,0,0,1-1.578.3,4.117,4.117,0,0,1-1.512-.262,2.991,2.991,0,0,1-1.133-.77,3.406,3.406,0,0,1-.711-1.258,5.536,5.536,0,0,1-.246-1.727,5.129,5.129,0,0,1,.258-1.668,3.739,3.739,0,0,1,.742-1.3,3.329,3.329,0,0,1,1.18-.844,3.939,3.939,0,0,1,1.578-.3,4.117,4.117,0,0,1,1.512.262,3.012,3.012,0,0,1,1.133.766,3.368,3.368,0,0,1,.711,1.254A5.508,5.508,0,0,1,60.859,155.016Zm-1.391.063a4.506,4.506,0,0,0-.16-1.27,2.557,2.557,0,0,0-.457-.906,1.885,1.885,0,0,0-.723-.547,2.374,2.374,0,0,0-.949-.184,2.136,2.136,0,0,0-1.043.238,2.065,2.065,0,0,0-.711.637,2.744,2.744,0,0,0-.406.926,4.64,4.64,0,0,0-.129,1.105,4.548,4.548,0,0,0,.16,1.273,2.555,2.555,0,0,0,.457.91,1.892,1.892,0,0,0,.719.547,2.366,2.366,0,0,0,.953.184,2.136,2.136,0,0,0,1.043-.238,2.065,2.065,0,0,0,.711-.637,2.744,2.744,0,0,0,.406-.926A4.674,4.674,0,0,0,59.469,155.078Zm3.68-3.922h1.242l.039,1.445a5.035,5.035,0,0,1,1.371-1.211,2.784,2.784,0,0,1,1.363-.375,2.222,2.222,0,0,1,1.848.789,3.528,3.528,0,0,1,.582,2.344H68.219a2.567,2.567,0,0,0-.3-1.5,1.084,1.084,0,0,0-.949-.465,1.65,1.65,0,0,0-.551.1,2.225,2.225,0,0,0-.57.313,5.11,5.11,0,0,0-.621.551,10.169,10.169,0,0,0-.7.813V159H63.148ZM77.219,159v-5.633a5.377,5.377,0,0,0-.027-.6,1.371,1.371,0,0,0-.086-.371.4.4,0,0,0-.148-.191.421.421,0,0,0-.223-.055.491.491,0,0,0-.289.094,1.313,1.313,0,0,0-.285.3,4.819,4.819,0,0,0-.336.559q-.184.348-.434.855V159H74.148v-5.484q0-.43-.027-.7a1.623,1.623,0,0,0-.086-.414.389.389,0,0,0-.152-.2.442.442,0,0,0-.227-.055.493.493,0,0,0-.266.078,1.129,1.129,0,0,0-.277.281,4.4,4.4,0,0,0-.34.555q-.187.352-.445.9V159h-1.25v-7.844h1.039l.063,1.492a7.134,7.134,0,0,1,.395-.758,2.441,2.441,0,0,1,.395-.5,1.345,1.345,0,0,1,.434-.281,1.4,1.4,0,0,1,.512-.09,1.153,1.153,0,0,1,.961.414,2.051,2.051,0,0,1,.328,1.281q.188-.406.367-.723a2.64,2.64,0,0,1,.387-.531,1.484,1.484,0,0,1,.457-.328,1.388,1.388,0,0,1,.578-.113q1.477,0,1.477,2.273V159Zm8.242,0-.031-1.055a4.252,4.252,0,0,1-1.3.914,3.5,3.5,0,0,1-1.387.281,3.4,3.4,0,0,1-1.148-.172,2.152,2.152,0,0,1-.785-.473,1.832,1.832,0,0,1-.453-.707,2.616,2.616,0,0,1-.145-.883,2.191,2.191,0,0,1,.879-1.848,4.251,4.251,0,0,1,2.6-.668h1.625V153.7a1.455,1.455,0,0,0-.445-1.113,1.927,1.927,0,0,0-1.359-.418,5.812,5.812,0,0,0-1.309.148,9.2,9.2,0,0,0-1.332.422v-1.227q.258-.094.574-.184t.668-.16q.352-.07.734-.113a6.93,6.93,0,0,1,.773-.043,4.85,4.85,0,0,1,1.281.156,2.6,2.6,0,0,1,.965.477,2.1,2.1,0,0,1,.605.8,2.84,2.84,0,0,1,.211,1.141V159Zm-.148-3.57H83.586a3.311,3.311,0,0,0-.875.1,1.661,1.661,0,0,0-.6.289,1.16,1.16,0,0,0-.348.449,1.471,1.471,0,0,0-.113.59,1.339,1.339,0,0,0,.07.434.964.964,0,0,0,.227.367,1.094,1.094,0,0,0,.406.254,1.743,1.743,0,0,0,.609.094,2.576,2.576,0,0,0,1.074-.285,5.249,5.249,0,0,0,1.277-.9Zm3.906-4.273H90.43l.055,1.266a5.663,5.663,0,0,1,.664-.676,3.641,3.641,0,0,1,.629-.434,2.354,2.354,0,0,1,.629-.23,3.264,3.264,0,0,1,.664-.066,2.3,2.3,0,0,1,1.832.715,3.207,3.207,0,0,1,.621,2.152V159H94.164v-5.008a2.21,2.21,0,0,0-.344-1.363,1.217,1.217,0,0,0-1.023-.441,1.632,1.632,0,0,0-.488.074,1.78,1.78,0,0,0-.5.258,4.1,4.1,0,0,0-.559.5q-.3.312-.676.781V159H89.219Zm14.891,7.555a5.88,5.88,0,0,1-1.09.3,6.68,6.68,0,0,1-1.152.1A3.865,3.865,0,0,1,99,158.1a4,4,0,0,1-1-2.945,4.7,4.7,0,0,1,.289-1.687,3.758,3.758,0,0,1,.813-1.3,3.591,3.591,0,0,1,1.25-.832,4.245,4.245,0,0,1,1.6-.293,7.149,7.149,0,0,1,1.141.086,4.724,4.724,0,0,1,1.016.281v1.3a4.31,4.31,0,0,0-1.035-.387,4.854,4.854,0,0,0-1.09-.121,2.482,2.482,0,0,0-.988.2,2.41,2.41,0,0,0-.816.574,2.72,2.72,0,0,0-.555.914,3.437,3.437,0,0,0-.2,1.219,2.933,2.933,0,0,0,.691,2.129,2.559,2.559,0,0,0,1.918.707,4.576,4.576,0,0,0,1.074-.125,4.453,4.453,0,0,0,1-.375Zm9.328-4.047q0,.289-.008.484t-.023.367H107.9a2.441,2.441,0,0,0,.672,1.848,2.69,2.69,0,0,0,1.938.645q.344,0,.688-.027t.664-.074q.32-.047.613-.105t.543-.129v1.117a9.49,9.49,0,0,1-1.254.254,10.469,10.469,0,0,1-1.449.1,4.928,4.928,0,0,1-1.734-.273,2.969,2.969,0,0,1-1.191-.793,3.265,3.265,0,0,1-.687-1.273,6.026,6.026,0,0,1-.223-1.707,5.069,5.069,0,0,1,.238-1.566,3.932,3.932,0,0,1,.7-1.3,3.3,3.3,0,0,1,2.629-1.215,3.827,3.827,0,0,1,1.453.258,2.918,2.918,0,0,1,1.066.73,3.114,3.114,0,0,1,.656,1.148A4.814,4.814,0,0,1,113.438,154.664Zm-1.414-.2a2.963,2.963,0,0,0-.1-.957,2.015,2.015,0,0,0-.387-.746,1.8,1.8,0,0,0-.652-.488,2.189,2.189,0,0,0-.906-.176,1.893,1.893,0,0,0-.812.172,1.853,1.853,0,0,0-.633.484,2.5,2.5,0,0,0-.43.75,3.458,3.458,0,0,0-.2.961Zm11.133,7.734h-8.8v-1.125h8.8Zm7.461-5.344a1.867,1.867,0,0,1-.141.742,1.947,1.947,0,0,1-.383.582,2.382,2.382,0,0,1-.562.434,3.739,3.739,0,0,1-.684.3,4.5,4.5,0,0,1-.746.172,5.3,5.3,0,0,1-.75.055,14.057,14.057,0,0,1-1.465-.07,9.881,9.881,0,0,1-1.309-.227v-1.25a10.89,10.89,0,0,0,1.367.3,9.135,9.135,0,0,0,1.352.1,3.033,3.033,0,0,0,1.445-.266.831.831,0,0,0,.469-.758.928.928,0,0,0-.074-.379.861.861,0,0,0-.27-.32,2.576,2.576,0,0,0-.605-.316q-.41-.164-1.121-.375a7.958,7.958,0,0,1-.98-.355,3.287,3.287,0,0,1-.777-.473,2.03,2.03,0,0,1-.516-.641,1.884,1.884,0,0,1-.187-.867,1.993,1.993,0,0,1,.152-.719,1.953,1.953,0,0,1,.52-.727,2.891,2.891,0,0,1,.992-.559,4.706,4.706,0,0,1,1.563-.223q.461,0,1.023.051a10.571,10.571,0,0,1,1.172.176v1.211a11.2,11.2,0,0,0-1.215-.23,7.915,7.915,0,0,0-1-.074,3.975,3.975,0,0,0-.855.078,1.775,1.775,0,0,0-.562.215.839.839,0,0,0-.309.32.855.855,0,0,0-.094.395.877.877,0,0,0,.082.383.916.916,0,0,0,.3.332,3,3,0,0,0,.621.32q.4.16,1.039.348a8.312,8.312,0,0,1,1.172.426,3.025,3.025,0,0,1,.773.5,1.6,1.6,0,0,1,.426.617A2.214,2.214,0,0,1,130.617,156.859Zm8.68,1.852a5.88,5.88,0,0,1-1.09.3,6.68,6.68,0,0,1-1.152.1,3.865,3.865,0,0,1-2.863-1.008,4,4,0,0,1-1-2.945,4.7,4.7,0,0,1,.289-1.687,3.758,3.758,0,0,1,.813-1.3,3.591,3.591,0,0,1,1.25-.832,4.245,4.245,0,0,1,1.6-.293,7.149,7.149,0,0,1,1.141.086,4.724,4.724,0,0,1,1.016.281v1.3a4.31,4.31,0,0,0-1.035-.387,4.854,4.854,0,0,0-1.09-.121,2.482,2.482,0,0,0-.988.2,2.41,2.41,0,0,0-.816.574,2.72,2.72,0,0,0-.555.914,3.437,3.437,0,0,0-.2,1.219,2.933,2.933,0,0,0,.691,2.129,2.559,2.559,0,0,0,1.918.707,4.576,4.576,0,0,0,1.074-.125,4.453,4.453,0,0,0,1-.375ZM148.3,159h-1.359v-5.008a2.235,2.235,0,0,0-.34-1.355,1.147,1.147,0,0,0-.973-.449,1.712,1.712,0,0,0-.512.074,1.78,1.78,0,0,0-.5.258,4.263,4.263,0,0,0-.562.5q-.3.312-.7.781V159H142V147.961h1.359v3.2l-.047,1.234a5.318,5.318,0,0,1,.629-.645,3.5,3.5,0,0,1,.617-.426,2.461,2.461,0,0,1,.629-.234,3.089,3.089,0,0,1,.664-.07,2.308,2.308,0,0,1,1.813.715,3.14,3.14,0,0,1,.641,2.152Zm9.117-4.336q0,.289-.008.484t-.023.367h-5.508a2.441,2.441,0,0,0,.672,1.848,2.69,2.69,0,0,0,1.938.645q.344,0,.688-.027t.664-.074q.32-.047.613-.105t.543-.129v1.117a9.49,9.49,0,0,1-1.254.254,10.469,10.469,0,0,1-1.449.1,4.928,4.928,0,0,1-1.734-.273,2.968,2.968,0,0,1-1.191-.793,3.265,3.265,0,0,1-.687-1.273,6.026,6.026,0,0,1-.223-1.707,5.069,5.069,0,0,1,.238-1.566,3.932,3.932,0,0,1,.7-1.3,3.3,3.3,0,0,1,2.629-1.215,3.827,3.827,0,0,1,1.453.258,2.918,2.918,0,0,1,1.066.73,3.114,3.114,0,0,1,.656,1.148A4.814,4.814,0,0,1,157.422,154.664Zm-1.414-.2a2.964,2.964,0,0,0-.1-.957,2.014,2.014,0,0,0-.387-.746,1.8,1.8,0,0,0-.652-.488,2.189,2.189,0,0,0-.906-.176,1.893,1.893,0,0,0-.812.172,1.853,1.853,0,0,0-.633.484,2.5,2.5,0,0,0-.43.75,3.458,3.458,0,0,0-.2.961Zm9.18,4.531v-5.633a5.375,5.375,0,0,0-.027-.6,1.371,1.371,0,0,0-.086-.371.4.4,0,0,0-.148-.191.421.421,0,0,0-.223-.055.491.491,0,0,0-.289.094,1.313,1.313,0,0,0-.285.3,4.818,4.818,0,0,0-.336.559q-.184.348-.434.855V159h-1.242v-5.484q0-.43-.027-.7a1.624,1.624,0,0,0-.086-.414.389.389,0,0,0-.152-.2.442.442,0,0,0-.227-.055.493.493,0,0,0-.266.078,1.13,1.13,0,0,0-.277.281,4.4,4.4,0,0,0-.34.555q-.187.352-.445.9V159h-1.25v-7.844h1.039l.063,1.492a7.134,7.134,0,0,1,.395-.758,2.441,2.441,0,0,1,.395-.5,1.346,1.346,0,0,1,.434-.281,1.4,1.4,0,0,1,.512-.09,1.153,1.153,0,0,1,.961.414,2.051,2.051,0,0,1,.328,1.281q.188-.406.367-.723a2.641,2.641,0,0,1,.387-.531,1.484,1.484,0,0,1,.457-.328,1.388,1.388,0,0,1,.578-.113q1.477,0,1.477,2.273V159Zm8.242,0-.031-1.055a4.251,4.251,0,0,1-1.3.914,3.5,3.5,0,0,1-1.387.281,3.4,3.4,0,0,1-1.148-.172,2.152,2.152,0,0,1-.785-.473,1.832,1.832,0,0,1-.453-.707,2.616,2.616,0,0,1-.145-.883,2.191,2.191,0,0,1,.879-1.848,4.251,4.251,0,0,1,2.6-.668h1.625V153.7a1.455,1.455,0,0,0-.445-1.113,1.927,1.927,0,0,0-1.359-.418,5.812,5.812,0,0,0-1.309.148,9.2,9.2,0,0,0-1.332.422v-1.227q.258-.094.574-.184t.668-.16q.352-.07.734-.113a6.93,6.93,0,0,1,.773-.043,4.85,4.85,0,0,1,1.281.156,2.6,2.6,0,0,1,.965.477,2.1,2.1,0,0,1,.605.8,2.84,2.84,0,0,1,.211,1.141V159Zm-.148-3.57h-1.727a3.311,3.311,0,0,0-.875.1,1.661,1.661,0,0,0-.6.289,1.16,1.16,0,0,0-.348.449,1.471,1.471,0,0,0-.113.59,1.339,1.339,0,0,0,.07.434.964.964,0,0,0,.227.367,1.094,1.094,0,0,0,.406.254,1.743,1.743,0,0,0,.609.094,2.576,2.576,0,0,0,1.074-.285,5.249,5.249,0,0,0,1.277-.9Zm16.492,6.773h-1.281v-16h1.281ZM5.039,186.2H3.758v-16H5.039Zm20.508-7.266a5.2,5.2,0,0,1-.293,1.828,3.582,3.582,0,0,1-.809,1.3,3.314,3.314,0,0,1-1.219.773,4.392,4.392,0,0,1-1.523.258,7.121,7.121,0,0,1-.746-.039,5.66,5.66,0,0,1-.754-.133V186.2H18.844V175.156h1.211l.086,1.313a3.5,3.5,0,0,1,1.25-1.129,3.232,3.232,0,0,1,1.438-.324,2.4,2.4,0,0,1,1.18.281,2.448,2.448,0,0,1,.852.793,3.751,3.751,0,0,1,.516,1.234A6.983,6.983,0,0,1,25.547,178.938ZM24.156,179a6.617,6.617,0,0,0-.09-1.133,2.956,2.956,0,0,0-.285-.883,1.566,1.566,0,0,0-.5-.574,1.262,1.262,0,0,0-.727-.207,1.767,1.767,0,0,0-.523.082,2.123,2.123,0,0,0-.551.273,4.1,4.1,0,0,0-.6.508,8,8,0,0,0-.676.785v3.8a4.561,4.561,0,0,0,.789.246,3.825,3.825,0,0,0,.813.09,2.131,2.131,0,0,0,1.727-.746A3.434,3.434,0,0,0,24.156,179Zm3.8-3.844H29.2l.039,1.445a5.035,5.035,0,0,1,1.371-1.211,2.784,2.784,0,0,1,1.363-.375,2.222,2.222,0,0,1,1.848.789,3.528,3.528,0,0,1,.582,2.344H33.031a2.567,2.567,0,0,0-.3-1.5,1.084,1.084,0,0,0-.949-.465,1.65,1.65,0,0,0-.551.1,2.225,2.225,0,0,0-.57.313,5.11,5.11,0,0,0-.621.551,10.169,10.169,0,0,0-.7.813V183H27.961ZM42.742,183H41.523l-.047-1.266a6.332,6.332,0,0,1-.668.676,3.453,3.453,0,0,1-.629.434,2.421,2.421,0,0,1-.629.23,3.247,3.247,0,0,1-.668.066,2.29,2.29,0,0,1-1.828-.711,3.205,3.205,0,0,1-.617-2.148v-5.125H37.8v5.016q0,1.8,1.359,1.8a1.632,1.632,0,0,0,.488-.074,1.834,1.834,0,0,0,.5-.258,3.956,3.956,0,0,0,.563-.5q.3-.312.676-.789v-5.2h1.359Zm9.117-4.336q0,.289-.008.484t-.023.367H46.32a2.441,2.441,0,0,0,.672,1.848,2.69,2.69,0,0,0,1.938.645q.344,0,.688-.027t.664-.074q.32-.047.613-.105t.543-.129v1.117a9.49,9.49,0,0,1-1.254.254,10.469,10.469,0,0,1-1.449.1A4.928,4.928,0,0,1,47,182.867a2.969,2.969,0,0,1-1.191-.793,3.265,3.265,0,0,1-.687-1.273,6.026,6.026,0,0,1-.223-1.707,5.069,5.069,0,0,1,.238-1.566,3.932,3.932,0,0,1,.7-1.3,3.3,3.3,0,0,1,2.629-1.215,3.827,3.827,0,0,1,1.453.258,2.918,2.918,0,0,1,1.066.73,3.114,3.114,0,0,1,.656,1.148A4.814,4.814,0,0,1,51.859,178.664Zm-1.414-.2a2.963,2.963,0,0,0-.1-.957,2.014,2.014,0,0,0-.387-.746,1.8,1.8,0,0,0-.652-.488,2.189,2.189,0,0,0-.906-.176,1.893,1.893,0,0,0-.812.172,1.853,1.853,0,0,0-.633.484,2.5,2.5,0,0,0-.43.75,3.458,3.458,0,0,0-.2.961Zm10.289.469a5.264,5.264,0,0,1-.27,1.746,3.68,3.68,0,0,1-.766,1.3,3.292,3.292,0,0,1-1.207.82,4.27,4.27,0,0,1-1.6.285,7.9,7.9,0,0,1-1.422-.133,7.291,7.291,0,0,1-1.437-.422V171.961h1.359V175l-.062,1.453a3.528,3.528,0,0,1,1.254-1.113,3.24,3.24,0,0,1,1.434-.324,2.4,2.4,0,0,1,1.18.281,2.448,2.448,0,0,1,.852.793,3.751,3.751,0,0,1,.516,1.234A6.984,6.984,0,0,1,60.734,178.938ZM59.344,179a6.617,6.617,0,0,0-.09-1.133,2.956,2.956,0,0,0-.285-.883,1.566,1.566,0,0,0-.5-.574,1.262,1.262,0,0,0-.727-.207,1.767,1.767,0,0,0-.523.082,2.123,2.123,0,0,0-.551.273,4.1,4.1,0,0,0-.6.508,8,8,0,0,0-.676.785v3.8a5.3,5.3,0,0,0,.813.246,3.724,3.724,0,0,0,.789.09,2.7,2.7,0,0,0,.895-.148,1.847,1.847,0,0,0,.75-.5,2.482,2.482,0,0,0,.516-.922A4.561,4.561,0,0,0,59.344,179Zm8.523,4-.031-1.055a4.252,4.252,0,0,1-1.3.914,3.5,3.5,0,0,1-1.387.281A3.4,3.4,0,0,1,64,182.969a2.152,2.152,0,0,1-.785-.473,1.832,1.832,0,0,1-.453-.707,2.616,2.616,0,0,1-.145-.883,2.191,2.191,0,0,1,.879-1.848,4.251,4.251,0,0,1,2.6-.668h1.625V177.7a1.455,1.455,0,0,0-.445-1.113,1.927,1.927,0,0,0-1.359-.418,5.812,5.812,0,0,0-1.309.148,9.2,9.2,0,0,0-1.332.422v-1.227q.258-.094.574-.184t.668-.16q.352-.07.734-.113a6.93,6.93,0,0,1,.773-.043,4.85,4.85,0,0,1,1.281.156,2.6,2.6,0,0,1,.965.477,2.1,2.1,0,0,1,.605.8,2.84,2.84,0,0,1,.211,1.141V183Zm-.148-3.57H65.992a3.311,3.311,0,0,0-.875.1,1.661,1.661,0,0,0-.6.289,1.16,1.16,0,0,0-.348.449,1.471,1.471,0,0,0-.113.59,1.339,1.339,0,0,0,.07.434.964.964,0,0,0,.227.367,1.094,1.094,0,0,0,.406.254,1.743,1.743,0,0,0,.609.094,2.576,2.576,0,0,0,1.074-.285,5.249,5.249,0,0,0,1.277-.9ZM189.773,186.2h-1.281v-16h1.281ZM5.039,210.2H3.758v-16H5.039Zm20.016-5.344a1.867,1.867,0,0,1-.141.742,1.947,1.947,0,0,1-.383.582,2.382,2.382,0,0,1-.562.434,3.739,3.739,0,0,1-.684.3,4.5,4.5,0,0,1-.746.172,5.3,5.3,0,0,1-.75.055,14.057,14.057,0,0,1-1.465-.07,9.881,9.881,0,0,1-1.309-.227v-1.25a10.889,10.889,0,0,0,1.367.3,9.135,9.135,0,0,0,1.352.1,3.033,3.033,0,0,0,1.445-.266.831.831,0,0,0,.469-.758.928.928,0,0,0-.074-.379.861.861,0,0,0-.27-.32,2.576,2.576,0,0,0-.605-.316q-.41-.164-1.121-.375a7.958,7.958,0,0,1-.98-.355,3.287,3.287,0,0,1-.777-.473,2.03,2.03,0,0,1-.516-.641,1.884,1.884,0,0,1-.187-.867,1.993,1.993,0,0,1,.152-.719,1.953,1.953,0,0,1,.52-.727,2.891,2.891,0,0,1,.992-.559,4.706,4.706,0,0,1,1.563-.223q.461,0,1.023.051a10.571,10.571,0,0,1,1.172.176v1.211a11.2,11.2,0,0,0-1.215-.23,7.915,7.915,0,0,0-1-.074,3.975,3.975,0,0,0-.855.078,1.775,1.775,0,0,0-.562.215.839.839,0,0,0-.309.32.855.855,0,0,0-.094.395.877.877,0,0,0,.082.383.916.916,0,0,0,.3.332,3,3,0,0,0,.621.32q.4.16,1.039.348a8.312,8.312,0,0,1,1.172.426,3.024,3.024,0,0,1,.773.5,1.6,1.6,0,0,1,.426.617A2.214,2.214,0,0,1,25.055,204.859Zm9.563-5.7-2.672,7.016a13.756,13.756,0,0,1-.855,1.844,5.467,5.467,0,0,1-.965,1.27,3.4,3.4,0,0,1-1.148.73,3.958,3.958,0,0,1-1.4.234q-.2,0-.367-.008t-.359-.023v-1.234q.172.023.375.043t.43.02a2.174,2.174,0,0,0,.7-.109,1.864,1.864,0,0,0,.613-.355,3.17,3.17,0,0,0,.555-.637,6.269,6.269,0,0,0,.516-.945l-3.133-7.844h1.547l1.984,5.188.4,1.219.453-1.25,1.836-5.156Zm8.031,5.7a1.867,1.867,0,0,1-.141.742,1.947,1.947,0,0,1-.383.582,2.382,2.382,0,0,1-.562.434,3.739,3.739,0,0,1-.684.3,4.5,4.5,0,0,1-.746.172,5.3,5.3,0,0,1-.75.055,14.057,14.057,0,0,1-1.465-.07,9.881,9.881,0,0,1-1.309-.227v-1.25a10.889,10.889,0,0,0,1.367.3,9.135,9.135,0,0,0,1.352.1,3.033,3.033,0,0,0,1.445-.266.831.831,0,0,0,.469-.758.928.928,0,0,0-.074-.379.861.861,0,0,0-.27-.32,2.576,2.576,0,0,0-.605-.316q-.41-.164-1.121-.375a7.958,7.958,0,0,1-.98-.355,3.287,3.287,0,0,1-.777-.473,2.03,2.03,0,0,1-.516-.641,1.884,1.884,0,0,1-.187-.867,1.993,1.993,0,0,1,.152-.719,1.953,1.953,0,0,1,.52-.727,2.891,2.891,0,0,1,.992-.559,4.706,4.706,0,0,1,1.563-.223q.461,0,1.023.051a10.571,10.571,0,0,1,1.172.176v1.211a11.2,11.2,0,0,0-1.215-.23,7.915,7.915,0,0,0-1-.074,3.975,3.975,0,0,0-.855.078,1.775,1.775,0,0,0-.562.215.839.839,0,0,0-.309.32.855.855,0,0,0-.094.395.877.877,0,0,0,.082.383.916.916,0,0,0,.3.332,3,3,0,0,0,.621.32q.4.16,1.039.348a8.312,8.312,0,0,1,1.172.426,3.024,3.024,0,0,1,.773.5,1.6,1.6,0,0,1,.426.617A2.214,2.214,0,0,1,42.648,204.859ZM189.773,210.2h-1.281v-16h1.281ZM8.141,227.336H5.07v3.188H3.727v-3.187H.656v-1.187h3.07v-3.164H5.07v3.164h3.07Zm7.391.047H10.859V226.1h4.672Zm8.8,0H19.656V226.1h4.672Zm8.8,0H28.453V226.1h4.672Zm8.8,0H37.25V226.1h4.672Zm8.8,0H46.047V226.1h4.672Zm8.8,0H54.844V226.1h4.672Zm8.8,0H63.641V226.1h4.672Zm8.8,0H72.438V226.1h4.672Zm8.8,0H81.234V226.1h4.672Zm8.8,0H90.031V226.1H94.7Zm8.8,0H98.828V226.1H103.5Zm8.8,0h-4.672V226.1H112.3Zm8.8,0h-4.672V226.1h4.672Zm8.8,0h-4.672V226.1h4.672Zm8.8,0h-4.672V226.1h4.672Zm8.8,0h-4.672V226.1h4.672Zm8.8,0h-4.672V226.1h4.672Zm8.8,0h-4.672V226.1h4.672Zm8.8,0H169.2V226.1h4.672Zm8.8,0H178V226.1h4.672Zm10.2-.047H189.8v3.188h-1.344v-3.187h-3.07v-1.187h3.07v-3.164H189.8v3.164h3.07Z" transform="translate(-3425 -10558)" fill="#f4a338"/>
  </g>
</svg>
