<svg xmlns="http://www.w3.org/2000/svg" width="127.496" height="109.465" viewBox="0 0 127.496 109.465">
  <g id="Grupo_91205" data-name="Grupo 91205" transform="translate(-337.217 1111.892)">
    <rect id="Rect치ngulo_8066" data-name="Rect치ngulo 8066" width="125.806" height="107.775" rx="15.327" transform="translate(338.062 -1111.047)" fill="#cecece"/>
    <g id="Grupo_91177" data-name="Grupo 91177" transform="translate(338.061 -1111.047)">
      <path id="Trazado_136667" data-name="Trazado 136667" d="M344.349-1011.25v-90.508a8.634,8.634,0,0,1,8.634-8.633H347.35a8.634,8.634,0,0,0-8.634,8.633v90.508a8.634,8.634,0,0,0,8.634,8.633h5.633A8.634,8.634,0,0,1,344.349-1011.25Z" transform="translate(-338.716 1110.391)" fill="#afafaf"/>
    </g>
    <g id="Grupo_91178" data-name="Grupo 91178" transform="translate(449.601 -1111.047)">
      <path id="Trazado_136668" data-name="Trazado 136668" d="M545.368-1011.25v-90.508a8.634,8.634,0,0,0-8.634-8.633h5.633a8.634,8.634,0,0,1,8.634,8.633v90.508a8.634,8.634,0,0,1-8.634,8.633h-5.633A8.634,8.634,0,0,0,545.368-1011.25Z" transform="translate(-536.734 1110.391)" fill="#e2e2e2"/>
    </g>
    <g id="Grupo_91179" data-name="Grupo 91179" transform="translate(337.217 -1111.892)">
      <path id="Trazado_136669" data-name="Trazado 136669" d="M455.234-1002.427H346.7a9.489,9.489,0,0,1-9.478-9.478v-90.508a9.489,9.489,0,0,1,9.478-9.479H455.234a9.49,9.49,0,0,1,9.479,9.479v90.508A9.49,9.49,0,0,1,455.234-1002.427ZM346.7-1110.2a7.8,7.8,0,0,0-7.789,7.789v90.508a7.8,7.8,0,0,0,7.789,7.788H455.234a7.8,7.8,0,0,0,7.789-7.788v-90.508a7.8,7.8,0,0,0-7.789-7.789Z" transform="translate(-337.217 1111.892)" fill="#12263f"/>
    </g>
    <path id="Trazado_136670" data-name="Trazado 136670" d="M464.523-1101.758a8.634,8.634,0,0,0-8.634-8.633H347.35a8.634,8.634,0,0,0-8.634,8.633v15.024H464.523Z" transform="translate(-0.655 -0.656)" fill="#4adbd1"/>
    <g id="Grupo_91180" data-name="Grupo 91180" transform="translate(338.061 -1111.047)">
      <path id="Trazado_136671" data-name="Trazado 136671" d="M352.983-1110.391H347.35a8.634,8.634,0,0,0-8.634,8.633v15.024h5.633v-15.024A8.634,8.634,0,0,1,352.983-1110.391Z" transform="translate(-338.716 1110.391)" fill="#37c6bc"/>
    </g>
    <g id="Grupo_91181" data-name="Grupo 91181" transform="translate(449.601 -1111.047)">
      <path id="Trazado_136672" data-name="Trazado 136672" d="M536.734-1110.391h5.633a8.634,8.634,0,0,1,8.634,8.633v15.024h-5.633v-15.024A8.634,8.634,0,0,0,536.734-1110.391Z" transform="translate(-536.734 1110.391)" fill="#81f2ea"/>
    </g>
    <g id="Grupo_91182" data-name="Grupo 91182" transform="translate(337.217 -1111.892)">
      <path id="Trazado_136673" data-name="Trazado 136673" d="M463.868-1086.544H338.062a.845.845,0,0,1-.845-.845v-15.024a9.489,9.489,0,0,1,9.478-9.479H455.234a9.49,9.49,0,0,1,9.479,9.479v15.024A.845.845,0,0,1,463.868-1086.544Zm-124.961-1.69H463.023v-14.179a7.8,7.8,0,0,0-7.789-7.789H346.7a7.8,7.8,0,0,0-7.789,7.789Z" transform="translate(-337.217 1111.892)" fill="#12263f"/>
    </g>
    <g id="Grupo_91183" data-name="Grupo 91183" transform="translate(349.53 -1103.161)">
      <circle id="Elipse_4225" data-name="Elipse 4225" cx="3.943" cy="3.943" r="3.943" transform="translate(0 0)" fill="#5573c6"/>
      <circle id="Elipse_4226" data-name="Elipse 4226" cx="3.943" cy="3.943" r="3.943" transform="translate(15.187 0)" fill="#5573c6"/>
      <circle id="Elipse_4227" data-name="Elipse 4227" cx="3.943" cy="3.943" r="3.943" transform="translate(30.375 0)" fill="#5573c6"/>
    </g>
    <g id="Grupo_91187" data-name="Grupo 91187" transform="translate(348.685 -1104.006)">
      <g id="Grupo_91184" data-name="Grupo 91184" transform="translate(0 0)">
        <path id="Trazado_136674" data-name="Trazado 136674" d="M362.364-1088.316a4.794,4.794,0,0,1-4.788-4.788,4.794,4.794,0,0,1,4.788-4.788,4.793,4.793,0,0,1,4.788,4.788A4.793,4.793,0,0,1,362.364-1088.316Zm0-7.886a3.1,3.1,0,0,0-3.1,3.1,3.1,3.1,0,0,0,3.1,3.1,3.1,3.1,0,0,0,3.1-3.1A3.1,3.1,0,0,0,362.364-1096.2Z" transform="translate(-357.576 1097.892)" fill="#12263f"/>
      </g>
      <g id="Grupo_91185" data-name="Grupo 91185" transform="translate(15.188 0)">
        <path id="Trazado_136675" data-name="Trazado 136675" d="M389.327-1088.316a4.794,4.794,0,0,1-4.788-4.788,4.794,4.794,0,0,1,4.788-4.788,4.793,4.793,0,0,1,4.788,4.788A4.793,4.793,0,0,1,389.327-1088.316Zm0-7.886a3.1,3.1,0,0,0-3.1,3.1,3.1,3.1,0,0,0,3.1,3.1,3.1,3.1,0,0,0,3.1-3.1A3.1,3.1,0,0,0,389.327-1096.2Z" transform="translate(-384.539 1097.892)" fill="#12263f"/>
      </g>
      <g id="Grupo_91186" data-name="Grupo 91186" transform="translate(30.375 0)">
        <path id="Trazado_136676" data-name="Trazado 136676" d="M416.289-1088.316a4.793,4.793,0,0,1-4.788-4.788,4.793,4.793,0,0,1,4.788-4.788,4.794,4.794,0,0,1,4.788,4.788A4.794,4.794,0,0,1,416.289-1088.316Zm0-7.886a3.1,3.1,0,0,0-3.1,3.1,3.1,3.1,0,0,0,3.1,3.1,3.1,3.1,0,0,0,3.1-3.1A3.1,3.1,0,0,0,416.289-1096.2Z" transform="translate(-411.501 1097.892)" fill="#12263f"/>
      </g>
    </g>
    <rect id="Rect치ngulo_8067" data-name="Rect치ngulo 8067" width="55.9" height="6.008" rx="3.004" transform="translate(396.5 -1101.964)" fill="#5573c6"/>
    <g id="Grupo_91188" data-name="Grupo 91188" transform="translate(395.655 -1102.809)">
      <path id="Trazado_136677" data-name="Trazado 136677" d="M494.7-1088.068H444.811a3.853,3.853,0,0,1-3.849-3.849,3.853,3.853,0,0,1,3.849-3.849H494.7a3.853,3.853,0,0,1,3.849,3.849A3.853,3.853,0,0,1,494.7-1088.068Zm-49.892-6.009a2.162,2.162,0,0,0-2.159,2.16,2.161,2.161,0,0,0,2.159,2.159H494.7a2.161,2.161,0,0,0,2.159-2.159,2.162,2.162,0,0,0-2.159-2.16Z" transform="translate(-440.962 1095.767)" fill="#12263f"/>
    </g>
    <g id="Grupo_91193" data-name="Grupo 91193" transform="translate(347.902 -1080.856)">
      <g id="Grupo_91189" data-name="Grupo 91189" transform="translate(0 0)">
        <path id="Trazado_136678" data-name="Trazado 136678" d="M410.532-1055.1h-53.5a.845.845,0,0,1-.845-.845.844.844,0,0,1,.845-.845h53.5a.845.845,0,0,1,.845.845A.845.845,0,0,1,410.532-1055.1Z" transform="translate(-356.187 1056.794)" fill="#12263f"/>
      </g>
      <g id="Grupo_91190" data-name="Grupo 91190" transform="translate(64.953 0)">
        <path id="Trazado_136679" data-name="Trazado 136679" d="M485.112-1055.1H472.344a.845.845,0,0,1-.845-.845.845.845,0,0,1,.845-.845h12.768a.845.845,0,0,1,.845.845A.845.845,0,0,1,485.112-1055.1Z" transform="translate(-471.499 1056.794)" fill="#12263f"/>
      </g>
      <g id="Grupo_91191" data-name="Grupo 91191" transform="translate(0 9.106)">
        <path id="Trazado_136680" data-name="Trazado 136680" d="M388.892-1038.938h-31.86a.844.844,0,0,1-.845-.845.845.845,0,0,1,.845-.845h31.86a.845.845,0,0,1,.845.845A.845.845,0,0,1,388.892-1038.938Z" transform="translate(-356.187 1040.628)" fill="#12263f"/>
      </g>
      <g id="Grupo_91192" data-name="Grupo 91192" transform="translate(38.26 9.106)">
        <path id="Trazado_136681" data-name="Trazado 136681" d="M451.649-1038.938H424.956a.845.845,0,0,1-.845-.845.845.845,0,0,1,.845-.845h26.693a.845.845,0,0,1,.845.845A.845.845,0,0,1,451.649-1038.938Z" transform="translate(-424.111 1040.628)" fill="#12263f"/>
      </g>
    </g>
    <g id="Grupo_91198" data-name="Grupo 91198" transform="translate(347.902 -1020.61)">
      <g id="Grupo_91194" data-name="Grupo 91194">
        <path id="Trazado_136682" data-name="Trazado 136682" d="M410.532-948.149h-53.5a.844.844,0,0,1-.845-.845.845.845,0,0,1,.845-.845h53.5a.845.845,0,0,1,.845.845A.845.845,0,0,1,410.532-948.149Z" transform="translate(-356.187 949.839)" fill="#12263f"/>
      </g>
      <g id="Grupo_91195" data-name="Grupo 91195" transform="translate(64.953)">
        <path id="Trazado_136683" data-name="Trazado 136683" d="M485.112-948.149H472.344a.845.845,0,0,1-.845-.845.845.845,0,0,1,.845-.845h12.768a.845.845,0,0,1,.845.845A.845.845,0,0,1,485.112-948.149Z" transform="translate(-471.499 949.839)" fill="#12263f"/>
      </g>
      <g id="Grupo_91196" data-name="Grupo 91196" transform="translate(0 9.107)">
        <path id="Trazado_136684" data-name="Trazado 136684" d="M388.892-931.982h-31.86a.844.844,0,0,1-.845-.845.845.845,0,0,1,.845-.845h31.86a.845.845,0,0,1,.845.845A.845.845,0,0,1,388.892-931.982Z" transform="translate(-356.187 933.672)" fill="#12263f"/>
      </g>
      <g id="Grupo_91197" data-name="Grupo 91197" transform="translate(38.26 9.107)">
        <path id="Trazado_136685" data-name="Trazado 136685" d="M451.649-931.982H424.956a.845.845,0,0,1-.845-.845.845.845,0,0,1,.845-.845h26.693a.845.845,0,0,1,.845.845A.845.845,0,0,1,451.649-931.982Z" transform="translate(-424.111 933.672)" fill="#12263f"/>
      </g>
    </g>
    <g id="Grupo_91199" data-name="Grupo 91199" transform="translate(353.949 -1066.484)">
      <path id="Trazado_136686" data-name="Trazado 136686" d="M371.409-987.957a4.569,4.569,0,0,1,1.823.362,4.635,4.635,0,0,1,1.461.982,4.478,4.478,0,0,1,.97,1.461,4.63,4.63,0,0,1,.351,1.8,4.488,4.488,0,0,1-.351,1.765,4.51,4.51,0,0,1-.97,1.449,4.635,4.635,0,0,1-1.461.982,4.561,4.561,0,0,1-1.823.362,4.28,4.28,0,0,1-1.753-.362,4.569,4.569,0,0,1-1.426-.982,4.6,4.6,0,0,1-.959-1.449,4.487,4.487,0,0,1-.35-1.765,4.629,4.629,0,0,1,.35-1.8,4.565,4.565,0,0,1,.959-1.461,4.569,4.569,0,0,1,1.426-.982A4.287,4.287,0,0,1,371.409-987.957Z" transform="translate(-366.921 1012.359)" fill="#4adbd1"/>
      <path id="Trazado_136687" data-name="Trazado 136687" d="M424.162-998.444a6.406,6.406,0,0,1-.9,3.471,7.124,7.124,0,0,1-2.384,2.337,10.906,10.906,0,0,1-3.366,1.309,18.05,18.05,0,0,1-3.845.409,41.1,41.1,0,0,1-4.721-.245,31.456,31.456,0,0,1-3.974-.713v-5.142a22.005,22.005,0,0,0,4.383,1.321,22.465,22.465,0,0,0,4.125.409,6.3,6.3,0,0,0,3.354-.713,2.137,2.137,0,0,0,1.11-1.858,2.075,2.075,0,0,0-.234-.982,2.42,2.42,0,0,0-.876-.853,9.835,9.835,0,0,0-1.812-.841q-1.168-.433-3.062-.97a19.924,19.924,0,0,1-3.073-1.11,7.928,7.928,0,0,1-2.186-1.461,5.456,5.456,0,0,1-1.3-1.951,7.164,7.164,0,0,1-.433-2.606,5.949,5.949,0,0,1,.655-2.735,6.505,6.505,0,0,1,1.952-2.255,9.969,9.969,0,0,1,3.237-1.531,16.4,16.4,0,0,1,4.534-.561,29.955,29.955,0,0,1,3.974.234q1.73.233,3.061.514v4.651a24.379,24.379,0,0,0-3.821-.923,23.8,23.8,0,0,0-3.541-.269,5.485,5.485,0,0,0-2.816.631,1.95,1.95,0,0,0-1.063,1.753,2.114,2.114,0,0,0,.211.959,2.24,2.24,0,0,0,.83.818,10.067,10.067,0,0,0,1.729.83q1.11.433,2.934.947a22.417,22.417,0,0,1,3.459,1.251,8.18,8.18,0,0,1,2.256,1.507,4.956,4.956,0,0,1,1.227,1.917A7.446,7.446,0,0,1,424.162-998.444Z" transform="translate(-383.539 1024.482)" fill="#f4a338"/>
      <path id="Trazado_136688" data-name="Trazado 136688" d="M464.014-982.14v-7.807l.257-4.628a13.392,13.392,0,0,1-1.391,1.5,8.514,8.514,0,0,1-1.613,1.169,8.043,8.043,0,0,1-1.9.759,8.759,8.759,0,0,1-2.221.269,8.061,8.061,0,0,1-3.74-.842,7.625,7.625,0,0,1-2.747-2.4,11.444,11.444,0,0,1-1.694-3.775,19.47,19.47,0,0,1-.584-4.955,16.524,16.524,0,0,1,.771-5.178,11.01,11.01,0,0,1,2.3-4.032,10.264,10.264,0,0,1,3.822-2.606,14.255,14.255,0,0,1,5.352-.923q.585,0,1.285.07t1.4.175q.7.105,1.344.258t1.134.315l3.927-.865v33.494Zm-9.654-20.966a17.927,17.927,0,0,0,.269,3.354,7.15,7.15,0,0,0,.794,2.279,3.351,3.351,0,0,0,1.3,1.3,3.685,3.685,0,0,0,1.753.409,4.1,4.1,0,0,0,2.758-1.169,20.172,20.172,0,0,0,2.781-3.2v-10.378a8.846,8.846,0,0,0-1.671-.421,12.3,12.3,0,0,0-2-.163,5.368,5.368,0,0,0-2.477.561,5.477,5.477,0,0,0-1.882,1.589,7.472,7.472,0,0,0-1.2,2.513A12.207,12.207,0,0,0,454.36-1003.106Z" transform="translate(-402.494 1024.446)" fill="#f4a338"/>
      <path id="Trazado_136689" data-name="Trazado 136689" d="M505.49-1026.837h-6.708v-4.441h12.552v28.586h6.848v4.441H497.964v-4.441h7.526Z" transform="translate(-424.15 1031.278)" fill="#f4a338"/>
    </g>
    <g id="Grupo_91204" data-name="Grupo 91204" transform="translate(353.104 -1067.328)">
      <g id="Grupo_91200" data-name="Grupo 91200" transform="translate(0 24.404)">
        <path id="Trazado_136690" data-name="Trazado 136690" d="M370.754-978.6a5.147,5.147,0,0,1-2.095-.434,5.437,5.437,0,0,1-1.687-1.163,5.471,5.471,0,0,1-1.134-1.712,5.362,5.362,0,0,1-.417-2.094,5.5,5.5,0,0,1,.415-2.124,5.435,5.435,0,0,1,1.136-1.729,5.421,5.421,0,0,1,1.686-1.162,5.46,5.46,0,0,1,4.253,0,5.475,5.475,0,0,1,1.724,1.16,5.338,5.338,0,0,1,1.152,1.733,5.5,5.5,0,0,1,.415,2.125,5.352,5.352,0,0,1-.417,2.094,5.357,5.357,0,0,1-1.151,1.718,5.482,5.482,0,0,1-1.724,1.16A5.425,5.425,0,0,1,370.754-978.6Zm0-9.162a3.4,3.4,0,0,0-1.41.29,3.733,3.733,0,0,0-1.165.8,3.742,3.742,0,0,0-.782,1.195,3.821,3.821,0,0,0-.286,1.475,3.683,3.683,0,0,0,.284,1.436,3.793,3.793,0,0,0,.783,1.186,3.743,3.743,0,0,0,1.165.8,3.4,3.4,0,0,0,1.41.29,3.741,3.741,0,0,0,1.489-.293,3.807,3.807,0,0,0,1.2-.8,3.69,3.69,0,0,0,.79-1.181,3.67,3.67,0,0,0,.283-1.436,3.811,3.811,0,0,0-.285-1.475,3.644,3.644,0,0,0-.788-1.188,3.8,3.8,0,0,0-1.2-.8A3.739,3.739,0,0,0,370.754-987.766Z" transform="translate(-365.421 989.453)" fill="#12263f"/>
      </g>
      <g id="Grupo_91201" data-name="Grupo 91201" transform="translate(21.434 8.765)">
        <path id="Trazado_136691" data-name="Trazado 136691" d="M413.012-990.728a42.03,42.03,0,0,1-4.819-.251,32.3,32.3,0,0,1-4.081-.732.845.845,0,0,1-.639-.819v-5.142a.845.845,0,0,1,.376-.7.842.842,0,0,1,.793-.077,21.218,21.218,0,0,0,4.214,1.27,21.722,21.722,0,0,0,3.969.395,5.566,5.566,0,0,0,2.9-.579,1.279,1.279,0,0,0,.722-1.147,1.227,1.227,0,0,0-.136-.588,1.6,1.6,0,0,0-.582-.534,9.044,9.044,0,0,0-1.652-.762c-.755-.279-1.764-.6-3-.95a20.838,20.838,0,0,1-3.2-1.158,8.793,8.793,0,0,1-2.416-1.621,6.31,6.31,0,0,1-1.495-2.25,8.032,8.032,0,0,1-.49-2.913,6.807,6.807,0,0,1,.746-3.118,7.38,7.38,0,0,1,2.2-2.549,10.889,10.889,0,0,1,3.509-1.666,17.341,17.341,0,0,1,4.769-.594,30.982,30.982,0,0,1,4.087.241c1.168.158,2.218.334,3.123.525a.844.844,0,0,1,.671.826v4.652a.848.848,0,0,1-.347.683.846.846,0,0,1-.756.121,23.7,23.7,0,0,0-3.689-.892,23.106,23.106,0,0,0-3.416-.259,4.7,4.7,0,0,0-2.385.513,1.1,1.1,0,0,0-.65,1.026,1.266,1.266,0,0,0,.122.581,1.436,1.436,0,0,0,.53.485,9.311,9.311,0,0,0,1.581.754c.71.276,1.67.586,2.855.92a23.429,23.429,0,0,1,3.593,1.3,9.04,9.04,0,0,1,2.486,1.669,5.818,5.818,0,0,1,1.432,2.241,8.323,8.323,0,0,1,.421,2.732,7.266,7.266,0,0,1-1.029,3.919,8.005,8.005,0,0,1-2.663,2.611,11.791,11.791,0,0,1-3.624,1.412A18.982,18.982,0,0,1,413.012-990.728Zm-7.849-2.471a31.583,31.583,0,0,0,3.226.542,40.421,40.421,0,0,0,4.623.24,17.269,17.269,0,0,0,3.665-.39,10.123,10.123,0,0,0,3.108-1.205,6.325,6.325,0,0,0,2.106-2.064,5.612,5.612,0,0,0,.771-3.022,6.644,6.644,0,0,0-.327-2.177,4.083,4.083,0,0,0-1.022-1.592,7.4,7.4,0,0,0-2.024-1.346,21.746,21.746,0,0,0-3.328-1.2c-1.235-.348-2.249-.675-3.009-.972a10.81,10.81,0,0,1-1.879-.906,3.023,3.023,0,0,1-1.129-1.152,2.952,2.952,0,0,1-.3-1.336,2.788,2.788,0,0,1,1.477-2.48,6.325,6.325,0,0,1,3.247-.749,24.745,24.745,0,0,1,3.666.278,23.722,23.722,0,0,1,2.852.622v-2.822c-.7-.132-1.484-.256-2.33-.371a29.322,29.322,0,0,0-3.861-.226,15.67,15.67,0,0,0-4.3.527,9.24,9.24,0,0,0-2.966,1.4,5.7,5.7,0,0,0-1.7,1.963,5.059,5.059,0,0,0-.562,2.351,6.355,6.355,0,0,0,.375,2.3,4.645,4.645,0,0,0,1.1,1.653,7.118,7.118,0,0,0,1.955,1.3,19.119,19.119,0,0,0,2.943,1.061c1.281.364,2.332.7,3.127.991a10.532,10.532,0,0,1,1.972.922,3.189,3.189,0,0,1,1.17,1.172,2.913,2.913,0,0,1,.331,1.375,2.962,2.962,0,0,1-1.5,2.569,7.015,7.015,0,0,1-3.811.847,23.409,23.409,0,0,1-4.28-.424,22.417,22.417,0,0,1-3.382-.92Z" transform="translate(-403.473 1017.217)" fill="#12263f"/>
      </g>
      <g id="Grupo_91202" data-name="Grupo 91202" transform="translate(45.883 8.812)">
        <path id="Trazado_136692" data-name="Trazado 136692" d="M469.062-981.95h-5.7a.845.845,0,0,1-.845-.845V-990.6l.131-2.374a9.4,9.4,0,0,1-1.619,1.147,8.906,8.906,0,0,1-2.1.84,9.625,9.625,0,0,1-2.434.3,8.937,8.937,0,0,1-4.127-.935,8.509,8.509,0,0,1-3.047-2.656,12.331,12.331,0,0,1-1.823-4.051,20.39,20.39,0,0,1-.612-5.171,17.426,17.426,0,0,1,.813-5.441,11.893,11.893,0,0,1,2.48-4.337,11.142,11.142,0,0,1,4.131-2.821,15.153,15.153,0,0,1,5.668-.985c.416,0,.877.025,1.37.074s.963.108,1.444.18.963.164,1.413.27c.356.084.684.172.98.264l3.7-.816a.844.844,0,0,1,.711.167.843.843,0,0,1,.316.658v33.494A.845.845,0,0,1,469.062-981.95Zm-4.858-.845h0Zm0-.845h4.013v-31.6l-2.9.639a.853.853,0,0,1-.448-.024c-.3-.1-.66-.2-1.061-.295s-.834-.178-1.275-.244-.907-.125-1.361-.17c-.437-.044-.842-.066-1.2-.066a13.493,13.493,0,0,0-5.036.862,9.475,9.475,0,0,0-3.513,2.391,10.222,10.222,0,0,0-2.124,3.727,15.747,15.747,0,0,0-.729,4.913,18.745,18.745,0,0,0,.556,4.741,10.65,10.65,0,0,0,1.565,3.5,6.822,6.822,0,0,0,2.445,2.135,7.264,7.264,0,0,0,3.354.748,7.948,7.948,0,0,0,2.006-.241,7.227,7.227,0,0,0,1.707-.68,7.691,7.691,0,0,0,1.452-1.053,12.52,12.52,0,0,0,1.3-1.4.849.849,0,0,1,.962-.261.846.846,0,0,1,.542.836l-.257,4.629Zm-6.384-11.937a4.543,4.543,0,0,1-2.149-.507,4.182,4.182,0,0,1-1.628-1.614,7.989,7.989,0,0,1-.9-2.548,18.872,18.872,0,0,1-.284-3.515,13.114,13.114,0,0,1,.453-3.561,8.356,8.356,0,0,1,1.343-2.794,6.349,6.349,0,0,1,2.17-1.83,6.229,6.229,0,0,1,2.862-.653,13.184,13.184,0,0,1,2.135.175,9.682,9.682,0,0,1,1.834.465.845.845,0,0,1,.545.79v10.378a.844.844,0,0,1-.161.495,21.1,21.1,0,0,1-2.9,3.338A4.933,4.933,0,0,1,457.819-995.577Zm1.87-15.333a4.549,4.549,0,0,0-2.093.469,4.656,4.656,0,0,0-1.594,1.349,6.689,6.689,0,0,0-1.063,2.232,11.42,11.42,0,0,0-.389,3.1,17.2,17.2,0,0,0,.253,3.194,6.333,6.333,0,0,0,.692,2.009,2.5,2.5,0,0,0,.967.981,2.821,2.821,0,0,0,1.357.311,3.259,3.259,0,0,0,2.2-.954,18.87,18.87,0,0,0,2.5-2.847v-9.486q-.429-.115-.964-.2A11.482,11.482,0,0,0,459.689-1010.91Z" transform="translate(-446.877 1017.134)" fill="#12263f"/>
      </g>
      <g id="Grupo_91203" data-name="Grupo 91203" transform="translate(73.814 0)">
        <path id="Trazado_136693" data-name="Trazado 136693" d="M517.527-998.061H497.309a.845.845,0,0,1-.845-.845v-4.441a.845.845,0,0,1,.845-.845h6.681v-22.455h-5.863a.845.845,0,0,1-.845-.845v-4.441a.845.845,0,0,1,.845-.845h12.552a.845.845,0,0,1,.845.845v27.741h6a.844.844,0,0,1,.845.845v4.441A.844.844,0,0,1,517.527-998.061Zm-19.373-1.69h18.528v-2.751h-6a.845.845,0,0,1-.845-.845v-27.741H498.972v2.751h5.863a.845.845,0,0,1,.845.845v24.145a.845.845,0,0,1-.845.845h-6.681Z" transform="translate(-496.464 1032.778)" fill="#12263f"/>
      </g>
    </g>
  </g>
</svg>
