<svg xmlns="http://www.w3.org/2000/svg" width="174.625" height="103.539" viewBox="0 0 174.625 103.539">
  <g id="Grupo_986586" data-name="Grupo 986586" transform="translate(-430.656 -2987.984)">
    <path id="Trazado_659720" data-name="Trazado 659720" d="M8.141,11.336H5.07v3.188H3.727V11.336H.656V10.148h3.07V6.984H5.07v3.164h3.07Zm7.391.047H10.859V10.1h4.672Zm8.8,0H19.656V10.1h4.672Zm8.8,0H28.453V10.1h4.672Zm8.8,0H37.25V10.1h4.672Zm8.8,0H46.047V10.1h4.672Zm8.8,0H54.844V10.1h4.672Zm8.8,0H63.641V10.1h4.672Zm8.8,0H72.438V10.1h4.672Zm8.8,0H81.234V10.1h4.672Zm8.8,0H90.031V10.1H94.7Zm8.8,0H98.828V10.1H103.5Zm8.8,0h-4.672V10.1H112.3Zm8.8,0h-4.672V10.1h4.672Zm8.8,0h-4.672V10.1h4.672Zm8.8,0h-4.672V10.1h4.672Zm8.8,0h-4.672V10.1h4.672Zm8.8,0h-4.672V10.1h4.672Zm8.8,0h-4.672V10.1h4.672Zm10.2-.047h-3.07v3.188h-1.344V11.336H167.8V10.148h3.07V6.984h1.344v3.164h3.07ZM5.039,42.2H3.758v-16H5.039Zm20.68-12.227H22.7V39H21.289V29.977H18.266V28.789h7.453ZM32.68,39l-.031-1.055a4.252,4.252,0,0,1-1.3.914,3.5,3.5,0,0,1-1.387.281,3.4,3.4,0,0,1-1.148-.172,2.152,2.152,0,0,1-.785-.473,1.832,1.832,0,0,1-.453-.707,2.616,2.616,0,0,1-.145-.883,2.191,2.191,0,0,1,.879-1.848,4.251,4.251,0,0,1,2.6-.668h1.625V33.7a1.455,1.455,0,0,0-.445-1.113,1.927,1.927,0,0,0-1.359-.418,5.812,5.812,0,0,0-1.309.148,9.2,9.2,0,0,0-1.332.422V31.516q.258-.094.574-.184t.668-.16q.352-.07.734-.113a6.928,6.928,0,0,1,.773-.043,4.851,4.851,0,0,1,1.281.156,2.6,2.6,0,0,1,.965.477,2.1,2.1,0,0,1,.605.8,2.84,2.84,0,0,1,.211,1.141V39Zm-.148-3.57H30.8a3.311,3.311,0,0,0-.875.1,1.661,1.661,0,0,0-.6.289,1.16,1.16,0,0,0-.348.449,1.471,1.471,0,0,0-.113.59,1.339,1.339,0,0,0,.07.434.964.964,0,0,0,.227.367,1.094,1.094,0,0,0,.406.254,1.743,1.743,0,0,0,.609.094,2.576,2.576,0,0,0,1.074-.285,5.249,5.249,0,0,0,1.277-.9Zm10.609-.492a5.264,5.264,0,0,1-.27,1.746,3.68,3.68,0,0,1-.766,1.3,3.292,3.292,0,0,1-1.207.82,4.27,4.27,0,0,1-1.6.285,7.9,7.9,0,0,1-1.422-.133,7.29,7.29,0,0,1-1.437-.422V27.961H37.8V31l-.062,1.453a3.528,3.528,0,0,1,1.254-1.113,3.24,3.24,0,0,1,1.434-.324,2.4,2.4,0,0,1,1.18.281,2.448,2.448,0,0,1,.852.793,3.751,3.751,0,0,1,.516,1.234A6.984,6.984,0,0,1,43.141,34.938ZM41.75,35a6.617,6.617,0,0,0-.09-1.133,2.956,2.956,0,0,0-.285-.883,1.567,1.567,0,0,0-.5-.574,1.262,1.262,0,0,0-.727-.207,1.767,1.767,0,0,0-.523.082,2.123,2.123,0,0,0-.551.273,4.1,4.1,0,0,0-.6.508,8,8,0,0,0-.676.785v3.8a5.3,5.3,0,0,0,.813.246,3.724,3.724,0,0,0,.789.09,2.7,2.7,0,0,0,.895-.148,1.847,1.847,0,0,0,.75-.5,2.482,2.482,0,0,0,.516-.922A4.561,4.561,0,0,0,41.75,35Zm6.156-5.922h-2.32V27.961h3.7v9.906h2.336V39H45.328V37.867h2.578Zm12.75,5.586q0,.289-.008.484t-.023.367H55.117a2.441,2.441,0,0,0,.672,1.848,2.69,2.69,0,0,0,1.938.645q.344,0,.688-.027t.664-.074q.32-.047.613-.105t.543-.129v1.117a9.49,9.49,0,0,1-1.254.254,10.47,10.47,0,0,1-1.449.1,4.928,4.928,0,0,1-1.734-.273,2.969,2.969,0,0,1-1.191-.793,3.265,3.265,0,0,1-.687-1.273,6.026,6.026,0,0,1-.223-1.707,5.069,5.069,0,0,1,.238-1.566,3.932,3.932,0,0,1,.7-1.3,3.3,3.3,0,0,1,2.629-1.215,3.827,3.827,0,0,1,1.453.258,2.918,2.918,0,0,1,1.066.73,3.114,3.114,0,0,1,.656,1.148A4.814,4.814,0,0,1,60.656,34.664Zm-1.414-.2a2.963,2.963,0,0,0-.1-.957,2.014,2.014,0,0,0-.387-.746,1.8,1.8,0,0,0-.652-.488A2.189,2.189,0,0,0,57.2,32.1a1.893,1.893,0,0,0-.812.172,1.853,1.853,0,0,0-.633.484,2.5,2.5,0,0,0-.43.75,3.458,3.458,0,0,0-.2.961Zm9.8,2.391a1.867,1.867,0,0,1-.141.742,1.947,1.947,0,0,1-.383.582,2.382,2.382,0,0,1-.562.434,3.739,3.739,0,0,1-.684.3,4.5,4.5,0,0,1-.746.172,5.3,5.3,0,0,1-.75.055,14.057,14.057,0,0,1-1.465-.07A9.881,9.881,0,0,1,63,38.844v-1.25a10.889,10.889,0,0,0,1.367.3,9.135,9.135,0,0,0,1.352.1,3.033,3.033,0,0,0,1.445-.266.831.831,0,0,0,.469-.758.928.928,0,0,0-.074-.379.861.861,0,0,0-.27-.32,2.576,2.576,0,0,0-.605-.316q-.41-.164-1.121-.375a7.958,7.958,0,0,1-.98-.355,3.288,3.288,0,0,1-.777-.473,2.03,2.03,0,0,1-.516-.641,1.884,1.884,0,0,1-.187-.867,1.993,1.993,0,0,1,.152-.719,1.953,1.953,0,0,1,.52-.727,2.891,2.891,0,0,1,.992-.559,4.706,4.706,0,0,1,1.563-.223q.461,0,1.023.051a10.569,10.569,0,0,1,1.172.176v1.211a11.2,11.2,0,0,0-1.215-.23,7.915,7.915,0,0,0-1-.074,3.975,3.975,0,0,0-.855.078,1.775,1.775,0,0,0-.562.215.839.839,0,0,0-.309.32.855.855,0,0,0-.094.395.877.877,0,0,0,.082.383.916.916,0,0,0,.3.332,3,3,0,0,0,.621.32q.4.16,1.039.348a8.312,8.312,0,0,1,1.172.426,3.024,3.024,0,0,1,.773.5,1.6,1.6,0,0,1,.426.617A2.214,2.214,0,0,1,69.039,36.859ZM79.172,42.2h-8.8V41.078h8.8Zm3.922-9.922h-2.32V31.156h3.7v6.711H86.8V39H80.516V37.867h2.578Zm.477-4.414a1.078,1.078,0,0,1,.422.082,1.02,1.02,0,0,1,.34.23,1.109,1.109,0,0,1,.227.34,1.1,1.1,0,0,1,0,.832,1.1,1.1,0,0,1-.227.344,1.02,1.02,0,0,1-.34.23,1.126,1.126,0,0,1-.844,0,1.02,1.02,0,0,1-.34-.23,1.1,1.1,0,0,1-.227-.344,1.1,1.1,0,0,1,0-.832,1.109,1.109,0,0,1,.227-.34,1.02,1.02,0,0,1,.34-.23A1.078,1.078,0,0,1,83.57,27.867Zm5.648,3.289H90.43l.055,1.266a5.663,5.663,0,0,1,.664-.676,3.641,3.641,0,0,1,.629-.434,2.355,2.355,0,0,1,.629-.23,3.263,3.263,0,0,1,.664-.066,2.3,2.3,0,0,1,1.832.715,3.207,3.207,0,0,1,.621,2.152V39H94.164V33.992a2.21,2.21,0,0,0-.344-1.363,1.217,1.217,0,0,0-1.023-.441,1.633,1.633,0,0,0-.488.074,1.78,1.78,0,0,0-.5.258,4.1,4.1,0,0,0-.559.5q-.3.312-.676.781V39H89.219ZM105.563,42.2h-8.8V41.078h8.8Zm7.953-7.266a5.2,5.2,0,0,1-.293,1.828,3.581,3.581,0,0,1-.809,1.3,3.314,3.314,0,0,1-1.219.773,4.392,4.392,0,0,1-1.523.258,7.122,7.122,0,0,1-.746-.039,5.659,5.659,0,0,1-.754-.133V42.2h-1.359V31.156h1.211l.086,1.313a3.5,3.5,0,0,1,1.25-1.129,3.232,3.232,0,0,1,1.438-.324,2.4,2.4,0,0,1,1.18.281,2.448,2.448,0,0,1,.852.793,3.751,3.751,0,0,1,.516,1.234A6.983,6.983,0,0,1,113.516,34.938ZM112.125,35a6.617,6.617,0,0,0-.09-1.133,2.956,2.956,0,0,0-.285-.883,1.567,1.567,0,0,0-.5-.574,1.262,1.262,0,0,0-.727-.207,1.768,1.768,0,0,0-.523.082,2.123,2.123,0,0,0-.551.273,4.1,4.1,0,0,0-.6.508,8,8,0,0,0-.676.785v3.8a4.562,4.562,0,0,0,.789.246,3.825,3.825,0,0,0,.813.09,2.131,2.131,0,0,0,1.727-.746A3.434,3.434,0,0,0,112.125,35Zm3.8-3.844h1.242l.039,1.445a5.035,5.035,0,0,1,1.371-1.211,2.784,2.784,0,0,1,1.363-.375,2.222,2.222,0,0,1,1.848.789,3.528,3.528,0,0,1,.582,2.344H121a2.567,2.567,0,0,0-.3-1.5,1.084,1.084,0,0,0-.949-.465,1.65,1.65,0,0,0-.551.1,2.225,2.225,0,0,0-.57.313,5.109,5.109,0,0,0-.621.551,10.169,10.169,0,0,0-.7.813V39H115.93ZM130.711,39h-1.219l-.047-1.266a6.331,6.331,0,0,1-.668.676,3.453,3.453,0,0,1-.629.434,2.421,2.421,0,0,1-.629.23,3.246,3.246,0,0,1-.668.066,2.29,2.29,0,0,1-1.828-.711,3.205,3.205,0,0,1-.617-2.148V31.156h1.359v5.016q0,1.8,1.359,1.8a1.633,1.633,0,0,0,.488-.074,1.834,1.834,0,0,0,.5-.258,3.956,3.956,0,0,0,.563-.5q.3-.312.676-.789v-5.2h1.359Zm9.117-4.336q0,.289-.008.484t-.023.367h-5.508a2.441,2.441,0,0,0,.672,1.848,2.69,2.69,0,0,0,1.938.645q.344,0,.688-.027t.664-.074q.32-.047.613-.105t.543-.129v1.117a9.49,9.49,0,0,1-1.254.254,10.47,10.47,0,0,1-1.449.1,4.928,4.928,0,0,1-1.734-.273,2.968,2.968,0,0,1-1.191-.793,3.265,3.265,0,0,1-.687-1.273,6.026,6.026,0,0,1-.223-1.707,5.069,5.069,0,0,1,.238-1.566,3.932,3.932,0,0,1,.7-1.3,3.3,3.3,0,0,1,2.629-1.215,3.827,3.827,0,0,1,1.453.258,2.918,2.918,0,0,1,1.066.73,3.114,3.114,0,0,1,.656,1.148A4.814,4.814,0,0,1,139.828,34.664Zm-1.414-.2a2.964,2.964,0,0,0-.1-.957,2.014,2.014,0,0,0-.387-.746,1.8,1.8,0,0,0-.652-.488,2.189,2.189,0,0,0-.906-.176,1.893,1.893,0,0,0-.812.172,1.853,1.853,0,0,0-.633.484,2.5,2.5,0,0,0-.43.75,3.458,3.458,0,0,0-.2.961Zm10.289.469a5.264,5.264,0,0,1-.27,1.746,3.68,3.68,0,0,1-.766,1.3,3.292,3.292,0,0,1-1.207.82,4.27,4.27,0,0,1-1.6.285,7.9,7.9,0,0,1-1.422-.133A7.29,7.29,0,0,1,142,38.539V27.961h1.359V31l-.062,1.453a3.528,3.528,0,0,1,1.254-1.113,3.24,3.24,0,0,1,1.434-.324,2.4,2.4,0,0,1,1.18.281,2.448,2.448,0,0,1,.852.793,3.751,3.751,0,0,1,.516,1.234A6.984,6.984,0,0,1,148.7,34.938ZM147.313,35a6.617,6.617,0,0,0-.09-1.133,2.956,2.956,0,0,0-.285-.883,1.566,1.566,0,0,0-.5-.574,1.262,1.262,0,0,0-.727-.207,1.767,1.767,0,0,0-.523.082,2.123,2.123,0,0,0-.551.273,4.1,4.1,0,0,0-.6.508,8,8,0,0,0-.676.785v3.8a5.3,5.3,0,0,0,.813.246,3.724,3.724,0,0,0,.789.09,2.7,2.7,0,0,0,.895-.148,1.847,1.847,0,0,0,.75-.5,2.482,2.482,0,0,0,.516-.922A4.561,4.561,0,0,0,147.313,35Zm8.523,4-.031-1.055a4.251,4.251,0,0,1-1.3.914,3.5,3.5,0,0,1-1.387.281,3.4,3.4,0,0,1-1.148-.172,2.152,2.152,0,0,1-.785-.473,1.832,1.832,0,0,1-.453-.707,2.616,2.616,0,0,1-.145-.883,2.191,2.191,0,0,1,.879-1.848,4.251,4.251,0,0,1,2.6-.668h1.625V33.7a1.455,1.455,0,0,0-.445-1.113,1.927,1.927,0,0,0-1.359-.418,5.812,5.812,0,0,0-1.309.148,9.2,9.2,0,0,0-1.332.422V31.516q.258-.094.574-.184t.668-.16q.352-.07.734-.113a6.928,6.928,0,0,1,.773-.043,4.851,4.851,0,0,1,1.281.156,2.6,2.6,0,0,1,.965.477,2.1,2.1,0,0,1,.605.8,2.84,2.84,0,0,1,.211,1.141V39Zm-.148-3.57h-1.727a3.311,3.311,0,0,0-.875.1,1.661,1.661,0,0,0-.6.289,1.16,1.16,0,0,0-.348.449,1.471,1.471,0,0,0-.113.59,1.339,1.339,0,0,0,.07.434.964.964,0,0,0,.227.367,1.094,1.094,0,0,0,.406.254,1.743,1.743,0,0,0,.609.094,2.576,2.576,0,0,0,1.074-.285,5.249,5.249,0,0,0,1.277-.9ZM172.18,42.2H170.9v-16h1.281ZM8.141,59.336H5.07v3.188H3.727V59.336H.656V58.148h3.07V54.984H5.07v3.164h3.07Zm7.391.047H10.859V58.1h4.672Zm8.8,0H19.656V58.1h4.672Zm8.8,0H28.453V58.1h4.672Zm8.8,0H37.25V58.1h4.672Zm8.8,0H46.047V58.1h4.672Zm8.8,0H54.844V58.1h4.672Zm8.8,0H63.641V58.1h4.672Zm8.8,0H72.438V58.1h4.672Zm8.8,0H81.234V58.1h4.672Zm8.8,0H90.031V58.1H94.7Zm8.8,0H98.828V58.1H103.5Zm8.8,0h-4.672V58.1H112.3Zm8.8,0h-4.672V58.1h4.672Zm8.8,0h-4.672V58.1h4.672Zm8.8,0h-4.672V58.1h4.672Zm8.8,0h-4.672V58.1h4.672Zm8.8,0h-4.672V58.1h4.672Zm8.8,0h-4.672V58.1h4.672Zm10.2-.047h-3.07v3.188h-1.344V59.336H167.8V58.148h3.07V54.984h1.344v3.164h3.07ZM5.039,90.2H3.758v-16H5.039Zm19.453-9.937a2.042,2.042,0,0,1,.34.637,2.468,2.468,0,0,1,.121.785A2.724,2.724,0,0,1,24.73,82.8a2.472,2.472,0,0,1-.629.863,2.9,2.9,0,0,1-.973.559,3.733,3.733,0,0,1-1.246.2,3.859,3.859,0,0,1-.922-.105,2.358,2.358,0,0,1-.68-.262,4.17,4.17,0,0,0-.25.414.934.934,0,0,0-.1.438.58.58,0,0,0,.285.492,1.4,1.4,0,0,0,.754.211l2.063.078a4.659,4.659,0,0,1,1.082.148,2.665,2.665,0,0,1,.852.383,1.794,1.794,0,0,1,.555.617,1.758,1.758,0,0,1,.2.852,2.212,2.212,0,0,1-.926,1.816,3.693,3.693,0,0,1-1.2.566,6.237,6.237,0,0,1-1.727.211,7.4,7.4,0,0,1-1.621-.152,3.552,3.552,0,0,1-1.1-.422,1.7,1.7,0,0,1-.625-.641,1.726,1.726,0,0,1-.2-.816,1.863,1.863,0,0,1,.266-1,3,3,0,0,1,.82-.828,1.289,1.289,0,0,1-.594-.543,1.445,1.445,0,0,1-.141-.355,1.511,1.511,0,0,1-.047-.367,1.858,1.858,0,0,1,.238-.93,4.773,4.773,0,0,1,.566-.8,4.079,4.079,0,0,1-.262-.352,2.156,2.156,0,0,1-.32-.8,2.9,2.9,0,0,1-.043-.527,2.724,2.724,0,0,1,.223-1.113,2.5,2.5,0,0,1,.625-.863,2.858,2.858,0,0,1,.969-.559,3.758,3.758,0,0,1,1.254-.2,3.811,3.811,0,0,1,.555.039,3.176,3.176,0,0,1,.469.1H25.75v1.109Zm-4.719,7.867a.845.845,0,0,0,.578.809,4.106,4.106,0,0,0,1.609.254,4.317,4.317,0,0,0,1.09-.117,2.2,2.2,0,0,0,.711-.309,1.123,1.123,0,0,0,.5-.941.757.757,0,0,0-.391-.7,2.723,2.723,0,0,0-1.2-.266l-2.047-.07a2.962,2.962,0,0,0-.426.336,1.476,1.476,0,0,0-.262.332,1.288,1.288,0,0,0-.133.336A1.5,1.5,0,0,0,19.773,88.133Zm.414-6.414a1.835,1.835,0,0,0,.125.688,1.5,1.5,0,0,0,.352.531,1.605,1.605,0,0,0,.535.34,1.857,1.857,0,0,0,.684.121,1.806,1.806,0,0,0,.723-.137,1.536,1.536,0,0,0,.531-.371,1.63,1.63,0,0,0,.328-.539,1.8,1.8,0,0,0,.113-.633,1.835,1.835,0,0,0-.125-.687A1.5,1.5,0,0,0,23.1,80.5a1.605,1.605,0,0,0-.535-.34,1.857,1.857,0,0,0-.684-.121,1.763,1.763,0,0,0-.723.141,1.608,1.608,0,0,0-.531.371,1.587,1.587,0,0,0-.328.535A1.8,1.8,0,0,0,20.188,81.719Zm14.078.945q0,.289-.008.484t-.023.367H28.727a2.441,2.441,0,0,0,.672,1.848,2.69,2.69,0,0,0,1.938.645q.344,0,.688-.027t.664-.074q.32-.047.613-.105t.543-.129v1.117a9.49,9.49,0,0,1-1.254.254,10.471,10.471,0,0,1-1.449.1,4.928,4.928,0,0,1-1.734-.273,2.969,2.969,0,0,1-1.191-.793,3.265,3.265,0,0,1-.687-1.273,6.026,6.026,0,0,1-.223-1.707,5.069,5.069,0,0,1,.238-1.566,3.932,3.932,0,0,1,.7-1.3,3.3,3.3,0,0,1,2.629-1.215,3.827,3.827,0,0,1,1.453.258,2.918,2.918,0,0,1,1.066.73,3.114,3.114,0,0,1,.656,1.148A4.815,4.815,0,0,1,34.266,82.664Zm-1.414-.2a2.963,2.963,0,0,0-.1-.957,2.014,2.014,0,0,0-.387-.746,1.8,1.8,0,0,0-.652-.488A2.189,2.189,0,0,0,30.8,80.1a1.893,1.893,0,0,0-.812.172,1.853,1.853,0,0,0-.633.484,2.5,2.5,0,0,0-.43.75,3.458,3.458,0,0,0-.2.961Zm3.586-3.312h1.211l.055,1.266a5.663,5.663,0,0,1,.664-.676A3.641,3.641,0,0,1,39,79.313a2.355,2.355,0,0,1,.629-.23,3.263,3.263,0,0,1,.664-.066,2.3,2.3,0,0,1,1.832.715,3.207,3.207,0,0,1,.621,2.152V87H41.383V81.992a2.21,2.21,0,0,0-.344-1.363,1.217,1.217,0,0,0-1.023-.441,1.633,1.633,0,0,0-.488.074,1.78,1.78,0,0,0-.5.258,4.1,4.1,0,0,0-.559.5q-.3.313-.676.781V87H36.438Zm15.117,7.734a6.621,6.621,0,0,1-.953.168,9.739,9.739,0,0,1-1,.051,3.162,3.162,0,0,1-2.2-.668,2.655,2.655,0,0,1-.727-2.051V80.3h-2.2V79.156h2.2V77l1.359-.352v2.508h3.523V80.3H48.031v3.984a1.643,1.643,0,0,0,.449,1.262,1.879,1.879,0,0,0,1.324.418,6.322,6.322,0,0,0,.82-.059,7.8,7.8,0,0,0,.93-.184Zm9.1-4.227q0,.289-.008.484t-.023.367H55.117a2.441,2.441,0,0,0,.672,1.848,2.69,2.69,0,0,0,1.938.645q.344,0,.688-.027t.664-.074q.32-.047.613-.105t.543-.129v1.117a9.49,9.49,0,0,1-1.254.254,10.471,10.471,0,0,1-1.449.1,4.928,4.928,0,0,1-1.734-.273,2.969,2.969,0,0,1-1.191-.793,3.265,3.265,0,0,1-.687-1.273,6.026,6.026,0,0,1-.223-1.707,5.069,5.069,0,0,1,.238-1.566,3.932,3.932,0,0,1,.7-1.3,3.3,3.3,0,0,1,2.629-1.215,3.827,3.827,0,0,1,1.453.258,2.918,2.918,0,0,1,1.066.73,3.114,3.114,0,0,1,.656,1.148A4.815,4.815,0,0,1,60.656,82.664Zm-1.414-.2a2.963,2.963,0,0,0-.1-.957,2.014,2.014,0,0,0-.387-.746,1.8,1.8,0,0,0-.652-.488A2.189,2.189,0,0,0,57.2,80.1a1.893,1.893,0,0,0-.812.172,1.853,1.853,0,0,0-.633.484,2.5,2.5,0,0,0-.43.75,3.458,3.458,0,0,0-.2.961ZM172.18,90.2H170.9v-16h1.281ZM8.141,107.336H5.07v3.188H3.727v-3.187H.656v-1.187h3.07v-3.164H5.07v3.164h3.07Zm7.391.047H10.859V106.1h4.672Zm8.8,0H19.656V106.1h4.672Zm8.8,0H28.453V106.1h4.672Zm8.8,0H37.25V106.1h4.672Zm8.8,0H46.047V106.1h4.672Zm8.8,0H54.844V106.1h4.672Zm8.8,0H63.641V106.1h4.672Zm8.8,0H72.438V106.1h4.672Zm8.8,0H81.234V106.1h4.672Zm8.8,0H90.031V106.1H94.7Zm8.8,0H98.828V106.1H103.5Zm8.8,0h-4.672V106.1H112.3Zm8.8,0h-4.672V106.1h4.672Zm8.8,0h-4.672V106.1h4.672Zm8.8,0h-4.672V106.1h4.672Zm8.8,0h-4.672V106.1h4.672Zm8.8,0h-4.672V106.1h4.672Zm8.8,0h-4.672V106.1h4.672Zm10.2-.047h-3.07v3.188h-1.344v-3.187H167.8v-1.187h3.07v-3.164h1.344v3.164h3.07Z" transform="translate(430 2981)" fill="#f4a338"/>
  </g>
</svg>
