<svg id="Grupo_980529" data-name="Grupo 980529" xmlns="http://www.w3.org/2000/svg" xmlns:xlink="http://www.w3.org/1999/xlink" width="106.881" height="106.881" viewBox="0 0 106.881 106.881">
  <defs>
    <radialGradient id="radial-gradient" cx="0.076" cy="0.019" r="1.465" gradientTransform="translate(0.001)" gradientUnits="objectBoundingBox">
      <stop offset="0" stop-color="#f6f6f7"/>
      <stop offset="0.477" stop-color="#f9f9fa"/>
      <stop offset="0.715" stop-color="#fff"/>
    </radialGradient>
  </defs>
  <g id="Grupo_18423" data-name="Grupo 18423" transform="translate(0 0)">
    <g id="Grupo_18421" data-name="Grupo 18421">
      <g id="Grupo_18420" data-name="Grupo 18420">
        <g id="Grupo_18419" data-name="Grupo 18419">
          <path id="Trazado_40936" data-name="Trazado 40936" d="M301.5,2199.16a53.441,53.441,0,1,1-53.44-53.439A53.439,53.439,0,0,1,301.5,2199.16Z" transform="translate(-194.623 -2145.721)" fill="#fff"/>
        </g>
      </g>
    </g>
    <path id="Trazado_40937" data-name="Trazado 40937" d="M300.993,2198.6a53.439,53.439,0,1,0-53.44,53.442A53.229,53.229,0,0,0,300.993,2198.6Z" transform="translate(-194.112 -2145.164)" fill="url(#radial-gradient)"/>
    <path id="Trazado_40938" data-name="Trazado 40938" d="M283.829,2194.109a40.791,40.791,0,1,0-40.791,40.791A40.639,40.639,0,0,0,283.829,2194.109Z" transform="translate(-189.435 -2140.492)" fill="none" stroke="#f4a338" stroke-miterlimit="10" stroke-width="4"/>
    <g id="Grupo_18422" data-name="Grupo 18422" transform="translate(9.468 30.003)">
      <path id="Trazado_40939" data-name="Trazado 40939" d="M292.555,2164.488a53.447,53.447,0,0,1-92.01,53.219,53.277,53.277,0,0,0,92.01-53.219Z" transform="translate(-200.545 -2164.488)" fill="#eceef0"/>
    </g>
  </g>
  <g id="YhmUKV.tif" transform="translate(31.146 27.275)">
    <g id="Grupo_143142" data-name="Grupo 143142">
      <path id="Trazado_184367" data-name="Trazado 184367" d="M3282.524-2524.084h-1.706c0-.931-.034-1.849.012-2.762.03-.587-.143-.774-.749-.768-2.794.031-5.588.026-8.382,0-.528,0-.731.127-.705.686.044.938.012,1.879.012,2.844h-1.715v-3.543h-.824q-6.564,0-13.128,0a3.473,3.473,0,0,1-3.743-3.669q-.019-12.67,0-25.34a3.472,3.472,0,0,1,2.631-3.573,6.942,6.942,0,0,1,.855-.105c0,.523.025.971-.016,1.413-.011.121-.2.275-.342.324a1.855,1.855,0,0,0-1.418,1.985c-.006,7.131,0,14.262-.016,21.394,0,.579.293.557.689.557q7.489-.007,14.978,0h27.8c.862,0,.863,0,.863-.866q0-10.481,0-20.962c0-1.493-.638-2.125-2.14-2.127a5.562,5.562,0,0,0-.739.005c-.526.07-.655-.156-.654-.656,0-1.3-.058-1.059,1.086-1.071a6.84,6.84,0,0,1,1.472.082,3.389,3.389,0,0,1,2.7,3.319q.01,12.978-.019,25.956a3.4,3.4,0,0,1-3.492,3.335c-4.15.011-8.3,0-12.45,0-.852,0-.853,0-.853.88C3282.524-2525.881,3282.524-2525.02,3282.524-2524.084Zm-7.075-5.246c6.491,0,12.982-.035,19.472.021,1.953.017,2.849-.556,2.7-2.718-.069-1.016.1-.9-.95-.9q-21.013,0-42.027,0c-1.353,0-1.353,0-1.348,1.357.006,1.591.659,2.245,2.246,2.245Z" transform="translate(-3251.588 2576.268)" fill="#12263f"/>
      <path id="Trazado_184368" data-name="Trazado 184368" d="M3296.293-2620.894h-1.706v-22.642q0-3.946,0-7.891c0-1.541.629-2.16,2.178-2.16h26.568c1.585,0,2.187.607,2.187,2.2q0,9.558,0,19.115v.753h-1.708v-.768c0-6.269-.008-12.538.013-18.807,0-.607-.131-.8-.776-.8q-13.006.033-26.013,0c-.594,0-.779.161-.758.759.043,1.272.013,2.548.013,3.822,0,.812,0,.814.8.814h21.35c0,.5.024.95-.016,1.392-.01.115-.207.26-.346.3a1.894,1.894,0,0,1-.551.014c-6.822,0-13.643.009-20.465-.014-.633,0-.785.174-.783.793q.032,11.13.014,22.26Z" transform="translate(-3289.275 2658.008)" fill="#12263f"/>
      <path id="Trazado_184369" data-name="Trazado 184369" d="M3325.426-2557.5c.863.357,1.645.664,2.411,1.007.333.149.514.057.8-.156a1.313,1.313,0,0,0,.384-1.971,14.592,14.592,0,0,1-.728-1.741l5.065-2.1c.327.787.666,1.526.939,2.289.166.463.4.684.9.572a1.237,1.237,0,0,1,.49.01c.4.077.589-.112.727-.471.3-.783.638-1.551.99-2.4l5.067,2.1c-.333.811-.622,1.577-.962,2.321a.776.776,0,0,0,.176.952,1.255,1.255,0,0,0,1.873.338,15.42,15.42,0,0,1,1.775-.747l2.1,5.07c-.807.335-1.553.667-2.315.954-.4.149-.632.336-.55.8a5.811,5.811,0,0,0,.02.673.988.988,0,0,0,.383.575c.776.37,1.579.68,2.457,1.048l-2.093,5.066c-.807-.331-1.571-.623-2.314-.959a.705.705,0,0,0-.959.179c-.745.814-.768.793-.354,1.8.241.587.485,1.173.761,1.841l-5.063,2.1c-.339-.807-.683-1.57-.977-2.352-.145-.385-.338-.58-.765-.512a1.989,1.989,0,0,1-.615,0c-.4-.064-.584.131-.72.485-.3.783-.635,1.552-.978,2.381l-5.068-2.1c.346-.84.645-1.623.991-2.385.164-.361.043-.552-.172-.854-.577-.811-1.2-.772-1.981-.341a16.731,16.731,0,0,1-1.7.717l-2.1-5.065c.826-.346,1.592-.685,2.373-.984a.645.645,0,0,0,.5-.718c-.034-1.167-.016-1.167-1.085-1.608-.568-.234-1.134-.471-1.781-.741Zm.181,4.132c.75.311,1.405.6,2.075.853.358.134.4.323.383.7a26.184,26.184,0,0,0,0,2.877c.019.355-.049.519-.373.644-.684.265-1.355.564-2.085.871l.738,1.762a.829.829,0,0,0,.2,0q.686-.276,1.369-.559c.949-.4.938-.387,1.564.392a9.327,9.327,0,0,0,.968,1.032c.358.327.758.608,1.137.907l-1.007,2.517,1.837.754c.292-.7.578-1.338.815-1.99.142-.391.323-.5.764-.463a18.93,18.93,0,0,0,2.755.006c.423-.029.628.033.775.445.237.666.54,1.308.832,2l1.834-.77c-.3-.722-.554-1.389-.845-2.041a.568.568,0,0,1,.191-.779,23.941,23.941,0,0,0,2.033-2.039.556.556,0,0,1,.773-.187c.655.289,1.321.551,2.047.85l.765-1.84c-.708-.3-1.358-.6-2.028-.844-.384-.143-.444-.353-.423-.744a23.845,23.845,0,0,0,0-2.755c-.026-.424.053-.634.459-.78.666-.24,1.312-.536,1.995-.821l-.766-1.836c-.724.294-1.4.538-2.042.841-.379.177-.552.062-.812-.232a21.215,21.215,0,0,0-1.95-1.948c-.328-.285-.4-.49-.224-.875.293-.628.537-1.279.828-1.984l-1.841-.769c-.313.746-.573,1.438-.9,2.094a.788.788,0,0,1-.585.336c-.979.034-1.96-.01-2.939.027-.34.013-.531-.041-.654-.375-.206-.559-.434-1.111-.69-1.648-.069-.144-.313-.344-.407-.312-.535.178-1.049.419-1.6.653.305.743.563,1.413.856,2.066a.521.521,0,0,1-.173.72c-.727.656-1.42,1.353-2.079,2.077-.237.261-.4.33-.72.185-.668-.3-1.355-.559-2.086-.855Z" transform="translate(-3314.464 2578.134)" fill="#12263f"/>
      <path id="Trazado_184370" data-name="Trazado 184370" d="M3361.5-2669.975H3359.8V-2687.6h-27.477v1.685h-1.7a18.66,18.66,0,0,1,.016-2.08,1.638,1.638,0,0,1,1.485-1.357,4.921,4.921,0,0,1,.615-.017h26.625c1.536,0,2.139.595,2.139,2.109q0,8.261,0,16.522Z" transform="translate(-3320.84 2689.368)" fill="#12263f"/>
      <path id="Trazado_184371" data-name="Trazado 184371" d="M3383.122-2257.163l-1.279,1.179c-.355-.354-.719-.766-1.137-1.112a1.393,1.393,0,0,0-.8-.339q-7.573-.03-15.147,0a1.434,1.434,0,0,0-.845.365,13.2,13.2,0,0,0-1.067,1.167l-1.26-1.347c.567-.551,1.157-1.148,1.779-1.708a.979.979,0,0,1,.609-.194q8.343-.015,16.686,0a.975.975,0,0,1,.611.192C3381.9-2258.4,3382.482-2257.793,3383.122-2257.163Z" transform="translate(-3348.002 2312.303)" fill="#12263f"/>
      <path id="Trazado_184372" data-name="Trazado 184372" d="M3354.036-2624.514v1.633h-1.658v-1.633Z" transform="translate(-3339.927 2632.525)" fill="#12263f"/>
      <path id="Trazado_184373" data-name="Trazado 184373" d="M3568.942-2486.632h-1.629v-1.648h1.629Z" transform="translate(-3528.311 2513.12)" fill="#12263f"/>
      <path id="Trazado_184374" data-name="Trazado 184374" d="M3325.266-2622.843h-1.635v-1.633h1.635Z" transform="translate(-3314.732 2632.492)" fill="#12263f"/>
      <path id="Trazado_184375" data-name="Trazado 184375" d="M3380.775-2624.522h1.653v1.625h-1.653Z" transform="translate(-3364.816 2632.532)" fill="#12263f"/>
      <path id="Trazado_184376" data-name="Trazado 184376" d="M3567.272-2515.657v-1.677a2.772,2.772,0,0,1,.387-.053c1.523.021,1.245-.231,1.283,1.3.008.318-.111.445-.43.431C3568.126-2515.67,3567.737-2515.657,3567.272-2515.657Z" transform="translate(-3528.276 2538.635)" fill="#12263f"/>
      <path id="Trazado_184377" data-name="Trazado 184377" d="M3531.562-2459.833h1.6v1.651h-1.6Z" transform="translate(-3496.977 2488.188)" fill="#12263f"/>
      <path id="Trazado_184378" data-name="Trazado 184378" d="M3388.687-2492.585a4.523,4.523,0,0,1-4.524-4.562,4.535,4.535,0,0,1,4.558-4.535,4.559,4.559,0,0,1,4.533,4.569A4.537,4.537,0,0,1,3388.687-2492.585Zm2.818-4.529a2.8,2.8,0,0,0-2.754-2.82,2.817,2.817,0,0,0-2.855,2.789,2.843,2.843,0,0,0,2.825,2.828A2.816,2.816,0,0,0,3391.5-2497.113Z" transform="translate(-3367.786 2524.866)" fill="#12263f"/>
    </g>
  </g>
</svg>
