<svg xmlns="http://www.w3.org/2000/svg" width="561.688" height="151.539" viewBox="0 0 561.688 151.539">
  <g id="Grupo_986587" data-name="Grupo 986587" transform="translate(-424.656 -6019.984)">
    <path id="Trazado_659721" data-name="Trazado 659721" d="M8.141,11.336H5.07v3.188H3.727V11.336H.656V10.148h3.07V6.984H5.07v3.164h3.07Zm7.391.047H10.859V10.1h4.672Zm8.8,0H19.656V10.1h4.672Zm8.8,0H28.453V10.1h4.672Zm8.8,0H37.25V10.1h4.672Zm8.8,0H46.047V10.1h4.672Zm8.8,0H54.844V10.1h4.672Zm8.8,0H63.641V10.1h4.672Zm8.8,0H72.438V10.1h4.672Zm8.8,0H81.234V10.1h4.672Zm8.8,0H90.031V10.1H94.7Zm8.8,0H98.828V10.1H103.5Zm10.2-.047h-3.07v3.188h-1.344V11.336h-3.07V10.148h3.07V6.984h1.344v3.164h3.07Zm7.391.047h-4.672V10.1h4.672Zm8.8,0h-4.672V10.1h4.672Zm8.8,0h-4.672V10.1h4.672Zm8.8,0h-4.672V10.1h4.672Zm8.8,0h-4.672V10.1h4.672Zm8.8,0h-4.672V10.1h4.672Zm8.8,0H169.2V10.1h4.672Zm8.8,0H178V10.1h4.672Zm8.8,0H186.8V10.1h4.672Zm8.8,0h-4.672V10.1h4.672Zm10.2-.047H207.4v3.188h-1.344V11.336h-3.07V10.148h3.07V6.984H207.4v3.164h3.07Zm7.391.047h-4.672V10.1h4.672Zm8.8,0h-4.672V10.1h4.672Zm8.8,0h-4.672V10.1h4.672Zm8.8,0h-4.672V10.1h4.672Zm8.8,0h-4.672V10.1h4.672Zm8.8,0h-4.672V10.1h4.672Zm10.2-.047h-3.07v3.188h-1.344V11.336h-3.07V10.148h3.07V6.984h1.344v3.164h3.07Zm7.391.047h-4.672V10.1h4.672Zm8.8,0h-4.672V10.1h4.672Zm8.8,0h-4.672V10.1h4.672Zm8.8,0h-4.672V10.1h4.672Zm8.8,0h-4.672V10.1h4.672Zm10.2-.047h-3.07v3.188h-1.344V11.336h-3.07V10.148h3.07V6.984h1.344v3.164h3.07Zm7.391.047h-4.672V10.1h4.672Zm8.8,0h-4.672V10.1h4.672Zm8.8,0h-4.672V10.1h4.672Zm8.8,0h-4.672V10.1h4.672Zm8.8,0h-4.672V10.1h4.672Zm8.8,0h-4.672V10.1H376.2Zm8.8,0h-4.672V10.1H385Zm8.8,0h-4.672V10.1H393.8Zm8.8,0h-4.672V10.1h4.672Zm10.2-.047h-3.07v3.188h-1.344V11.336h-3.07V10.148h3.07V6.984h1.344v3.164h3.07Zm7.391.047h-4.672V10.1h4.672Zm8.8,0h-4.672V10.1h4.672Zm8.8,0h-4.672V10.1h4.672Zm8.8,0h-4.672V10.1h4.672Zm8.8,0H450.7V10.1h4.672Zm8.8,0H459.5V10.1h4.672Zm8.8,0H468.3V10.1h4.672Zm8.8,0h-4.672V10.1h4.672Zm8.8,0h-4.672V10.1h4.672Zm8.8,0h-4.672V10.1h4.672Zm8.8,0h-4.672V10.1h4.672Zm8.8,0h-4.672V10.1h4.672Zm8.8,0h-4.672V10.1h4.672Zm8.8,0h-4.672V10.1h4.672Zm8.8,0h-4.672V10.1h4.672Zm8.8,0h-4.672V10.1h4.672Zm10.2-.047h-3.07v3.188H557.93V11.336h-3.07V10.148h3.07V6.984h1.344v3.164h3.07ZM5.039,42.2H3.758v-16H5.039ZM24.953,29.977H20.617v3.313h4.109v1.164H20.617V39H19.2V28.789h5.758Zm5.359,2.3h-2.32V31.156h3.7v6.711h2.336V39H27.734V37.867h2.578Zm.477-4.414a1.078,1.078,0,0,1,.422.082,1.02,1.02,0,0,1,.34.23,1.109,1.109,0,0,1,.227.34,1.1,1.1,0,0,1,0,.832,1.1,1.1,0,0,1-.227.344,1.02,1.02,0,0,1-.34.23,1.126,1.126,0,0,1-.844,0,1.02,1.02,0,0,1-.34-.23,1.1,1.1,0,0,1-.227-.344,1.1,1.1,0,0,1,0-.832,1.109,1.109,0,0,1,.227-.34,1.02,1.02,0,0,1,.34-.23A1.078,1.078,0,0,1,30.789,27.867Zm12.273,6.8q0,.289-.008.484t-.023.367H37.523a2.441,2.441,0,0,0,.672,1.848,2.69,2.69,0,0,0,1.938.645q.344,0,.688-.027t.664-.074q.32-.047.613-.105t.543-.129v1.117a9.49,9.49,0,0,1-1.254.254,10.47,10.47,0,0,1-1.449.1,4.928,4.928,0,0,1-1.734-.273,2.969,2.969,0,0,1-1.191-.793,3.265,3.265,0,0,1-.687-1.273,6.026,6.026,0,0,1-.223-1.707,5.069,5.069,0,0,1,.238-1.566,3.932,3.932,0,0,1,.7-1.3,3.3,3.3,0,0,1,2.629-1.215,3.827,3.827,0,0,1,1.453.258,2.918,2.918,0,0,1,1.066.73,3.114,3.114,0,0,1,.656,1.148A4.814,4.814,0,0,1,43.063,34.664Zm-1.414-.2a2.963,2.963,0,0,0-.1-.957,2.014,2.014,0,0,0-.387-.746,1.8,1.8,0,0,0-.652-.488A2.189,2.189,0,0,0,39.6,32.1a1.893,1.893,0,0,0-.812.172,1.853,1.853,0,0,0-.633.484,2.5,2.5,0,0,0-.43.75,3.458,3.458,0,0,0-.2.961Zm6.258-5.391h-2.32V27.961h3.7v9.906h2.336V39H45.328V37.867h2.578Zm5.727,6.164a5.342,5.342,0,0,1,.273-1.777,3.653,3.653,0,0,1,.777-1.312,3.29,3.29,0,0,1,1.211-.812,4.278,4.278,0,0,1,1.574-.277,5.764,5.764,0,0,1,.738.047,4.772,4.772,0,0,1,.715.148v-3.3h1.367V39H59.07l-.047-1.484a4.11,4.11,0,0,1-1.234,1.227,2.744,2.744,0,0,1-1.437.4,2.33,2.33,0,0,1-2.035-1.074,3.806,3.806,0,0,1-.512-1.23A6.858,6.858,0,0,1,53.633,35.242Zm1.391-.086a4.232,4.232,0,0,0,.418,2.121,1.31,1.31,0,0,0,1.184.7,1.777,1.777,0,0,0,1.09-.461,6.594,6.594,0,0,0,1.207-1.367V32.508a3.305,3.305,0,0,0-.742-.238,4.057,4.057,0,0,0-.8-.082,2.165,2.165,0,0,0-1.73.719A3.39,3.39,0,0,0,55.023,35.156ZM110.6,42.2H109.32v-16H110.6Zm20.68-12.227h-3.023V39h-1.406V29.977h-3.023V28.789h7.453Zm8.9,1.18-2.672,7.016a13.758,13.758,0,0,1-.855,1.844,5.467,5.467,0,0,1-.965,1.27,3.4,3.4,0,0,1-1.148.73,3.958,3.958,0,0,1-1.4.234q-.2,0-.367-.008t-.359-.023V40.984q.172.023.375.043t.43.02a2.174,2.174,0,0,0,.7-.109,1.864,1.864,0,0,0,.613-.355,3.171,3.171,0,0,0,.555-.637A6.27,6.27,0,0,0,135.6,39l-3.133-7.844h1.547L136,36.344l.4,1.219.453-1.25,1.836-5.156Zm8.523,3.781a5.2,5.2,0,0,1-.293,1.828,3.581,3.581,0,0,1-.809,1.3,3.314,3.314,0,0,1-1.219.773,4.392,4.392,0,0,1-1.523.258,7.122,7.122,0,0,1-.746-.039,5.659,5.659,0,0,1-.754-.133V42.2H142V31.156h1.211l.086,1.313a3.5,3.5,0,0,1,1.25-1.129,3.232,3.232,0,0,1,1.438-.324,2.4,2.4,0,0,1,1.18.281,2.448,2.448,0,0,1,.852.793,3.751,3.751,0,0,1,.516,1.234A6.984,6.984,0,0,1,148.7,34.938ZM147.313,35a6.617,6.617,0,0,0-.09-1.133,2.956,2.956,0,0,0-.285-.883,1.566,1.566,0,0,0-.5-.574,1.262,1.262,0,0,0-.727-.207,1.767,1.767,0,0,0-.523.082,2.123,2.123,0,0,0-.551.273,4.1,4.1,0,0,0-.6.508,8,8,0,0,0-.676.785v3.8a4.562,4.562,0,0,0,.789.246,3.825,3.825,0,0,0,.813.09,2.131,2.131,0,0,0,1.727-.746A3.434,3.434,0,0,0,147.313,35Zm10.109-.336q0,.289-.008.484t-.023.367h-5.508a2.441,2.441,0,0,0,.672,1.848,2.69,2.69,0,0,0,1.938.645q.344,0,.688-.027t.664-.074q.32-.047.613-.105t.543-.129v1.117a9.49,9.49,0,0,1-1.254.254,10.47,10.47,0,0,1-1.449.1,4.928,4.928,0,0,1-1.734-.273,2.968,2.968,0,0,1-1.191-.793,3.265,3.265,0,0,1-.687-1.273,6.026,6.026,0,0,1-.223-1.707,5.069,5.069,0,0,1,.238-1.566,3.932,3.932,0,0,1,.7-1.3,3.3,3.3,0,0,1,2.629-1.215,3.827,3.827,0,0,1,1.453.258,2.918,2.918,0,0,1,1.066.73,3.114,3.114,0,0,1,.656,1.148A4.814,4.814,0,0,1,157.422,34.664Zm-1.414-.2a2.964,2.964,0,0,0-.1-.957,2.014,2.014,0,0,0-.387-.746,1.8,1.8,0,0,0-.652-.488,2.189,2.189,0,0,0-.906-.176,1.893,1.893,0,0,0-.812.172,1.853,1.853,0,0,0-.633.484,2.5,2.5,0,0,0-.43.75,3.458,3.458,0,0,0-.2.961ZM207.367,42.2h-1.281v-16h1.281ZM227.8,39h-1.812l-2.977-6.367-.859-2.047V39h-1.3V28.789h1.789l2.836,6.031,1.023,2.336V28.789h1.3Zm8.477,0h-1.219l-.047-1.266a6.331,6.331,0,0,1-.668.676,3.453,3.453,0,0,1-.629.434,2.421,2.421,0,0,1-.629.23,3.246,3.246,0,0,1-.668.066,2.29,2.29,0,0,1-1.828-.711,3.205,3.205,0,0,1-.617-2.148V31.156h1.359v5.016q0,1.8,1.359,1.8a1.633,1.633,0,0,0,.488-.074,1.834,1.834,0,0,0,.5-.258,3.956,3.956,0,0,0,.563-.5q.3-.312.676-.789v-5.2h1.359Zm5.164-9.922h-2.32V27.961h3.7v9.906h2.336V39h-6.289V37.867h2.578Zm8.8,0h-2.32V27.961h3.7v9.906h2.336V39h-6.289V37.867h2.578ZM268.945,42.2h-1.281v-16h1.281ZM289.68,39h-1.75l-3.82-5.008V39h-1.391V28.789h1.391v4.742l3.742-4.742H289.5l-4.031,4.852Zm8.492-4.336q0,.289-.008.484t-.023.367h-5.508a2.441,2.441,0,0,0,.672,1.848,2.69,2.69,0,0,0,1.938.645q.344,0,.688-.027t.664-.074q.32-.047.613-.105t.543-.129v1.117a9.489,9.489,0,0,1-1.254.254,10.47,10.47,0,0,1-1.449.1,4.928,4.928,0,0,1-1.734-.273,2.969,2.969,0,0,1-1.191-.793,3.265,3.265,0,0,1-.687-1.273,6.026,6.026,0,0,1-.223-1.707,5.069,5.069,0,0,1,.238-1.566,3.932,3.932,0,0,1,.7-1.3,3.3,3.3,0,0,1,2.629-1.215,3.827,3.827,0,0,1,1.453.258,2.918,2.918,0,0,1,1.066.73,3.114,3.114,0,0,1,.656,1.148A4.814,4.814,0,0,1,298.172,34.664Zm-1.414-.2a2.963,2.963,0,0,0-.1-.957,2.015,2.015,0,0,0-.387-.746,1.8,1.8,0,0,0-.652-.488,2.189,2.189,0,0,0-.906-.176,1.893,1.893,0,0,0-.812.172,1.853,1.853,0,0,0-.633.484,2.5,2.5,0,0,0-.43.75,3.458,3.458,0,0,0-.2.961Zm10.563-3.312-2.672,7.016a13.754,13.754,0,0,1-.855,1.844,5.467,5.467,0,0,1-.965,1.27,3.4,3.4,0,0,1-1.148.73,3.958,3.958,0,0,1-1.4.234q-.2,0-.367-.008t-.359-.023V40.984q.172.023.375.043t.43.02a2.174,2.174,0,0,0,.7-.109,1.864,1.864,0,0,0,.613-.355,3.171,3.171,0,0,0,.555-.637,6.267,6.267,0,0,0,.516-.945l-3.133-7.844h1.547l1.984,5.188.4,1.219.453-1.25,1.836-5.156ZM321.727,42.2h-1.281v-16h1.281Zm20.781-8.422a8.449,8.449,0,0,1-.113,1.406,5.4,5.4,0,0,1-.363,1.25,4.218,4.218,0,0,1-.648,1.051,3.681,3.681,0,0,1-.977.809,4.966,4.966,0,0,1-1.344.52A7.5,7.5,0,0,1,337.32,39h-2.187V28.789h2.633a4.718,4.718,0,0,1,3.566,1.23A5.27,5.27,0,0,1,342.508,33.781Zm-1.461.1a7.123,7.123,0,0,0-.2-1.836,2.924,2.924,0,0,0-.617-1.211,2.369,2.369,0,0,0-1.039-.668,4.681,4.681,0,0,0-1.469-.207h-1.2V37.8h1.039Q341.047,37.8,341.047,33.883Zm9.906.781q0,.289-.008.484t-.023.367h-5.508a2.441,2.441,0,0,0,.672,1.848,2.69,2.69,0,0,0,1.938.645q.344,0,.688-.027t.664-.074q.32-.047.613-.105t.543-.129v1.117a9.489,9.489,0,0,1-1.254.254,10.47,10.47,0,0,1-1.449.1,4.928,4.928,0,0,1-1.734-.273,2.969,2.969,0,0,1-1.191-.793,3.265,3.265,0,0,1-.687-1.273,6.026,6.026,0,0,1-.223-1.707,5.069,5.069,0,0,1,.238-1.566,3.932,3.932,0,0,1,.7-1.3,3.3,3.3,0,0,1,2.629-1.215,3.827,3.827,0,0,1,1.453.258,2.918,2.918,0,0,1,1.066.73,3.114,3.114,0,0,1,.656,1.148A4.814,4.814,0,0,1,350.953,34.664Zm-1.414-.2a2.963,2.963,0,0,0-.1-.957,2.015,2.015,0,0,0-.387-.746,1.8,1.8,0,0,0-.652-.488,2.189,2.189,0,0,0-.906-.176,1.893,1.893,0,0,0-.812.172,1.853,1.853,0,0,0-.633.484,2.5,2.5,0,0,0-.43.75,3.458,3.458,0,0,0-.2.961Zm10.547-5.242A9.1,9.1,0,0,0,358.242,29q-1.836,0-1.836,1.922V32.3h3.438V33.43h-3.437V39h-1.383V33.43H352.5V32.3h2.523V31q0-3.133,3.266-3.133a9.671,9.671,0,0,1,1.8.188ZM366.961,39l-.031-1.055a4.252,4.252,0,0,1-1.3.914,3.5,3.5,0,0,1-1.387.281,3.4,3.4,0,0,1-1.148-.172,2.152,2.152,0,0,1-.785-.473,1.832,1.832,0,0,1-.453-.707,2.616,2.616,0,0,1-.145-.883,2.191,2.191,0,0,1,.879-1.848,4.251,4.251,0,0,1,2.6-.668h1.625V33.7a1.455,1.455,0,0,0-.445-1.113,1.927,1.927,0,0,0-1.359-.418,5.812,5.812,0,0,0-1.309.148,9.2,9.2,0,0,0-1.332.422V31.516q.258-.094.574-.184t.668-.16q.352-.07.734-.113a6.929,6.929,0,0,1,.773-.043,4.851,4.851,0,0,1,1.281.156,2.6,2.6,0,0,1,.965.477,2.1,2.1,0,0,1,.605.8,2.84,2.84,0,0,1,.211,1.141V39Zm-.148-3.57h-1.727a3.311,3.311,0,0,0-.875.1,1.661,1.661,0,0,0-.6.289,1.16,1.16,0,0,0-.348.449,1.471,1.471,0,0,0-.113.59,1.339,1.339,0,0,0,.07.434.965.965,0,0,0,.227.367,1.094,1.094,0,0,0,.406.254,1.743,1.743,0,0,0,.609.094,2.576,2.576,0,0,0,1.074-.285,5.248,5.248,0,0,0,1.277-.9ZM377.023,39H375.8l-.047-1.266a6.331,6.331,0,0,1-.668.676,3.453,3.453,0,0,1-.629.434,2.422,2.422,0,0,1-.629.23,3.246,3.246,0,0,1-.668.066,2.29,2.29,0,0,1-1.828-.711,3.205,3.205,0,0,1-.617-2.148V31.156h1.359v5.016q0,1.8,1.359,1.8a1.633,1.633,0,0,0,.488-.074,1.834,1.834,0,0,0,.5-.258,3.957,3.957,0,0,0,.563-.5q.3-.312.676-.789v-5.2h1.359Zm5.164-9.922h-2.32V27.961h3.7v9.906H385.9V39h-6.289V37.867h2.578Zm12.445,9.813a6.621,6.621,0,0,1-.953.168,9.738,9.738,0,0,1-1,.051,3.162,3.162,0,0,1-2.2-.668,2.655,2.655,0,0,1-.727-2.051V32.3h-2.2V31.156h2.2V29l1.359-.352v2.508h3.523V32.3h-3.523v3.984a1.643,1.643,0,0,0,.449,1.262,1.879,1.879,0,0,0,1.324.418,6.322,6.322,0,0,0,.82-.059,7.8,7.8,0,0,0,.93-.184ZM409.7,42.2h-1.281v-16H409.7Zm19.93-3.2h-5.8V28.789h5.8v1.172h-4.414v3.164h4.242V34.3h-4.242v3.516h4.414Zm9.742,0h-1.8l-2.117-2.992L433.352,39h-1.758l3.039-3.937-2.9-3.906h1.742l2.063,3.016,2.023-3.016h1.68L436.3,35.094Zm8.047-.109a6.621,6.621,0,0,1-.953.168,9.738,9.738,0,0,1-1,.051,3.162,3.162,0,0,1-2.2-.668,2.655,2.655,0,0,1-.727-2.051V32.3h-2.2V31.156h2.2V29l1.359-.352v2.508h3.523V32.3h-3.523v3.984a1.643,1.643,0,0,0,.449,1.262,1.879,1.879,0,0,0,1.324.418,6.322,6.322,0,0,0,.82-.059,7.8,7.8,0,0,0,.93-.184Zm2.8-7.734h1.242l.039,1.445a5.035,5.035,0,0,1,1.371-1.211,2.784,2.784,0,0,1,1.363-.375,2.222,2.222,0,0,1,1.848.789,3.528,3.528,0,0,1,.582,2.344h-1.375a2.567,2.567,0,0,0-.3-1.5,1.084,1.084,0,0,0-.949-.465,1.65,1.65,0,0,0-.551.1,2.225,2.225,0,0,0-.57.313,5.109,5.109,0,0,0-.621.551,10.169,10.169,0,0,0-.7.813V39h-1.375ZM463.727,39l-.031-1.055a4.252,4.252,0,0,1-1.3.914,3.5,3.5,0,0,1-1.387.281,3.4,3.4,0,0,1-1.148-.172,2.152,2.152,0,0,1-.785-.473,1.832,1.832,0,0,1-.453-.707,2.616,2.616,0,0,1-.145-.883,2.191,2.191,0,0,1,.879-1.848,4.251,4.251,0,0,1,2.6-.668h1.625V33.7a1.455,1.455,0,0,0-.445-1.113,1.927,1.927,0,0,0-1.359-.418,5.812,5.812,0,0,0-1.309.148,9.2,9.2,0,0,0-1.332.422V31.516q.258-.094.574-.184t.668-.16q.352-.07.734-.113a6.929,6.929,0,0,1,.773-.043,4.851,4.851,0,0,1,1.281.156,2.6,2.6,0,0,1,.965.477,2.1,2.1,0,0,1,.605.8,2.84,2.84,0,0,1,.211,1.141V39Zm-.148-3.57h-1.727a3.311,3.311,0,0,0-.875.1,1.661,1.661,0,0,0-.6.289,1.16,1.16,0,0,0-.348.449,1.471,1.471,0,0,0-.113.59,1.339,1.339,0,0,0,.07.434.965.965,0,0,0,.227.367,1.094,1.094,0,0,0,.406.254,1.743,1.743,0,0,0,.609.094,2.576,2.576,0,0,0,1.074-.285,5.248,5.248,0,0,0,1.277-.9ZM559.242,42.2h-1.281v-16h1.281ZM8.141,59.336H5.07v3.188H3.727V59.336H.656V58.148h3.07V54.984H5.07v3.164h3.07Zm7.391.047H10.859V58.1h4.672Zm8.8,0H19.656V58.1h4.672Zm8.8,0H28.453V58.1h4.672Zm8.8,0H37.25V58.1h4.672Zm8.8,0H46.047V58.1h4.672Zm8.8,0H54.844V58.1h4.672Zm8.8,0H63.641V58.1h4.672Zm8.8,0H72.438V58.1h4.672Zm8.8,0H81.234V58.1h4.672Zm8.8,0H90.031V58.1H94.7Zm8.8,0H98.828V58.1H103.5Zm10.2-.047h-3.07v3.188h-1.344V59.336h-3.07V58.148h3.07V54.984h1.344v3.164h3.07Zm7.391.047h-4.672V58.1h4.672Zm8.8,0h-4.672V58.1h4.672Zm8.8,0h-4.672V58.1h4.672Zm8.8,0h-4.672V58.1h4.672Zm8.8,0h-4.672V58.1h4.672Zm8.8,0h-4.672V58.1h4.672Zm8.8,0H169.2V58.1h4.672Zm8.8,0H178V58.1h4.672Zm8.8,0H186.8V58.1h4.672Zm8.8,0h-4.672V58.1h4.672Zm10.2-.047H207.4v3.188h-1.344V59.336h-3.07V58.148h3.07V54.984H207.4v3.164h3.07Zm7.391.047h-4.672V58.1h4.672Zm8.8,0h-4.672V58.1h4.672Zm8.8,0h-4.672V58.1h4.672Zm8.8,0h-4.672V58.1h4.672Zm8.8,0h-4.672V58.1h4.672Zm8.8,0h-4.672V58.1h4.672Zm10.2-.047h-3.07v3.188h-1.344V59.336h-3.07V58.148h3.07V54.984h1.344v3.164h3.07Zm7.391.047h-4.672V58.1h4.672Zm8.8,0h-4.672V58.1h4.672Zm8.8,0h-4.672V58.1h4.672Zm8.8,0h-4.672V58.1h4.672Zm8.8,0h-4.672V58.1h4.672Zm10.2-.047h-3.07v3.188h-1.344V59.336h-3.07V58.148h3.07V54.984h1.344v3.164h3.07Zm7.391.047h-4.672V58.1h4.672Zm8.8,0h-4.672V58.1h4.672Zm8.8,0h-4.672V58.1h4.672Zm8.8,0h-4.672V58.1h4.672Zm8.8,0h-4.672V58.1h4.672Zm8.8,0h-4.672V58.1H376.2Zm8.8,0h-4.672V58.1H385Zm8.8,0h-4.672V58.1H393.8Zm8.8,0h-4.672V58.1h4.672Zm10.2-.047h-3.07v3.188h-1.344V59.336h-3.07V58.148h3.07V54.984h1.344v3.164h3.07Zm7.391.047h-4.672V58.1h4.672Zm8.8,0h-4.672V58.1h4.672Zm8.8,0h-4.672V58.1h4.672Zm8.8,0h-4.672V58.1h4.672Zm8.8,0H450.7V58.1h4.672Zm8.8,0H459.5V58.1h4.672Zm8.8,0H468.3V58.1h4.672Zm8.8,0h-4.672V58.1h4.672Zm8.8,0h-4.672V58.1h4.672Zm8.8,0h-4.672V58.1h4.672Zm8.8,0h-4.672V58.1h4.672Zm8.8,0h-4.672V58.1h4.672Zm8.8,0h-4.672V58.1h4.672Zm8.8,0h-4.672V58.1h4.672Zm8.8,0h-4.672V58.1h4.672Zm8.8,0h-4.672V58.1h4.672Zm10.2-.047h-3.07v3.188H557.93V59.336h-3.07V58.148h3.07V54.984h1.344v3.164h3.07ZM5.039,90.2H3.758v-16H5.039Zm19.9-3.492a5.88,5.88,0,0,1-1.09.3,6.681,6.681,0,0,1-1.152.1A3.865,3.865,0,0,1,19.832,86.1a4,4,0,0,1-1-2.945,4.7,4.7,0,0,1,.289-1.687,3.758,3.758,0,0,1,.813-1.3,3.591,3.591,0,0,1,1.25-.832,4.245,4.245,0,0,1,1.6-.293,7.15,7.15,0,0,1,1.141.086,4.723,4.723,0,0,1,1.016.281v1.3a4.309,4.309,0,0,0-1.035-.387,4.855,4.855,0,0,0-1.09-.121,2.482,2.482,0,0,0-.988.2,2.41,2.41,0,0,0-.816.574,2.72,2.72,0,0,0-.555.914,3.437,3.437,0,0,0-.2,1.219,2.933,2.933,0,0,0,.691,2.129,2.559,2.559,0,0,0,1.918.707,4.576,4.576,0,0,0,1.074-.125,4.454,4.454,0,0,0,1-.375Zm5.375-9.633h-2.32V75.961h3.7v9.906h2.336V87H27.734V85.867h2.578ZM41.477,87l-.031-1.055a4.252,4.252,0,0,1-1.3.914,3.5,3.5,0,0,1-1.387.281,3.4,3.4,0,0,1-1.148-.172,2.152,2.152,0,0,1-.785-.473,1.832,1.832,0,0,1-.453-.707,2.616,2.616,0,0,1-.145-.883,2.191,2.191,0,0,1,.879-1.848,4.251,4.251,0,0,1,2.6-.668h1.625V81.7a1.455,1.455,0,0,0-.445-1.113,1.927,1.927,0,0,0-1.359-.418,5.812,5.812,0,0,0-1.309.148,9.2,9.2,0,0,0-1.332.422V79.516q.258-.094.574-.184t.668-.16q.352-.07.734-.113a6.928,6.928,0,0,1,.773-.043,4.851,4.851,0,0,1,1.281.156,2.6,2.6,0,0,1,.965.477,2.1,2.1,0,0,1,.605.8,2.84,2.84,0,0,1,.211,1.141V87Zm-.148-3.57H39.6a3.31,3.31,0,0,0-.875.1,1.661,1.661,0,0,0-.6.289,1.16,1.16,0,0,0-.348.449,1.471,1.471,0,0,0-.113.59,1.339,1.339,0,0,0,.07.434.964.964,0,0,0,.227.367,1.094,1.094,0,0,0,.406.254,1.743,1.743,0,0,0,.609.094,2.576,2.576,0,0,0,1.074-.285,5.248,5.248,0,0,0,1.277-.9ZM44.5,79.156h1.547l1.922,5.188.414,1.266.43-1.3,1.906-5.156h1.492L49.133,87H47.57Zm16.156,3.508q0,.289-.008.484t-.023.367H55.117a2.441,2.441,0,0,0,.672,1.848,2.69,2.69,0,0,0,1.938.645q.344,0,.688-.027t.664-.074q.32-.047.613-.105t.543-.129v1.117a9.49,9.49,0,0,1-1.254.254,10.471,10.471,0,0,1-1.449.1,4.928,4.928,0,0,1-1.734-.273,2.969,2.969,0,0,1-1.191-.793,3.265,3.265,0,0,1-.687-1.273,6.026,6.026,0,0,1-.223-1.707,5.069,5.069,0,0,1,.238-1.566,3.932,3.932,0,0,1,.7-1.3,3.3,3.3,0,0,1,2.629-1.215,3.827,3.827,0,0,1,1.453.258,2.918,2.918,0,0,1,1.066.73,3.114,3.114,0,0,1,.656,1.148A4.815,4.815,0,0,1,60.656,82.664Zm-1.414-.2a2.963,2.963,0,0,0-.1-.957,2.014,2.014,0,0,0-.387-.746,1.8,1.8,0,0,0-.652-.488A2.189,2.189,0,0,0,57.2,80.1a1.893,1.893,0,0,0-.812.172,1.853,1.853,0,0,0-.633.484,2.5,2.5,0,0,0-.43.75,3.458,3.458,0,0,0-.2.961ZM110.6,90.2H109.32v-16H110.6Zm16.477-9.922h-2.32V79.156h3.7v6.711h2.336V87H124.5V85.867h2.578Zm.477-4.414a1.078,1.078,0,0,1,.422.082,1.021,1.021,0,0,1,.34.23,1.109,1.109,0,0,1,.227.34,1.1,1.1,0,0,1,0,.832,1.1,1.1,0,0,1-.227.344,1.021,1.021,0,0,1-.34.23,1.126,1.126,0,0,1-.844,0,1.02,1.02,0,0,1-.34-.23,1.1,1.1,0,0,1-.227-.344,1.1,1.1,0,0,1,0-.832,1.109,1.109,0,0,1,.227-.34,1.02,1.02,0,0,1,.34-.23A1.078,1.078,0,0,1,127.555,75.867Zm5.648,3.289h1.211l.055,1.266a5.663,5.663,0,0,1,.664-.676,3.641,3.641,0,0,1,.629-.434,2.355,2.355,0,0,1,.629-.23,3.263,3.263,0,0,1,.664-.066,2.3,2.3,0,0,1,1.832.715,3.207,3.207,0,0,1,.621,2.152V87h-1.359V81.992a2.21,2.21,0,0,0-.344-1.363,1.217,1.217,0,0,0-1.023-.441,1.633,1.633,0,0,0-.488.074,1.779,1.779,0,0,0-.5.258,4.1,4.1,0,0,0-.559.5q-.3.313-.676.781V87H133.2Zm15.117,7.734a6.621,6.621,0,0,1-.953.168,9.739,9.739,0,0,1-1,.051,3.162,3.162,0,0,1-2.2-.668,2.655,2.655,0,0,1-.727-2.051V80.3h-2.2V79.156h2.2V77l1.359-.352v2.508h3.523V80.3H144.8v3.984a1.643,1.643,0,0,0,.449,1.262,1.879,1.879,0,0,0,1.324.418,6.322,6.322,0,0,0,.82-.059,7.8,7.8,0,0,0,.93-.184ZM207.367,90.2h-1.281v-16h1.281ZM227.8,87h-1.812l-2.977-6.367-.859-2.047V87h-1.3V76.789h1.789l2.836,6.031,1.023,2.336V76.789h1.3Zm9.289-5.172a7.735,7.735,0,0,1-.324,2.375,4.848,4.848,0,0,1-.875,1.652,3.457,3.457,0,0,1-1.289.969,4.157,4.157,0,0,1-3.273-.039,3.179,3.179,0,0,1-1.211-1.027,4.685,4.685,0,0,1-.715-1.637,9.241,9.241,0,0,1-.234-2.176,7.763,7.763,0,0,1,.32-2.359,4.8,4.8,0,0,1,.871-1.652,3.465,3.465,0,0,1,1.285-.969,3.887,3.887,0,0,1,1.555-.316,3.842,3.842,0,0,1,1.715.359,3.257,3.257,0,0,1,1.215,1.027,4.652,4.652,0,0,1,.723,1.629A9.01,9.01,0,0,1,237.086,81.828Zm-1.445.1a9.149,9.149,0,0,0-.137-1.645A4.1,4.1,0,0,0,235.063,79a2.273,2.273,0,0,0-.785-.836,2.165,2.165,0,0,0-1.16-.3,1.982,1.982,0,0,0-1.129.316,2.461,2.461,0,0,0-.777.859,4.366,4.366,0,0,0-.453,1.273,7.778,7.778,0,0,0-.148,1.551,8.948,8.948,0,0,0,.141,1.652,4.187,4.187,0,0,0,.441,1.281,2.262,2.262,0,0,0,.777.832,2.129,2.129,0,0,0,1.148.3,2,2,0,0,0,1.133-.316,2.481,2.481,0,0,0,.785-.859,4.294,4.294,0,0,0,.457-1.27A7.761,7.761,0,0,0,235.641,81.93Zm33.3,8.273h-1.281v-16h1.281Zm20.492-10.289a3.445,3.445,0,0,1-.234,1.238,3.063,3.063,0,0,1-.727,1.1,3.688,3.688,0,0,1-1.258.785,5,5,0,0,1-1.828.3h-1.266V87h-1.391V76.789h2.875a6.168,6.168,0,0,1,1.453.168,3.507,3.507,0,0,1,1.223.543,2.727,2.727,0,0,1,.84.969A3.071,3.071,0,0,1,289.438,79.914Zm-1.445.063a1.83,1.83,0,0,0-.645-1.508,2.783,2.783,0,0,0-1.8-.523h-1.422v4.2h1.3a2.961,2.961,0,0,0,1.9-.539A1.973,1.973,0,0,0,287.992,79.977ZM298.508,87h-1.57l-1.523-3.266a3.612,3.612,0,0,0-.352-.621,1.669,1.669,0,0,0-.387-.391,1.377,1.377,0,0,0-.453-.207,2.24,2.24,0,0,0-.551-.062h-.656V87h-1.391V76.789h2.734a5.287,5.287,0,0,1,1.531.2,2.886,2.886,0,0,1,1.051.547,2.094,2.094,0,0,1,.6.848,3.026,3.026,0,0,1,.191,1.1,2.859,2.859,0,0,1-.141.9,2.474,2.474,0,0,1-.418.773,2.66,2.66,0,0,1-.687.6,3.142,3.142,0,0,1-.941.379,1.6,1.6,0,0,1,.73.52,5.613,5.613,0,0,1,.613.988Zm-2.227-7.406a1.471,1.471,0,0,0-.512-1.227,2.266,2.266,0,0,0-1.441-.406h-1.312v3.375h1.125a3.212,3.212,0,0,0,.887-.113,1.894,1.894,0,0,0,.672-.336,1.522,1.522,0,0,0,.43-.547A1.736,1.736,0,0,0,296.281,79.594Zm6.508-1.633h-2.352V76.789h6.109v1.172H304.2v7.852h2.352V87h-6.109V85.813h2.352ZM321.727,90.2h-1.281v-16h1.281Zm20.43-3.2h-1.812l-2.977-6.367-.859-2.047V87h-1.3V76.789H337l2.836,6.031,1.023,2.336V76.789h1.3Zm8.875-3.555a4.619,4.619,0,0,1-.238,1.527,3.156,3.156,0,0,1-.7,1.164,3.114,3.114,0,0,1-1.129.742,4.187,4.187,0,0,1-1.535.262,4.608,4.608,0,0,1-1.617-.25,2.748,2.748,0,0,1-1.082-.707,2.779,2.779,0,0,1-.609-1.1,4.986,4.986,0,0,1-.191-1.43V76.789h1.391v6.758a4.377,4.377,0,0,0,.113,1.055,1.846,1.846,0,0,0,.371.758,1.6,1.6,0,0,0,.668.461,2.832,2.832,0,0,0,1,.156,2,2,0,0,0,1.637-.641,2.766,2.766,0,0,0,.527-1.8V76.789h1.391ZM359.57,87H353.7V76.789h1.414v9.023h4.461Zm8.8,0h-5.875V76.789h1.414v9.023h4.461ZM409.7,90.2h-1.281v-16H409.7ZM428.539,87l-.031-1.055a4.252,4.252,0,0,1-1.3.914,3.5,3.5,0,0,1-1.387.281,3.4,3.4,0,0,1-1.148-.172,2.152,2.152,0,0,1-.785-.473,1.832,1.832,0,0,1-.453-.707,2.616,2.616,0,0,1-.145-.883,2.191,2.191,0,0,1,.879-1.848,4.251,4.251,0,0,1,2.6-.668h1.625V81.7a1.455,1.455,0,0,0-.445-1.113,1.927,1.927,0,0,0-1.359-.418,5.812,5.812,0,0,0-1.309.148,9.2,9.2,0,0,0-1.332.422V79.516q.258-.094.574-.184t.668-.16q.352-.07.734-.113a6.928,6.928,0,0,1,.773-.043,4.851,4.851,0,0,1,1.281.156,2.6,2.6,0,0,1,.965.477,2.1,2.1,0,0,1,.605.8,2.84,2.84,0,0,1,.211,1.141V87Zm-.148-3.57h-1.727a3.31,3.31,0,0,0-.875.1,1.661,1.661,0,0,0-.6.289,1.16,1.16,0,0,0-.348.449,1.471,1.471,0,0,0-.113.59,1.339,1.339,0,0,0,.07.434.965.965,0,0,0,.227.367,1.094,1.094,0,0,0,.406.254,1.743,1.743,0,0,0,.609.094,2.577,2.577,0,0,0,1.074-.285,5.248,5.248,0,0,0,1.277-.9ZM438.6,87h-1.219l-.047-1.266a6.331,6.331,0,0,1-.668.676,3.453,3.453,0,0,1-.629.434,2.422,2.422,0,0,1-.629.23,3.246,3.246,0,0,1-.668.066,2.29,2.29,0,0,1-1.828-.711,3.205,3.205,0,0,1-.617-2.148V79.156h1.359v5.016q0,1.8,1.359,1.8a1.633,1.633,0,0,0,.488-.074,1.833,1.833,0,0,0,.5-.258,3.957,3.957,0,0,0,.563-.5q.3-.313.676-.789v-5.2H438.6Zm8.813-.109a6.62,6.62,0,0,1-.953.168,9.739,9.739,0,0,1-1,.051,3.162,3.162,0,0,1-2.2-.668,2.655,2.655,0,0,1-.727-2.051V80.3h-2.2V79.156h2.2V77l1.359-.352v2.508h3.523V80.3h-3.523v3.984a1.643,1.643,0,0,0,.449,1.262,1.879,1.879,0,0,0,1.324.418,6.322,6.322,0,0,0,.82-.059,7.8,7.8,0,0,0,.93-.184Zm9.3-3.875a5.2,5.2,0,0,1-.258,1.676,3.728,3.728,0,0,1-.742,1.3,3.33,3.33,0,0,1-1.18.844,3.939,3.939,0,0,1-1.578.3,4.117,4.117,0,0,1-1.512-.262,2.991,2.991,0,0,1-1.133-.77,3.406,3.406,0,0,1-.711-1.258,5.536,5.536,0,0,1-.246-1.727,5.129,5.129,0,0,1,.258-1.668,3.74,3.74,0,0,1,.742-1.3,3.33,3.33,0,0,1,1.18-.844,3.939,3.939,0,0,1,1.578-.3,4.117,4.117,0,0,1,1.512.262,3.012,3.012,0,0,1,1.133.766,3.368,3.368,0,0,1,.711,1.254A5.508,5.508,0,0,1,456.719,83.016Zm-1.391.063a4.506,4.506,0,0,0-.16-1.27,2.557,2.557,0,0,0-.457-.906,1.885,1.885,0,0,0-.723-.547,2.373,2.373,0,0,0-.949-.184A2.136,2.136,0,0,0,452,80.41a2.065,2.065,0,0,0-.711.637,2.743,2.743,0,0,0-.406.926,4.64,4.64,0,0,0-.129,1.105,4.548,4.548,0,0,0,.16,1.273,2.555,2.555,0,0,0,.457.91,1.892,1.892,0,0,0,.719.547,2.366,2.366,0,0,0,.953.184,2.136,2.136,0,0,0,1.043-.238,2.065,2.065,0,0,0,.711-.637,2.743,2.743,0,0,0,.406-.926A4.674,4.674,0,0,0,455.328,83.078ZM466.234,90.2h-8.8V89.078h8.8Zm3.922-9.922h-2.32V79.156h3.7v6.711h2.336V87h-6.289V85.867h2.578Zm.477-4.414a1.078,1.078,0,0,1,.422.082,1.02,1.02,0,0,1,.34.23,1.11,1.11,0,0,1,.227.34,1.1,1.1,0,0,1,0,.832,1.1,1.1,0,0,1-.227.344,1.02,1.02,0,0,1-.34.23,1.126,1.126,0,0,1-.844,0,1.02,1.02,0,0,1-.34-.23,1.1,1.1,0,0,1-.227-.344,1.1,1.1,0,0,1,0-.832,1.11,1.11,0,0,1,.227-.34,1.02,1.02,0,0,1,.34-.23A1.078,1.078,0,0,1,470.633,75.867Zm5.648,3.289h1.211l.055,1.266a5.663,5.663,0,0,1,.664-.676,3.641,3.641,0,0,1,.629-.434,2.355,2.355,0,0,1,.629-.23,3.263,3.263,0,0,1,.664-.066,2.3,2.3,0,0,1,1.832.715,3.207,3.207,0,0,1,.621,2.152V87h-1.359V81.992a2.211,2.211,0,0,0-.344-1.363,1.217,1.217,0,0,0-1.023-.441,1.633,1.633,0,0,0-.488.074,1.78,1.78,0,0,0-.5.258,4.1,4.1,0,0,0-.559.5q-.3.313-.676.781V87h-1.359Zm14.891,7.555a5.88,5.88,0,0,1-1.09.3,6.681,6.681,0,0,1-1.152.1,3.865,3.865,0,0,1-2.863-1.008,4,4,0,0,1-1-2.945,4.7,4.7,0,0,1,.289-1.687,3.758,3.758,0,0,1,.813-1.3,3.591,3.591,0,0,1,1.25-.832,4.245,4.245,0,0,1,1.6-.293,7.149,7.149,0,0,1,1.141.086,4.723,4.723,0,0,1,1.016.281v1.3a4.309,4.309,0,0,0-1.035-.387,4.855,4.855,0,0,0-1.09-.121,2.482,2.482,0,0,0-.988.2,2.41,2.41,0,0,0-.816.574,2.72,2.72,0,0,0-.555.914,3.438,3.438,0,0,0-.2,1.219,2.933,2.933,0,0,0,.691,2.129,2.559,2.559,0,0,0,1.918.707,4.576,4.576,0,0,0,1.074-.125,4.454,4.454,0,0,0,1-.375Zm3.023-7.555h1.242l.039,1.445a5.035,5.035,0,0,1,1.371-1.211,2.784,2.784,0,0,1,1.363-.375,2.222,2.222,0,0,1,1.848.789,3.528,3.528,0,0,1,.582,2.344h-1.375a2.567,2.567,0,0,0-.3-1.5,1.084,1.084,0,0,0-.949-.465,1.65,1.65,0,0,0-.551.1,2.225,2.225,0,0,0-.57.313,5.109,5.109,0,0,0-.621.551,10.169,10.169,0,0,0-.7.813V87H494.2Zm15.1,3.508q0,.289-.008.484t-.023.367h-5.508a2.441,2.441,0,0,0,.672,1.848,2.69,2.69,0,0,0,1.938.645q.344,0,.688-.027t.664-.074q.32-.047.613-.105t.543-.129v1.117a9.489,9.489,0,0,1-1.254.254,10.471,10.471,0,0,1-1.449.1,4.928,4.928,0,0,1-1.734-.273,2.969,2.969,0,0,1-1.191-.793,3.265,3.265,0,0,1-.687-1.273,6.026,6.026,0,0,1-.223-1.707,5.069,5.069,0,0,1,.238-1.566,3.932,3.932,0,0,1,.7-1.3,3.3,3.3,0,0,1,2.629-1.215,3.827,3.827,0,0,1,1.453.258,2.918,2.918,0,0,1,1.066.73,3.114,3.114,0,0,1,.656,1.148A4.815,4.815,0,0,1,509.3,82.664Zm-1.414-.2a2.963,2.963,0,0,0-.1-.957,2.015,2.015,0,0,0-.387-.746,1.8,1.8,0,0,0-.652-.488,2.189,2.189,0,0,0-.906-.176,1.893,1.893,0,0,0-.812.172,1.853,1.853,0,0,0-.633.484,2.5,2.5,0,0,0-.43.75,3.458,3.458,0,0,0-.2.961ZM517.063,87V81.367a5.372,5.372,0,0,0-.027-.6,1.372,1.372,0,0,0-.086-.371.4.4,0,0,0-.148-.191.421.421,0,0,0-.223-.055.491.491,0,0,0-.289.094,1.312,1.312,0,0,0-.285.3,4.815,4.815,0,0,0-.336.559q-.184.348-.434.855V87h-1.242V81.516q0-.43-.027-.7a1.624,1.624,0,0,0-.086-.414.389.389,0,0,0-.152-.2.442.442,0,0,0-.227-.055.493.493,0,0,0-.266.078,1.13,1.13,0,0,0-.277.281,4.4,4.4,0,0,0-.34.555q-.187.352-.445.9V87h-1.25V79.156h1.039l.063,1.492a7.135,7.135,0,0,1,.395-.758,2.44,2.44,0,0,1,.395-.5,1.346,1.346,0,0,1,.434-.281,1.4,1.4,0,0,1,.512-.09,1.153,1.153,0,0,1,.961.414,2.051,2.051,0,0,1,.328,1.281q.188-.406.367-.723a2.642,2.642,0,0,1,.387-.531,1.484,1.484,0,0,1,.457-.328,1.388,1.388,0,0,1,.578-.113q1.477,0,1.477,2.273V87Zm9.828-4.336q0,.289-.008.484t-.023.367h-5.508a2.441,2.441,0,0,0,.672,1.848,2.69,2.69,0,0,0,1.938.645q.344,0,.688-.027t.664-.074q.32-.047.613-.105t.543-.129v1.117a9.491,9.491,0,0,1-1.254.254,10.47,10.47,0,0,1-1.449.1,4.928,4.928,0,0,1-1.734-.273,2.968,2.968,0,0,1-1.191-.793,3.265,3.265,0,0,1-.687-1.273,6.026,6.026,0,0,1-.223-1.707,5.068,5.068,0,0,1,.238-1.566,3.933,3.933,0,0,1,.7-1.3,3.3,3.3,0,0,1,2.629-1.215,3.827,3.827,0,0,1,1.453.258,2.918,2.918,0,0,1,1.066.73,3.114,3.114,0,0,1,.656,1.148A4.815,4.815,0,0,1,526.891,82.664Zm-1.414-.2a2.964,2.964,0,0,0-.1-.957,2.014,2.014,0,0,0-.387-.746,1.8,1.8,0,0,0-.652-.488,2.19,2.19,0,0,0-.906-.176,1.893,1.893,0,0,0-.812.172,1.853,1.853,0,0,0-.633.484,2.5,2.5,0,0,0-.43.75,3.459,3.459,0,0,0-.2.961Zm3.586-3.312h1.211l.055,1.266a5.663,5.663,0,0,1,.664-.676,3.641,3.641,0,0,1,.629-.434,2.355,2.355,0,0,1,.629-.23,3.263,3.263,0,0,1,.664-.066,2.3,2.3,0,0,1,1.832.715,3.207,3.207,0,0,1,.621,2.152V87h-1.359V81.992a2.21,2.21,0,0,0-.344-1.363,1.217,1.217,0,0,0-1.023-.441,1.633,1.633,0,0,0-.488.074,1.779,1.779,0,0,0-.5.258,4.1,4.1,0,0,0-.559.5q-.3.313-.676.781V87h-1.359Zm15.117,7.734a6.621,6.621,0,0,1-.953.168,9.739,9.739,0,0,1-1,.051,3.162,3.162,0,0,1-2.2-.668,2.655,2.655,0,0,1-.727-2.051V80.3h-2.2V79.156h2.2V77l1.359-.352v2.508h3.523V80.3h-3.523v3.984a1.643,1.643,0,0,0,.449,1.262,1.879,1.879,0,0,0,1.324.418,6.322,6.322,0,0,0,.82-.059,7.8,7.8,0,0,0,.93-.184ZM559.242,90.2h-1.281v-16h1.281Zm-554.2,24H3.758v-16H5.039Zm13.8-11.047h1.211l.055,1.266a5.663,5.663,0,0,1,.664-.676,3.641,3.641,0,0,1,.629-.434,2.355,2.355,0,0,1,.629-.23,3.263,3.263,0,0,1,.664-.066,2.3,2.3,0,0,1,1.832.715,3.207,3.207,0,0,1,.621,2.152V111H23.789v-5.008a2.21,2.21,0,0,0-.344-1.363,1.217,1.217,0,0,0-1.023-.441,1.633,1.633,0,0,0-.488.074,1.78,1.78,0,0,0-.5.258,4.1,4.1,0,0,0-.559.5q-.3.313-.676.781V111H18.844Zm15.625,3.859a5.2,5.2,0,0,1-.258,1.676,3.728,3.728,0,0,1-.742,1.3,3.33,3.33,0,0,1-1.18.844,3.939,3.939,0,0,1-1.578.3,4.117,4.117,0,0,1-1.512-.262,2.991,2.991,0,0,1-1.133-.77,3.406,3.406,0,0,1-.711-1.258,5.536,5.536,0,0,1-.246-1.727,5.129,5.129,0,0,1,.258-1.668,3.739,3.739,0,0,1,.742-1.3,3.33,3.33,0,0,1,1.18-.844,3.939,3.939,0,0,1,1.578-.3,4.117,4.117,0,0,1,1.512.262,3.012,3.012,0,0,1,1.133.766,3.368,3.368,0,0,1,.711,1.254A5.508,5.508,0,0,1,34.469,107.016Zm-1.391.063a4.506,4.506,0,0,0-.16-1.27,2.557,2.557,0,0,0-.457-.906,1.885,1.885,0,0,0-.723-.547,2.373,2.373,0,0,0-.949-.184,2.136,2.136,0,0,0-1.043.238,2.065,2.065,0,0,0-.711.637,2.744,2.744,0,0,0-.406.926,4.64,4.64,0,0,0-.129,1.105,4.548,4.548,0,0,0,.16,1.273,2.555,2.555,0,0,0,.457.91,1.892,1.892,0,0,0,.719.547,2.366,2.366,0,0,0,.953.184,2.136,2.136,0,0,0,1.043-.238,2.065,2.065,0,0,0,.711-.637,2.744,2.744,0,0,0,.406-.926A4.674,4.674,0,0,0,33.078,107.078ZM42.031,111v-5.633a5.377,5.377,0,0,0-.027-.6,1.371,1.371,0,0,0-.086-.371.4.4,0,0,0-.148-.191.421.421,0,0,0-.223-.055.491.491,0,0,0-.289.094,1.313,1.313,0,0,0-.285.3,4.818,4.818,0,0,0-.336.559q-.184.348-.434.855V111H38.961v-5.484q0-.43-.027-.7a1.623,1.623,0,0,0-.086-.414.389.389,0,0,0-.152-.2.442.442,0,0,0-.227-.055.493.493,0,0,0-.266.078,1.13,1.13,0,0,0-.277.281,4.4,4.4,0,0,0-.34.555q-.187.352-.445.9V111h-1.25v-7.844H36.93l.063,1.492a7.135,7.135,0,0,1,.395-.758,2.44,2.44,0,0,1,.395-.5,1.346,1.346,0,0,1,.434-.281,1.4,1.4,0,0,1,.512-.09,1.153,1.153,0,0,1,.961.414,2.051,2.051,0,0,1,.328,1.281q.188-.406.367-.723a2.64,2.64,0,0,1,.387-.531,1.484,1.484,0,0,1,.457-.328,1.388,1.388,0,0,1,.578-.113q1.477,0,1.477,2.273V111Zm9.906-4.062a5.264,5.264,0,0,1-.27,1.746,3.68,3.68,0,0,1-.766,1.3,3.292,3.292,0,0,1-1.207.82,4.27,4.27,0,0,1-1.6.285,7.9,7.9,0,0,1-1.422-.133,7.29,7.29,0,0,1-1.437-.422V99.961h1.359V103l-.062,1.453a3.528,3.528,0,0,1,1.254-1.113,3.24,3.24,0,0,1,1.434-.324,2.4,2.4,0,0,1,1.18.281,2.448,2.448,0,0,1,.852.793,3.751,3.751,0,0,1,.516,1.234A6.984,6.984,0,0,1,51.938,106.938ZM50.547,107a6.617,6.617,0,0,0-.09-1.133,2.956,2.956,0,0,0-.285-.883,1.567,1.567,0,0,0-.5-.574,1.261,1.261,0,0,0-.727-.207,1.767,1.767,0,0,0-.523.082,2.123,2.123,0,0,0-.551.273,4.1,4.1,0,0,0-.6.508,8,8,0,0,0-.676.785v3.8a5.3,5.3,0,0,0,.813.246,3.724,3.724,0,0,0,.789.09,2.7,2.7,0,0,0,.895-.148,1.847,1.847,0,0,0,.75-.5,2.482,2.482,0,0,0,.516-.922A4.561,4.561,0,0,0,50.547,107Zm3.8-3.844h1.242l.039,1.445A5.035,5.035,0,0,1,57,103.391a2.784,2.784,0,0,1,1.363-.375,2.222,2.222,0,0,1,1.848.789,3.528,3.528,0,0,1,.582,2.344H59.422a2.567,2.567,0,0,0-.3-1.5,1.084,1.084,0,0,0-.949-.465,1.65,1.65,0,0,0-.551.1,2.225,2.225,0,0,0-.57.313,5.109,5.109,0,0,0-.621.551,10.169,10.169,0,0,0-.7.813V111H54.352Zm15.1,3.508q0,.289-.008.484t-.023.367H63.914a2.441,2.441,0,0,0,.672,1.848,2.69,2.69,0,0,0,1.938.645q.344,0,.688-.027t.664-.074q.32-.047.613-.105t.543-.129v1.117a9.49,9.49,0,0,1-1.254.254,10.471,10.471,0,0,1-1.449.1,4.928,4.928,0,0,1-1.734-.273,2.969,2.969,0,0,1-1.191-.793,3.265,3.265,0,0,1-.687-1.273,6.026,6.026,0,0,1-.223-1.707,5.069,5.069,0,0,1,.238-1.566,3.932,3.932,0,0,1,.7-1.3,3.3,3.3,0,0,1,2.629-1.215,3.827,3.827,0,0,1,1.453.258,2.918,2.918,0,0,1,1.066.73,3.114,3.114,0,0,1,.656,1.148A4.815,4.815,0,0,1,69.453,106.664Zm-1.414-.2a2.963,2.963,0,0,0-.1-.957,2.015,2.015,0,0,0-.387-.746,1.8,1.8,0,0,0-.652-.488,2.189,2.189,0,0,0-.906-.176,1.893,1.893,0,0,0-.812.172,1.853,1.853,0,0,0-.633.484,2.5,2.5,0,0,0-.43.75,3.458,3.458,0,0,0-.2.961ZM110.6,114.2H109.32v-16H110.6Zm19.9-3.492a5.88,5.88,0,0,1-1.09.3,6.681,6.681,0,0,1-1.152.1,3.865,3.865,0,0,1-2.863-1.008,4,4,0,0,1-1-2.945,4.7,4.7,0,0,1,.289-1.687,3.758,3.758,0,0,1,.813-1.3,3.591,3.591,0,0,1,1.25-.832,4.245,4.245,0,0,1,1.6-.293,7.15,7.15,0,0,1,1.141.086,4.723,4.723,0,0,1,1.016.281v1.3a4.31,4.31,0,0,0-1.035-.387,4.855,4.855,0,0,0-1.09-.121,2.482,2.482,0,0,0-.988.2,2.41,2.41,0,0,0-.816.574,2.72,2.72,0,0,0-.555.914,3.437,3.437,0,0,0-.2,1.219,2.933,2.933,0,0,0,.691,2.129,2.559,2.559,0,0,0,1.918.707,4.576,4.576,0,0,0,1.074-.125,4.454,4.454,0,0,0,1-.375Zm9.008.289h-1.359v-5.008a2.235,2.235,0,0,0-.34-1.355,1.147,1.147,0,0,0-.973-.449,1.712,1.712,0,0,0-.512.074,1.779,1.779,0,0,0-.5.258,4.263,4.263,0,0,0-.562.5q-.3.313-.7.781V111H133.2V99.961h1.359v3.2l-.047,1.234a5.317,5.317,0,0,1,.629-.645,3.5,3.5,0,0,1,.617-.426,2.461,2.461,0,0,1,.629-.234,3.089,3.089,0,0,1,.664-.07,2.308,2.308,0,0,1,1.813.715,3.14,3.14,0,0,1,.641,2.152Zm7.531,0-.031-1.055a4.251,4.251,0,0,1-1.3.914,3.5,3.5,0,0,1-1.387.281,3.4,3.4,0,0,1-1.148-.172,2.152,2.152,0,0,1-.785-.473,1.832,1.832,0,0,1-.453-.707,2.616,2.616,0,0,1-.145-.883,2.191,2.191,0,0,1,.879-1.848,4.251,4.251,0,0,1,2.6-.668h1.625V105.7a1.455,1.455,0,0,0-.445-1.113,1.927,1.927,0,0,0-1.359-.418,5.812,5.812,0,0,0-1.309.148,9.2,9.2,0,0,0-1.332.422v-1.227q.258-.094.574-.184t.668-.16q.352-.07.734-.113a6.928,6.928,0,0,1,.773-.043,4.851,4.851,0,0,1,1.281.156,2.6,2.6,0,0,1,.965.477,2.1,2.1,0,0,1,.605.8,2.84,2.84,0,0,1,.211,1.141V111Zm-.148-3.57h-1.727a3.31,3.31,0,0,0-.875.1,1.661,1.661,0,0,0-.6.289,1.16,1.16,0,0,0-.348.449,1.471,1.471,0,0,0-.113.59,1.339,1.339,0,0,0,.07.434.964.964,0,0,0,.227.367,1.094,1.094,0,0,0,.406.254,1.743,1.743,0,0,0,.609.094,2.576,2.576,0,0,0,1.074-.285,5.248,5.248,0,0,0,1.277-.9Zm4.227-4.273h1.242l.039,1.445a5.035,5.035,0,0,1,1.371-1.211,2.784,2.784,0,0,1,1.363-.375,2.222,2.222,0,0,1,1.848.789,3.528,3.528,0,0,1,.582,2.344h-1.375a2.567,2.567,0,0,0-.3-1.5,1.084,1.084,0,0,0-.949-.465,1.65,1.65,0,0,0-.551.1,2.225,2.225,0,0,0-.57.313,5.109,5.109,0,0,0-.621.551,10.169,10.169,0,0,0-.7.813V111h-1.375Zm13.172,11.125a9.916,9.916,0,0,1-3.6-7.375,9.447,9.447,0,0,1,.191-1.887,8.918,8.918,0,0,1,.617-1.887,10.318,10.318,0,0,1,1.125-1.891,13.728,13.728,0,0,1,1.7-1.875l.789.8a9.147,9.147,0,0,0-3.031,6.633,8.277,8.277,0,0,0,.766,3.484,10.767,10.767,0,0,0,2.266,3.156Zm10.469-6.547a2.929,2.929,0,0,1-.328,1.383,3.3,3.3,0,0,1-.9,1.074,4.307,4.307,0,0,1-1.355.7,5.508,5.508,0,0,1-1.687.25q-.227,0-.488-.012t-.52-.031q-.258-.02-.5-.043t-.441-.055v-1.234a6.563,6.563,0,0,0,.965.148q.543.047,1.1.047a3.95,3.95,0,0,0,1.125-.148,2.514,2.514,0,0,0,.852-.426,1.868,1.868,0,0,0,.539-.672,2.04,2.04,0,0,0,.188-.887,1.52,1.52,0,0,0-.684-1.387,3.683,3.683,0,0,0-1.965-.434h-1.937v-5.219h5.5v1.188h-4.219v2.867h.891a7.6,7.6,0,0,1,1.43.133,3.671,3.671,0,0,1,1.238.465,2.559,2.559,0,0,1,.875.891A2.707,2.707,0,0,1,174.758,107.734Zm9.289-1.836a9.056,9.056,0,0,1-.234,2.137,4.948,4.948,0,0,1-.711,1.656,3.343,3.343,0,0,1-1.184,1.07,3.464,3.464,0,0,1-1.66.379,3.533,3.533,0,0,1-1.492-.309,2.964,2.964,0,0,1-1.148-.949,4.687,4.687,0,0,1-.734-1.633,9.433,9.433,0,0,1-.258-2.352,8.963,8.963,0,0,1,.238-2.141,5.054,5.054,0,0,1,.711-1.66,3.3,3.3,0,0,1,1.184-1.07,3.47,3.47,0,0,1,1.656-.379,3.533,3.533,0,0,1,1.492.309,2.952,2.952,0,0,1,1.148.953,4.73,4.73,0,0,1,.734,1.637A9.433,9.433,0,0,1,184.047,105.9Zm-1.375.047q0-.266-.02-.527t-.043-.512l-4.32,3.211a4.018,4.018,0,0,0,.3.75,2.292,2.292,0,0,0,.434.59,1.865,1.865,0,0,0,.578.383,1.885,1.885,0,0,0,.738.137,1.852,1.852,0,0,0,.965-.258,2.153,2.153,0,0,0,.738-.766,4.173,4.173,0,0,0,.469-1.262A8.275,8.275,0,0,0,182.672,105.945ZM178,105.852q0,.242,0,.484t.027.469l4.32-3.2a3.655,3.655,0,0,0-.3-.727,2.3,2.3,0,0,0-.43-.566,1.914,1.914,0,0,0-2.254-.246,2.145,2.145,0,0,0-.738.77,4.226,4.226,0,0,0-.469,1.266A8.275,8.275,0,0,0,178,105.852Zm9.586-6.484a9.958,9.958,0,0,1,3.6,7.422,9.389,9.389,0,0,1-.172,1.75,8.7,8.7,0,0,1-.586,1.855,10.624,10.624,0,0,1-1.113,1.926,13.115,13.115,0,0,1-1.762,1.961l-.789-.8a10.766,10.766,0,0,0,2.273-3.148,8.175,8.175,0,0,0,.75-3.437,9.161,9.161,0,0,0-3.023-6.687ZM207.367,114.2h-1.281v-16h1.281ZM227.8,111h-1.812l-2.977-6.367-.859-2.047V111h-1.3V100.789h1.789l2.836,6.031,1.023,2.336v-8.367h1.3Zm9.289-5.172a7.735,7.735,0,0,1-.324,2.375,4.848,4.848,0,0,1-.875,1.652,3.457,3.457,0,0,1-1.289.969,4.157,4.157,0,0,1-3.273-.039,3.179,3.179,0,0,1-1.211-1.027,4.685,4.685,0,0,1-.715-1.637,9.241,9.241,0,0,1-.234-2.176,7.763,7.763,0,0,1,.32-2.359,4.8,4.8,0,0,1,.871-1.652,3.465,3.465,0,0,1,1.285-.969,3.887,3.887,0,0,1,1.555-.316,3.842,3.842,0,0,1,1.715.359,3.257,3.257,0,0,1,1.215,1.027,4.652,4.652,0,0,1,.723,1.629A9.01,9.01,0,0,1,237.086,105.828Zm-1.445.1a9.149,9.149,0,0,0-.137-1.645,4.1,4.1,0,0,0-.441-1.285,2.273,2.273,0,0,0-.785-.836,2.165,2.165,0,0,0-1.16-.3,1.982,1.982,0,0,0-1.129.316,2.461,2.461,0,0,0-.777.859,4.366,4.366,0,0,0-.453,1.273,7.778,7.778,0,0,0-.148,1.551,8.948,8.948,0,0,0,.141,1.652,4.187,4.187,0,0,0,.441,1.281,2.262,2.262,0,0,0,.777.832,2.129,2.129,0,0,0,1.148.3,2,2,0,0,0,1.133-.316,2.481,2.481,0,0,0,.785-.859,4.294,4.294,0,0,0,.457-1.27A7.761,7.761,0,0,0,235.641,105.93Zm33.3,8.273h-1.281v-16h1.281Zm52.781,0h-1.281v-16h1.281Zm20.43-3.2h-1.812l-2.977-6.367-.859-2.047V111h-1.3V100.789H337l2.836,6.031,1.023,2.336v-8.367h1.3Zm8.875-3.555a4.619,4.619,0,0,1-.238,1.527,3.156,3.156,0,0,1-.7,1.164,3.114,3.114,0,0,1-1.129.742,4.187,4.187,0,0,1-1.535.262,4.608,4.608,0,0,1-1.617-.25,2.748,2.748,0,0,1-1.082-.707,2.779,2.779,0,0,1-.609-1.1,4.986,4.986,0,0,1-.191-1.43v-6.867h1.391v6.758a4.377,4.377,0,0,0,.113,1.055,1.846,1.846,0,0,0,.371.758,1.6,1.6,0,0,0,.668.461,2.832,2.832,0,0,0,1,.156,2,2,0,0,0,1.637-.641,2.766,2.766,0,0,0,.527-1.8v-6.742h1.391ZM359.57,111H353.7V100.789h1.414v9.023h4.461Zm8.8,0h-5.875V100.789h1.414v9.023h4.461Zm41.328,3.2h-1.281v-16H409.7Zm149.547,0h-1.281v-16h1.281Zm-554.2,24H3.758v-16H5.039Zm20.508-7.266a5.2,5.2,0,0,1-.293,1.828,3.582,3.582,0,0,1-.809,1.3,3.314,3.314,0,0,1-1.219.773,4.392,4.392,0,0,1-1.523.258,7.121,7.121,0,0,1-.746-.039,5.66,5.66,0,0,1-.754-.133V138.2H18.844V127.156h1.211l.086,1.313a3.5,3.5,0,0,1,1.25-1.129,3.232,3.232,0,0,1,1.438-.324,2.4,2.4,0,0,1,1.18.281,2.448,2.448,0,0,1,.852.793,3.751,3.751,0,0,1,.516,1.234A6.983,6.983,0,0,1,25.547,130.938ZM24.156,131a6.617,6.617,0,0,0-.09-1.133,2.956,2.956,0,0,0-.285-.883,1.566,1.566,0,0,0-.5-.574,1.262,1.262,0,0,0-.727-.207,1.767,1.767,0,0,0-.523.082,2.123,2.123,0,0,0-.551.273,4.1,4.1,0,0,0-.6.508,8,8,0,0,0-.676.785v3.8a4.561,4.561,0,0,0,.789.246,3.825,3.825,0,0,0,.813.09,2.131,2.131,0,0,0,1.727-.746A3.434,3.434,0,0,0,24.156,131Zm10.313.016a5.2,5.2,0,0,1-.258,1.676,3.728,3.728,0,0,1-.742,1.3,3.329,3.329,0,0,1-1.18.844,3.939,3.939,0,0,1-1.578.3,4.117,4.117,0,0,1-1.512-.262,2.991,2.991,0,0,1-1.133-.77,3.406,3.406,0,0,1-.711-1.258,5.536,5.536,0,0,1-.246-1.727,5.129,5.129,0,0,1,.258-1.668,3.739,3.739,0,0,1,.742-1.3,3.33,3.33,0,0,1,1.18-.844,3.939,3.939,0,0,1,1.578-.3,4.117,4.117,0,0,1,1.512.262,3.012,3.012,0,0,1,1.133.766,3.368,3.368,0,0,1,.711,1.254A5.508,5.508,0,0,1,34.469,131.016Zm-1.391.063a4.506,4.506,0,0,0-.16-1.27,2.557,2.557,0,0,0-.457-.906,1.885,1.885,0,0,0-.723-.547,2.374,2.374,0,0,0-.949-.184,2.136,2.136,0,0,0-1.043.238,2.065,2.065,0,0,0-.711.637,2.744,2.744,0,0,0-.406.926,4.64,4.64,0,0,0-.129,1.105,4.548,4.548,0,0,0,.16,1.273,2.555,2.555,0,0,0,.457.91,1.892,1.892,0,0,0,.719.547,2.366,2.366,0,0,0,.953.184,2.136,2.136,0,0,0,1.043-.238,2.065,2.065,0,0,0,.711-.637,2.744,2.744,0,0,0,.406-.926A4.674,4.674,0,0,0,33.078,131.078Zm10.063-.141a5.264,5.264,0,0,1-.27,1.746,3.68,3.68,0,0,1-.766,1.3,3.292,3.292,0,0,1-1.207.82,4.27,4.27,0,0,1-1.6.285,7.9,7.9,0,0,1-1.422-.133,7.291,7.291,0,0,1-1.437-.422V123.961H37.8V127l-.062,1.453a3.528,3.528,0,0,1,1.254-1.113,3.24,3.24,0,0,1,1.434-.324,2.4,2.4,0,0,1,1.18.281,2.448,2.448,0,0,1,.852.793,3.751,3.751,0,0,1,.516,1.234A6.984,6.984,0,0,1,43.141,130.938ZM41.75,131a6.617,6.617,0,0,0-.09-1.133,2.956,2.956,0,0,0-.285-.883,1.566,1.566,0,0,0-.5-.574,1.262,1.262,0,0,0-.727-.207,1.767,1.767,0,0,0-.523.082,2.123,2.123,0,0,0-.551.273,4.1,4.1,0,0,0-.6.508,8,8,0,0,0-.676.785v3.8a5.3,5.3,0,0,0,.813.246,3.724,3.724,0,0,0,.789.09,2.7,2.7,0,0,0,.895-.148,1.847,1.847,0,0,0,.75-.5,2.482,2.482,0,0,0,.516-.922A4.561,4.561,0,0,0,41.75,131Zm6.156-5.922h-2.32v-1.117h3.7v9.906h2.336V135H45.328v-1.133h2.578ZM59.07,135l-.031-1.055a4.252,4.252,0,0,1-1.3.914,3.5,3.5,0,0,1-1.387.281,3.4,3.4,0,0,1-1.148-.172,2.152,2.152,0,0,1-.785-.473,1.832,1.832,0,0,1-.453-.707,2.616,2.616,0,0,1-.145-.883,2.191,2.191,0,0,1,.879-1.848,4.251,4.251,0,0,1,2.6-.668h1.625V129.7a1.455,1.455,0,0,0-.445-1.113,1.927,1.927,0,0,0-1.359-.418,5.812,5.812,0,0,0-1.309.148,9.2,9.2,0,0,0-1.332.422v-1.227q.258-.094.574-.184t.668-.16q.352-.07.734-.113a6.928,6.928,0,0,1,.773-.043,4.851,4.851,0,0,1,1.281.156,2.6,2.6,0,0,1,.965.477,2.1,2.1,0,0,1,.605.8,2.84,2.84,0,0,1,.211,1.141V135Zm-.148-3.57H57.2a3.311,3.311,0,0,0-.875.1,1.661,1.661,0,0,0-.6.289,1.16,1.16,0,0,0-.348.449,1.471,1.471,0,0,0-.113.59,1.339,1.339,0,0,0,.07.434.964.964,0,0,0,.227.367,1.094,1.094,0,0,0,.406.254,1.743,1.743,0,0,0,.609.094,2.576,2.576,0,0,0,1.074-.285,5.249,5.249,0,0,0,1.277-.9Zm10,3.281a5.88,5.88,0,0,1-1.09.3,6.68,6.68,0,0,1-1.152.1,3.865,3.865,0,0,1-2.863-1.008,4,4,0,0,1-1-2.945,4.7,4.7,0,0,1,.289-1.687,3.758,3.758,0,0,1,.813-1.3,3.591,3.591,0,0,1,1.25-.832,4.245,4.245,0,0,1,1.6-.293,7.15,7.15,0,0,1,1.141.086,4.723,4.723,0,0,1,1.016.281v1.3a4.31,4.31,0,0,0-1.035-.387,4.854,4.854,0,0,0-1.09-.121,2.482,2.482,0,0,0-.988.2,2.41,2.41,0,0,0-.816.574,2.72,2.72,0,0,0-.555.914,3.437,3.437,0,0,0-.2,1.219,2.933,2.933,0,0,0,.691,2.129,2.559,2.559,0,0,0,1.918.707,4.576,4.576,0,0,0,1.074-.125,4.453,4.453,0,0,0,1-.375Zm5.375-6.43h-2.32v-1.125h3.7v6.711h2.336V135H71.719v-1.133H74.3Zm.477-4.414a1.078,1.078,0,0,1,.422.082,1.02,1.02,0,0,1,.34.23,1.109,1.109,0,0,1,.227.34,1.1,1.1,0,0,1,0,.832,1.1,1.1,0,0,1-.227.344,1.02,1.02,0,0,1-.34.23,1.126,1.126,0,0,1-.844,0,1.02,1.02,0,0,1-.34-.23,1.1,1.1,0,0,1-.227-.344,1.1,1.1,0,0,1,0-.832,1.109,1.109,0,0,1,.227-.34,1.02,1.02,0,0,1,.34-.23A1.078,1.078,0,0,1,74.773,123.867Zm12.477,7.148a5.2,5.2,0,0,1-.258,1.676,3.728,3.728,0,0,1-.742,1.3,3.329,3.329,0,0,1-1.18.844,3.939,3.939,0,0,1-1.578.3,4.117,4.117,0,0,1-1.512-.262,2.991,2.991,0,0,1-1.133-.77,3.406,3.406,0,0,1-.711-1.258,5.536,5.536,0,0,1-.246-1.727,5.129,5.129,0,0,1,.258-1.668,3.739,3.739,0,0,1,.742-1.3,3.33,3.33,0,0,1,1.18-.844,3.939,3.939,0,0,1,1.578-.3,4.117,4.117,0,0,1,1.512.262,3.012,3.012,0,0,1,1.133.766A3.368,3.368,0,0,1,87,129.3,5.508,5.508,0,0,1,87.25,131.016Zm-1.391.063a4.506,4.506,0,0,0-.16-1.27,2.557,2.557,0,0,0-.457-.906,1.885,1.885,0,0,0-.723-.547,2.374,2.374,0,0,0-.949-.184,2.136,2.136,0,0,0-1.043.238,2.065,2.065,0,0,0-.711.637,2.744,2.744,0,0,0-.406.926,4.64,4.64,0,0,0-.129,1.105,4.548,4.548,0,0,0,.16,1.273,2.555,2.555,0,0,0,.457.91,1.892,1.892,0,0,0,.719.547,2.366,2.366,0,0,0,.953.184,2.136,2.136,0,0,0,1.043-.238,2.065,2.065,0,0,0,.711-.637,2.744,2.744,0,0,0,.406-.926A4.674,4.674,0,0,0,85.859,131.078Zm3.359-3.922H90.43l.055,1.266a5.663,5.663,0,0,1,.664-.676,3.641,3.641,0,0,1,.629-.434,2.355,2.355,0,0,1,.629-.23,3.263,3.263,0,0,1,.664-.066,2.3,2.3,0,0,1,1.832.715,3.207,3.207,0,0,1,.621,2.152V135H94.164v-5.008a2.21,2.21,0,0,0-.344-1.363,1.217,1.217,0,0,0-1.023-.441,1.632,1.632,0,0,0-.488.074,1.78,1.78,0,0,0-.5.258,4.1,4.1,0,0,0-.559.5q-.3.312-.676.781V135H89.219ZM110.6,138.2H109.32v-16H110.6Zm16.477-9.922h-2.32v-1.125h3.7v6.711h2.336V135H124.5v-1.133h2.578Zm.477-4.414a1.078,1.078,0,0,1,.422.082,1.021,1.021,0,0,1,.34.23,1.109,1.109,0,0,1,.227.34,1.1,1.1,0,0,1,0,.832,1.1,1.1,0,0,1-.227.344,1.021,1.021,0,0,1-.34.23,1.126,1.126,0,0,1-.844,0,1.02,1.02,0,0,1-.34-.23,1.1,1.1,0,0,1-.227-.344,1.1,1.1,0,0,1,0-.832,1.109,1.109,0,0,1,.227-.34,1.02,1.02,0,0,1,.34-.23A1.078,1.078,0,0,1,127.555,123.867Zm5.648,3.289h1.211l.055,1.266a5.663,5.663,0,0,1,.664-.676,3.641,3.641,0,0,1,.629-.434,2.355,2.355,0,0,1,.629-.23,3.263,3.263,0,0,1,.664-.066,2.3,2.3,0,0,1,1.832.715,3.207,3.207,0,0,1,.621,2.152V135h-1.359v-5.008a2.21,2.21,0,0,0-.344-1.363,1.217,1.217,0,0,0-1.023-.441,1.632,1.632,0,0,0-.488.074,1.78,1.78,0,0,0-.5.258,4.1,4.1,0,0,0-.559.5q-.3.312-.676.781V135H133.2Zm15.117,7.734a6.622,6.622,0,0,1-.953.168,9.737,9.737,0,0,1-1,.051,3.162,3.162,0,0,1-2.2-.668,2.655,2.655,0,0,1-.727-2.051V128.3h-2.2v-1.141h2.2V125l1.359-.352v2.508h3.523V128.3H144.8v3.984a1.643,1.643,0,0,0,.449,1.262,1.879,1.879,0,0,0,1.324.418,6.322,6.322,0,0,0,.82-.059,7.8,7.8,0,0,0,.93-.184Zm59.047,3.313h-1.281v-16h1.281Zm21.352-13.414-3.7,6.563V135h-1.406v-3.68l-3.7-6.531h1.68l2.031,3.734.75,1.5.688-1.359,2.055-3.875ZM236.094,135h-5.8V124.789h5.8v1.172H231.68v3.164h4.242V130.3H231.68v3.516h4.414Zm9.211-2.766a2.628,2.628,0,0,1-.3,1.273,2.587,2.587,0,0,1-.828.91,3.831,3.831,0,0,1-1.277.543,7.024,7.024,0,0,1-1.645.18q-.406,0-.809-.031t-.773-.078q-.371-.047-.7-.109t-.594-.133v-1.344a7.277,7.277,0,0,0,1.316.344,9.913,9.913,0,0,0,1.66.125,5.336,5.336,0,0,0,1.145-.105,2.2,2.2,0,0,0,.773-.312,1.24,1.24,0,0,0,.438-.5,1.608,1.608,0,0,0,.137-.68,1.109,1.109,0,0,0-.23-.707,2.272,2.272,0,0,0-.605-.523,5.571,5.571,0,0,0-.855-.422q-.48-.191-.98-.395t-.98-.441a4.054,4.054,0,0,1-.855-.562,2.6,2.6,0,0,1-.605-.762,2.2,2.2,0,0,1-.23-1.039,2.585,2.585,0,0,1,.219-1.031,2.47,2.47,0,0,1,.68-.9,3.519,3.519,0,0,1,1.184-.637,5.443,5.443,0,0,1,1.723-.242q.258,0,.559.023t.609.066q.309.043.609.1t.559.117v1.25a9.466,9.466,0,0,0-1.2-.262,7.88,7.88,0,0,0-1.164-.09,3.076,3.076,0,0,0-1.758.4,1.247,1.247,0,0,0-.562,1.07,1.125,1.125,0,0,0,.23.711,2.293,2.293,0,0,0,.605.531,5.345,5.345,0,0,0,.855.426q.48.191.98.395t.98.445a4,4,0,0,1,.855.574,2.666,2.666,0,0,1,.605.777A2.267,2.267,0,0,1,245.3,132.234Zm23.641,5.969h-1.281v-16h1.281Zm52.781,0h-1.281v-16h1.281Zm20.172-6.469a2.929,2.929,0,0,1-.328,1.383,3.3,3.3,0,0,1-.9,1.074,4.307,4.307,0,0,1-1.355.7,5.508,5.508,0,0,1-1.687.25q-.227,0-.488-.012t-.52-.031q-.258-.02-.5-.043t-.441-.055v-1.234a6.564,6.564,0,0,0,.965.148q.543.047,1.1.047a3.95,3.95,0,0,0,1.125-.148,2.513,2.513,0,0,0,.852-.426,1.868,1.868,0,0,0,.539-.672,2.04,2.04,0,0,0,.188-.887,1.52,1.52,0,0,0-.684-1.387,3.683,3.683,0,0,0-1.965-.434h-1.937v-5.219h5.5v1.188h-4.219v2.867h.891a7.6,7.6,0,0,1,1.43.133,3.671,3.671,0,0,1,1.238.465,2.559,2.559,0,0,1,.875.891A2.707,2.707,0,0,1,341.9,131.734Zm9.289-1.836a9.056,9.056,0,0,1-.234,2.137,4.948,4.948,0,0,1-.711,1.656,3.343,3.343,0,0,1-1.184,1.07,3.464,3.464,0,0,1-1.66.379,3.533,3.533,0,0,1-1.492-.309,2.965,2.965,0,0,1-1.148-.949,4.687,4.687,0,0,1-.734-1.633,9.433,9.433,0,0,1-.258-2.352,8.964,8.964,0,0,1,.238-2.141,5.054,5.054,0,0,1,.711-1.66,3.3,3.3,0,0,1,1.184-1.07,3.47,3.47,0,0,1,1.656-.379,3.533,3.533,0,0,1,1.492.309,2.953,2.953,0,0,1,1.148.953,4.73,4.73,0,0,1,.734,1.637A9.433,9.433,0,0,1,351.188,129.9Zm-1.375.047q0-.266-.02-.527t-.043-.512l-4.32,3.211a4.02,4.02,0,0,0,.3.75,2.291,2.291,0,0,0,.434.59,1.865,1.865,0,0,0,.578.383,1.885,1.885,0,0,0,.738.137,1.852,1.852,0,0,0,.965-.258,2.153,2.153,0,0,0,.738-.766,4.173,4.173,0,0,0,.469-1.262A8.275,8.275,0,0,0,349.813,129.945Zm-4.672-.094q0,.242,0,.484t.027.469l4.32-3.2a3.656,3.656,0,0,0-.3-.727,2.3,2.3,0,0,0-.43-.566,1.914,1.914,0,0,0-2.254-.246,2.145,2.145,0,0,0-.738.77,4.226,4.226,0,0,0-.469,1.266A8.275,8.275,0,0,0,345.141,129.852Zm14.844.047a9.056,9.056,0,0,1-.234,2.137,4.948,4.948,0,0,1-.711,1.656,3.343,3.343,0,0,1-1.184,1.07,3.464,3.464,0,0,1-1.66.379,3.533,3.533,0,0,1-1.492-.309,2.965,2.965,0,0,1-1.148-.949,4.687,4.687,0,0,1-.734-1.633,9.433,9.433,0,0,1-.258-2.352,8.964,8.964,0,0,1,.238-2.141,5.054,5.054,0,0,1,.711-1.66,3.3,3.3,0,0,1,1.184-1.07,3.47,3.47,0,0,1,1.656-.379,3.533,3.533,0,0,1,1.492.309,2.953,2.953,0,0,1,1.148.953,4.73,4.73,0,0,1,.734,1.637A9.433,9.433,0,0,1,359.984,129.9Zm-1.375.047q0-.266-.02-.527t-.043-.512l-4.32,3.211a4.02,4.02,0,0,0,.3.75,2.291,2.291,0,0,0,.434.59,1.865,1.865,0,0,0,.578.383,1.885,1.885,0,0,0,.738.137,1.852,1.852,0,0,0,.965-.258,2.153,2.153,0,0,0,.738-.766,4.173,4.173,0,0,0,.469-1.262A8.275,8.275,0,0,0,358.609,129.945Zm-4.672-.094q0,.242,0,.484t.027.469l4.32-3.2a3.656,3.656,0,0,0-.3-.727,2.3,2.3,0,0,0-.43-.566,1.914,1.914,0,0,0-2.254-.246,2.145,2.145,0,0,0-.738.77,4.226,4.226,0,0,0-.469,1.266A8.275,8.275,0,0,0,353.938,129.852Zm14.844.047a9.056,9.056,0,0,1-.234,2.137,4.948,4.948,0,0,1-.711,1.656,3.343,3.343,0,0,1-1.184,1.07,3.464,3.464,0,0,1-1.66.379,3.533,3.533,0,0,1-1.492-.309,2.965,2.965,0,0,1-1.148-.949,4.687,4.687,0,0,1-.734-1.633,9.433,9.433,0,0,1-.258-2.352,8.964,8.964,0,0,1,.238-2.141,5.054,5.054,0,0,1,.711-1.66,3.3,3.3,0,0,1,1.184-1.07,3.47,3.47,0,0,1,1.656-.379,3.533,3.533,0,0,1,1.492.309,2.953,2.953,0,0,1,1.148.953,4.73,4.73,0,0,1,.734,1.637A9.433,9.433,0,0,1,368.781,129.9Zm-1.375.047q0-.266-.02-.527t-.043-.512l-4.32,3.211a4.02,4.02,0,0,0,.3.75,2.291,2.291,0,0,0,.434.59,1.865,1.865,0,0,0,.578.383,1.885,1.885,0,0,0,.738.137,1.852,1.852,0,0,0,.965-.258,2.153,2.153,0,0,0,.738-.766,4.173,4.173,0,0,0,.469-1.262A8.275,8.275,0,0,0,367.406,129.945Zm-4.672-.094q0,.242,0,.484t.027.469l4.32-3.2a3.656,3.656,0,0,0-.3-.727,2.3,2.3,0,0,0-.43-.566,1.914,1.914,0,0,0-2.254-.246,2.145,2.145,0,0,0-.738.77,4.226,4.226,0,0,0-.469,1.266A8.275,8.275,0,0,0,362.734,129.852ZM409.7,138.2h-1.281v-16H409.7Zm149.547,0h-1.281v-16h1.281ZM8.141,155.336H5.07v3.188H3.727v-3.187H.656v-1.187h3.07v-3.164H5.07v3.164h3.07Zm7.391.047H10.859V154.1h4.672Zm8.8,0H19.656V154.1h4.672Zm8.8,0H28.453V154.1h4.672Zm8.8,0H37.25V154.1h4.672Zm8.8,0H46.047V154.1h4.672Zm8.8,0H54.844V154.1h4.672Zm8.8,0H63.641V154.1h4.672Zm8.8,0H72.438V154.1h4.672Zm8.8,0H81.234V154.1h4.672Zm8.8,0H90.031V154.1H94.7Zm8.8,0H98.828V154.1H103.5Zm10.2-.047h-3.07v3.188h-1.344v-3.187h-3.07v-1.187h3.07v-3.164h1.344v3.164h3.07Zm7.391.047h-4.672V154.1h4.672Zm8.8,0h-4.672V154.1h4.672Zm8.8,0h-4.672V154.1h4.672Zm8.8,0h-4.672V154.1h4.672Zm8.8,0h-4.672V154.1h4.672Zm8.8,0h-4.672V154.1h4.672Zm8.8,0H169.2V154.1h4.672Zm8.8,0H178V154.1h4.672Zm8.8,0H186.8V154.1h4.672Zm8.8,0h-4.672V154.1h4.672Zm10.2-.047H207.4v3.188h-1.344v-3.187h-3.07v-1.187h3.07v-3.164H207.4v3.164h3.07Zm7.391.047h-4.672V154.1h4.672Zm8.8,0h-4.672V154.1h4.672Zm8.8,0h-4.672V154.1h4.672Zm8.8,0h-4.672V154.1h4.672Zm8.8,0h-4.672V154.1h4.672Zm8.8,0h-4.672V154.1h4.672Zm10.2-.047h-3.07v3.188h-1.344v-3.187h-3.07v-1.187h3.07v-3.164h1.344v3.164h3.07Zm7.391.047h-4.672V154.1h4.672Zm8.8,0h-4.672V154.1h4.672Zm8.8,0h-4.672V154.1h4.672Zm8.8,0h-4.672V154.1h4.672Zm8.8,0h-4.672V154.1h4.672Zm10.2-.047h-3.07v3.188h-1.344v-3.187h-3.07v-1.187h3.07v-3.164h1.344v3.164h3.07Zm7.391.047h-4.672V154.1h4.672Zm8.8,0h-4.672V154.1h4.672Zm8.8,0h-4.672V154.1h4.672Zm8.8,0h-4.672V154.1h4.672Zm8.8,0h-4.672V154.1h4.672Zm8.8,0h-4.672V154.1H376.2Zm8.8,0h-4.672V154.1H385Zm8.8,0h-4.672V154.1H393.8Zm8.8,0h-4.672V154.1h4.672Zm10.2-.047h-3.07v3.188h-1.344v-3.187h-3.07v-1.187h3.07v-3.164h1.344v3.164h3.07Zm7.391.047h-4.672V154.1h4.672Zm8.8,0h-4.672V154.1h4.672Zm8.8,0h-4.672V154.1h4.672Zm8.8,0h-4.672V154.1h4.672Zm8.8,0H450.7V154.1h4.672Zm8.8,0H459.5V154.1h4.672Zm8.8,0H468.3V154.1h4.672Zm8.8,0h-4.672V154.1h4.672Zm8.8,0h-4.672V154.1h4.672Zm8.8,0h-4.672V154.1h4.672Zm8.8,0h-4.672V154.1h4.672Zm8.8,0h-4.672V154.1h4.672Zm8.8,0h-4.672V154.1h4.672Zm8.8,0h-4.672V154.1h4.672Zm8.8,0h-4.672V154.1h4.672Zm8.8,0h-4.672V154.1h4.672Zm10.2-.047h-3.07v3.188H557.93v-3.187h-3.07v-1.187h3.07v-3.164h1.344v3.164h3.07Z" transform="translate(424 6013)" fill="#f4a338"/>
  </g>
</svg>
