<svg xmlns="http://www.w3.org/2000/svg" width="127.693" height="125.001" viewBox="0 0 127.693 125.001">
  <g id="Grupo_986189" data-name="Grupo 986189" transform="translate(-271.008 1174.568)">
    <rect id="Rectángulo_8068" data-name="Rectángulo 8068" width="116.483" height="80.276" rx="13.665" transform="translate(276.613 -1153.128)" fill="#cecece"/>
    <g id="Grupo_91206" data-name="Grupo 91206" transform="translate(276.613 -1153.128)">
      <path id="Trazado_136694" data-name="Trazado 136694" d="M286.871-1061.195v-65.757a7.269,7.269,0,0,1,7.26-7.26h-5.313a7.269,7.269,0,0,0-7.26,7.26v65.757a7.268,7.268,0,0,0,7.26,7.26h5.313A7.268,7.268,0,0,1,286.871-1061.195Z" transform="translate(-281.558 1134.211)" fill="#afafaf"/>
    </g>
    <g id="Grupo_91207" data-name="Grupo 91207" transform="translate(380.524 -1153.128)">
      <path id="Trazado_136695" data-name="Trazado 136695" d="M484.414-1061.195v-65.757a7.268,7.268,0,0,0-7.26-7.26h5.313a7.268,7.268,0,0,1,7.26,7.26v65.757a7.268,7.268,0,0,1-7.26,7.26h-5.313A7.268,7.268,0,0,0,484.414-1061.195Z" transform="translate(-477.154 1134.211)" fill="#e2e2e2"/>
    </g>
    <g id="Grupo_91208" data-name="Grupo 91208" transform="translate(275.816 -1153.925)">
      <path id="Trazado_136696" data-name="Trazado 136696" d="M390.079-1053.842H288.115a8.065,8.065,0,0,1-8.056-8.056v-65.757a8.065,8.065,0,0,1,8.056-8.057H390.079a8.065,8.065,0,0,1,8.056,8.057v65.757A8.065,8.065,0,0,1,390.079-1053.842Zm-101.964-80.276a6.47,6.47,0,0,0-6.462,6.463v65.757a6.47,6.47,0,0,0,6.462,6.463H390.079a6.47,6.47,0,0,0,6.462-6.463v-65.757a6.47,6.47,0,0,0-6.462-6.463Z" transform="translate(-280.059 1135.711)" fill="#12263f"/>
    </g>
    <rect id="Rectángulo_8069" data-name="Rectángulo 8069" width="107.548" height="64.966" rx="5.256" transform="translate(281.08 -1148.661)" fill="#6c87d5"/>
    <g id="Grupo_91209" data-name="Grupo 91209" transform="translate(281.081 -1148.661)">
      <path id="Trazado_136697" data-name="Trazado 136697" d="M295.281-1063.628v-59.382a2.8,2.8,0,0,1,2.792-2.792H292.76a2.8,2.8,0,0,0-2.792,2.792v59.382a2.8,2.8,0,0,0,2.792,2.792h5.313A2.8,2.8,0,0,1,295.281-1063.628Z" transform="translate(-289.968 1125.802)" fill="#5573c6"/>
    </g>
    <g id="Grupo_91210" data-name="Grupo 91210" transform="translate(380.524 -1148.661)">
      <path id="Trazado_136698" data-name="Trazado 136698" d="M479.946-1063.628v-59.382a2.8,2.8,0,0,0-2.792-2.792h5.313a2.8,2.8,0,0,1,2.792,2.792v59.382a2.8,2.8,0,0,1-2.792,2.792h-5.313A2.8,2.8,0,0,0,479.946-1063.628Z" transform="translate(-477.154 1125.802)" fill="#708ee0"/>
    </g>
    <g id="Grupo_91211" data-name="Grupo 91211" transform="translate(280.284 -1149.458)">
      <path id="Trazado_136699" data-name="Trazado 136699" d="M394.021-1060.742H292.057a3.593,3.593,0,0,1-3.589-3.589v-59.382a3.593,3.593,0,0,1,3.589-3.589H394.021a3.593,3.593,0,0,1,3.589,3.589v59.382A3.593,3.593,0,0,1,394.021-1060.742Zm-101.964-64.966a2,2,0,0,0-1.995,2v59.382a2,2,0,0,0,1.995,2H394.021a2,2,0,0,0,1.995-2v-59.382a2,2,0,0,0-1.995-2Z" transform="translate(-288.468 1127.302)" fill="#12263f"/>
    </g>
    <rect id="Rectángulo_8070" data-name="Rectángulo 8070" width="40.579" height="4.886" transform="translate(314.565 -1061.081)" fill="#9e9e9e"/>
    <g id="Grupo_91212" data-name="Grupo 91212" transform="translate(314.565 -1061.081)">
      <rect id="Rectángulo_8071" data-name="Rectángulo 8071" width="5.313" height="4.886" transform="translate(0 0)" fill="#12263f"/>
    </g>
    <rect id="Rectángulo_8072" data-name="Rectángulo 8072" width="29.038" height="11.772" transform="translate(320.336 -1072.852)" fill="#cecece"/>
    <g id="Grupo_91213" data-name="Grupo 91213" transform="translate(320.336 -1072.852)">
      <rect id="Rectángulo_8073" data-name="Rectángulo 8073" width="5.313" height="11.772" transform="translate(0 0)" fill="#afafaf"/>
    </g>
    <g id="Grupo_91214" data-name="Grupo 91214" transform="translate(313.768 -1061.878)">
      <path id="Trazado_136700" data-name="Trazado 136700" d="M392.873-955.967H352.294a.8.8,0,0,1-.8-.8v-4.886a.8.8,0,0,1,.8-.8h40.579a.8.8,0,0,1,.8.8v4.886A.8.8,0,0,1,392.873-955.967Zm-39.782-1.594h38.985v-3.292H353.091Z" transform="translate(-351.497 962.447)" fill="#12263f"/>
    </g>
    <g id="Grupo_91215" data-name="Grupo 91215" transform="translate(319.539 -1073.649)">
      <path id="Trazado_136701" data-name="Trazado 136701" d="M392.194-971.24H363.156a.8.8,0,0,1-.8-.8v-11.772a.8.8,0,0,1,.8-.8h29.038a.8.8,0,0,1,.8.8v11.772A.8.8,0,0,1,392.194-971.24Zm-28.241-1.594H391.4v-10.178H363.953Z" transform="translate(-362.359 984.605)" fill="#12263f"/>
    </g>
    <g id="Grupo_91217" data-name="Grupo 91217" transform="translate(331.667 -1081.461)">
      <circle id="Elipse_4228" data-name="Elipse 4228" cx="2.391" cy="2.391" r="2.391" transform="translate(0.797 0.797)" fill="#9e9e9e"/>
      <g id="Grupo_91216" data-name="Grupo 91216" transform="translate(0)">
        <path id="Trazado_136702" data-name="Trazado 136702" d="M388.376-992.934a3.191,3.191,0,0,1-3.188-3.187,3.191,3.191,0,0,1,3.188-3.188,3.191,3.191,0,0,1,3.188,3.188A3.191,3.191,0,0,1,388.376-992.934Zm0-4.781a1.6,1.6,0,0,0-1.594,1.594,1.6,1.6,0,0,0,1.594,1.594,1.6,1.6,0,0,0,1.594-1.594A1.6,1.6,0,0,0,388.376-997.715Z" transform="translate(-385.188 999.309)" fill="#12263f"/>
      </g>
    </g>
    <g id="Grupo_91223" data-name="Grupo 91223" transform="translate(271.008 -1056.992)">
      <g id="Grupo_91220" data-name="Grupo 91220" transform="translate(0 5.83)">
        <g id="Grupo_91218" data-name="Grupo 91218">
          <path id="Trazado_136703" data-name="Trazado 136703" d="M281.37-940.682H271.8a.8.8,0,0,1-.8-.8.8.8,0,0,1,.8-.8h9.565a.8.8,0,0,1,.8.8A.8.8,0,0,1,281.37-940.682Z" transform="translate(-271.008 942.276)" fill="#12263f"/>
        </g>
        <g id="Grupo_91219" data-name="Grupo 91219" transform="translate(116.534)">
          <path id="Trazado_136704" data-name="Trazado 136704" d="M500.727-940.682h-9.565a.8.8,0,0,1-.8-.8.8.8,0,0,1,.8-.8h9.565a.8.8,0,0,1,.8.8A.8.8,0,0,1,500.727-940.682Z" transform="translate(-490.365 942.276)" fill="#12263f"/>
        </g>
      </g>
      <g id="Grupo_91221" data-name="Grupo 91221" transform="translate(14.982 5.83)">
        <path id="Trazado_136705" data-name="Trazado 136705" d="M396.141-940.682H300.006a.8.8,0,0,1-.8-.8.8.8,0,0,1,.8-.8h96.135a.8.8,0,0,1,.8.8A.8.8,0,0,1,396.141-940.682Z" transform="translate(-299.209 942.276)" fill="#12263f"/>
      </g>
      <g id="Grupo_91222" data-name="Grupo 91222" transform="translate(0 0)">
        <path id="Trazado_136706" data-name="Trazado 136706" d="M397.9-951.656H271.8a.8.8,0,0,1-.8-.8.8.8,0,0,1,.8-.8H397.9a.8.8,0,0,1,.8.8A.8.8,0,0,1,397.9-951.656Z" transform="translate(-271.008 953.25)" fill="#12263f"/>
      </g>
    </g>
    <rect id="Rectángulo_8074" data-name="Rectángulo 8074" width="82.071" height="70.308" rx="10.6" transform="translate(293.819 -1173.771)" fill="#cecece"/>
    <g id="Grupo_91224" data-name="Grupo 91224" transform="translate(293.819 -1173.771)">
      <path id="Trazado_136707" data-name="Trazado 136707" d="M319.259-1108.391v-59.045a5.632,5.632,0,0,1,5.631-5.631h-5.313a5.632,5.632,0,0,0-5.631,5.631v59.045a5.631,5.631,0,0,0,5.631,5.631h5.313A5.631,5.631,0,0,1,319.259-1108.391Z" transform="translate(-313.946 1173.068)" fill="#afafaf"/>
    </g>
    <g id="Grupo_91225" data-name="Grupo 91225" transform="translate(364.946 -1173.771)">
      <path id="Trazado_136708" data-name="Trazado 136708" d="M453.462-1108.391v-59.045a5.632,5.632,0,0,0-5.631-5.631h5.313a5.632,5.632,0,0,1,5.631,5.631v59.045a5.631,5.631,0,0,1-5.631,5.631h-5.313A5.631,5.631,0,0,0,453.462-1108.391Z" transform="translate(-447.831 1173.068)" fill="#e2e2e2"/>
    </g>
    <g id="Grupo_91226" data-name="Grupo 91226" transform="translate(293.022 -1174.568)">
      <path id="Trazado_136709" data-name="Trazado 136709" d="M389.682-1102.666H318.874a6.435,6.435,0,0,1-6.428-6.428v-59.045a6.436,6.436,0,0,1,6.428-6.428h70.808a6.436,6.436,0,0,1,6.428,6.428v59.045A6.435,6.435,0,0,1,389.682-1102.666Zm-70.808-70.308a4.84,4.84,0,0,0-4.834,4.834v59.045a4.84,4.84,0,0,0,4.834,4.834h70.808a4.84,4.84,0,0,0,4.834-4.834v-59.045a4.84,4.84,0,0,0-4.834-4.834Z" transform="translate(-312.446 1174.568)" fill="#12263f"/>
    </g>
    <path id="Trazado_136710" data-name="Trazado 136710" d="M396.017-1167.436a5.632,5.632,0,0,0-5.632-5.632H319.578a5.633,5.633,0,0,0-5.632,5.632v9.8h82.071Z" transform="translate(-20.127 -0.703)" fill="#f4a338"/>
    <g id="Grupo_91227" data-name="Grupo 91227" transform="translate(293.819 -1173.771)">
      <path id="Trazado_136711" data-name="Trazado 136711" d="M324.891-1173.068h-5.313a5.633,5.633,0,0,0-5.632,5.632v9.8h5.313v-9.8A5.633,5.633,0,0,1,324.891-1173.068Z" transform="translate(-313.946 1173.068)" fill="#db912e"/>
    </g>
    <g id="Grupo_91228" data-name="Grupo 91228" transform="translate(364.946 -1173.771)">
      <path id="Trazado_136712" data-name="Trazado 136712" d="M447.83-1173.068h5.313a5.632,5.632,0,0,1,5.632,5.632v9.8h-5.313v-9.8A5.632,5.632,0,0,0,447.83-1173.068Z" transform="translate(-447.83 1173.068)" fill="#f4b665"/>
    </g>
    <g id="Grupo_91229" data-name="Grupo 91229" transform="translate(301.301 -1168.626)">
      <circle id="Elipse_4229" data-name="Elipse 4229" cx="2.572" cy="2.572" r="2.572" transform="translate(0 0)" fill="#5573c6"/>
      <circle id="Elipse_4230" data-name="Elipse 4230" cx="2.572" cy="2.572" r="2.572" transform="translate(9.908 0)" fill="#5573c6"/>
      <circle id="Elipse_4231" data-name="Elipse 4231" cx="2.572" cy="2.572" r="2.572" transform="translate(19.815 0)" fill="#5573c6"/>
    </g>
    <g id="Grupo_91233" data-name="Grupo 91233" transform="translate(300.504 -1169.423)">
      <g id="Grupo_91230" data-name="Grupo 91230" transform="translate(0 0)">
        <path id="Trazado_136713" data-name="Trazado 136713" d="M329.9-1158.146a3.372,3.372,0,0,1-3.369-3.369,3.373,3.373,0,0,1,3.369-3.369,3.373,3.373,0,0,1,3.369,3.369A3.372,3.372,0,0,1,329.9-1158.146Zm0-5.144a1.777,1.777,0,0,0-1.775,1.775,1.777,1.777,0,0,0,1.775,1.775,1.777,1.777,0,0,0,1.775-1.775A1.777,1.777,0,0,0,329.9-1163.29Z" transform="translate(-326.529 1164.884)" fill="#12263f"/>
      </g>
      <g id="Grupo_91231" data-name="Grupo 91231" transform="translate(9.908 0)">
        <path id="Trazado_136714" data-name="Trazado 136714" d="M348.548-1158.146a3.372,3.372,0,0,1-3.369-3.369,3.372,3.372,0,0,1,3.369-3.369,3.372,3.372,0,0,1,3.369,3.369A3.372,3.372,0,0,1,348.548-1158.146Zm0-5.144a1.777,1.777,0,0,0-1.775,1.775,1.777,1.777,0,0,0,1.775,1.775,1.777,1.777,0,0,0,1.775-1.775A1.777,1.777,0,0,0,348.548-1163.29Z" transform="translate(-345.179 1164.884)" fill="#12263f"/>
      </g>
      <g id="Grupo_91232" data-name="Grupo 91232" transform="translate(19.815 0)">
        <path id="Trazado_136715" data-name="Trazado 136715" d="M367.2-1158.146a3.372,3.372,0,0,1-3.369-3.369,3.373,3.373,0,0,1,3.369-3.369,3.373,3.373,0,0,1,3.369,3.369A3.372,3.372,0,0,1,367.2-1158.146Zm0-5.144a1.777,1.777,0,0,0-1.775,1.775,1.777,1.777,0,0,0,1.775,1.775,1.777,1.777,0,0,0,1.775-1.775A1.777,1.777,0,0,0,367.2-1163.29Z" transform="translate(-363.828 1164.884)" fill="#12263f"/>
      </g>
    </g>
    <rect id="Rectángulo_8075" data-name="Rectángulo 8075" width="36.467" height="3.92" rx="1.96" transform="translate(331.942 -1167.846)" fill="#5573c6"/>
    <g id="Grupo_91234" data-name="Grupo 91234" transform="translate(331.144 -1168.643)">
      <path id="Trazado_136716" data-name="Trazado 136716" d="M419.509-1157.9H386.962a2.76,2.76,0,0,1-2.757-2.757,2.76,2.76,0,0,1,2.757-2.757h32.547a2.76,2.76,0,0,1,2.757,2.757A2.76,2.76,0,0,1,419.509-1157.9Zm-32.547-3.92a1.164,1.164,0,0,0-1.163,1.163,1.165,1.165,0,0,0,1.163,1.163h32.547a1.165,1.165,0,0,0,1.163-1.163,1.165,1.165,0,0,0-1.163-1.163Z" transform="translate(-384.205 1163.415)" fill="#12263f"/>
    </g>
    <g id="Grupo_91235" data-name="Grupo 91235" transform="translate(293.022 -1174.568)">
      <path id="Trazado_136717" data-name="Trazado 136717" d="M395.314-1157.541H313.243a.8.8,0,0,1-.8-.8v-9.8a6.437,6.437,0,0,1,6.429-6.429h70.806a6.437,6.437,0,0,1,6.429,6.429v9.8A.8.8,0,0,1,395.314-1157.541Zm-81.274-1.594h80.477v-9a4.841,4.841,0,0,0-4.835-4.835H318.875a4.841,4.841,0,0,0-4.835,4.835Z" transform="translate(-312.446 1174.568)" fill="#12263f"/>
    </g>
    <rect id="Rectángulo_8076" data-name="Rectángulo 8076" width="69.234" height="25.534" rx="12.767" transform="translate(300.237 -1116.23)" fill="#ffca28"/>
    <g id="Grupo_91236" data-name="Grupo 91236" transform="translate(299.44 -1117.027)">
      <path id="Trazado_136718" data-name="Trazado 136718" d="M381.791-1039.129h-43.7a13.579,13.579,0,0,1-13.565-13.564,13.58,13.58,0,0,1,13.565-13.564h43.7a13.58,13.58,0,0,1,13.565,13.564A13.579,13.579,0,0,1,381.791-1039.129Zm-43.7-25.534a11.984,11.984,0,0,0-11.971,11.97,11.984,11.984,0,0,0,11.971,11.97h43.7a11.984,11.984,0,0,0,11.971-11.97,11.984,11.984,0,0,0-11.971-11.97Z" transform="translate(-324.527 1066.257)" fill="#12263f"/>
    </g>
    <rect id="Rectángulo_8077" data-name="Rectángulo 8077" width="4.174" height="4.174" transform="translate(302.271 -1151.027)" fill="#12263f"/>
    <rect id="Rectángulo_8078" data-name="Rectángulo 8078" width="36.847" height="4.174" transform="translate(309.606 -1151.027)" fill="#12263f"/>
    <rect id="Rectángulo_8079" data-name="Rectángulo 8079" width="6.649" height="4.174" transform="translate(349.539 -1151.027)" fill="#12263f"/>
    <rect id="Rectángulo_8080" data-name="Rectángulo 8080" width="4.174" height="4.174" transform="translate(302.271 -1142.538)" fill="#12263f"/>
    <rect id="Rectángulo_8081" data-name="Rectángulo 8081" width="29.439" height="4.174" transform="translate(309.606 -1142.538)" fill="#12263f"/>
    <rect id="Rectángulo_8082" data-name="Rectángulo 8082" width="13.999" height="4.174" transform="translate(342.19 -1142.538)" fill="#12263f"/>
    <rect id="Rectángulo_8083" data-name="Rectángulo 8083" width="4.174" height="4.174" transform="translate(302.271 -1134.048)" fill="#12263f"/>
    <rect id="Rectángulo_8084" data-name="Rectángulo 8084" width="14.719" height="4.174" transform="translate(309.606 -1134.048)" fill="#12263f"/>
    <rect id="Rectángulo_8085" data-name="Rectángulo 8085" width="25.901" height="4.174" transform="translate(330.288 -1134.048)" fill="#12263f"/>
    <rect id="Rectángulo_8086" data-name="Rectángulo 8086" width="4.174" height="4.174" transform="translate(302.271 -1125.559)" fill="#12263f"/>
    <rect id="Rectángulo_8087" data-name="Rectángulo 8087" width="8.607" height="4.174" transform="translate(309.606 -1125.559)" fill="#12263f"/>
    <rect id="Rectángulo_8088" data-name="Rectángulo 8088" width="34.895" height="4.174" transform="translate(321.294 -1125.559)" fill="#12263f"/>
    <g id="Grupo_91237" data-name="Grupo 91237" transform="translate(306.673 -1107.701)">
      <path id="Trazado_136719" data-name="Trazado 136719" d="M344.736-1044.5a6.324,6.324,0,0,1-.26,1.925,3.729,3.729,0,0,1-.715,1.329,2.834,2.834,0,0,1-1.066.771,3.409,3.409,0,0,1-1.307.251,2.86,2.86,0,0,1-2.432-1.075,5.106,5.106,0,0,1-.815-3.125,6.309,6.309,0,0,1,.26-1.925,3.726,3.726,0,0,1,.715-1.329,2.828,2.828,0,0,1,1.066-.771,3.417,3.417,0,0,1,1.307-.251,2.864,2.864,0,0,1,2.433,1.072A5.107,5.107,0,0,1,344.736-1044.5Zm-1.63.075a4.692,4.692,0,0,0-.389-2.169,1.343,1.343,0,0,0-1.279-.714,1.467,1.467,0,0,0-.759.185,1.435,1.435,0,0,0-.517.542,2.753,2.753,0,0,0-.3.881,6.842,6.842,0,0,0-.094,1.2,4.659,4.659,0,0,0,.392,2.169,1.344,1.344,0,0,0,1.276.714,1.488,1.488,0,0,0,.762-.185,1.407,1.407,0,0,0,.517-.542,2.808,2.808,0,0,0,.295-.88A6.851,6.851,0,0,0,343.106-1044.427Z" transform="translate(-338.141 1048.702)" fill="#12263f"/>
      <path id="Trazado_136720" data-name="Trazado 136720" d="M356.645-1040.249l-1.154-2.633a1.242,1.242,0,0,0-.454-.567,1.223,1.223,0,0,0-.686-.191h-.295v3.391h-1.542v-8.193H354.9a6.008,6.008,0,0,1,1.229.116,2.563,2.563,0,0,1,.94.386,1.794,1.794,0,0,1,.6.7,2.417,2.417,0,0,1,.21,1.06,2.264,2.264,0,0,1-.132.8,1.792,1.792,0,0,1-.37.605,1.883,1.883,0,0,1-.567.411,2.65,2.65,0,0,1-.718.219,1.024,1.024,0,0,1,.552.342,3.427,3.427,0,0,1,.5.805l1.31,2.745Zm-.383-5.78a.975.975,0,0,0-.383-.865,2.034,2.034,0,0,0-1.147-.263h-.677v2.313h.627a2.58,2.58,0,0,0,.649-.075,1.466,1.466,0,0,0,.5-.225,1.036,1.036,0,0,0,.319-.373A1.114,1.114,0,0,0,356.262-1046.029Z" transform="translate(-344.878 1048.58)" fill="#12263f"/>
      <path id="Trazado_136721" data-name="Trazado 136721" d="M371.48-1044.449a5.962,5.962,0,0,1-.235,1.73,3.4,3.4,0,0,1-.734,1.326,3.273,3.273,0,0,1-1.276.846,5.207,5.207,0,0,1-1.862.3h-2.081v-8.193h2.426a5.211,5.211,0,0,1,1.646.235,2.85,2.85,0,0,1,1.175.724,3.087,3.087,0,0,1,.706,1.242A6.045,6.045,0,0,1,371.48-1044.449Zm-1.655.1a5.966,5.966,0,0,0-.106-1.185,2.317,2.317,0,0,0-.361-.881,1.606,1.606,0,0,0-.68-.548,2.628,2.628,0,0,0-1.059-.188h-.784v5.611h.677a2.161,2.161,0,0,0,1.724-.677A3.2,3.2,0,0,0,369.825-1044.349Z" transform="translate(-350.868 1048.58)" fill="#12263f"/>
      <path id="Trazado_136722" data-name="Trazado 136722" d="M379.736-1040.249v-8.193h4.934v1.3H381.3v2.037h3.21v1.273H381.3v2.275h3.367v1.3Z" transform="translate(-357.638 1048.58)" fill="#12263f"/>
      <path id="Trazado_136723" data-name="Trazado 136723" d="M396.505-1040.249l-1.153-2.633a1.245,1.245,0,0,0-.455-.567,1.222,1.222,0,0,0-.686-.191h-.294v3.391h-1.542v-8.193h2.388a6.006,6.006,0,0,1,1.228.116,2.555,2.555,0,0,1,.94.386,1.789,1.789,0,0,1,.6.7,2.409,2.409,0,0,1,.21,1.06,2.276,2.276,0,0,1-.132.8,1.791,1.791,0,0,1-.37.605,1.882,1.882,0,0,1-.567.411,2.656,2.656,0,0,1-.718.219,1.025,1.025,0,0,1,.551.342,3.409,3.409,0,0,1,.5.805l1.31,2.745Zm-.383-5.78a.975.975,0,0,0-.383-.865,2.032,2.032,0,0,0-1.147-.263h-.677v2.313h.627a2.579,2.579,0,0,0,.649-.075,1.462,1.462,0,0,0,.5-.225,1.038,1.038,0,0,0,.32-.373A1.12,1.12,0,0,0,396.123-1046.029Z" transform="translate(-363.562 1048.58)" fill="#12263f"/>
      <path id="Trazado_136724" data-name="Trazado 136724" d="M418.947-1040.249v-8.193h2.646a3.672,3.672,0,0,1,2.1.489,1.685,1.685,0,0,1,.7,1.479,2.47,2.47,0,0,1-.072.6,1.864,1.864,0,0,1-.223.536,1.765,1.765,0,0,1-.376.432,1.688,1.688,0,0,1-.533.295,1.9,1.9,0,0,1,.586.2,1.739,1.739,0,0,1,.489.382,1.775,1.775,0,0,1,.332.555,1.984,1.984,0,0,1,.122.715,2.206,2.206,0,0,1-.84,1.884,3.994,3.994,0,0,1-2.426.63Zm3.837-5.955a1.114,1.114,0,0,0-.075-.42.76.76,0,0,0-.241-.32,1.184,1.184,0,0,0-.426-.2,2.376,2.376,0,0,0-.63-.072h-.934v2.169h.934a1.941,1.941,0,0,0,.636-.091,1.167,1.167,0,0,0,.427-.251.93.93,0,0,0,.238-.367A1.336,1.336,0,0,0,422.784-1046.2Zm-1.229,4.7a2.03,2.03,0,0,0,.649-.094,1.346,1.346,0,0,0,.467-.26,1.086,1.086,0,0,0,.285-.392,1.206,1.206,0,0,0,.1-.482.986.986,0,0,0-.4-.834,2.02,2.02,0,0,0-1.219-.3h-.959v2.364Z" transform="translate(-376.018 1048.58)" fill="#12263f"/>
      <path id="Trazado_136725" data-name="Trazado 136725" d="M435.061-1043.151v2.9h-1.567v-2.89l-2.664-5.3h1.711l1.2,2.532.551,1.241.552-1.279,1.26-2.495h1.642Z" transform="translate(-381.589 1048.58)" fill="#12263f"/>
    </g>
  </g>
</svg>
