<svg xmlns="http://www.w3.org/2000/svg" width="341.766" height="175.539" viewBox="0 0 341.766 175.539">
  <g id="Grupo_986589" data-name="Grupo 986589" transform="translate(-319.656 -14864.984)">
    <path id="Trazado_659722" data-name="Trazado 659722" d="M8.141,11.336H5.07v3.188H3.727V11.336H.656V10.148h3.07V6.984H5.07v3.164h3.07Zm7.391.047H10.859V10.1h4.672Zm8.8,0H19.656V10.1h4.672Zm8.8,0H28.453V10.1h4.672Zm8.8,0H37.25V10.1h4.672Zm8.8,0H46.047V10.1h4.672Zm8.8,0H54.844V10.1h4.672Zm8.8,0H63.641V10.1h4.672Zm8.8,0H72.438V10.1h4.672Zm8.8,0H81.234V10.1h4.672Zm8.8,0H90.031V10.1H94.7Zm8.8,0H98.828V10.1H103.5Zm8.8,0h-4.672V10.1H112.3Zm10.2-.047h-3.07v3.188h-1.344V11.336h-3.07V10.148h3.07V6.984h1.344v3.164h3.07Zm7.391.047h-4.672V10.1h4.672Zm8.8,0h-4.672V10.1h4.672Zm8.8,0h-4.672V10.1h4.672Zm8.8,0h-4.672V10.1h4.672Zm8.8,0h-4.672V10.1h4.672Zm8.8,0H169.2V10.1h4.672Zm8.8,0H178V10.1h4.672Zm8.8,0H186.8V10.1h4.672Zm8.8,0h-4.672V10.1h4.672Zm8.8,0h-4.672V10.1h4.672Zm8.8,0h-4.672V10.1h4.672Zm10.2-.047h-3.07v3.188h-1.344V11.336h-3.07V10.148h3.07V6.984h1.344v3.164h3.07Zm7.391.047h-4.672V10.1h4.672Zm8.8,0h-4.672V10.1h4.672Zm8.8,0h-4.672V10.1h4.672Zm8.8,0h-4.672V10.1h4.672Zm8.8,0h-4.672V10.1h4.672Zm8.8,0h-4.672V10.1h4.672Zm8.8,0h-4.672V10.1h4.672Zm8.8,0h-4.672V10.1h4.672Zm8.8,0h-4.672V10.1h4.672Zm8.8,0h-4.672V10.1h4.672Zm8.8,0H318.75V10.1h4.672Zm8.8,0h-4.672V10.1h4.672Zm10.2-.047h-3.07v3.188h-1.344V11.336h-3.07V10.148h3.07V6.984h1.344v3.164h3.07ZM5.039,42.2H3.758v-16H5.039Zm16.477-9.922H19.2V31.156h3.7v6.711h2.336V39H18.938V37.867h2.578Zm.477-4.414a1.078,1.078,0,0,1,.422.082,1.02,1.02,0,0,1,.34.23,1.109,1.109,0,0,1,.227.34,1.1,1.1,0,0,1,0,.832,1.1,1.1,0,0,1-.227.344,1.02,1.02,0,0,1-.34.23,1.126,1.126,0,0,1-.844,0,1.02,1.02,0,0,1-.34-.23A1.1,1.1,0,0,1,21,29.352a1.1,1.1,0,0,1,0-.832,1.109,1.109,0,0,1,.227-.34,1.02,1.02,0,0,1,.34-.23A1.078,1.078,0,0,1,21.992,27.867Zm5.25,7.375a5.342,5.342,0,0,1,.273-1.777,3.653,3.653,0,0,1,.777-1.312A3.29,3.29,0,0,1,29.5,31.34a4.278,4.278,0,0,1,1.574-.277,5.764,5.764,0,0,1,.738.047,4.772,4.772,0,0,1,.715.148v-3.3H33.9V39H32.68l-.047-1.484A4.11,4.11,0,0,1,31.4,38.742a2.744,2.744,0,0,1-1.437.4,2.33,2.33,0,0,1-2.035-1.074,3.806,3.806,0,0,1-.512-1.23A6.858,6.858,0,0,1,27.242,35.242Zm1.391-.086a4.232,4.232,0,0,0,.418,2.121,1.31,1.31,0,0,0,1.184.7,1.777,1.777,0,0,0,1.09-.461,6.594,6.594,0,0,0,1.207-1.367V32.508a3.305,3.305,0,0,0-.742-.238,4.057,4.057,0,0,0-.8-.082,2.165,2.165,0,0,0-1.73.719A3.39,3.39,0,0,0,28.633,35.156ZM43.984,42.2h-8.8V41.078h8.8Zm7.953-7.266a5.2,5.2,0,0,1-.293,1.828,3.581,3.581,0,0,1-.809,1.3,3.314,3.314,0,0,1-1.219.773,4.392,4.392,0,0,1-1.523.258,7.122,7.122,0,0,1-.746-.039,5.659,5.659,0,0,1-.754-.133V42.2H45.234V31.156h1.211l.086,1.313a3.5,3.5,0,0,1,1.25-1.129,3.232,3.232,0,0,1,1.438-.324,2.4,2.4,0,0,1,1.18.281,2.448,2.448,0,0,1,.852.793,3.751,3.751,0,0,1,.516,1.234A6.984,6.984,0,0,1,51.938,34.938ZM50.547,35a6.617,6.617,0,0,0-.09-1.133,2.956,2.956,0,0,0-.285-.883,1.567,1.567,0,0,0-.5-.574,1.262,1.262,0,0,0-.727-.207,1.767,1.767,0,0,0-.523.082,2.123,2.123,0,0,0-.551.273,4.1,4.1,0,0,0-.6.508,8,8,0,0,0-.676.785v3.8a4.562,4.562,0,0,0,.789.246,3.825,3.825,0,0,0,.813.09,2.131,2.131,0,0,0,1.727-.746A3.434,3.434,0,0,0,50.547,35Zm10.109-.336q0,.289-.008.484t-.023.367H55.117a2.441,2.441,0,0,0,.672,1.848,2.69,2.69,0,0,0,1.938.645q.344,0,.688-.027t.664-.074q.32-.047.613-.105t.543-.129v1.117a9.49,9.49,0,0,1-1.254.254,10.47,10.47,0,0,1-1.449.1,4.928,4.928,0,0,1-1.734-.273,2.969,2.969,0,0,1-1.191-.793,3.265,3.265,0,0,1-.687-1.273,6.026,6.026,0,0,1-.223-1.707,5.069,5.069,0,0,1,.238-1.566,3.932,3.932,0,0,1,.7-1.3,3.3,3.3,0,0,1,2.629-1.215,3.827,3.827,0,0,1,1.453.258,2.918,2.918,0,0,1,1.066.73,3.114,3.114,0,0,1,.656,1.148A4.814,4.814,0,0,1,60.656,34.664Zm-1.414-.2a2.963,2.963,0,0,0-.1-.957,2.014,2.014,0,0,0-.387-.746,1.8,1.8,0,0,0-.652-.488A2.189,2.189,0,0,0,57.2,32.1a1.893,1.893,0,0,0-.812.172,1.853,1.853,0,0,0-.633.484,2.5,2.5,0,0,0-.43.75,3.458,3.458,0,0,0-.2.961Zm3.906-3.312h1.242L64.43,32.6A5.035,5.035,0,0,1,65.8,31.391a2.784,2.784,0,0,1,1.363-.375,2.222,2.222,0,0,1,1.848.789,3.528,3.528,0,0,1,.582,2.344H68.219a2.567,2.567,0,0,0-.3-1.5,1.084,1.084,0,0,0-.949-.465,1.65,1.65,0,0,0-.551.1,2.225,2.225,0,0,0-.57.313,5.109,5.109,0,0,0-.621.551,10.169,10.169,0,0,0-.7.813V39H63.148Zm14.688,5.7a1.867,1.867,0,0,1-.141.742,1.947,1.947,0,0,1-.383.582,2.382,2.382,0,0,1-.562.434,3.739,3.739,0,0,1-.684.3,4.5,4.5,0,0,1-.746.172,5.3,5.3,0,0,1-.75.055,14.057,14.057,0,0,1-1.465-.07,9.882,9.882,0,0,1-1.309-.227v-1.25a10.89,10.89,0,0,0,1.367.3,9.135,9.135,0,0,0,1.352.1,3.033,3.033,0,0,0,1.445-.266.831.831,0,0,0,.469-.758.928.928,0,0,0-.074-.379.861.861,0,0,0-.27-.32,2.576,2.576,0,0,0-.605-.316q-.41-.164-1.121-.375a7.958,7.958,0,0,1-.98-.355,3.288,3.288,0,0,1-.777-.473,2.03,2.03,0,0,1-.516-.641,1.884,1.884,0,0,1-.187-.867,1.993,1.993,0,0,1,.152-.719,1.953,1.953,0,0,1,.52-.727,2.891,2.891,0,0,1,.992-.559,4.706,4.706,0,0,1,1.563-.223q.461,0,1.023.051a10.569,10.569,0,0,1,1.172.176v1.211a11.2,11.2,0,0,0-1.215-.23,7.915,7.915,0,0,0-1-.074,3.975,3.975,0,0,0-.855.078,1.775,1.775,0,0,0-.562.215.839.839,0,0,0-.309.32.855.855,0,0,0-.094.395.877.877,0,0,0,.082.383.916.916,0,0,0,.3.332,3,3,0,0,0,.621.32q.4.16,1.039.348a8.312,8.312,0,0,1,1.172.426,3.024,3.024,0,0,1,.773.5,1.6,1.6,0,0,1,.426.617A2.214,2.214,0,0,1,77.836,36.859Zm9.414-1.844a5.2,5.2,0,0,1-.258,1.676A3.728,3.728,0,0,1,86.25,38a3.329,3.329,0,0,1-1.18.844,3.939,3.939,0,0,1-1.578.3,4.117,4.117,0,0,1-1.512-.262,2.991,2.991,0,0,1-1.133-.77,3.406,3.406,0,0,1-.711-1.258,5.536,5.536,0,0,1-.246-1.727,5.129,5.129,0,0,1,.258-1.668,3.739,3.739,0,0,1,.742-1.3,3.33,3.33,0,0,1,1.18-.844,3.939,3.939,0,0,1,1.578-.3,4.117,4.117,0,0,1,1.512.262,3.012,3.012,0,0,1,1.133.766A3.368,3.368,0,0,1,87,33.3,5.508,5.508,0,0,1,87.25,35.016Zm-1.391.063a4.506,4.506,0,0,0-.16-1.27,2.557,2.557,0,0,0-.457-.906,1.885,1.885,0,0,0-.723-.547,2.374,2.374,0,0,0-.949-.184,2.136,2.136,0,0,0-1.043.238,2.065,2.065,0,0,0-.711.637,2.744,2.744,0,0,0-.406.926,4.64,4.64,0,0,0-.129,1.105,4.548,4.548,0,0,0,.16,1.273,2.555,2.555,0,0,0,.457.91,1.892,1.892,0,0,0,.719.547,2.366,2.366,0,0,0,.953.184,2.136,2.136,0,0,0,1.043-.238,2.065,2.065,0,0,0,.711-.637,2.744,2.744,0,0,0,.406-.926A4.674,4.674,0,0,0,85.859,35.078Zm3.359-3.922H90.43l.055,1.266a5.663,5.663,0,0,1,.664-.676,3.641,3.641,0,0,1,.629-.434,2.355,2.355,0,0,1,.629-.23,3.263,3.263,0,0,1,.664-.066,2.3,2.3,0,0,1,1.832.715,3.207,3.207,0,0,1,.621,2.152V39H94.164V33.992a2.21,2.21,0,0,0-.344-1.363,1.217,1.217,0,0,0-1.023-.441,1.633,1.633,0,0,0-.488.074,1.78,1.78,0,0,0-.5.258,4.1,4.1,0,0,0-.559.5q-.3.312-.676.781V39H89.219ZM103.055,39l-.031-1.055a4.252,4.252,0,0,1-1.3.914,3.5,3.5,0,0,1-1.387.281,3.4,3.4,0,0,1-1.148-.172A2.152,2.152,0,0,1,98.4,38.5a1.832,1.832,0,0,1-.453-.707,2.616,2.616,0,0,1-.145-.883,2.191,2.191,0,0,1,.879-1.848,4.251,4.251,0,0,1,2.6-.668h1.625V33.7a1.455,1.455,0,0,0-.445-1.113,1.927,1.927,0,0,0-1.359-.418,5.812,5.812,0,0,0-1.309.148,9.2,9.2,0,0,0-1.332.422V31.516q.258-.094.574-.184t.668-.16q.352-.07.734-.113a6.929,6.929,0,0,1,.773-.043,4.851,4.851,0,0,1,1.281.156,2.6,2.6,0,0,1,.965.477,2.1,2.1,0,0,1,.605.8,2.84,2.84,0,0,1,.211,1.141V39Zm-.148-3.57H101.18a3.311,3.311,0,0,0-.875.1,1.661,1.661,0,0,0-.6.289,1.16,1.16,0,0,0-.348.449,1.471,1.471,0,0,0-.113.59,1.339,1.339,0,0,0,.07.434.964.964,0,0,0,.227.367,1.094,1.094,0,0,0,.406.254,1.743,1.743,0,0,0,.609.094,2.576,2.576,0,0,0,1.074-.285,5.248,5.248,0,0,0,1.277-.9ZM119.4,42.2h-1.281v-16H119.4Zm13.8-11.047h1.211l.055,1.266a5.663,5.663,0,0,1,.664-.676,3.641,3.641,0,0,1,.629-.434,2.355,2.355,0,0,1,.629-.23,3.263,3.263,0,0,1,.664-.066,2.3,2.3,0,0,1,1.832.715,3.207,3.207,0,0,1,.621,2.152V39h-1.359V33.992a2.21,2.21,0,0,0-.344-1.363,1.217,1.217,0,0,0-1.023-.441,1.633,1.633,0,0,0-.488.074,1.78,1.78,0,0,0-.5.258,4.1,4.1,0,0,0-.559.5q-.3.312-.676.781V39H133.2Zm15.625,3.859a5.2,5.2,0,0,1-.258,1.676,3.728,3.728,0,0,1-.742,1.3,3.329,3.329,0,0,1-1.18.844,3.939,3.939,0,0,1-1.578.3,4.117,4.117,0,0,1-1.512-.262,2.991,2.991,0,0,1-1.133-.77,3.406,3.406,0,0,1-.711-1.258,5.536,5.536,0,0,1-.246-1.727,5.129,5.129,0,0,1,.258-1.668,3.739,3.739,0,0,1,.742-1.3,3.33,3.33,0,0,1,1.18-.844,3.939,3.939,0,0,1,1.578-.3,4.117,4.117,0,0,1,1.512.262,3.012,3.012,0,0,1,1.133.766,3.368,3.368,0,0,1,.711,1.254A5.508,5.508,0,0,1,148.828,35.016Zm-1.391.063a4.506,4.506,0,0,0-.16-1.27,2.557,2.557,0,0,0-.457-.906,1.885,1.885,0,0,0-.723-.547,2.374,2.374,0,0,0-.949-.184,2.136,2.136,0,0,0-1.043.238,2.065,2.065,0,0,0-.711.637,2.744,2.744,0,0,0-.406.926,4.64,4.64,0,0,0-.129,1.105,4.548,4.548,0,0,0,.16,1.273,2.554,2.554,0,0,0,.457.91,1.892,1.892,0,0,0,.719.547,2.366,2.366,0,0,0,.953.184,2.136,2.136,0,0,0,1.043-.238,2.065,2.065,0,0,0,.711-.637,2.744,2.744,0,0,0,.406-.926A4.674,4.674,0,0,0,147.438,35.078ZM156.391,39V33.367a5.376,5.376,0,0,0-.027-.6,1.371,1.371,0,0,0-.086-.371.4.4,0,0,0-.148-.191.421.421,0,0,0-.223-.055.491.491,0,0,0-.289.094,1.313,1.313,0,0,0-.285.3,4.818,4.818,0,0,0-.336.559q-.184.348-.434.855V39H153.32V33.516q0-.43-.027-.7a1.624,1.624,0,0,0-.086-.414.389.389,0,0,0-.152-.2.442.442,0,0,0-.227-.055.493.493,0,0,0-.266.078,1.13,1.13,0,0,0-.277.281,4.4,4.4,0,0,0-.34.555q-.187.352-.445.9V39h-1.25V31.156h1.039l.063,1.492a7.134,7.134,0,0,1,.395-.758,2.44,2.44,0,0,1,.395-.5,1.346,1.346,0,0,1,.434-.281,1.4,1.4,0,0,1,.512-.09,1.153,1.153,0,0,1,.961.414,2.051,2.051,0,0,1,.328,1.281q.188-.406.367-.723a2.641,2.641,0,0,1,.387-.531,1.484,1.484,0,0,1,.457-.328,1.388,1.388,0,0,1,.578-.113q1.477,0,1.477,2.273V39Zm9.906-4.062a5.264,5.264,0,0,1-.27,1.746,3.68,3.68,0,0,1-.766,1.3,3.292,3.292,0,0,1-1.207.82,4.27,4.27,0,0,1-1.6.285,7.9,7.9,0,0,1-1.422-.133,7.29,7.29,0,0,1-1.437-.422V27.961h1.359V31l-.062,1.453a3.528,3.528,0,0,1,1.254-1.113,3.24,3.24,0,0,1,1.434-.324,2.4,2.4,0,0,1,1.18.281,2.448,2.448,0,0,1,.852.793,3.751,3.751,0,0,1,.516,1.234A6.984,6.984,0,0,1,166.3,34.938ZM164.906,35a6.617,6.617,0,0,0-.09-1.133,2.956,2.956,0,0,0-.285-.883,1.566,1.566,0,0,0-.5-.574,1.262,1.262,0,0,0-.727-.207,1.767,1.767,0,0,0-.523.082,2.123,2.123,0,0,0-.551.273,4.1,4.1,0,0,0-.6.508,8,8,0,0,0-.676.785v3.8a5.3,5.3,0,0,0,.813.246,3.724,3.724,0,0,0,.789.09,2.7,2.7,0,0,0,.895-.148,1.847,1.847,0,0,0,.75-.5,2.482,2.482,0,0,0,.516-.922A4.561,4.561,0,0,0,164.906,35Zm3.8-3.844h1.242l.039,1.445a5.035,5.035,0,0,1,1.371-1.211,2.784,2.784,0,0,1,1.363-.375,2.222,2.222,0,0,1,1.848.789,3.528,3.528,0,0,1,.582,2.344h-1.375a2.567,2.567,0,0,0-.3-1.5,1.084,1.084,0,0,0-.949-.465,1.65,1.65,0,0,0-.551.1,2.225,2.225,0,0,0-.57.313,5.109,5.109,0,0,0-.621.551,10.169,10.169,0,0,0-.7.813V39h-1.375Zm15.1,3.508q0,.289-.008.484t-.023.367h-5.508a2.441,2.441,0,0,0,.672,1.848,2.69,2.69,0,0,0,1.938.645q.344,0,.688-.027t.664-.074q.32-.047.613-.105t.543-.129v1.117a9.49,9.49,0,0,1-1.254.254,10.47,10.47,0,0,1-1.449.1,4.928,4.928,0,0,1-1.734-.273,2.968,2.968,0,0,1-1.191-.793,3.265,3.265,0,0,1-.687-1.273,6.026,6.026,0,0,1-.223-1.707,5.069,5.069,0,0,1,.238-1.566,3.932,3.932,0,0,1,.7-1.3,3.3,3.3,0,0,1,2.629-1.215,3.827,3.827,0,0,1,1.453.258,2.918,2.918,0,0,1,1.066.73,3.114,3.114,0,0,1,.656,1.148A4.814,4.814,0,0,1,183.813,34.664Zm-1.414-.2a2.964,2.964,0,0,0-.1-.957,2.014,2.014,0,0,0-.387-.746,1.8,1.8,0,0,0-.652-.488,2.189,2.189,0,0,0-.906-.176,1.893,1.893,0,0,0-.812.172,1.853,1.853,0,0,0-.633.484,2.5,2.5,0,0,0-.43.75,3.458,3.458,0,0,0-.2.961Zm9.8,2.391a1.867,1.867,0,0,1-.141.742,1.947,1.947,0,0,1-.383.582,2.381,2.381,0,0,1-.562.434,3.74,3.74,0,0,1-.684.3,4.5,4.5,0,0,1-.746.172,5.3,5.3,0,0,1-.75.055,14.057,14.057,0,0,1-1.465-.07,9.881,9.881,0,0,1-1.309-.227v-1.25a10.889,10.889,0,0,0,1.367.3,9.135,9.135,0,0,0,1.352.1,3.032,3.032,0,0,0,1.445-.266.831.831,0,0,0,.469-.758.928.928,0,0,0-.074-.379.861.861,0,0,0-.27-.32,2.576,2.576,0,0,0-.605-.316q-.41-.164-1.121-.375a7.958,7.958,0,0,1-.98-.355,3.287,3.287,0,0,1-.777-.473,2.03,2.03,0,0,1-.516-.641,1.884,1.884,0,0,1-.187-.867,1.993,1.993,0,0,1,.152-.719,1.953,1.953,0,0,1,.52-.727,2.891,2.891,0,0,1,.992-.559,4.706,4.706,0,0,1,1.563-.223q.461,0,1.023.051a10.569,10.569,0,0,1,1.172.176v1.211a11.2,11.2,0,0,0-1.215-.23,7.915,7.915,0,0,0-1-.074,3.975,3.975,0,0,0-.855.078,1.775,1.775,0,0,0-.562.215.839.839,0,0,0-.309.32.855.855,0,0,0-.094.395.877.877,0,0,0,.082.383.916.916,0,0,0,.3.332,3,3,0,0,0,.621.32q.4.16,1.039.348a8.311,8.311,0,0,1,1.172.426,3.025,3.025,0,0,1,.773.5,1.6,1.6,0,0,1,.426.617A2.214,2.214,0,0,1,192.2,36.859ZM224.961,42.2H223.68v-16h1.281Zm20.766-12.977A9.1,9.1,0,0,0,243.883,29q-1.836,0-1.836,1.922V32.3h3.438V33.43h-3.437V39h-1.383V33.43h-2.523V32.3h2.523V31q0-3.133,3.266-3.133a9.671,9.671,0,0,1,1.8.188Zm8.461,5.438q0,.289-.008.484t-.023.367h-5.508a2.441,2.441,0,0,0,.672,1.848,2.69,2.69,0,0,0,1.938.645q.344,0,.688-.027t.664-.074q.32-.047.613-.105t.543-.129v1.117a9.49,9.49,0,0,1-1.254.254,10.47,10.47,0,0,1-1.449.1,4.928,4.928,0,0,1-1.734-.273,2.968,2.968,0,0,1-1.191-.793,3.265,3.265,0,0,1-.687-1.273,6.026,6.026,0,0,1-.223-1.707,5.069,5.069,0,0,1,.238-1.566,3.932,3.932,0,0,1,.7-1.3,3.3,3.3,0,0,1,2.629-1.215,3.827,3.827,0,0,1,1.453.258,2.918,2.918,0,0,1,1.066.73,3.114,3.114,0,0,1,.656,1.148A4.814,4.814,0,0,1,254.188,34.664Zm-1.414-.2a2.964,2.964,0,0,0-.1-.957,2.014,2.014,0,0,0-.387-.746,1.8,1.8,0,0,0-.652-.488,2.189,2.189,0,0,0-.906-.176,1.893,1.893,0,0,0-.812.172,1.853,1.853,0,0,0-.633.484,2.5,2.5,0,0,0-.43.75,3.458,3.458,0,0,0-.2.961Zm9.68,4.242a5.88,5.88,0,0,1-1.09.3,6.68,6.68,0,0,1-1.152.1,3.865,3.865,0,0,1-2.863-1.008,4,4,0,0,1-1-2.945,4.7,4.7,0,0,1,.289-1.687,3.758,3.758,0,0,1,.813-1.3,3.591,3.591,0,0,1,1.25-.832,4.245,4.245,0,0,1,1.6-.293,7.149,7.149,0,0,1,1.141.086,4.724,4.724,0,0,1,1.016.281v1.3a4.31,4.31,0,0,0-1.035-.387,4.854,4.854,0,0,0-1.09-.121,2.482,2.482,0,0,0-.988.2,2.41,2.41,0,0,0-.816.574,2.72,2.72,0,0,0-.555.914,3.438,3.438,0,0,0-.2,1.219,2.933,2.933,0,0,0,.691,2.129,2.559,2.559,0,0,0,1.918.707,4.576,4.576,0,0,0,1.074-.125,4.454,4.454,0,0,0,1-.375Zm9.008.289H270.1V33.992a2.235,2.235,0,0,0-.34-1.355,1.147,1.147,0,0,0-.973-.449,1.712,1.712,0,0,0-.512.074,1.78,1.78,0,0,0-.5.258,4.263,4.263,0,0,0-.562.5q-.3.312-.7.781V39h-1.359V27.961h1.359v3.2l-.047,1.234a5.317,5.317,0,0,1,.629-.645,3.5,3.5,0,0,1,.617-.426,2.461,2.461,0,0,1,.629-.234,3.089,3.089,0,0,1,.664-.07,2.308,2.308,0,0,1,1.813.715,3.14,3.14,0,0,1,.641,2.152Zm7.531,0-.031-1.055a4.252,4.252,0,0,1-1.3.914,3.5,3.5,0,0,1-1.387.281,3.4,3.4,0,0,1-1.148-.172,2.152,2.152,0,0,1-.785-.473,1.832,1.832,0,0,1-.453-.707,2.616,2.616,0,0,1-.145-.883,2.191,2.191,0,0,1,.879-1.848,4.251,4.251,0,0,1,2.6-.668h1.625V33.7a1.455,1.455,0,0,0-.445-1.113,1.927,1.927,0,0,0-1.359-.418,5.812,5.812,0,0,0-1.309.148,9.2,9.2,0,0,0-1.332.422V31.516q.258-.094.574-.184t.668-.16q.352-.07.734-.113a6.929,6.929,0,0,1,.773-.043,4.851,4.851,0,0,1,1.281.156,2.6,2.6,0,0,1,.965.477,2.1,2.1,0,0,1,.605.8,2.84,2.84,0,0,1,.211,1.141V39Zm-.148-3.57h-1.727a3.311,3.311,0,0,0-.875.1,1.661,1.661,0,0,0-.6.289,1.16,1.16,0,0,0-.348.449,1.471,1.471,0,0,0-.113.59,1.339,1.339,0,0,0,.07.434.965.965,0,0,0,.227.367,1.094,1.094,0,0,0,.406.254,1.743,1.743,0,0,0,.609.094,2.576,2.576,0,0,0,1.074-.285,5.248,5.248,0,0,0,1.277-.9ZM339.32,42.2h-1.281v-16h1.281ZM8.141,59.336H5.07v3.188H3.727V59.336H.656V58.148h3.07V54.984H5.07v3.164h3.07Zm7.391.047H10.859V58.1h4.672Zm8.8,0H19.656V58.1h4.672Zm8.8,0H28.453V58.1h4.672Zm8.8,0H37.25V58.1h4.672Zm8.8,0H46.047V58.1h4.672Zm8.8,0H54.844V58.1h4.672Zm8.8,0H63.641V58.1h4.672Zm8.8,0H72.438V58.1h4.672Zm8.8,0H81.234V58.1h4.672Zm8.8,0H90.031V58.1H94.7Zm8.8,0H98.828V58.1H103.5Zm8.8,0h-4.672V58.1H112.3Zm10.2-.047h-3.07v3.188h-1.344V59.336h-3.07V58.148h3.07V54.984h1.344v3.164h3.07Zm7.391.047h-4.672V58.1h4.672Zm8.8,0h-4.672V58.1h4.672Zm8.8,0h-4.672V58.1h4.672Zm8.8,0h-4.672V58.1h4.672Zm8.8,0h-4.672V58.1h4.672Zm8.8,0H169.2V58.1h4.672Zm8.8,0H178V58.1h4.672Zm8.8,0H186.8V58.1h4.672Zm8.8,0h-4.672V58.1h4.672Zm8.8,0h-4.672V58.1h4.672Zm8.8,0h-4.672V58.1h4.672Zm10.2-.047h-3.07v3.188h-1.344V59.336h-3.07V58.148h3.07V54.984h1.344v3.164h3.07Zm7.391.047h-4.672V58.1h4.672Zm8.8,0h-4.672V58.1h4.672Zm8.8,0h-4.672V58.1h4.672Zm8.8,0h-4.672V58.1h4.672Zm8.8,0h-4.672V58.1h4.672Zm8.8,0h-4.672V58.1h4.672Zm8.8,0h-4.672V58.1h4.672Zm8.8,0h-4.672V58.1h4.672Zm8.8,0h-4.672V58.1h4.672Zm8.8,0h-4.672V58.1h4.672Zm8.8,0H318.75V58.1h4.672Zm8.8,0h-4.672V58.1h4.672Zm10.2-.047h-3.07v3.188h-1.344V59.336h-3.07V58.148h3.07V54.984h1.344v3.164h3.07ZM5.039,90.2H3.758v-16H5.039ZM104.555,87H98.141V85.734h2.625V78.281L98.32,79.609l-.5-1.156,3.25-1.711h1.2v8.992h2.281ZM119.4,90.2h-1.281v-16H119.4Zm19.914-12.227h-4.336v3.313h4.109v1.164h-4.109V87h-1.422V76.789h5.758ZM148.3,87h-1.219l-.047-1.266a6.331,6.331,0,0,1-.668.676,3.453,3.453,0,0,1-.629.434,2.422,2.422,0,0,1-.629.23,3.246,3.246,0,0,1-.668.066,2.29,2.29,0,0,1-1.828-.711A3.205,3.205,0,0,1,142,84.281V79.156h1.359v5.016q0,1.8,1.359,1.8a1.633,1.633,0,0,0,.488-.074,1.833,1.833,0,0,0,.5-.258,3.956,3.956,0,0,0,.563-.5q.3-.313.676-.789v-5.2H148.3Zm5.164-9.922h-2.32V75.961h3.7v9.906h2.336V87h-6.289V85.867h2.578ZM164.633,87l-.031-1.055a4.251,4.251,0,0,1-1.3.914,3.5,3.5,0,0,1-1.387.281,3.4,3.4,0,0,1-1.148-.172,2.152,2.152,0,0,1-.785-.473,1.832,1.832,0,0,1-.453-.707,2.616,2.616,0,0,1-.145-.883,2.191,2.191,0,0,1,.879-1.848,4.251,4.251,0,0,1,2.6-.668h1.625V81.7a1.455,1.455,0,0,0-.445-1.113,1.927,1.927,0,0,0-1.359-.418,5.812,5.812,0,0,0-1.309.148,9.2,9.2,0,0,0-1.332.422V79.516q.258-.094.574-.184t.668-.16q.352-.07.734-.113a6.928,6.928,0,0,1,.773-.043,4.851,4.851,0,0,1,1.281.156,2.6,2.6,0,0,1,.965.477,2.1,2.1,0,0,1,.605.8,2.84,2.84,0,0,1,.211,1.141V87Zm-.148-3.57h-1.727a3.31,3.31,0,0,0-.875.1,1.661,1.661,0,0,0-.6.289,1.16,1.16,0,0,0-.348.449,1.471,1.471,0,0,0-.113.59,1.339,1.339,0,0,0,.07.434.964.964,0,0,0,.227.367,1.094,1.094,0,0,0,.406.254,1.743,1.743,0,0,0,.609.094,2.576,2.576,0,0,0,1.074-.285,5.248,5.248,0,0,0,1.277-.9Zm3.906-4.273H169.6l.055,1.266a5.663,5.663,0,0,1,.664-.676,3.641,3.641,0,0,1,.629-.434,2.355,2.355,0,0,1,.629-.23,3.263,3.263,0,0,1,.664-.066,2.3,2.3,0,0,1,1.832.715,3.207,3.207,0,0,1,.621,2.152V87h-1.359V81.992a2.21,2.21,0,0,0-.344-1.363,1.217,1.217,0,0,0-1.023-.441,1.633,1.633,0,0,0-.488.074,1.779,1.779,0,0,0-.5.258,4.1,4.1,0,0,0-.559.5q-.3.313-.676.781V87h-1.359Zm11.469,1.125h-2.32V79.156h3.7v6.711h2.336V87h-6.289V85.867h2.578Zm.477-4.414a1.078,1.078,0,0,1,.422.082,1.021,1.021,0,0,1,.34.23,1.109,1.109,0,0,1,.227.34,1.1,1.1,0,0,1,0,.832,1.1,1.1,0,0,1-.227.344,1.021,1.021,0,0,1-.34.23,1.126,1.126,0,0,1-.844,0,1.021,1.021,0,0,1-.34-.23,1.1,1.1,0,0,1-.227-.344,1.1,1.1,0,0,1,0-.832,1.109,1.109,0,0,1,.227-.34,1.021,1.021,0,0,1,.34-.23A1.078,1.078,0,0,1,180.336,75.867ZM192.3,86.891a6.621,6.621,0,0,1-.953.168,9.739,9.739,0,0,1-1,.051,3.162,3.162,0,0,1-2.2-.668,2.655,2.655,0,0,1-.727-2.051V80.3h-2.2V79.156h2.2V77l1.359-.352v2.508H192.3V80.3h-3.523v3.984a1.643,1.643,0,0,0,.449,1.262,1.879,1.879,0,0,0,1.324.418,6.322,6.322,0,0,0,.82-.059,7.8,7.8,0,0,0,.93-.184Zm9.3-3.875a5.2,5.2,0,0,1-.258,1.676,3.728,3.728,0,0,1-.742,1.3,3.33,3.33,0,0,1-1.18.844,3.939,3.939,0,0,1-1.578.3,4.117,4.117,0,0,1-1.512-.262,2.991,2.991,0,0,1-1.133-.77,3.406,3.406,0,0,1-.711-1.258,5.536,5.536,0,0,1-.246-1.727,5.129,5.129,0,0,1,.258-1.668,3.739,3.739,0,0,1,.742-1.3,3.33,3.33,0,0,1,1.18-.844,3.939,3.939,0,0,1,1.578-.3,4.117,4.117,0,0,1,1.512.262,3.012,3.012,0,0,1,1.133.766,3.368,3.368,0,0,1,.711,1.254A5.508,5.508,0,0,1,201.609,83.016Zm-1.391.063a4.506,4.506,0,0,0-.16-1.27,2.557,2.557,0,0,0-.457-.906,1.885,1.885,0,0,0-.723-.547,2.373,2.373,0,0,0-.949-.184,2.136,2.136,0,0,0-1.043.238,2.065,2.065,0,0,0-.711.637,2.744,2.744,0,0,0-.406.926,4.64,4.64,0,0,0-.129,1.105,4.548,4.548,0,0,0,.16,1.273,2.554,2.554,0,0,0,.457.91,1.892,1.892,0,0,0,.719.547,2.366,2.366,0,0,0,.953.184,2.136,2.136,0,0,0,1.043-.238,2.065,2.065,0,0,0,.711-.637,2.744,2.744,0,0,0,.406-.926A4.674,4.674,0,0,0,200.219,83.078ZM224.961,90.2H223.68v-16h1.281Zm20.43-3.2h-6.727V85.781l2.641-2.625q.648-.641,1.055-1.109a5.891,5.891,0,0,0,.633-.855,2.605,2.605,0,0,0,.3-.73,3.346,3.346,0,0,0,.078-.742,2.484,2.484,0,0,0-.1-.715,1.7,1.7,0,0,0-.312-.6,1.449,1.449,0,0,0-.547-.406,1.982,1.982,0,0,0-.8-.148,2.428,2.428,0,0,0-1.18.289,4.041,4.041,0,0,0-.977.75l-.75-.9a4.6,4.6,0,0,1,1.332-.977,3.961,3.961,0,0,1,1.754-.367,3.6,3.6,0,0,1,1.238.2,2.767,2.767,0,0,1,.965.586,2.6,2.6,0,0,1,.629.938,3.331,3.331,0,0,1,.223,1.25,3.624,3.624,0,0,1-.156,1.086,4.167,4.167,0,0,1-.473,1,7.814,7.814,0,0,1-.8,1.027q-.48.531-1.137,1.164l-1.852,1.8h4.961Zm9.031-5.1a9.056,9.056,0,0,1-.234,2.137,4.948,4.948,0,0,1-.711,1.656,3.343,3.343,0,0,1-1.184,1.07,3.464,3.464,0,0,1-1.66.379,3.533,3.533,0,0,1-1.492-.309,2.964,2.964,0,0,1-1.148-.949,4.687,4.687,0,0,1-.734-1.633A9.433,9.433,0,0,1,247,81.9a8.963,8.963,0,0,1,.238-2.141,5.054,5.054,0,0,1,.711-1.66,3.3,3.3,0,0,1,1.184-1.07,3.47,3.47,0,0,1,1.656-.379,3.533,3.533,0,0,1,1.492.309,2.952,2.952,0,0,1,1.148.953,4.73,4.73,0,0,1,.734,1.637A9.433,9.433,0,0,1,254.422,81.9Zm-1.375.047q0-.266-.02-.527t-.043-.512l-4.32,3.211a4.018,4.018,0,0,0,.3.75,2.292,2.292,0,0,0,.434.59,1.865,1.865,0,0,0,.578.383,1.885,1.885,0,0,0,.738.137,1.852,1.852,0,0,0,.965-.258,2.153,2.153,0,0,0,.738-.766,4.173,4.173,0,0,0,.469-1.262A8.275,8.275,0,0,0,253.047,81.945Zm-4.672-.094q0,.242,0,.484t.027.469l4.32-3.2a3.655,3.655,0,0,0-.3-.727,2.3,2.3,0,0,0-.43-.566,1.914,1.914,0,0,0-2.254-.246,2.145,2.145,0,0,0-.738.77,4.226,4.226,0,0,0-.469,1.266A8.275,8.275,0,0,0,248.375,81.852ZM262.984,87h-6.727V85.781l2.641-2.625q.648-.641,1.055-1.109a5.889,5.889,0,0,0,.633-.855,2.606,2.606,0,0,0,.3-.73,3.345,3.345,0,0,0,.078-.742,2.483,2.483,0,0,0-.1-.715,1.7,1.7,0,0,0-.312-.6,1.449,1.449,0,0,0-.547-.406,1.982,1.982,0,0,0-.8-.148,2.428,2.428,0,0,0-1.18.289,4.041,4.041,0,0,0-.977.75l-.75-.9a4.6,4.6,0,0,1,1.332-.977,3.961,3.961,0,0,1,1.754-.367,3.6,3.6,0,0,1,1.238.2,2.767,2.767,0,0,1,.965.586,2.6,2.6,0,0,1,.629.938,3.331,3.331,0,0,1,.223,1.25,3.624,3.624,0,0,1-.156,1.086,4.167,4.167,0,0,1-.473,1,7.814,7.814,0,0,1-.8,1.027q-.48.531-1.137,1.164l-1.852,1.8h4.961Zm8.711,0h-6.414V85.734h2.625V78.281l-2.445,1.328-.5-1.156,3.25-1.711h1.2v8.992H271.7Zm7.742-3.617h-4.672V82.1h4.672ZM289.609,81.9a9.056,9.056,0,0,1-.234,2.137,4.948,4.948,0,0,1-.711,1.656,3.343,3.343,0,0,1-1.184,1.07,3.464,3.464,0,0,1-1.66.379,3.533,3.533,0,0,1-1.492-.309,2.965,2.965,0,0,1-1.148-.949,4.687,4.687,0,0,1-.734-1.633,9.433,9.433,0,0,1-.258-2.352,8.964,8.964,0,0,1,.238-2.141,5.054,5.054,0,0,1,.711-1.66,3.3,3.3,0,0,1,1.184-1.07,3.47,3.47,0,0,1,1.656-.379,3.533,3.533,0,0,1,1.492.309,2.953,2.953,0,0,1,1.148.953,4.73,4.73,0,0,1,.734,1.637A9.433,9.433,0,0,1,289.609,81.9Zm-1.375.047q0-.266-.02-.527t-.043-.512l-4.32,3.211a4.019,4.019,0,0,0,.3.75,2.291,2.291,0,0,0,.434.59,1.865,1.865,0,0,0,.578.383,1.885,1.885,0,0,0,.738.137,1.852,1.852,0,0,0,.965-.258,2.153,2.153,0,0,0,.738-.766,4.173,4.173,0,0,0,.469-1.262A8.275,8.275,0,0,0,288.234,81.945Zm-4.672-.094q0,.242,0,.484t.027.469l4.32-3.2a3.656,3.656,0,0,0-.3-.727,2.3,2.3,0,0,0-.43-.566,1.914,1.914,0,0,0-2.254-.246,2.145,2.145,0,0,0-.738.77,4.226,4.226,0,0,0-.469,1.266A8.275,8.275,0,0,0,283.563,81.852ZM298.3,83.766a3.436,3.436,0,0,1-.254,1.32,3.165,3.165,0,0,1-.723,1.074,3.379,3.379,0,0,1-1.129.719,3.943,3.943,0,0,1-1.465.262,3.862,3.862,0,0,1-1.492-.27,2.651,2.651,0,0,1-1.086-.828,3.876,3.876,0,0,1-.664-1.41,7.9,7.9,0,0,1-.227-2.016,11.053,11.053,0,0,1,.1-1.516,6.8,6.8,0,0,1,.336-1.383,4.782,4.782,0,0,1,.625-1.187,3.75,3.75,0,0,1,.973-.926,4.682,4.682,0,0,1,1.371-.6,6.989,6.989,0,0,1,1.828-.215H297.5v1.188h-1.094a5.14,5.14,0,0,0-1.586.219,3.161,3.161,0,0,0-1.125.617,2.667,2.667,0,0,0-.7.961,4.088,4.088,0,0,0-.3,1.258l-.031.32a4.653,4.653,0,0,1,1.137-.465,5.285,5.285,0,0,1,1.395-.176,3.724,3.724,0,0,1,1.355.227,2.658,2.658,0,0,1,.969.629,2.6,2.6,0,0,1,.582.965A3.741,3.741,0,0,1,298.3,83.766Zm-1.422.086a2.954,2.954,0,0,0-.113-.848,1.6,1.6,0,0,0-.355-.641,1.622,1.622,0,0,0-.613-.406,2.443,2.443,0,0,0-.887-.145,3.4,3.4,0,0,0-.6.055,4.277,4.277,0,0,0-.6.152,5.093,5.093,0,0,0-.559.223,4.212,4.212,0,0,0-.484.266,8.452,8.452,0,0,0,.141,1.684,3,3,0,0,0,.418,1.082,1.56,1.56,0,0,0,.684.578,2.389,2.389,0,0,0,.938.172,2.231,2.231,0,0,0,.816-.145,1.761,1.761,0,0,0,.641-.426,2,2,0,0,0,.422-.684A2.58,2.58,0,0,0,296.875,83.852Zm8.953-.469h-4.672V82.1h4.672ZM316,81.9a9.056,9.056,0,0,1-.234,2.137,4.948,4.948,0,0,1-.711,1.656,3.343,3.343,0,0,1-1.184,1.07,3.464,3.464,0,0,1-1.66.379,3.533,3.533,0,0,1-1.492-.309,2.965,2.965,0,0,1-1.148-.949,4.687,4.687,0,0,1-.734-1.633,9.433,9.433,0,0,1-.258-2.352,8.964,8.964,0,0,1,.238-2.141,5.054,5.054,0,0,1,.711-1.66,3.3,3.3,0,0,1,1.184-1.07,3.47,3.47,0,0,1,1.656-.379,3.533,3.533,0,0,1,1.492.309,2.953,2.953,0,0,1,1.148.953,4.73,4.73,0,0,1,.734,1.637A9.433,9.433,0,0,1,316,81.9Zm-1.375.047q0-.266-.02-.527t-.043-.512l-4.32,3.211a4.019,4.019,0,0,0,.3.75,2.291,2.291,0,0,0,.434.59,1.865,1.865,0,0,0,.578.383,1.885,1.885,0,0,0,.738.137,1.852,1.852,0,0,0,.965-.258,2.153,2.153,0,0,0,.738-.766,4.173,4.173,0,0,0,.469-1.262A8.275,8.275,0,0,0,314.625,81.945Zm-4.672-.094q0,.242,0,.484t.027.469l4.32-3.2a3.656,3.656,0,0,0-.3-.727,2.3,2.3,0,0,0-.43-.566,1.914,1.914,0,0,0-2.254-.246,2.145,2.145,0,0,0-.738.77,4.226,4.226,0,0,0-.469,1.266A8.275,8.275,0,0,0,309.953,81.852Zm14.555-.531a8.125,8.125,0,0,1-.359,2.566,4.372,4.372,0,0,1-1.062,1.766,4.274,4.274,0,0,1-1.742,1.02,7.972,7.972,0,0,1-2.4.328h-.852V85.813h.945a6.587,6.587,0,0,0,1.742-.2,3.334,3.334,0,0,0,1.223-.6,2.61,2.61,0,0,0,.746-.961,3.911,3.911,0,0,0,.32-1.293l.031-.32a4.665,4.665,0,0,1-1.133.465,5.241,5.241,0,0,1-1.391.176,3.755,3.755,0,0,1-1.359-.227,2.556,2.556,0,0,1-1.555-1.6,3.657,3.657,0,0,1-.2-1.215,3.411,3.411,0,0,1,.258-1.328,3.241,3.241,0,0,1,.723-1.074,3.413,3.413,0,0,1,1.113-.723,3.737,3.737,0,0,1,1.43-.266,3.845,3.845,0,0,1,1.4.25,2.725,2.725,0,0,1,1.113.809,4.01,4.01,0,0,1,.734,1.449A7.65,7.65,0,0,1,324.508,81.32Zm-3.578-3.555a2.209,2.209,0,0,0-.809.145,1.785,1.785,0,0,0-.641.422,1.992,1.992,0,0,0-.426.684,2.577,2.577,0,0,0-.156.93,2.944,2.944,0,0,0,.113.852,1.631,1.631,0,0,0,.352.637,1.547,1.547,0,0,0,.613.4,2.537,2.537,0,0,0,.891.141,3.423,3.423,0,0,0,.6-.055,4.646,4.646,0,0,0,1.16-.367,3.7,3.7,0,0,0,.477-.266,8.019,8.019,0,0,0-.148-1.684,3.089,3.089,0,0,0-.43-1.086,1.581,1.581,0,0,0-.684-.582A2.3,2.3,0,0,0,320.93,77.766ZM339.32,90.2h-1.281v-16h1.281ZM5.039,114.2H3.758v-16H5.039Zm99.6-3.2H97.914v-1.219l2.641-2.625q.648-.641,1.055-1.109a5.89,5.89,0,0,0,.633-.855,2.606,2.606,0,0,0,.3-.73,3.345,3.345,0,0,0,.078-.742,2.483,2.483,0,0,0-.1-.715,1.7,1.7,0,0,0-.312-.6,1.449,1.449,0,0,0-.547-.406,1.982,1.982,0,0,0-.8-.148,2.428,2.428,0,0,0-1.18.289,4.041,4.041,0,0,0-.977.75l-.75-.9a4.6,4.6,0,0,1,1.332-.977,3.961,3.961,0,0,1,1.754-.367,3.6,3.6,0,0,1,1.238.2,2.767,2.767,0,0,1,.965.586,2.6,2.6,0,0,1,.629.938,3.331,3.331,0,0,1,.223,1.25,3.624,3.624,0,0,1-.156,1.086,4.167,4.167,0,0,1-.473,1,7.814,7.814,0,0,1-.8,1.027q-.48.531-1.137,1.164l-1.852,1.8h4.961Zm14.758,3.2h-1.281v-16H119.4Zm20.969-3.2h-1.359l-.2-6.367-.086-2.445-.477,1.422-1.508,4.063h-.961l-1.437-3.906-.477-1.578-.031,2.555-.18,6.258h-1.312l.5-10.211h1.648l1.375,3.844.445,1.3.43-1.3,1.445-3.844h1.7Zm8.258-4.336q0,.289-.008.484t-.023.367h-5.508a2.441,2.441,0,0,0,.672,1.848,2.69,2.69,0,0,0,1.938.645q.344,0,.688-.027t.664-.074q.32-.047.613-.105t.543-.129v1.117a9.49,9.49,0,0,1-1.254.254,10.471,10.471,0,0,1-1.449.1,4.928,4.928,0,0,1-1.734-.273,2.968,2.968,0,0,1-1.191-.793,3.265,3.265,0,0,1-.687-1.273,6.026,6.026,0,0,1-.223-1.707,5.069,5.069,0,0,1,.238-1.566,3.932,3.932,0,0,1,.7-1.3,3.3,3.3,0,0,1,2.629-1.215,3.827,3.827,0,0,1,1.453.258,2.918,2.918,0,0,1,1.066.73,3.114,3.114,0,0,1,.656,1.148A4.815,4.815,0,0,1,148.625,106.664Zm-1.414-.2a2.964,2.964,0,0,0-.1-.957,2.014,2.014,0,0,0-.387-.746,1.8,1.8,0,0,0-.652-.488,2.189,2.189,0,0,0-.906-.176,1.893,1.893,0,0,0-.812.172,1.853,1.853,0,0,0-.633.484,2.5,2.5,0,0,0-.43.75,3.458,3.458,0,0,0-.2.961Zm3.586-3.312h1.211l.055,1.266a5.663,5.663,0,0,1,.664-.676,3.641,3.641,0,0,1,.629-.434,2.355,2.355,0,0,1,.629-.23,3.263,3.263,0,0,1,.664-.066,2.3,2.3,0,0,1,1.832.715,3.207,3.207,0,0,1,.621,2.152V111h-1.359v-5.008a2.21,2.21,0,0,0-.344-1.363,1.217,1.217,0,0,0-1.023-.441,1.633,1.633,0,0,0-.488.074,1.779,1.779,0,0,0-.5.258,4.1,4.1,0,0,0-.559.5q-.3.313-.676.781V111H150.8Zm14.445,1.109a2.043,2.043,0,0,1,.34.637,2.468,2.468,0,0,1,.121.785,2.724,2.724,0,0,1-.223,1.113,2.472,2.472,0,0,1-.629.863,2.9,2.9,0,0,1-.973.559,3.733,3.733,0,0,1-1.246.2,3.859,3.859,0,0,1-.922-.105,2.359,2.359,0,0,1-.68-.262,4.17,4.17,0,0,0-.25.414.934.934,0,0,0-.1.438.58.58,0,0,0,.285.492,1.4,1.4,0,0,0,.754.211l2.063.078a4.659,4.659,0,0,1,1.082.148,2.665,2.665,0,0,1,.852.383,1.794,1.794,0,0,1,.555.617,1.758,1.758,0,0,1,.2.852,2.212,2.212,0,0,1-.926,1.816,3.693,3.693,0,0,1-1.2.566,6.237,6.237,0,0,1-1.727.211,7.4,7.4,0,0,1-1.621-.152,3.552,3.552,0,0,1-1.1-.422,1.7,1.7,0,0,1-.625-.641,1.726,1.726,0,0,1-.2-.816,1.863,1.863,0,0,1,.266-1,3,3,0,0,1,.82-.828,1.289,1.289,0,0,1-.594-.543,1.445,1.445,0,0,1-.141-.355,1.511,1.511,0,0,1-.047-.367,1.858,1.858,0,0,1,.238-.93,4.773,4.773,0,0,1,.566-.8,4.079,4.079,0,0,1-.262-.352,2.156,2.156,0,0,1-.32-.8,2.9,2.9,0,0,1-.043-.527,2.724,2.724,0,0,1,.223-1.113,2.5,2.5,0,0,1,.625-.863,2.858,2.858,0,0,1,.969-.559,3.758,3.758,0,0,1,1.254-.2,3.811,3.811,0,0,1,.555.039,3.177,3.177,0,0,1,.469.1H166.5v1.109Zm-4.719,7.867a.845.845,0,0,0,.578.809,4.106,4.106,0,0,0,1.609.254,4.317,4.317,0,0,0,1.09-.117,2.2,2.2,0,0,0,.711-.309,1.123,1.123,0,0,0,.5-.941.757.757,0,0,0-.391-.7,2.723,2.723,0,0,0-1.2-.266l-2.047-.07a2.963,2.963,0,0,0-.426.336,1.476,1.476,0,0,0-.262.332,1.288,1.288,0,0,0-.133.336A1.5,1.5,0,0,0,160.523,112.133Zm.414-6.414a1.835,1.835,0,0,0,.125.688,1.5,1.5,0,0,0,.352.531,1.605,1.605,0,0,0,.535.34,1.857,1.857,0,0,0,.684.121,1.806,1.806,0,0,0,.723-.137,1.536,1.536,0,0,0,.531-.371,1.63,1.63,0,0,0,.328-.539,1.8,1.8,0,0,0,.113-.633,1.835,1.835,0,0,0-.125-.687,1.5,1.5,0,0,0-.352-.531,1.605,1.605,0,0,0-.535-.34,1.857,1.857,0,0,0-.684-.121,1.763,1.763,0,0,0-.723.141,1.608,1.608,0,0,0-.531.371,1.587,1.587,0,0,0-.328.535A1.8,1.8,0,0,0,160.938,105.719ZM173.43,111l-.031-1.055a4.251,4.251,0,0,1-1.3.914,3.5,3.5,0,0,1-1.387.281,3.4,3.4,0,0,1-1.148-.172,2.152,2.152,0,0,1-.785-.473,1.832,1.832,0,0,1-.453-.707,2.616,2.616,0,0,1-.145-.883,2.191,2.191,0,0,1,.879-1.848,4.251,4.251,0,0,1,2.6-.668h1.625V105.7a1.455,1.455,0,0,0-.445-1.113,1.927,1.927,0,0,0-1.359-.418,5.812,5.812,0,0,0-1.309.148,9.2,9.2,0,0,0-1.332.422v-1.227q.258-.094.574-.184t.668-.16q.352-.07.734-.113a6.928,6.928,0,0,1,.773-.043,4.851,4.851,0,0,1,1.281.156,2.6,2.6,0,0,1,.965.477,2.1,2.1,0,0,1,.605.8,2.84,2.84,0,0,1,.211,1.141V111Zm-.148-3.57h-1.727a3.31,3.31,0,0,0-.875.1,1.661,1.661,0,0,0-.6.289,1.16,1.16,0,0,0-.348.449,1.471,1.471,0,0,0-.113.59,1.339,1.339,0,0,0,.07.434.964.964,0,0,0,.227.367,1.094,1.094,0,0,0,.406.254,1.743,1.743,0,0,0,.609.094,2.576,2.576,0,0,0,1.074-.285,5.248,5.248,0,0,0,1.277-.9Zm3.906-4.273H178.4l.055,1.266a5.663,5.663,0,0,1,.664-.676,3.641,3.641,0,0,1,.629-.434,2.355,2.355,0,0,1,.629-.23,3.263,3.263,0,0,1,.664-.066,2.3,2.3,0,0,1,1.832.715,3.207,3.207,0,0,1,.621,2.152V111h-1.359v-5.008a2.21,2.21,0,0,0-.344-1.363,1.217,1.217,0,0,0-1.023-.441,1.633,1.633,0,0,0-.488.074,1.779,1.779,0,0,0-.5.258,4.1,4.1,0,0,0-.559.5q-.3.313-.676.781V111h-1.359Zm11.469,1.125h-2.32v-1.125h3.7v6.711h2.336V111h-6.289v-1.133h2.578Zm.477-4.414a1.078,1.078,0,0,1,.422.082,1.021,1.021,0,0,1,.34.23,1.109,1.109,0,0,1,.227.34,1.1,1.1,0,0,1,0,.832,1.1,1.1,0,0,1-.227.344,1.021,1.021,0,0,1-.34.23,1.126,1.126,0,0,1-.844,0,1.021,1.021,0,0,1-.34-.23,1.1,1.1,0,0,1-.227-.344,1.1,1.1,0,0,1,0-.832,1.109,1.109,0,0,1,.227-.34,1.021,1.021,0,0,1,.34-.23A1.078,1.078,0,0,1,189.133,99.867ZM201.1,110.891a6.621,6.621,0,0,1-.953.168,9.739,9.739,0,0,1-1,.051,3.162,3.162,0,0,1-2.2-.668,2.655,2.655,0,0,1-.727-2.051V104.3h-2.2v-1.141h2.2V101l1.359-.352v2.508H201.1V104.3h-3.523v3.984a1.643,1.643,0,0,0,.449,1.262,1.879,1.879,0,0,0,1.324.418,6.322,6.322,0,0,0,.82-.059,7.8,7.8,0,0,0,.93-.184Zm9.3-3.875a5.2,5.2,0,0,1-.258,1.676,3.728,3.728,0,0,1-.742,1.3,3.33,3.33,0,0,1-1.18.844,3.939,3.939,0,0,1-1.578.3,4.117,4.117,0,0,1-1.512-.262,2.991,2.991,0,0,1-1.133-.77,3.406,3.406,0,0,1-.711-1.258,5.536,5.536,0,0,1-.246-1.727,5.129,5.129,0,0,1,.258-1.668,3.739,3.739,0,0,1,.742-1.3,3.33,3.33,0,0,1,1.18-.844,3.939,3.939,0,0,1,1.578-.3,4.117,4.117,0,0,1,1.512.262,3.012,3.012,0,0,1,1.133.766,3.368,3.368,0,0,1,.711,1.254A5.508,5.508,0,0,1,210.406,107.016Zm-1.391.063a4.506,4.506,0,0,0-.16-1.27,2.557,2.557,0,0,0-.457-.906,1.885,1.885,0,0,0-.723-.547,2.373,2.373,0,0,0-.949-.184,2.136,2.136,0,0,0-1.043.238,2.065,2.065,0,0,0-.711.637,2.744,2.744,0,0,0-.406.926,4.64,4.64,0,0,0-.129,1.105,4.548,4.548,0,0,0,.16,1.273,2.554,2.554,0,0,0,.457.91,1.892,1.892,0,0,0,.719.547,2.366,2.366,0,0,0,.953.184,2.136,2.136,0,0,0,1.043-.238,2.065,2.065,0,0,0,.711-.637,2.744,2.744,0,0,0,.406-.926A4.674,4.674,0,0,0,209.016,107.078Zm15.945,7.125H223.68v-16h1.281Zm20.43-3.2h-6.727v-1.219l2.641-2.625q.648-.641,1.055-1.109a5.891,5.891,0,0,0,.633-.855,2.605,2.605,0,0,0,.3-.73,3.346,3.346,0,0,0,.078-.742,2.484,2.484,0,0,0-.1-.715,1.7,1.7,0,0,0-.312-.6,1.449,1.449,0,0,0-.547-.406,1.982,1.982,0,0,0-.8-.148,2.428,2.428,0,0,0-1.18.289,4.041,4.041,0,0,0-.977.75l-.75-.9a4.6,4.6,0,0,1,1.332-.977,3.961,3.961,0,0,1,1.754-.367,3.6,3.6,0,0,1,1.238.2,2.767,2.767,0,0,1,.965.586,2.6,2.6,0,0,1,.629.938,3.331,3.331,0,0,1,.223,1.25,3.624,3.624,0,0,1-.156,1.086,4.167,4.167,0,0,1-.473,1,7.814,7.814,0,0,1-.8,1.027q-.48.531-1.137,1.164l-1.852,1.8h4.961Zm9.031-5.1a9.056,9.056,0,0,1-.234,2.137,4.948,4.948,0,0,1-.711,1.656,3.343,3.343,0,0,1-1.184,1.07,3.464,3.464,0,0,1-1.66.379,3.533,3.533,0,0,1-1.492-.309,2.964,2.964,0,0,1-1.148-.949,4.687,4.687,0,0,1-.734-1.633A9.433,9.433,0,0,1,247,105.9a8.963,8.963,0,0,1,.238-2.141,5.054,5.054,0,0,1,.711-1.66,3.3,3.3,0,0,1,1.184-1.07,3.47,3.47,0,0,1,1.656-.379,3.533,3.533,0,0,1,1.492.309,2.952,2.952,0,0,1,1.148.953,4.73,4.73,0,0,1,.734,1.637A9.433,9.433,0,0,1,254.422,105.9Zm-1.375.047q0-.266-.02-.527t-.043-.512l-4.32,3.211a4.018,4.018,0,0,0,.3.75,2.292,2.292,0,0,0,.434.59,1.865,1.865,0,0,0,.578.383,1.885,1.885,0,0,0,.738.137,1.852,1.852,0,0,0,.965-.258,2.153,2.153,0,0,0,.738-.766,4.173,4.173,0,0,0,.469-1.262A8.275,8.275,0,0,0,253.047,105.945Zm-4.672-.094q0,.242,0,.484t.027.469l4.32-3.2a3.655,3.655,0,0,0-.3-.727,2.3,2.3,0,0,0-.43-.566,1.914,1.914,0,0,0-2.254-.246,2.145,2.145,0,0,0-.738.77,4.226,4.226,0,0,0-.469,1.266A8.275,8.275,0,0,0,248.375,105.852ZM262.984,111h-6.727v-1.219l2.641-2.625q.648-.641,1.055-1.109a5.889,5.889,0,0,0,.633-.855,2.606,2.606,0,0,0,.3-.73,3.345,3.345,0,0,0,.078-.742,2.483,2.483,0,0,0-.1-.715,1.7,1.7,0,0,0-.312-.6,1.449,1.449,0,0,0-.547-.406,1.982,1.982,0,0,0-.8-.148,2.428,2.428,0,0,0-1.18.289,4.041,4.041,0,0,0-.977.75l-.75-.9a4.6,4.6,0,0,1,1.332-.977,3.961,3.961,0,0,1,1.754-.367,3.6,3.6,0,0,1,1.238.2,2.767,2.767,0,0,1,.965.586,2.6,2.6,0,0,1,.629.938,3.331,3.331,0,0,1,.223,1.25,3.624,3.624,0,0,1-.156,1.086,4.167,4.167,0,0,1-.473,1,7.814,7.814,0,0,1-.8,1.027q-.48.531-1.137,1.164l-1.852,1.8h4.961Zm8.711,0h-6.414v-1.266h2.625v-7.453l-2.445,1.328-.5-1.156,3.25-1.711h1.2v8.992H271.7Zm7.742-3.617h-4.672V106.1h4.672Zm10.172-1.484a9.056,9.056,0,0,1-.234,2.137,4.948,4.948,0,0,1-.711,1.656,3.343,3.343,0,0,1-1.184,1.07,3.464,3.464,0,0,1-1.66.379,3.533,3.533,0,0,1-1.492-.309,2.965,2.965,0,0,1-1.148-.949,4.687,4.687,0,0,1-.734-1.633,9.433,9.433,0,0,1-.258-2.352,8.964,8.964,0,0,1,.238-2.141,5.054,5.054,0,0,1,.711-1.66,3.3,3.3,0,0,1,1.184-1.07,3.47,3.47,0,0,1,1.656-.379,3.533,3.533,0,0,1,1.492.309,2.953,2.953,0,0,1,1.148.953,4.73,4.73,0,0,1,.734,1.637A9.433,9.433,0,0,1,289.609,105.9Zm-1.375.047q0-.266-.02-.527t-.043-.512l-4.32,3.211a4.019,4.019,0,0,0,.3.75,2.291,2.291,0,0,0,.434.59,1.865,1.865,0,0,0,.578.383,1.885,1.885,0,0,0,.738.137,1.852,1.852,0,0,0,.965-.258,2.153,2.153,0,0,0,.738-.766,4.173,4.173,0,0,0,.469-1.262A8.275,8.275,0,0,0,288.234,105.945Zm-4.672-.094q0,.242,0,.484t.027.469l4.32-3.2a3.656,3.656,0,0,0-.3-.727,2.3,2.3,0,0,0-.43-.566,1.914,1.914,0,0,0-2.254-.246,2.145,2.145,0,0,0-.738.77,4.226,4.226,0,0,0-.469,1.266A8.275,8.275,0,0,0,283.563,105.852Zm14.734,1.914a3.436,3.436,0,0,1-.254,1.32,3.165,3.165,0,0,1-.723,1.074,3.379,3.379,0,0,1-1.129.719,3.943,3.943,0,0,1-1.465.262,3.862,3.862,0,0,1-1.492-.27,2.651,2.651,0,0,1-1.086-.828,3.876,3.876,0,0,1-.664-1.41,7.9,7.9,0,0,1-.227-2.016,11.053,11.053,0,0,1,.1-1.516,6.8,6.8,0,0,1,.336-1.383,4.782,4.782,0,0,1,.625-1.187,3.75,3.75,0,0,1,.973-.926,4.682,4.682,0,0,1,1.371-.6,6.989,6.989,0,0,1,1.828-.215H297.5v1.188h-1.094a5.14,5.14,0,0,0-1.586.219,3.161,3.161,0,0,0-1.125.617,2.667,2.667,0,0,0-.7.961,4.088,4.088,0,0,0-.3,1.258l-.031.32a4.653,4.653,0,0,1,1.137-.465,5.285,5.285,0,0,1,1.395-.176,3.724,3.724,0,0,1,1.355.227,2.658,2.658,0,0,1,.969.629,2.6,2.6,0,0,1,.582.965A3.741,3.741,0,0,1,298.3,107.766Zm-1.422.086a2.954,2.954,0,0,0-.113-.848,1.6,1.6,0,0,0-.355-.641,1.622,1.622,0,0,0-.613-.406,2.443,2.443,0,0,0-.887-.145,3.4,3.4,0,0,0-.6.055,4.277,4.277,0,0,0-.6.152,5.093,5.093,0,0,0-.559.223,4.212,4.212,0,0,0-.484.266,8.452,8.452,0,0,0,.141,1.684,3,3,0,0,0,.418,1.082,1.56,1.56,0,0,0,.684.578,2.389,2.389,0,0,0,.938.172,2.231,2.231,0,0,0,.816-.145,1.761,1.761,0,0,0,.641-.426,2,2,0,0,0,.422-.684A2.58,2.58,0,0,0,296.875,107.852Zm8.953-.469h-4.672V106.1h4.672ZM316,105.9a9.056,9.056,0,0,1-.234,2.137,4.948,4.948,0,0,1-.711,1.656,3.343,3.343,0,0,1-1.184,1.07,3.464,3.464,0,0,1-1.66.379,3.533,3.533,0,0,1-1.492-.309,2.965,2.965,0,0,1-1.148-.949,4.687,4.687,0,0,1-.734-1.633,9.433,9.433,0,0,1-.258-2.352,8.964,8.964,0,0,1,.238-2.141,5.054,5.054,0,0,1,.711-1.66,3.3,3.3,0,0,1,1.184-1.07,3.47,3.47,0,0,1,1.656-.379,3.533,3.533,0,0,1,1.492.309,2.953,2.953,0,0,1,1.148.953,4.73,4.73,0,0,1,.734,1.637A9.433,9.433,0,0,1,316,105.9Zm-1.375.047q0-.266-.02-.527t-.043-.512l-4.32,3.211a4.019,4.019,0,0,0,.3.75,2.291,2.291,0,0,0,.434.59,1.865,1.865,0,0,0,.578.383,1.885,1.885,0,0,0,.738.137,1.852,1.852,0,0,0,.965-.258,2.153,2.153,0,0,0,.738-.766,4.173,4.173,0,0,0,.469-1.262A8.275,8.275,0,0,0,314.625,105.945Zm-4.672-.094q0,.242,0,.484t.027.469l4.32-3.2a3.656,3.656,0,0,0-.3-.727,2.3,2.3,0,0,0-.43-.566,1.914,1.914,0,0,0-2.254-.246,2.145,2.145,0,0,0-.738.77,4.226,4.226,0,0,0-.469,1.266A8.275,8.275,0,0,0,309.953,105.852Zm14.734,1.914a3.436,3.436,0,0,1-.254,1.32,3.165,3.165,0,0,1-.723,1.074,3.379,3.379,0,0,1-1.129.719,3.943,3.943,0,0,1-1.465.262,3.862,3.862,0,0,1-1.492-.27,2.651,2.651,0,0,1-1.086-.828,3.876,3.876,0,0,1-.664-1.41,7.9,7.9,0,0,1-.227-2.016,11.053,11.053,0,0,1,.1-1.516,6.8,6.8,0,0,1,.336-1.383,4.782,4.782,0,0,1,.625-1.187,3.75,3.75,0,0,1,.973-.926,4.682,4.682,0,0,1,1.371-.6,6.989,6.989,0,0,1,1.828-.215h1.008v1.188H322.8a5.14,5.14,0,0,0-1.586.219,3.161,3.161,0,0,0-1.125.617,2.667,2.667,0,0,0-.7.961,4.088,4.088,0,0,0-.3,1.258l-.031.32a4.653,4.653,0,0,1,1.137-.465,5.285,5.285,0,0,1,1.395-.176,3.724,3.724,0,0,1,1.355.227,2.658,2.658,0,0,1,.969.629,2.6,2.6,0,0,1,.582.965A3.741,3.741,0,0,1,324.688,107.766Zm-1.422.086a2.954,2.954,0,0,0-.113-.848,1.6,1.6,0,0,0-.355-.641,1.622,1.622,0,0,0-.613-.406,2.443,2.443,0,0,0-.887-.145,3.4,3.4,0,0,0-.6.055,4.277,4.277,0,0,0-.6.152,5.093,5.093,0,0,0-.559.223,4.212,4.212,0,0,0-.484.266,8.452,8.452,0,0,0,.141,1.684,3,3,0,0,0,.418,1.082,1.56,1.56,0,0,0,.684.578,2.389,2.389,0,0,0,.938.172,2.231,2.231,0,0,0,.816-.145,1.761,1.761,0,0,0,.641-.426,2,2,0,0,0,.422-.684A2.58,2.58,0,0,0,323.266,107.852ZM339.32,114.2h-1.281v-16h1.281ZM5.039,138.2H3.758v-16H5.039Zm99.406-6.3a2.963,2.963,0,0,1-.273,1.262,2.871,2.871,0,0,1-.82,1.031,4.059,4.059,0,0,1-1.375.7,6.6,6.6,0,0,1-1.93.254q-.609,0-1.094-.039t-.906-.1v-1.219q.484.086,1.023.133t1.1.047a5.426,5.426,0,0,0,1.309-.137,2.47,2.47,0,0,0,.887-.395,1.518,1.518,0,0,0,.5-.625,2.1,2.1,0,0,0,.156-.828,1.4,1.4,0,0,0-.187-.734,1.56,1.56,0,0,0-.527-.523,2.607,2.607,0,0,0-.812-.316,4.755,4.755,0,0,0-1.035-.105H99.3V129.18h1.18a2.749,2.749,0,0,0,.84-.121,1.888,1.888,0,0,0,.648-.348,1.5,1.5,0,0,0,.414-.559,1.872,1.872,0,0,0,.145-.754,1.4,1.4,0,0,0-.5-1.2,2.425,2.425,0,0,0-1.469-.375,5.815,5.815,0,0,0-1.062.1,9.317,9.317,0,0,0-1.172.3v-1.187q.266-.094.566-.168t.6-.125q.3-.051.6-.078t.57-.027a5.238,5.238,0,0,1,1.43.176,2.935,2.935,0,0,1,1.031.5,2.11,2.11,0,0,1,.625.8,2.543,2.543,0,0,1,.211,1.055,2.364,2.364,0,0,1-.449,1.469,3.1,3.1,0,0,1-1.23.945,2.782,2.782,0,0,1,.785.25,2.739,2.739,0,0,1,.7.48,2.341,2.341,0,0,1,.5.691A2.012,2.012,0,0,1,104.445,131.9Zm14.953,6.3h-1.281v-16H119.4Zm20.68-12.227h-3.023V135h-1.406v-9.023h-3.023v-1.187h7.453ZM148.3,135h-1.219l-.047-1.266a6.332,6.332,0,0,1-.668.676,3.453,3.453,0,0,1-.629.434,2.421,2.421,0,0,1-.629.23,3.247,3.247,0,0,1-.668.066,2.29,2.29,0,0,1-1.828-.711,3.205,3.205,0,0,1-.617-2.148v-5.125h1.359v5.016q0,1.8,1.359,1.8a1.632,1.632,0,0,0,.488-.074,1.834,1.834,0,0,0,.5-.258,3.956,3.956,0,0,0,.563-.5q.3-.312.676-.789v-5.2H148.3Zm5.164-9.922h-2.32v-1.117h3.7v9.906h2.336V135h-6.289v-1.133h2.578ZM164.633,135l-.031-1.055a4.251,4.251,0,0,1-1.3.914,3.5,3.5,0,0,1-1.387.281,3.4,3.4,0,0,1-1.148-.172,2.152,2.152,0,0,1-.785-.473,1.832,1.832,0,0,1-.453-.707,2.616,2.616,0,0,1-.145-.883,2.191,2.191,0,0,1,.879-1.848,4.251,4.251,0,0,1,2.6-.668h1.625V129.7a1.455,1.455,0,0,0-.445-1.113,1.927,1.927,0,0,0-1.359-.418,5.812,5.812,0,0,0-1.309.148,9.2,9.2,0,0,0-1.332.422v-1.227q.258-.094.574-.184t.668-.16q.352-.07.734-.113a6.928,6.928,0,0,1,.773-.043,4.851,4.851,0,0,1,1.281.156,2.6,2.6,0,0,1,.965.477,2.1,2.1,0,0,1,.605.8,2.84,2.84,0,0,1,.211,1.141V135Zm-.148-3.57h-1.727a3.311,3.311,0,0,0-.875.1,1.661,1.661,0,0,0-.6.289,1.16,1.16,0,0,0-.348.449,1.471,1.471,0,0,0-.113.59,1.339,1.339,0,0,0,.07.434.964.964,0,0,0,.227.367,1.094,1.094,0,0,0,.406.254,1.743,1.743,0,0,0,.609.094,2.576,2.576,0,0,0,1.074-.285,5.249,5.249,0,0,0,1.277-.9Zm3.906-4.273H169.6l.055,1.266a5.663,5.663,0,0,1,.664-.676,3.641,3.641,0,0,1,.629-.434,2.355,2.355,0,0,1,.629-.23,3.263,3.263,0,0,1,.664-.066,2.3,2.3,0,0,1,1.832.715,3.207,3.207,0,0,1,.621,2.152V135h-1.359v-5.008a2.21,2.21,0,0,0-.344-1.363,1.217,1.217,0,0,0-1.023-.441,1.632,1.632,0,0,0-.488.074,1.78,1.78,0,0,0-.5.258,4.1,4.1,0,0,0-.559.5q-.3.312-.676.781V135h-1.359Zm11.469,1.125h-2.32v-1.125h3.7v6.711h2.336V135h-6.289v-1.133h2.578Zm.477-4.414a1.078,1.078,0,0,1,.422.082,1.021,1.021,0,0,1,.34.23,1.109,1.109,0,0,1,.227.34,1.1,1.1,0,0,1,0,.832,1.1,1.1,0,0,1-.227.344,1.021,1.021,0,0,1-.34.23,1.126,1.126,0,0,1-.844,0,1.021,1.021,0,0,1-.34-.23,1.1,1.1,0,0,1-.227-.344,1.1,1.1,0,0,1,0-.832,1.109,1.109,0,0,1,.227-.34,1.021,1.021,0,0,1,.34-.23A1.078,1.078,0,0,1,180.336,123.867ZM192.3,134.891a6.622,6.622,0,0,1-.953.168,9.737,9.737,0,0,1-1,.051,3.162,3.162,0,0,1-2.2-.668,2.655,2.655,0,0,1-.727-2.051V128.3h-2.2v-1.141h2.2V125l1.359-.352v2.508H192.3V128.3h-3.523v3.984a1.643,1.643,0,0,0,.449,1.262,1.879,1.879,0,0,0,1.324.418,6.322,6.322,0,0,0,.82-.059,7.8,7.8,0,0,0,.93-.184Zm9.3-3.875a5.2,5.2,0,0,1-.258,1.676,3.728,3.728,0,0,1-.742,1.3,3.329,3.329,0,0,1-1.18.844,3.939,3.939,0,0,1-1.578.3,4.117,4.117,0,0,1-1.512-.262,2.991,2.991,0,0,1-1.133-.77,3.406,3.406,0,0,1-.711-1.258,5.536,5.536,0,0,1-.246-1.727,5.129,5.129,0,0,1,.258-1.668,3.739,3.739,0,0,1,.742-1.3,3.33,3.33,0,0,1,1.18-.844,3.939,3.939,0,0,1,1.578-.3,4.117,4.117,0,0,1,1.512.262,3.012,3.012,0,0,1,1.133.766,3.368,3.368,0,0,1,.711,1.254A5.508,5.508,0,0,1,201.609,131.016Zm-1.391.063a4.506,4.506,0,0,0-.16-1.27,2.557,2.557,0,0,0-.457-.906,1.885,1.885,0,0,0-.723-.547,2.374,2.374,0,0,0-.949-.184,2.136,2.136,0,0,0-1.043.238,2.065,2.065,0,0,0-.711.637,2.744,2.744,0,0,0-.406.926,4.64,4.64,0,0,0-.129,1.105,4.548,4.548,0,0,0,.16,1.273,2.554,2.554,0,0,0,.457.91,1.892,1.892,0,0,0,.719.547,2.366,2.366,0,0,0,.953.184,2.136,2.136,0,0,0,1.043-.238,2.065,2.065,0,0,0,.711-.637,2.744,2.744,0,0,0,.406-.926A4.674,4.674,0,0,0,200.219,131.078Zm24.742,7.125H223.68v-16h1.281Zm20.43-3.2h-6.727v-1.219l2.641-2.625q.648-.641,1.055-1.109a5.891,5.891,0,0,0,.633-.855,2.605,2.605,0,0,0,.3-.73,3.346,3.346,0,0,0,.078-.742,2.484,2.484,0,0,0-.1-.715,1.7,1.7,0,0,0-.312-.6,1.449,1.449,0,0,0-.547-.406,1.982,1.982,0,0,0-.8-.148,2.428,2.428,0,0,0-1.18.289,4.041,4.041,0,0,0-.977.75l-.75-.9a4.6,4.6,0,0,1,1.332-.977,3.961,3.961,0,0,1,1.754-.367,3.6,3.6,0,0,1,1.238.2,2.767,2.767,0,0,1,.965.586,2.6,2.6,0,0,1,.629.938,3.331,3.331,0,0,1,.223,1.25,3.624,3.624,0,0,1-.156,1.086,4.168,4.168,0,0,1-.473,1,7.814,7.814,0,0,1-.8,1.027q-.48.531-1.137,1.164l-1.852,1.8h4.961Zm9.031-5.1a9.056,9.056,0,0,1-.234,2.137,4.948,4.948,0,0,1-.711,1.656,3.343,3.343,0,0,1-1.184,1.07,3.464,3.464,0,0,1-1.66.379,3.533,3.533,0,0,1-1.492-.309,2.965,2.965,0,0,1-1.148-.949,4.687,4.687,0,0,1-.734-1.633A9.433,9.433,0,0,1,247,129.9a8.963,8.963,0,0,1,.238-2.141,5.054,5.054,0,0,1,.711-1.66,3.3,3.3,0,0,1,1.184-1.07,3.47,3.47,0,0,1,1.656-.379,3.533,3.533,0,0,1,1.492.309,2.952,2.952,0,0,1,1.148.953,4.73,4.73,0,0,1,.734,1.637A9.433,9.433,0,0,1,254.422,129.9Zm-1.375.047q0-.266-.02-.527t-.043-.512l-4.32,3.211a4.019,4.019,0,0,0,.3.75,2.291,2.291,0,0,0,.434.59,1.865,1.865,0,0,0,.578.383,1.885,1.885,0,0,0,.738.137,1.852,1.852,0,0,0,.965-.258,2.153,2.153,0,0,0,.738-.766,4.173,4.173,0,0,0,.469-1.262A8.275,8.275,0,0,0,253.047,129.945Zm-4.672-.094q0,.242,0,.484t.027.469l4.32-3.2a3.655,3.655,0,0,0-.3-.727,2.3,2.3,0,0,0-.43-.566,1.914,1.914,0,0,0-2.254-.246,2.145,2.145,0,0,0-.738.77,4.226,4.226,0,0,0-.469,1.266A8.275,8.275,0,0,0,248.375,129.852ZM262.984,135h-6.727v-1.219l2.641-2.625q.648-.641,1.055-1.109a5.889,5.889,0,0,0,.633-.855,2.606,2.606,0,0,0,.3-.73,3.345,3.345,0,0,0,.078-.742,2.483,2.483,0,0,0-.1-.715,1.7,1.7,0,0,0-.312-.6,1.449,1.449,0,0,0-.547-.406,1.982,1.982,0,0,0-.8-.148,2.428,2.428,0,0,0-1.18.289,4.041,4.041,0,0,0-.977.75l-.75-.9a4.6,4.6,0,0,1,1.332-.977,3.961,3.961,0,0,1,1.754-.367,3.6,3.6,0,0,1,1.238.2,2.767,2.767,0,0,1,.965.586,2.6,2.6,0,0,1,.629.938,3.331,3.331,0,0,1,.223,1.25,3.624,3.624,0,0,1-.156,1.086,4.167,4.167,0,0,1-.473,1,7.814,7.814,0,0,1-.8,1.027q-.48.531-1.137,1.164l-1.852,1.8h4.961Zm8.711,0h-6.414v-1.266h2.625v-7.453l-2.445,1.328-.5-1.156,3.25-1.711h1.2v8.992H271.7Zm7.742-3.617h-4.672V130.1h4.672Zm10.172-1.484a9.056,9.056,0,0,1-.234,2.137,4.948,4.948,0,0,1-.711,1.656,3.343,3.343,0,0,1-1.184,1.07,3.464,3.464,0,0,1-1.66.379,3.533,3.533,0,0,1-1.492-.309,2.965,2.965,0,0,1-1.148-.949,4.687,4.687,0,0,1-.734-1.633,9.433,9.433,0,0,1-.258-2.352,8.964,8.964,0,0,1,.238-2.141,5.054,5.054,0,0,1,.711-1.66,3.3,3.3,0,0,1,1.184-1.07,3.47,3.47,0,0,1,1.656-.379,3.533,3.533,0,0,1,1.492.309,2.953,2.953,0,0,1,1.148.953,4.73,4.73,0,0,1,.734,1.637A9.433,9.433,0,0,1,289.609,129.9Zm-1.375.047q0-.266-.02-.527t-.043-.512l-4.32,3.211a4.02,4.02,0,0,0,.3.75,2.291,2.291,0,0,0,.434.59,1.865,1.865,0,0,0,.578.383,1.885,1.885,0,0,0,.738.137,1.852,1.852,0,0,0,.965-.258,2.153,2.153,0,0,0,.738-.766,4.173,4.173,0,0,0,.469-1.262A8.275,8.275,0,0,0,288.234,129.945Zm-4.672-.094q0,.242,0,.484t.027.469l4.32-3.2a3.656,3.656,0,0,0-.3-.727,2.3,2.3,0,0,0-.43-.566,1.914,1.914,0,0,0-2.254-.246,2.145,2.145,0,0,0-.738.77,4.226,4.226,0,0,0-.469,1.266A8.275,8.275,0,0,0,283.563,129.852Zm14.734,1.914a3.436,3.436,0,0,1-.254,1.32,3.165,3.165,0,0,1-.723,1.074,3.379,3.379,0,0,1-1.129.719,3.942,3.942,0,0,1-1.465.262,3.862,3.862,0,0,1-1.492-.27,2.651,2.651,0,0,1-1.086-.828,3.876,3.876,0,0,1-.664-1.41,7.9,7.9,0,0,1-.227-2.016,11.053,11.053,0,0,1,.1-1.516,6.8,6.8,0,0,1,.336-1.383,4.782,4.782,0,0,1,.625-1.187,3.75,3.75,0,0,1,.973-.926,4.682,4.682,0,0,1,1.371-.6,6.989,6.989,0,0,1,1.828-.215H297.5v1.188h-1.094a5.14,5.14,0,0,0-1.586.219,3.161,3.161,0,0,0-1.125.617,2.667,2.667,0,0,0-.7.961,4.088,4.088,0,0,0-.3,1.258l-.031.32a4.653,4.653,0,0,1,1.137-.465,5.285,5.285,0,0,1,1.395-.176,3.724,3.724,0,0,1,1.355.227,2.658,2.658,0,0,1,.969.629,2.6,2.6,0,0,1,.582.965A3.741,3.741,0,0,1,298.3,131.766Zm-1.422.086a2.954,2.954,0,0,0-.113-.848,1.6,1.6,0,0,0-.355-.641,1.622,1.622,0,0,0-.613-.406,2.443,2.443,0,0,0-.887-.145,3.4,3.4,0,0,0-.6.055,4.275,4.275,0,0,0-.6.152,5.1,5.1,0,0,0-.559.223,4.21,4.21,0,0,0-.484.266,8.452,8.452,0,0,0,.141,1.684,3,3,0,0,0,.418,1.082,1.56,1.56,0,0,0,.684.578,2.389,2.389,0,0,0,.938.172,2.231,2.231,0,0,0,.816-.145,1.761,1.761,0,0,0,.641-.426,2,2,0,0,0,.422-.684A2.58,2.58,0,0,0,296.875,131.852Zm8.953-.469h-4.672V130.1h4.672ZM315.766,135h-6.727v-1.219l2.641-2.625q.648-.641,1.055-1.109a5.889,5.889,0,0,0,.633-.855,2.606,2.606,0,0,0,.3-.73,3.345,3.345,0,0,0,.078-.742,2.483,2.483,0,0,0-.1-.715,1.7,1.7,0,0,0-.312-.6,1.449,1.449,0,0,0-.547-.406,1.982,1.982,0,0,0-.8-.148,2.428,2.428,0,0,0-1.18.289,4.041,4.041,0,0,0-.977.75l-.75-.9a4.6,4.6,0,0,1,1.332-.977,3.961,3.961,0,0,1,1.754-.367,3.6,3.6,0,0,1,1.238.2,2.767,2.767,0,0,1,.965.586,2.6,2.6,0,0,1,.629.938,3.331,3.331,0,0,1,.223,1.25,3.624,3.624,0,0,1-.156,1.086,4.167,4.167,0,0,1-.473,1,7.814,7.814,0,0,1-.8,1.027q-.48.531-1.137,1.164l-1.852,1.8h4.961Zm8.6-3.1a2.964,2.964,0,0,1-.273,1.262,2.87,2.87,0,0,1-.82,1.031,4.059,4.059,0,0,1-1.375.7,6.6,6.6,0,0,1-1.93.254q-.609,0-1.094-.039t-.906-.1v-1.219q.484.086,1.023.133t1.1.047a5.426,5.426,0,0,0,1.309-.137,2.47,2.47,0,0,0,.887-.395,1.518,1.518,0,0,0,.5-.625,2.1,2.1,0,0,0,.156-.828,1.4,1.4,0,0,0-.187-.734,1.56,1.56,0,0,0-.527-.523,2.607,2.607,0,0,0-.812-.316,4.755,4.755,0,0,0-1.035-.105h-1.164V129.18h1.18a2.749,2.749,0,0,0,.84-.121,1.888,1.888,0,0,0,.648-.348,1.5,1.5,0,0,0,.414-.559,1.872,1.872,0,0,0,.145-.754,1.4,1.4,0,0,0-.5-1.2,2.425,2.425,0,0,0-1.469-.375,5.815,5.815,0,0,0-1.062.1,9.316,9.316,0,0,0-1.172.3v-1.187q.266-.094.566-.168t.6-.125q.3-.051.6-.078t.57-.027a5.238,5.238,0,0,1,1.43.176,2.935,2.935,0,0,1,1.031.5,2.11,2.11,0,0,1,.625.8,2.543,2.543,0,0,1,.211,1.055,2.364,2.364,0,0,1-.449,1.469,3.1,3.1,0,0,1-1.23.945,2.782,2.782,0,0,1,.785.25,2.739,2.739,0,0,1,.7.48,2.341,2.341,0,0,1,.5.691A2.012,2.012,0,0,1,324.367,131.9Zm14.953,6.3h-1.281v-16h1.281ZM5.039,162.2H3.758v-16H5.039Zm100.109-5.461h-1.742V159h-1.391v-2.258H97.1v-1.2l4.352-6.758h1.953v6.758h1.742Zm-3.133-6.641-3.555,5.445h3.555ZM119.4,162.2h-1.281v-16H119.4Zm20.969-3.2h-1.359l-.2-6.367-.086-2.445-.477,1.422-1.508,4.063h-.961l-1.437-3.906-.477-1.578-.031,2.555-.18,6.258h-1.312l.5-10.211h1.648l1.375,3.844.445,1.3.43-1.3,1.445-3.844h1.7Zm4.3-6.719h-2.32v-1.125h3.7v6.711h2.336V159h-6.289v-1.133h2.578Zm.477-4.414a1.078,1.078,0,0,1,.422.082,1.021,1.021,0,0,1,.34.23,1.109,1.109,0,0,1,.227.34,1.1,1.1,0,0,1,0,.832,1.1,1.1,0,0,1-.227.344,1.021,1.021,0,0,1-.34.23,1.126,1.126,0,0,1-.844,0,1.021,1.021,0,0,1-.34-.23,1.1,1.1,0,0,1-.227-.344,1.1,1.1,0,0,1,0-.832,1.109,1.109,0,0,1,.227-.34,1.021,1.021,0,0,1,.34-.23A1.078,1.078,0,0,1,145.148,147.867Zm11.3,4.4a2.043,2.043,0,0,1,.34.637,2.468,2.468,0,0,1,.121.785,2.724,2.724,0,0,1-.223,1.113,2.472,2.472,0,0,1-.629.863,2.9,2.9,0,0,1-.973.559,3.733,3.733,0,0,1-1.246.2,3.859,3.859,0,0,1-.922-.105,2.358,2.358,0,0,1-.68-.262,4.17,4.17,0,0,0-.25.414.934.934,0,0,0-.1.438.58.58,0,0,0,.285.492,1.4,1.4,0,0,0,.754.211l2.063.078a4.659,4.659,0,0,1,1.082.148,2.665,2.665,0,0,1,.852.383,1.794,1.794,0,0,1,.555.617,1.758,1.758,0,0,1,.2.852,2.212,2.212,0,0,1-.926,1.816,3.693,3.693,0,0,1-1.2.566,6.237,6.237,0,0,1-1.727.211,7.4,7.4,0,0,1-1.621-.152,3.552,3.552,0,0,1-1.1-.422,1.7,1.7,0,0,1-.625-.641,1.726,1.726,0,0,1-.2-.816,1.863,1.863,0,0,1,.266-1,3,3,0,0,1,.82-.828,1.289,1.289,0,0,1-.594-.543,1.446,1.446,0,0,1-.141-.355,1.511,1.511,0,0,1-.047-.367,1.858,1.858,0,0,1,.238-.93,4.773,4.773,0,0,1,.566-.8,4.082,4.082,0,0,1-.262-.352,2.156,2.156,0,0,1-.32-.8,2.9,2.9,0,0,1-.043-.527,2.724,2.724,0,0,1,.223-1.113,2.5,2.5,0,0,1,.625-.863,2.859,2.859,0,0,1,.969-.559,3.758,3.758,0,0,1,1.254-.2,3.81,3.81,0,0,1,.555.039,3.177,3.177,0,0,1,.469.1H157.7v1.109Zm-4.719,7.867a.845.845,0,0,0,.578.809,4.106,4.106,0,0,0,1.609.254,4.317,4.317,0,0,0,1.09-.117,2.2,2.2,0,0,0,.711-.309,1.123,1.123,0,0,0,.5-.941.757.757,0,0,0-.391-.7,2.723,2.723,0,0,0-1.2-.266l-2.047-.07a2.962,2.962,0,0,0-.426.336,1.476,1.476,0,0,0-.262.332,1.288,1.288,0,0,0-.133.336A1.5,1.5,0,0,0,151.727,160.133Zm.414-6.414a1.835,1.835,0,0,0,.125.688,1.5,1.5,0,0,0,.352.531,1.605,1.605,0,0,0,.535.34,1.857,1.857,0,0,0,.684.121,1.806,1.806,0,0,0,.723-.137,1.536,1.536,0,0,0,.531-.371,1.63,1.63,0,0,0,.328-.539,1.8,1.8,0,0,0,.113-.633,1.835,1.835,0,0,0-.125-.687,1.5,1.5,0,0,0-.352-.531,1.605,1.605,0,0,0-.535-.34,1.857,1.857,0,0,0-.684-.121,1.763,1.763,0,0,0-.723.141,1.609,1.609,0,0,0-.531.371,1.587,1.587,0,0,0-.328.535A1.8,1.8,0,0,0,152.141,153.719ZM165.9,159H164.68l-.047-1.266a6.332,6.332,0,0,1-.668.676,3.453,3.453,0,0,1-.629.434,2.421,2.421,0,0,1-.629.23,3.247,3.247,0,0,1-.668.066,2.29,2.29,0,0,1-1.828-.711,3.205,3.205,0,0,1-.617-2.148v-5.125h1.359v5.016q0,1.8,1.359,1.8a1.632,1.632,0,0,0,.488-.074,1.834,1.834,0,0,0,.5-.258,3.956,3.956,0,0,0,.563-.5q.3-.312.676-.789v-5.2H165.9Zm9.117-4.336q0,.289-.008.484t-.023.367h-5.508a2.441,2.441,0,0,0,.672,1.848,2.69,2.69,0,0,0,1.938.645q.344,0,.688-.027t.664-.074q.32-.047.613-.105t.543-.129v1.117a9.49,9.49,0,0,1-1.254.254,10.469,10.469,0,0,1-1.449.1,4.928,4.928,0,0,1-1.734-.273,2.968,2.968,0,0,1-1.191-.793,3.265,3.265,0,0,1-.687-1.273,6.026,6.026,0,0,1-.223-1.707,5.069,5.069,0,0,1,.238-1.566,3.932,3.932,0,0,1,.7-1.3,3.3,3.3,0,0,1,2.629-1.215,3.827,3.827,0,0,1,1.453.258,2.918,2.918,0,0,1,1.066.73,3.114,3.114,0,0,1,.656,1.148A4.814,4.814,0,0,1,175.016,154.664Zm-1.414-.2a2.964,2.964,0,0,0-.1-.957,2.014,2.014,0,0,0-.387-.746,1.8,1.8,0,0,0-.652-.488,2.189,2.189,0,0,0-.906-.176,1.893,1.893,0,0,0-.812.172,1.853,1.853,0,0,0-.633.484,2.5,2.5,0,0,0-.43.75,3.458,3.458,0,0,0-.2.961Zm6.258-5.391h-2.32v-1.117h3.7v9.906h2.336V159h-6.289v-1.133h2.578Zm8.8,3.2h-2.32v-1.125h3.7v6.711h2.336V159h-6.289v-1.133h2.578Zm.477-4.414a1.078,1.078,0,0,1,.422.082,1.021,1.021,0,0,1,.34.23,1.109,1.109,0,0,1,.227.34,1.1,1.1,0,0,1,0,.832,1.1,1.1,0,0,1-.227.344,1.021,1.021,0,0,1-.34.23,1.126,1.126,0,0,1-.844,0,1.021,1.021,0,0,1-.34-.23,1.1,1.1,0,0,1-.227-.344,1.1,1.1,0,0,1,0-.832,1.109,1.109,0,0,1,.227-.34,1.021,1.021,0,0,1,.34-.23A1.078,1.078,0,0,1,189.133,147.867ZM201.1,158.891a6.622,6.622,0,0,1-.953.168,9.737,9.737,0,0,1-1,.051,3.162,3.162,0,0,1-2.2-.668,2.655,2.655,0,0,1-.727-2.051V152.3h-2.2v-1.141h2.2V149l1.359-.352v2.508H201.1V152.3h-3.523v3.984a1.643,1.643,0,0,0,.449,1.262,1.879,1.879,0,0,0,1.324.418,6.322,6.322,0,0,0,.82-.059,7.8,7.8,0,0,0,.93-.184Zm9.3-3.875a5.2,5.2,0,0,1-.258,1.676,3.728,3.728,0,0,1-.742,1.3,3.329,3.329,0,0,1-1.18.844,3.939,3.939,0,0,1-1.578.3,4.117,4.117,0,0,1-1.512-.262,2.991,2.991,0,0,1-1.133-.77,3.406,3.406,0,0,1-.711-1.258,5.536,5.536,0,0,1-.246-1.727,5.129,5.129,0,0,1,.258-1.668,3.739,3.739,0,0,1,.742-1.3,3.329,3.329,0,0,1,1.18-.844,3.939,3.939,0,0,1,1.578-.3,4.117,4.117,0,0,1,1.512.262,3.012,3.012,0,0,1,1.133.766,3.368,3.368,0,0,1,.711,1.254A5.508,5.508,0,0,1,210.406,155.016Zm-1.391.063a4.506,4.506,0,0,0-.16-1.27,2.557,2.557,0,0,0-.457-.906,1.885,1.885,0,0,0-.723-.547,2.374,2.374,0,0,0-.949-.184,2.136,2.136,0,0,0-1.043.238,2.065,2.065,0,0,0-.711.637,2.744,2.744,0,0,0-.406.926,4.64,4.64,0,0,0-.129,1.105,4.548,4.548,0,0,0,.16,1.273,2.554,2.554,0,0,0,.457.91,1.892,1.892,0,0,0,.719.547,2.366,2.366,0,0,0,.953.184,2.136,2.136,0,0,0,1.043-.238,2.065,2.065,0,0,0,.711-.637,2.744,2.744,0,0,0,.406-.926A4.674,4.674,0,0,0,209.016,155.078Zm15.945,7.125H223.68v-16h1.281Zm20.43-3.2h-6.727v-1.219l2.641-2.625q.648-.641,1.055-1.109a5.891,5.891,0,0,0,.633-.855,2.605,2.605,0,0,0,.3-.73,3.346,3.346,0,0,0,.078-.742,2.484,2.484,0,0,0-.1-.715,1.7,1.7,0,0,0-.312-.6,1.449,1.449,0,0,0-.547-.406,1.982,1.982,0,0,0-.8-.148,2.428,2.428,0,0,0-1.18.289,4.041,4.041,0,0,0-.977.75l-.75-.9a4.6,4.6,0,0,1,1.332-.977,3.961,3.961,0,0,1,1.754-.367,3.6,3.6,0,0,1,1.238.2,2.767,2.767,0,0,1,.965.586,2.6,2.6,0,0,1,.629.938,3.331,3.331,0,0,1,.223,1.25,3.624,3.624,0,0,1-.156,1.086,4.168,4.168,0,0,1-.473,1,7.814,7.814,0,0,1-.8,1.027q-.48.531-1.137,1.164l-1.852,1.8h4.961Zm9.031-5.1a9.056,9.056,0,0,1-.234,2.137,4.948,4.948,0,0,1-.711,1.656,3.343,3.343,0,0,1-1.184,1.07,3.464,3.464,0,0,1-1.66.379,3.533,3.533,0,0,1-1.492-.309,2.965,2.965,0,0,1-1.148-.949,4.687,4.687,0,0,1-.734-1.633A9.433,9.433,0,0,1,247,153.9a8.963,8.963,0,0,1,.238-2.141,5.054,5.054,0,0,1,.711-1.66,3.3,3.3,0,0,1,1.184-1.07,3.47,3.47,0,0,1,1.656-.379,3.533,3.533,0,0,1,1.492.309,2.953,2.953,0,0,1,1.148.953,4.731,4.731,0,0,1,.734,1.637A9.433,9.433,0,0,1,254.422,153.9Zm-1.375.047q0-.266-.02-.527t-.043-.512l-4.32,3.211a4.019,4.019,0,0,0,.3.75,2.291,2.291,0,0,0,.434.59,1.865,1.865,0,0,0,.578.383,1.885,1.885,0,0,0,.738.137,1.852,1.852,0,0,0,.965-.258,2.153,2.153,0,0,0,.738-.766,4.173,4.173,0,0,0,.469-1.262A8.275,8.275,0,0,0,253.047,153.945Zm-4.672-.094q0,.242,0,.484t.027.469l4.32-3.2a3.655,3.655,0,0,0-.3-.727,2.3,2.3,0,0,0-.43-.566,1.914,1.914,0,0,0-2.254-.246,2.145,2.145,0,0,0-.738.77,4.226,4.226,0,0,0-.469,1.266A8.275,8.275,0,0,0,248.375,153.852ZM262.984,159h-6.727v-1.219l2.641-2.625q.648-.641,1.055-1.109a5.889,5.889,0,0,0,.633-.855,2.606,2.606,0,0,0,.3-.73,3.345,3.345,0,0,0,.078-.742,2.483,2.483,0,0,0-.1-.715,1.7,1.7,0,0,0-.312-.6,1.449,1.449,0,0,0-.547-.406,1.982,1.982,0,0,0-.8-.148,2.428,2.428,0,0,0-1.18.289,4.041,4.041,0,0,0-.977.75l-.75-.9a4.6,4.6,0,0,1,1.332-.977,3.961,3.961,0,0,1,1.754-.367,3.6,3.6,0,0,1,1.238.2,2.767,2.767,0,0,1,.965.586,2.6,2.6,0,0,1,.629.938,3.331,3.331,0,0,1,.223,1.25,3.624,3.624,0,0,1-.156,1.086,4.167,4.167,0,0,1-.473,1,7.814,7.814,0,0,1-.8,1.027q-.48.531-1.137,1.164l-1.852,1.8h4.961Zm8.711,0h-6.414v-1.266h2.625v-7.453l-2.445,1.328-.5-1.156,3.25-1.711h1.2v8.992H271.7Zm7.742-3.617h-4.672V154.1h4.672Zm10.172-1.484a9.056,9.056,0,0,1-.234,2.137,4.948,4.948,0,0,1-.711,1.656,3.343,3.343,0,0,1-1.184,1.07,3.464,3.464,0,0,1-1.66.379,3.533,3.533,0,0,1-1.492-.309,2.965,2.965,0,0,1-1.148-.949,4.687,4.687,0,0,1-.734-1.633,9.433,9.433,0,0,1-.258-2.352,8.964,8.964,0,0,1,.238-2.141,5.054,5.054,0,0,1,.711-1.66,3.3,3.3,0,0,1,1.184-1.07,3.47,3.47,0,0,1,1.656-.379,3.533,3.533,0,0,1,1.492.309,2.953,2.953,0,0,1,1.148.953,4.73,4.73,0,0,1,.734,1.637A9.433,9.433,0,0,1,289.609,153.9Zm-1.375.047q0-.266-.02-.527t-.043-.512l-4.32,3.211a4.02,4.02,0,0,0,.3.75,2.291,2.291,0,0,0,.434.59,1.865,1.865,0,0,0,.578.383,1.885,1.885,0,0,0,.738.137,1.852,1.852,0,0,0,.965-.258,2.153,2.153,0,0,0,.738-.766,4.173,4.173,0,0,0,.469-1.262A8.275,8.275,0,0,0,288.234,153.945Zm-4.672-.094q0,.242,0,.484t.027.469l4.32-3.2a3.656,3.656,0,0,0-.3-.727,2.3,2.3,0,0,0-.43-.566,1.914,1.914,0,0,0-2.254-.246,2.145,2.145,0,0,0-.738.77,4.226,4.226,0,0,0-.469,1.266A8.275,8.275,0,0,0,283.563,153.852Zm14.734,1.914a3.436,3.436,0,0,1-.254,1.32,3.165,3.165,0,0,1-.723,1.074,3.379,3.379,0,0,1-1.129.719,3.942,3.942,0,0,1-1.465.262,3.862,3.862,0,0,1-1.492-.27,2.651,2.651,0,0,1-1.086-.828,3.876,3.876,0,0,1-.664-1.41,7.9,7.9,0,0,1-.227-2.016,11.053,11.053,0,0,1,.1-1.516,6.8,6.8,0,0,1,.336-1.383,4.782,4.782,0,0,1,.625-1.187,3.75,3.75,0,0,1,.973-.926,4.682,4.682,0,0,1,1.371-.6,6.989,6.989,0,0,1,1.828-.215H297.5v1.188h-1.094a5.14,5.14,0,0,0-1.586.219,3.161,3.161,0,0,0-1.125.617,2.667,2.667,0,0,0-.7.961,4.088,4.088,0,0,0-.3,1.258l-.031.32a4.653,4.653,0,0,1,1.137-.465,5.285,5.285,0,0,1,1.395-.176,3.724,3.724,0,0,1,1.355.227,2.658,2.658,0,0,1,.969.629,2.6,2.6,0,0,1,.582.965A3.741,3.741,0,0,1,298.3,155.766Zm-1.422.086a2.954,2.954,0,0,0-.113-.848,1.6,1.6,0,0,0-.355-.641,1.622,1.622,0,0,0-.613-.406,2.443,2.443,0,0,0-.887-.145,3.4,3.4,0,0,0-.6.055,4.275,4.275,0,0,0-.6.152,5.1,5.1,0,0,0-.559.223,4.21,4.21,0,0,0-.484.266,8.452,8.452,0,0,0,.141,1.684,3,3,0,0,0,.418,1.082,1.56,1.56,0,0,0,.684.578,2.389,2.389,0,0,0,.938.172,2.231,2.231,0,0,0,.816-.145,1.761,1.761,0,0,0,.641-.426,2,2,0,0,0,.422-.684A2.58,2.58,0,0,0,296.875,155.852Zm8.953-.469h-4.672V154.1h4.672ZM315.766,159h-6.727v-1.219l2.641-2.625q.648-.641,1.055-1.109a5.889,5.889,0,0,0,.633-.855,2.606,2.606,0,0,0,.3-.73,3.345,3.345,0,0,0,.078-.742,2.483,2.483,0,0,0-.1-.715,1.7,1.7,0,0,0-.312-.6,1.449,1.449,0,0,0-.547-.406,1.982,1.982,0,0,0-.8-.148,2.428,2.428,0,0,0-1.18.289,4.041,4.041,0,0,0-.977.75l-.75-.9a4.6,4.6,0,0,1,1.332-.977,3.961,3.961,0,0,1,1.754-.367,3.6,3.6,0,0,1,1.238.2,2.767,2.767,0,0,1,.965.586,2.6,2.6,0,0,1,.629.938,3.331,3.331,0,0,1,.223,1.25,3.624,3.624,0,0,1-.156,1.086,4.167,4.167,0,0,1-.473,1,7.814,7.814,0,0,1-.8,1.027q-.48.531-1.137,1.164l-1.852,1.8h4.961Zm8.8,0h-6.727v-1.219l2.641-2.625q.648-.641,1.055-1.109a5.889,5.889,0,0,0,.633-.855,2.606,2.606,0,0,0,.3-.73,3.345,3.345,0,0,0,.078-.742,2.483,2.483,0,0,0-.1-.715,1.7,1.7,0,0,0-.312-.6,1.449,1.449,0,0,0-.547-.406,1.982,1.982,0,0,0-.8-.148,2.428,2.428,0,0,0-1.18.289,4.041,4.041,0,0,0-.977.75l-.75-.9a4.6,4.6,0,0,1,1.332-.977,3.961,3.961,0,0,1,1.754-.367,3.6,3.6,0,0,1,1.238.2,2.767,2.767,0,0,1,.965.586,2.6,2.6,0,0,1,.629.938,3.331,3.331,0,0,1,.223,1.25,3.624,3.624,0,0,1-.156,1.086,4.167,4.167,0,0,1-.473,1,7.814,7.814,0,0,1-.8,1.027q-.48.531-1.137,1.164l-1.852,1.8h4.961Zm14.758,3.2h-1.281v-16h1.281ZM8.141,179.336H5.07v3.188H3.727v-3.187H.656v-1.187h3.07v-3.164H5.07v3.164h3.07Zm7.391.047H10.859V178.1h4.672Zm8.8,0H19.656V178.1h4.672Zm8.8,0H28.453V178.1h4.672Zm8.8,0H37.25V178.1h4.672Zm8.8,0H46.047V178.1h4.672Zm8.8,0H54.844V178.1h4.672Zm8.8,0H63.641V178.1h4.672Zm8.8,0H72.438V178.1h4.672Zm8.8,0H81.234V178.1h4.672Zm8.8,0H90.031V178.1H94.7Zm8.8,0H98.828V178.1H103.5Zm8.8,0h-4.672V178.1H112.3Zm10.2-.047h-3.07v3.188h-1.344v-3.187h-3.07v-1.187h3.07v-3.164h1.344v3.164h3.07Zm7.391.047h-4.672V178.1h4.672Zm8.8,0h-4.672V178.1h4.672Zm8.8,0h-4.672V178.1h4.672Zm8.8,0h-4.672V178.1h4.672Zm8.8,0h-4.672V178.1h4.672Zm8.8,0H169.2V178.1h4.672Zm8.8,0H178V178.1h4.672Zm8.8,0H186.8V178.1h4.672Zm8.8,0h-4.672V178.1h4.672Zm8.8,0h-4.672V178.1h4.672Zm8.8,0h-4.672V178.1h4.672Zm10.2-.047h-3.07v3.188h-1.344v-3.187h-3.07v-1.187h3.07v-3.164h1.344v3.164h3.07Zm7.391.047h-4.672V178.1h4.672Zm8.8,0h-4.672V178.1h4.672Zm8.8,0h-4.672V178.1h4.672Zm8.8,0h-4.672V178.1h4.672Zm8.8,0h-4.672V178.1h4.672Zm8.8,0h-4.672V178.1h4.672Zm8.8,0h-4.672V178.1h4.672Zm8.8,0h-4.672V178.1h4.672Zm8.8,0h-4.672V178.1h4.672Zm8.8,0h-4.672V178.1h4.672Zm8.8,0H318.75V178.1h4.672Zm8.8,0h-4.672V178.1h4.672Zm10.2-.047h-3.07v3.188h-1.344v-3.187h-3.07v-1.187h3.07v-3.164h1.344v3.164h3.07Z" transform="translate(319 14858)" fill="#f4a338"/>
  </g>
</svg>
