<svg xmlns="http://www.w3.org/2000/svg" width="464.922" height="103.539" viewBox="0 0 464.922 103.539">
  <g id="Grupo_986597" data-name="Grupo 986597" transform="translate(-579.656 -8205.284)">
    <path id="Trazado_659730" data-name="Trazado 659730" d="M8.141,11.336H5.07v3.188H3.727V11.336H.656V10.148h3.07V6.984H5.07v3.164h3.07Zm7.391.047H10.859V10.1h4.672Zm8.8,0H19.656V10.1h4.672Zm8.8,0H28.453V10.1h4.672Zm8.8,0H37.25V10.1h4.672Zm8.8,0H46.047V10.1h4.672Zm8.8,0H54.844V10.1h4.672Zm8.8,0H63.641V10.1h4.672Zm8.8,0H72.438V10.1h4.672Zm8.8,0H81.234V10.1h4.672Zm10.2-.047h-3.07v3.188H91.7V11.336h-3.07V10.148H91.7V6.984h1.344v3.164h3.07Zm7.391.047H98.828V10.1H103.5Zm8.8,0h-4.672V10.1H112.3Zm8.8,0h-4.672V10.1h4.672Zm8.8,0h-4.672V10.1h4.672Zm8.8,0h-4.672V10.1h4.672Zm8.8,0h-4.672V10.1h4.672Zm8.8,0h-4.672V10.1h4.672Zm8.8,0h-4.672V10.1h4.672Zm8.8,0H169.2V10.1h4.672Zm8.8,0H178V10.1h4.672Zm8.8,0H186.8V10.1h4.672Zm8.8,0h-4.672V10.1h4.672Zm10.2-.047H207.4v3.188h-1.344V11.336h-3.07V10.148h3.07V6.984H207.4v3.164h3.07Zm7.391.047h-4.672V10.1h4.672Zm8.8,0h-4.672V10.1h4.672Zm8.8,0h-4.672V10.1h4.672Zm8.8,0h-4.672V10.1h4.672Zm8.8,0h-4.672V10.1h4.672Zm8.8,0h-4.672V10.1h4.672Zm8.8,0h-4.672V10.1h4.672Zm8.8,0h-4.672V10.1h4.672Zm8.8,0h-4.672V10.1h4.672Zm8.8,0h-4.672V10.1h4.672Zm8.8,0h-4.672V10.1h4.672Zm8.8,0h-4.672V10.1h4.672Zm10.2-.047h-3.07v3.188h-1.344V11.336h-3.07V10.148h3.07V6.984h1.344v3.164h3.07Zm7.391.047h-4.672V10.1h4.672Zm8.8,0h-4.672V10.1h4.672Zm8.8,0h-4.672V10.1h4.672Zm8.8,0h-4.672V10.1h4.672Zm8.8,0h-4.672V10.1h4.672Zm8.8,0h-4.672V10.1H376.2Zm8.8,0h-4.672V10.1H385Zm8.8,0h-4.672V10.1H393.8Zm8.8,0h-4.672V10.1h4.672Zm8.8,0h-4.672V10.1h4.672Zm8.8,0h-4.672V10.1h4.672Zm8.8,0h-4.672V10.1h4.672Zm8.8,0h-4.672V10.1h4.672Zm8.8,0h-4.672V10.1h4.672Zm8.8,0H450.7V10.1h4.672Zm10.2-.047h-3.07v3.188h-1.344V11.336h-3.07V10.148h3.07V6.984h1.344v3.164h3.07ZM5.039,42.2H3.758v-16H5.039ZM25.383,39H18.969V37.734h2.625V30.281l-2.445,1.328-.5-1.156,3.25-1.711h1.2v8.992h2.281Zm18.523,0H42.391l-.711-2.227H37.43L36.711,39H35.266l3.391-10.211h1.906Zm-2.625-3.469L39.555,30.07l-1.727,5.461ZM51.859,39H50.047L47.07,32.633l-.859-2.047V39h-1.3V28.789H46.7l2.836,6.031,1.023,2.336V28.789h1.3Zm9.148-5.219a8.45,8.45,0,0,1-.113,1.406,5.4,5.4,0,0,1-.363,1.25,4.218,4.218,0,0,1-.648,1.051,3.681,3.681,0,0,1-.977.809,4.966,4.966,0,0,1-1.344.52A7.5,7.5,0,0,1,55.82,39H53.633V28.789h2.633a4.718,4.718,0,0,1,3.566,1.23A5.27,5.27,0,0,1,61.008,33.781Zm-1.461.1a7.122,7.122,0,0,0-.2-1.836,2.924,2.924,0,0,0-.617-1.211,2.369,2.369,0,0,0-1.039-.668,4.681,4.681,0,0,0-1.469-.207h-1.2V37.8h1.039Q59.547,37.8,59.547,33.883Zm18.938.016a9.056,9.056,0,0,1-.234,2.137,4.948,4.948,0,0,1-.711,1.656,3.343,3.343,0,0,1-1.184,1.07,3.464,3.464,0,0,1-1.66.379,3.533,3.533,0,0,1-1.492-.309,2.965,2.965,0,0,1-1.148-.949,4.687,4.687,0,0,1-.734-1.633,9.433,9.433,0,0,1-.258-2.352,8.963,8.963,0,0,1,.238-2.141,5.054,5.054,0,0,1,.711-1.66,3.3,3.3,0,0,1,1.184-1.07,3.47,3.47,0,0,1,1.656-.379,3.533,3.533,0,0,1,1.492.309,2.953,2.953,0,0,1,1.148.953,4.73,4.73,0,0,1,.734,1.637A9.433,9.433,0,0,1,78.484,33.9Zm-1.375.047q0-.266-.02-.527t-.043-.512l-4.32,3.211a4.019,4.019,0,0,0,.3.75,2.291,2.291,0,0,0,.434.59,1.865,1.865,0,0,0,.578.383,1.885,1.885,0,0,0,.738.137,1.852,1.852,0,0,0,.965-.258,2.153,2.153,0,0,0,.738-.766,4.173,4.173,0,0,0,.469-1.262A8.275,8.275,0,0,0,77.109,33.945Zm-4.672-.094q0,.242,0,.484t.027.469l4.32-3.2a3.655,3.655,0,0,0-.3-.727,2.3,2.3,0,0,0-.43-.566,1.914,1.914,0,0,0-2.254-.246,2.145,2.145,0,0,0-.738.77,4.226,4.226,0,0,0-.469,1.266A8.275,8.275,0,0,0,72.438,33.852ZM93.008,42.2H91.727v-16h1.281ZM113.352,39h-6.414V37.734h2.625V30.281l-2.445,1.328-.5-1.156,3.25-1.711h1.2v8.992h2.281Zm18.523,0h-1.516l-.711-2.227H125.4L124.68,39h-1.445l3.391-10.211h1.906Zm-2.625-3.469-1.727-5.461L125.8,35.531ZM139.828,39h-1.812l-2.977-6.367-.859-2.047V39h-1.3V28.789h1.789l2.836,6.031,1.023,2.336V28.789h1.3Zm9.148-5.219a8.451,8.451,0,0,1-.113,1.406,5.4,5.4,0,0,1-.363,1.25,4.218,4.218,0,0,1-.648,1.051,3.681,3.681,0,0,1-.977.809,4.966,4.966,0,0,1-1.344.52,7.5,7.5,0,0,1-1.742.184H141.6V28.789h2.633a4.718,4.718,0,0,1,3.566,1.23A5.27,5.27,0,0,1,148.977,33.781Zm-1.461.1a7.122,7.122,0,0,0-.2-1.836,2.924,2.924,0,0,0-.617-1.211,2.369,2.369,0,0,0-1.039-.668,4.681,4.681,0,0,0-1.469-.207h-1.2V37.8h1.039Q147.516,37.8,147.516,33.883ZM166.219,39h-1.812l-2.977-6.367-.859-2.047V39h-1.3V28.789h1.789L163.9,34.82l1.023,2.336V28.789h1.3Zm8.875-3.555a4.619,4.619,0,0,1-.238,1.527,3.156,3.156,0,0,1-.7,1.164,3.114,3.114,0,0,1-1.129.742,4.187,4.187,0,0,1-1.535.262,4.608,4.608,0,0,1-1.617-.25,2.748,2.748,0,0,1-1.082-.707,2.779,2.779,0,0,1-.609-1.1,4.985,4.985,0,0,1-.191-1.43V28.789h1.391v6.758A4.377,4.377,0,0,0,169.5,36.6a1.846,1.846,0,0,0,.371.758,1.6,1.6,0,0,0,.668.461,2.832,2.832,0,0,0,1,.156,2,2,0,0,0,1.637-.641,2.766,2.766,0,0,0,.527-1.8V28.789h1.391ZM183.633,39h-5.875V28.789h1.414v9.023h4.461Zm8.8,0h-5.875V28.789h1.414v9.023h4.461Zm14.938,3.2h-1.281v-16h1.281Zm20.664-8.3a9.056,9.056,0,0,1-.234,2.137,4.948,4.948,0,0,1-.711,1.656,3.343,3.343,0,0,1-1.184,1.07,3.464,3.464,0,0,1-1.66.379,3.533,3.533,0,0,1-1.492-.309,2.965,2.965,0,0,1-1.148-.949,4.687,4.687,0,0,1-.734-1.633,9.433,9.433,0,0,1-.258-2.352,8.963,8.963,0,0,1,.238-2.141,5.054,5.054,0,0,1,.711-1.66,3.3,3.3,0,0,1,1.184-1.07,3.47,3.47,0,0,1,1.656-.379,3.533,3.533,0,0,1,1.492.309,2.952,2.952,0,0,1,1.148.953,4.73,4.73,0,0,1,.734,1.637A9.433,9.433,0,0,1,228.031,33.9Zm-1.375.047q0-.266-.02-.527t-.043-.512l-4.32,3.211a4.018,4.018,0,0,0,.3.75,2.291,2.291,0,0,0,.434.59,1.865,1.865,0,0,0,.578.383,1.885,1.885,0,0,0,.738.137,1.852,1.852,0,0,0,.965-.258,2.153,2.153,0,0,0,.738-.766,4.173,4.173,0,0,0,.469-1.262A8.275,8.275,0,0,0,226.656,33.945Zm-4.672-.094q0,.242,0,.484t.027.469l4.32-3.2a3.655,3.655,0,0,0-.3-.727,2.3,2.3,0,0,0-.43-.566,1.914,1.914,0,0,0-2.254-.246,2.145,2.145,0,0,0-.738.77,4.226,4.226,0,0,0-.469,1.266A8.275,8.275,0,0,0,221.984,33.852ZM246.234,39h-1.516l-.711-2.227h-4.25L239.039,39h-1.445l3.391-10.211h1.906Zm-2.625-3.469-1.727-5.461-1.727,5.461ZM254.188,39h-1.812L249.4,32.633l-.859-2.047V39h-1.3V28.789h1.789l2.836,6.031,1.023,2.336V28.789h1.3Zm9.148-5.219a8.449,8.449,0,0,1-.113,1.406,5.4,5.4,0,0,1-.363,1.25,4.218,4.218,0,0,1-.648,1.051,3.681,3.681,0,0,1-.977.809,4.966,4.966,0,0,1-1.344.52,7.5,7.5,0,0,1-1.742.184h-2.187V28.789h2.633a4.718,4.718,0,0,1,3.566,1.23A5.27,5.27,0,0,1,263.336,33.781Zm-1.461.1a7.123,7.123,0,0,0-.2-1.836,2.924,2.924,0,0,0-.617-1.211,2.369,2.369,0,0,0-1.039-.668,4.681,4.681,0,0,0-1.469-.207h-1.2V37.8h1.039Q261.875,37.8,261.875,33.883ZM280.578,39h-1.812l-2.977-6.367-.859-2.047V39h-1.3V28.789h1.789l2.836,6.031,1.023,2.336V28.789h1.3Zm8.875-3.555a4.619,4.619,0,0,1-.238,1.527,3.156,3.156,0,0,1-.7,1.164,3.114,3.114,0,0,1-1.129.742,4.187,4.187,0,0,1-1.535.262,4.608,4.608,0,0,1-1.617-.25,2.748,2.748,0,0,1-1.082-.707,2.779,2.779,0,0,1-.609-1.1,4.986,4.986,0,0,1-.191-1.43V28.789h1.391v6.758a4.377,4.377,0,0,0,.113,1.055,1.846,1.846,0,0,0,.371.758,1.6,1.6,0,0,0,.668.461,2.832,2.832,0,0,0,1,.156,2,2,0,0,0,1.637-.641,2.766,2.766,0,0,0,.527-1.8V28.789h1.391ZM297.992,39h-5.875V28.789h1.414v9.023h4.461Zm8.8,0h-5.875V28.789h1.414v9.023h4.461Zm14.938,3.2h-1.281v-16h1.281ZM342.07,39h-6.414V37.734h2.625V30.281l-2.445,1.328-.5-1.156,3.25-1.711h1.2v8.992h2.281Zm18.523,0h-1.516l-.711-2.227h-4.25L353.4,39h-1.445l3.391-10.211h1.906Zm-2.625-3.469-1.727-5.461-1.727,5.461ZM368.547,39h-1.812l-2.977-6.367-.859-2.047V39h-1.3V28.789h1.789l2.836,6.031,1.023,2.336V28.789h1.3Zm9.148-5.219a8.449,8.449,0,0,1-.113,1.406,5.4,5.4,0,0,1-.363,1.25,4.218,4.218,0,0,1-.648,1.051,3.681,3.681,0,0,1-.977.809,4.966,4.966,0,0,1-1.344.52,7.5,7.5,0,0,1-1.742.184H370.32V28.789h2.633a4.718,4.718,0,0,1,3.566,1.23A5.27,5.27,0,0,1,377.7,33.781Zm-1.461.1a7.123,7.123,0,0,0-.2-1.836,2.924,2.924,0,0,0-.617-1.211,2.369,2.369,0,0,0-1.039-.668,4.681,4.681,0,0,0-1.469-.207h-1.2V37.8h1.039Q376.234,37.8,376.234,33.883Zm18.938.016a9.056,9.056,0,0,1-.234,2.137,4.948,4.948,0,0,1-.711,1.656,3.343,3.343,0,0,1-1.184,1.07,3.464,3.464,0,0,1-1.66.379,3.533,3.533,0,0,1-1.492-.309,2.965,2.965,0,0,1-1.148-.949,4.687,4.687,0,0,1-.734-1.633,9.433,9.433,0,0,1-.258-2.352,8.964,8.964,0,0,1,.238-2.141,5.054,5.054,0,0,1,.711-1.66,3.3,3.3,0,0,1,1.184-1.07,3.47,3.47,0,0,1,1.656-.379,3.533,3.533,0,0,1,1.492.309,2.953,2.953,0,0,1,1.148.953,4.73,4.73,0,0,1,.734,1.637A9.433,9.433,0,0,1,395.172,33.9Zm-1.375.047q0-.266-.02-.527t-.043-.512l-4.32,3.211a4.02,4.02,0,0,0,.3.75,2.291,2.291,0,0,0,.434.59,1.865,1.865,0,0,0,.578.383,1.885,1.885,0,0,0,.738.137,1.852,1.852,0,0,0,.965-.258,2.153,2.153,0,0,0,.738-.766,4.173,4.173,0,0,0,.469-1.262A8.275,8.275,0,0,0,393.8,33.945Zm-4.672-.094q0,.242,0,.484t.027.469l4.32-3.2a3.656,3.656,0,0,0-.3-.727,2.3,2.3,0,0,0-.43-.566,1.914,1.914,0,0,0-2.254-.246,2.145,2.145,0,0,0-.738.77,4.226,4.226,0,0,0-.469,1.266A8.275,8.275,0,0,0,389.125,33.852ZM413.375,39h-1.516l-.711-2.227H406.9L406.18,39h-1.445l3.391-10.211h1.906Zm-2.625-3.469-1.727-5.461L407.3,35.531ZM421.328,39h-1.812l-2.977-6.367-.859-2.047V39h-1.3V28.789h1.789l2.836,6.031,1.023,2.336V28.789h1.3Zm9.148-5.219a8.449,8.449,0,0,1-.113,1.406,5.4,5.4,0,0,1-.363,1.25,4.218,4.218,0,0,1-.648,1.051,3.681,3.681,0,0,1-.977.809,4.966,4.966,0,0,1-1.344.52,7.5,7.5,0,0,1-1.742.184H423.1V28.789h2.633a4.718,4.718,0,0,1,3.566,1.23A5.27,5.27,0,0,1,430.477,33.781Zm-1.461.1a7.123,7.123,0,0,0-.2-1.836,2.924,2.924,0,0,0-.617-1.211,2.369,2.369,0,0,0-1.039-.668,4.681,4.681,0,0,0-1.469-.207h-1.2V37.8h1.039Q429.016,37.8,429.016,33.883ZM447.633,39h-6.414V37.734h2.625V30.281L441.4,31.609l-.5-1.156,3.25-1.711h1.2v8.992h2.281Zm14.844,3.2H461.2v-16h1.281ZM8.141,59.336H5.07v3.188H3.727V59.336H.656V58.148h3.07V54.984H5.07v3.164h3.07Zm7.391.047H10.859V58.1h4.672Zm8.8,0H19.656V58.1h4.672Zm8.8,0H28.453V58.1h4.672Zm8.8,0H37.25V58.1h4.672Zm8.8,0H46.047V58.1h4.672Zm8.8,0H54.844V58.1h4.672Zm8.8,0H63.641V58.1h4.672Zm8.8,0H72.438V58.1h4.672Zm8.8,0H81.234V58.1h4.672Zm10.2-.047h-3.07v3.188H91.7V59.336h-3.07V58.148H91.7V54.984h1.344v3.164h3.07Zm7.391.047H98.828V58.1H103.5Zm8.8,0h-4.672V58.1H112.3Zm8.8,0h-4.672V58.1h4.672Zm8.8,0h-4.672V58.1h4.672Zm8.8,0h-4.672V58.1h4.672Zm8.8,0h-4.672V58.1h4.672Zm8.8,0h-4.672V58.1h4.672Zm8.8,0h-4.672V58.1h4.672Zm8.8,0H169.2V58.1h4.672Zm8.8,0H178V58.1h4.672Zm8.8,0H186.8V58.1h4.672Zm8.8,0h-4.672V58.1h4.672Zm10.2-.047H207.4v3.188h-1.344V59.336h-3.07V58.148h3.07V54.984H207.4v3.164h3.07Zm7.391.047h-4.672V58.1h4.672Zm8.8,0h-4.672V58.1h4.672Zm8.8,0h-4.672V58.1h4.672Zm8.8,0h-4.672V58.1h4.672Zm8.8,0h-4.672V58.1h4.672Zm8.8,0h-4.672V58.1h4.672Zm8.8,0h-4.672V58.1h4.672Zm8.8,0h-4.672V58.1h4.672Zm8.8,0h-4.672V58.1h4.672Zm8.8,0h-4.672V58.1h4.672Zm8.8,0h-4.672V58.1h4.672Zm8.8,0h-4.672V58.1h4.672Zm10.2-.047h-3.07v3.188h-1.344V59.336h-3.07V58.148h3.07V54.984h1.344v3.164h3.07Zm7.391.047h-4.672V58.1h4.672Zm8.8,0h-4.672V58.1h4.672Zm8.8,0h-4.672V58.1h4.672Zm8.8,0h-4.672V58.1h4.672Zm8.8,0h-4.672V58.1h4.672Zm8.8,0h-4.672V58.1H376.2Zm8.8,0h-4.672V58.1H385Zm8.8,0h-4.672V58.1H393.8Zm8.8,0h-4.672V58.1h4.672Zm8.8,0h-4.672V58.1h4.672Zm8.8,0h-4.672V58.1h4.672Zm8.8,0h-4.672V58.1h4.672Zm8.8,0h-4.672V58.1h4.672Zm8.8,0h-4.672V58.1h4.672Zm8.8,0H450.7V58.1h4.672Zm10.2-.047h-3.07v3.188h-1.344V59.336h-3.07V58.148h3.07V54.984h1.344v3.164h3.07ZM5.039,90.2H3.758v-16H5.039Zm73.445-8.3a9.056,9.056,0,0,1-.234,2.137,4.948,4.948,0,0,1-.711,1.656,3.343,3.343,0,0,1-1.184,1.07,3.464,3.464,0,0,1-1.66.379,3.533,3.533,0,0,1-1.492-.309,2.965,2.965,0,0,1-1.148-.949,4.687,4.687,0,0,1-.734-1.633,9.433,9.433,0,0,1-.258-2.352,8.963,8.963,0,0,1,.238-2.141,5.054,5.054,0,0,1,.711-1.66,3.3,3.3,0,0,1,1.184-1.07,3.47,3.47,0,0,1,1.656-.379,3.533,3.533,0,0,1,1.492.309,2.953,2.953,0,0,1,1.148.953,4.73,4.73,0,0,1,.734,1.637A9.433,9.433,0,0,1,78.484,81.9Zm-1.375.047q0-.266-.02-.527t-.043-.512l-4.32,3.211a4.019,4.019,0,0,0,.3.75,2.291,2.291,0,0,0,.434.59,1.865,1.865,0,0,0,.578.383,1.885,1.885,0,0,0,.738.137,1.852,1.852,0,0,0,.965-.258,2.153,2.153,0,0,0,.738-.766,4.173,4.173,0,0,0,.469-1.262A8.275,8.275,0,0,0,77.109,81.945Zm-4.672-.094q0,.242,0,.484t.027.469l4.32-3.2a3.655,3.655,0,0,0-.3-.727,2.3,2.3,0,0,0-.43-.566,1.914,1.914,0,0,0-2.254-.246,2.145,2.145,0,0,0-.738.77,4.226,4.226,0,0,0-.469,1.266A8.275,8.275,0,0,0,72.438,81.852ZM93.008,90.2H91.727v-16h1.281ZM166.219,87h-1.812l-2.977-6.367-.859-2.047V87h-1.3V76.789h1.789L163.9,82.82l1.023,2.336V76.789h1.3Zm8.875-3.555a4.619,4.619,0,0,1-.238,1.527,3.156,3.156,0,0,1-.7,1.164,3.114,3.114,0,0,1-1.129.742,4.187,4.187,0,0,1-1.535.262,4.608,4.608,0,0,1-1.617-.25,2.748,2.748,0,0,1-1.082-.707,2.779,2.779,0,0,1-.609-1.1,4.985,4.985,0,0,1-.191-1.43V76.789h1.391v6.758A4.377,4.377,0,0,0,169.5,84.6a1.846,1.846,0,0,0,.371.758,1.6,1.6,0,0,0,.668.461,2.832,2.832,0,0,0,1,.156,2,2,0,0,0,1.637-.641,2.766,2.766,0,0,0,.527-1.8V76.789h1.391ZM183.633,87h-5.875V76.789h1.414v9.023h4.461Zm8.8,0h-5.875V76.789h1.414v9.023h4.461Zm14.938,3.2h-1.281v-16h1.281ZM307.2,81.9a9.056,9.056,0,0,1-.234,2.137,4.948,4.948,0,0,1-.711,1.656,3.343,3.343,0,0,1-1.184,1.07,3.464,3.464,0,0,1-1.66.379,3.533,3.533,0,0,1-1.492-.309,2.965,2.965,0,0,1-1.148-.949,4.687,4.687,0,0,1-.734-1.633,9.433,9.433,0,0,1-.258-2.352,8.964,8.964,0,0,1,.238-2.141,5.054,5.054,0,0,1,.711-1.66,3.3,3.3,0,0,1,1.184-1.07,3.47,3.47,0,0,1,1.656-.379,3.533,3.533,0,0,1,1.492.309,2.953,2.953,0,0,1,1.148.953,4.73,4.73,0,0,1,.734,1.637A9.433,9.433,0,0,1,307.2,81.9Zm-1.375.047q0-.266-.02-.527t-.043-.512l-4.32,3.211a4.019,4.019,0,0,0,.3.75,2.291,2.291,0,0,0,.434.59,1.865,1.865,0,0,0,.578.383,1.885,1.885,0,0,0,.738.137,1.852,1.852,0,0,0,.965-.258,2.153,2.153,0,0,0,.738-.766,4.173,4.173,0,0,0,.469-1.262A8.275,8.275,0,0,0,305.828,81.945Zm-4.672-.094q0,.242,0,.484t.027.469l4.32-3.2a3.656,3.656,0,0,0-.3-.727,2.3,2.3,0,0,0-.43-.566,1.914,1.914,0,0,0-2.254-.246,2.145,2.145,0,0,0-.738.77,4.226,4.226,0,0,0-.469,1.266A8.275,8.275,0,0,0,301.156,81.852Zm20.57,8.352h-1.281v-16h1.281Zm126.227-8.3a9.056,9.056,0,0,1-.234,2.137,4.948,4.948,0,0,1-.711,1.656,3.343,3.343,0,0,1-1.184,1.07,3.464,3.464,0,0,1-1.66.379,3.533,3.533,0,0,1-1.492-.309,2.965,2.965,0,0,1-1.148-.949,4.687,4.687,0,0,1-.734-1.633,9.433,9.433,0,0,1-.258-2.352,8.964,8.964,0,0,1,.238-2.141,5.054,5.054,0,0,1,.711-1.66,3.3,3.3,0,0,1,1.184-1.07,3.47,3.47,0,0,1,1.656-.379,3.533,3.533,0,0,1,1.492.309,2.953,2.953,0,0,1,1.148.953,4.73,4.73,0,0,1,.734,1.637A9.433,9.433,0,0,1,447.953,81.9Zm-1.375.047q0-.266-.02-.527t-.043-.512l-4.32,3.211a4.019,4.019,0,0,0,.3.75,2.291,2.291,0,0,0,.434.59,1.865,1.865,0,0,0,.578.383,1.885,1.885,0,0,0,.738.137,1.852,1.852,0,0,0,.965-.258,2.153,2.153,0,0,0,.738-.766,4.173,4.173,0,0,0,.469-1.262A8.275,8.275,0,0,0,446.578,81.945Zm-4.672-.094q0,.242,0,.484t.027.469l4.32-3.2a3.656,3.656,0,0,0-.3-.727,2.3,2.3,0,0,0-.43-.566,1.914,1.914,0,0,0-2.254-.246,2.145,2.145,0,0,0-.738.77,4.226,4.226,0,0,0-.469,1.266A8.275,8.275,0,0,0,441.906,81.852Zm20.57,8.352H461.2v-16h1.281ZM8.141,107.336H5.07v3.188H3.727v-3.187H.656v-1.187h3.07v-3.164H5.07v3.164h3.07Zm7.391.047H10.859V106.1h4.672Zm8.8,0H19.656V106.1h4.672Zm8.8,0H28.453V106.1h4.672Zm8.8,0H37.25V106.1h4.672Zm8.8,0H46.047V106.1h4.672Zm8.8,0H54.844V106.1h4.672Zm8.8,0H63.641V106.1h4.672Zm8.8,0H72.438V106.1h4.672Zm8.8,0H81.234V106.1h4.672Zm10.2-.047h-3.07v3.188H91.7v-3.187h-3.07v-1.187H91.7v-3.164h1.344v3.164h3.07Zm7.391.047H98.828V106.1H103.5Zm8.8,0h-4.672V106.1H112.3Zm8.8,0h-4.672V106.1h4.672Zm8.8,0h-4.672V106.1h4.672Zm8.8,0h-4.672V106.1h4.672Zm8.8,0h-4.672V106.1h4.672Zm8.8,0h-4.672V106.1h4.672Zm8.8,0h-4.672V106.1h4.672Zm8.8,0H169.2V106.1h4.672Zm8.8,0H178V106.1h4.672Zm8.8,0H186.8V106.1h4.672Zm8.8,0h-4.672V106.1h4.672Zm10.2-.047H207.4v3.188h-1.344v-3.187h-3.07v-1.187h3.07v-3.164H207.4v3.164h3.07Zm7.391.047h-4.672V106.1h4.672Zm8.8,0h-4.672V106.1h4.672Zm8.8,0h-4.672V106.1h4.672Zm8.8,0h-4.672V106.1h4.672Zm8.8,0h-4.672V106.1h4.672Zm8.8,0h-4.672V106.1h4.672Zm8.8,0h-4.672V106.1h4.672Zm8.8,0h-4.672V106.1h4.672Zm8.8,0h-4.672V106.1h4.672Zm8.8,0h-4.672V106.1h4.672Zm8.8,0h-4.672V106.1h4.672Zm8.8,0h-4.672V106.1h4.672Zm10.2-.047h-3.07v3.188h-1.344v-3.187h-3.07v-1.187h3.07v-3.164h1.344v3.164h3.07Zm7.391.047h-4.672V106.1h4.672Zm8.8,0h-4.672V106.1h4.672Zm8.8,0h-4.672V106.1h4.672Zm8.8,0h-4.672V106.1h4.672Zm8.8,0h-4.672V106.1h4.672Zm8.8,0h-4.672V106.1H376.2Zm8.8,0h-4.672V106.1H385Zm8.8,0h-4.672V106.1H393.8Zm8.8,0h-4.672V106.1h4.672Zm8.8,0h-4.672V106.1h4.672Zm8.8,0h-4.672V106.1h4.672Zm8.8,0h-4.672V106.1h4.672Zm8.8,0h-4.672V106.1h4.672Zm8.8,0h-4.672V106.1h4.672Zm8.8,0H450.7V106.1h4.672Zm10.2-.047h-3.07v3.188h-1.344v-3.187h-3.07v-1.187h3.07v-3.164h1.344v3.164h3.07Z" transform="translate(579 8198.3)" fill="#f4a338"/>
  </g>
</svg>
