<svg id="Grupo_982081" data-name="Grupo 982081" xmlns="http://www.w3.org/2000/svg" xmlns:xlink="http://www.w3.org/1999/xlink" width="377" height="305.188" viewBox="0 0 377 305.188">
  <defs>
    <clipPath id="clip-path">
      <rect id="Rectángulo_37161" data-name="Rectángulo 37161" width="377" height="305.187" fill="none"/>
    </clipPath>
    <clipPath id="clip-path-3">
      <rect id="Rectángulo_37158" data-name="Rectángulo 37158" width="48.676" height="48.673" fill="none"/>
    </clipPath>
    <clipPath id="clip-path-4">
      <rect id="Rectángulo_37157" data-name="Rectángulo 37157" width="8.494" height="6.124" fill="none"/>
    </clipPath>
    <clipPath id="clip-path-6">
      <rect id="Rectángulo_37159" data-name="Rectángulo 37159" width="72.609" height="59.892" fill="none"/>
    </clipPath>
  </defs>
  <g id="Grupo_142296" data-name="Grupo 142296" clip-path="url(#clip-path)">
    <g id="Grupo_142295" data-name="Grupo 142295" transform="translate(0 0)">
      <g id="Grupo_142294" data-name="Grupo 142294" clip-path="url(#clip-path)">
        <path id="Trazado_183454" data-name="Trazado 183454" d="M346.279,192.466c-.35,2.976-.84,5.954-1.435,8.876a110.665,110.665,0,0,1-5.439,19.4c-.783,2.11-1.623,4.22-2.515,6.279-.732,1.569-1.461,3.192-2.247,4.733v.028c-.948,1.868-1.894,3.679-2.922,5.467-1.273,2.272-2.651,4.545-4.115,6.763a126.81,126.81,0,0,1-7.9,10.744v.026a136.845,136.845,0,0,1-16.778,17.128c-.188.162-.35.3-.541.461l-.026.026c-13.585,11.527-25.625,15.425-37.4,15.75h-.026a64.56,64.56,0,0,1-7.577-.245,118.737,118.737,0,0,1-12.717-1.948c-13.232-2.705-27.086-6.928-43.348-6.982-.783-.026-1.569,0-2.355,0-.134,0-.271.028-.433.028-2.082.054-4.249.162-6.413.379a87.241,87.241,0,0,0-11.473,1.814c-2.381.513-4.844,1.162-7.333,1.919-2,.6-4,1.3-6.114,2.056-.623.245-1.273.461-1.9.732-.134.054-.216.08-.35.134-3.409,1.353-6.737,2.6-10.066,3.79-1.219.459-2.463.92-3.679,1.324-2.816,1.028-5.547,1.95-8.255,2.816-1.378.459-2.731.891-4.084,1.3-15.317,4.869-29.278,8.036-41.916,9.309a108.25,108.25,0,0,1-15.451.541A13.272,13.272,0,0,1,80,305c-1.327-.028-2.651-.137-3.924-.271-.948-.108-1.894-.216-2.842-.353-1.082-.137-2.164-.3-3.221-.515-.6-.108-1.19-.242-1.785-.379-.866-.134-1.731-.35-2.6-.567a54.36,54.36,0,0,1-27.248-16.074c-7.415-8.144-13.2-19.13-17.208-33.416-9.986-35.176,15.206-53.494,30.981-77.089,1.677-2.546,3.275-5.114,4.681-7.794a57.67,57.67,0,0,0,5.98-16.641c3.545-18.725-12.2-37.585-14.668-57.364a68.219,68.219,0,0,1,.108-17.4A61.029,61.029,0,0,1,49.393,71C53.855,51.356,67.278,32.064,92.28,20.32c5.763-2.708,11.553-5.114,17.344-7.278.786-.327,1.623-.623,2.435-.894l.732-.245a5.927,5.927,0,0,1,.621-.216c1.814-.675,3.682-1.3,5.521-1.865C154.7-1.76,190.475-2.95,222.487,5.465c2.327.567,4.625,1.244,6.925,1.948,1.219.353,2.409.757,3.625,1.165a146.822,146.822,0,0,1,38.425,19.48c2.193,1.489,4.274,3.058,6.359,4.681A148.378,148.378,0,0,1,309.4,67.131q3.327,4.993,6.359,9.984c3.437,5.684,6.629,11.365,9.5,17.02,17.453,34.148,24.7,67.7,21.024,98.332" transform="translate(29.788 0)" fill="#fff"/>
        <path id="Trazado_183455" data-name="Trazado 183455" d="M.307,84.844c2.533,20.815,20.083,35.8,39.2,33.478s32.561-21.085,30.028-41.9-20.081-35.8-39.2-33.478S-2.226,64.029.307,84.844" transform="translate(0 67.322)" fill="#d2e2ed"/>
        <path id="Trazado_183456" data-name="Trazado 183456" d="M33.341,29.465c16.056,0,29.119,10.635,29.119,23.708,0,10.86-9.211,20.109-21.979,22.763.564,1.822,3,9.267,2.643,9.543-.479.371-2.656-1.378-3.169-1.7,0,0-11.274-7.188-11.517-7.34C14.4,74.493,4.227,64.8,4.227,53.173c0-13.073,13.06-23.708,29.114-23.708" transform="translate(6.664 46.449)" fill="#373f51"/>
        <path id="Trazado_183457" data-name="Trazado 183457" d="M15.218,40.916a3.482,3.482,0,1,1-3.488-3.481,3.485,3.485,0,0,1,3.488,3.481" transform="translate(13.012 59.013)" fill="#fff"/>
        <path id="Trazado_183458" data-name="Trazado 183458" d="M20.984,40.916A3.482,3.482,0,1,1,17.5,37.435a3.483,3.483,0,0,1,3.488,3.481" transform="translate(22.101 59.013)" fill="#fff"/>
        <path id="Trazado_183459" data-name="Trazado 183459" d="M26.944,40.916a3.482,3.482,0,1,1-3.483-3.481,3.478,3.478,0,0,1,3.483,3.481" transform="translate(31.497 59.013)" fill="#fff"/>
        <path id="Trazado_183460" data-name="Trazado 183460" d="M73.831,40.68c-.028,0-.059,0-.088-.005a.678.678,0,0,1-.585-.757l.052-.4a.677.677,0,1,1,1.342.173l-.052.4a.675.675,0,0,1-.67.59" transform="translate(115.32 61.362)" fill="#334d5c"/>
        <path id="Trazado_183461" data-name="Trazado 183461" d="M72.175,71.627c-.028,0-.059,0-.09-.005a.678.678,0,0,1-.582-.76l.108-.842a.677.677,0,1,1,1.342.173l-.108.845a.679.679,0,0,1-.67.59m.474-3.659a.5.5,0,0,1-.088-.005.677.677,0,0,1-.585-.757l.108-.845a.677.677,0,0,1,1.342.175l-.108.842a.677.677,0,0,1-.67.59m.474-3.656c-.028,0-.059,0-.088-.005a.68.68,0,0,1-.585-.76l.111-.842a.677.677,0,0,1,1.342.173l-.111.845a.677.677,0,0,1-.67.59m.474-3.659a.5.5,0,0,1-.088-.005.679.679,0,0,1-.585-.757l.111-.842a.677.677,0,1,1,1.342.173l-.111.845a.675.675,0,0,1-.67.587M74.071,57a.515.515,0,0,1-.088-.005.676.676,0,0,1-.585-.757l.108-.842a.677.677,0,0,1,1.342.17l-.108.845a.675.675,0,0,1-.67.59m.474-3.656c-.028,0-.057,0-.088-.005a.678.678,0,0,1-.585-.757l.108-.845a.685.685,0,0,1,.757-.585.676.676,0,0,1,.585.757l-.108.845a.677.677,0,0,1-.67.59m.474-3.659a.5.5,0,0,1-.088-.005.676.676,0,0,1-.585-.757l.108-.845a.677.677,0,0,1,1.342.175l-.108.845a.677.677,0,0,1-.67.587m.474-3.656c-.028,0-.059,0-.088-.005a.679.679,0,0,1-.585-.76l.111-.842a.676.676,0,1,1,1.34.175l-.108.842a.675.675,0,0,1-.67.59m.474-3.656c-.028,0-.059,0-.088-.005a.679.679,0,0,1-.585-.757l.111-.845a.677.677,0,1,1,1.342.175l-.111.842a.675.675,0,0,1-.67.59" transform="translate(112.709 63.328)" fill="#334d5c"/>
        <path id="Trazado_183462" data-name="Trazado 183462" d="M72.013,54.705c-.028,0-.059,0-.088-.005a.678.678,0,0,1-.585-.757l.052-.4a.673.673,0,0,1,.757-.587.68.68,0,0,1,.585.757l-.052.4a.677.677,0,0,1-.67.59" transform="translate(112.454 83.466)" fill="#334d5c"/>
        <path id="Trazado_183463" data-name="Trazado 183463" d="M40.765,67.782s-8.86-5.119-18.9,1.574S9.268,82.545,11.826,92,24.033,122.7,28.557,133.924c2.672,6.619,12.055,28.1,19.3,44.606,11.076,17.865,34.756,21.436,34.756,21.436l-14.1-38.286Z" transform="translate(17.184 103.903)" fill="#bcb3bd"/>
        <path id="Trazado_183464" data-name="Trazado 183464" d="M52.8,89.462,41.466,72.084A12.262,12.262,0,0,0,25,68.2l-4.3,2.517A12.265,12.265,0,0,0,15.882,86.7L69.871,197.3l7.1,1.775Z" transform="translate(23.061 104.859)" fill="#a098a0"/>
        <path id="Trazado_183465" data-name="Trazado 183465" d="M273.768,121.383a126.384,126.384,0,0,1-7.9,10.741v.028l-75.059,31.172c-13.232-2.705-27.086-6.928-43.348-6.982-.786-.026-1.569,0-2.355,0-.137,0-.27.028-.433.028-2.084.051-4.249.162-6.413.379l-85.207-64L138.879,77.79Z" transform="translate(83.631 122.63)" fill="#e8e8e8"/>
        <path id="Trazado_183466" data-name="Trazado 183466" d="M58.356,84.8l81.1,60.909a87.177,87.177,0,0,0-11.473,1.814L52.294,86.447Z" transform="translate(82.437 133.674)" fill="#12263f"/>
        <path id="Trazado_183467" data-name="Trazado 183467" d="M181.579,98.89A136.828,136.828,0,0,1,164.8,116.018c-.191.162-.353.3-.541.461l-.028.026-37.394,15.747h-.028a63.955,63.955,0,0,1-7.575-.242,118.786,118.786,0,0,1-12.72-1.948Z" transform="translate(167.917 155.892)" fill="#e5bba5"/>
        <path id="Trazado_183468" data-name="Trazado 183468" d="M181.579,98.88A135.227,135.227,0,0,1,164.8,116.034c-.191.165-.379.327-.569.49L126.841,132.27a64.413,64.413,0,0,1-7.6-.245,118.783,118.783,0,0,1-12.72-1.948Z" transform="translate(167.917 155.877)" fill="#12263f"/>
        <path id="Trazado_183469" data-name="Trazado 183469" d="M139.308,122.1l24.8-10.432L100.134,84.9l-19.88,4.924,1.77,4.133Z" transform="translate(126.514 133.833)" fill="#4e4b63"/>
        <path id="Trazado_183470" data-name="Trazado 183470" d="M127.979,95.289v4.627l-24.8,5.8Z" transform="translate(162.648 150.215)" fill="#322f41"/>
        <path id="Trazado_183471" data-name="Trazado 183471" d="M131.537,88.828c9.79,2.765,13.222,7.067,7.665,9.613s-17.994,2.365-27.784-.4-13.222-7.067-7.667-9.613,18-2.365,27.787.4" transform="translate(159.364 136.568)" fill="#12263f"/>
        <path id="Trazado_183472" data-name="Trazado 183472" d="M106.158,82.567,110.1,93.592l13.779,2.754-4.331-11.81Z" transform="translate(167.35 130.161)" fill="#12263f"/>
        <path id="Trazado_183473" data-name="Trazado 183473" d="M93.989,125.689l95.248,23.02a5.96,5.96,0,0,0,7.291-4.906l13.562-90.015a3.362,3.362,0,0,0-3.344-3.865L99.8,50.571a3.567,3.567,0,0,0-3.527,3.2l-6.807,65.513a5.959,5.959,0,0,0,4.527,6.408" transform="translate(140.98 78.701)" fill="#12263f"/>
        <path id="Trazado_183474" data-name="Trazado 183474" d="M189.648,134.133l12.413-82.371-104.324.629-6.325,60.234Z" transform="translate(144.103 81.6)" fill="#4adbd1"/>
        <path id="Trazado_183475" data-name="Trazado 183475" d="M104.365,109.533a15.821,15.821,0,0,0,7.678.675,44.809,44.809,0,0,0,12.591-3.836c1.214-.765,2.12-2.543,1.172-3.251s-10.344-2.244-11.5-1.734a48.893,48.893,0,0,0-4.826,2.239,25.318,25.318,0,0,0-2.3,3.354,33.029,33.029,0,0,1-2.819,2.553" transform="translate(164.523 159.667)" fill="#322f41"/>
        <path id="Trazado_183476" data-name="Trazado 183476" d="M103.239,109.786c.271,1.724,2.749,3.133,5.176,2.749s8.822-5.5,11.442-6.008a27.877,27.877,0,0,1,7.67-.384c1.152.255-2.427-3.517-4.666-4.282s-8.373-3.069-11.823-2.239-8.693,4.475-7.8,10.164" transform="translate(162.589 156.766)" fill="#4e4b63"/>
        <path id="Trazado_183477" data-name="Trazado 183477" d="M81.664,54.631s2.973,9.316,3.509,16.641c.67,5.864,3.215,6.039,4.589,6.665s.425,3.347-3.277,4.7c0,0,.675,14.191-2.77,16.615S68,98.956,66.375,99.8s-2.4,10.612-2.069,13.485c0,0-16.883-8.6-24.886-9.1l.371-14.75s-13-25.182-3.63-35.642,32.447-14.317,45.5.842" transform="translate(51.653 70.261)" fill="#ffa399"/>
        <path id="Trazado_183478" data-name="Trazado 183478" d="M88.106,100.532c-2.311.66-10.409,3.47-13.8,2.509-3.347-.946-7.923-12.032-6.276-27.073.356-3.244,3.123-6.979,5.459-9.811a10.089,10.089,0,0,1,7.8-3.648c10.661.036,14.58-2.582,9.984-10.78a10.108,10.108,0,0,0-1.038-1.515,25.277,25.277,0,0,0-11.156-7.631c-12.014-4.055-35.951-6.753-44.49,12.7,0,0-11.256,6.7-2.36,26.872C38.832,95.789,47.056,97.9,47.056,97.9s6.83-2.538,9.476-5.957a3.068,3.068,0,0,0,.183-3.352c-1.35-2.46-4.084-8.528.515-11.71,4.47-3.1,6.15,2.3,6.871,7.971a81.215,81.215,0,0,0,3.187,15.314c1.773,5.166,3.543,8.711,12.253,9.154,8.064.41,12.9.819,13.81-6.614.134-1.087-.853-3.427-5.246-2.172" transform="translate(45.406 62.566)" fill="#322f41"/>
        <path id="Trazado_183479" data-name="Trazado 183479" d="M64.948,103.548s25.393-2.216,33.81-3.4,12.99-2.806,16.092-1.183,8.809,1.528,12.006,1.28,7.776,1.082,9.942.541,1.87-3.1-1.525-3.839-6.889-.147-8.466-1.278-.1-3.79,2.216-4.086,7.284,1.232,9.744,2.46,4.921,2.363,6.25,2.363,2.262-1.87-.394-3a49.8,49.8,0,0,1-6.5-3.741,83.2,83.2,0,0,0,8.956.593c1.822-.2,2.558-2.02-.147-2.61s-12.156-1.574-13.289-1.968c0,0,1.577-.984.935-1.721s-1.919-.345-4.38.443-13.975,4.23-16.682,4.576-37.549-1.968-43.75-2.363-17.52-3.937-17.52-3.937Z" transform="translate(82.37 130.342)" fill="#ffa399"/>
        <path id="Trazado_183480" data-name="Trazado 183480" d="M126.2,189.37c-15.314,4.869-29.278,8.036-41.913,9.309a108.261,108.261,0,0,1-15.451.541,13.278,13.278,0,0,1-1.489-.108c-1.324-.028-2.651-.137-3.924-.271-.946-.108-1.894-.216-2.839-.353-1.085-.134-2.167-.3-3.221-.513-7.495-12.042-29.467-50.439-30.44-87.292,0-26.787,16.342-38.8,16.342-38.8l.6-4.707s17.319,1.381,31.5,11.609a14.994,14.994,0,0,1,2.355,7.683s24.811,23.811,33.47,49.411c6.387,18.859,12.338,42.426,15.018,53.494" transform="translate(42.439 105.893)" fill="#ffcb52"/>
        <path id="Trazado_183481" data-name="Trazado 183481" d="M64,94.068s17.715,10.826,22.441,12.795,44.193-5.707,45.865-6.1,3.741-7.186,3.939-8.564a2.72,2.72,0,0,1,2.066-2.607c1.18-.2,2.607,1.033,2.213,3.592,0,0,4.086-3.1,5.957-2.855s4.723,1.183,6.987.642,6.743.443,6.743.443a24.538,24.538,0,0,0,3.937-.788,1.711,1.711,0,0,1,2.46,1.229c.2.935-1.721,2.118-3.64,2.708a20.981,20.981,0,0,1,4.674.837c1.378.59,1.525,2.412,0,2.705s-6,1.577-7.577,3.594-4.037,4.97-6.84,6.642-7.629,2.069-12.846,3.741-37.008,16.242-49.7,20.57S57.6,124.581,57.6,124.581,60.158,94.365,64,94.068" transform="translate(90.802 141.2)" fill="#ffa399"/>
        <path id="Trazado_183482" data-name="Trazado 183482" d="M102.261,110.806a134.825,134.825,0,0,1-4.135,36.614s-34.547-5.609-59.94-33.661C27.457,99.388,35.33,83.64,46.159,78.325c6.861-3.367,24.6-.984,34.251,12.2a80.63,80.63,0,0,0,21.851,20.276" transform="translate(52.144 121.311)" fill="#ffcb52"/>
        <path id="Trazado_183483" data-name="Trazado 183483" d="M98.823,148.048a96.4,96.4,0,0,1-16.917-4.429c-2.757-.969-5.477-2.051-8.157-3.226l-3.973-1.873c-1.335-.6-2.6-1.342-3.9-2.015-2.618-1.322-5.081-2.922-7.6-4.424-2.409-1.67-4.918-3.21-7.2-5.076-1.147-.92-2.337-1.783-3.445-2.746l-3.3-2.932c-2.226-1.925-4.164-4.151-6.261-6.214l-.067-.08c-.657-.994-1.347-1.966-1.971-2.983-.52-1.077-1.162-2.1-1.577-3.228a22.216,22.216,0,0,1-1.118-3.429l-.4-1.762-.2-1.8a25.741,25.741,0,0,1-.072-3.622,26.117,26.117,0,0,1,.562-3.579,24.766,24.766,0,0,1,2.651-6.7,27.729,27.729,0,0,1,4.426-5.663,25.48,25.48,0,0,1,5.869-4.171c.672-.335,1.108-.456,1.675-.693l1.863-.479a24.691,24.691,0,0,1,3.6-.361,32.846,32.846,0,0,1,7.083.647,34,34,0,0,1,6.75,2.1,36.192,36.192,0,0,1,6.209,3.357,33.1,33.1,0,0,1,5.367,4.571,24.413,24.413,0,0,1,2.288,2.682c.747.925,1.381,1.824,2.082,2.757,1.376,1.816,2.839,3.545,4.359,5.258q2.288,2.543,4.784,4.908a82.208,82.208,0,0,0,10.726,8.595,71.957,71.957,0,0,1-11.225-8.041q-2.62-2.257-5.065-4.73a67.109,67.109,0,0,1-4.622-5.194,51.414,51.414,0,0,0-4.406-5.176,31.585,31.585,0,0,0-5.23-4.2,34.555,34.555,0,0,0-5.985-3.017A37.488,37.488,0,0,0,60,79.2a30.855,30.855,0,0,0-6.621-.546,23.065,23.065,0,0,0-3.254.356l-1.471.379c-.492.211-1.159.443-1.5.636a23.233,23.233,0,0,0-5.292,3.836,25.552,25.552,0,0,0-3.988,5.2,22.49,22.49,0,0,0-2.345,6.091,25.1,25.1,0,0,0-.533,3.218,23.357,23.357,0,0,0,.036,3.262l.165,1.626.35,1.595a20.352,20.352,0,0,0,.984,3.125c.368,1.033.956,1.976,1.417,2.973.569.943,1.206,1.852,1.8,2.783l-.062-.08c2.03,2.035,3.906,4.236,6.07,6.142l3.2,2.9c1.074.956,2.239,1.814,3.354,2.726,1.128.894,2.229,1.834,3.424,2.646l3.512,2.53c2.435,1.546,4.818,3.195,7.363,4.573,1.262.7,2.494,1.471,3.8,2.1l3.87,1.966c2.628,1.216,5.258,2.432,7.948,3.519s5.421,2.077,8.188,2.971c2.772.863,5.557,1.7,8.407,2.314" transform="translate(51.45 120.683)" fill="#cc9e40"/>
        <path id="Trazado_183484" data-name="Trazado 183484" d="M124.843,102.353,65.157,91.313A2.2,2.2,0,0,1,63.364,89l2.252-33.756A2.2,2.2,0,0,1,67.808,53.2h61.783a2.2,2.2,0,0,1,2.187,2.409l-4.349,44.8a2.2,2.2,0,0,1-2.587,1.95" transform="translate(99.881 83.861)" fill="#bdbab2"/>
        <path id="Trazado_183485" data-name="Trazado 183485" d="M130.144,59.33,64.167,57.867l.209-3.117A1.663,1.663,0,0,1,66.035,53.2h62.872a1.663,1.663,0,0,1,1.654,1.824Z" transform="translate(101.154 83.859)" fill="#38424d"/>
        <path id="Trazado_183486" data-name="Trazado 183486" d="M66.4,54.717a.949.949,0,0,1-.894.9.788.788,0,0,1-.727-.92.962.962,0,0,1,.9-.9.783.783,0,0,1,.724.92" transform="translate(102.11 84.807)" fill="#d2c6cd"/>
        <path id="Trazado_183487" data-name="Trazado 183487" d="M67.379,54.737a.965.965,0,0,1-.9.917.8.8,0,0,1-.721-.935.973.973,0,0,1,.9-.917.791.791,0,0,1,.724.935" transform="translate(103.656 84.815)" fill="#d2c6cd"/>
        <path id="Trazado_183488" data-name="Trazado 183488" d="M68.361,54.756a.973.973,0,0,1-.9.93.8.8,0,0,1-.724-.948.982.982,0,0,1,.9-.93.8.8,0,0,1,.716.948" transform="translate(105.203 84.824)" fill="#d2c6cd"/>
        <path id="Trazado_183489" data-name="Trazado 183489" d="M66.735,85.672l-.721-.126,2.095-29.6.742.023Z" transform="translate(104.065 88.202)" fill="#fff"/>
        <path id="Trazado_183490" data-name="Trazado 183490" d="M66.846,57.442l-1.232-.052.077-1.128,1.234.046Z" transform="translate(103.437 88.693)" fill="#fff"/>
        <path id="Trazado_183491" data-name="Trazado 183491" d="M66.778,58.415l-1.229-.067.077-1.126,1.232.059Z" transform="translate(103.332 90.207)" fill="#fff"/>
        <path id="Trazado_183492" data-name="Trazado 183492" d="M66.708,59.392l-1.226-.08.08-1.131,1.226.075Z" transform="translate(103.227 91.718)" fill="#fff"/>
        <path id="Trazado_183493" data-name="Trazado 183493" d="M66.64,60.366l-1.224-.1.08-1.131,1.224.09Z" transform="translate(103.123 93.23)" fill="#fff"/>
        <path id="Trazado_183494" data-name="Trazado 183494" d="M66.571,61.335l-1.221-.108.08-1.126,1.221.1Z" transform="translate(103.018 94.744)" fill="#fff"/>
        <path id="Trazado_183495" data-name="Trazado 183495" d="M66.5,62.311l-1.216-.124.077-1.128,1.219.116Z" transform="translate(102.915 96.255)" fill="#fff"/>
        <path id="Trazado_183496" data-name="Trazado 183496" d="M66.431,63.284l-1.213-.137.077-1.128,1.216.129Z" transform="translate(102.811 97.768)" fill="#fff"/>
        <path id="Trazado_183497" data-name="Trazado 183497" d="M66.362,64.257,65.151,64.1l.077-1.126,1.213.144Z" transform="translate(102.706 99.281)" fill="#fff"/>
        <path id="Trazado_183498" data-name="Trazado 183498" d="M66.293,65.231l-1.208-.165.077-1.128,1.211.16Z" transform="translate(102.601 100.792)" fill="#fff"/>
        <path id="Trazado_183499" data-name="Trazado 183499" d="M66.224,66.207l-1.206-.18L65.1,64.9l1.208.175Z" transform="translate(102.497 102.303)" fill="#fff"/>
        <path id="Trazado_183500" data-name="Trazado 183500" d="M66.155,67.177l-1.2-.2.077-1.126,1.206.188Z" transform="translate(102.392 103.816)" fill="#fff"/>
        <path id="Trazado_183501" data-name="Trazado 183501" d="M68.883,56.267l-.958.868a.157.157,0,0,0-.015.224l.8.879a.178.178,0,0,0,.24.015.167.167,0,0,0,.064-.116.157.157,0,0,0-.041-.119s-.538-.587-.7-.763l.84-.757a.172.172,0,0,0,.057-.108.165.165,0,0,0-.049-.124.179.179,0,0,0-.245,0" transform="translate(106.991 88.624)" fill="#fff"/>
        <path id="Trazado_183502" data-name="Trazado 183502" d="M70.012,56.316a.183.183,0,0,0-.064.121.177.177,0,0,0,.036.116s.567.652.724.835L69.9,58.1a.178.178,0,0,0-.057.113.167.167,0,0,0,.044.124.182.182,0,0,0,.245.008l.93-.827a.166.166,0,0,0,.018-.229l-.824-.958a.179.179,0,0,0-.245-.018" transform="translate(110.103 88.716)" fill="#fff"/>
        <path id="Trazado_183503" data-name="Trazado 183503" d="M70.492,56.337l-1.783,1.551a.149.149,0,0,0-.013.229.176.176,0,0,0,.242.008l1.785-1.546a.162.162,0,0,0,.013-.234.176.176,0,0,0-.245-.008" transform="translate(108.219 88.739)" fill="#fff"/>
        <path id="Trazado_183504" data-name="Trazado 183504" d="M68.088,66.964l-.935.752a.162.162,0,0,0-.018.227l.783.987a.175.175,0,0,0,.234.046.14.14,0,0,0,.062-.108.156.156,0,0,0-.041-.121s-.523-.662-.675-.858c.178-.144.822-.66.822-.66a.152.152,0,0,0,.054-.106A.2.2,0,0,0,68.328,67a.178.178,0,0,0-.24-.031" transform="translate(105.774 105.512)" fill="#fff"/>
        <path id="Trazado_183505" data-name="Trazado 183505" d="M69.19,67.22a.168.168,0,0,0-.062.116.185.185,0,0,0,.034.121l.706.933c-.18.144-.788.624-.788.624a.138.138,0,0,0-.054.106.166.166,0,0,0,.041.129.174.174,0,0,0,.24.036l.907-.716a.168.168,0,0,0,.018-.232l-.8-1.067a.178.178,0,0,0-.237-.049" transform="translate(108.81 105.926)" fill="#fff"/>
        <path id="Trazado_183506" data-name="Trazado 183506" d="M69.659,67.175l-1.742,1.34a.156.156,0,0,0-.015.232.176.176,0,0,0,.237.039l1.744-1.337a.167.167,0,0,0,.015-.237.176.176,0,0,0-.24-.036" transform="translate(106.973 105.845)" fill="#fff"/>
        <path id="Trazado_183507" data-name="Trazado 183507" d="M72.9,58.563l-5.6-.294.075-1.036,5.606.268Z" transform="translate(106.093 90.224)" fill="#fff"/>
        <path id="Trazado_183508" data-name="Trazado 183508" d="M73.135,64.352l-6.219-.729.075-1.038,6.225.7Z" transform="translate(105.487 98.66)" fill="#fff"/>
        <path id="Trazado_183509" data-name="Trazado 183509" d="M70.859,67.881l-4.2-.678.075-1.041,4.2.66Z" transform="translate(105.083 104.301)" fill="#fff"/>
        <path id="Trazado_183510" data-name="Trazado 183510" d="M76.706,59.769,67.771,59.2l.077-1.046,8.943.52Z" transform="translate(106.836 91.683)" fill="#fff"/>
        <path id="Trazado_183511" data-name="Trazado 183511" d="M75.457,65.642,67.38,64.606l.077-1.046,8.082,1Z" transform="translate(106.219 100.197)" fill="#fff"/>
        <path id="Trazado_183512" data-name="Trazado 183512" d="M75.225,66.568l-7.907-1.1.075-1.041,7.915,1.062Z" transform="translate(106.122 101.564)" fill="#fff"/>
        <path id="Trazado_183513" data-name="Trazado 183513" d="M71.48,67.006l-4.228-.634.077-1.046,4.23.616Z" transform="translate(106.018 102.982)" fill="#fff"/>
        <path id="Trazado_183514" data-name="Trazado 183514" d="M87.285,69.394l-18-2.7.08-1.069,18.019,2.615Z" transform="translate(109.22 103.448)" fill="#fff"/>
        <path id="Trazado_183515" data-name="Trazado 183515" d="M83.862,67.8,70.748,65.972l.082-1.085,13.127,1.76Z" transform="translate(111.529 102.289)" fill="#fff"/>
        <path id="Trazado_183516" data-name="Trazado 183516" d="M80.467,67.365l-4.238-.59.1-1.152,4.241.567Z" transform="translate(120.169 103.45)" fill="#fff"/>
        <path id="Trazado_183517" data-name="Trazado 183517" d="M87.136,67.228,78.7,66.143l.1-1.185L87.247,66Z" transform="translate(124.057 102.401)" fill="#fff"/>
        <path id="Trazado_183518" data-name="Trazado 183518" d="M90,67.536l-19.156-2.46.085-1.087,19.174,2.368Z" transform="translate(111.686 100.873)" fill="#fff"/>
        <path id="Trazado_183519" data-name="Trazado 183519" d="M76.722,59.8,71.6,59.475l.085-1.092,5.13.3Z" transform="translate(112.868 92.035)" fill="#fff"/>
        <path id="Trazado_183520" data-name="Trazado 183520" d="M73.521,61.525l-5.882-.5.077-1.043,5.885.471Z" transform="translate(106.628 94.557)" fill="#fff"/>
        <path id="Trazado_183521" data-name="Trazado 183521" d="M79.847,62.077l-9.553-.8.082-1.077,9.561.755Z" transform="translate(110.812 94.894)" fill="#fff"/>
        <path id="Trazado_183522" data-name="Trazado 183522" d="M83.125,60.222l-9.18-.58.09-1.123,9.188.538Z" transform="translate(116.569 92.251)" fill="#fff"/>
        <path id="Trazado_183523" data-name="Trazado 183523" d="M77.863,60.88,67.7,60.125l.077-1.043,10.167.706Z" transform="translate(106.731 93.137)" fill="#fff"/>
        <path id="Trazado_183524" data-name="Trazado 183524" d="M81.992,61.219l-9.937-.737.088-1.1,9.945.69Z" transform="translate(113.588 93.614)" fill="#fff"/>
        <path id="Trazado_183525" data-name="Trazado 183525" d="M83.24,61.343l-6.946-.515.1-1.149,6.951.482Z" transform="translate(120.271 94.079)" fill="#fff"/>
        <path id="Trazado_183526" data-name="Trazado 183526" d="M79.563,63.074,67.575,61.925l.075-1.043,12,1.092Z" transform="translate(106.526 95.975)" fill="#fff"/>
        <path id="Trazado_183527" data-name="Trazado 183527" d="M78.98,63.057l-6.395-.613.088-1.105,6.4.582Z" transform="translate(114.425 96.695)" fill="#fff"/>
        <path id="Trazado_183528" data-name="Trazado 183528" d="M79.477,64.053l-11.965-1.27.075-1.046,11.978,1.214Z" transform="translate(106.428 97.324)" fill="#fff"/>
        <path id="Trazado_183529" data-name="Trazado 183529" d="M83.61,64.531l-11.1-1.18.088-1.108L83.708,63.37Z" transform="translate(114.311 98.122)" fill="#fff"/>
        <path id="Trazado_183530" data-name="Trazado 183530" d="M87.889,63.933l-12.408-1.19.1-1.141,12.418,1.131Z" transform="translate(118.99 97.11)" fill="#fff"/>
        <path id="Trazado_183531" data-name="Trazado 183531" d="M72.784,58.576l-2.893-.152.082-1.067,2.893.137Z" transform="translate(110.177 90.419)" fill="#fff"/>
        <path id="Trazado_183532" data-name="Trazado 183532" d="M170.376,72.989l-49.277.34c-.9-.005-1.435-.835-1.239-1.93L125.7,38.648a2.628,2.628,0,0,1,2.051-2.164l50.9-5.235a1.449,1.449,0,0,1,1.595,1.811l-7.513,37.83a2.7,2.7,0,0,1-2.363,2.1" transform="translate(188.886 49.249)" fill="#fffaf3"/>
        <path id="Trazado_183533" data-name="Trazado 183533" d="M176.315,36.169l-54.386,5.019.531-2.991a1.987,1.987,0,0,1,1.551-1.639l51.8-5.328a1.1,1.1,0,0,1,1.208,1.371Z" transform="translate(192.211 49.223)" fill="#38424d"/>
        <path id="Trazado_183534" data-name="Trazado 183534" d="M123.884,34.642a1.155,1.155,0,0,1-.843.946c-.371.039-.593-.319-.5-.8a1.164,1.164,0,0,1,.845-.946c.371-.041.593.317.495.8" transform="translate(193.147 53.346)" fill="#d2c6cd"/>
        <path id="Trazado_183535" data-name="Trazado 183535" d="M124.7,34.56a1.164,1.164,0,0,1-.848.953c-.368.039-.587-.322-.492-.809a1.174,1.174,0,0,1,.848-.953c.368-.041.59.322.492.809" transform="translate(194.425 53.201)" fill="#d2c6cd"/>
        <path id="Trazado_183536" data-name="Trazado 183536" d="M125.505,34.479a1.171,1.171,0,0,1-.848.961c-.371.039-.59-.327-.49-.817a1.184,1.184,0,0,1,.85-.964c.368-.041.587.327.487.819" transform="translate(195.703 53.057)" fill="#d2c6cd"/>
        <path id="Trazado_183537" data-name="Trazado 183537" d="M124.944,35.909l-.891.917a.168.168,0,0,0-.039.211l.569.732c.044.057.131.049.2-.013a.235.235,0,0,0,.067-.116.124.124,0,0,0-.023-.106s-.381-.49-.492-.634c.17-.175.783-.8.783-.8a.2.2,0,0,0,.057-.108.128.128,0,0,0-.026-.108c-.046-.054-.137-.041-.2.026" transform="translate(195.462 56.515)" fill="#614bee"/>
        <path id="Trazado_183538" data-name="Trazado 183538" d="M125.933,35.778a.22.22,0,0,0-.067.121.151.151,0,0,0,.018.1s.4.541.51.693c-.173.173-.747.752-.747.752a.223.223,0,0,0-.059.111.131.131,0,0,0,.023.111.14.14,0,0,0,.2-.021l.861-.866a.18.18,0,0,0,.041-.216l-.58-.8a.134.134,0,0,0-.2.01" transform="translate(197.974 56.321)" fill="#614bee"/>
        <path id="Trazado_183539" data-name="Trazado 183539" d="M126.317,35.856l-1.651,1.639a.16.16,0,0,0-.036.214c.044.059.137.046.2-.018l1.651-1.636a.169.169,0,0,0,.036-.216c-.044-.057-.134-.049-.2.018" transform="translate(196.424 56.436)" fill="#614bee"/>
        <path id="Trazado_183540" data-name="Trazado 183540" d="M123.076,46.088l-.876.871a.181.181,0,0,0-.039.219l.546.8a.122.122,0,0,0,.193.005.2.2,0,0,0,.064-.113.141.141,0,0,0-.021-.108s-.366-.541-.472-.7c.165-.165.768-.763.768-.763a.2.2,0,0,0,.057-.108.152.152,0,0,0-.023-.116.133.133,0,0,0-.2.01" transform="translate(192.543 72.576)" fill="#614bee"/>
        <path id="Trazado_183541" data-name="Trazado 183541" d="M124.045,46.064a.24.24,0,0,0-.067.119.174.174,0,0,0,.018.108s.381.6.49.76c-.17.165-.737.719-.737.719a.2.2,0,0,0-.057.111.143.143,0,0,0,.021.113c.044.062.131.057.2-.005l.845-.827a.189.189,0,0,0,.041-.222l-.557-.868a.129.129,0,0,0-.2-.008" transform="translate(194.985 72.552)" fill="#614bee"/>
        <path id="Trazado_183542" data-name="Trazado 183542" d="M124.417,46.111,122.8,47.667a.169.169,0,0,0-.039.222.124.124,0,0,0,.2,0l1.623-1.556a.185.185,0,0,0,.039-.224.127.127,0,0,0-.2.005" transform="translate(193.475 72.611)" fill="#614bee"/>
        <path id="Trazado_183543" data-name="Trazado 183543" d="M128.029,37.755l-4.625.376.178-.982,4.63-.389Z" transform="translate(194.538 57.95)" fill="#614bee"/>
        <path id="Trazado_183544" data-name="Trazado 183544" d="M127.608,42.93l-5.13.214.18-.994,5.135-.229Z" transform="translate(193.078 66.083)" fill="#614bee"/>
        <path id="Trazado_183545" data-name="Trazado 183545" d="M125.313,46.437l-3.46.044.183-1,3.463-.054Z" transform="translate(192.092 71.608)" fill="#614bee"/>
        <path id="Trazado_183546" data-name="Trazado 183546" d="M131.067,38.515l-7.374.549.18-.989,7.381-.572Z" transform="translate(194.993 59.12)" fill="#12263f"/>
        <path id="Trazado_183547" data-name="Trazado 183547" d="M129.418,43.786l-6.66.232.18-1,6.668-.252Z" transform="translate(193.518 67.417)" fill="#8e7af6"/>
        <path id="Trazado_183548" data-name="Trazado 183548" d="M129.127,44.633l-6.521.183.18-1,6.529-.2Z" transform="translate(193.279 68.755)" fill="#12263f"/>
        <path id="Trazado_183549" data-name="Trazado 183549" d="M125.934,45.537l-3.486.072.183-1,3.488-.082Z" transform="translate(193.029 70.19)" fill="#614bee"/>
        <path id="Trazado_183550" data-name="Trazado 183550" d="M138.976,45.42l-14.853.358.188-1.018,14.866-.4Z" transform="translate(195.67 69.932)" fill="#614bee"/>
        <path id="Trazado_183551" data-name="Trazado 183551" d="M136.258,44.517l-10.824.332.191-1.02,10.834-.366Z" transform="translate(197.737 68.516)" fill="#12263f"/>
        <path id="Trazado_183552" data-name="Trazado 183552" d="M133.457,44.468l-3.5.116.2-1.056,3.5-.124Z" transform="translate(204.869 68.422)" fill="#12263f"/>
        <path id="Trazado_183553" data-name="Trazado 183553" d="M139.064,43.464l-6.969.281.2-1.069,6.977-.3Z" transform="translate(208.237 66.807)" fill="#8e7af6"/>
        <path id="Trazado_183554" data-name="Trazado 183554" d="M141.427,43.575l-15.809.593.188-1.023,15.824-.636Z" transform="translate(198.027 67.011)" fill="#8e7af6"/>
        <path id="Trazado_183555" data-name="Trazado 183555" d="M131.08,38.381l-4.228.312.188-1.015,4.23-.322Z" transform="translate(199.972 58.888)" fill="#12263f"/>
        <path id="Trazado_183556" data-name="Trazado 183556" d="M128.233,40.339l-4.854.3.18-.992,4.859-.314Z" transform="translate(194.497 62.003)" fill="#614bee"/>
        <path id="Trazado_183557" data-name="Trazado 183557" d="M133.453,40.147l-7.884.49.186-1.01,7.892-.513Z" transform="translate(197.95 61.659)" fill="#614bee"/>
        <path id="Trazado_183558" data-name="Trazado 183558" d="M136.361,38.159l-7.572.549.191-1.028,7.58-.567Z" transform="translate(203.026 58.506)" fill="#12263f"/>
        <path id="Trazado_183559" data-name="Trazado 183559" d="M131.918,39.384l-8.384.569.18-.992,8.391-.593Z" transform="translate(194.743 60.485)" fill="#8e7af6"/>
        <path id="Trazado_183560" data-name="Trazado 183560" d="M135.323,39.162l-8.2.549.188-1.018,8.206-.569Z" transform="translate(200.403 60.099)" fill="#8e7af6"/>
        <path id="Trazado_183561" data-name="Trazado 183561" d="M136.353,39l-5.73.381.2-1.043,5.735-.394Z" transform="translate(205.916 59.823)" fill="#8e7af6"/>
        <path id="Trazado_183562" data-name="Trazado 183562" d="M133.116,41.109l-9.893.544.18-.995,9.9-.572Z" transform="translate(194.251 63.193)" fill="#12263f"/>
        <path id="Trazado_183563" data-name="Trazado 183563" d="M132.635,40.991l-5.277.291.191-1.025,5.282-.307Z" transform="translate(200.77 62.979)" fill="#12263f"/>
        <path id="Trazado_183564" data-name="Trazado 183564" d="M132.947,41.953l-9.873.479.183-1,9.881-.51Z" transform="translate(194.017 64.515)" fill="#614bee"/>
        <path id="Trazado_183565" data-name="Trazado 183565" d="M136.358,41.778l-9.157.453.191-1.028,9.167-.479Z" transform="translate(200.523 64.198)" fill="#614bee"/>
        <path id="Trazado_183566" data-name="Trazado 183566" d="M139.988,40.767l-10.241.569.2-1.043,10.249-.593Z" transform="translate(204.536 62.585)" fill="#12263f"/>
        <path id="Trazado_183567" data-name="Trazado 183567" d="M127.932,37.659l-2.388.191.186-1,2.388-.2Z" transform="translate(197.91 57.783)" fill="#614bee"/>
        <path id="Trazado_183568" data-name="Trazado 183568" d="M95.7,43.513l-.4,1.34-6.451-2.713.3-1.023,8.167-3.007L96.9,39.488,91.1,41.6Z" transform="translate(140.069 60.077)" fill="#334d5c"/>
        <path id="Trazado_183569" data-name="Trazado 183569" d="M92.073,46.662,99.032,37.6l1.461-.152L93.447,46.76Z" transform="translate(145.146 59.027)" fill="#334d5c"/>
        <path id="Trazado_183570" data-name="Trazado 183570" d="M97,39.441l.51-1.667,6.3,3.151-.513,1.659-8.283,3.342.5-1.626,5.954-2.507Z" transform="translate(149.787 59.547)" fill="#334d5c"/>
        <path id="Trazado_183571" data-name="Trazado 183571" d="M110.985,55.161a.8.8,0,0,1-.111-.008.654.654,0,0,1-.533-.757l.067-.386a.654.654,0,1,1,1.288.222l-.067.386a.652.652,0,0,1-.644.544" transform="translate(173.928 84.282)" fill="#334d5c"/>
        <path id="Trazado_183572" data-name="Trazado 183572" d="M165.689,66.084a.512.512,0,0,1-.108-.01.65.65,0,0,1-.536-.752l.129-.775a.659.659,0,0,1,.752-.536.65.65,0,0,1,.536.752l-.129.775a.654.654,0,0,1-.644.546M76.6,64.4a.5.5,0,0,1-.085-.008.655.655,0,0,1-.564-.734l.106-.778a.655.655,0,0,1,1.3.173l-.106.778a.655.655,0,0,1-.649.569m89.654-1.677a.828.828,0,0,1-.111-.008.652.652,0,0,1-.533-.755l.129-.773a.637.637,0,0,1,.755-.536.65.65,0,0,1,.533.752l-.129.773a.654.654,0,0,1-.644.546m-89.2-1.7a.5.5,0,0,1-.088-.005.652.652,0,0,1-.562-.734l.106-.778a.639.639,0,0,1,.734-.562.655.655,0,0,1,.564.734l-.106.778a.655.655,0,0,1-.649.567m89.77-1.657a.7.7,0,0,1-.106-.008.654.654,0,0,1-.538-.755l.131-.776a.653.653,0,1,1,1.288.219l-.131.773a.654.654,0,0,1-.644.546M77.5,57.656a.5.5,0,0,1-.088-.005.656.656,0,0,1-.562-.737l.1-.778a.647.647,0,0,1,.737-.562.656.656,0,0,1,.562.737l-.1.778a.657.657,0,0,1-.649.567m89.886-1.639a.49.49,0,0,1-.106-.01.655.655,0,0,1-.538-.755l.131-.773a.653.653,0,1,1,1.288.216l-.131.776a.652.652,0,0,1-.644.546M77.952,54.284a.5.5,0,0,1-.088-.005.657.657,0,0,1-.562-.737l.106-.778a.646.646,0,0,1,.737-.559.654.654,0,0,1,.562.734l-.106.778a.657.657,0,0,1-.649.567m90-1.621a.538.538,0,0,1-.111-.01.652.652,0,0,1-.533-.755l.131-.776a.654.654,0,1,1,1.288.222l-.131.776a.654.654,0,0,1-.644.544M78.462,50.921a.643.643,0,0,1-.2-.028.654.654,0,0,1-.428-.822,5.04,5.04,0,0,1,.332-.827.654.654,0,0,1,1.167.593,4.024,4.024,0,0,0-.252.626.652.652,0,0,1-.624.459M168.106,49.3a.654.654,0,0,1-.631-.482,3.77,3.77,0,0,0-.232-.631.654.654,0,1,1,1.185-.554,5.22,5.22,0,0,1,.309.842.653.653,0,0,1-.459.8.662.662,0,0,1-.173.023m-87.58-.979A.656.656,0,0,1,80.2,47.1a4.9,4.9,0,0,1,.814-.381.654.654,0,0,1,.448,1.229,3.9,3.9,0,0,0-.6.283.662.662,0,0,1-.33.09m3.293-.639a.654.654,0,0,1-.013-1.309l.783-.015H84.6a.654.654,0,0,1,.01,1.309l-.783.015Zm3.4-.075a.653.653,0,0,1-.013-1.306l.786-.018H88a.654.654,0,0,1,.013,1.309l-.786.015Zm3.4-.072a.654.654,0,0,1-.013-1.309L91.4,46.2h.013a.654.654,0,0,1,.013,1.309l-.786.018Zm3.4-.075a.654.654,0,0,1-.015-1.309l.788-.018a.686.686,0,0,1,.67.639.654.654,0,0,1-.639.67l-.788.018Zm3.4-.072a.654.654,0,0,1-.013-1.309l.783-.018a.655.655,0,1,1,.031,1.309l-.786.018Zm3.4-.075A.654.654,0,0,1,100.817,46l.783-.018h.013a.654.654,0,0,1,.013,1.309l-.783.018Zm3.4-.075a.654.654,0,0,1-.013-1.309L105,45.91h.013a.654.654,0,0,1,.013,1.309l-.786.015Zm3.4-.075a.654.654,0,0,1-.013-1.309l.783-.015h.013a.654.654,0,0,1,.013,1.309l-.783.015Zm3.4-.075a.653.653,0,0,1-.013-1.306l.786-.018h.013a.654.654,0,0,1,.013,1.309l-.786.015Zm3.4-.072a.654.654,0,0,1-.015-1.309l.786-.018h.013a.654.654,0,0,1,.013,1.309l-.786.018Zm3.4-.072a.656.656,0,0,1-.015-1.311l.783-.015a.684.684,0,0,1,.67.639.657.657,0,0,1-.639.67l-.783.018Zm3.4-.075a.654.654,0,0,1-.015-1.309l.786-.018a.655.655,0,1,1,.031,1.309l-.786.018Zm3.4-.075a.655.655,0,0,1-.015-1.309l.783-.018a.635.635,0,0,1,.67.639.657.657,0,0,1-.639.67l-.783.018Zm3.4-.075a.654.654,0,0,1-.013-1.309l.786-.015h.013a.654.654,0,0,1,.013,1.309l-.786.015Zm3.4-.075a.653.653,0,0,1-.01-1.306l.783-.018h.013a.654.654,0,0,1,.013,1.309l-.786.015Zm34.679-.015a.659.659,0,0,1-.348-.1,3.472,3.472,0,0,0-.593-.3.655.655,0,1,1,.487-1.216,5.1,5.1,0,0,1,.8.41.653.653,0,0,1-.348,1.208m-31.275-.057a.654.654,0,0,1-.013-1.309l.783-.018h.013a.654.654,0,0,1,.013,1.309l-.783.018Zm3.4-.075a.654.654,0,0,1-.013-1.309l.788-.018h.013a.654.654,0,0,1,.013,1.309l-.788.018Zm3.4-.072a.655.655,0,0,1-.015-1.309l.786-.018a.63.63,0,0,1,.67.639.657.657,0,0,1-.639.67l-.786.018Zm3.4-.075a.654.654,0,0,1-.015-1.309l.788-.018a.611.611,0,0,1,.667.639.655.655,0,0,1-.639.67l-.786.018Zm3.4-.075a.654.654,0,0,1-.654-.639.661.661,0,0,1,.639-.67l.786-.018a.707.707,0,0,1,.67.639.656.656,0,0,1-.639.67l-.786.018Zm3.4-.075a.654.654,0,0,1-.013-1.309l.783-.015h.013a.654.654,0,0,1,.013,1.309l-.783.015Zm3.4-.075a.653.653,0,0,1-.013-1.306l.786-.018h.013a.654.654,0,0,1,.013,1.309l-.786.015Zm3.4-.072a.654.654,0,0,1-.013-1.309l.783-.018h.013a.654.654,0,0,1,.013,1.309l-.783.018Zm3.4-.075a.654.654,0,0,1-.013-1.309l.786-.015h.013a.653.653,0,0,1,.01,1.306l-.783.018Z" transform="translate(119.724 70.392)" fill="#334d5c"/>
        <path id="Trazado_183573" data-name="Trazado 183573" d="M76.447,54.528c-.028,0-.057,0-.085-.005a.654.654,0,0,1-.564-.734l.052-.389a.655.655,0,1,1,1.3.17l-.052.389a.655.655,0,0,1-.649.569" transform="translate(119.48 83.28)" fill="#334d5c"/>
        <path id="Trazado_183574" data-name="Trazado 183574" d="M175.719,118.014l-82.27-15.35,5.524-48.98h85.955Z" transform="translate(147.314 84.628)" fill="#12263f"/>
        <path id="Trazado_183575" data-name="Trazado 183575" d="M180.826,61.64l-85.5-1.9.683-6.057h85.955Z" transform="translate(150.277 84.628)" fill="#a6a6a6"/>
        <path id="Trazado_183576" data-name="Trazado 183576" d="M100.067,57.922,96,57.847l.415-3.658,4.078.021Z" transform="translate(151.339 85.424)" fill="#fff"/>
        <path id="Trazado_183577" data-name="Trazado 183577" d="M152.686,58.97l-51.995-.938.456-3.821,52.16.245Z" transform="translate(158.731 85.459)" fill="#fff"/>
        <path id="Trazado_183578" data-name="Trazado 183578" d="M97.758,56.462l-1.208-.982,1.43-.953Z" transform="translate(152.204 85.958)"/>
        <path id="Trazado_183579" data-name="Trazado 183579" d="M98.259,57.937l4.071.075.448-3.792L98.695,54.2Z" transform="translate(154.898 85.44)" fill="#fff"/>
        <path id="Trazado_183580" data-name="Trazado 183580" d="M98.9,56.511l1.432-.969-1.2-1Z" transform="translate(155.913 85.982)"/>
        <path id="Trazado_183581" data-name="Trazado 183581" d="M125.786,56.408a2.181,2.181,0,0,1-2.025,1.953,1.623,1.623,0,0,1-1.481-1.992,2.2,2.2,0,0,1,2.03-1.953,1.608,1.608,0,0,1,1.476,1.992" transform="translate(192.73 85.783)" fill="#f6f6f6"/>
        <path id="Trazado_183582" data-name="Trazado 183582" d="M127.908,56.45a2.21,2.21,0,0,1-2.035,1.984,1.632,1.632,0,0,1-1.469-2.022,2.22,2.22,0,0,1,2.033-1.984,1.623,1.623,0,0,1,1.471,2.023" transform="translate(196.077 85.8)" fill="#fecb15"/>
        <path id="Trazado_183583" data-name="Trazado 183583" d="M130.031,56.492A2.234,2.234,0,0,1,128,58.507a1.648,1.648,0,0,1-1.469-2.053,2.254,2.254,0,0,1,2.048-2.015,1.635,1.635,0,0,1,1.456,2.053" transform="translate(199.422 85.819)" fill="#26a659"/>
        <path id="Trazado_183584" data-name="Trazado 183584" d="M97.91,95.812l-.93-.162,4.488-38.394.961.031Z" transform="translate(152.881 90.26)" fill="#e0e0e0"/>
        <path id="Trazado_183585" data-name="Trazado 183585" d="M98.7,59.19,97.1,59.123l.17-1.461,1.595.057Z" transform="translate(153.078 90.9)" fill="#e0e0e0"/>
        <path id="Trazado_183586" data-name="Trazado 183586" d="M98.551,60.454l-1.59-.085.167-1.463,1.592.077Z" transform="translate(152.852 92.86)" fill="#e0e0e0"/>
        <path id="Trazado_183587" data-name="Trazado 183587" d="M98.4,61.721l-1.585-.1.167-1.469,1.587.1Z" transform="translate(152.627 94.821)" fill="#e0e0e0"/>
        <path id="Trazado_183588" data-name="Trazado 183588" d="M98.255,62.984l-1.579-.124.167-1.466,1.582.116Z" transform="translate(152.401 96.783)" fill="#e0e0e0"/>
        <path id="Trazado_183589" data-name="Trazado 183589" d="M98.108,64.24,96.531,64.1l.17-1.458,1.577.131Z" transform="translate(152.174 98.748)" fill="#e0e0e0"/>
        <path id="Trazado_183590" data-name="Trazado 183590" d="M97.96,65.507l-1.572-.16.167-1.463,1.574.149Z" transform="translate(151.948 100.708)" fill="#e0e0e0"/>
        <rect id="Rectángulo_37155" data-name="Rectángulo 37155" width="1.48" height="1.577" transform="translate(247.968 169.262) rotate(-83.526)" fill="#e0e0e0"/>
        <path id="Trazado_183591" data-name="Trazado 183591" d="M97.665,68.032l-1.564-.2.17-1.463,1.564.188Z" transform="translate(151.496 104.631)" fill="#e0e0e0"/>
        <path id="Trazado_183592" data-name="Trazado 183592" d="M97.517,69.295l-1.559-.214.167-1.463,1.561.206Z" transform="translate(151.27 106.593)" fill="#e0e0e0"/>
        <path id="Trazado_183593" data-name="Trazado 183593" d="M97.369,70.561l-1.554-.234.167-1.466,1.556.227Z" transform="translate(151.045 108.553)" fill="#e0e0e0"/>
        <path id="Trazado_183594" data-name="Trazado 183594" d="M97.222,71.819l-1.551-.252.17-1.461,1.551.242Z" transform="translate(150.818 110.517)" fill="#e0e0e0"/>
        <path id="Trazado_183595" data-name="Trazado 183595" d="M101.409,57.666l-1.293,1.126a.2.2,0,0,0-.036.291l.989,1.139a.233.233,0,0,0,.314.021.228.228,0,0,0,.088-.152.18.18,0,0,0-.049-.149l-.855-.992,1.136-.982a.222.222,0,0,0,.08-.142.208.208,0,0,0-.057-.16.234.234,0,0,0-.317,0" transform="translate(157.696 90.808)" fill="#fff"/>
        <path id="Trazado_183596" data-name="Trazado 183596" d="M102.9,57.731a.248.248,0,0,0-.09.157.214.214,0,0,0,.041.149s.693.845.889,1.082l-1.09.93a.233.233,0,0,0-.08.149.205.205,0,0,0,.049.157.231.231,0,0,0,.317.01l1.255-1.072a.217.217,0,0,0,.036-.3l-1.013-1.242a.227.227,0,0,0-.314-.023" transform="translate(161.694 90.926)" fill="#fff"/>
        <path id="Trazado_183597" data-name="Trazado 183597" d="M103.516,57.758l-2.406,2.01a.2.2,0,0,0-.031.3.227.227,0,0,0,.314.01L103.8,58.07a.21.21,0,0,0,.031-.3.228.228,0,0,0-.317-.01" transform="translate(159.258 90.958)" fill="#fff"/>
        <path id="Trazado_183598" data-name="Trazado 183598" d="M99.734,71.543l-1.26.976a.208.208,0,0,0-.033.294l.956,1.28a.22.22,0,0,0,.3.059.184.184,0,0,0,.088-.142.2.2,0,0,0-.046-.157l-.827-1.11,1.108-.855a.209.209,0,0,0,.075-.137.245.245,0,0,0-.052-.17.232.232,0,0,0-.309-.039" transform="translate(155.113 112.715)" fill="#fff"/>
        <path id="Trazado_183599" data-name="Trazado 183599" d="M101.184,71.876a.222.222,0,0,0-.088.149.239.239,0,0,0,.039.157l.858,1.211-1.061.806a.211.211,0,0,0-.077.139.226.226,0,0,0,.049.167.22.22,0,0,0,.307.046l1.221-.93a.222.222,0,0,0,.036-.3l-.976-1.381a.227.227,0,0,0-.307-.064" transform="translate(158.988 113.253)" fill="#fff"/>
        <path id="Trazado_183600" data-name="Trazado 183600" d="M101.779,71.817l-2.342,1.737a.206.206,0,0,0-.031.3.225.225,0,0,0,.307.052l2.342-1.736a.219.219,0,0,0,.034-.307.225.225,0,0,0-.309-.046" transform="translate(156.625 113.147)" fill="#fff"/>
        <path id="Trazado_183601" data-name="Trazado 183601" d="M106.484,60.644l-7.25-.381.16-1.342,7.258.345Z" transform="translate(156.434 92.884)" fill="#f4a338"/>
        <path id="Trazado_183602" data-name="Trazado 183602" d="M106.44,68.154l-8.023-.946.157-1.345,8.033.907Z" transform="translate(155.146 103.828)" fill="#f4a338"/>
        <path id="Trazado_183603" data-name="Trazado 183603" d="M103.277,72.733l-5.408-.879.16-1.35,5.413.853Z" transform="translate(154.283 111.145)" fill="#f4a338"/>
        <path id="Trazado_183604" data-name="Trazado 183604" d="M111.347,62.21l-11.555-.732.16-1.358,11.571.678Z" transform="translate(157.313 94.775)" fill="#17bb99"/>
        <path id="Trazado_183605" data-name="Trazado 183605" d="M109.375,69.828,98.961,68.483l.16-1.355,10.427,1.3Z" transform="translate(156.004 105.821)" fill="#fbdd82"/>
        <path id="Trazado_183606" data-name="Trazado 183606" d="M109.02,71.03,98.828,69.6l.16-1.35,10.205,1.376Z" transform="translate(155.794 107.594)" fill="#89c0c8"/>
        <path id="Trazado_183607" data-name="Trazado 183607" d="M104.135,71.6l-5.447-.822.162-1.355,5.452.8Z" transform="translate(155.575 109.435)" fill="#17bb99"/>
        <path id="Trazado_183608" data-name="Trazado 183608" d="M124.5,74.7l-23.19-3.5.17-1.389L124.692,73.2Z" transform="translate(159.701 110.038)" fill="#fbdd82"/>
        <path id="Trazado_183609" data-name="Trazado 183609" d="M120.152,72.621l-16.9-2.365.173-1.407,16.925,2.283Z" transform="translate(162.763 108.535)" fill="#fbdd82"/>
        <path id="Trazado_183610" data-name="Trazado 183610" d="M115.776,72.063l-5.462-.765.193-1.494,5.47.737Z" transform="translate(173.901 110.04)" fill="#f4a338"/>
        <path id="Trazado_183611" data-name="Trazado 183611" d="M124.435,71.884l-10.883-1.407.2-1.536,10.9,1.353Z" transform="translate(179.007 108.682)" fill="#89c0c8"/>
        <path id="Trazado_183612" data-name="Trazado 183612" d="M128.133,72.285l-24.7-3.19.173-1.412,24.731,3.071Z" transform="translate(163.054 106.698)" fill="#17bb99"/>
        <path id="Trazado_183613" data-name="Trazado 183613" d="M111.369,62.248l-6.629-.42.175-1.417,6.637.389Z" transform="translate(165.113 95.233)" fill="#fbdd82"/>
        <path id="Trazado_183614" data-name="Trazado 183614" d="M107.109,64.488l-7.6-.649.16-1.353,7.608.611Z" transform="translate(156.872 98.505)" fill="#fbdd82"/>
        <path id="Trazado_183615" data-name="Trazado 183615" d="M115.284,65.2,102.94,64.16l.17-1.4,12.357.982Z" transform="translate(162.277 98.942)" fill="#17bb99"/>
        <path id="Trazado_183616" data-name="Trazado 183616" d="M119.649,62.8l-11.872-.752.183-1.456,11.888.7Z" transform="translate(169.902 95.513)" fill="#89c0c8"/>
        <path id="Trazado_183617" data-name="Trazado 183617" d="M112.782,63.65,99.65,62.671l.16-1.353,13.147.915Z" transform="translate(157.09 96.664)" fill="#89c0c8"/>
        <path id="Trazado_183618" data-name="Trazado 183618" d="M118.119,64.091l-12.846-.958.178-1.422,12.861.894Z" transform="translate(165.954 97.281)" fill="#f4a338"/>
        <path id="Trazado_183619" data-name="Trazado 183619" d="M119.732,64.253l-8.979-.67.193-1.492,8.989.626Z" transform="translate(174.594 97.882)" fill="#17bb99"/>
        <path id="Trazado_183620" data-name="Trazado 183620" d="M114.857,66.5,99.372,65.006l.162-1.353,15.5,1.414Z" transform="translate(156.652 100.344)" fill="#89c0c8"/>
        <path id="Trazado_183621" data-name="Trazado 183621" d="M114.1,66.476l-8.26-.8.18-1.435,8.27.757Z" transform="translate(166.854 101.276)" fill="#fbdd82"/>
        <path id="Trazado_183622" data-name="Trazado 183622" d="M114.687,67.769,99.241,66.12l.162-1.358,15.461,1.574Z" transform="translate(156.445 102.092)" fill="#17bb99"/>
        <path id="Trazado_183623" data-name="Trazado 183623" d="M120.021,68.386,105.7,66.856l.18-1.435,14.34,1.458Z" transform="translate(166.622 103.131)" fill="#89c0c8"/>
        <path id="Trazado_183624" data-name="Trazado 183624" d="M125.609,67.612l-16.025-1.543.191-1.481,16.043,1.466Z" transform="translate(172.75 101.816)" fill="#17bb99"/>
        <path id="Trazado_183625" data-name="Trazado 183625" d="M106.331,60.663l-3.744-.2.167-1.386,3.749.18Z" transform="translate(161.721 93.136)" fill="#17bb99"/>
        <path id="Trazado_183626" data-name="Trazado 183626" d="M114.215,55.075a.5.5,0,0,1-.121-.013.653.653,0,0,1-.523-.76l.072-.386a.645.645,0,0,1,.763-.523.654.654,0,0,1,.526.76l-.072.386a.656.656,0,0,1-.644.536" transform="translate(179.018 84.149)" fill="#334d5c"/>
        <path id="Trazado_183627" data-name="Trazado 183627" d="M114.421,71.965a.921.921,0,0,1-.118-.01.655.655,0,0,1-.526-.763l.137-.752a.655.655,0,0,1,1.288.234l-.137.752a.658.658,0,0,1-.644.538m.6-3.264a.615.615,0,0,1-.118-.01.653.653,0,0,1-.526-.76l.137-.752a.667.667,0,0,1,.763-.528.657.657,0,0,1,.526.763l-.137.752a.656.656,0,0,1-.644.536m.6-3.262a.613.613,0,0,1-.118-.01.655.655,0,0,1-.526-.763l.137-.752a.663.663,0,0,1,.763-.526.655.655,0,0,1,.526.763l-.137.752a.658.658,0,0,1-.644.536m.6-3.262a.921.921,0,0,1-.119-.01.655.655,0,0,1-.526-.763l.137-.752a.655.655,0,1,1,1.288.234l-.137.752a.656.656,0,0,1-.644.538m.6-3.264a.845.845,0,0,1-.116-.01.657.657,0,0,1-.528-.763l.139-.752a.655.655,0,0,1,1.288.234l-.139.755a.658.658,0,0,1-.644.536m.6-3.262a.88.88,0,0,1-.116-.01.658.658,0,0,1-.528-.763l.139-.752a.655.655,0,0,1,1.288.234l-.139.752a.658.658,0,0,1-.644.538m.6-3.264a.605.605,0,0,1-.116-.01.657.657,0,0,1-.528-.76l.139-.752a.67.67,0,0,1,.763-.528.655.655,0,0,1,.526.763l-.139.752a.658.658,0,0,1-.644.536m.6-3.262a.922.922,0,0,1-.119-.01.655.655,0,0,1-.526-.763l.137-.752a.665.665,0,0,1,.763-.526.654.654,0,0,1,.526.76l-.137.755a.658.658,0,0,1-.644.536m.848-3.192a.664.664,0,0,1-.294-.07.655.655,0,0,1-.291-.879,6.611,6.611,0,0,1,.433-.739.656.656,0,0,1,1.08.745,4.42,4.42,0,0,0-.343.582.657.657,0,0,1-.585.361m2.182-2.45a.655.655,0,0,1-.361-1.2,6.593,6.593,0,0,1,.732-.423.66.66,0,0,1,.876.294.651.651,0,0,1-.294.876,6.46,6.46,0,0,0-.593.345.656.656,0,0,1-.361.108m3.1-1.046a.654.654,0,0,1-.044-1.306l.763-.057a.656.656,0,0,1,.093,1.309l-.765.054h-.046m3.311-.24a.654.654,0,0,1-.049-1.306l.765-.057a.625.625,0,0,1,.7.6.657.657,0,0,1-.6.7l-.765.054-.049,0" transform="translate(179.343 64.367)" fill="#334d5c"/>
        <path id="Trazado_183628" data-name="Trazado 183628" d="M121,42.088a.654.654,0,0,1-.046-1.306l.394-.028a.633.633,0,0,1,.7.605.655.655,0,0,1-.605.7l-.394.026-.046,0" transform="translate(189.721 64.233)" fill="#334d5c"/>
        <path id="Trazado_183629" data-name="Trazado 183629" d="M126.792,43.328A13.924,13.924,0,0,1,113.678,54.41c-6.124,0-10.179-4.965-9.059-11.081a13.926,13.926,0,0,1,13.119-11.091c6.116,0,10.177,4.965,9.054,11.091" transform="translate(164.63 50.819)" fill="#4adbd1"/>
        <path id="Trazado_183630" data-name="Trazado 183630" d="M115.026,35.49s-3.192,3.28-4.607,4.738l-1.2-1.546a1.213,1.213,0,0,0-1.731-.036,1.283,1.283,0,0,0-.353,1.739l1.992,2.566a1.016,1.016,0,0,0,.876.376,1.5,1.5,0,0,0,.992-.466l5.686-5.846a1.212,1.212,0,0,0,.113-1.729,1.291,1.291,0,0,0-1.765.2" transform="translate(168.555 55.21)" fill="#fff"/>
        <path id="Trazado_183631" data-name="Trazado 183631" d="M66.829,53.783,107.1,52.054s5.48-8.309,1.165-12.949c-4.452-4.323-10.156-.276-10.156-.276S96.367,28.4,85.838,31.2c-10.36,2.759-9.94,11.073-9.909,13.119,0,0-5.934-.809-8.361,2.759a6.916,6.916,0,0,0-.739,6.7" transform="translate(104.493 48.434)" fill="#5573c6"/>
        <g id="Grupo_142290" data-name="Grupo 142290" transform="translate(221.547 21.529)" opacity="0.45">
          <g id="Grupo_142289" data-name="Grupo 142289">
            <g id="Grupo_142288" data-name="Grupo 142288" clip-path="url(#clip-path-3)">
              <path id="Trazado_183632" data-name="Trazado 183632" d="M134.664,32.693A24.337,24.337,0,1,1,110.324,8.356a24.337,24.337,0,0,1,24.339,24.337" transform="translate(-85.99 -8.356)" fill="#b7c6ce"/>
              <path id="Trazado_183633" data-name="Trazado 183633" d="M126.423,29.565A19.224,19.224,0,1,1,107.2,10.34a19.224,19.224,0,0,1,19.228,19.225" transform="translate(-82.861 -5.228)" fill="#aab5ba"/>
              <path id="Trazado_183634" data-name="Trazado 183634" d="M123.092,28.3a17.158,17.158,0,1,1-17.162-17.156A17.155,17.155,0,0,1,123.092,28.3" transform="translate(-81.597 -3.963)" fill="#fafafa"/>
              <g id="Grupo_142287" data-name="Grupo 142287" transform="translate(9.133 2.71)" opacity="0.6" style="mix-blend-mode: screen;isolation: isolate">
                <g id="Grupo_142286" data-name="Grupo 142286">
                  <g id="Grupo_142285" data-name="Grupo 142285" clip-path="url(#clip-path-4)">
                    <g id="Grupo_142284" data-name="Grupo 142284" opacity="0.3" style="mix-blend-mode: screen;isolation: isolate">
                      <g id="Grupo_142283" data-name="Grupo 142283">
                        <g id="Grupo_142282" data-name="Grupo 142282" clip-path="url(#clip-path-4)">
                          <path id="Trazado_183635" data-name="Trazado 183635" d="M98,10.516a1.743,1.743,0,0,1-1.2,1.927,13.4,13.4,0,0,0-4.56,2.631,1.747,1.747,0,0,1-2.27.072,1.6,1.6,0,0,1,.234-2.4,16.547,16.547,0,0,1,5.606-3.231,1.6,1.6,0,0,1,2.187,1" transform="translate(-89.535 -9.408)" fill="#d1bdd1"/>
                        </g>
                      </g>
                    </g>
                  </g>
                </g>
              </g>
              <path id="Trazado_183636" data-name="Trazado 183636" d="M108.313,15.133,95.552,21.507a.781.781,0,1,0,.69,1.4l12.764-6.377a.781.781,0,0,0-.693-1.4" transform="translate(-71.607 2.198)" fill="#b7c6ce"/>
              <path id="Trazado_183637" data-name="Trazado 183637" d="M95.184,14.618l-.052,8.927a.779.779,0,1,0,1.559.005l.054-8.927a.781.781,0,0,0-1.561-.005" transform="translate(-71.579 0.289)" fill="#b7c6ce"/>
              <path id="Trazado_183638" data-name="Trazado 183638" d="M95.881,17.039a2.677,2.677,0,1,0,3.589,1.208,2.687,2.687,0,0,0-3.589-1.208" transform="translate(-72.738 4.894)" fill="#aab5ba"/>
              <path id="Trazado_183639" data-name="Trazado 183639" d="M95.677,17.391a1.435,1.435,0,1,1-.652,1.925,1.438,1.438,0,0,1,.652-1.925" transform="translate(-71.98 5.653)" fill="#b7c6ce"/>
            </g>
          </g>
        </g>
        <g id="Grupo_142293" data-name="Grupo 142293" transform="translate(106.221 11.689)" opacity="0.5">
          <g id="Grupo_142292" data-name="Grupo 142292">
            <g id="Grupo_142291" data-name="Grupo 142291" clip-path="url(#clip-path-6)">
              <path id="Trazado_183640" data-name="Trazado 183640" d="M113.821,43.335c0-.08.015-.157.015-.234,0-17.319-16.255-31.358-36.307-31.358s-36.3,14.039-36.3,31.358c0,.077.01.155.01.234Z" transform="translate(-41.228 6.823)" fill="#b7c6ce"/>
              <path id="Trazado_183641" data-name="Trazado 183641" d="M52.038,24.476v.067a8.453,8.453,0,1,0,16.906,0l-.005-.067Z" transform="translate(-24.187 26.895)" fill="#b7c6ce"/>
              <path id="Trazado_183642" data-name="Trazado 183642" d="M56.41,4.537V25.831H55.057V5c.245-.082.487-.162.729-.245a5.427,5.427,0,0,1,.623-.216" transform="translate(-19.428 -4.537)" fill="#b7c6ce"/>
            </g>
          </g>
        </g>
      </g>
    </g>
  </g>
</svg>
