<svg xmlns="http://www.w3.org/2000/svg" width="236.203" height="223.539" viewBox="0 0 236.203 223.539">
  <g id="Grupo_986590" data-name="Grupo 986590" transform="translate(-844.656 -14864.984)">
    <path id="Trazado_659723" data-name="Trazado 659723" d="M8.141,11.336H5.07v3.188H3.727V11.336H.656V10.148h3.07V6.984H5.07v3.164h3.07Zm7.391.047H10.859V10.1h4.672Zm8.8,0H19.656V10.1h4.672Zm8.8,0H28.453V10.1h4.672Zm8.8,0H37.25V10.1h4.672Zm8.8,0H46.047V10.1h4.672Zm8.8,0H54.844V10.1h4.672Zm8.8,0H63.641V10.1h4.672Zm8.8,0H72.438V10.1h4.672Zm8.8,0H81.234V10.1h4.672Zm8.8,0H90.031V10.1H94.7Zm8.8,0H98.828V10.1H103.5Zm8.8,0h-4.672V10.1H112.3Zm10.2-.047h-3.07v3.188h-1.344V11.336h-3.07V10.148h3.07V6.984h1.344v3.164h3.07Zm7.391.047h-4.672V10.1h4.672Zm8.8,0h-4.672V10.1h4.672Zm8.8,0h-4.672V10.1h4.672Zm8.8,0h-4.672V10.1h4.672Zm8.8,0h-4.672V10.1h4.672Zm8.8,0H169.2V10.1h4.672Zm8.8,0H178V10.1h4.672Zm8.8,0H186.8V10.1h4.672Zm8.8,0h-4.672V10.1h4.672Zm8.8,0h-4.672V10.1h4.672Zm8.8,0h-4.672V10.1h4.672Zm8.8,0h-4.672V10.1h4.672Zm10.2-.047h-3.07v3.188h-1.344V11.336h-3.07V10.148h3.07V6.984h1.344v3.164h3.07ZM5.039,42.2H3.758v-16H5.039Zm13.8-11.047h1.211l.055,1.266a5.663,5.663,0,0,1,.664-.676,3.641,3.641,0,0,1,.629-.434,2.355,2.355,0,0,1,.629-.23,3.263,3.263,0,0,1,.664-.066,2.3,2.3,0,0,1,1.832.715,3.207,3.207,0,0,1,.621,2.152V39H23.789V33.992a2.21,2.21,0,0,0-.344-1.363,1.217,1.217,0,0,0-1.023-.441,1.633,1.633,0,0,0-.488.074,1.78,1.78,0,0,0-.5.258,4.1,4.1,0,0,0-.559.5q-.3.312-.676.781V39H18.844ZM33.945,39H32.727l-.047-1.266a6.331,6.331,0,0,1-.668.676,3.453,3.453,0,0,1-.629.434,2.421,2.421,0,0,1-.629.23,3.246,3.246,0,0,1-.668.066,2.29,2.29,0,0,1-1.828-.711,3.205,3.205,0,0,1-.617-2.148V31.156H29v5.016q0,1.8,1.359,1.8a1.633,1.633,0,0,0,.488-.074,1.834,1.834,0,0,0,.5-.258,3.956,3.956,0,0,0,.563-.5q.3-.312.676-.789v-5.2h1.359Zm8.086,0V33.367a5.376,5.376,0,0,0-.027-.6,1.371,1.371,0,0,0-.086-.371.4.4,0,0,0-.148-.191.421.421,0,0,0-.223-.055.491.491,0,0,0-.289.094,1.313,1.313,0,0,0-.285.3,4.818,4.818,0,0,0-.336.559q-.184.348-.434.855V39H38.961V33.516q0-.43-.027-.7a1.623,1.623,0,0,0-.086-.414.389.389,0,0,0-.152-.2.442.442,0,0,0-.227-.055.493.493,0,0,0-.266.078,1.13,1.13,0,0,0-.277.281,4.4,4.4,0,0,0-.34.555q-.187.352-.445.9V39h-1.25V31.156H36.93l.063,1.492a7.134,7.134,0,0,1,.395-.758,2.44,2.44,0,0,1,.395-.5,1.346,1.346,0,0,1,.434-.281,1.4,1.4,0,0,1,.512-.09,1.153,1.153,0,0,1,.961.414,2.051,2.051,0,0,1,.328,1.281q.188-.406.367-.723a2.64,2.64,0,0,1,.387-.531,1.484,1.484,0,0,1,.457-.328,1.388,1.388,0,0,1,.578-.113q1.477,0,1.477,2.273V39Zm9.828-4.336q0,.289-.008.484t-.023.367H46.32a2.441,2.441,0,0,0,.672,1.848,2.69,2.69,0,0,0,1.938.645q.344,0,.688-.027t.664-.074q.32-.047.613-.105t.543-.129v1.117a9.49,9.49,0,0,1-1.254.254,10.47,10.47,0,0,1-1.449.1A4.928,4.928,0,0,1,47,38.867a2.969,2.969,0,0,1-1.191-.793,3.265,3.265,0,0,1-.687-1.273,6.026,6.026,0,0,1-.223-1.707,5.069,5.069,0,0,1,.238-1.566,3.932,3.932,0,0,1,.7-1.3,3.3,3.3,0,0,1,2.629-1.215,3.827,3.827,0,0,1,1.453.258A2.918,2.918,0,0,1,50.98,32a3.114,3.114,0,0,1,.656,1.148A4.814,4.814,0,0,1,51.859,34.664Zm-1.414-.2a2.963,2.963,0,0,0-.1-.957,2.014,2.014,0,0,0-.387-.746,1.8,1.8,0,0,0-.652-.488A2.189,2.189,0,0,0,48.4,32.1a1.893,1.893,0,0,0-.812.172,1.853,1.853,0,0,0-.633.484,2.5,2.5,0,0,0-.43.75,3.458,3.458,0,0,0-.2.961Zm3.906-3.312h1.242l.039,1.445A5.035,5.035,0,0,1,57,31.391a2.784,2.784,0,0,1,1.363-.375,2.222,2.222,0,0,1,1.848.789,3.528,3.528,0,0,1,.582,2.344H59.422a2.567,2.567,0,0,0-.3-1.5,1.084,1.084,0,0,0-.949-.465,1.65,1.65,0,0,0-.551.1,2.225,2.225,0,0,0-.57.313,5.109,5.109,0,0,0-.621.551,10.169,10.169,0,0,0-.7.813V39H54.352Zm15.3,3.859a5.2,5.2,0,0,1-.258,1.676,3.728,3.728,0,0,1-.742,1.3,3.329,3.329,0,0,1-1.18.844,3.939,3.939,0,0,1-1.578.3,4.117,4.117,0,0,1-1.512-.262,2.991,2.991,0,0,1-1.133-.77,3.406,3.406,0,0,1-.711-1.258,5.536,5.536,0,0,1-.246-1.727,5.129,5.129,0,0,1,.258-1.668,3.739,3.739,0,0,1,.742-1.3,3.33,3.33,0,0,1,1.18-.844,3.939,3.939,0,0,1,1.578-.3,4.117,4.117,0,0,1,1.512.262,3.012,3.012,0,0,1,1.133.766A3.368,3.368,0,0,1,69.41,33.3,5.508,5.508,0,0,1,69.656,35.016Zm-1.391.063a4.506,4.506,0,0,0-.16-1.27,2.557,2.557,0,0,0-.457-.906,1.885,1.885,0,0,0-.723-.547,2.374,2.374,0,0,0-.949-.184,2.136,2.136,0,0,0-1.043.238,2.065,2.065,0,0,0-.711.637,2.744,2.744,0,0,0-.406.926,4.64,4.64,0,0,0-.129,1.105,4.548,4.548,0,0,0,.16,1.273,2.555,2.555,0,0,0,.457.91,1.892,1.892,0,0,0,.719.547,2.366,2.366,0,0,0,.953.184,2.136,2.136,0,0,0,1.043-.238,2.065,2.065,0,0,0,.711-.637,2.744,2.744,0,0,0,.406-.926A4.674,4.674,0,0,0,68.266,35.078ZM119.4,42.2h-1.281v-16H119.4Zm20.508-7.266a5.2,5.2,0,0,1-.293,1.828,3.581,3.581,0,0,1-.809,1.3,3.314,3.314,0,0,1-1.219.773,4.392,4.392,0,0,1-1.523.258,7.122,7.122,0,0,1-.746-.039,5.659,5.659,0,0,1-.754-.133V42.2H133.2V31.156h1.211l.086,1.313a3.5,3.5,0,0,1,1.25-1.129,3.232,3.232,0,0,1,1.438-.324,2.4,2.4,0,0,1,1.18.281,2.448,2.448,0,0,1,.852.793,3.751,3.751,0,0,1,.516,1.234A6.984,6.984,0,0,1,139.906,34.938ZM138.516,35a6.617,6.617,0,0,0-.09-1.133,2.956,2.956,0,0,0-.285-.883,1.566,1.566,0,0,0-.5-.574,1.262,1.262,0,0,0-.727-.207,1.767,1.767,0,0,0-.523.082,2.123,2.123,0,0,0-.551.273,4.1,4.1,0,0,0-.6.508,8,8,0,0,0-.676.785v3.8a4.562,4.562,0,0,0,.789.246,3.825,3.825,0,0,0,.813.09,2.131,2.131,0,0,0,1.727-.746A3.434,3.434,0,0,0,138.516,35Zm10.109-.336q0,.289-.008.484t-.023.367h-5.508a2.441,2.441,0,0,0,.672,1.848,2.69,2.69,0,0,0,1.938.645q.344,0,.688-.027t.664-.074q.32-.047.613-.105t.543-.129v1.117a9.49,9.49,0,0,1-1.254.254,10.47,10.47,0,0,1-1.449.1,4.928,4.928,0,0,1-1.734-.273,2.968,2.968,0,0,1-1.191-.793,3.265,3.265,0,0,1-.687-1.273,6.026,6.026,0,0,1-.223-1.707,5.069,5.069,0,0,1,.238-1.566,3.932,3.932,0,0,1,.7-1.3,3.3,3.3,0,0,1,2.629-1.215,3.827,3.827,0,0,1,1.453.258,2.918,2.918,0,0,1,1.066.73,3.114,3.114,0,0,1,.656,1.148A4.814,4.814,0,0,1,148.625,34.664Zm-1.414-.2a2.964,2.964,0,0,0-.1-.957,2.014,2.014,0,0,0-.387-.746,1.8,1.8,0,0,0-.652-.488,2.189,2.189,0,0,0-.906-.176,1.893,1.893,0,0,0-.812.172,1.853,1.853,0,0,0-.633.484,2.5,2.5,0,0,0-.43.75,3.458,3.458,0,0,0-.2.961Zm3.906-3.312h1.242L152.4,32.6a5.035,5.035,0,0,1,1.371-1.211,2.784,2.784,0,0,1,1.363-.375,2.222,2.222,0,0,1,1.848.789,3.528,3.528,0,0,1,.582,2.344h-1.375a2.567,2.567,0,0,0-.3-1.5,1.084,1.084,0,0,0-.949-.465,1.65,1.65,0,0,0-.551.1,2.225,2.225,0,0,0-.57.313,5.109,5.109,0,0,0-.621.551,10.169,10.169,0,0,0-.7.813V39h-1.375Zm14.688,5.7a1.867,1.867,0,0,1-.141.742,1.947,1.947,0,0,1-.383.582,2.381,2.381,0,0,1-.562.434,3.74,3.74,0,0,1-.684.3,4.5,4.5,0,0,1-.746.172,5.3,5.3,0,0,1-.75.055,14.057,14.057,0,0,1-1.465-.07,9.881,9.881,0,0,1-1.309-.227v-1.25a10.889,10.889,0,0,0,1.367.3,9.135,9.135,0,0,0,1.352.1,3.032,3.032,0,0,0,1.445-.266.831.831,0,0,0,.469-.758.928.928,0,0,0-.074-.379.861.861,0,0,0-.27-.32,2.576,2.576,0,0,0-.605-.316q-.41-.164-1.121-.375a7.958,7.958,0,0,1-.98-.355,3.287,3.287,0,0,1-.777-.473,2.03,2.03,0,0,1-.516-.641,1.884,1.884,0,0,1-.187-.867,1.993,1.993,0,0,1,.152-.719,1.953,1.953,0,0,1,.52-.727,2.891,2.891,0,0,1,.992-.559,4.706,4.706,0,0,1,1.563-.223q.461,0,1.023.051a10.569,10.569,0,0,1,1.172.176v1.211a11.2,11.2,0,0,0-1.215-.23,7.915,7.915,0,0,0-1-.074,3.975,3.975,0,0,0-.855.078,1.775,1.775,0,0,0-.562.215.839.839,0,0,0-.309.32.855.855,0,0,0-.094.395.877.877,0,0,0,.082.383.916.916,0,0,0,.3.332,3,3,0,0,0,.621.32q.4.16,1.039.348a8.311,8.311,0,0,1,1.172.426,3.025,3.025,0,0,1,.773.5,1.6,1.6,0,0,1,.426.617A2.214,2.214,0,0,1,165.8,36.859Zm9.414-1.844a5.2,5.2,0,0,1-.258,1.676,3.728,3.728,0,0,1-.742,1.3,3.329,3.329,0,0,1-1.18.844,3.939,3.939,0,0,1-1.578.3,4.117,4.117,0,0,1-1.512-.262,2.991,2.991,0,0,1-1.133-.77,3.406,3.406,0,0,1-.711-1.258,5.536,5.536,0,0,1-.246-1.727,5.129,5.129,0,0,1,.258-1.668,3.739,3.739,0,0,1,.742-1.3,3.33,3.33,0,0,1,1.18-.844,3.939,3.939,0,0,1,1.578-.3,4.117,4.117,0,0,1,1.512.262,3.012,3.012,0,0,1,1.133.766,3.368,3.368,0,0,1,.711,1.254A5.508,5.508,0,0,1,175.219,35.016Zm-1.391.063a4.506,4.506,0,0,0-.16-1.27,2.557,2.557,0,0,0-.457-.906,1.885,1.885,0,0,0-.723-.547,2.374,2.374,0,0,0-.949-.184,2.136,2.136,0,0,0-1.043.238,2.065,2.065,0,0,0-.711.637,2.744,2.744,0,0,0-.406.926,4.64,4.64,0,0,0-.129,1.105,4.548,4.548,0,0,0,.16,1.273,2.554,2.554,0,0,0,.457.91,1.892,1.892,0,0,0,.719.547,2.366,2.366,0,0,0,.953.184,2.136,2.136,0,0,0,1.043-.238,2.065,2.065,0,0,0,.711-.637,2.744,2.744,0,0,0,.406-.926A4.674,4.674,0,0,0,173.828,35.078Zm3.359-3.922H178.4l.055,1.266a5.663,5.663,0,0,1,.664-.676,3.641,3.641,0,0,1,.629-.434,2.355,2.355,0,0,1,.629-.23,3.263,3.263,0,0,1,.664-.066,2.3,2.3,0,0,1,1.832.715,3.207,3.207,0,0,1,.621,2.152V39h-1.359V33.992a2.21,2.21,0,0,0-.344-1.363,1.217,1.217,0,0,0-1.023-.441,1.633,1.633,0,0,0-.488.074,1.78,1.78,0,0,0-.5.258,4.1,4.1,0,0,0-.559.5q-.3.312-.676.781V39h-1.359ZM191.023,39l-.031-1.055a4.251,4.251,0,0,1-1.3.914,3.5,3.5,0,0,1-1.387.281,3.4,3.4,0,0,1-1.148-.172,2.152,2.152,0,0,1-.785-.473,1.832,1.832,0,0,1-.453-.707,2.616,2.616,0,0,1-.145-.883,2.191,2.191,0,0,1,.879-1.848,4.251,4.251,0,0,1,2.6-.668h1.625V33.7a1.455,1.455,0,0,0-.445-1.113,1.927,1.927,0,0,0-1.359-.418,5.812,5.812,0,0,0-1.309.148,9.2,9.2,0,0,0-1.332.422V31.516q.258-.094.574-.184t.668-.16q.352-.07.734-.113a6.928,6.928,0,0,1,.773-.043,4.851,4.851,0,0,1,1.281.156,2.6,2.6,0,0,1,.965.477,2.1,2.1,0,0,1,.605.8,2.84,2.84,0,0,1,.211,1.141V39Zm-.148-3.57h-1.727a3.311,3.311,0,0,0-.875.1,1.661,1.661,0,0,0-.6.289,1.16,1.16,0,0,0-.348.449,1.471,1.471,0,0,0-.113.59,1.339,1.339,0,0,0,.07.434.964.964,0,0,0,.227.367,1.094,1.094,0,0,0,.406.254,1.743,1.743,0,0,0,.609.094,2.576,2.576,0,0,0,1.074-.285,5.249,5.249,0,0,0,1.277-.9ZM202.328,42.2h-8.8V41.078h8.8Zm3.922-9.922h-2.32V31.156h3.7v6.711h2.336V39h-6.289V37.867h2.578Zm.477-4.414a1.078,1.078,0,0,1,.422.082,1.021,1.021,0,0,1,.34.23,1.109,1.109,0,0,1,.227.34,1.1,1.1,0,0,1,0,.832,1.1,1.1,0,0,1-.227.344,1.021,1.021,0,0,1-.34.23,1.126,1.126,0,0,1-.844,0,1.021,1.021,0,0,1-.34-.23,1.1,1.1,0,0,1-.227-.344,1.1,1.1,0,0,1,0-.832,1.109,1.109,0,0,1,.227-.34,1.021,1.021,0,0,1,.34-.23A1.078,1.078,0,0,1,206.727,27.867Zm5.25,7.375a5.342,5.342,0,0,1,.273-1.777,3.654,3.654,0,0,1,.777-1.312,3.29,3.29,0,0,1,1.211-.812,4.278,4.278,0,0,1,1.574-.277,5.764,5.764,0,0,1,.738.047,4.772,4.772,0,0,1,.715.148v-3.3h1.367V39h-1.219l-.047-1.484a4.11,4.11,0,0,1-1.234,1.227,2.744,2.744,0,0,1-1.437.4,2.33,2.33,0,0,1-2.035-1.074,3.806,3.806,0,0,1-.512-1.23A6.859,6.859,0,0,1,211.977,35.242Zm1.391-.086a4.232,4.232,0,0,0,.418,2.121,1.31,1.31,0,0,0,1.184.7,1.777,1.777,0,0,0,1.09-.461,6.594,6.594,0,0,0,1.207-1.367V32.508a3.305,3.305,0,0,0-.742-.238,4.057,4.057,0,0,0-.8-.082,2.165,2.165,0,0,0-1.73.719A3.39,3.39,0,0,0,213.367,35.156ZM233.758,42.2h-1.281v-16h1.281ZM8.141,59.336H5.07v3.188H3.727V59.336H.656V58.148h3.07V54.984H5.07v3.164h3.07Zm7.391.047H10.859V58.1h4.672Zm8.8,0H19.656V58.1h4.672Zm8.8,0H28.453V58.1h4.672Zm8.8,0H37.25V58.1h4.672Zm8.8,0H46.047V58.1h4.672Zm8.8,0H54.844V58.1h4.672Zm8.8,0H63.641V58.1h4.672Zm8.8,0H72.438V58.1h4.672Zm8.8,0H81.234V58.1h4.672Zm8.8,0H90.031V58.1H94.7Zm8.8,0H98.828V58.1H103.5Zm8.8,0h-4.672V58.1H112.3Zm10.2-.047h-3.07v3.188h-1.344V59.336h-3.07V58.148h3.07V54.984h1.344v3.164h3.07Zm7.391.047h-4.672V58.1h4.672Zm8.8,0h-4.672V58.1h4.672Zm8.8,0h-4.672V58.1h4.672Zm8.8,0h-4.672V58.1h4.672Zm8.8,0h-4.672V58.1h4.672Zm8.8,0H169.2V58.1h4.672Zm8.8,0H178V58.1h4.672Zm8.8,0H186.8V58.1h4.672Zm8.8,0h-4.672V58.1h4.672Zm8.8,0h-4.672V58.1h4.672Zm8.8,0h-4.672V58.1h4.672Zm8.8,0h-4.672V58.1h4.672Zm10.2-.047h-3.07v3.188h-1.344V59.336h-3.07V58.148h3.07V54.984h1.344v3.164h3.07ZM5.039,90.2H3.758v-16H5.039ZM25.469,87H18.742V85.781l2.641-2.625q.648-.641,1.055-1.109a5.89,5.89,0,0,0,.633-.855,2.606,2.606,0,0,0,.3-.73,3.345,3.345,0,0,0,.078-.742,2.483,2.483,0,0,0-.1-.715,1.7,1.7,0,0,0-.312-.6A1.449,1.449,0,0,0,22.492,78a1.982,1.982,0,0,0-.8-.148,2.428,2.428,0,0,0-1.18.289,4.041,4.041,0,0,0-.977.75l-.75-.9a4.6,4.6,0,0,1,1.332-.977,3.961,3.961,0,0,1,1.754-.367,3.6,3.6,0,0,1,1.238.2,2.767,2.767,0,0,1,.965.586,2.6,2.6,0,0,1,.629.938,3.331,3.331,0,0,1,.223,1.25,3.624,3.624,0,0,1-.156,1.086,4.167,4.167,0,0,1-.473,1,7.814,7.814,0,0,1-.8,1.027q-.48.531-1.137,1.164l-1.852,1.8h4.961Zm8.6-3.1A2.963,2.963,0,0,1,33.8,85.16a2.871,2.871,0,0,1-.82,1.031,4.059,4.059,0,0,1-1.375.7,6.6,6.6,0,0,1-1.93.254q-.609,0-1.094-.039t-.906-.1V85.781q.484.086,1.023.133t1.1.047a5.426,5.426,0,0,0,1.309-.137,2.47,2.47,0,0,0,.887-.395,1.518,1.518,0,0,0,.5-.625,2.1,2.1,0,0,0,.156-.828,1.4,1.4,0,0,0-.187-.734,1.56,1.56,0,0,0-.527-.523,2.607,2.607,0,0,0-.812-.316,4.755,4.755,0,0,0-1.035-.105H28.922V81.18H30.1a2.749,2.749,0,0,0,.84-.121,1.888,1.888,0,0,0,.648-.348A1.5,1.5,0,0,0,32,80.152a1.872,1.872,0,0,0,.145-.754,1.4,1.4,0,0,0-.5-1.2,2.425,2.425,0,0,0-1.469-.375,5.815,5.815,0,0,0-1.062.1,9.317,9.317,0,0,0-1.172.3V77.047q.266-.094.566-.168t.6-.125q.3-.051.6-.078t.57-.027a5.238,5.238,0,0,1,1.43.176,2.935,2.935,0,0,1,1.031.5,2.11,2.11,0,0,1,.625.8,2.543,2.543,0,0,1,.211,1.055,2.364,2.364,0,0,1-.449,1.469,3.1,3.1,0,0,1-1.23.945,2.782,2.782,0,0,1,.785.25,2.739,2.739,0,0,1,.7.48,2.341,2.341,0,0,1,.5.691A2.012,2.012,0,0,1,34.07,83.9Zm9.5.844H41.828V87H40.438V84.742H35.523v-1.2l4.352-6.758h1.953v6.758H43.57ZM40.438,78.1l-3.555,5.445h3.555ZM51.859,87H45.133V85.781l2.641-2.625q.648-.641,1.055-1.109a5.891,5.891,0,0,0,.633-.855,2.606,2.606,0,0,0,.3-.73,3.345,3.345,0,0,0,.078-.742,2.483,2.483,0,0,0-.1-.715,1.7,1.7,0,0,0-.312-.6A1.449,1.449,0,0,0,48.883,78a1.982,1.982,0,0,0-.8-.148,2.428,2.428,0,0,0-1.18.289,4.041,4.041,0,0,0-.977.75l-.75-.9a4.6,4.6,0,0,1,1.332-.977,3.961,3.961,0,0,1,1.754-.367,3.6,3.6,0,0,1,1.238.2,2.767,2.767,0,0,1,.965.586,2.6,2.6,0,0,1,.629.938,3.331,3.331,0,0,1,.223,1.25,3.624,3.624,0,0,1-.156,1.086,4.167,4.167,0,0,1-.473,1,7.814,7.814,0,0,1-.8,1.027q-.48.531-1.137,1.164L46.9,85.7h4.961Zm9.3-2.258H59.422V87H58.031V84.742H53.117v-1.2l4.352-6.758h1.953v6.758h1.742ZM58.031,78.1l-3.555,5.445h3.555ZM69.4,78.055,65.117,87H63.563l4.445-8.945H62.492V76.789H69.4Zm8.8,3.266a8.125,8.125,0,0,1-.359,2.566,4.372,4.372,0,0,1-1.062,1.766,4.274,4.274,0,0,1-1.742,1.02,7.972,7.972,0,0,1-2.4.328h-.852V85.813h.945a6.587,6.587,0,0,0,1.742-.2,3.334,3.334,0,0,0,1.223-.6,2.61,2.61,0,0,0,.746-.961,3.912,3.912,0,0,0,.32-1.293l.031-.32a4.665,4.665,0,0,1-1.133.465,5.241,5.241,0,0,1-1.391.176,3.755,3.755,0,0,1-1.359-.227,2.556,2.556,0,0,1-1.555-1.6,3.657,3.657,0,0,1-.2-1.215,3.411,3.411,0,0,1,.258-1.328,3.241,3.241,0,0,1,.723-1.074,3.413,3.413,0,0,1,1.113-.723,3.737,3.737,0,0,1,1.43-.266,3.845,3.845,0,0,1,1.4.25,2.725,2.725,0,0,1,1.113.809,4.01,4.01,0,0,1,.734,1.449A7.651,7.651,0,0,1,78.2,81.32Zm-3.578-3.555a2.209,2.209,0,0,0-.809.145,1.785,1.785,0,0,0-.641.422,1.992,1.992,0,0,0-.426.684,2.577,2.577,0,0,0-.156.93,2.944,2.944,0,0,0,.113.852,1.63,1.63,0,0,0,.352.637,1.547,1.547,0,0,0,.613.4,2.537,2.537,0,0,0,.891.141,3.423,3.423,0,0,0,.6-.055,4.646,4.646,0,0,0,1.16-.367,3.7,3.7,0,0,0,.477-.266,8.019,8.019,0,0,0-.148-1.684,3.088,3.088,0,0,0-.43-1.086,1.581,1.581,0,0,0-.684-.582A2.3,2.3,0,0,0,74.617,77.766ZM86.852,83.9a2.963,2.963,0,0,1-.273,1.262,2.871,2.871,0,0,1-.82,1.031,4.059,4.059,0,0,1-1.375.7,6.6,6.6,0,0,1-1.93.254q-.609,0-1.094-.039t-.906-.1V85.781q.484.086,1.023.133t1.1.047a5.426,5.426,0,0,0,1.309-.137,2.47,2.47,0,0,0,.887-.395,1.518,1.518,0,0,0,.5-.625,2.1,2.1,0,0,0,.156-.828,1.4,1.4,0,0,0-.187-.734,1.56,1.56,0,0,0-.527-.523A2.607,2.607,0,0,0,83.9,82.4a4.755,4.755,0,0,0-1.035-.105H81.7V81.18h1.18a2.749,2.749,0,0,0,.84-.121,1.888,1.888,0,0,0,.648-.348,1.5,1.5,0,0,0,.414-.559,1.872,1.872,0,0,0,.145-.754,1.4,1.4,0,0,0-.5-1.2,2.425,2.425,0,0,0-1.469-.375,5.815,5.815,0,0,0-1.062.1,9.317,9.317,0,0,0-1.172.3V77.047q.266-.094.566-.168t.6-.125q.3-.051.6-.078t.57-.027a5.238,5.238,0,0,1,1.43.176,2.935,2.935,0,0,1,1.031.5,2.11,2.11,0,0,1,.625.8,2.543,2.543,0,0,1,.211,1.055,2.364,2.364,0,0,1-.449,1.469,3.1,3.1,0,0,1-1.23.945,2.782,2.782,0,0,1,.785.25,2.739,2.739,0,0,1,.7.48,2.341,2.341,0,0,1,.5.691A2.012,2.012,0,0,1,86.852,83.9Zm8.734-.164a2.929,2.929,0,0,1-.328,1.383,3.3,3.3,0,0,1-.9,1.074,4.307,4.307,0,0,1-1.355.7,5.508,5.508,0,0,1-1.687.25q-.227,0-.488-.012T90.3,87.1q-.258-.02-.5-.043T89.359,87V85.766a6.563,6.563,0,0,0,.965.148q.543.047,1.1.047a3.95,3.95,0,0,0,1.125-.148,2.513,2.513,0,0,0,.852-.426,1.868,1.868,0,0,0,.539-.672,2.04,2.04,0,0,0,.188-.887,1.52,1.52,0,0,0-.684-1.387,3.683,3.683,0,0,0-1.965-.434H89.539V76.789h5.5v1.188H90.82v2.867h.891a7.6,7.6,0,0,1,1.43.133,3.671,3.671,0,0,1,1.238.465,2.559,2.559,0,0,1,.875.891A2.707,2.707,0,0,1,95.586,83.734Zm9.563,1.008h-1.742V87h-1.391V84.742H97.1v-1.2l4.352-6.758h1.953v6.758h1.742ZM102.016,78.1l-3.555,5.445h3.555ZM119.4,90.2h-1.281v-16H119.4ZM218.914,87H212.5V85.734h2.625V78.281l-2.445,1.328-.5-1.156,3.25-1.711h1.2v8.992h2.281Zm14.844,3.2h-1.281v-16h1.281ZM5.039,114.2H3.758v-16H5.039Zm20.555-6.437a3.436,3.436,0,0,1-.254,1.32,3.165,3.165,0,0,1-.723,1.074,3.379,3.379,0,0,1-1.129.719,3.943,3.943,0,0,1-1.465.262,3.862,3.862,0,0,1-1.492-.27,2.651,2.651,0,0,1-1.086-.828,3.876,3.876,0,0,1-.664-1.41,7.9,7.9,0,0,1-.227-2.016,11.055,11.055,0,0,1,.1-1.516,6.8,6.8,0,0,1,.336-1.383,4.782,4.782,0,0,1,.625-1.187,3.75,3.75,0,0,1,.973-.926,4.682,4.682,0,0,1,1.371-.6,6.989,6.989,0,0,1,1.828-.215H24.8v1.188H23.7a5.14,5.14,0,0,0-1.586.219,3.161,3.161,0,0,0-1.125.617,2.667,2.667,0,0,0-.7.961,4.088,4.088,0,0,0-.3,1.258l-.031.32a4.653,4.653,0,0,1,1.137-.465,5.285,5.285,0,0,1,1.395-.176,3.724,3.724,0,0,1,1.355.227,2.658,2.658,0,0,1,.969.629,2.6,2.6,0,0,1,.582.965A3.741,3.741,0,0,1,25.594,107.766Zm-1.422.086a2.955,2.955,0,0,0-.113-.848,1.6,1.6,0,0,0-.355-.641,1.622,1.622,0,0,0-.613-.406,2.443,2.443,0,0,0-.887-.145,3.4,3.4,0,0,0-.6.055,4.277,4.277,0,0,0-.6.152,5.092,5.092,0,0,0-.559.223,4.212,4.212,0,0,0-.484.266,8.452,8.452,0,0,0,.141,1.684,3,3,0,0,0,.418,1.082,1.56,1.56,0,0,0,.684.578,2.389,2.389,0,0,0,.938.172,2.231,2.231,0,0,0,.816-.145,1.761,1.761,0,0,0,.641-.426,2,2,0,0,0,.422-.684A2.58,2.58,0,0,0,24.172,107.852Zm10.6.891H33.031V111H31.641v-2.258H26.727v-1.2l4.352-6.758h1.953v6.758h1.742ZM31.641,102.1l-3.555,5.445h3.555Zm11.93,6.641H41.828V111H40.438v-2.258H35.523v-1.2l4.352-6.758h1.953v6.758H43.57ZM40.438,102.1l-3.555,5.445h3.555Zm11.227,5.8a2.963,2.963,0,0,1-.273,1.262,2.871,2.871,0,0,1-.82,1.031,4.059,4.059,0,0,1-1.375.7,6.6,6.6,0,0,1-1.93.254q-.609,0-1.094-.039t-.906-.1v-1.219q.484.086,1.023.133t1.1.047a5.426,5.426,0,0,0,1.309-.137,2.47,2.47,0,0,0,.887-.395,1.518,1.518,0,0,0,.5-.625,2.1,2.1,0,0,0,.156-.828,1.4,1.4,0,0,0-.187-.734,1.56,1.56,0,0,0-.527-.523,2.607,2.607,0,0,0-.812-.316,4.755,4.755,0,0,0-1.035-.105H46.516V105.18H47.7a2.749,2.749,0,0,0,.84-.121,1.888,1.888,0,0,0,.648-.348,1.5,1.5,0,0,0,.414-.559,1.872,1.872,0,0,0,.145-.754,1.4,1.4,0,0,0-.5-1.2,2.425,2.425,0,0,0-1.469-.375,5.815,5.815,0,0,0-1.062.1,9.317,9.317,0,0,0-1.172.3v-1.187q.266-.094.566-.168t.6-.125q.3-.051.6-.078t.57-.027a5.238,5.238,0,0,1,1.43.176,2.935,2.935,0,0,1,1.031.5,2.11,2.11,0,0,1,.625.8,2.543,2.543,0,0,1,.211,1.055,2.364,2.364,0,0,1-.449,1.469,3.1,3.1,0,0,1-1.23.945,2.782,2.782,0,0,1,.785.25,2.739,2.739,0,0,1,.7.48,2.341,2.341,0,0,1,.5.691A2.012,2.012,0,0,1,51.664,107.9Zm8.734-.164a2.929,2.929,0,0,1-.328,1.383,3.3,3.3,0,0,1-.9,1.074,4.307,4.307,0,0,1-1.355.7,5.508,5.508,0,0,1-1.687.25q-.227,0-.488-.012t-.52-.031q-.258-.02-.5-.043T54.172,111v-1.234a6.563,6.563,0,0,0,.965.148q.543.047,1.1.047a3.95,3.95,0,0,0,1.125-.148,2.514,2.514,0,0,0,.852-.426,1.868,1.868,0,0,0,.539-.672,2.04,2.04,0,0,0,.188-.887,1.52,1.52,0,0,0-.684-1.387,3.683,3.683,0,0,0-1.965-.434H54.352v-5.219h5.5v1.188H55.633v2.867h.891a7.6,7.6,0,0,1,1.43.133,3.671,3.671,0,0,1,1.238.465,2.559,2.559,0,0,1,.875.891A2.707,2.707,0,0,1,60.4,107.734Zm9.563,1.008H68.219V111H66.828v-2.258H61.914v-1.2l4.352-6.758h1.953v6.758h1.742ZM66.828,102.1l-3.555,5.445h3.555Zm11.227,5.8a2.963,2.963,0,0,1-.273,1.262,2.871,2.871,0,0,1-.82,1.031,4.059,4.059,0,0,1-1.375.7,6.6,6.6,0,0,1-1.93.254q-.609,0-1.094-.039t-.906-.1v-1.219q.484.086,1.023.133t1.1.047a5.426,5.426,0,0,0,1.309-.137,2.47,2.47,0,0,0,.887-.395,1.518,1.518,0,0,0,.5-.625,2.1,2.1,0,0,0,.156-.828,1.4,1.4,0,0,0-.187-.734,1.56,1.56,0,0,0-.527-.523,2.607,2.607,0,0,0-.812-.316,4.755,4.755,0,0,0-1.035-.105H72.906V105.18h1.18a2.749,2.749,0,0,0,.84-.121,1.888,1.888,0,0,0,.648-.348,1.5,1.5,0,0,0,.414-.559,1.872,1.872,0,0,0,.145-.754,1.4,1.4,0,0,0-.5-1.2,2.425,2.425,0,0,0-1.469-.375,5.815,5.815,0,0,0-1.062.1,9.317,9.317,0,0,0-1.172.3v-1.187q.266-.094.566-.168t.6-.125q.3-.051.6-.078t.57-.027a5.238,5.238,0,0,1,1.43.176,2.935,2.935,0,0,1,1.031.5,2.11,2.11,0,0,1,.625.8,2.543,2.543,0,0,1,.211,1.055,2.364,2.364,0,0,1-.449,1.469,3.1,3.1,0,0,1-1.23.945,2.782,2.782,0,0,1,.785.25,2.739,2.739,0,0,1,.7.48,2.341,2.341,0,0,1,.5.691A2.012,2.012,0,0,1,78.055,107.9Zm8.734-.164a2.929,2.929,0,0,1-.328,1.383,3.3,3.3,0,0,1-.9,1.074,4.307,4.307,0,0,1-1.355.7,5.508,5.508,0,0,1-1.687.25q-.227,0-.488-.012t-.52-.031q-.258-.02-.5-.043T80.563,111v-1.234a6.563,6.563,0,0,0,.965.148q.543.047,1.1.047a3.95,3.95,0,0,0,1.125-.148,2.513,2.513,0,0,0,.852-.426,1.868,1.868,0,0,0,.539-.672,2.04,2.04,0,0,0,.188-.887,1.52,1.52,0,0,0-.684-1.387,3.683,3.683,0,0,0-1.965-.434H80.742v-5.219h5.5v1.188H82.023v2.867h.891a7.6,7.6,0,0,1,1.43.133,3.671,3.671,0,0,1,1.238.465,2.559,2.559,0,0,1,.875.891A2.707,2.707,0,0,1,86.789,107.734Zm8.859.164a2.963,2.963,0,0,1-.273,1.262,2.871,2.871,0,0,1-.82,1.031,4.059,4.059,0,0,1-1.375.7,6.6,6.6,0,0,1-1.93.254q-.609,0-1.094-.039t-.906-.1v-1.219q.484.086,1.023.133t1.1.047a5.426,5.426,0,0,0,1.309-.137,2.47,2.47,0,0,0,.887-.395,1.518,1.518,0,0,0,.5-.625,2.1,2.1,0,0,0,.156-.828,1.4,1.4,0,0,0-.187-.734,1.56,1.56,0,0,0-.527-.523,2.607,2.607,0,0,0-.812-.316,4.755,4.755,0,0,0-1.035-.105H90.5V105.18h1.18a2.749,2.749,0,0,0,.84-.121,1.888,1.888,0,0,0,.648-.348,1.5,1.5,0,0,0,.414-.559,1.872,1.872,0,0,0,.145-.754,1.4,1.4,0,0,0-.5-1.2,2.425,2.425,0,0,0-1.469-.375,5.815,5.815,0,0,0-1.062.1,9.317,9.317,0,0,0-1.172.3v-1.187q.266-.094.566-.168t.6-.125q.3-.051.6-.078t.57-.027a5.238,5.238,0,0,1,1.43.176,2.935,2.935,0,0,1,1.031.5,2.11,2.11,0,0,1,.625.8,2.543,2.543,0,0,1,.211,1.055,2.364,2.364,0,0,1-.449,1.469,3.1,3.1,0,0,1-1.23.945,2.782,2.782,0,0,1,.785.25,2.739,2.739,0,0,1,.7.48,2.341,2.341,0,0,1,.5.691A2.012,2.012,0,0,1,95.648,107.9Zm9.5.844h-1.742V111h-1.391v-2.258H97.1v-1.2l4.352-6.758h1.953v6.758h1.742Zm-3.133-6.641-3.555,5.445h3.555ZM119.4,114.2h-1.281v-16H119.4Zm99.516-3.2H212.5v-1.266h2.625v-7.453l-2.445,1.328-.5-1.156,3.25-1.711h1.2v8.992h2.281Zm14.844,3.2h-1.281v-16h1.281ZM5.039,138.2H3.758v-16H5.039Zm20.172-6.469a2.929,2.929,0,0,1-.328,1.383,3.3,3.3,0,0,1-.9,1.074,4.307,4.307,0,0,1-1.355.7,5.508,5.508,0,0,1-1.687.25q-.227,0-.488-.012t-.52-.031q-.258-.02-.5-.043T18.984,135v-1.234a6.564,6.564,0,0,0,.965.148q.543.047,1.1.047a3.95,3.95,0,0,0,1.125-.148,2.514,2.514,0,0,0,.852-.426,1.868,1.868,0,0,0,.539-.672,2.04,2.04,0,0,0,.188-.887,1.52,1.52,0,0,0-.684-1.387,3.683,3.683,0,0,0-1.965-.434H19.164v-5.219h5.5v1.188H20.445v2.867h.891a7.6,7.6,0,0,1,1.43.133,3.671,3.671,0,0,1,1.238.465,2.559,2.559,0,0,1,.875.891A2.707,2.707,0,0,1,25.211,131.734Zm9-5.68L29.93,135H28.375l4.445-8.945H27.3v-1.266h6.906Zm8.852,6.383a2.368,2.368,0,0,1-1.008,2,3.5,3.5,0,0,1-1.125.523,5.735,5.735,0,0,1-2.879-.008,3.164,3.164,0,0,1-1.066-.523,2.206,2.206,0,0,1-.648-.8,2.339,2.339,0,0,1-.219-1.016A2.573,2.573,0,0,1,36.641,131a4.663,4.663,0,0,1,1.617-1.234,4.081,4.081,0,0,1-1.461-1.129,2.361,2.361,0,0,1,.355-3.2,3.07,3.07,0,0,1,1.027-.574,4.425,4.425,0,0,1,1.453-.215,5.146,5.146,0,0,1,1.387.168,2.927,2.927,0,0,1,1,.48,1.988,1.988,0,0,1,.609.758,2.548,2.548,0,0,1-.293,2.508,4.224,4.224,0,0,1-1.41,1.094,6.67,6.67,0,0,1,.844.5,3.658,3.658,0,0,1,.68.609,2.476,2.476,0,0,1,.609,1.672Zm-1.617-5.281a1.176,1.176,0,0,0-.488-1.035,2.935,2.935,0,0,0-2.734,0,1.142,1.142,0,0,0-.488,1.008,1.343,1.343,0,0,0,.117.563,1.517,1.517,0,0,0,.363.484,3.7,3.7,0,0,0,.613.445,8.455,8.455,0,0,0,.875.445,4.41,4.41,0,0,0,1.313-.863A1.463,1.463,0,0,0,41.445,127.156Zm.141,5.383a1.723,1.723,0,0,0-.094-.562,1.562,1.562,0,0,0-.336-.539,3.373,3.373,0,0,0-.648-.531,7.637,7.637,0,0,0-1.031-.547,6.613,6.613,0,0,0-.895.512,3.083,3.083,0,0,0-.586.516,1.642,1.642,0,0,0-.316.543,1.865,1.865,0,0,0-.094.594,1.24,1.24,0,0,0,.152.621,1.4,1.4,0,0,0,.418.457,1.9,1.9,0,0,0,.633.281,3.215,3.215,0,0,0,.8.094,3.42,3.42,0,0,0,.781-.086,1.983,1.983,0,0,0,.637-.262,1.312,1.312,0,0,0,.426-.445A1.264,1.264,0,0,0,41.586,132.539Zm10.273-.1a2.368,2.368,0,0,1-1.008,2,3.5,3.5,0,0,1-1.125.523,5.735,5.735,0,0,1-2.879-.008,3.164,3.164,0,0,1-1.066-.523,2.206,2.206,0,0,1-.648-.8,2.339,2.339,0,0,1-.219-1.016A2.573,2.573,0,0,1,45.438,131a4.663,4.663,0,0,1,1.617-1.234,4.081,4.081,0,0,1-1.461-1.129,2.361,2.361,0,0,1,.355-3.2,3.07,3.07,0,0,1,1.027-.574,4.425,4.425,0,0,1,1.453-.215,5.146,5.146,0,0,1,1.387.168,2.927,2.927,0,0,1,1,.48,1.988,1.988,0,0,1,.609.758,2.548,2.548,0,0,1-.293,2.508,4.224,4.224,0,0,1-1.41,1.094,6.67,6.67,0,0,1,.844.5,3.658,3.658,0,0,1,.68.609,2.476,2.476,0,0,1,.609,1.672Zm-1.617-5.281a1.176,1.176,0,0,0-.488-1.035,2.935,2.935,0,0,0-2.734,0,1.142,1.142,0,0,0-.488,1.008,1.343,1.343,0,0,0,.117.563,1.517,1.517,0,0,0,.363.484,3.7,3.7,0,0,0,.613.445,8.455,8.455,0,0,0,.875.445,4.41,4.41,0,0,0,1.313-.863A1.463,1.463,0,0,0,50.242,127.156Zm.141,5.383a1.723,1.723,0,0,0-.094-.562,1.562,1.562,0,0,0-.336-.539,3.373,3.373,0,0,0-.648-.531,7.637,7.637,0,0,0-1.031-.547,6.613,6.613,0,0,0-.895.512,3.083,3.083,0,0,0-.586.516,1.642,1.642,0,0,0-.316.543,1.865,1.865,0,0,0-.094.594,1.24,1.24,0,0,0,.152.621,1.4,1.4,0,0,0,.418.457,1.9,1.9,0,0,0,.633.281,3.215,3.215,0,0,0,.8.094,3.42,3.42,0,0,0,.781-.086,1.983,1.983,0,0,0,.637-.262,1.312,1.312,0,0,0,.426-.445A1.264,1.264,0,0,0,50.383,132.539ZM60.57,135H54.156v-1.266h2.625v-7.453l-2.445,1.328-.5-1.156,3.25-1.711h1.2v8.992H60.57Zm8.688-3.1a2.963,2.963,0,0,1-.273,1.262,2.871,2.871,0,0,1-.82,1.031,4.059,4.059,0,0,1-1.375.7,6.6,6.6,0,0,1-1.93.254q-.609,0-1.094-.039t-.906-.1v-1.219q.484.086,1.023.133t1.1.047a5.426,5.426,0,0,0,1.309-.137,2.47,2.47,0,0,0,.887-.395,1.518,1.518,0,0,0,.5-.625,2.1,2.1,0,0,0,.156-.828,1.4,1.4,0,0,0-.187-.734,1.56,1.56,0,0,0-.527-.523,2.607,2.607,0,0,0-.812-.316,4.755,4.755,0,0,0-1.035-.105H64.109V129.18h1.18a2.749,2.749,0,0,0,.84-.121,1.888,1.888,0,0,0,.648-.348,1.5,1.5,0,0,0,.414-.559,1.872,1.872,0,0,0,.145-.754,1.4,1.4,0,0,0-.5-1.2,2.425,2.425,0,0,0-1.469-.375,5.815,5.815,0,0,0-1.062.1,9.317,9.317,0,0,0-1.172.3v-1.187q.266-.094.566-.168t.6-.125q.3-.051.6-.078t.57-.027a5.238,5.238,0,0,1,1.43.176,2.935,2.935,0,0,1,1.031.5,2.11,2.11,0,0,1,.625.8,2.543,2.543,0,0,1,.211,1.055,2.364,2.364,0,0,1-.449,1.469,3.1,3.1,0,0,1-1.23.945,2.782,2.782,0,0,1,.785.25,2.739,2.739,0,0,1,.7.48,2.341,2.341,0,0,1,.5.691A2.012,2.012,0,0,1,69.258,131.9Zm8.8,0a2.963,2.963,0,0,1-.273,1.262,2.871,2.871,0,0,1-.82,1.031,4.059,4.059,0,0,1-1.375.7,6.6,6.6,0,0,1-1.93.254q-.609,0-1.094-.039t-.906-.1v-1.219q.484.086,1.023.133t1.1.047a5.426,5.426,0,0,0,1.309-.137,2.47,2.47,0,0,0,.887-.395,1.518,1.518,0,0,0,.5-.625,2.1,2.1,0,0,0,.156-.828,1.4,1.4,0,0,0-.187-.734,1.56,1.56,0,0,0-.527-.523,2.607,2.607,0,0,0-.812-.316,4.755,4.755,0,0,0-1.035-.105H72.906V129.18h1.18a2.749,2.749,0,0,0,.84-.121,1.888,1.888,0,0,0,.648-.348,1.5,1.5,0,0,0,.414-.559,1.872,1.872,0,0,0,.145-.754,1.4,1.4,0,0,0-.5-1.2,2.425,2.425,0,0,0-1.469-.375,5.815,5.815,0,0,0-1.062.1,9.317,9.317,0,0,0-1.172.3v-1.187q.266-.094.566-.168t.6-.125q.3-.051.6-.078t.57-.027a5.238,5.238,0,0,1,1.43.176,2.935,2.935,0,0,1,1.031.5,2.11,2.11,0,0,1,.625.8,2.543,2.543,0,0,1,.211,1.055,2.364,2.364,0,0,1-.449,1.469,3.1,3.1,0,0,1-1.23.945,2.782,2.782,0,0,1,.785.25,2.739,2.739,0,0,1,.7.48,2.341,2.341,0,0,1,.5.691A2.012,2.012,0,0,1,78.055,131.9Zm9.5.844H85.813V135H84.422v-2.258H79.508v-1.2l4.352-6.758h1.953v6.758h1.742ZM84.422,126.1l-3.555,5.445h3.555Zm11.227,5.8a2.963,2.963,0,0,1-.273,1.262,2.871,2.871,0,0,1-.82,1.031,4.059,4.059,0,0,1-1.375.7,6.6,6.6,0,0,1-1.93.254q-.609,0-1.094-.039t-.906-.1v-1.219q.484.086,1.023.133t1.1.047a5.426,5.426,0,0,0,1.309-.137,2.47,2.47,0,0,0,.887-.395,1.518,1.518,0,0,0,.5-.625,2.1,2.1,0,0,0,.156-.828,1.4,1.4,0,0,0-.187-.734,1.56,1.56,0,0,0-.527-.523,2.607,2.607,0,0,0-.812-.316,4.755,4.755,0,0,0-1.035-.105H90.5V129.18h1.18a2.749,2.749,0,0,0,.84-.121,1.888,1.888,0,0,0,.648-.348,1.5,1.5,0,0,0,.414-.559,1.872,1.872,0,0,0,.145-.754,1.4,1.4,0,0,0-.5-1.2,2.425,2.425,0,0,0-1.469-.375,5.815,5.815,0,0,0-1.062.1,9.317,9.317,0,0,0-1.172.3v-1.187q.266-.094.566-.168t.6-.125q.3-.051.6-.078t.57-.027a5.238,5.238,0,0,1,1.43.176,2.935,2.935,0,0,1,1.031.5,2.11,2.11,0,0,1,.625.8,2.543,2.543,0,0,1,.211,1.055,2.364,2.364,0,0,1-.449,1.469,3.1,3.1,0,0,1-1.23.945,2.782,2.782,0,0,1,.785.25,2.739,2.739,0,0,1,.7.48,2.341,2.341,0,0,1,.5.691A2.012,2.012,0,0,1,95.648,131.9Zm23.75,6.3h-1.281v-16H119.4Zm99.406-6.3a2.963,2.963,0,0,1-.273,1.262,2.871,2.871,0,0,1-.82,1.031,4.059,4.059,0,0,1-1.375.7,6.6,6.6,0,0,1-1.93.254q-.609,0-1.094-.039t-.906-.1v-1.219q.484.086,1.023.133t1.1.047a5.426,5.426,0,0,0,1.309-.137,2.47,2.47,0,0,0,.887-.395,1.518,1.518,0,0,0,.5-.625,2.1,2.1,0,0,0,.156-.828,1.4,1.4,0,0,0-.187-.734,1.56,1.56,0,0,0-.527-.523,2.607,2.607,0,0,0-.812-.316,4.755,4.755,0,0,0-1.035-.105h-1.164V129.18h1.18a2.749,2.749,0,0,0,.84-.121,1.888,1.888,0,0,0,.648-.348,1.5,1.5,0,0,0,.414-.559,1.872,1.872,0,0,0,.145-.754,1.4,1.4,0,0,0-.5-1.2,2.425,2.425,0,0,0-1.469-.375,5.815,5.815,0,0,0-1.062.1,9.317,9.317,0,0,0-1.172.3v-1.187q.266-.094.566-.168t.6-.125q.3-.051.6-.078t.57-.027a5.238,5.238,0,0,1,1.43.176,2.935,2.935,0,0,1,1.031.5,2.11,2.11,0,0,1,.625.8,2.543,2.543,0,0,1,.211,1.055,2.364,2.364,0,0,1-.449,1.469,3.1,3.1,0,0,1-1.23.945,2.782,2.782,0,0,1,.785.25,2.739,2.739,0,0,1,.7.48,2.341,2.341,0,0,1,.5.691A2.012,2.012,0,0,1,218.8,131.9Zm14.953,6.3h-1.281v-16h1.281ZM5.039,162.2H3.758v-16H5.039Zm20.43-3.2H18.742v-1.219l2.641-2.625q.648-.641,1.055-1.109a5.89,5.89,0,0,0,.633-.855,2.606,2.606,0,0,0,.3-.73,3.345,3.345,0,0,0,.078-.742,2.483,2.483,0,0,0-.1-.715,1.7,1.7,0,0,0-.312-.6,1.449,1.449,0,0,0-.547-.406,1.982,1.982,0,0,0-.8-.148,2.428,2.428,0,0,0-1.18.289,4.041,4.041,0,0,0-.977.75l-.75-.9a4.6,4.6,0,0,1,1.332-.977,3.961,3.961,0,0,1,1.754-.367,3.6,3.6,0,0,1,1.238.2,2.767,2.767,0,0,1,.965.586,2.6,2.6,0,0,1,.629.938,3.331,3.331,0,0,1,.223,1.25,3.624,3.624,0,0,1-.156,1.086,4.167,4.167,0,0,1-.473,1,7.814,7.814,0,0,1-.8,1.027q-.48.531-1.137,1.164l-1.852,1.8h4.961Zm8.6-3.1a2.963,2.963,0,0,1-.273,1.262,2.871,2.871,0,0,1-.82,1.031,4.059,4.059,0,0,1-1.375.7,6.6,6.6,0,0,1-1.93.254q-.609,0-1.094-.039t-.906-.1v-1.219q.484.086,1.023.133t1.1.047a5.426,5.426,0,0,0,1.309-.137,2.47,2.47,0,0,0,.887-.395,1.518,1.518,0,0,0,.5-.625,2.1,2.1,0,0,0,.156-.828,1.4,1.4,0,0,0-.187-.734,1.56,1.56,0,0,0-.527-.523,2.607,2.607,0,0,0-.812-.316,4.755,4.755,0,0,0-1.035-.105H28.922V153.18H30.1a2.749,2.749,0,0,0,.84-.121,1.888,1.888,0,0,0,.648-.348,1.5,1.5,0,0,0,.414-.559,1.872,1.872,0,0,0,.145-.754,1.4,1.4,0,0,0-.5-1.2,2.425,2.425,0,0,0-1.469-.375,5.815,5.815,0,0,0-1.062.1,9.314,9.314,0,0,0-1.172.3v-1.187q.266-.094.566-.168t.6-.125q.3-.051.6-.078t.57-.027a5.238,5.238,0,0,1,1.43.176,2.935,2.935,0,0,1,1.031.5,2.11,2.11,0,0,1,.625.8,2.543,2.543,0,0,1,.211,1.055,2.364,2.364,0,0,1-.449,1.469,3.1,3.1,0,0,1-1.23.945,2.782,2.782,0,0,1,.785.25,2.739,2.739,0,0,1,.7.48,2.341,2.341,0,0,1,.5.691A2.012,2.012,0,0,1,34.07,155.9Zm9.5.844H41.828V159H40.438v-2.258H35.523v-1.2l4.352-6.758h1.953v6.758H43.57ZM40.438,150.1l-3.555,5.445h3.555ZM51.6,155.734a2.929,2.929,0,0,1-.328,1.383,3.3,3.3,0,0,1-.9,1.074,4.307,4.307,0,0,1-1.355.7,5.508,5.508,0,0,1-1.687.25q-.227,0-.488-.012t-.52-.031q-.258-.02-.5-.043T45.375,159v-1.234a6.564,6.564,0,0,0,.965.148q.543.047,1.1.047a3.95,3.95,0,0,0,1.125-.148,2.514,2.514,0,0,0,.852-.426,1.868,1.868,0,0,0,.539-.672,2.04,2.04,0,0,0,.188-.887,1.52,1.52,0,0,0-.684-1.387,3.683,3.683,0,0,0-1.965-.434H45.555v-5.219h5.5v1.188H46.836v2.867h.891a7.6,7.6,0,0,1,1.43.133,3.671,3.671,0,0,1,1.238.465,2.559,2.559,0,0,1,.875.891A2.707,2.707,0,0,1,51.6,155.734ZM60.656,159H53.93v-1.219l2.641-2.625q.648-.641,1.055-1.109a5.891,5.891,0,0,0,.633-.855,2.606,2.606,0,0,0,.3-.73,3.346,3.346,0,0,0,.078-.742,2.483,2.483,0,0,0-.1-.715,1.7,1.7,0,0,0-.312-.6A1.449,1.449,0,0,0,57.68,150a1.982,1.982,0,0,0-.8-.148,2.428,2.428,0,0,0-1.18.289,4.041,4.041,0,0,0-.977.75l-.75-.9a4.6,4.6,0,0,1,1.332-.977,3.961,3.961,0,0,1,1.754-.367,3.6,3.6,0,0,1,1.238.2,2.767,2.767,0,0,1,.965.586,2.6,2.6,0,0,1,.629.938,3.331,3.331,0,0,1,.223,1.25,3.624,3.624,0,0,1-.156,1.086,4.168,4.168,0,0,1-.473,1,7.814,7.814,0,0,1-.8,1.027q-.48.531-1.137,1.164L55.7,157.7h4.961Zm8.8,0H62.727v-1.219l2.641-2.625q.648-.641,1.055-1.109a5.89,5.89,0,0,0,.633-.855,2.606,2.606,0,0,0,.3-.73,3.345,3.345,0,0,0,.078-.742,2.483,2.483,0,0,0-.1-.715,1.7,1.7,0,0,0-.312-.6,1.449,1.449,0,0,0-.547-.406,1.982,1.982,0,0,0-.8-.148,2.428,2.428,0,0,0-1.18.289,4.041,4.041,0,0,0-.977.75l-.75-.9a4.6,4.6,0,0,1,1.332-.977,3.961,3.961,0,0,1,1.754-.367,3.6,3.6,0,0,1,1.238.2,2.767,2.767,0,0,1,.965.586,2.6,2.6,0,0,1,.629.938,3.331,3.331,0,0,1,.223,1.25,3.624,3.624,0,0,1-.156,1.086,4.167,4.167,0,0,1-.473,1,7.814,7.814,0,0,1-.8,1.027q-.48.531-1.137,1.164l-1.852,1.8h4.961Zm9.3-2.258H77.016V159H75.625v-2.258H70.711v-1.2l4.352-6.758h1.953v6.758h1.742ZM75.625,150.1l-3.555,5.445h3.555Zm11.227,5.8a2.963,2.963,0,0,1-.273,1.262,2.871,2.871,0,0,1-.82,1.031,4.059,4.059,0,0,1-1.375.7,6.6,6.6,0,0,1-1.93.254q-.609,0-1.094-.039t-.906-.1v-1.219q.484.086,1.023.133t1.1.047a5.426,5.426,0,0,0,1.309-.137,2.47,2.47,0,0,0,.887-.395,1.518,1.518,0,0,0,.5-.625,2.1,2.1,0,0,0,.156-.828,1.4,1.4,0,0,0-.187-.734,1.56,1.56,0,0,0-.527-.523,2.607,2.607,0,0,0-.812-.316,4.755,4.755,0,0,0-1.035-.105H81.7V153.18h1.18a2.749,2.749,0,0,0,.84-.121,1.888,1.888,0,0,0,.648-.348,1.5,1.5,0,0,0,.414-.559,1.872,1.872,0,0,0,.145-.754,1.4,1.4,0,0,0-.5-1.2,2.425,2.425,0,0,0-1.469-.375,5.815,5.815,0,0,0-1.062.1,9.314,9.314,0,0,0-1.172.3v-1.187q.266-.094.566-.168t.6-.125q.3-.051.6-.078t.57-.027a5.238,5.238,0,0,1,1.43.176,2.935,2.935,0,0,1,1.031.5,2.11,2.11,0,0,1,.625.8,2.543,2.543,0,0,1,.211,1.055,2.364,2.364,0,0,1-.449,1.469,3.1,3.1,0,0,1-1.23.945,2.782,2.782,0,0,1,.785.25,2.739,2.739,0,0,1,.7.48,2.341,2.341,0,0,1,.5.691A2.012,2.012,0,0,1,86.852,155.9Zm8.938-5.844L91.508,159H89.953l4.445-8.945H88.883v-1.266h6.906Zm8.977,5.711a3.436,3.436,0,0,1-.254,1.32,3.165,3.165,0,0,1-.723,1.074,3.379,3.379,0,0,1-1.129.719,3.943,3.943,0,0,1-1.465.262,3.862,3.862,0,0,1-1.492-.27,2.651,2.651,0,0,1-1.086-.828,3.876,3.876,0,0,1-.664-1.41,7.9,7.9,0,0,1-.227-2.016,11.054,11.054,0,0,1,.1-1.516,6.8,6.8,0,0,1,.336-1.383,4.782,4.782,0,0,1,.625-1.187,3.75,3.75,0,0,1,.973-.926,4.682,4.682,0,0,1,1.371-.6,6.989,6.989,0,0,1,1.828-.215h1.008v1.188h-1.094a5.14,5.14,0,0,0-1.586.219,3.161,3.161,0,0,0-1.125.617,2.667,2.667,0,0,0-.7.961,4.088,4.088,0,0,0-.3,1.258l-.031.32a4.653,4.653,0,0,1,1.137-.465,5.285,5.285,0,0,1,1.395-.176,3.724,3.724,0,0,1,1.355.227,2.658,2.658,0,0,1,.969.629,2.6,2.6,0,0,1,.582.965A3.741,3.741,0,0,1,104.766,155.766Zm-1.422.086a2.955,2.955,0,0,0-.113-.848,1.6,1.6,0,0,0-.355-.641,1.622,1.622,0,0,0-.613-.406,2.443,2.443,0,0,0-.887-.145,3.4,3.4,0,0,0-.6.055,4.275,4.275,0,0,0-.6.152,5.1,5.1,0,0,0-.559.223,4.21,4.21,0,0,0-.484.266,8.452,8.452,0,0,0,.141,1.684,3,3,0,0,0,.418,1.082,1.56,1.56,0,0,0,.684.578,2.389,2.389,0,0,0,.938.172,2.231,2.231,0,0,0,.816-.145,1.761,1.761,0,0,0,.641-.426,2,2,0,0,0,.422-.684A2.58,2.58,0,0,0,103.344,155.852ZM119.4,162.2h-1.281v-16H119.4Zm100.109-5.461h-1.742V159h-1.391v-2.258h-4.914v-1.2l4.352-6.758h1.953v6.758h1.742Zm-3.133-6.641-3.555,5.445h3.555Zm17.383,12.1h-1.281v-16h1.281ZM5.039,186.2H3.758v-16H5.039Zm20.43-3.2H18.742v-1.219l2.641-2.625q.648-.641,1.055-1.109a5.89,5.89,0,0,0,.633-.855,2.606,2.606,0,0,0,.3-.73,3.345,3.345,0,0,0,.078-.742,2.483,2.483,0,0,0-.1-.715,1.7,1.7,0,0,0-.312-.6,1.449,1.449,0,0,0-.547-.406,1.982,1.982,0,0,0-.8-.148,2.428,2.428,0,0,0-1.18.289,4.041,4.041,0,0,0-.977.75l-.75-.9a4.6,4.6,0,0,1,1.332-.977,3.961,3.961,0,0,1,1.754-.367,3.6,3.6,0,0,1,1.238.2,2.767,2.767,0,0,1,.965.586,2.6,2.6,0,0,1,.629.938,3.331,3.331,0,0,1,.223,1.25,3.624,3.624,0,0,1-.156,1.086,4.167,4.167,0,0,1-.473,1,7.814,7.814,0,0,1-.8,1.027q-.48.531-1.137,1.164l-1.852,1.8h4.961Zm8.6-3.1a2.963,2.963,0,0,1-.273,1.262,2.871,2.871,0,0,1-.82,1.031,4.059,4.059,0,0,1-1.375.7,6.6,6.6,0,0,1-1.93.254q-.609,0-1.094-.039t-.906-.1v-1.219q.484.086,1.023.133t1.1.047a5.426,5.426,0,0,0,1.309-.137,2.47,2.47,0,0,0,.887-.395,1.518,1.518,0,0,0,.5-.625,2.1,2.1,0,0,0,.156-.828,1.4,1.4,0,0,0-.187-.734,1.56,1.56,0,0,0-.527-.523,2.607,2.607,0,0,0-.812-.316,4.755,4.755,0,0,0-1.035-.105H28.922V177.18H30.1a2.749,2.749,0,0,0,.84-.121,1.888,1.888,0,0,0,.648-.348,1.5,1.5,0,0,0,.414-.559,1.872,1.872,0,0,0,.145-.754,1.4,1.4,0,0,0-.5-1.2,2.425,2.425,0,0,0-1.469-.375,5.815,5.815,0,0,0-1.062.1,9.314,9.314,0,0,0-1.172.3v-1.187q.266-.094.566-.168t.6-.125q.3-.051.6-.078t.57-.027a5.238,5.238,0,0,1,1.43.176,2.935,2.935,0,0,1,1.031.5,2.11,2.11,0,0,1,.625.8,2.543,2.543,0,0,1,.211,1.055,2.364,2.364,0,0,1-.449,1.469,3.1,3.1,0,0,1-1.23.945,2.782,2.782,0,0,1,.785.25,2.739,2.739,0,0,1,.7.48,2.341,2.341,0,0,1,.5.691A2.012,2.012,0,0,1,34.07,179.9Zm9.5.844H41.828V183H40.438v-2.258H35.523v-1.2l4.352-6.758h1.953v6.758H43.57ZM40.438,174.1l-3.555,5.445h3.555ZM51.859,183H45.133v-1.219l2.641-2.625q.648-.641,1.055-1.109a5.891,5.891,0,0,0,.633-.855,2.606,2.606,0,0,0,.3-.73,3.346,3.346,0,0,0,.078-.742,2.483,2.483,0,0,0-.1-.715,1.7,1.7,0,0,0-.312-.6,1.449,1.449,0,0,0-.547-.406,1.982,1.982,0,0,0-.8-.148,2.428,2.428,0,0,0-1.18.289,4.041,4.041,0,0,0-.977.75l-.75-.9a4.6,4.6,0,0,1,1.332-.977,3.961,3.961,0,0,1,1.754-.367,3.6,3.6,0,0,1,1.238.2,2.767,2.767,0,0,1,.965.586,2.6,2.6,0,0,1,.629.938,3.331,3.331,0,0,1,.223,1.25,3.624,3.624,0,0,1-.156,1.086,4.168,4.168,0,0,1-.473,1,7.814,7.814,0,0,1-.8,1.027q-.48.531-1.137,1.164L46.9,181.7h4.961Zm8.6-3.1a2.963,2.963,0,0,1-.273,1.262,2.871,2.871,0,0,1-.82,1.031,4.059,4.059,0,0,1-1.375.7,6.6,6.6,0,0,1-1.93.254q-.609,0-1.094-.039t-.906-.1v-1.219q.484.086,1.023.133t1.1.047a5.426,5.426,0,0,0,1.309-.137,2.47,2.47,0,0,0,.887-.395,1.518,1.518,0,0,0,.5-.625,2.1,2.1,0,0,0,.156-.828,1.4,1.4,0,0,0-.187-.734,1.56,1.56,0,0,0-.527-.523,2.607,2.607,0,0,0-.812-.316,4.755,4.755,0,0,0-1.035-.105H55.313V177.18h1.18a2.749,2.749,0,0,0,.84-.121,1.888,1.888,0,0,0,.648-.348,1.5,1.5,0,0,0,.414-.559,1.872,1.872,0,0,0,.145-.754,1.4,1.4,0,0,0-.5-1.2,2.425,2.425,0,0,0-1.469-.375,5.815,5.815,0,0,0-1.062.1,9.314,9.314,0,0,0-1.172.3v-1.187q.266-.094.566-.168t.6-.125q.3-.051.6-.078t.57-.027a5.238,5.238,0,0,1,1.43.176,2.935,2.935,0,0,1,1.031.5,2.11,2.11,0,0,1,.625.8,2.543,2.543,0,0,1,.211,1.055,2.364,2.364,0,0,1-.449,1.469,3.1,3.1,0,0,1-1.23.945,2.782,2.782,0,0,1,.785.25,2.739,2.739,0,0,1,.7.48,2.341,2.341,0,0,1,.5.691A2.012,2.012,0,0,1,60.461,179.9Zm8.734-.164a2.929,2.929,0,0,1-.328,1.383,3.3,3.3,0,0,1-.9,1.074,4.307,4.307,0,0,1-1.355.7,5.508,5.508,0,0,1-1.687.25q-.227,0-.488-.012t-.52-.031q-.258-.02-.5-.043T62.969,183v-1.234a6.564,6.564,0,0,0,.965.148q.543.047,1.1.047a3.95,3.95,0,0,0,1.125-.148,2.513,2.513,0,0,0,.852-.426,1.868,1.868,0,0,0,.539-.672,2.04,2.04,0,0,0,.188-.887,1.52,1.52,0,0,0-.684-1.387,3.683,3.683,0,0,0-1.965-.434H63.148v-5.219h5.5v1.188H64.43v2.867h.891a7.6,7.6,0,0,1,1.43.133,3.671,3.671,0,0,1,1.238.465,2.559,2.559,0,0,1,.875.891A2.707,2.707,0,0,1,69.2,179.734Zm9.563,1.008H77.016V183H75.625v-2.258H70.711v-1.2l4.352-6.758h1.953v6.758h1.742ZM75.625,174.1l-3.555,5.445h3.555Zm11.547,5.664a3.436,3.436,0,0,1-.254,1.32,3.165,3.165,0,0,1-.723,1.074,3.379,3.379,0,0,1-1.129.719,3.943,3.943,0,0,1-1.465.262,3.862,3.862,0,0,1-1.492-.27,2.651,2.651,0,0,1-1.086-.828,3.876,3.876,0,0,1-.664-1.41,7.9,7.9,0,0,1-.227-2.016,11.054,11.054,0,0,1,.1-1.516,6.8,6.8,0,0,1,.336-1.383,4.782,4.782,0,0,1,.625-1.187,3.75,3.75,0,0,1,.973-.926,4.682,4.682,0,0,1,1.371-.6,6.989,6.989,0,0,1,1.828-.215h1.008v1.188H85.281a5.14,5.14,0,0,0-1.586.219,3.161,3.161,0,0,0-1.125.617,2.667,2.667,0,0,0-.7.961,4.088,4.088,0,0,0-.3,1.258l-.031.32a4.653,4.653,0,0,1,1.137-.465,5.285,5.285,0,0,1,1.395-.176,3.724,3.724,0,0,1,1.355.227,2.658,2.658,0,0,1,.969.629,2.6,2.6,0,0,1,.582.965A3.741,3.741,0,0,1,87.172,179.766Zm-1.422.086a2.955,2.955,0,0,0-.113-.848,1.6,1.6,0,0,0-.355-.641,1.622,1.622,0,0,0-.613-.406,2.443,2.443,0,0,0-.887-.145,3.4,3.4,0,0,0-.6.055,4.275,4.275,0,0,0-.6.152,5.1,5.1,0,0,0-.559.223,4.21,4.21,0,0,0-.484.266,8.452,8.452,0,0,0,.141,1.684,3,3,0,0,0,.418,1.082,1.56,1.56,0,0,0,.684.578,2.389,2.389,0,0,0,.938.172,2.231,2.231,0,0,0,.816-.145,1.761,1.761,0,0,0,.641-.426,2,2,0,0,0,.422-.684A2.58,2.58,0,0,0,85.75,179.852Zm9.836-.117a2.929,2.929,0,0,1-.328,1.383,3.3,3.3,0,0,1-.9,1.074,4.307,4.307,0,0,1-1.355.7,5.508,5.508,0,0,1-1.687.25q-.227,0-.488-.012t-.52-.031q-.258-.02-.5-.043T89.359,183v-1.234a6.564,6.564,0,0,0,.965.148q.543.047,1.1.047a3.95,3.95,0,0,0,1.125-.148,2.513,2.513,0,0,0,.852-.426,1.868,1.868,0,0,0,.539-.672,2.04,2.04,0,0,0,.188-.887,1.52,1.52,0,0,0-.684-1.387,3.683,3.683,0,0,0-1.965-.434H89.539v-5.219h5.5v1.188H90.82v2.867h.891a7.6,7.6,0,0,1,1.43.133,3.671,3.671,0,0,1,1.238.465,2.559,2.559,0,0,1,.875.891A2.707,2.707,0,0,1,95.586,179.734ZM119.4,186.2h-1.281v-16H119.4Zm100.109-5.461h-1.742V183h-1.391v-2.258h-4.914v-1.2l4.352-6.758h1.953v6.758h1.742Zm-3.133-6.641-3.555,5.445h3.555Zm17.383,12.1h-1.281v-16h1.281ZM5.039,210.2H3.758v-16H5.039ZM25.383,207H18.969v-1.266h2.625v-7.453l-2.445,1.328-.5-1.156,3.25-1.711h1.2v8.992h2.281Zm8.625-3.266a2.929,2.929,0,0,1-.328,1.383,3.3,3.3,0,0,1-.9,1.074,4.307,4.307,0,0,1-1.355.7,5.508,5.508,0,0,1-1.687.25q-.227,0-.488-.012t-.52-.031q-.258-.02-.5-.043T27.781,207v-1.234a6.564,6.564,0,0,0,.965.148q.543.047,1.1.047a3.95,3.95,0,0,0,1.125-.148,2.514,2.514,0,0,0,.852-.426,1.868,1.868,0,0,0,.539-.672,2.04,2.04,0,0,0,.188-.887,1.52,1.52,0,0,0-.684-1.387,3.683,3.683,0,0,0-1.965-.434H27.961v-5.219h5.5v1.188H29.242v2.867h.891a7.6,7.6,0,0,1,1.43.133,3.671,3.671,0,0,1,1.238.465,2.559,2.559,0,0,1,.875.891A2.707,2.707,0,0,1,34.008,203.734Zm9.18.031a3.436,3.436,0,0,1-.254,1.32,3.165,3.165,0,0,1-.723,1.074,3.379,3.379,0,0,1-1.129.719,3.943,3.943,0,0,1-1.465.262,3.862,3.862,0,0,1-1.492-.27,2.651,2.651,0,0,1-1.086-.828,3.876,3.876,0,0,1-.664-1.41,7.9,7.9,0,0,1-.227-2.016,11.055,11.055,0,0,1,.1-1.516,6.8,6.8,0,0,1,.336-1.383,4.782,4.782,0,0,1,.625-1.187,3.75,3.75,0,0,1,.973-.926,4.682,4.682,0,0,1,1.371-.6,6.989,6.989,0,0,1,1.828-.215h1.008v1.188H41.3a5.14,5.14,0,0,0-1.586.219,3.161,3.161,0,0,0-1.125.617,2.667,2.667,0,0,0-.7.961,4.089,4.089,0,0,0-.3,1.258l-.031.32a4.653,4.653,0,0,1,1.137-.465,5.285,5.285,0,0,1,1.395-.176,3.724,3.724,0,0,1,1.355.227,2.658,2.658,0,0,1,.969.629,2.6,2.6,0,0,1,.582.965A3.741,3.741,0,0,1,43.188,203.766Zm-1.422.086a2.955,2.955,0,0,0-.113-.848,1.6,1.6,0,0,0-.355-.641,1.622,1.622,0,0,0-.613-.406,2.443,2.443,0,0,0-.887-.145,3.4,3.4,0,0,0-.6.055,4.275,4.275,0,0,0-.6.152,5.1,5.1,0,0,0-.559.223,4.21,4.21,0,0,0-.484.266,8.452,8.452,0,0,0,.141,1.684,3,3,0,0,0,.418,1.082,1.56,1.56,0,0,0,.684.578,2.389,2.389,0,0,0,.938.172,2.231,2.231,0,0,0,.816-.145,1.761,1.761,0,0,0,.641-.426,2,2,0,0,0,.422-.684A2.58,2.58,0,0,0,41.766,203.852ZM51.8,201.32a8.125,8.125,0,0,1-.359,2.566,4.372,4.372,0,0,1-1.062,1.766,4.274,4.274,0,0,1-1.742,1.02,7.972,7.972,0,0,1-2.4.328h-.852v-1.187h.945a6.586,6.586,0,0,0,1.742-.2,3.334,3.334,0,0,0,1.223-.6,2.61,2.61,0,0,0,.746-.961,3.912,3.912,0,0,0,.32-1.293l.031-.32a4.665,4.665,0,0,1-1.133.465,5.241,5.241,0,0,1-1.391.176,3.755,3.755,0,0,1-1.359-.227,2.556,2.556,0,0,1-1.555-1.6,3.657,3.657,0,0,1-.2-1.215,3.411,3.411,0,0,1,.258-1.328,3.242,3.242,0,0,1,.723-1.074,3.412,3.412,0,0,1,1.113-.723,3.737,3.737,0,0,1,1.43-.266,3.845,3.845,0,0,1,1.4.25,2.725,2.725,0,0,1,1.113.809,4.01,4.01,0,0,1,.734,1.449A7.651,7.651,0,0,1,51.8,201.32Zm-3.578-3.555a2.209,2.209,0,0,0-.809.145,1.785,1.785,0,0,0-.641.422,1.992,1.992,0,0,0-.426.684,2.577,2.577,0,0,0-.156.93,2.944,2.944,0,0,0,.113.852,1.63,1.63,0,0,0,.352.637,1.547,1.547,0,0,0,.613.4,2.537,2.537,0,0,0,.891.141,3.424,3.424,0,0,0,.6-.055,4.646,4.646,0,0,0,1.16-.367,3.7,3.7,0,0,0,.477-.266,8.019,8.019,0,0,0-.148-1.684,3.088,3.088,0,0,0-.43-1.086,1.581,1.581,0,0,0-.684-.582A2.3,2.3,0,0,0,48.227,197.766Zm12.43,6.672a2.368,2.368,0,0,1-1.008,2,3.5,3.5,0,0,1-1.125.523,5.735,5.735,0,0,1-2.879-.008,3.164,3.164,0,0,1-1.066-.523,2.206,2.206,0,0,1-.648-.8,2.339,2.339,0,0,1-.219-1.016A2.573,2.573,0,0,1,54.234,203a4.663,4.663,0,0,1,1.617-1.234,4.081,4.081,0,0,1-1.461-1.129,2.361,2.361,0,0,1,.355-3.2,3.071,3.071,0,0,1,1.027-.574,4.425,4.425,0,0,1,1.453-.215,5.146,5.146,0,0,1,1.387.168,2.927,2.927,0,0,1,1,.48,1.988,1.988,0,0,1,.609.758,2.548,2.548,0,0,1-.293,2.508,4.224,4.224,0,0,1-1.41,1.094,6.67,6.67,0,0,1,.844.5,3.658,3.658,0,0,1,.68.609,2.476,2.476,0,0,1,.609,1.672Zm-1.617-5.281a1.176,1.176,0,0,0-.488-1.035,2.935,2.935,0,0,0-2.734,0,1.142,1.142,0,0,0-.488,1.008,1.343,1.343,0,0,0,.117.563,1.517,1.517,0,0,0,.363.484,3.7,3.7,0,0,0,.613.445,8.455,8.455,0,0,0,.875.445,4.41,4.41,0,0,0,1.313-.863A1.463,1.463,0,0,0,59.039,199.156Zm.141,5.383a1.723,1.723,0,0,0-.094-.562,1.562,1.562,0,0,0-.336-.539,3.373,3.373,0,0,0-.648-.531,7.637,7.637,0,0,0-1.031-.547,6.613,6.613,0,0,0-.895.512,3.083,3.083,0,0,0-.586.516,1.642,1.642,0,0,0-.316.543,1.865,1.865,0,0,0-.094.594,1.24,1.24,0,0,0,.152.621,1.4,1.4,0,0,0,.418.457,1.9,1.9,0,0,0,.633.281,3.215,3.215,0,0,0,.8.094,3.42,3.42,0,0,0,.781-.086,1.983,1.983,0,0,0,.637-.262,1.312,1.312,0,0,0,.426-.445A1.264,1.264,0,0,0,59.18,204.539Zm10.078-.641a2.963,2.963,0,0,1-.273,1.262,2.871,2.871,0,0,1-.82,1.031,4.059,4.059,0,0,1-1.375.7,6.6,6.6,0,0,1-1.93.254q-.609,0-1.094-.039t-.906-.1v-1.219q.484.086,1.023.133t1.1.047a5.426,5.426,0,0,0,1.309-.137,2.47,2.47,0,0,0,.887-.395,1.518,1.518,0,0,0,.5-.625,2.1,2.1,0,0,0,.156-.828,1.4,1.4,0,0,0-.187-.734,1.56,1.56,0,0,0-.527-.523,2.607,2.607,0,0,0-.812-.316,4.755,4.755,0,0,0-1.035-.105H64.109V201.18h1.18a2.749,2.749,0,0,0,.84-.121,1.888,1.888,0,0,0,.648-.348,1.5,1.5,0,0,0,.414-.559,1.872,1.872,0,0,0,.145-.754,1.4,1.4,0,0,0-.5-1.2,2.425,2.425,0,0,0-1.469-.375,5.815,5.815,0,0,0-1.062.1,9.314,9.314,0,0,0-1.172.3v-1.187q.266-.094.566-.168t.6-.125q.3-.051.6-.078t.57-.027a5.238,5.238,0,0,1,1.43.176,2.935,2.935,0,0,1,1.031.5,2.11,2.11,0,0,1,.625.8,2.543,2.543,0,0,1,.211,1.055,2.364,2.364,0,0,1-.449,1.469,3.1,3.1,0,0,1-1.23.945,2.782,2.782,0,0,1,.785.25,2.739,2.739,0,0,1,.7.48,2.341,2.341,0,0,1,.5.691A2.012,2.012,0,0,1,69.258,203.9Zm9.5.844H77.016V207H75.625v-2.258H70.711v-1.2l4.352-6.758h1.953v6.758h1.742ZM75.625,198.1l-3.555,5.445h3.555Zm11.547,5.664a3.436,3.436,0,0,1-.254,1.32,3.165,3.165,0,0,1-.723,1.074,3.379,3.379,0,0,1-1.129.719,3.943,3.943,0,0,1-1.465.262,3.862,3.862,0,0,1-1.492-.27,2.651,2.651,0,0,1-1.086-.828,3.876,3.876,0,0,1-.664-1.41,7.9,7.9,0,0,1-.227-2.016,11.054,11.054,0,0,1,.1-1.516,6.8,6.8,0,0,1,.336-1.383,4.782,4.782,0,0,1,.625-1.187,3.75,3.75,0,0,1,.973-.926,4.682,4.682,0,0,1,1.371-.6,6.989,6.989,0,0,1,1.828-.215h1.008v1.188H85.281a5.14,5.14,0,0,0-1.586.219,3.161,3.161,0,0,0-1.125.617,2.667,2.667,0,0,0-.7.961,4.088,4.088,0,0,0-.3,1.258l-.031.32a4.653,4.653,0,0,1,1.137-.465,5.285,5.285,0,0,1,1.395-.176,3.724,3.724,0,0,1,1.355.227,2.658,2.658,0,0,1,.969.629,2.6,2.6,0,0,1,.582.965A3.741,3.741,0,0,1,87.172,203.766Zm-1.422.086a2.955,2.955,0,0,0-.113-.848,1.6,1.6,0,0,0-.355-.641,1.622,1.622,0,0,0-.613-.406,2.443,2.443,0,0,0-.887-.145,3.4,3.4,0,0,0-.6.055,4.275,4.275,0,0,0-.6.152,5.1,5.1,0,0,0-.559.223,4.21,4.21,0,0,0-.484.266,8.452,8.452,0,0,0,.141,1.684,3,3,0,0,0,.418,1.082,1.56,1.56,0,0,0,.684.578,2.389,2.389,0,0,0,.938.172,2.231,2.231,0,0,0,.816-.145,1.761,1.761,0,0,0,.641-.426,2,2,0,0,0,.422-.684A2.58,2.58,0,0,0,85.75,203.852ZM119.4,210.2h-1.281v-16H119.4Zm99.406-6.3a2.963,2.963,0,0,1-.273,1.262,2.871,2.871,0,0,1-.82,1.031,4.059,4.059,0,0,1-1.375.7,6.6,6.6,0,0,1-1.93.254q-.609,0-1.094-.039t-.906-.1v-1.219q.484.086,1.023.133t1.1.047a5.426,5.426,0,0,0,1.309-.137,2.47,2.47,0,0,0,.887-.395,1.518,1.518,0,0,0,.5-.625,2.1,2.1,0,0,0,.156-.828,1.4,1.4,0,0,0-.187-.734,1.56,1.56,0,0,0-.527-.523,2.607,2.607,0,0,0-.812-.316,4.755,4.755,0,0,0-1.035-.105h-1.164V201.18h1.18a2.749,2.749,0,0,0,.84-.121,1.888,1.888,0,0,0,.648-.348,1.5,1.5,0,0,0,.414-.559,1.872,1.872,0,0,0,.145-.754,1.4,1.4,0,0,0-.5-1.2,2.425,2.425,0,0,0-1.469-.375,5.815,5.815,0,0,0-1.062.1,9.315,9.315,0,0,0-1.172.3v-1.187q.266-.094.566-.168t.6-.125q.3-.051.6-.078t.57-.027a5.238,5.238,0,0,1,1.43.176,2.935,2.935,0,0,1,1.031.5,2.11,2.11,0,0,1,.625.8,2.543,2.543,0,0,1,.211,1.055,2.364,2.364,0,0,1-.449,1.469,3.1,3.1,0,0,1-1.23.945,2.782,2.782,0,0,1,.785.25,2.739,2.739,0,0,1,.7.48,2.341,2.341,0,0,1,.5.691A2.012,2.012,0,0,1,218.8,203.9Zm14.953,6.3h-1.281v-16h1.281ZM8.141,227.336H5.07v3.188H3.727v-3.187H.656v-1.187h3.07v-3.164H5.07v3.164h3.07Zm7.391.047H10.859V226.1h4.672Zm8.8,0H19.656V226.1h4.672Zm8.8,0H28.453V226.1h4.672Zm8.8,0H37.25V226.1h4.672Zm8.8,0H46.047V226.1h4.672Zm8.8,0H54.844V226.1h4.672Zm8.8,0H63.641V226.1h4.672Zm8.8,0H72.438V226.1h4.672Zm8.8,0H81.234V226.1h4.672Zm8.8,0H90.031V226.1H94.7Zm8.8,0H98.828V226.1H103.5Zm8.8,0h-4.672V226.1H112.3Zm10.2-.047h-3.07v3.188h-1.344v-3.187h-3.07v-1.187h3.07v-3.164h1.344v3.164h3.07Zm7.391.047h-4.672V226.1h4.672Zm8.8,0h-4.672V226.1h4.672Zm8.8,0h-4.672V226.1h4.672Zm8.8,0h-4.672V226.1h4.672Zm8.8,0h-4.672V226.1h4.672Zm8.8,0H169.2V226.1h4.672Zm8.8,0H178V226.1h4.672Zm8.8,0H186.8V226.1h4.672Zm8.8,0h-4.672V226.1h4.672Zm8.8,0h-4.672V226.1h4.672Zm8.8,0h-4.672V226.1h4.672Zm8.8,0h-4.672V226.1h4.672Zm10.2-.047h-3.07v3.188h-1.344v-3.187h-3.07v-1.187h3.07v-3.164h1.344v3.164h3.07Z" transform="translate(844 14858)" fill="#f4a338"/>
  </g>
</svg>
